<svg version="1.1" viewBox="0.0 0.0 782.0 154.66666666666666" fill="none" stroke="none" stroke-linecap="square" stroke-miterlimit="10" xmlns:xlink="http://www.w3.org/1999/xlink" xmlns="http://www.w3.org/2000/svg"><clipPath id="p.0"><path d="m0 0l782.0 0l0 154.66667l-782.0 0l0 -154.66667z" clip-rule="nonzero"/></clipPath><g clip-path="url(#p.0)"><path fill="#000000" fill-opacity="0.0" d="m0 0l782.0 0l0 154.66667l-782.0 0z" fill-rule="evenodd"/><path fill="#000000" fill-opacity="0.0" d="m520.0026 53.41995l253.4173 0l0 29.259838l-253.4173 0z" fill-rule="evenodd"/><path stroke="#000000" stroke-width="2.0" stroke-linejoin="round" stroke-linecap="butt" d="m520.0026 53.41995l253.4173 0l0 29.259838l-253.4173 0z" fill-rule="evenodd"/><path fill="#000000" d="m531.05646 69.31862l0 -0.96875l2.890625 0l0 0.96875l-2.890625 0z" fill-rule="nonzero"/><path fill="#000000" d="m540.1703 72.84987l0 -7.0625l1.28125 0l0 1.328125q0.390625 -0.625 1.0 -1.046875q0.609375 -0.4375 1.40625 -0.4375q0.46875 0 0.8125 0.15625q0.34375 0.140625 0.625 0.421875q0.28125 0.265625 0.5 0.90625q0.390625 -0.640625 0.984375 -1.0625q0.609375 -0.4375 1.390625 -0.4375q0.75 0 1.34375 0.46875q0.609375 0.46875 0.609375 1.625l0 5.140625l-1.28125 0l0 -4.9375q0 -0.703125 -0.296875 -0.953125q-0.296875 -0.265625 -0.65625 -0.265625q-0.46875 0 -0.953125 0.296875q-0.484375 0.28125 -1.140625 1.125l0 4.734375l-1.296875 0l0 -4.9375q0 -0.71875 -0.296875 -0.96875q-0.296875 -0.25 -0.671875 -0.25q-0.46875 0 -0.9375 0.28125q-0.46875 0.28125 -1.140625 1.140625l0 4.734375l-1.28125 0zm11.724304 0.96875l0 -0.96875l5.53125 0l0 0.96875l-5.53125 0zm11.9140625 1.609375l0 -3.90625q-0.390625 0.75 -0.984375 1.125q-0.578125 0.359375 -1.359375 0.359375q-1.3125 0 -2.03125 -0.953125q-0.71875 -0.953125 -0.71875 -2.515625q0 -1.671875 0.8125 -2.78125q0.8125 -1.125 2.203125 -1.125q0.40625 0 0.78125 0.09375q0.375 0.09375 0.65625 0.28125q0.296875 0.171875 0.640625 0.578125l0 -0.796875l1.296875 0l0 9.640625l-1.296875 0zm0 -7.953125q-0.65625 -0.59375 -1.046875 -0.734375q-0.390625 -0.15625 -0.828125 -0.15625q-0.9375 0 -1.390625 0.796875q-0.453125 0.78125 -0.453125 2.03125q0 1.140625 0.390625 1.8125q0.40625 0.65625 1.25 0.65625q0.53125 0 1.046875 -0.28125q0.53125 -0.296875 1.03125 -0.875l0 -3.25zm8.279297 5.375l0 -1.328125q-0.5 0.71875 -1.140625 1.109375q-0.640625 0.375 -1.34375 0.375q-0.890625 0 -1.453125 -0.5625q-0.5625 -0.5625 -0.5625 -1.578125l0 -5.078125l1.28125 0l0 4.65625q0 0.734375 0.125 0.96875q0.140625 0.234375 0.375 0.375q0.234375 0.125 0.5 0.125q0.46875 0 1.015625 -0.296875q0.5625 -0.296875 1.203125 -1.25l0 -4.578125l1.28125 0l0 7.0625l-1.28125 0zm9.03717 -0.234375q-1.296875 0.390625 -2.21875 0.390625q-1.640625 0 -2.59375 -1.109375q-0.9375 -1.109375 -0.9375 -2.609375q0 -1.0 0.421875 -1.890625q0.421875 -0.90625 1.09375 -1.34375q0.671875 -0.4375 1.578125 -0.4375q1.21875 0 1.953125 0.890625q0.734375 0.875 0.734375 2.625l-0.015625 0.390625l-4.453125 0q0.109375 0.9375 0.40625 1.453125q0.296875 0.5 0.796875 0.78125q0.5 0.28125 1.265625 0.28125q0.390625 0 0.765625 -0.0625q0.390625 -0.078125 1.203125 -0.375l0 1.015625zm-4.375 -4.0625l3.109375 0q0 -1.0625 -0.421875 -1.515625q-0.40625 -0.453125 -1.046875 -0.453125q-0.734375 0 -1.15625 0.5q-0.40625 0.484375 -0.484375 1.46875zm11.034851 4.296875l0 -1.328125q-0.5 0.71875 -1.140625 1.109375q-0.640625 0.375 -1.34375 0.375q-0.890625 0 -1.453125 -0.5625q-0.5625 -0.5625 -0.5625 -1.578125l0 -5.078125l1.28125 0l0 4.65625q0 0.734375 0.125 0.96875q0.140625 0.234375 0.375 0.375q0.234375 0.125 0.5 0.125q0.46875 0 1.015625 -0.296875q0.5625 -0.296875 1.203125 -1.25l0 -4.578125l1.28125 0l0 7.0625l-1.28125 0zm9.037109 -0.234375q-1.296875 0.390625 -2.21875 0.390625q-1.640625 0 -2.59375 -1.109375q-0.9375 -1.109375 -0.9375 -2.609375q0 -1.0 0.421875 -1.890625q0.421875 -0.90625 1.09375 -1.34375q0.671875 -0.4375 1.578125 -0.4375q1.21875 0 1.953125 0.890625q0.734375 0.875 0.734375 2.625l-0.015625 0.390625l-4.453125 0q0.109375 0.9375 0.40625 1.453125q0.296875 0.5 0.796875 0.78125q0.5 0.28125 1.265625 0.28125q0.390625 0 0.765625 -0.0625q0.390625 -0.078125 1.203125 -0.375l0 1.015625zm-4.375 -4.0625l3.109375 0q0 -1.0625 -0.421875 -1.515625q-0.40625 -0.453125 -1.046875 -0.453125q-0.734375 0 -1.15625 0.5q-0.40625 0.484375 -0.484375 1.46875zm6.800537 4.296875l0 -1.28125l1.28125 0l0 1.28125l-1.28125 0zm0 -5.78125l0 -1.28125l1.28125 0l0 1.28125l-1.28125 0zm7.981079 5.53125l0 -1.171875q1.265625 0.625 2.1875 0.625q0.546875 0 0.90625 -0.296875q0.375 -0.3125 0.375 -0.75q0 -0.28125 -0.171875 -0.546875q-0.1875 -0.265625 -0.84375 -0.546875l-0.75 -0.3125q-0.859375 -0.359375 -1.265625 -0.84375q-0.390625 -0.46875 -0.390625 -1.140625q0 -0.859375 0.609375 -1.421875q0.625 -0.5625 1.828125 -0.5625q0.59375 0 1.46875 0.15625l0.265625 0.046875l0 1.078125q-1.0625 -0.328125 -1.703125 -0.328125q-0.625 0 -0.9375 0.265625q-0.296875 0.265625 -0.296875 0.640625q0 0.28125 0.203125 0.515625q0.203125 0.234375 0.734375 0.453125l0.625 0.265625q1.234375 0.53125 1.578125 1.046875q0.328125 0.5 0.328125 1.109375q0 0.578125 -0.3125 1.078125q-0.3125 0.5 -0.9375 0.78125q-0.609375 0.265625 -1.359375 0.265625q-0.875 0 -2.140625 -0.40625zm10.216064 0.25q-0.59375 0.15625 -1.03125 0.15625q-0.953125 0 -1.515625 -0.546875q-0.5625 -0.546875 -0.5625 -1.5625l0 -4.15625l-0.875 0l0 -0.953125l0.875 0l0 -1.28125l1.28125 -0.125l0 1.40625l1.859375 0l0 0.953125l-1.859375 0l0 3.921875q0 0.75 0.28125 1.078125q0.296875 0.3125 0.921875 0.3125q0.25 0 0.625 -0.09375l0 0.890625zm6.3600464 0l0 -1.328125q-0.390625 0.75 -0.984375 1.125q-0.578125 0.359375 -1.359375 0.359375q-1.3125 0 -2.03125 -0.953125q-0.71875 -0.953125 -0.71875 -2.515625q0 -1.671875 0.8125 -2.78125q0.8125 -1.125 2.203125 -1.125q0.40625 0 0.78125 0.09375q0.375 0.09375 0.65625 0.28125q0.296875 0.171875 0.640625 0.578125l0 -4.015625l1.296875 0l0 10.28125l-1.296875 0zm0 -5.375q-0.65625 -0.59375 -1.046875 -0.734375q-0.390625 -0.15625 -0.828125 -0.15625q-0.9375 0 -1.390625 0.796875q-0.453125 0.78125 -0.453125 2.03125q0 1.140625 0.390625 1.8125q0.40625 0.65625 1.25 0.65625q0.53125 0 1.046875 -0.28125q0.53125 -0.296875 1.03125 -0.875l0 -3.25zm4.044922 5.375l0 -1.28125l1.28125 0l0 1.28125l-1.28125 0zm0 -5.78125l0 -1.28125l1.28125 0l0 1.28125l-1.28125 0zm4.217102 5.78125l0 -1.28125l1.28125 0l0 1.28125l-1.28125 0zm0 -5.78125l0 -1.28125l1.28125 0l0 1.28125l-1.28125 0zm4.029602 5.78125l0 -10.28125l1.28125 0l0 10.28125l-1.28125 0zm3.8526611 0l0 -7.0625l1.28125 0l0 7.0625l-1.28125 0zm0 -8.34375l0 -1.28125l1.28125 0l0 1.28125l-1.28125 0zm3.5870361 8.09375l0 -1.171875q1.265625 0.625 2.1875 0.625q0.546875 0 0.90625 -0.296875q0.375 -0.3125 0.375 -0.75q0 -0.28125 -0.171875 -0.546875q-0.1875 -0.265625 -0.84375 -0.546875l-0.75 -0.3125q-0.859375 -0.359375 -1.265625 -0.84375q-0.390625 -0.46875 -0.390625 -1.140625q0 -0.859375 0.609375 -1.421875q0.625 -0.5625 1.828125 -0.5625q0.59375 0 1.46875 0.15625l0.265625 0.046875l0 1.078125q-1.0625 -0.328125 -1.703125 -0.328125q-0.625 0 -0.9375 0.265625q-0.296875 0.265625 -0.296875 0.640625q0 0.28125 0.203125 0.515625q0.203125 0.234375 0.734375 0.453125l0.625 0.265625q1.234375 0.53125 1.578125 1.046875q0.328125 0.5 0.328125 1.109375q0 0.578125 -0.3125 1.078125q-0.3125 0.5 -0.9375 0.78125q-0.609375 0.265625 -1.359375 0.265625q-0.875 0 -2.140625 -0.40625zm10.216064 0.25q-0.59375 0.15625 -1.03125 0.15625q-0.953125 0 -1.515625 -0.546875q-0.5625 -0.546875 -0.5625 -1.5625l0 -4.15625l-0.875 0l0 -0.953125l0.875 0l0 -1.28125l1.28125 -0.125l0 1.40625l1.859375 0l0 0.953125l-1.859375 0l0 3.921875q0 0.75 0.28125 1.078125q0.296875 0.3125 0.921875 0.3125q0.25 0 0.625 -0.09375l0 0.890625zm8.297546 -0.3125l-7.0625 -3.546875l7.0625 -3.53125l0 1.125l-4.90625 2.40625l4.90625 2.421875l0 1.125zm4.2089233 0.3125l0 -8.609375l-3.421875 0l0 -1.015625l8.203125 0l0 1.015625l-3.40625 0l0 8.609375l-1.375 0zm9.818359 -0.890625q-0.5625 0.515625 -1.125 0.78125q-0.5625 0.265625 -1.09375 0.265625q-0.75 0 -1.390625 -0.484375q-0.640625 -0.5 -0.640625 -1.453125q0 -1.03125 0.890625 -1.703125q0.90625 -0.6875 2.875 -0.6875l0.296875 0l0 -0.859375q0 -0.5 -0.140625 -0.734375q-0.125 -0.234375 -0.421875 -0.359375q-0.28125 -0.140625 -0.71875 -0.140625q-1.0 0 -2.171875 0.625l0 -1.0625q1.296875 -0.515625 2.4375 -0.515625q0.625 0 1.140625 0.203125q0.53125 0.1875 0.84375 0.625q0.3125 0.421875 0.3125 1.359375l0 3.203125q0 0.53125 0.078125 0.71875q0.09375 0.1875 0.25 0.28125q0.15625 0.09375 0.359375 0.09375q0.078125 0 0.234375 -0.015625l0.09375 0.703125q-0.4375 0.203125 -0.953125 0.203125q-0.359375 0 -0.6875 -0.21875q-0.328125 -0.234375 -0.46875 -0.828125zm-0.1875 -0.703125l0 -1.828125l-0.40625 -0.015625q-1.015625 0 -1.703125 0.390625q-0.671875 0.390625 -0.671875 1.0625q0 0.46875 0.328125 0.78125q0.34375 0.3125 0.796875 0.3125q0.390625 0 0.8125 -0.171875q0.421875 -0.1875 0.84375 -0.53125zm3.6416626 1.34375l0 -1.171875q1.265625 0.625 2.1875 0.625q0.546875 0 0.90625 -0.296875q0.375 -0.3125 0.375 -0.75q0 -0.28125 -0.171875 -0.546875q-0.1875 -0.265625 -0.84375 -0.546875l-0.75 -0.3125q-0.859375 -0.359375 -1.265625 -0.84375q-0.390625 -0.46875 -0.390625 -1.140625q0 -0.859375 0.609375 -1.421875q0.625 -0.5625 1.828125 -0.5625q0.59375 0 1.46875 0.15625l0.265625 0.046875l0 1.078125q-1.0625 -0.328125 -1.703125 -0.328125q-0.625 0 -0.9375 0.265625q-0.296875 0.265625 -0.296875 0.640625q0 0.28125 0.203125 0.515625q0.203125 0.234375 0.734375 0.453125l0.625 0.265625q1.234375 0.53125 1.578125 1.046875q0.328125 0.5 0.328125 1.109375q0 0.578125 -0.3125 1.078125q-0.3125 0.5 -0.9375 0.78125q-0.609375 0.265625 -1.359375 0.265625q-0.875 0 -2.140625 -0.40625zm7.0598145 0.25l0 -10.28125l1.28125 0l0 6.640625l3.0 -3.421875l1.375 0l-2.859375 3.296875l3.453125 3.765625l-1.640625 0l-3.328125 -3.625l0 3.625l-1.28125 0zm7.196228 -7.390625l7.0625 3.53125l-7.0625 3.546875l0 -1.125l4.90625 -2.421875l-4.90625 -2.40625l0 -1.125z" fill-rule="nonzero"/><path fill="#000000" fill-opacity="0.0" d="m157.83464 68.049866l54.362213 0" fill-rule="evenodd"/><path stroke="#000000" stroke-width="2.0" stroke-linejoin="round" stroke-linecap="butt" d="m157.83464 68.049866l42.362213 0" fill-rule="evenodd"/><path stroke="#000000" stroke-width="2.0" stroke-linecap="butt" d="m200.19685 71.35333l9.076187 -3.3034668l-9.076187 -3.3034592z" fill-rule="evenodd"/><path fill="#000000" fill-opacity="0.0" d="m6.086614 48.490814l151.74803 0l0 39.11811l-151.74803 0z" fill-rule="evenodd"/><path stroke="#000000" stroke-width="3.0" stroke-linejoin="round" stroke-linecap="butt" d="m6.086614 48.490814l151.74803 0l0 39.11811l-151.74803 0z" fill-rule="evenodd"/><path fill="#000000" d="m70.01189 72.56862q-0.34375 0.109375 -0.390625 0.125q-1.40625 0.390625 -3.046875 0.390625q-0.765625 0 -1.421875 -0.125q-0.65625 -0.109375 -1.2343788 -0.34375q-0.578125 -0.234375 -1.0 -0.578125q-0.421875 -0.328125 -0.734375 -0.75q-0.3125 -0.421875 -0.546875 -0.96875q-0.234375 -0.546875 -0.34375 -1.109375q-0.109375 -0.5625 -0.109375 -1.1875q0 -0.75 0.15625 -1.453125q0.171875 -0.703125 0.5 -1.28125q0.328125 -0.59375 0.796875 -1.03125q0.453125 -0.453125 1.03125 -0.734375q0.5781288 -0.28125 1.2968788 -0.40625q0.71875 -0.140625 1.59375 -0.140625q0.90625 0 1.828125 0.09375q0.921875 0.09375 1.46875 0.234375l0 1.84375q-0.1875 -0.078125 -0.28125 -0.09375q-0.09375 -0.03125 -0.1875 -0.0625q-1.328125 -0.421875 -2.390625 -0.421875q-1.390625 0 -2.15625 0.71875q-0.4375 0.4375 -0.6875 1.140625q-0.23437881 0.6875 -0.23437881 1.546875q0 1.09375 0.3750038 1.875q0.390625 0.765625 1.125 1.171875q0.75 0.390625 1.8125 0.390625q0.453125 0 1.078125 -0.09375q0.5 -0.09375 0.828125 -0.171875q0.328125 -0.09375 0.875 -0.34375l0 1.765625zm4.0522156 0.28125l-2.5625 0l0 -10.28125l2.5625 0l0 10.28125zm4.809326 -8.359375l-2.5625 0l0 -1.921875l2.5625 0l0 1.921875zm0 8.359375l-2.5625 0l0 -7.21875l2.5625 0l0 7.21875zm8.699951 -0.234375q-0.234375 0.0625 -0.4375 0.109375q-1.296875 0.296875 -2.515625 0.296875q-0.890625 0 -1.65625 -0.21875q-0.75 -0.234375 -1.234375 -0.625q-0.609375 -0.515625 -0.984375 -1.34375q-0.359375 -0.84375 -0.359375 -1.703125q0 -0.8125 0.265625 -1.5q0.28125 -0.6875 0.78125 -1.171875q0.5 -0.484375 1.203125 -0.734375q0.71875 -0.265625 1.578125 -0.265625q0.828125 0 1.40625 0.203125q0.578125 0.203125 1.0 0.625q0.5625 0.59375 0.75 1.328125q0.09375 0.359375 0.125 0.640625q0.046875 0.265625 0.0625 0.640625q0.015625 0.359375 0.015625 0.90625l-4.53125 0q0.03125 0.3125 0.078125 0.515625q0.046875 0.1875 0.171875 0.375q0.234375 0.359375 0.640625 0.515625q0.421875 0.15625 1.15625 0.15625q0.671875 0 1.109375 -0.078125q0.4375 -0.078125 1.375 -0.375l0 1.703125zm-2.421875 -4.09375l0 -0.109375q0 -0.8125 -0.234375 -1.171875q-0.21875 -0.375 -0.71875 -0.375q-0.359375 0 -0.625 0.203125q-0.25 0.1875 -0.390625 0.5625q-0.140625 0.359375 -0.171875 0.890625l2.140625 0zm11.211655 4.328125l-2.5625 0l0 -4.484375q0 -0.53125 -0.15625 -0.75q-0.140625 -0.234375 -0.46875 -0.234375q-0.34375 0 -0.65625 0.265625q-0.3125 0.25 -0.65625 0.796875l0 4.40625l-2.5625 0l0 -7.21875l2.5625 0l0 1.359375l0.03125 0q0.34375 -0.734375 0.953125 -1.125q0.625 -0.40625 1.40625 -0.40625q0.875 0 1.46875 0.53125q0.359375 0.328125 0.5 0.75q0.140625 0.40625 0.140625 1.078125l0 5.03125zm6.39093 -0.0625q-0.46875 0.140625 -0.75 0.171875q-0.265625 0.046875 -0.6875 0.046875q-1.109375 0 -1.78125 -0.40625q-0.5 -0.3125 -0.6875 -0.765625q-0.171875 -0.46875 -0.171875 -1.40625l0 -3.359375l-0.71875 0l0 -1.4375l0.71875 0l0 -1.140625l2.578125 -0.3125l0 1.453125l1.359375 0l0 1.4375l-1.359375 0l0 3.09375q0 0.46875 0.03125 0.65625q0.046875 0.1875 0.203125 0.359375q0.234375 0.234375 0.703125 0.234375q0.234375 0 0.5625 -0.109375l0 1.484375z" fill-rule="nonzero"/><path fill="#000000" fill-opacity="0.0" d="m520.0026 8.254593l253.4173 0l0 45.165356l-253.4173 0z" fill-rule="evenodd"/><path stroke="#000000" stroke-width="3.0" stroke-linejoin="round" stroke-linecap="butt" d="m520.0026 8.254593l253.4173 0l0 45.165356l-253.4173 0z" fill-rule="evenodd"/><path fill="#000000" d="m602.0466 30.637268q0 2.203125 -1.203125 3.609375q-0.625 0.734375 -1.46875 1.0625q-0.84375 0.328125 -2.09375 0.328125l-4.546875 0l0 -9.640625l4.875 0q0.78125 0 1.359375 0.140625q0.59375 0.125 1.0625 0.40625q0.46875 0.28125 0.859375 0.71875q0.578125 0.609375 0.859375 1.453125q0.296875 0.84375 0.296875 1.921875zm-2.734375 0.125q0 -0.4375 -0.0625 -0.8125q-0.0625 -0.375 -0.1875 -0.71875q-0.125 -0.34375 -0.3125 -0.625q-0.328125 -0.546875 -0.84375 -0.765625q-0.5 -0.234375 -1.390625 -0.234375l-1.21875 0l0 6.34375l1.25 0q0.734375 0 1.234375 -0.171875q0.5 -0.1875 0.8125 -0.5625q0.171875 -0.21875 0.296875 -0.484375q0.140625 -0.265625 0.21875 -0.5625q0.09375 -0.3125 0.140625 -0.6875q0.0625 -0.390625 0.0625 -0.71875zm6.8981323 -3.484375l-2.5625 0l0 -1.921875l2.5625 0l0 1.921875zm0 8.359375l-2.5625 0l0 -7.21875l2.5625 0l0 7.21875zm8.621826 -2.234375q0 0.515625 -0.25 0.96875q-0.234375 0.453125 -0.6875 0.765625q-0.4375 0.3125 -1.078125 0.484375q-0.640625 0.171875 -1.421875 0.171875q-0.71875 0 -1.328125 -0.0625q-0.890625 -0.09375 -1.71875 -0.3125l0 -1.640625q0.140625 0.0625 0.234375 0.09375q0.109375 0.03125 0.25 0.09375q1.265625 0.390625 2.171875 0.390625q1.140625 0 1.140625 -0.578125q0 -0.15625 -0.078125 -0.265625q-0.203125 -0.21875 -0.875 -0.453125l-0.53125 -0.203125q-1.515625 -0.578125 -2.0 -1.265625q-0.140625 -0.1875 -0.21875 -0.484375q-0.078125 -0.3125 -0.078125 -0.578125q0 -1.09375 0.890625 -1.6875q0.890625 -0.59375 2.5625 -0.59375q1.15625 0 2.421875 0.28125l0 1.640625q-0.1875 -0.0625 -0.421875 -0.15625q-0.390625 -0.125 -0.890625 -0.21875q-0.484375 -0.09375 -0.828125 -0.09375q-1.171875 0 -1.171875 0.578125q0 0.21875 0.1875 0.359375q0.1875 0.140625 0.65625 0.3125l0.515625 0.171875q1.4375 0.484375 1.984375 0.984375q0.5625 0.484375 0.5625 1.296875zm9.587891 -1.546875q0 0.90625 -0.21875 1.640625q-0.203125 0.71875 -0.609375 1.234375q-0.40625 0.515625 -1.0 0.796875q-0.578125 0.265625 -1.28125 0.265625q-0.40625 0 -0.71875 -0.078125q-0.296875 -0.0625 -0.625 -0.25q-0.328125 -0.203125 -0.625 -0.46875l-0.03125 0l0 0.640625l0 2.578125l-2.5625 0l0 -9.796875l2.5625 0l0 1.359375l0.03125 0q0.171875 -0.484375 0.5 -0.8125q0.34375 -0.34375 0.796875 -0.53125q0.46875 -0.1875 1.0 -0.1875q0.640625 0 1.15625 0.25q0.53125 0.25 0.890625 0.71875q0.359375 0.453125 0.546875 1.125q0.1875 0.671875 0.1875 1.515625zm-2.734375 0.171875q0 -0.59375 -0.140625 -1.015625q-0.140625 -0.4375 -0.40625 -0.65625q-0.25 -0.21875 -0.625 -0.21875q-0.671875 0 -1.203125 1.046875l0 2.40625q0.265625 0.375 0.515625 0.53125q0.265625 0.15625 0.609375 0.15625q0.34375 0 0.640625 -0.28125q0.296875 -0.296875 0.453125 -0.8125q0.15625 -0.515625 0.15625 -1.15625zm10.961243 3.609375q-0.71875 0.15625 -1.28125 0.15625q-0.453125 0 -0.8125 -0.078125q-0.34375 -0.078125 -0.546875 -0.203125q-0.21875 -0.15625 -0.4375 -0.515625l-0.171875 0q-0.421875 0.453125 -0.828125 0.625q-0.390625 0.171875 -0.96875 0.171875q-0.671875 0 -1.203125 -0.265625q-0.53125 -0.28125 -0.828125 -0.78125q-0.28125 -0.5 -0.28125 -1.140625q0 -1.09375 0.796875 -1.75q0.5 -0.421875 1.15625 -0.578125q0.65625 -0.171875 1.796875 -0.171875l0.53125 0l0 -0.453125q0 -1.0 -1.28125 -1.0q-0.578125 0 -1.3125 0.203125q-0.53125 0.15625 -1.046875 0.453125l0 -1.609375q0.09375 -0.03125 0.1875 -0.0625q0.09375 -0.03125 0.171875 -0.046875q1.078125 -0.34375 2.34375 -0.34375q3.34375 0 3.34375 2.265625l0 3.125q0 0.59375 0.40625 0.59375q0.078125 0 0.265625 -0.03125l0 1.4375zm-3.078125 -2.015625l0 -1.15625l-0.515625 0q-1.359375 0 -1.359375 0.953125q0 0.359375 0.203125 0.59375q0.21875 0.21875 0.578125 0.21875q0.5625 0 1.09375 -0.609375zm8.975891 1.953125q-0.46875 0.140625 -0.75 0.171875q-0.265625 0.046875 -0.6875 0.046875q-1.109375 0 -1.78125 -0.40625q-0.5 -0.3125 -0.6875 -0.765625q-0.171875 -0.46875 -0.171875 -1.40625l0 -3.359375l-0.71875 0l0 -1.4375l0.71875 0l0 -1.140625l2.578125 -0.3125l0 1.453125l1.359375 0l0 1.4375l-1.359375 0l0 3.09375q0 0.46875 0.03125 0.65625q0.046875 0.1875 0.203125 0.359375q0.234375 0.234375 0.703125 0.234375q0.234375 0 0.5625 -0.109375l0 1.484375zm7.3115234 -0.03125q-1.234375 0.25 -2.359375 0.25q-0.515625 0 -0.953125 -0.046875q-0.421875 -0.046875 -0.78125 -0.15625q-0.359375 -0.125 -0.640625 -0.28125q-0.265625 -0.171875 -0.546875 -0.4375q-0.53125 -0.5 -0.8125 -1.234375q-0.265625 -0.734375 -0.265625 -1.578125q0 -1.140625 0.484375 -2.015625q0.5 -0.875 1.421875 -1.328125q0.9375 -0.46875 2.171875 -0.46875q0.96875 0 2.234375 0.328125l0 1.703125q-1.21875 -0.484375 -1.890625 -0.484375q-0.5 0 -0.890625 0.28125q-0.390625 0.265625 -0.59375 0.765625q-0.203125 0.484375 -0.203125 1.140625q0 0.984375 0.515625 1.609375q0.53125 0.625 1.375 0.625q0.71875 0 1.734375 -0.328125l0 1.65625zm8.684631 0.09375l-2.5625 0l0 -4.484375q0 -0.53125 -0.15625 -0.75q-0.140625 -0.234375 -0.46875 -0.234375q-0.34375 0 -0.65625 0.265625q-0.3125 0.25 -0.65625 0.796875l0 4.40625l-2.5625 0l0 -10.28125l2.5625 0l0 3.0625l0 1.359375l0.03125 0q0.34375 -0.734375 0.953125 -1.125q0.625 -0.40625 1.40625 -0.40625q0.875 0 1.46875 0.53125q0.359375 0.328125 0.5 0.75q0.140625 0.40625 0.140625 1.078125l0 5.03125zm13.500305 0.453125l-1.703125 1.5625q-0.8125 -0.140625 -1.25 -0.25q-0.421875 -0.109375 -1.078125 -0.34375q-0.671875 -0.25 -1.09375 -0.46875q-0.421875 -0.21875 -1.140625 -0.71875l-0.375 0q-1.234375 0 -2.21875 -0.328125q-0.984375 -0.34375 -1.6875 -1.0q-0.703125 -0.671875 -1.0625 -1.609375q-0.359375 -0.9375 -0.359375 -2.109375q0 -1.171875 0.359375 -2.09375q0.359375 -0.9375 1.03125 -1.59375q0.6875 -0.671875 1.671875 -1.015625q0.984375 -0.359375 2.15625 -0.359375q1.1875 0 2.15625 0.359375q0.984375 0.34375 1.65625 1.015625q0.6875 0.65625 1.03125 1.59375q0.359375 0.921875 0.359375 2.09375q0 1.234375 -0.421875 2.234375q-0.40625 0.984375 -1.21875 1.703125q-0.265625 0.21875 -0.4375 0.328125q-0.15625 0.09375 -0.578125 0.3125q0.90625 0.25 1.28125 0.328125q0.375 0.09375 0.8125 0.171875q0.828125 0.125 2.109375 0.1875zm-4.265625 -5.28125q0 -0.59375 -0.140625 -1.15625q-0.125 -0.578125 -0.375 -1.046875q-0.25 -0.46875 -0.578125 -0.765625q-0.25 -0.234375 -0.640625 -0.34375q-0.375 -0.125 -0.75 -0.125q-0.375 0 -0.75 0.125q-0.375 0.109375 -0.625 0.34375q-0.328125 0.28125 -0.59375 0.765625q-0.25 0.46875 -0.390625 1.03125q-0.125 0.5625 -0.125 1.171875q0 1.015625 0.3125 1.8125q0.3125 0.796875 0.859375 1.234375q0.5625 0.421875 1.28125 0.421875q0.875 0 1.421875 -0.484375q0.328125 -0.296875 0.578125 -0.765625q0.25 -0.46875 0.375 -1.046875q0.140625 -0.578125 0.140625 -1.171875zm11.3172 4.828125l-2.5625 0l0 -1.359375l-0.03125 0q-0.328125 0.71875 -0.953125 1.125q-0.625 0.390625 -1.40625 0.390625q-0.875 0 -1.46875 -0.546875q-0.34375 -0.3125 -0.5 -0.734375q-0.140625 -0.421875 -0.140625 -1.078125l0 -5.015625l2.5625 0l0 4.484375q0 0.34375 0.0625 0.5625q0.0625 0.203125 0.203125 0.3125q0.140625 0.09375 0.359375 0.09375q0.34375 0 0.640625 -0.25q0.3125 -0.25 0.671875 -0.796875l0 -4.40625l2.5625 0l0 7.21875zm8.70343 -0.234375q-0.234375 0.0625 -0.4375 0.109375q-1.296875 0.296875 -2.515625 0.296875q-0.890625 0 -1.65625 -0.21875q-0.75 -0.234375 -1.234375 -0.625q-0.609375 -0.515625 -0.984375 -1.34375q-0.359375 -0.84375 -0.359375 -1.703125q0 -0.8125 0.265625 -1.5q0.28125 -0.6875 0.78125 -1.171875q0.5 -0.484375 1.203125 -0.734375q0.71875 -0.265625 1.578125 -0.265625q0.828125 0 1.40625 0.203125q0.578125 0.203125 1.0 0.625q0.5625 0.59375 0.75 1.328125q0.09375 0.359375 0.125 0.640625q0.046875 0.265625 0.0625 0.640625q0.015625 0.359375 0.015625 0.90625l-4.53125 0q0.03125 0.3125 0.078125 0.515625q0.046875 0.1875 0.171875 0.375q0.234375 0.359375 0.640625 0.515625q0.421875 0.15625 1.15625 0.15625q0.671875 0 1.109375 -0.078125q0.4375 -0.078125 1.375 -0.375l0 1.703125zm-2.421875 -4.09375l0 -0.109375q0 -0.8125 -0.234375 -1.171875q-0.21875 -0.375 -0.71875 -0.375q-0.359375 0 -0.625 0.203125q-0.25 0.1875 -0.390625 0.5625q-0.140625 0.359375 -0.171875 0.890625l2.140625 0zm11.133545 4.328125l-2.5625 0l0 -1.359375l-0.03125 0q-0.328125 0.71875 -0.953125 1.125q-0.625 0.390625 -1.40625 0.390625q-0.875 0 -1.46875 -0.546875q-0.34375 -0.3125 -0.5 -0.734375q-0.140625 -0.421875 -0.140625 -1.078125l0 -5.015625l2.5625 0l0 4.484375q0 0.34375 0.0625 0.5625q0.0625 0.203125 0.203125 0.3125q0.140625 0.09375 0.359375 0.09375q0.34375 0 0.640625 -0.25q0.3125 -0.25 0.671875 -0.796875l0 -4.40625l2.5625 0l0 7.21875zm8.70343 -0.234375q-0.234375 0.0625 -0.4375 0.109375q-1.296875 0.296875 -2.515625 0.296875q-0.890625 0 -1.65625 -0.21875q-0.75 -0.234375 -1.234375 -0.625q-0.609375 -0.515625 -0.984375 -1.34375q-0.359375 -0.84375 -0.359375 -1.703125q0 -0.8125 0.265625 -1.5q0.28125 -0.6875 0.78125 -1.171875q0.5 -0.484375 1.203125 -0.734375q0.71875 -0.265625 1.578125 -0.265625q0.828125 0 1.40625 0.203125q0.578125 0.203125 1.0 0.625q0.5625 0.59375 0.75 1.328125q0.09375 0.359375 0.125 0.640625q0.046875 0.265625 0.0625 0.640625q0.015625 0.359375 0.015625 0.90625l-4.53125 0q0.03125 0.3125 0.078125 0.515625q0.046875 0.1875 0.171875 0.375q0.234375 0.359375 0.640625 0.515625q0.421875 0.15625 1.15625 0.15625q0.671875 0 1.109375 -0.078125q0.4375 -0.078125 1.375 -0.375l0 1.703125zm-2.421875 -4.09375l0 -0.109375q0 -0.8125 -0.234375 -1.171875q-0.21875 -0.375 -0.71875 -0.375q-0.359375 0 -0.625 0.203125q-0.25 0.1875 -0.390625 0.5625q-0.140625 0.359375 -0.171875 0.890625l2.140625 0z" fill-rule="nonzero"/><path fill="#000000" fill-opacity="0.0" d="m520.0026 82.67979l253.4173 0l0 62.803154l-253.4173 0z" fill-rule="evenodd"/><path stroke="#000000" stroke-width="2.0" stroke-linejoin="round" stroke-linecap="butt" d="m520.0026 82.67979l253.4173 0l0 62.803154l-253.4173 0z" fill-rule="evenodd"/><path fill="#000000" d="m532.737 102.56886l0 -3.0625l-3.046875 0l0 -0.953125l3.046875 0l0 -3.0625l0.96875 0l0 3.0625l3.046875 0l0 0.953125l-3.046875 0l0 3.0625l-0.96875 0zm10.191711 2.890625l0 -9.640625l1.28125 0l0 1.328125q0.40625 -0.75 0.984375 -1.109375q0.59375 -0.375 1.375 -0.375q1.3125 0 2.03125 0.96875q0.71875 0.953125 0.71875 2.5q0 1.015625 -0.34375 1.921875q-0.328125 0.90625 -1.03125 1.453125q-0.6875 0.53125 -1.578125 0.53125q-0.359375 0 -0.9375 -0.109375q-0.5625 -0.09375 -1.21875 -0.84375l0 3.375l-1.28125 0zm1.28125 -4.265625q0.65625 0.59375 1.046875 0.75q0.390625 0.140625 0.84375 0.140625q0.9375 0 1.390625 -0.796875q0.453125 -0.796875 0.453125 -2.03125q0 -1.140625 -0.40625 -1.8125q-0.390625 -0.671875 -1.234375 -0.671875q-0.53125 0 -1.0625 0.296875q-0.515625 0.28125 -1.03125 0.875l0 3.25zm11.529236 1.6875l0 -1.328125q-0.5 0.71875 -1.140625 1.109375q-0.640625 0.375 -1.34375 0.375q-0.890625 0 -1.453125 -0.5625q-0.5625 -0.5625 -0.5625 -1.578125l0 -5.078125l1.28125 0l0 4.65625q0 0.734375 0.125 0.96875q0.140625 0.234375 0.375 0.375q0.234375 0.125 0.5 0.125q0.46875 0 1.015625 -0.296875q0.5625 -0.296875 1.203125 -1.25l0 -4.578125l1.28125 0l0 7.0625l-1.28125 0zm7.0059204 0q-0.59375 0.15625 -1.03125 0.15625q-0.953125 0 -1.515625 -0.546875q-0.5625 -0.546875 -0.5625 -1.5625l0 -4.15625l-0.875 0l0 -0.953125l0.875 0l0 -1.28125l1.28125 -0.125l0 1.40625l1.859375 0l0 0.953125l-1.859375 0l0 3.921875q0 0.75 0.28125 1.078125q0.296875 0.3125 0.921875 0.3125q0.25 0 0.625 -0.09375l0 0.890625zm4.4069214 1.046875l0 0.875q-1.0625 -0.71875 -1.71875 -1.71875q-0.65625 -1.0 -1.0 -2.140625q-0.34375 -1.140625 -0.34375 -2.234375q0 -1.09375 0.34375 -2.234375q0.34375 -1.140625 1.0 -2.140625q0.65625 -1.0 1.71875 -1.734375l0 0.890625q-0.734375 0.796875 -1.09375 1.546875q-0.34375 0.75 -0.515625 1.6875q-0.171875 0.9375 -0.171875 1.984375q0 1.03125 0.171875 1.984375q0.171875 0.9375 0.515625 1.6875q0.359375 0.734375 1.09375 1.546875zm4.9123535 -1.046875q-0.59375 0.15625 -1.03125 0.15625q-0.953125 0 -1.515625 -0.546875q-0.5625 -0.546875 -0.5625 -1.5625l0 -4.15625l-0.875 0l0 -0.953125l0.875 0l0 -1.28125l1.28125 -0.125l0 1.40625l1.859375 0l0 0.953125l-1.859375 0l0 3.921875q0 0.75 0.28125 1.078125q0.296875 0.3125 0.921875 0.3125q0.25 0 0.625 -0.09375l0 0.890625zm5.4694214 -0.890625q-0.5625 0.515625 -1.125 0.78125q-0.5625 0.265625 -1.09375 0.265625q-0.75 0 -1.390625 -0.484375q-0.640625 -0.5 -0.640625 -1.453125q0 -1.03125 0.890625 -1.703125q0.90625 -0.6875 2.875 -0.6875l0.296875 0l0 -0.859375q0 -0.5 -0.140625 -0.734375q-0.125 -0.234375 -0.421875 -0.359375q-0.28125 -0.140625 -0.71875 -0.140625q-1.0 0 -2.171875 0.625l0 -1.0625q1.296875 -0.515625 2.4375 -0.515625q0.625 0 1.140625 0.203125q0.53125 0.1875 0.84375 0.625q0.3125 0.421875 0.3125 1.359375l0 3.203125q0 0.53125 0.078125 0.71875q0.09375 0.1875 0.25 0.28125q0.15625 0.09375 0.359375 0.09375q0.078125 0 0.234375 -0.015625l0.09375 0.703125q-0.4375 0.203125 -0.953125 0.203125q-0.359375 0 -0.6875 -0.21875q-0.328125 -0.234375 -0.46875 -0.828125zm-0.1875 -0.703125l0 -1.828125l-0.40625 -0.015625q-1.015625 0 -1.703125 0.390625q-0.671875 0.390625 -0.671875 1.0625q0 0.46875 0.328125 0.78125q0.34375 0.3125 0.796875 0.3125q0.390625 0 0.8125 -0.171875q0.421875 -0.1875 0.84375 -0.53125zm3.6416626 1.34375l0 -1.171875q1.265625 0.625 2.1875 0.625q0.546875 0 0.90625 -0.296875q0.375 -0.3125 0.375 -0.75q0 -0.28125 -0.171875 -0.546875q-0.1875 -0.265625 -0.84375 -0.546875l-0.75 -0.3125q-0.859375 -0.359375 -1.265625 -0.84375q-0.390625 -0.46875 -0.390625 -1.140625q0 -0.859375 0.609375 -1.421875q0.625 -0.5625 1.828125 -0.5625q0.59375 0 1.46875 0.15625l0.265625 0.046875l0 1.078125q-1.0625 -0.328125 -1.703125 -0.328125q-0.625 0 -0.9375 0.265625q-0.296875 0.265625 -0.296875 0.640625q0 0.28125 0.203125 0.515625q0.203125 0.234375 0.734375 0.453125l0.625 0.265625q1.234375 0.53125 1.578125 1.046875q0.328125 0.5 0.328125 1.109375q0 0.578125 -0.3125 1.078125q-0.3125 0.5 -0.9375 0.78125q-0.609375 0.265625 -1.359375 0.265625q-0.875 0 -2.140625 -0.40625zm7.0598145 0.25l0 -10.28125l1.28125 0l0 6.640625l3.0 -3.421875l1.375 0l-2.859375 3.296875l3.453125 3.765625l-1.640625 0l-3.328125 -3.625l0 3.625l-1.28125 0zm7.977417 0l0 -1.28125l1.28125 0l0 1.28125l-1.28125 0zm0 -5.78125l0 -1.28125l1.28125 0l0 1.28125l-1.28125 0zm10.496704 5.78125l0 -8.609375l-3.421875 0l0 -1.015625l8.203125 0l0 1.015625l-3.40625 0l0 8.609375l-1.375 0zm9.818359 -0.890625q-0.5625 0.515625 -1.125 0.78125q-0.5625 0.265625 -1.09375 0.265625q-0.75 0 -1.390625 -0.484375q-0.640625 -0.5 -0.640625 -1.453125q0 -1.03125 0.890625 -1.703125q0.90625 -0.6875 2.875 -0.6875l0.296875 0l0 -0.859375q0 -0.5 -0.140625 -0.734375q-0.125 -0.234375 -0.421875 -0.359375q-0.28125 -0.140625 -0.71875 -0.140625q-1.0 0 -2.171875 0.625l0 -1.0625q1.296875 -0.515625 2.4375 -0.515625q0.625 0 1.140625 0.203125q0.53125 0.1875 0.84375 0.625q0.3125 0.421875 0.3125 1.359375l0 3.203125q0 0.53125 0.078125 0.71875q0.09375 0.1875 0.25 0.28125q0.15625 0.09375 0.359375 0.09375q0.078125 0 0.234375 -0.015625l0.09375 0.703125q-0.4375 0.203125 -0.953125 0.203125q-0.359375 0 -0.6875 -0.21875q-0.328125 -0.234375 -0.46875 -0.828125zm-0.1875 -0.703125l0 -1.828125l-0.40625 -0.015625q-1.015625 0 -1.703125 0.390625q-0.671875 0.390625 -0.671875 1.0625q0 0.46875 0.328125 0.78125q0.34375 0.3125 0.796875 0.3125q0.390625 0 0.8125 -0.171875q0.421875 -0.1875 0.84375 -0.53125zm3.6416626 1.34375l0 -1.171875q1.265625 0.625 2.1875 0.625q0.546875 0 0.90625 -0.296875q0.375 -0.3125 0.375 -0.75q0 -0.28125 -0.171875 -0.546875q-0.1875 -0.265625 -0.84375 -0.546875l-0.75 -0.3125q-0.859375 -0.359375 -1.265625 -0.84375q-0.390625 -0.46875 -0.390625 -1.140625q0 -0.859375 0.609375 -1.421875q0.625 -0.5625 1.828125 -0.5625q0.59375 0 1.46875 0.15625l0.265625 0.046875l0 1.078125q-1.0625 -0.328125 -1.703125 -0.328125q-0.625 0 -0.9375 0.265625q-0.296875 0.265625 -0.296875 0.640625q0 0.28125 0.203125 0.515625q0.203125 0.234375 0.734375 0.453125l0.625 0.265625q1.234375 0.53125 1.578125 1.046875q0.328125 0.5 0.328125 1.109375q0 0.578125 -0.3125 1.078125q-0.3125 0.5 -0.9375 0.78125q-0.609375 0.265625 -1.359375 0.265625q-0.875 0 -2.140625 -0.40625zm7.0598145 0.25l0 -10.28125l1.28125 0l0 6.640625l3.0 -3.421875l1.375 0l-2.859375 3.296875l3.453125 3.765625l-1.640625 0l-3.328125 -3.625l0 3.625l-1.28125 0zm6.993103 -9.390625l0 -0.890625q1.0625 0.734375 1.71875 1.734375q0.65625 1.0 0.984375 2.140625q0.34375 1.140625 0.34375 2.234375q0 1.09375 -0.34375 2.234375q-0.328125 1.140625 -0.984375 2.140625q-0.65625 1.0 -1.71875 1.71875l0 -0.875q0.734375 -0.8125 1.078125 -1.546875q0.359375 -0.75 0.515625 -1.6875q0.171875 -0.953125 0.171875 -1.984375q0 -1.03125 -0.171875 -1.96875q-0.15625 -0.953125 -0.515625 -1.703125q-0.34375 -0.75 -1.078125 -1.546875z" fill-rule="nonzero"/><path fill="#000000" d="m532.737 118.56886l0 -3.0625l-3.046875 0l0 -0.953125l3.046875 0l0 -3.0625l0.96875 0l0 3.0625l3.046875 0l0 0.953125l-3.046875 0l0 3.0625l-0.96875 0zm13.347961 0.3125q-0.59375 0.15625 -1.03125 0.15625q-0.953125 0 -1.515625 -0.546875q-0.5625 -0.546875 -0.5625 -1.5625l0 -4.15625l-0.875 0l0 -0.953125l0.875 0l0 -1.28125l1.28125 -0.125l0 1.40625l1.859375 0l0 0.953125l-1.859375 0l0 3.921875q0 0.75 0.28125 1.078125q0.296875 0.3125 0.921875 0.3125q0.25 0 0.625 -0.09375l0 0.890625zm5.4693604 -0.890625q-0.5625 0.515625 -1.125 0.78125q-0.5625 0.265625 -1.09375 0.265625q-0.75 0 -1.390625 -0.484375q-0.640625 -0.5 -0.640625 -1.453125q0 -1.03125 0.890625 -1.703125q0.90625 -0.6875 2.875 -0.6875l0.296875 0l0 -0.859375q0 -0.5 -0.140625 -0.734375q-0.125 -0.234375 -0.421875 -0.359375q-0.28125 -0.140625 -0.71875 -0.140625q-1.0 0 -2.171875 0.625l0 -1.0625q1.296875 -0.515625 2.4375 -0.515625q0.625 0 1.140625 0.203125q0.53125 0.1875 0.84375 0.625q0.3125 0.421875 0.3125 1.359375l0 3.203125q0 0.53125 0.078125 0.71875q0.09375 0.1875 0.25 0.28125q0.15625 0.09375 0.359375 0.09375q0.078125 0 0.234375 -0.015625l0.09375 0.703125q-0.4375 0.203125 -0.953125 0.203125q-0.359375 0 -0.6875 -0.21875q-0.328125 -0.234375 -0.46875 -0.828125zm-0.1875 -0.703125l0 -1.828125l-0.40625 -0.015625q-1.015625 0 -1.703125 0.390625q-0.671875 0.390625 -0.671875 1.0625q0 0.46875 0.328125 0.78125q0.34375 0.3125 0.796875 0.3125q0.390625 0 0.8125 -0.171875q0.421875 -0.1875 0.84375 -0.53125zm3.9072876 1.59375l0 -10.28125l1.28125 0l0 6.640625l3.0 -3.421875l1.375 0l-2.859375 3.296875l3.453125 3.765625l-1.640625 0l-3.328125 -3.625l0 3.625l-1.28125 0zm12.977478 -0.234375q-1.296875 0.390625 -2.21875 0.390625q-1.640625 0 -2.59375 -1.109375q-0.9375 -1.109375 -0.9375 -2.609375q0 -1.0 0.421875 -1.890625q0.421875 -0.90625 1.09375 -1.34375q0.671875 -0.4375 1.578125 -0.4375q1.21875 0 1.953125 0.890625q0.734375 0.875 0.734375 2.625l-0.015625 0.390625l-4.453125 0q0.109375 0.9375 0.40625 1.453125q0.296875 0.5 0.796875 0.78125q0.5 0.28125 1.265625 0.28125q0.390625 0 0.765625 -0.0625q0.390625 -0.078125 1.203125 -0.375l0 1.015625zm-4.375 -4.0625l3.109375 0q0 -1.0625 -0.421875 -1.515625q-0.40625 -0.453125 -1.046875 -0.453125q-0.734375 0 -1.15625 0.5q-0.40625 0.484375 -0.484375 1.46875zm9.191101 5.34375l0 0.875q-1.0625 -0.71875 -1.71875 -1.71875q-0.65625 -1.0 -1.0 -2.140625q-0.34375 -1.140625 -0.34375 -2.234375q0 -1.09375 0.34375 -2.234375q0.34375 -1.140625 1.0 -2.140625q0.65625 -1.0 1.71875 -1.734375l0 0.890625q-0.734375 0.796875 -1.09375 1.546875q-0.34375 0.75 -0.515625 1.6875q-0.171875 0.9375 -0.171875 1.984375q0 1.03125 0.171875 1.984375q0.171875 0.9375 0.515625 1.6875q0.359375 0.734375 1.09375 1.546875zm0.9592285 -10.4375l0 -0.890625q1.0625 0.734375 1.71875 1.734375q0.65625 1.0 0.984375 2.140625q0.34375 1.140625 0.34375 2.234375q0 1.09375 -0.34375 2.234375q-0.328125 1.140625 -0.984375 2.140625q-0.65625 1.0 -1.71875 1.71875l0 -0.875q0.734375 -0.8125 1.078125 -1.546875q0.359375 -0.75 0.515625 -1.6875q0.171875 -0.953125 0.171875 -1.984375q0 -1.03125 -0.171875 -1.96875q-0.15625 -0.953125 -0.515625 -1.703125q-0.34375 -0.75 -1.078125 -1.546875zm9.535706 9.390625l0 -1.28125l1.28125 0l0 1.28125l-1.28125 0zm0 -5.78125l0 -1.28125l1.28125 0l0 1.28125l-1.28125 0zm10.496704 5.78125l0 -8.609375l-3.421875 0l0 -1.015625l8.203125 0l0 1.015625l-3.40625 0l0 8.609375l-1.375 0zm9.818359 -0.890625q-0.5625 0.515625 -1.125 0.78125q-0.5625 0.265625 -1.09375 0.265625q-0.75 0 -1.390625 -0.484375q-0.640625 -0.5 -0.640625 -1.453125q0 -1.03125 0.890625 -1.703125q0.90625 -0.6875 2.875 -0.6875l0.296875 0l0 -0.859375q0 -0.5 -0.140625 -0.734375q-0.125 -0.234375 -0.421875 -0.359375q-0.28125 -0.140625 -0.71875 -0.140625q-1.0 0 -2.171875 0.625l0 -1.0625q1.296875 -0.515625 2.4375 -0.515625q0.625 0 1.140625 0.203125q0.53125 0.1875 0.84375 0.625q0.3125 0.421875 0.3125 1.359375l0 3.203125q0 0.53125 0.078125 0.71875q0.09375 0.1875 0.25 0.28125q0.15625 0.09375 0.359375 0.09375q0.078125 0 0.234375 -0.015625l0.09375 0.703125q-0.4375 0.203125 -0.953125 0.203125q-0.359375 0 -0.6875 -0.21875q-0.328125 -0.234375 -0.46875 -0.828125zm-0.1875 -0.703125l0 -1.828125l-0.40625 -0.015625q-1.015625 0 -1.703125 0.390625q-0.671875 0.390625 -0.671875 1.0625q0 0.46875 0.328125 0.78125q0.34375 0.3125 0.796875 0.3125q0.390625 0 0.8125 -0.171875q0.421875 -0.1875 0.84375 -0.53125zm3.6416626 1.34375l0 -1.171875q1.265625 0.625 2.1875 0.625q0.546875 0 0.90625 -0.296875q0.375 -0.3125 0.375 -0.75q0 -0.28125 -0.171875 -0.546875q-0.1875 -0.265625 -0.84375 -0.546875l-0.75 -0.3125q-0.859375 -0.359375 -1.265625 -0.84375q-0.390625 -0.46875 -0.390625 -1.140625q0 -0.859375 0.609375 -1.421875q0.625 -0.5625 1.828125 -0.5625q0.59375 0 1.46875 0.15625l0.265625 0.046875l0 1.078125q-1.0625 -0.328125 -1.703125 -0.328125q-0.625 0 -0.9375 0.265625q-0.296875 0.265625 -0.296875 0.640625q0 0.28125 0.203125 0.515625q0.203125 0.234375 0.734375 0.453125l0.625 0.265625q1.234375 0.53125 1.578125 1.046875q0.328125 0.5 0.328125 1.109375q0 0.578125 -0.3125 1.078125q-0.3125 0.5 -0.9375 0.78125q-0.609375 0.265625 -1.359375 0.265625q-0.875 0 -2.140625 -0.40625zm7.0598145 0.25l0 -10.28125l1.28125 0l0 6.640625l3.0 -3.421875l1.375 0l-2.859375 3.296875l3.453125 3.765625l-1.640625 0l-3.328125 -3.625l0 3.625l-1.28125 0z" fill-rule="nonzero"/><path fill="#000000" d="m532.737 134.56886l0 -3.0625l-3.046875 0l0 -0.953125l3.046875 0l0 -3.0625l0.96875 0l0 3.0625l3.046875 0l0 0.953125l-3.046875 0l0 3.0625l-0.96875 0zm9.926086 0.0625l0 -1.171875q1.265625 0.625 2.1875 0.625q0.546875 0 0.90625 -0.296875q0.375 -0.3125 0.375 -0.75q0 -0.28125 -0.171875 -0.546875q-0.1875 -0.265625 -0.84375 -0.546875l-0.75 -0.3125q-0.859375 -0.359375 -1.265625 -0.84375q-0.390625 -0.46875 -0.390625 -1.140625q0 -0.859375 0.609375 -1.421875q0.625 -0.5625 1.828125 -0.5625q0.59375 0 1.46875 0.15625l0.265625 0.046875l0 1.078125q-1.0625 -0.328125 -1.703125 -0.328125q-0.625 0 -0.9375 0.265625q-0.296875 0.265625 -0.296875 0.640625q0 0.28125 0.203125 0.515625q0.203125 0.234375 0.734375 0.453125l0.625 0.265625q1.234375 0.53125 1.578125 1.046875q0.328125 0.5 0.328125 1.109375q0 0.578125 -0.3125 1.078125q-0.3125 0.5 -0.9375 0.78125q-0.609375 0.265625 -1.359375 0.265625q-0.875 0 -2.140625 -0.40625zm7.0598145 0.25l0 -7.0625l1.28125 0l0 7.0625l-1.28125 0zm0 -8.34375l0 -1.28125l1.28125 0l0 1.28125l-1.28125 0zm3.3682861 8.34375l0 -0.96875l4.375 -5.140625l-4.171875 0l0 -0.953125l5.75 0l0 0.953125l-4.375 5.140625l4.46875 0l0 0.96875l-6.046875 0zm13.312134 -0.234375q-1.296875 0.390625 -2.21875 0.390625q-1.640625 0 -2.59375 -1.109375q-0.9375 -1.109375 -0.9375 -2.609375q0 -1.0 0.421875 -1.890625q0.421875 -0.90625 1.09375 -1.34375q0.671875 -0.4375 1.578125 -0.4375q1.21875 0 1.953125 0.890625q0.734375 0.875 0.734375 2.625l-0.015625 0.390625l-4.453125 0q0.109375 0.9375 0.40625 1.453125q0.296875 0.5 0.796875 0.78125q0.5 0.28125 1.265625 0.28125q0.390625 0 0.765625 -0.0625q0.390625 -0.078125 1.203125 -0.375l0 1.015625zm-4.375 -4.0625l3.109375 0q0 -1.0625 -0.421875 -1.515625q-0.40625 -0.453125 -1.046875 -0.453125q-0.734375 0 -1.15625 0.5q-0.40625 0.484375 -0.484375 1.46875zm9.191101 5.34375l0 0.875q-1.0625 -0.71875 -1.71875 -1.71875q-0.65625 -1.0 -1.0 -2.140625q-0.34375 -1.140625 -0.34375 -2.234375q0 -1.09375 0.34375 -2.234375q0.34375 -1.140625 1.0 -2.140625q0.65625 -1.0 1.71875 -1.734375l0 0.890625q-0.734375 0.796875 -1.09375 1.546875q-0.34375 0.75 -0.515625 1.6875q-0.171875 0.9375 -0.171875 1.984375q0 1.03125 0.171875 1.984375q0.171875 0.9375 0.515625 1.6875q0.359375 0.734375 1.09375 1.546875zm0.9592285 -10.4375l0 -0.890625q1.0625 0.734375 1.71875 1.734375q0.65625 1.0 0.984375 2.140625q0.34375 1.140625 0.34375 2.234375q0 1.09375 -0.34375 2.234375q-0.328125 1.140625 -0.984375 2.140625q-0.65625 1.0 -1.71875 1.71875l0 -0.875q0.734375 -0.8125 1.078125 -1.546875q0.359375 -0.75 0.515625 -1.6875q0.171875 -0.953125 0.171875 -1.984375q0 -1.03125 -0.171875 -1.96875q-0.15625 -0.953125 -0.515625 -1.703125q-0.34375 -0.75 -1.078125 -1.546875zm9.535767 9.390625l0 -1.28125l1.28125 0l0 1.28125l-1.28125 0zm0 -5.78125l0 -1.28125l1.28125 0l0 1.28125l-1.28125 0zm7.981079 5.53125l0 -1.171875q1.265625 0.625 2.1875 0.625q0.546875 0 0.90625 -0.296875q0.375 -0.3125 0.375 -0.75q0 -0.28125 -0.171875 -0.546875q-0.1875 -0.265625 -0.84375 -0.546875l-0.75 -0.3125q-0.859375 -0.359375 -1.265625 -0.84375q-0.390625 -0.46875 -0.390625 -1.140625q0 -0.859375 0.609375 -1.421875q0.625 -0.5625 1.828125 -0.5625q0.59375 0 1.46875 0.15625l0.265625 0.046875l0 1.078125q-1.0625 -0.328125 -1.703125 -0.328125q-0.625 0 -0.9375 0.265625q-0.296875 0.265625 -0.296875 0.640625q0 0.28125 0.203125 0.515625q0.203125 0.234375 0.734375 0.453125l0.625 0.265625q1.234375 0.53125 1.578125 1.046875q0.328125 0.5 0.328125 1.109375q0 0.578125 -0.3125 1.078125q-0.3125 0.5 -0.9375 0.78125q-0.609375 0.265625 -1.359375 0.265625q-0.875 0 -2.140625 -0.40625zm7.0598145 0.25l0 -7.0625l1.28125 0l0 7.0625l-1.28125 0zm0 -8.34375l0 -1.28125l1.28125 0l0 1.28125l-1.28125 0zm3.3682861 8.34375l0 -0.96875l4.375 -5.140625l-4.171875 0l0 -0.953125l5.75 0l0 0.953125l-4.375 5.140625l4.46875 0l0 0.96875l-6.046875 0zm13.312134 -0.234375q-1.296875 0.390625 -2.21875 0.390625q-1.640625 0 -2.59375 -1.109375q-0.9375 -1.109375 -0.9375 -2.609375q0 -1.0 0.421875 -1.890625q0.421875 -0.90625 1.09375 -1.34375q0.671875 -0.4375 1.578125 -0.4375q1.21875 0 1.953125 0.890625q0.734375 0.875 0.734375 2.625l-0.015625 0.390625l-4.453125 0q0.109375 0.9375 0.40625 1.453125q0.296875 0.5 0.796875 0.78125q0.5 0.28125 1.265625 0.28125q0.390625 0 0.765625 -0.0625q0.390625 -0.078125 1.203125 -0.375l0 1.015625zm-4.375 -4.0625l3.109375 0q0 -1.0625 -0.421875 -1.515625q-0.40625 -0.453125 -1.046875 -0.453125q-0.734375 0 -1.15625 0.5q-0.40625 0.484375 -0.484375 1.46875zm5.894226 5.265625l0 -0.96875l5.53125 0l0 0.96875l-5.53125 0zm10.5390625 -0.96875q-0.59375 0.15625 -1.03125 0.15625q-0.953125 0 -1.515625 -0.546875q-0.5625 -0.546875 -0.5625 -1.5625l0 -4.15625l-0.875 0l0 -0.953125l0.875 0l0 -1.28125l1.28125 -0.125l0 1.40625l1.859375 0l0 0.953125l-1.859375 0l0 3.921875q0 0.75 0.28125 1.078125q0.296875 0.3125 0.921875 0.3125q0.25 0 0.625 -0.09375l0 0.890625z" fill-rule="nonzero"/><path fill="#000000" fill-opacity="0.0" d="m520.0026 68.049866l-54.362213 0" fill-rule="evenodd"/><path stroke="#000000" stroke-width="2.0" stroke-linejoin="round" stroke-linecap="butt" d="m513.14844 68.049866l-36.251465 0" fill-rule="evenodd"/><path fill="#000000" stroke="#000000" stroke-width="2.0" stroke-linecap="butt" d="m513.14844 68.049866l-2.2491455 2.2491684l6.1795044 -2.2491684l-6.1795044 -2.2491608z" fill-rule="evenodd"/><path stroke="#000000" stroke-width="2.0" stroke-linecap="butt" d="m476.89697 68.049866l-4.7565613 -3.330574l-4.756531 3.330574l4.756531 3.330574z" fill-rule="evenodd"/><path fill="#000000" fill-opacity="0.0" d="m212.20998 53.41995l253.41731 0l0 29.259838l-253.41731 0z" fill-rule="evenodd"/><path stroke="#000000" stroke-width="2.0" stroke-linejoin="round" stroke-linecap="butt" d="m212.20998 53.41995l253.41731 0l0 29.259838l-253.41731 0z" fill-rule="evenodd"/><path fill="#000000" d="m221.92873 69.31862l0 -0.96875l2.890625 0l0 0.96875l-2.890625 0zm9.113846 3.53125l0 -7.0625l1.28125 0l0 1.328125q0.390625 -0.625 1.0 -1.046875q0.609375 -0.4375 1.40625 -0.4375q0.46875 0 0.8125 0.15625q0.34375 0.140625 0.625 0.421875q0.28125 0.265625 0.5 0.90625q0.390625 -0.640625 0.984375 -1.0625q0.609375 -0.4375 1.390625 -0.4375q0.75 0 1.34375 0.46875q0.609375 0.46875 0.609375 1.625l0 5.140625l-1.28125 0l0 -4.9375q0 -0.703125 -0.296875 -0.953125q-0.296875 -0.265625 -0.65625 -0.265625q-0.46875 0 -0.953125 0.296875q-0.484375 0.28125 -1.140625 1.125l0 4.734375l-1.296875 0l0 -4.9375q0 -0.71875 -0.296875 -0.96875q-0.296875 -0.25 -0.671875 -0.25q-0.46875 0 -0.9375 0.28125q-0.46875 0.28125 -1.140625 1.140625l0 4.734375l-1.28125 0zm11.724304 0.96875l0 -0.96875l5.53125 0l0 0.96875l-5.53125 0zm11.0234375 -1.859375q-0.5625 0.515625 -1.125 0.78125q-0.5625 0.265625 -1.09375 0.265625q-0.75 0 -1.390625 -0.484375q-0.640625 -0.5 -0.640625 -1.453125q0 -1.03125 0.890625 -1.703125q0.90625 -0.6875 2.875 -0.6875l0.296875 0l0 -0.859375q0 -0.5 -0.140625 -0.734375q-0.125 -0.234375 -0.421875 -0.359375q-0.28125 -0.140625 -0.71875 -0.140625q-1.0 0 -2.171875 0.625l0 -1.0625q1.296875 -0.515625 2.4375 -0.515625q0.625 0 1.140625 0.203125q0.53125 0.1875 0.84375 0.625q0.3125 0.421875 0.3125 1.359375l0 3.203125q0 0.53125 0.078125 0.71875q0.09375 0.1875 0.25 0.28125q0.15625 0.09375 0.359375 0.09375q0.078125 0 0.234375 -0.015625l0.09375 0.703125q-0.4375 0.203125 -0.953125 0.203125q-0.359375 0 -0.6875 -0.21875q-0.328125 -0.234375 -0.46875 -0.828125zm-0.1875 -0.703125l0 -1.828125l-0.40625 -0.015625q-1.015625 0 -1.703125 0.390625q-0.671875 0.390625 -0.671875 1.0625q0 0.46875 0.328125 0.78125q0.34375 0.3125 0.796875 0.3125q0.390625 0 0.8125 -0.171875q0.421875 -0.1875 0.84375 -0.53125zm8.813538 1.375q-1.234375 0.375 -2.140625 0.375q-0.953125 0 -1.75 -0.5q-0.78125 -0.515625 -1.1875 -1.34375q-0.390625 -0.84375 -0.390625 -1.890625q0 -1.5625 0.859375 -2.59375q0.875 -1.046875 2.6875 -1.046875q0.828125 0 1.84375 0.21875l0 1.078125q-1.078125 -0.3125 -1.765625 -0.3125q-1.078125 0 -1.625 0.796875q-0.546875 0.796875 -0.546875 1.90625q0 1.1875 0.609375 1.921875q0.609375 0.734375 1.59375 0.734375q0.890625 0 1.8125 -0.453125l0 1.109375zm5.0767517 0.21875q-0.59375 0.15625 -1.03125 0.15625q-0.953125 0 -1.515625 -0.546875q-0.5625 -0.546875 -0.5625 -1.5625l0 -4.15625l-0.875 0l0 -0.953125l0.875 0l0 -1.28125l1.28125 -0.125l0 1.40625l1.859375 0l0 0.953125l-1.859375 0l0 3.921875q0 0.75 0.28125 1.078125q0.296875 0.3125 0.921875 0.3125q0.25 0 0.625 -0.09375l0 0.890625zm1.8287964 0l0 -7.0625l1.28125 0l0 7.0625l-1.28125 0zm0 -8.34375l0 -1.28125l1.28125 0l0 1.28125l-1.28125 0zm5.321411 8.34375l-2.640625 -7.0625l1.296875 0l2.046875 5.5l2.171875 -5.5l1.1875 0l-2.78125 7.0625l-1.28125 0zm9.070221 -0.890625q-0.5625 0.515625 -1.125 0.78125q-0.5625 0.265625 -1.09375 0.265625q-0.75 0 -1.390625 -0.484375q-0.640625 -0.5 -0.640625 -1.453125q0 -1.03125 0.890625 -1.703125q0.90625 -0.6875 2.875 -0.6875l0.296875 0l0 -0.859375q0 -0.5 -0.140625 -0.734375q-0.125 -0.234375 -0.421875 -0.359375q-0.28125 -0.140625 -0.71875 -0.140625q-1.0 0 -2.171875 0.625l0 -1.0625q1.296875 -0.515625 2.4375 -0.515625q0.625 0 1.140625 0.203125q0.53125 0.1875 0.84375 0.625q0.3125 0.421875 0.3125 1.359375l0 3.203125q0 0.53125 0.078125 0.71875q0.09375 0.1875 0.25 0.28125q0.15625 0.09375 0.359375 0.09375q0.078125 0 0.234375 -0.015625l0.09375 0.703125q-0.4375 0.203125 -0.953125 0.203125q-0.359375 0 -0.6875 -0.21875q-0.328125 -0.234375 -0.46875 -0.828125zm-0.1875 -0.703125l0 -1.828125l-0.40625 -0.015625q-1.015625 0 -1.703125 0.390625q-0.671875 0.390625 -0.671875 1.0625q0 0.46875 0.328125 0.78125q0.34375 0.3125 0.796875 0.3125q0.390625 0 0.8125 -0.171875q0.421875 -0.1875 0.84375 -0.53125zm7.0635376 1.59375q-0.59375 0.15625 -1.03125 0.15625q-0.953125 0 -1.515625 -0.546875q-0.5625 -0.546875 -0.5625 -1.5625l0 -4.15625l-0.875 0l0 -0.953125l0.875 0l0 -1.28125l1.28125 -0.125l0 1.40625l1.859375 0l0 0.953125l-1.859375 0l0 3.921875q0 0.75 0.28125 1.078125q0.296875 0.3125 0.921875 0.3125q0.25 0 0.625 -0.09375l0 0.890625zm1.8287659 0l0 -7.0625l1.28125 0l0 7.0625l-1.28125 0zm0 -8.34375l0 -1.28125l1.28125 0l0 1.28125l-1.28125 0zm6.665161 8.5q-1.015625 0 -1.765625 -0.40625q-0.734375 -0.40625 -1.171875 -1.296875q-0.4375 -0.890625 -0.4375 -1.984375q0 -1.03125 0.390625 -1.90625q0.40625 -0.890625 1.15625 -1.328125q0.765625 -0.453125 1.828125 -0.453125q1.015625 0 1.75 0.40625q0.75 0.40625 1.1875 1.296875q0.4375 0.890625 0.4375 1.984375q0 1.03125 -0.40625 1.921875q-0.40625 0.875 -1.15625 1.328125q-0.75 0.4375 -1.8125 0.4375zm0 -0.953125q0.953125 0 1.484375 -0.703125q0.53125 -0.71875 0.53125 -2.03125q0 -1.3125 -0.53125 -2.015625q-0.53125 -0.71875 -1.484375 -0.71875q-0.953125 0 -1.484375 0.71875q-0.515625 0.703125 -0.515625 2.015625q0 1.3125 0.515625 2.03125q0.53125 0.703125 1.484375 0.703125zm5.37442 0.796875l0 -7.0625l1.28125 0l0 1.328125q0.484375 -0.71875 1.125 -1.09375q0.65625 -0.390625 1.359375 -0.390625q0.890625 0 1.453125 0.578125q0.5625 0.5625 0.5625 1.5625l0 5.078125l-1.28125 0l0 -4.65625q0 -0.734375 -0.140625 -0.96875q-0.125 -0.234375 -0.359375 -0.359375q-0.234375 -0.140625 -0.5 -0.140625q-0.46875 0 -1.03125 0.296875q-0.546875 0.296875 -1.1875 1.25l0 4.578125l-1.28125 0zm8.240265 0l0 -9.625l1.359375 0l0 8.609375l4.328125 0l0 1.015625l-5.6875 0zm7.137848 0l0 -7.0625l1.28125 0l0 7.0625l-1.28125 0zm0 -8.34375l0 -1.28125l1.28125 0l0 1.28125l-1.28125 0zm3.5870361 8.09375l0 -1.171875q1.265625 0.625 2.1875 0.625q0.546875 0 0.90625 -0.296875q0.375 -0.3125 0.375 -0.75q0 -0.28125 -0.171875 -0.546875q-0.1875 -0.265625 -0.84375 -0.546875l-0.75 -0.3125q-0.859375 -0.359375 -1.265625 -0.84375q-0.390625 -0.46875 -0.390625 -1.140625q0 -0.859375 0.609375 -1.421875q0.625 -0.5625 1.828125 -0.5625q0.59375 0 1.46875 0.15625l0.265625 0.046875l0 1.078125q-1.0625 -0.328125 -1.703125 -0.328125q-0.625 0 -0.9375 0.265625q-0.296875 0.265625 -0.296875 0.640625q0 0.28125 0.203125 0.515625q0.203125 0.234375 0.734375 0.453125l0.625 0.265625q1.234375 0.53125 1.578125 1.046875q0.328125 0.5 0.328125 1.109375q0 0.578125 -0.3125 1.078125q-0.3125 0.5 -0.9375 0.78125q-0.609375 0.265625 -1.359375 0.265625q-0.875 0 -2.140625 -0.40625zm10.216095 0.25q-0.59375 0.15625 -1.03125 0.15625q-0.953125 0 -1.515625 -0.546875q-0.5625 -0.546875 -0.5625 -1.5625l0 -4.15625l-0.875 0l0 -0.953125l0.875 0l0 -1.28125l1.28125 -0.125l0 1.40625l1.859375 0l0 0.953125l-1.859375 0l0 3.921875q0 0.75 0.28125 1.078125q0.296875 0.3125 0.921875 0.3125q0.25 0 0.625 -0.09375l0 0.890625zm2.0162659 0l0 -1.28125l1.28125 0l0 1.28125l-1.28125 0zm0 -5.78125l0 -1.28125l1.28125 0l0 1.28125l-1.28125 0zm8.215454 5.78125l0 -9.625l3.1875 0q1.859375 0 2.8125 0.53125q0.96875 0.53125 1.5 1.5625q0.546875 1.03125 0.546875 2.484375q0 1.375 -0.5 2.53125q-0.5 1.140625 -1.515625 1.828125q-1.0 0.6875 -2.8125 0.6875l-3.21875 0zm1.359375 -1.015625l1.75 0q1.375 0 2.046875 -0.4375q0.6875 -0.4375 1.0625 -1.375q0.390625 -0.9375 0.390625 -2.078125q0 -1.015625 -0.34375 -1.84375q-0.328125 -0.84375 -1.078125 -1.34375q-0.734375 -0.515625 -2.703125 -0.515625l-1.125 0l0 7.59375zm8.654968 1.015625l0 -7.0625l1.28125 0l0 7.0625l-1.28125 0zm0 -8.34375l0 -1.28125l1.28125 0l0 1.28125l-1.28125 0zm3.5870361 8.09375l0 -1.171875q1.265625 0.625 2.1875 0.625q0.546875 0 0.90625 -0.296875q0.375 -0.3125 0.375 -0.75q0 -0.28125 -0.171875 -0.546875q-0.1875 -0.265625 -0.84375 -0.546875l-0.75 -0.3125q-0.859375 -0.359375 -1.265625 -0.84375q-0.390625 -0.46875 -0.390625 -1.140625q0 -0.859375 0.609375 -1.421875q0.625 -0.5625 1.828125 -0.5625q0.59375 0 1.46875 0.15625l0.265625 0.046875l0 1.078125q-1.0625 -0.328125 -1.703125 -0.328125q-0.625 0 -0.9375 0.265625q-0.296875 0.265625 -0.296875 0.640625q0 0.28125 0.203125 0.515625q0.203125 0.234375 0.734375 0.453125l0.625 0.265625q1.234375 0.53125 1.578125 1.046875q0.328125 0.5 0.328125 1.109375q0 0.578125 -0.3125 1.078125q-0.3125 0.5 -0.9375 0.78125q-0.609375 0.265625 -1.359375 0.265625q-0.875 0 -2.140625 -0.40625zm7.059845 2.828125l0 -9.640625l1.28125 0l0 1.328125q0.40625 -0.75 0.984375 -1.109375q0.59375 -0.375 1.375 -0.375q1.3125 0 2.03125 0.96875q0.71875 0.953125 0.71875 2.5q0 1.015625 -0.34375 1.921875q-0.328125 0.90625 -1.03125 1.453125q-0.6875 0.53125 -1.578125 0.53125q-0.359375 0 -0.9375 -0.109375q-0.5625 -0.09375 -1.21875 -0.84375l0 3.375l-1.28125 0zm1.28125 -4.265625q0.65625 0.59375 1.046875 0.75q0.390625 0.140625 0.84375 0.140625q0.9375 0 1.390625 -0.796875q0.453125 -0.796875 0.453125 -2.03125q0 -1.140625 -0.40625 -1.8125q-0.390625 -0.671875 -1.234375 -0.671875q-0.53125 0 -1.0625 0.296875q-0.515625 0.28125 -1.03125 0.875l0 3.25zm10.748016 0.796875q-0.5625 0.515625 -1.125 0.78125q-0.5625 0.265625 -1.09375 0.265625q-0.75 0 -1.390625 -0.484375q-0.640625 -0.5 -0.640625 -1.453125q0 -1.03125 0.890625 -1.703125q0.90625 -0.6875 2.875 -0.6875l0.296875 0l0 -0.859375q0 -0.5 -0.140625 -0.734375q-0.125 -0.234375 -0.421875 -0.359375q-0.28125 -0.140625 -0.71875 -0.140625q-1.0 0 -2.171875 0.625l0 -1.0625q1.296875 -0.515625 2.4375 -0.515625q0.625 0 1.140625 0.203125q0.53125 0.1875 0.84375 0.625q0.3125 0.421875 0.3125 1.359375l0 3.203125q0 0.53125 0.078125 0.71875q0.09375 0.1875 0.25 0.28125q0.15625 0.09375 0.359375 0.09375q0.078125 0 0.234375 -0.015625l0.09375 0.703125q-0.4375 0.203125 -0.953125 0.203125q-0.359375 0 -0.6875 -0.21875q-0.328125 -0.234375 -0.46875 -0.828125zm-0.1875 -0.703125l0 -1.828125l-0.40625 -0.015625q-1.015625 0 -1.703125 0.390625q-0.671875 0.390625 -0.671875 1.0625q0 0.46875 0.328125 0.78125q0.34375 0.3125 0.796875 0.3125q0.390625 0 0.8125 -0.171875q0.421875 -0.1875 0.84375 -0.53125zm7.0635376 1.59375q-0.59375 0.15625 -1.03125 0.15625q-0.953125 0 -1.515625 -0.546875q-0.5625 -0.546875 -0.5625 -1.5625l0 -4.15625l-0.875 0l0 -0.953125l0.875 0l0 -1.28125l1.28125 -0.125l0 1.40625l1.859375 0l0 0.953125l-1.859375 0l0 3.921875q0 0.75 0.28125 1.078125q0.296875 0.3125 0.921875 0.3125q0.25 0 0.625 -0.09375l0 0.890625zm6.7350464 -0.21875q-1.234375 0.375 -2.140625 0.375q-0.953125 0 -1.75 -0.5q-0.78125 -0.515625 -1.1875 -1.34375q-0.390625 -0.84375 -0.390625 -1.890625q0 -1.5625 0.859375 -2.59375q0.875 -1.046875 2.6875 -1.046875q0.828125 0 1.84375 0.21875l0 1.078125q-1.078125 -0.3125 -1.765625 -0.3125q-1.078125 0 -1.625 0.796875q-0.546875 0.796875 -0.546875 1.90625q0 1.1875 0.609375 1.921875q0.609375 0.734375 1.59375 0.734375q0.890625 0 1.8125 -0.453125l0 1.109375zm1.9205017 0.21875l0 -10.28125l1.28125 0l0 4.546875q0.484375 -0.71875 1.125 -1.09375q0.65625 -0.390625 1.359375 -0.390625q0.890625 0 1.453125 0.578125q0.5625 0.5625 0.5625 1.5625l0 5.078125l-1.28125 0l0 -4.65625q0 -0.734375 -0.140625 -0.96875q-0.125 -0.234375 -0.359375 -0.359375q-0.234375 -0.140625 -0.5 -0.140625q-0.46875 0 -1.03125 0.296875q-0.546875 0.296875 -1.1875 1.25l0 4.578125l-1.28125 0zm16.78714 1.921875q-2.28125 -0.734375 -3.8125 -1.75q-0.609375 0.0625 -0.9375 0.0625q-1.21875 0 -2.265625 -0.625q-1.046875 -0.640625 -1.578125 -1.8125q-0.53125 -1.1875 -0.53125 -2.609375q0 -1.4375 0.53125 -2.609375q0.53125 -1.171875 1.5625 -1.8125q1.046875 -0.640625 2.421875 -0.640625q1.375 0 2.40625 0.640625q1.046875 0.640625 1.5625 1.828125q0.53125 1.171875 0.53125 2.609375q0 1.484375 -0.578125 2.703125q-0.5625 1.203125 -1.890625 1.890625q1.65625 0.734375 3.4375 1.046875l-0.859375 1.078125zm-4.609375 -2.703125q1.4375 0 2.234375 -1.078125q0.8125 -1.078125 0.8125 -2.953125q0 -1.890625 -0.8125 -2.953125q-0.796875 -1.078125 -2.234375 -1.078125q-1.453125 0 -2.265625 1.078125q-0.796875 1.0625 -0.796875 2.9375q0 1.875 0.796875 2.96875q0.796875 1.078125 2.265625 1.078125zm10.869659 0.78125l0 -1.328125q-0.5 0.71875 -1.140625 1.109375q-0.640625 0.375 -1.34375 0.375q-0.890625 0 -1.453125 -0.5625q-0.5625 -0.5625 -0.5625 -1.578125l0 -5.078125l1.28125 0l0 4.65625q0 0.734375 0.125 0.96875q0.140625 0.234375 0.375 0.375q0.234375 0.125 0.5 0.125q0.46875 0 1.015625 -0.296875q0.5625 -0.296875 1.203125 -1.25l0 -4.578125l1.28125 0l0 7.0625l-1.28125 0zm9.03714 -0.234375q-1.296875 0.390625 -2.21875 0.390625q-1.640625 0 -2.59375 -1.109375q-0.9375 -1.109375 -0.9375 -2.609375q0 -1.0 0.421875 -1.890625q0.421875 -0.90625 1.09375 -1.34375q0.671875 -0.4375 1.578125 -0.4375q1.21875 0 1.953125 0.890625q0.734375 0.875 0.734375 2.625l-0.015625 0.390625l-4.453125 0q0.109375 0.9375 0.40625 1.453125q0.296875 0.5 0.796875 0.78125q0.5 0.28125 1.265625 0.28125q0.390625 0 0.765625 -0.0625q0.390625 -0.078125 1.203125 -0.375l0 1.015625zm-4.375 -4.0625l3.109375 0q0 -1.0625 -0.421875 -1.515625q-0.40625 -0.453125 -1.046875 -0.453125q-0.734375 0 -1.15625 0.5q-0.40625 0.484375 -0.484375 1.46875zm11.034882 4.296875l0 -1.328125q-0.5 0.71875 -1.140625 1.109375q-0.640625 0.375 -1.34375 0.375q-0.890625 0 -1.453125 -0.5625q-0.5625 -0.5625 -0.5625 -1.578125l0 -5.078125l1.28125 0l0 4.65625q0 0.734375 0.125 0.96875q0.140625 0.234375 0.375 0.375q0.234375 0.125 0.5 0.125q0.46875 0 1.015625 -0.296875q0.5625 -0.296875 1.203125 -1.25l0 -4.578125l1.28125 0l0 7.0625l-1.28125 0zm9.03714 -0.234375q-1.296875 0.390625 -2.21875 0.390625q-1.640625 0 -2.59375 -1.109375q-0.9375 -1.109375 -0.9375 -2.609375q0 -1.0 0.421875 -1.890625q0.421875 -0.90625 1.09375 -1.34375q0.671875 -0.4375 1.578125 -0.4375q1.21875 0 1.953125 0.890625q0.734375 0.875 0.734375 2.625l-0.015625 0.390625l-4.453125 0q0.109375 0.9375 0.40625 1.453125q0.296875 0.5 0.796875 0.78125q0.5 0.28125 1.265625 0.28125q0.390625 0 0.765625 -0.0625q0.390625 -0.078125 1.203125 -0.375l0 1.015625zm-4.375 -4.0625l3.109375 0q0 -1.0625 -0.421875 -1.515625q-0.40625 -0.453125 -1.046875 -0.453125q-0.734375 0 -1.15625 0.5q-0.40625 0.484375 -0.484375 1.46875z" fill-rule="nonzero"/><path fill="#000000" fill-opacity="0.0" d="m212.20998 8.254593l253.41731 0l0 45.165356l-253.41731 0z" fill-rule="evenodd"/><path stroke="#000000" stroke-width="3.0" stroke-linejoin="round" stroke-linecap="butt" d="m212.20998 8.254593l253.41731 0l0 45.165356l-253.41731 0z" fill-rule="evenodd"/><path fill="#000000" d="m302.9815 35.637268l-2.5625 0l-0.953125 -2.453125l-3.765625 0l-0.953125 2.453125l-1.71875 0l3.703125 -9.640625l2.5625 0l3.6875 9.640625zm-4.09375 -3.96875l-1.3125 -3.421875l-1.3125 3.421875l2.625 0zm11.130096 3.875q-1.234375 0.25 -2.359375 0.25q-0.515625 0 -0.953125 -0.046875q-0.421875 -0.046875 -0.78125 -0.15625q-0.359375 -0.125 -0.640625 -0.28125q-0.265625 -0.171875 -0.546875 -0.4375q-0.53125 -0.5 -0.8125 -1.234375q-0.265625 -0.734375 -0.265625 -1.578125q0 -1.140625 0.484375 -2.015625q0.5 -0.875 1.421875 -1.328125q0.9375 -0.46875 2.171875 -0.46875q0.96875 0 2.234375 0.328125l0 1.703125q-1.21875 -0.484375 -1.890625 -0.484375q-0.5 0 -0.890625 0.28125q-0.390625 0.265625 -0.59375 0.765625q-0.203125 0.484375 -0.203125 1.140625q0 0.984375 0.515625 1.609375q0.53125 0.625 1.375 0.625q0.71875 0 1.734375 -0.328125l0 1.65625zm5.8408813 0.03125q-0.46875 0.140625 -0.75 0.171875q-0.265625 0.046875 -0.6875 0.046875q-1.109375 0 -1.78125 -0.40625q-0.5 -0.3125 -0.6875 -0.765625q-0.171875 -0.46875 -0.171875 -1.40625l0 -3.359375l-0.71875 0l0 -1.4375l0.71875 0l0 -1.140625l2.578125 -0.3125l0 1.453125l1.359375 0l0 1.4375l-1.359375 0l0 3.09375q0 0.46875 0.03125 0.65625q0.046875 0.1875 0.203125 0.359375q0.234375 0.234375 0.703125 0.234375q0.234375 0 0.5625 -0.109375l0 1.484375zm4.155304 -8.296875l-2.5625 0l0 -1.921875l2.5625 0l0 1.921875zm0 8.359375l-2.5625 0l0 -7.21875l2.5625 0l0 7.21875zm9.637451 -7.21875l-2.78125 7.21875l-2.578125 0l-2.84375 -7.21875l2.765625 0l1.875 4.765625l1.828125 -4.765625l1.734375 0zm7.900177 6.984375q-0.234375 0.0625 -0.4375 0.109375q-1.296875 0.296875 -2.515625 0.296875q-0.890625 0 -1.65625 -0.21875q-0.75 -0.234375 -1.234375 -0.625q-0.609375 -0.515625 -0.984375 -1.34375q-0.359375 -0.84375 -0.359375 -1.703125q0 -0.8125 0.265625 -1.5q0.28125 -0.6875 0.78125 -1.171875q0.5 -0.484375 1.203125 -0.734375q0.71875 -0.265625 1.578125 -0.265625q0.828125 0 1.40625 0.203125q0.578125 0.203125 1.0 0.625q0.5625 0.59375 0.75 1.328125q0.09375 0.359375 0.125 0.640625q0.046875 0.265625 0.0625 0.640625q0.015625 0.359375 0.015625 0.90625l-4.53125 0q0.03125 0.3125 0.078125 0.515625q0.046875 0.1875 0.171875 0.375q0.234375 0.359375 0.640625 0.515625q0.421875 0.15625 1.15625 0.15625q0.671875 0 1.109375 -0.078125q0.4375 -0.078125 1.375 -0.375l0 1.703125zm-2.421875 -4.09375l0 -0.109375q0 -0.8125 -0.234375 -1.171875q-0.21875 -0.375 -0.71875 -0.375q-0.359375 0 -0.625 0.203125q-0.25 0.1875 -0.390625 0.5625q-0.140625 0.359375 -0.171875 0.890625l2.140625 0zm13.93042 -0.5q0 1.15625 -0.359375 2.09375q-0.34375 0.921875 -1.03125 1.59375q-0.671875 0.671875 -1.625 1.03125q-0.953125 0.34375 -2.125 0.34375q-1.21875 0 -2.203125 -0.34375q-0.984375 -0.34375 -1.671875 -1.015625q-0.6875 -0.671875 -1.046875 -1.59375q-0.359375 -0.9375 -0.359375 -2.109375q0 -1.171875 0.359375 -2.09375q0.359375 -0.9375 1.046875 -1.59375q0.6875 -0.65625 1.65625 -1.0q0.984375 -0.359375 2.15625 -0.359375q1.1875 0 2.15625 0.359375q0.96875 0.34375 1.640625 1.0q0.6875 0.65625 1.046875 1.59375q0.359375 0.9375 0.359375 2.09375zm-2.71875 0q0 -0.59375 -0.140625 -1.15625q-0.125 -0.578125 -0.375 -1.046875q-0.25 -0.46875 -0.578125 -0.765625q-0.25 -0.234375 -0.640625 -0.34375q-0.375 -0.125 -0.75 -0.125q-0.375 0 -0.75 0.125q-0.375 0.109375 -0.625 0.34375q-0.328125 0.28125 -0.59375 0.765625q-0.25 0.46875 -0.390625 1.03125q-0.125 0.5625 -0.125 1.171875q0 1.015625 0.3125 1.8125q0.3125 0.796875 0.859375 1.234375q0.5625 0.421875 1.28125 0.421875q0.875 0 1.421875 -0.484375q0.328125 -0.296875 0.578125 -0.765625q0.25 -0.46875 0.375 -1.046875q0.140625 -0.578125 0.140625 -1.171875zm12.004669 1.046875q0 0.90625 -0.21875 1.640625q-0.203125 0.734375 -0.609375 1.25q-0.40625 0.5 -1.0 0.78125q-0.578125 0.265625 -1.296875 0.265625q-0.5625 0 -0.953125 -0.15625q-0.390625 -0.15625 -1.03125 -0.640625l-0.15625 0l-0.3125 0.640625l-2.09375 0l0 -10.28125l2.5625 0l0 3.0625l0 1.359375l0.03125 0q0.171875 -0.484375 0.5 -0.8125q0.34375 -0.34375 0.796875 -0.53125q0.46875 -0.1875 1.0 -0.1875q0.640625 0 1.15625 0.25q0.53125 0.25 0.890625 0.71875q0.359375 0.453125 0.546875 1.125q0.1875 0.671875 0.1875 1.515625zm-2.734375 0.171875q0 -0.59375 -0.140625 -1.015625q-0.140625 -0.4375 -0.40625 -0.65625q-0.25 -0.21875 -0.625 -0.21875q-0.671875 0 -1.203125 1.046875l0 2.40625q0.265625 0.375 0.515625 0.53125q0.265625 0.15625 0.609375 0.15625q0.34375 0 0.640625 -0.28125q0.296875 -0.296875 0.453125 -0.8125q0.15625 -0.515625 0.15625 -1.15625zm6.898712 -4.75l-2.5625 0l0 -1.921875l2.5625 0l0 1.921875zm0 8.109375q0 0.890625 -0.171875 1.390625q-0.171875 0.515625 -0.59375 0.890625q-0.265625 0.25 -0.609375 0.40625q-0.328125 0.15625 -0.765625 0.21875q-0.421875 0.078125 -0.921875 0.078125q-0.53125 0 -0.875 -0.046875q-0.34375 -0.046875 -1.078125 -0.21875l0 -1.578125q0.8125 0.390625 1.5 0.390625q0.484375 0 0.71875 -0.3125q0.234375 -0.3125 0.234375 -0.96875l0 -7.21875l2.5625 0l0 6.96875zm8.699951 0.015625q-0.234375 0.0625 -0.4375 0.109375q-1.296875 0.296875 -2.515625 0.296875q-0.890625 0 -1.65625 -0.21875q-0.75 -0.234375 -1.234375 -0.625q-0.609375 -0.515625 -0.984375 -1.34375q-0.359375 -0.84375 -0.359375 -1.703125q0 -0.8125 0.265625 -1.5q0.28125 -0.6875 0.78125 -1.171875q0.5 -0.484375 1.203125 -0.734375q0.71875 -0.265625 1.578125 -0.265625q0.828125 0 1.40625 0.203125q0.578125 0.203125 1.0 0.625q0.5625 0.59375 0.75 1.328125q0.09375 0.359375 0.125 0.640625q0.046875 0.265625 0.0625 0.640625q0.015625 0.359375 0.015625 0.90625l-4.53125 0q0.03125 0.3125 0.078125 0.515625q0.046875 0.1875 0.171875 0.375q0.234375 0.359375 0.640625 0.515625q0.421875 0.15625 1.15625 0.15625q0.671875 0 1.109375 -0.078125q0.4375 -0.078125 1.375 -0.375l0 1.703125zm-2.421875 -4.09375l0 -0.109375q0 -0.8125 -0.234375 -1.171875q-0.21875 -0.375 -0.71875 -0.375q-0.359375 0 -0.625 0.203125q-0.25 0.1875 -0.390625 0.5625q-0.140625 0.359375 -0.171875 0.890625l2.140625 0zm9.86792 4.234375q-1.234375 0.25 -2.359375 0.25q-0.515625 0 -0.953125 -0.046875q-0.421875 -0.046875 -0.78125 -0.15625q-0.359375 -0.125 -0.640625 -0.28125q-0.265625 -0.171875 -0.546875 -0.4375q-0.53125 -0.5 -0.8125 -1.234375q-0.265625 -0.734375 -0.265625 -1.578125q0 -1.140625 0.484375 -2.015625q0.5 -0.875 1.421875 -1.328125q0.9375 -0.46875 2.171875 -0.46875q0.96875 0 2.234375 0.328125l0 1.703125q-1.21875 -0.484375 -1.890625 -0.484375q-0.5 0 -0.890625 0.28125q-0.390625 0.265625 -0.59375 0.765625q-0.203125 0.484375 -0.203125 1.140625q0 0.984375 0.515625 1.609375q0.53125 0.625 1.375 0.625q0.71875 0 1.734375 -0.328125l0 1.65625zm5.8408813 0.03125q-0.46875 0.140625 -0.75 0.171875q-0.265625 0.046875 -0.6875 0.046875q-1.109375 0 -1.78125 -0.40625q-0.5 -0.3125 -0.6875 -0.765625q-0.171875 -0.46875 -0.171875 -1.40625l0 -3.359375l-0.71875 0l0 -1.4375l0.71875 0l0 -1.140625l2.578125 -0.3125l0 1.453125l1.359375 0l0 1.4375l-1.359375 0l0 3.09375q0 0.46875 0.03125 0.65625q0.046875 0.1875 0.203125 0.359375q0.234375 0.234375 0.703125 0.234375q0.234375 0 0.5625 -0.109375l0 1.484375z" fill-rule="nonzero"/><path fill="#000000" fill-opacity="0.0" d="m212.20998 82.67979l253.41731 0l0 45.16536l-253.41731 0z" fill-rule="evenodd"/><path stroke="#000000" stroke-width="2.0" stroke-linejoin="round" stroke-linecap="butt" d="m212.20998 82.67979l253.41731 0l0 45.16536l-253.41731 0z" fill-rule="evenodd"/><path fill="#000000" d="m224.94435 101.74997l0 -3.0625l-3.046875 0l0 -0.953125l3.046875 0l0 -3.0625l0.96875 0l0 3.0625l3.046875 0l0 0.953125l-3.046875 0l0 3.0625l-0.96875 0zm15.379181 0.078125q-1.296875 0.390625 -2.21875 0.390625q-1.640625 0 -2.59375 -1.109375q-0.9375 -1.109375 -0.9375 -2.609375q0 -1.0 0.421875 -1.890625q0.421875 -0.90625 1.09375 -1.34375q0.671875 -0.4375 1.578125 -0.4375q1.21875 0 1.953125 0.890625q0.734375 0.875 0.734375 2.625l-0.015625 0.390625l-4.453125 0q0.109375 0.9375 0.40625 1.453125q0.296875 0.5 0.796875 0.78125q0.5 0.28125 1.265625 0.28125q0.390625 0 0.765625 -0.0625q0.390625 -0.078125 1.203125 -0.375l0 1.015625zm-4.375 -4.0625l3.109375 0q0 -1.0625 -0.421875 -1.515625q-0.40625 -0.453125 -1.046875 -0.453125q-0.734375 0 -1.15625 0.5q-0.40625 0.484375 -0.484375 1.46875zm6.6129913 4.296875l0 -7.0625l1.28125 0l0 1.328125q0.484375 -0.71875 1.125 -1.09375q0.65625 -0.390625 1.359375 -0.390625q0.890625 0 1.453125 0.578125q0.5625 0.5625 0.5625 1.5625l0 5.078125l-1.28125 0l0 -4.65625q0 -0.734375 -0.140625 -0.96875q-0.125 -0.234375 -0.359375 -0.359375q-0.234375 -0.140625 -0.5 -0.140625q-0.46875 0 -1.03125 0.296875q-0.546875 0.296875 -1.1875 1.25l0 4.578125l-1.28125 0zm12.802765 2.578125l0 -3.90625q-0.390625 0.75 -0.984375 1.125q-0.578125 0.359375 -1.359375 0.359375q-1.3125 0 -2.03125 -0.953125q-0.71875 -0.953125 -0.71875 -2.515625q0 -1.671875 0.8125 -2.78125q0.8125 -1.125 2.203125 -1.125q0.40625 0 0.78125 0.09375q0.375 0.09375 0.65625 0.28125q0.296875 0.171875 0.640625 0.578125l0 -0.796875l1.296875 0l0 9.640625l-1.296875 0zm0 -7.953125q-0.65625 -0.59375 -1.046875 -0.734375q-0.390625 -0.15625 -0.828125 -0.15625q-0.9375 0 -1.390625 0.796875q-0.453125 0.78125 -0.453125 2.03125q0 1.140625 0.390625 1.8125q0.40625 0.65625 1.25 0.65625q0.53125 0 1.046875 -0.28125q0.53125 -0.296875 1.03125 -0.875l0 -3.25zm8.279266 5.375l0 -1.328125q-0.5 0.71875 -1.140625 1.109375q-0.640625 0.375 -1.34375 0.375q-0.890625 0 -1.453125 -0.5625q-0.5625 -0.5625 -0.5625 -1.578125l0 -5.078125l1.28125 0l0 4.65625q0 0.734375 0.125 0.96875q0.140625 0.234375 0.375 0.375q0.234375 0.125 0.5 0.125q0.46875 0 1.015625 -0.296875q0.5625 -0.296875 1.203125 -1.25l0 -4.578125l1.28125 0l0 7.0625l-1.28125 0zm9.03714 -0.234375q-1.296875 0.390625 -2.21875 0.390625q-1.640625 0 -2.59375 -1.109375q-0.9375 -1.109375 -0.9375 -2.609375q0 -1.0 0.421875 -1.890625q0.421875 -0.90625 1.09375 -1.34375q0.671875 -0.4375 1.578125 -0.4375q1.21875 0 1.953125 0.890625q0.734375 0.875 0.734375 2.625l-0.015625 0.390625l-4.453125 0q0.109375 0.9375 0.40625 1.453125q0.296875 0.5 0.796875 0.78125q0.5 0.28125 1.265625 0.28125q0.390625 0 0.765625 -0.0625q0.390625 -0.078125 1.203125 -0.375l0 1.015625zm-4.375 -4.0625l3.109375 0q0 -1.0625 -0.421875 -1.515625q-0.40625 -0.453125 -1.046875 -0.453125q-0.734375 0 -1.15625 0.5q-0.40625 0.484375 -0.484375 1.46875zm11.034882 4.296875l0 -1.328125q-0.5 0.71875 -1.140625 1.109375q-0.640625 0.375 -1.34375 0.375q-0.890625 0 -1.453125 -0.5625q-0.5625 -0.5625 -0.5625 -1.578125l0 -5.078125l1.28125 0l0 4.65625q0 0.734375 0.125 0.96875q0.140625 0.234375 0.375 0.375q0.234375 0.125 0.5 0.125q0.46875 0 1.015625 -0.296875q0.5625 -0.296875 1.203125 -1.25l0 -4.578125l1.28125 0l0 7.0625l-1.28125 0zm9.03714 -0.234375q-1.296875 0.390625 -2.21875 0.390625q-1.640625 0 -2.59375 -1.109375q-0.9375 -1.109375 -0.9375 -2.609375q0 -1.0 0.421875 -1.890625q0.421875 -0.90625 1.09375 -1.34375q0.671875 -0.4375 1.578125 -0.4375q1.21875 0 1.953125 0.890625q0.734375 0.875 0.734375 2.625l-0.015625 0.390625l-4.453125 0q0.109375 0.9375 0.40625 1.453125q0.296875 0.5 0.796875 0.78125q0.5 0.28125 1.265625 0.28125q0.390625 0 0.765625 -0.0625q0.390625 -0.078125 1.203125 -0.375l0 1.015625zm-4.375 -4.0625l3.109375 0q0 -1.0625 -0.421875 -1.515625q-0.40625 -0.453125 -1.046875 -0.453125q-0.734375 0 -1.15625 0.5q-0.40625 0.484375 -0.484375 1.46875zm8.862976 4.296875l0 -8.609375l-3.421875 0l0 -1.015625l8.203125 0l0 1.015625l-3.40625 0l0 8.609375l-1.375 0zm9.818329 -0.890625q-0.5625 0.515625 -1.125 0.78125q-0.5625 0.265625 -1.09375 0.265625q-0.75 0 -1.390625 -0.484375q-0.640625 -0.5 -0.640625 -1.453125q0 -1.03125 0.890625 -1.703125q0.90625 -0.6875 2.875 -0.6875l0.296875 0l0 -0.859375q0 -0.5 -0.140625 -0.734375q-0.125 -0.234375 -0.421875 -0.359375q-0.28125 -0.140625 -0.71875 -0.140625q-1.0 0 -2.171875 0.625l0 -1.0625q1.296875 -0.515625 2.4375 -0.515625q0.625 0 1.140625 0.203125q0.53125 0.1875 0.84375 0.625q0.3125 0.421875 0.3125 1.359375l0 3.203125q0 0.53125 0.078125 0.71875q0.09375 0.1875 0.25 0.28125q0.15625 0.09375 0.359375 0.09375q0.078125 0 0.234375 -0.015625l0.09375 0.703125q-0.4375 0.203125 -0.953125 0.203125q-0.359375 0 -0.6875 -0.21875q-0.328125 -0.234375 -0.46875 -0.828125zm-0.1875 -0.703125l0 -1.828125l-0.40625 -0.015625q-1.015625 0 -1.703125 0.390625q-0.671875 0.390625 -0.671875 1.0625q0 0.46875 0.328125 0.78125q0.34375 0.3125 0.796875 0.3125q0.390625 0 0.8125 -0.171875q0.421875 -0.1875 0.84375 -0.53125zm3.6416626 1.34375l0 -1.171875q1.265625 0.625 2.1875 0.625q0.546875 0 0.90625 -0.296875q0.375 -0.3125 0.375 -0.75q0 -0.28125 -0.171875 -0.546875q-0.1875 -0.265625 -0.84375 -0.546875l-0.75 -0.3125q-0.859375 -0.359375 -1.265625 -0.84375q-0.390625 -0.46875 -0.390625 -1.140625q0 -0.859375 0.609375 -1.421875q0.625 -0.5625 1.828125 -0.5625q0.59375 0 1.46875 0.15625l0.265625 0.046875l0 1.078125q-1.0625 -0.328125 -1.703125 -0.328125q-0.625 0 -0.9375 0.265625q-0.296875 0.265625 -0.296875 0.640625q0 0.28125 0.203125 0.515625q0.203125 0.234375 0.734375 0.453125l0.625 0.265625q1.234375 0.53125 1.578125 1.046875q0.328125 0.5 0.328125 1.109375q0 0.578125 -0.3125 1.078125q-0.3125 0.5 -0.9375 0.78125q-0.609375 0.265625 -1.359375 0.265625q-0.875 0 -2.140625 -0.40625zm7.059845 0.25l0 -10.28125l1.28125 0l0 6.640625l3.0 -3.421875l1.375 0l-2.859375 3.296875l3.453125 3.765625l-1.640625 0l-3.328125 -3.625l0 3.625l-1.28125 0zm10.3680725 1.046875l0 0.875q-1.0625 -0.71875 -1.71875 -1.71875q-0.65625 -1.0 -1.0 -2.140625q-0.34375 -1.140625 -0.34375 -2.234375q0 -1.09375 0.34375 -2.234375q0.34375 -1.140625 1.0 -2.140625q0.65625 -1.0 1.71875 -1.734375l0 0.890625q-0.734375 0.796875 -1.09375 1.546875q-0.34375 0.75 -0.515625 1.6875q-0.171875 0.9375 -0.171875 1.984375q0 1.03125 0.171875 1.984375q0.171875 0.9375 0.515625 1.6875q0.359375 0.734375 1.09375 1.546875zm0.9592285 -10.4375l0 -0.890625q1.0625 0.734375 1.71875 1.734375q0.65625 1.0 0.984375 2.140625q0.34375 1.140625 0.34375 2.234375q0 1.09375 -0.34375 2.234375q-0.328125 1.140625 -0.984375 2.140625q-0.65625 1.0 -1.71875 1.71875l0 -0.875q0.734375 -0.8125 1.078125 -1.546875q0.359375 -0.75 0.515625 -1.6875q0.171875 -0.953125 0.171875 -1.984375q0 -1.03125 -0.171875 -1.96875q-0.15625 -0.953125 -0.515625 -1.703125q-0.34375 -0.75 -1.078125 -1.546875zm9.535736 9.390625l0 -1.28125l1.28125 0l0 1.28125l-1.28125 0zm0 -5.78125l0 -1.28125l1.28125 0l0 1.28125l-1.28125 0zm10.496704 5.78125l0 -8.609375l-3.421875 0l0 -1.015625l8.203125 0l0 1.015625l-3.40625 0l0 8.609375l-1.375 0zm9.818329 -0.890625q-0.5625 0.515625 -1.125 0.78125q-0.5625 0.265625 -1.09375 0.265625q-0.75 0 -1.390625 -0.484375q-0.640625 -0.5 -0.640625 -1.453125q0 -1.03125 0.890625 -1.703125q0.90625 -0.6875 2.875 -0.6875l0.296875 0l0 -0.859375q0 -0.5 -0.140625 -0.734375q-0.125 -0.234375 -0.421875 -0.359375q-0.28125 -0.140625 -0.71875 -0.140625q-1.0 0 -2.171875 0.625l0 -1.0625q1.296875 -0.515625 2.4375 -0.515625q0.625 0 1.140625 0.203125q0.53125 0.1875 0.84375 0.625q0.3125 0.421875 0.3125 1.359375l0 3.203125q0 0.53125 0.078125 0.71875q0.09375 0.1875 0.25 0.28125q0.15625 0.09375 0.359375 0.09375q0.078125 0 0.234375 -0.015625l0.09375 0.703125q-0.4375 0.203125 -0.953125 0.203125q-0.359375 0 -0.6875 -0.21875q-0.328125 -0.234375 -0.46875 -0.828125zm-0.1875 -0.703125l0 -1.828125l-0.40625 -0.015625q-1.015625 0 -1.703125 0.390625q-0.671875 0.390625 -0.671875 1.0625q0 0.46875 0.328125 0.78125q0.34375 0.3125 0.796875 0.3125q0.390625 0 0.8125 -0.171875q0.421875 -0.1875 0.84375 -0.53125zm3.6416626 1.34375l0 -1.171875q1.265625 0.625 2.1875 0.625q0.546875 0 0.90625 -0.296875q0.375 -0.3125 0.375 -0.75q0 -0.28125 -0.171875 -0.546875q-0.1875 -0.265625 -0.84375 -0.546875l-0.75 -0.3125q-0.859375 -0.359375 -1.265625 -0.84375q-0.390625 -0.46875 -0.390625 -1.140625q0 -0.859375 0.609375 -1.421875q0.625 -0.5625 1.828125 -0.5625q0.59375 0 1.46875 0.15625l0.265625 0.046875l0 1.078125q-1.0625 -0.328125 -1.703125 -0.328125q-0.625 0 -0.9375 0.265625q-0.296875 0.265625 -0.296875 0.640625q0 0.28125 0.203125 0.515625q0.203125 0.234375 0.734375 0.453125l0.625 0.265625q1.234375 0.53125 1.578125 1.046875q0.328125 0.5 0.328125 1.109375q0 0.578125 -0.3125 1.078125q-0.3125 0.5 -0.9375 0.78125q-0.609375 0.265625 -1.359375 0.265625q-0.875 0 -2.140625 -0.40625zm7.059845 0.25l0 -10.28125l1.28125 0l0 6.640625l3.0 -3.421875l1.375 0l-2.859375 3.296875l3.453125 3.765625l-1.640625 0l-3.328125 -3.625l0 3.625l-1.28125 0z" fill-rule="nonzero"/><path fill="#000000" d="m224.94435 117.74996l0 -3.0625l-3.046875 0l0 -0.953125l3.046875 0l0 -3.0625l0.96875 0l0 3.0625l3.046875 0l0 0.953125l-3.046875 0l0 3.0625l-0.96875 0zm10.191681 0.3125l0 -7.0625l1.28125 0l0 1.328125q0.359375 -0.71875 0.9375 -1.09375q0.59375 -0.390625 1.28125 -0.390625q0.1875 0 0.40625 0.03125l0 1.1875q-0.328125 -0.109375 -0.59375 -0.109375q-0.59375 0 -1.109375 0.375q-0.515625 0.359375 -0.921875 1.078125l0 4.65625l-1.28125 0zm9.875473 0l0 -1.328125q-0.5 0.71875 -1.140625 1.109375q-0.640625 0.375 -1.34375 0.375q-0.890625 0 -1.453125 -0.5625q-0.5625 -0.5625 -0.5625 -1.578125l0 -5.078125l1.28125 0l0 4.65625q0 0.734375 0.125 0.96875q0.140625 0.234375 0.375 0.375q0.234375 0.125 0.5 0.125q0.46875 0 1.015625 -0.296875q0.5625 -0.296875 1.203125 -1.25l0 -4.578125l1.28125 0l0 7.0625l-1.28125 0zm3.84964 0l0 -7.0625l1.28125 0l0 1.328125q0.484375 -0.71875 1.125 -1.09375q0.65625 -0.390625 1.359375 -0.390625q0.890625 0 1.453125 0.578125q0.5625 0.5625 0.5625 1.5625l0 5.078125l-1.28125 0l0 -4.65625q0 -0.734375 -0.140625 -0.96875q-0.125 -0.234375 -0.359375 -0.359375q-0.234375 -0.140625 -0.5 -0.140625q-0.46875 0 -1.03125 0.296875q-0.546875 0.296875 -1.1875 1.25l0 4.578125l-1.28125 0zm10.84964 1.046875l0 0.875q-1.0625 -0.71875 -1.71875 -1.71875q-0.65625 -1.0 -1.0 -2.140625q-0.34375 -1.140625 -0.34375 -2.234375q0 -1.09375 0.34375 -2.234375q0.34375 -1.140625 1.0 -2.140625q0.65625 -1.0 1.71875 -1.734375l0 0.890625q-0.734375 0.796875 -1.09375 1.546875q-0.34375 0.75 -0.515625 1.6875q-0.171875 0.9375 -0.171875 1.984375q0 1.03125 0.171875 1.984375q0.171875 0.9375 0.515625 1.6875q0.359375 0.734375 1.09375 1.546875zm0.9592285 -10.4375l0 -0.890625q1.0625 0.734375 1.71875 1.734375q0.65625 1.0 0.984375 2.140625q0.34375 1.140625 0.34375 2.234375q0 1.09375 -0.34375 2.234375q-0.328125 1.140625 -0.984375 2.140625q-0.65625 1.0 -1.71875 1.71875l0 -0.875q0.734375 -0.8125 1.078125 -1.546875q0.359375 -0.75 0.515625 -1.6875q0.171875 -0.953125 0.171875 -1.984375q0 -1.03125 -0.171875 -1.96875q-0.15625 -0.953125 -0.515625 -1.703125q-0.34375 -0.75 -1.078125 -1.546875z" fill-rule="nonzero"/></g></svg>