<svg version="1.1" viewBox="0.0 0.0 621.0 235.93700787401573" fill="none" stroke="none" stroke-linecap="square" stroke-miterlimit="10" xmlns:xlink="http://www.w3.org/1999/xlink" xmlns="http://www.w3.org/2000/svg"><clipPath id="p.0"><path d="m0 0l621.0 0l0 235.93701l-621.0 0l0 -235.93701z" clip-rule="nonzero"/></clipPath><g clip-path="url(#p.0)"><path fill="#000000" fill-opacity="0.0" d="m0 0l621.0 0l0 235.93701l-621.0 0z" fill-rule="evenodd"/><path fill="#d9d9d9" d="m7.8569555 13.165355l91.685036 0l0 29.165352l-91.685036 0z" fill-rule="evenodd"/><path stroke="#000000" stroke-width="2.0" stroke-linejoin="round" stroke-linecap="butt" d="m7.8569555 13.165355l91.685036 0l0 29.165352l-91.685036 0z" fill-rule="evenodd"/><path fill="#000000" d="m43.379337 32.04803q-0.59375 0.3125 -1.0625 0.46875q-0.46875 0.140625 -0.96875 0.203125q-0.5 0.0625 -1.078125 0.0625q-2.4375 0 -3.578125 -1.4375q-1.125 -1.4375 -1.125 -3.609375q0 -2.21875 1.171875 -3.640625q1.171875 -1.421875 3.59375 -1.421875q1.296875 0 3.03125 0.421875l0 1.28125q-1.453125 -0.5 -2.015625 -0.578125q-0.546875 -0.09375 -1.03125 -0.09375q-1.734375 0 -2.515625 1.171875q-0.78125 1.171875 -0.78125 2.875q0 1.78125 0.890625 2.875q0.90625 1.09375 2.546875 1.09375q0.453125 0 0.90625 -0.078125q0.453125 -0.078125 0.890625 -0.234375q0.453125 -0.171875 1.125 -0.53125l0 1.171875zm2.0185394 0.5l0 -10.28125l1.28125 0l0 10.28125l-1.28125 0zm3.8526611 0l0 -7.0625l1.28125 0l0 7.0625l-1.28125 0zm0 -8.34375l0 -1.28125l1.28125 0l0 1.28125l-1.28125 0zm9.040161 8.109375q-1.296875 0.390625 -2.21875 0.390625q-1.640625 0 -2.59375 -1.109375q-0.9375 -1.109375 -0.9375 -2.609375q0 -1.0 0.421875 -1.890625q0.421875 -0.90625 1.09375 -1.34375q0.671875 -0.4375 1.578125 -0.4375q1.21875 0 1.953125 0.890625q0.734375 0.875 0.734375 2.625l-0.015625 0.390625l-4.453125 0q0.109375 0.9375 0.40625 1.453125q0.296875 0.5 0.796875 0.78125q0.5 0.28125 1.265625 0.28125q0.390625 0 0.765625 -0.0625q0.390625 -0.078125 1.203125 -0.375l0 1.015625zm-4.375 -4.0625l3.109375 0q0 -1.0625 -0.421875 -1.515625q-0.40625 -0.453125 -1.046875 -0.453125q-0.734375 0 -1.15625 0.5q-0.40625 0.484375 -0.484375 1.46875zm6.6129913 4.296875l0 -7.0625l1.28125 0l0 1.328125q0.484375 -0.71875 1.125 -1.09375q0.65625 -0.390625 1.3593712 -0.390625q0.890625 0 1.453125 0.578125q0.5625 0.5625 0.5625 1.5625l0 5.078125l-1.28125 0l0 -4.65625q0 -0.734375 -0.140625 -0.96875q-0.125 -0.234375 -0.359375 -0.359375q-0.234375 -0.140625 -0.5 -0.140625q-0.4687462 0 -1.0312462 0.296875q-0.546875 0.296875 -1.1875 1.25l0 4.578125l-1.28125 0zm11.427769 0q-0.5937576 0.15625 -1.0312576 0.15625q-0.953125 0 -1.515625 -0.546875q-0.5625 -0.546875 -0.5625 -1.5625l0 -4.15625l-0.875 0l0 -0.953125l0.875 0l0 -1.28125l1.28125 -0.125l0 1.40625l1.8593826 0l0 0.953125l-1.8593826 0l0 3.921875q0 0.75 0.28125 1.078125q0.296875 0.3125 0.921875 0.3125q0.25 0 0.6250076 -0.09375l0 0.890625z" fill-rule="nonzero"/><path fill="#000000" fill-opacity="0.0" d="m7.8569555 140.46194l197.44882 0l0 29.16536l-197.44882 0z" fill-rule="evenodd"/><path stroke="#000000" stroke-width="3.0" stroke-linejoin="round" stroke-linecap="butt" d="m7.8569555 140.46194l197.44882 0l0 29.16536l-197.44882 0z" fill-rule="evenodd"/><path fill="#000000" d="m77.26322 159.84462l-3.109375 0l-2.078125 -3.859375l-0.90625 0l0 3.859375l-2.40625 0l0 -9.640625l4.203125 0q0.828125 0 1.328125 0.140625q0.5 0.140625 0.90625 0.484375q0.765625 0.640625 0.765625 1.78125q0 0.578125 -0.21875 1.109375q-0.21875 0.53125 -0.625 0.953125q-0.390625 0.421875 -0.953125 0.6875l3.09375 4.484375zm-3.859375 -6.9375q0 -0.59375 -0.40625 -0.84375q-0.390625 -0.25 -1.34375 -0.25l-0.484375 0l0 2.734375l0.421875 0q0.859375 0 1.328125 -0.421875q0.484375 -0.4375 0.484375 -1.21875zm11.593842 6.703125q-0.234375 0.0625 -0.4375 0.109375q-1.296875 0.296875 -2.515625 0.296875q-0.890625 0 -1.65625 -0.21875q-0.75 -0.234375 -1.234375 -0.625q-0.609375 -0.515625 -0.984375 -1.34375q-0.359375 -0.84375 -0.359375 -1.703125q0 -0.8125 0.265625 -1.5q0.28125 -0.6875 0.78125 -1.171875q0.5 -0.484375 1.203125 -0.734375q0.71875 -0.265625 1.578125 -0.265625q0.828125 0 1.40625 0.203125q0.578125 0.203125 1.0 0.625q0.5625 0.59375 0.75 1.328125q0.09375 0.359375 0.125 0.640625q0.046875 0.265625 0.0625 0.640625q0.015625 0.359375 0.015625 0.90625l-4.53125 0q0.03125 0.3125 0.078125 0.515625q0.046875 0.1875 0.171875 0.375q0.234375 0.359375 0.640625 0.515625q0.421875 0.15625 1.15625 0.15625q0.671875 0 1.109375 -0.078125q0.4375 -0.078125 1.375 -0.375l0 1.703125zm-2.421875 -4.09375l0 -0.109375q0 -0.8125 -0.234375 -1.171875q-0.21875 -0.375 -0.71875 -0.375q-0.359375 0 -0.625 0.203125q-0.25 0.1875 -0.390625 0.5625q-0.140625 0.359375 -0.171875 0.890625l2.140625 0zm10.774155 4.328125q-0.71875 0.15625 -1.28125 0.15625q-0.453125 0 -0.8125 -0.078125q-0.34375 -0.078125 -0.546875 -0.203125q-0.21875 -0.15625 -0.4375 -0.515625l-0.171875 0q-0.421875 0.453125 -0.828125 0.625q-0.390625 0.171875 -0.96875 0.171875q-0.671875 0 -1.203125 -0.265625q-0.53125 -0.28125 -0.828125 -0.78125q-0.28125 -0.5 -0.28125 -1.140625q0 -1.09375 0.796875 -1.75q0.5 -0.421875 1.15625 -0.578125q0.65625 -0.171875 1.796875 -0.171875l0.53125 0l0 -0.453125q0 -1.0 -1.28125 -1.0q-0.578125 0 -1.3125 0.203125q-0.53125 0.15625 -1.046875 0.453125l0 -1.609375q0.09375 -0.03125 0.1875 -0.0625q0.09375 -0.03125 0.171875 -0.046875q1.078125 -0.34375 2.34375 -0.34375q3.34375 0 3.34375 2.265625l0 3.125q0 0.59375 0.40625 0.59375q0.078125 0 0.265625 -0.03125l0 1.4375zm-3.078125 -2.015625l0 -1.15625l-0.515625 0q-1.359375 0 -1.359375 0.953125q0 0.359375 0.203125 0.59375q0.21875 0.21875 0.578125 0.21875q0.5625 0 1.09375 -0.609375zm7.3196716 2.015625l-2.5625 0l0 -10.28125l2.5625 0l0 10.28125zm12.028076 -4.828125q0 1.15625 -0.359375 2.09375q-0.34375 0.921875 -1.03125 1.59375q-0.671875 0.671875 -1.625 1.03125q-0.953125 0.34375 -2.125 0.34375q-1.21875 0 -2.203125 -0.34375q-0.984375 -0.34375 -1.671875 -1.015625q-0.6875 -0.671875 -1.046875 -1.59375q-0.359375 -0.9375 -0.359375 -2.109375q0 -1.171875 0.359375 -2.09375q0.359375 -0.9375 1.046875 -1.59375q0.6875 -0.65625 1.65625 -1.0q0.984375 -0.359375 2.15625 -0.359375q1.1875 0 2.15625 0.359375q0.96875 0.34375 1.640625 1.0q0.6875 0.65625 1.046875 1.59375q0.359375 0.9375 0.359375 2.09375zm-2.71875 0q0 -0.59375 -0.140625 -1.15625q-0.125 -0.578125 -0.375 -1.046875q-0.25 -0.46875 -0.578125 -0.765625q-0.25 -0.234375 -0.640625 -0.34375q-0.375 -0.125 -0.75 -0.125q-0.375 0 -0.75 0.125q-0.375 0.109375 -0.625 0.34375q-0.328125 0.28125 -0.59375 0.765625q-0.25 0.46875 -0.390625 1.03125q-0.125 0.5625 -0.125 1.171875q0 1.015625 0.3125 1.8125q0.3125 0.796875 0.859375 1.234375q0.5625 0.421875 1.28125 0.421875q0.875 0 1.421875 -0.484375q0.328125 -0.296875 0.578125 -0.765625q0.25 -0.46875 0.375 -1.046875q0.140625 -0.578125 0.140625 -1.171875zm12.004669 1.046875q0 0.90625 -0.21875 1.640625q-0.203125 0.734375 -0.609375 1.25q-0.40625 0.5 -1.0 0.78125q-0.578125 0.265625 -1.296875 0.265625q-0.5625 0 -0.953125 -0.15625q-0.390625 -0.15625 -1.03125 -0.640625l-0.15625 0l-0.3125 0.640625l-2.09375 0l0 -10.28125l2.5625 0l0 3.0625l0 1.359375l0.03125 0q0.171875 -0.484375 0.5 -0.8125q0.34375 -0.34375 0.796875 -0.53125q0.46875 -0.1875 1.0 -0.1875q0.640625 0 1.15625 0.25q0.53125 0.25 0.890625 0.71875q0.359375 0.453125 0.546875 1.125q0.1875 0.671875 0.1875 1.515625zm-2.734375 0.171875q0 -0.59375 -0.140625 -1.015625q-0.140625 -0.4375 -0.40625 -0.65625q-0.25 -0.21875 -0.625 -0.21875q-0.671875 0 -1.203125 1.046875l0 2.40625q0.265625 0.375 0.515625 0.53125q0.265625 0.15625 0.609375 0.15625q0.34375 0 0.640625 -0.28125q0.296875 -0.296875 0.453125 -0.8125q0.15625 -0.515625 0.15625 -1.15625zm6.8987274 -4.75l-2.5625 0l0 -1.921875l2.5625 0l0 1.921875zm0 8.109375q0 0.890625 -0.171875 1.390625q-0.171875 0.515625 -0.59375 0.890625q-0.265625 0.25 -0.609375 0.40625q-0.328125 0.15625 -0.765625 0.21875q-0.421875 0.078125 -0.921875 0.078125q-0.53125 0 -0.875 -0.046875q-0.34375 -0.046875 -1.078125 -0.21875l0 -1.578125q0.8125 0.390625 1.5 0.390625q0.484375 0 0.71875 -0.3125q0.234375 -0.3125 0.234375 -0.96875l0 -7.21875l2.5625 0l0 6.96875zm8.699944 0.015625q-0.234375 0.0625 -0.4375 0.109375q-1.296875 0.296875 -2.515625 0.296875q-0.8906174 0 -1.6562424 -0.21875q-0.75 -0.234375 -1.234375 -0.625q-0.609375 -0.515625 -0.984375 -1.34375q-0.359375 -0.84375 -0.359375 -1.703125q0 -0.8125 0.265625 -1.5q0.28125 -0.6875 0.78125 -1.171875q0.5 -0.484375 1.203125 -0.734375q0.71875 -0.265625 1.5781174 -0.265625q0.828125 0 1.40625 0.203125q0.578125 0.203125 1.0 0.625q0.5625 0.59375 0.75 1.328125q0.09375 0.359375 0.125 0.640625q0.046875 0.265625 0.0625 0.640625q0.015625 0.359375 0.015625 0.90625l-4.5312424 0q0.03125 0.3125 0.078125 0.515625q0.046875 0.1875 0.171875 0.375q0.234375 0.359375 0.6406174 0.515625q0.421875 0.15625 1.15625 0.15625q0.671875 0 1.109375 -0.078125q0.4375 -0.078125 1.375 -0.375l0 1.703125zm-2.421875 -4.09375l0 -0.109375q0 -0.8125 -0.234375 -1.171875q-0.21875 -0.375 -0.71875 -0.375q-0.359375 0 -0.6249924 0.203125q-0.25 0.1875 -0.390625 0.5625q-0.140625 0.359375 -0.171875 0.890625l2.1406174 0zm9.867905 4.234375q-1.234375 0.25 -2.359375 0.25q-0.515625 0 -0.953125 -0.046875q-0.421875 -0.046875 -0.78125 -0.15625q-0.359375 -0.125 -0.640625 -0.28125q-0.265625 -0.171875 -0.546875 -0.4375q-0.53125 -0.5 -0.8125 -1.234375q-0.265625 -0.734375 -0.265625 -1.578125q0 -1.140625 0.484375 -2.015625q0.5 -0.875 1.421875 -1.328125q0.9375 -0.46875 2.171875 -0.46875q0.96875 0 2.234375 0.328125l0 1.703125q-1.21875 -0.484375 -1.890625 -0.484375q-0.5 0 -0.890625 0.28125q-0.390625 0.265625 -0.59375 0.765625q-0.203125 0.484375 -0.203125 1.140625q0 0.984375 0.515625 1.609375q0.53125 0.625 1.375 0.625q0.71875 0 1.734375 -0.328125l0 1.65625zm5.8408813 0.03125q-0.46875 0.140625 -0.75 0.171875q-0.265625 0.046875 -0.6875 0.046875q-1.109375 0 -1.78125 -0.40625q-0.5 -0.3125 -0.6875 -0.765625q-0.171875 -0.46875 -0.171875 -1.40625l0 -3.359375l-0.71875 0l0 -1.4375l0.71875 0l0 -1.140625l2.578125 -0.3125l0 1.453125l1.359375 0l0 1.4375l-1.359375 0l0 3.09375q0 0.46875 0.03125 0.65625q0.046875 0.1875 0.203125 0.359375q0.234375 0.234375 0.703125 0.234375q0.234375 0 0.5625 -0.109375l0 1.484375z" fill-rule="nonzero"/><path fill="#000000" fill-opacity="0.0" d="m7.8569555 198.79265l197.44882 0l0 29.16536l-197.44882 0z" fill-rule="evenodd"/><path stroke="#000000" stroke-width="2.0" stroke-linejoin="round" stroke-linecap="butt" d="m7.8569555 198.79265l197.44882 0l0 29.16536l-197.44882 0z" fill-rule="evenodd"/><path fill="#000000" d="m20.59133 217.86282l0 -3.0625l-3.046875 0l0 -0.953125l3.046875 0l0 -3.0625l0.96875 0l0 3.0625l3.046875 0l0 0.953125l-3.046875 0l0 3.0625l-0.96875 0zm13.004183 0.46875q-1.015625 0 -1.7656269 -0.40625q-0.734375 -0.40625 -1.171875 -1.296875q-0.4375 -0.890625 -0.4375 -1.984375q0 -1.03125 0.390625 -1.90625q0.40625 -0.890625 1.15625 -1.328125q0.7656269 -0.453125 1.8281269 -0.453125q1.015625 0 1.75 0.40625q0.75 0.40625 1.1875 1.296875q0.4375 0.890625 0.4375 1.984375q0 1.03125 -0.40625 1.921875q-0.40625 0.875 -1.15625 1.328125q-0.75 0.4375 -1.8125 0.4375zm0 -0.953125q0.953125 0 1.484375 -0.703125q0.53125 -0.71875 0.53125 -2.03125q0 -1.3125 -0.53125 -2.015625q-0.53125 -0.71875 -1.484375 -0.71875q-0.953125 0 -1.484375 0.71875q-0.5156269 0.703125 -0.5156269 2.015625q0 1.3125 0.5156269 2.03125q0.53125 0.703125 1.484375 0.703125zm5.374405 3.375l0 -9.640625l1.28125 0l0 1.328125q0.40625 -0.75 0.984375 -1.109375q0.59375 -0.375 1.375 -0.375q1.3125 0 2.03125 0.96875q0.71875 0.953125 0.71875 2.5q0 1.015625 -0.34375 1.921875q-0.328125 0.90625 -1.03125 1.453125q-0.6875 0.53125 -1.578125 0.53125q-0.359375 0 -0.9375 -0.109375q-0.5625 -0.09375 -1.21875 -0.84375l0 3.375l-1.28125 0zm1.28125 -4.265625q0.65625 0.59375 1.046875 0.75q0.390625 0.140625 0.84375 0.140625q0.9375 0 1.390625 -0.796875q0.453125 -0.796875 0.453125 -2.03125q0 -1.140625 -0.40625 -1.8125q-0.390625 -0.671875 -1.234375 -0.671875q-0.53125 0 -1.0625 0.296875q-0.515625 0.28125 -1.03125 0.875l0 3.25zm12.294907 1.453125q-1.296875 0.390625 -2.21875 0.390625q-1.640625 0 -2.59375 -1.109375q-0.9375 -1.109375 -0.9375 -2.609375q0 -1.0 0.421875 -1.890625q0.421875 -0.90625 1.09375 -1.34375q0.671875 -0.4375 1.578125 -0.4375q1.21875 0 1.953125 0.890625q0.734375 0.875 0.734375 2.625l-0.015625 0.390625l-4.453125 0q0.109375 0.9375 0.40625 1.453125q0.296875 0.5 0.796875 0.78125q0.5 0.28125 1.265625 0.28125q0.390625 0 0.765625 -0.0625q0.390625 -0.078125 1.203125 -0.375l0 1.015625zm-4.375 -4.0625l3.109375 0q0 -1.0625 -0.421875 -1.515625q-0.40625 -0.453125 -1.046875 -0.453125q-0.734375 0 -1.15625 0.5q-0.40625 0.484375 -0.484375 1.46875zm6.6129913 4.296875l0 -7.0625l1.28125 0l0 1.328125q0.359375 -0.71875 0.9375 -1.09375q0.59375 -0.390625 1.28125 -0.390625q0.1875 0 0.40625 0.03125l0 1.1875q-0.328125 -0.109375 -0.59375 -0.109375q-0.59375 0 -1.109375 0.375q-0.515625 0.359375 -0.921875 1.078125l0 4.65625l-1.28125 0zm9.094223 -0.890625q-0.5625 0.515625 -1.125 0.78125q-0.5625 0.265625 -1.09375 0.265625q-0.75 0 -1.390625 -0.484375q-0.640625 -0.5 -0.640625 -1.453125q0 -1.03125 0.890625 -1.703125q0.90625 -0.6875 2.875 -0.6875l0.296875 0l0 -0.859375q0 -0.5 -0.140625 -0.734375q-0.125 -0.234375 -0.421875 -0.359375q-0.28125 -0.140625 -0.71875 -0.140625q-1.0 0 -2.171875 0.625l0 -1.0625q1.296875 -0.515625 2.4375 -0.515625q0.625 0 1.140625 0.203125q0.53125 0.1875 0.84375 0.625q0.3125 0.421875 0.3125 1.359375l0 3.203125q0 0.53125 0.078125 0.71875q0.09375 0.1875 0.25 0.28125q0.15625 0.09375 0.359375 0.09375q0.078125 0 0.234375 -0.015625l0.09375 0.703125q-0.4375 0.203125 -0.953125 0.203125q-0.359375 0 -0.6875 -0.21875q-0.328125 -0.234375 -0.46875 -0.828125zm-0.1875 -0.703125l0 -1.828125l-0.40625 -0.015625q-1.015625 0 -1.703125 0.390625q-0.671875 0.390625 -0.671875 1.0625q0 0.46875 0.328125 0.78125q0.34375 0.3125 0.796875 0.3125q0.390625 0 0.8125 -0.171875q0.421875 -0.1875 0.84375 -0.53125zm7.0635376 1.59375q-0.59375 0.15625 -1.03125 0.15625q-0.953125 0 -1.515625 -0.546875q-0.5625 -0.546875 -0.5625 -1.5625l0 -4.15625l-0.875 0l0 -0.953125l0.875 0l0 -1.28125l1.28125 -0.125l0 1.40625l1.859375 0l0 0.953125l-1.859375 0l0 3.921875q0 0.75 0.28125 1.078125q0.296875 0.3125 0.921875 0.3125q0.25 0 0.625 -0.09375l0 0.890625zm1.8287811 0l0 -7.0625l1.28125 0l0 7.0625l-1.28125 0zm0 -8.34375l0 -1.28125l1.28125 0l0 1.28125l-1.28125 0zm6.665161 8.5q-1.015625 0 -1.765625 -0.40625q-0.734375 -0.40625 -1.171875 -1.296875q-0.4375 -0.890625 -0.4375 -1.984375q0 -1.03125 0.390625 -1.90625q0.40625 -0.890625 1.15625 -1.328125q0.765625 -0.453125 1.828125 -0.453125q1.015625 0 1.75 0.40625q0.75 0.40625 1.1875 1.296875q0.4375 0.890625 0.4375 1.984375q0 1.03125 -0.40625 1.921875q-0.40625 0.875 -1.15625 1.328125q-0.75 0.4375 -1.8125 0.4375zm0 -0.953125q0.953125 0 1.484375 -0.703125q0.53125 -0.71875 0.53125 -2.03125q0 -1.3125 -0.53125 -2.015625q-0.53125 -0.71875 -1.484375 -0.71875q-0.953125 0 -1.484375 0.71875q-0.515625 0.703125 -0.515625 2.015625q0 1.3125 0.515625 2.03125q0.53125 0.703125 1.484375 0.703125zm5.374405 0.796875l0 -7.0625l1.28125 0l0 1.328125q0.484375 -0.71875 1.125 -1.09375q0.65625 -0.390625 1.359375 -0.390625q0.890625 0 1.453125 0.578125q0.5625 0.5625 0.5625 1.5625l0 5.078125l-1.28125 0l0 -4.65625q0 -0.734375 -0.140625 -0.96875q-0.125 -0.234375 -0.359375 -0.359375q-0.234375 -0.140625 -0.5 -0.140625q-0.46875 0 -1.03125 0.296875q-0.546875 0.296875 -1.1875 1.25l0 4.578125l-1.28125 0zm10.84964 1.046875l0 0.875q-1.0625 -0.71875 -1.71875 -1.71875q-0.65625 -1.0 -1.0 -2.140625q-0.34375 -1.140625 -0.34375 -2.234375q0 -1.09375 0.34375 -2.234375q0.34375 -1.140625 1.0 -2.140625q0.65625 -1.0 1.71875 -1.734375l0 0.890625q-0.734375 0.796875 -1.09375 1.546875q-0.34375 0.75 -0.515625 1.6875q-0.171875 0.9375 -0.171875 1.984375q0 1.03125 0.171875 1.984375q0.171875 0.9375 0.515625 1.6875q0.359375 0.734375 1.09375 1.546875zm0.9592438 -10.4375l0 -0.890625q1.0625 0.734375 1.71875 1.734375q0.65625 1.0 0.984375 2.140625q0.34375 1.140625 0.34375 2.234375q0 1.09375 -0.34375 2.234375q-0.328125 1.140625 -0.984375 2.140625q-0.65625 1.0 -1.71875 1.71875l0 -0.875q0.734375 -0.8125 1.078125 -1.546875q0.359375 -0.75 0.515625 -1.6875q0.171875 -0.953125 0.171875 -1.984375q0 -1.03125 -0.171875 -1.96875q-0.15625 -0.953125 -0.515625 -1.703125q-0.34375 -0.75 -1.078125 -1.546875z" fill-rule="nonzero"/><path fill="#000000" fill-opacity="0.0" d="m7.8569555 169.6273l197.44882 0l0 29.165344l-197.44882 0z" fill-rule="evenodd"/><path stroke="#000000" stroke-width="2.0" stroke-linejoin="round" stroke-linecap="butt" d="m7.8569555 169.6273l197.44882 0l0 29.165344l-197.44882 0z" fill-rule="evenodd"/><path fill="#000000" fill-opacity="0.0" d="m257.05905 140.90552l197.44882 0l0 29.165344l-197.44882 0z" fill-rule="evenodd"/><path stroke="#000000" stroke-width="3.0" stroke-linejoin="round" stroke-linecap="butt" d="m257.05905 140.90552l197.44882 0l0 29.165344l-197.44882 0z" fill-rule="evenodd"/><path fill="#000000" d="m327.0444 160.2882l-2.125 0l-4.140625 -5.78125l0 5.78125l-1.921875 0l0 -9.640625l2.140625 0l4.125 5.78125l0 -5.78125l1.921875 0l0 9.640625zm9.235504 0l-2.5625 0l0 -1.359375l-0.03125 0q-0.328125 0.71875 -0.953125 1.125q-0.625 0.390625 -1.40625 0.390625q-0.875 0 -1.46875 -0.546875q-0.34375 -0.3125 -0.5 -0.734375q-0.140625 -0.421875 -0.140625 -1.078125l0 -5.015625l2.5625 0l0 4.484375q0 0.34375 0.0625 0.5625q0.0625 0.203125 0.203125 0.3125q0.140625 0.09375 0.359375 0.09375q0.34375 0 0.640625 -0.25q0.3125 -0.25 0.671875 -0.796875l0 -4.40625l2.5625 0l0 7.21875zm4.812805 0l-2.5625 0l0 -10.28125l2.5625 0l0 10.28125zm4.809326 0l-2.5625 0l0 -10.28125l2.5625 0l0 10.28125zm12.028076 -4.828125q0 1.15625 -0.359375 2.09375q-0.34375 0.921875 -1.03125 1.59375q-0.671875 0.671875 -1.625 1.03125q-0.953125 0.34375 -2.125 0.34375q-1.21875 0 -2.203125 -0.34375q-0.984375 -0.34375 -1.671875 -1.015625q-0.6875 -0.671875 -1.046875 -1.59375q-0.359375 -0.9375 -0.359375 -2.109375q0 -1.171875 0.359375 -2.09375q0.359375 -0.9375 1.046875 -1.59375q0.6875 -0.65625 1.65625 -1.0q0.984375 -0.359375 2.15625 -0.359375q1.1875 0 2.15625 0.359375q0.96875 0.34375 1.640625 1.0q0.6875 0.65625 1.046875 1.59375q0.359375 0.9375 0.359375 2.09375zm-2.71875 0q0 -0.59375 -0.140625 -1.15625q-0.125 -0.578125 -0.375 -1.046875q-0.25 -0.46875 -0.578125 -0.765625q-0.25 -0.234375 -0.640625 -0.34375q-0.375 -0.125 -0.75 -0.125q-0.375 0 -0.75 0.125q-0.375 0.109375 -0.625 0.34375q-0.328125 0.28125 -0.59375 0.765625q-0.25 0.46875 -0.390625 1.03125q-0.125 0.5625 -0.125 1.171875q0 1.015625 0.3125 1.8125q0.3125 0.796875 0.859375 1.234375q0.5625 0.421875 1.28125 0.421875q0.875 0 1.421875 -0.484375q0.328125 -0.296875 0.578125 -0.765625q0.25 -0.46875 0.375 -1.046875q0.140625 -0.578125 0.140625 -1.171875zm12.004669 1.046875q0 0.90625 -0.21875 1.640625q-0.203125 0.734375 -0.609375 1.25q-0.40625 0.5 -1.0 0.78125q-0.578125 0.265625 -1.296875 0.265625q-0.5625 0 -0.953125 -0.15625q-0.390625 -0.15625 -1.03125 -0.640625l-0.15625 0l-0.3125 0.640625l-2.09375 0l0 -10.28125l2.5625 0l0 3.0625l0 1.359375l0.03125 0q0.171875 -0.484375 0.5 -0.8125q0.34375 -0.34375 0.796875 -0.53125q0.46875 -0.1875 1.0 -0.1875q0.640625 0 1.15625 0.25q0.53125 0.25 0.890625 0.71875q0.359375 0.453125 0.546875 1.125q0.1875 0.671875 0.1875 1.515625zm-2.734375 0.171875q0 -0.59375 -0.140625 -1.015625q-0.140625 -0.4375 -0.40625 -0.65625q-0.25 -0.21875 -0.625 -0.21875q-0.671875 0 -1.203125 1.046875l0 2.40625q0.265625 0.375 0.515625 0.53125q0.265625 0.15625 0.609375 0.15625q0.34375 0 0.640625 -0.28125q0.296875 -0.296875 0.453125 -0.8125q0.15625 -0.515625 0.15625 -1.15625zm6.898712 -4.75l-2.5625 0l0 -1.921875l2.5625 0l0 1.921875zm0 8.109375q0 0.890625 -0.171875 1.390625q-0.171875 0.515625 -0.59375 0.890625q-0.265625 0.25 -0.609375 0.40625q-0.328125 0.15625 -0.765625 0.21875q-0.421875 0.078125 -0.921875 0.078125q-0.53125 0 -0.875 -0.046875q-0.34375 -0.046875 -1.078125 -0.21875l0 -1.578125q0.8125 0.390625 1.5 0.390625q0.484375 0 0.71875 -0.3125q0.234375 -0.3125 0.234375 -0.96875l0 -7.21875l2.5625 0l0 6.96875zm8.699951 0.015625q-0.234375 0.0625 -0.4375 0.109375q-1.296875 0.296875 -2.515625 0.296875q-0.890625 0 -1.65625 -0.21875q-0.75 -0.234375 -1.234375 -0.625q-0.609375 -0.515625 -0.984375 -1.34375q-0.359375 -0.84375 -0.359375 -1.703125q0 -0.8125 0.265625 -1.5q0.28125 -0.6875 0.78125 -1.171875q0.5 -0.484375 1.203125 -0.734375q0.71875 -0.265625 1.578125 -0.265625q0.828125 0 1.40625 0.203125q0.578125 0.203125 1.0 0.625q0.5625 0.59375 0.75 1.328125q0.09375 0.359375 0.125 0.640625q0.046875 0.265625 0.0625 0.640625q0.015625 0.359375 0.015625 0.90625l-4.53125 0q0.03125 0.3125 0.078125 0.515625q0.046875 0.1875 0.171875 0.375q0.234375 0.359375 0.640625 0.515625q0.421875 0.15625 1.15625 0.15625q0.671875 0 1.109375 -0.078125q0.4375 -0.078125 1.375 -0.375l0 1.703125zm-2.421875 -4.09375l0 -0.109375q0 -0.8125 -0.234375 -1.171875q-0.21875 -0.375 -0.71875 -0.375q-0.359375 0 -0.625 0.203125q-0.25 0.1875 -0.390625 0.5625q-0.140625 0.359375 -0.171875 0.890625l2.140625 0zm9.86792 4.234375q-1.234375 0.25 -2.359375 0.25q-0.515625 0 -0.953125 -0.046875q-0.421875 -0.046875 -0.78125 -0.15625q-0.359375 -0.125 -0.640625 -0.28125q-0.265625 -0.171875 -0.546875 -0.4375q-0.53125 -0.5 -0.8125 -1.234375q-0.265625 -0.734375 -0.265625 -1.578125q0 -1.140625 0.484375 -2.015625q0.5 -0.875 1.421875 -1.328125q0.9375 -0.46875 2.171875 -0.46875q0.96875 0 2.234375 0.328125l0 1.703125q-1.21875 -0.484375 -1.890625 -0.484375q-0.5 0 -0.890625 0.28125q-0.390625 0.265625 -0.59375 0.765625q-0.203125 0.484375 -0.203125 1.140625q0 0.984375 0.515625 1.609375q0.53125 0.625 1.375 0.625q0.71875 0 1.734375 -0.328125l0 1.65625zm5.8408813 0.03125q-0.46875 0.140625 -0.75 0.171875q-0.265625 0.046875 -0.6875 0.046875q-1.109375 0 -1.78125 -0.40625q-0.5 -0.3125 -0.6875 -0.765625q-0.171875 -0.46875 -0.171875 -1.40625l0 -3.359375l-0.71875 0l0 -1.4375l0.71875 0l0 -1.140625l2.578125 -0.3125l0 1.453125l1.359375 0l0 1.4375l-1.359375 0l0 3.09375q0 0.46875 0.03125 0.65625q0.046875 0.1875 0.203125 0.359375q0.234375 0.234375 0.703125 0.234375q0.234375 0 0.5625 -0.109375l0 1.484375z" fill-rule="nonzero"/><path fill="#000000" fill-opacity="0.0" d="m257.05905 199.23622l197.44882 0l0 29.16536l-197.44882 0z" fill-rule="evenodd"/><path stroke="#000000" stroke-width="2.0" stroke-linejoin="round" stroke-linecap="butt" d="m257.05905 199.23622l197.44882 0l0 29.16536l-197.44882 0z" fill-rule="evenodd"/><path fill="#000000" d="m269.79343 218.3064l0 -3.0625l-3.046875 0l0 -0.953125l3.046875 0l0 -3.0625l0.96875 0l0 3.0625l3.046875 0l0 0.953125l-3.046875 0l0 3.0625l-0.96875 0zm13.004181 0.46875q-1.015625 0 -1.765625 -0.40625q-0.734375 -0.40625 -1.171875 -1.296875q-0.4375 -0.890625 -0.4375 -1.984375q0 -1.03125 0.390625 -1.90625q0.40625 -0.890625 1.15625 -1.328125q0.765625 -0.453125 1.828125 -0.453125q1.015625 0 1.75 0.40625q0.75 0.40625 1.1875 1.296875q0.4375 0.890625 0.4375 1.984375q0 1.03125 -0.40625 1.921875q-0.40625 0.875 -1.15625 1.328125q-0.75 0.4375 -1.8125 0.4375zm0 -0.953125q0.953125 0 1.484375 -0.703125q0.53125 -0.71875 0.53125 -2.03125q0 -1.3125 -0.53125 -2.015625q-0.53125 -0.71875 -1.484375 -0.71875q-0.953125 0 -1.484375 0.71875q-0.515625 0.703125 -0.515625 2.015625q0 1.3125 0.515625 2.03125q0.53125 0.703125 1.484375 0.703125zm5.37442 3.375l0 -9.640625l1.28125 0l0 1.328125q0.40625 -0.75 0.984375 -1.109375q0.59375 -0.375 1.375 -0.375q1.3125 0 2.03125 0.96875q0.71875 0.953125 0.71875 2.5q0 1.015625 -0.34375 1.921875q-0.328125 0.90625 -1.03125 1.453125q-0.6875 0.53125 -1.578125 0.53125q-0.359375 0 -0.9375 -0.109375q-0.5625 -0.09375 -1.21875 -0.84375l0 3.375l-1.28125 0zm1.28125 -4.265625q0.65625 0.59375 1.046875 0.75q0.390625 0.140625 0.84375 0.140625q0.9375 0 1.390625 -0.796875q0.453125 -0.796875 0.453125 -2.03125q0 -1.140625 -0.40625 -1.8125q-0.390625 -0.671875 -1.234375 -0.671875q-0.53125 0 -1.0625 0.296875q-0.515625 0.28125 -1.03125 0.875l0 3.25zm12.294891 1.453125q-1.296875 0.390625 -2.21875 0.390625q-1.640625 0 -2.59375 -1.109375q-0.9375 -1.109375 -0.9375 -2.609375q0 -1.0 0.421875 -1.890625q0.421875 -0.90625 1.09375 -1.34375q0.671875 -0.4375 1.578125 -0.4375q1.21875 0 1.953125 0.890625q0.734375 0.875 0.734375 2.625l-0.015625 0.390625l-4.453125 0q0.109375 0.9375 0.40625 1.453125q0.296875 0.5 0.796875 0.78125q0.5 0.28125 1.265625 0.28125q0.390625 0 0.765625 -0.0625q0.390625 -0.078125 1.203125 -0.375l0 1.015625zm-4.375 -4.0625l3.109375 0q0 -1.0625 -0.421875 -1.515625q-0.40625 -0.453125 -1.046875 -0.453125q-0.734375 0 -1.15625 0.5q-0.40625 0.484375 -0.484375 1.46875zm6.6130066 4.296875l0 -7.0625l1.28125 0l0 1.328125q0.359375 -0.71875 0.9375 -1.09375q0.59375 -0.390625 1.28125 -0.390625q0.1875 0 0.40625 0.03125l0 1.1875q-0.328125 -0.109375 -0.59375 -0.109375q-0.59375 0 -1.109375 0.375q-0.515625 0.359375 -0.921875 1.078125l0 4.65625l-1.28125 0zm9.094208 -0.890625q-0.5625 0.515625 -1.125 0.78125q-0.5625 0.265625 -1.09375 0.265625q-0.75 0 -1.390625 -0.484375q-0.640625 -0.5 -0.640625 -1.453125q0 -1.03125 0.890625 -1.703125q0.90625 -0.6875 2.875 -0.6875l0.296875 0l0 -0.859375q0 -0.5 -0.140625 -0.734375q-0.125 -0.234375 -0.421875 -0.359375q-0.28125 -0.140625 -0.71875 -0.140625q-1.0 0 -2.171875 0.625l0 -1.0625q1.296875 -0.515625 2.4375 -0.515625q0.625 0 1.140625 0.203125q0.53125 0.1875 0.84375 0.625q0.3125 0.421875 0.3125 1.359375l0 3.203125q0 0.53125 0.078125 0.71875q0.09375 0.1875 0.25 0.28125q0.15625 0.09375 0.359375 0.09375q0.078125 0 0.234375 -0.015625l0.09375 0.703125q-0.4375 0.203125 -0.953125 0.203125q-0.359375 0 -0.6875 -0.21875q-0.328125 -0.234375 -0.46875 -0.828125zm-0.1875 -0.703125l0 -1.828125l-0.40625 -0.015625q-1.015625 0 -1.703125 0.390625q-0.671875 0.390625 -0.671875 1.0625q0 0.46875 0.328125 0.78125q0.34375 0.3125 0.796875 0.3125q0.390625 0 0.8125 -0.171875q0.421875 -0.1875 0.84375 -0.53125zm7.0635376 1.59375q-0.59375 0.15625 -1.03125 0.15625q-0.953125 0 -1.515625 -0.546875q-0.5625 -0.546875 -0.5625 -1.5625l0 -4.15625l-0.875 0l0 -0.953125l0.875 0l0 -1.28125l1.28125 -0.125l0 1.40625l1.859375 0l0 0.953125l-1.859375 0l0 3.921875q0 0.75 0.28125 1.078125q0.296875 0.3125 0.921875 0.3125q0.25 0 0.625 -0.09375l0 0.890625zm1.8287964 0l0 -7.0625l1.28125 0l0 7.0625l-1.28125 0zm0 -8.34375l0 -1.28125l1.28125 0l0 1.28125l-1.28125 0zm6.665161 8.5q-1.015625 0 -1.765625 -0.40625q-0.734375 -0.40625 -1.171875 -1.296875q-0.4375 -0.890625 -0.4375 -1.984375q0 -1.03125 0.390625 -1.90625q0.40625 -0.890625 1.15625 -1.328125q0.765625 -0.453125 1.828125 -0.453125q1.015625 0 1.75 0.40625q0.75 0.40625 1.1875 1.296875q0.4375 0.890625 0.4375 1.984375q0 1.03125 -0.40625 1.921875q-0.40625 0.875 -1.15625 1.328125q-0.75 0.4375 -1.8125 0.4375zm0 -0.953125q0.953125 0 1.484375 -0.703125q0.53125 -0.71875 0.53125 -2.03125q0 -1.3125 -0.53125 -2.015625q-0.53125 -0.71875 -1.484375 -0.71875q-0.953125 0 -1.484375 0.71875q-0.515625 0.703125 -0.515625 2.015625q0 1.3125 0.515625 2.03125q0.53125 0.703125 1.484375 0.703125zm5.3743896 0.796875l0 -7.0625l1.28125 0l0 1.328125q0.484375 -0.71875 1.125 -1.09375q0.65625 -0.390625 1.359375 -0.390625q0.890625 0 1.453125 0.578125q0.5625 0.5625 0.5625 1.5625l0 5.078125l-1.28125 0l0 -4.65625q0 -0.734375 -0.140625 -0.96875q-0.125 -0.234375 -0.359375 -0.359375q-0.234375 -0.140625 -0.5 -0.140625q-0.46875 0 -1.03125 0.296875q-0.546875 0.296875 -1.1875 1.25l0 4.578125l-1.28125 0zm10.84964 1.046875l0 0.875q-1.0625 -0.71875 -1.71875 -1.71875q-0.65625 -1.0 -1.0 -2.140625q-0.34375 -1.140625 -0.34375 -2.234375q0 -1.09375 0.34375 -2.234375q0.34375 -1.140625 1.0 -2.140625q0.65625 -1.0 1.71875 -1.734375l0 0.890625q-0.734375 0.796875 -1.09375 1.546875q-0.34375 0.75 -0.515625 1.6875q-0.171875 0.9375 -0.171875 1.984375q0 1.03125 0.171875 1.984375q0.171875 0.9375 0.515625 1.6875q0.359375 0.734375 1.09375 1.546875zm0.95925903 -10.4375l0 -0.890625q1.0625 0.734375 1.71875 1.734375q0.65625 1.0 0.984375 2.140625q0.34375 1.140625 0.34375 2.234375q0 1.09375 -0.34375 2.234375q-0.328125 1.140625 -0.984375 2.140625q-0.65625 1.0 -1.71875 1.71875l0 -0.875q0.734375 -0.8125 1.078125 -1.546875q0.359375 -0.75 0.515625 -1.6875q0.171875 -0.953125 0.171875 -1.984375q0 -1.03125 -0.171875 -1.96875q-0.15625 -0.953125 -0.515625 -1.703125q-0.34375 -0.75 -1.078125 -1.546875z" fill-rule="nonzero"/><path fill="#000000" fill-opacity="0.0" d="m257.05905 170.07086l197.44882 0l0 29.16536l-197.44882 0z" fill-rule="evenodd"/><path stroke="#000000" stroke-width="2.0" stroke-linejoin="round" stroke-linecap="butt" d="m257.05905 170.07086l197.44882 0l0 29.16536l-197.44882 0z" fill-rule="evenodd"/><path fill="#000000" fill-opacity="0.0" d="m236.75066 78.77821l0 15.984253l0.06298828 0l0 15.984253" fill-rule="evenodd"/><path stroke="#000000" stroke-width="3.0" stroke-linejoin="round" stroke-linecap="butt" d="m236.81364 96.7781l0 13.96862" fill-rule="evenodd"/><path stroke="#000000" stroke-width="3.0" stroke-linecap="butt" d="m241.76881 96.760765l-5.0028076 -13.59687l-4.9075317 13.631554z" fill-rule="evenodd"/><path fill="#000000" fill-opacity="0.0" d="m106.65879 109.75722l-0.15747833 28.409454" fill-rule="evenodd"/><path stroke="#000000" stroke-width="2.0" stroke-linejoin="round" stroke-linecap="round" d="m106.65879 109.75722l-0.15747833 28.409454" fill-rule="evenodd"/><path fill="#000000" fill-opacity="0.0" d="m355.60892 110.74672l0.34646606 29.16536" fill-rule="evenodd"/><path stroke="#000000" stroke-width="2.0" stroke-linejoin="round" stroke-linecap="round" d="m355.60892 110.74672l0.34646606 29.16536" fill-rule="evenodd"/><path fill="#000000" fill-opacity="0.0" d="m106.703415 110.198166l248.66142 -0.4409485" fill-rule="evenodd"/><path stroke="#000000" stroke-width="2.0" stroke-linejoin="round" stroke-linecap="round" d="m106.703415 110.198166l248.66142 -0.4409485" fill-rule="evenodd"/><path fill="#efefef" d="m616.14307 197.83464l-116.12601 0l0 26.64032l5.328186 5.328186l110.79782 0z" fill-rule="evenodd"/><path fill="#bfbfbf" d="m505.34525 229.80315l-1.0656433 -4.2625427l-4.2625427 -1.0656433z" fill-rule="evenodd"/><path fill="#000000" fill-opacity="0.0" d="m505.34525 229.80315l-1.0656433 -4.2625427l-4.2625427 -1.0656433l5.328186 5.328186l110.79782 0l0 -31.968506l-116.12601 0l0 26.64032" fill-rule="evenodd"/><path stroke="#000000" stroke-width="2.0" stroke-linejoin="round" stroke-linecap="butt" d="m505.34525 229.80315l-1.0656433 -4.2625427l-4.2625427 -1.0656433l5.328186 5.328186l110.79782 0l0 -31.968506l-116.12601 0l0 26.64032" fill-rule="evenodd"/><path fill="#000000" d="m514.8296 215.9548l0 -1.328125q-0.390625 0.75 -0.984375 1.125q-0.578125 0.359375 -1.359375 0.359375q-1.3125305 0 -2.0312805 -0.953125q-0.71875 -0.953125 -0.71875 -2.515625q0 -1.671875 0.8125 -2.78125q0.8125 -1.125 2.2031555 -1.125q0.40625 0 0.78125 0.09375q0.375 0.09375 0.65625 0.28125q0.296875 0.171875 0.640625 0.578125l0 -4.015625l1.296875 0l0 10.28125l-1.296875 0zm0 -5.375q-0.65625 -0.59375 -1.046875 -0.734375q-0.390625 -0.15625 -0.828125 -0.15625q-0.9375 0 -1.3906555 0.796875q-0.453125 0.78125 -0.453125 2.03125q0 1.140625 0.390625 1.8125q0.40625 0.65625 1.2500305 0.65625q0.53125 0 1.046875 -0.28125q0.53125 -0.296875 1.03125 -0.875l0 -3.25zm6.669861 5.53125q-1.015625 0 -1.765625 -0.40625q-0.734375 -0.40625 -1.171875 -1.296875q-0.4375 -0.890625 -0.4375 -1.984375q0 -1.03125 0.390625 -1.90625q0.40625 -0.890625 1.15625 -1.328125q0.765625 -0.453125 1.828125 -0.453125q1.015625 0 1.75 0.40625q0.75 0.40625 1.1875 1.296875q0.4375 0.890625 0.4375 1.984375q0 1.03125 -0.40625 1.921875q-0.40625 0.875 -1.15625 1.328125q-0.75 0.4375 -1.8125 0.4375zm0 -0.953125q0.953125 0 1.484375 -0.703125q0.53125 -0.71875 0.53125 -2.03125q0 -1.3125 -0.53125 -2.015625q-0.53125 -0.71875 -1.484375 -0.71875q-0.953125 0 -1.484375 0.71875q-0.515625 0.703125 -0.515625 2.015625q0 1.3125 0.515625 2.03125q0.53125 0.703125 1.484375 0.703125zm10.561951 0.5625q-1.296875 0.390625 -2.21875 0.390625q-1.640625 0 -2.59375 -1.109375q-0.9375 -1.109375 -0.9375 -2.609375q0 -1.0 0.421875 -1.890625q0.421875 -0.90625 1.09375 -1.34375q0.671875 -0.4375 1.578125 -0.4375q1.21875 0 1.953125 0.890625q0.734375 0.875 0.734375 2.625l-0.015625 0.390625l-4.453125 0q0.109375 0.9375 0.40625 1.453125q0.296875 0.5 0.796875 0.78125q0.5 0.28125 1.265625 0.28125q0.390625 0 0.765625 -0.0625q0.390625 -0.078125 1.203125 -0.375l0 1.015625zm-4.375 -4.0625l3.109375 0q0 -1.0625 -0.421875 -1.515625q-0.40625 -0.453125 -1.046875 -0.453125q-0.734375 0 -1.15625 0.5q-0.40625 0.484375 -0.484375 1.46875zm6.347351 4.046875l0 -1.171875q1.265625 0.625 2.1875 0.625q0.546875 0 0.90625 -0.296875q0.375 -0.3125 0.375 -0.75q0 -0.28125 -0.171875 -0.546875q-0.1875 -0.265625 -0.84375 -0.546875l-0.75 -0.3125q-0.859375 -0.359375 -1.265625 -0.84375q-0.390625 -0.46875 -0.390625 -1.140625q0 -0.859375 0.609375 -1.421875q0.625 -0.5625 1.828125 -0.5625q0.59375 0 1.46875 0.15625l0.265625 0.046875l0 1.078125q-1.0625 -0.328125 -1.703125 -0.328125q-0.625 0 -0.9375 0.265625q-0.296875 0.265625 -0.296875 0.640625q0 0.28125 0.203125 0.515625q0.203125 0.234375 0.734375 0.453125l0.625 0.265625q1.234375 0.53125 1.578125 1.046875q0.328125 0.5 0.328125 1.109375q0 0.578125 -0.3125 1.078125q-0.3125 0.5 -0.9375 0.78125q-0.609375 0.265625 -1.359375 0.265625q-0.875 0 -2.140625 -0.40625zm11.2769165 0.25l0 -7.0625l1.28125 0l0 1.328125q0.484375 -0.71875 1.125 -1.09375q0.65625 -0.390625 1.359375 -0.390625q0.890625 0 1.453125 0.578125q0.5625 0.5625 0.5625 1.5625l0 5.078125l-1.28125 0l0 -4.65625q0 -0.734375 -0.140625 -0.96875q-0.125 -0.234375 -0.359375 -0.359375q-0.234375 -0.140625 -0.5 -0.140625q-0.46875 0 -1.03125 0.296875q-0.546875 0.296875 -1.1875 1.25l0 4.578125l-1.28125 0zm11.084045 0.15625q-1.015625 0 -1.765625 -0.40625q-0.734375 -0.40625 -1.171875 -1.296875q-0.4375 -0.890625 -0.4375 -1.984375q0 -1.03125 0.390625 -1.90625q0.40625 -0.890625 1.15625 -1.328125q0.765625 -0.453125 1.828125 -0.453125q1.015625 0 1.75 0.40625q0.75 0.40625 1.1875 1.296875q0.4375 0.890625 0.4375 1.984375q0 1.03125 -0.40625 1.921875q-0.40625 0.875 -1.15625 1.328125q-0.75 0.4375 -1.8125 0.4375zm0 -0.953125q0.953125 0 1.484375 -0.703125q0.53125 -0.71875 0.53125 -2.03125q0 -1.3125 -0.53125 -2.015625q-0.53125 -0.71875 -1.484375 -0.71875q-0.953125 0 -1.484375 0.71875q-0.515625 0.703125 -0.515625 2.015625q0 1.3125 0.515625 2.03125q0.53125 0.703125 1.484375 0.703125zm8.53064 0.796875q-0.59375 0.15625 -1.03125 0.15625q-0.953125 0 -1.515625 -0.546875q-0.5625 -0.546875 -0.5625 -1.5625l0 -4.15625l-0.875 0l0 -0.953125l0.875 0l0 -1.28125l1.28125 -0.125l0 1.40625l1.859375 0l0 0.953125l-1.859375 0l0 3.921875q0 0.75 0.28125 1.078125q0.296875 0.3125 0.921875 0.3125q0.25 0 0.625 -0.09375l0 0.890625zm1.8287964 0l0 -10.28125l1.28125 0l0 4.546875q0.484375 -0.71875 1.125 -1.09375q0.65625 -0.390625 1.359375 -0.390625q0.890625 0 1.453125 0.578125q0.5625 0.5625 0.5625 1.5625l0 5.078125l-1.28125 0l0 -4.65625q0 -0.734375 -0.140625 -0.96875q-0.125 -0.234375 -0.359375 -0.359375q-0.234375 -0.140625 -0.5 -0.140625q-0.46875 0 -1.03125 0.296875q-0.546875 0.296875 -1.1875 1.25l0 4.578125l-1.28125 0zm8.271484 0l0 -7.0625l1.28125 0l0 7.0625l-1.28125 0zm0 -8.34375l0 -1.28125l1.28125 0l0 1.28125l-1.28125 0zm3.8526611 8.34375l0 -7.0625l1.28125 0l0 1.328125q0.484375 -0.71875 1.125 -1.09375q0.65625 -0.390625 1.359375 -0.390625q0.890625 0 1.453125 0.578125q0.5625 0.5625 0.5625 1.5625l0 5.078125l-1.28125 0l0 -4.65625q0 -0.734375 -0.140625 -0.96875q-0.125 -0.234375 -0.359375 -0.359375q-0.234375 -0.140625 -0.5 -0.140625q-0.46875 0 -1.03125 0.296875q-0.546875 0.296875 -1.1875 1.25l0 4.578125l-1.28125 0zm8.302795 2.34375l0.140625 -1.109375q1.125 0.53125 2.203125 0.53125q1.21875 0 1.6875 -0.625q0.46875 -0.625 0.46875 -1.671875l0 -1.109375q-0.28125 0.578125 -0.875 1.03125q-0.578125 0.453125 -1.4375 0.453125q-1.453125 0 -2.125 -1.046875q-0.65625 -1.046875 -0.65625 -2.375q0 -1.015625 0.390625 -1.890625q0.390625 -0.875 1.078125 -1.3125q0.703125 -0.4375 1.59375 -0.4375q0.390625 0 0.734375 0.09375q0.34375 0.078125 0.640625 0.265625q0.296875 0.1875 0.65625 0.59375l0 -0.796875l1.296875 0l0 5.140625q0 2.234375 -0.375 3.0625q-0.375 0.828125 -1.171875 1.203125q-0.796875 0.390625 -1.90625 0.390625q-0.34375 0 -0.765625 -0.046875q-0.40625 -0.03125 -0.734375 -0.09375q-0.328125 -0.0625 -0.84375 -0.25zm4.5 -4.796875l0 -2.921875q-0.421875 -0.453125 -0.875 -0.671875q-0.453125 -0.21875 -0.96875 -0.21875q-0.84375 0 -1.359375 0.6875q-0.515625 0.6875 -0.515625 2.0q0 1.015625 0.375 1.65625q0.390625 0.640625 1.25 0.640625q0.5625 0 1.078125 -0.296875q0.53125 -0.296875 1.015625 -0.875z" fill-rule="nonzero"/><path fill="#000000" fill-opacity="0.0" d="m454.50525 213.91339l45.51181 -0.09449768" fill-rule="evenodd"/><path stroke="#000000" stroke-width="2.0" stroke-linejoin="round" stroke-linecap="butt" stroke-dasharray="8.0,6.0" d="m454.50525 213.91339l45.51181 -0.09449768" fill-rule="evenodd"/><path fill="#000000" fill-opacity="0.0" d="m138.05905 50.330708l197.44882 0l0 29.165356l-197.44882 0z" fill-rule="evenodd"/><path stroke="#000000" stroke-width="2.0" stroke-linejoin="round" stroke-linecap="butt" d="m138.05905 50.330708l197.44882 0l0 29.165356l-197.44882 0z" fill-rule="evenodd"/><path fill="#000000" d="m150.79343 69.40089l0 -3.0625l-3.046875 0l0 -0.953125l3.046875 0l0 -3.0625l0.96875 0l0 3.0625l3.046875 0l0 0.953125l-3.046875 0l0 3.0625l-0.96875 0z" fill-rule="nonzero"/><path fill="#000000" d="m163.76636 69.86964q-1.015625 0 -1.671875 -0.40625q-0.65625 -0.40625 -0.90625 -1.296875q-0.25 -0.890625 -0.015625 -1.984375q0.21875 -1.03125 0.796875 -1.90625q0.59375 -0.890625 1.4375 -1.328125q0.859375 -0.453125 1.921875 -0.453125q1.015625 0 1.671875 0.40625q0.65625 0.40625 0.90625 1.296875q0.25 0.890625 0.015625 1.984375q-0.21875 1.03125 -0.8125 1.921875q-0.59375 0.875 -1.4375 1.328125q-0.84375 0.4375 -1.90625 0.4375zm0.203125 -0.953125q0.953125 0 1.625 -0.703125q0.6875 -0.71875 0.96875 -2.03125q0.28125 -1.3125 -0.109375 -2.015625q-0.375 -0.71875 -1.328125 -0.71875q-0.953125 0 -1.625 0.71875q-0.671875 0.703125 -0.953125 2.015625q-0.28125 1.3125 0.09375 2.03125q0.375 0.703125 1.328125 0.703125zm4.655655 3.375l2.046875 -9.640625l1.28125 0l-0.28125 1.328125q0.5625 -0.75 1.21875 -1.109375q0.671875 -0.375 1.453125 -0.375q1.3125 0 1.828125 0.96875q0.515625 0.953125 0.1875 2.5q-0.21875 1.015625 -0.75 1.921875q-0.515625 0.90625 -1.328125 1.453125q-0.8125 0.53125 -1.703125 0.53125q-0.359375 0 -0.90625 -0.109375q-0.546875 -0.09375 -1.046875 -0.84375l-0.71875 3.375l-1.28125 0zm2.1875 -4.265625q0.53125 0.59375 0.890625 0.75q0.359375 0.140625 0.8125 0.140625q0.9375 0 1.5625 -0.796875q0.625 -0.796875 0.875 -2.03125q0.25 -1.140625 -0.015625 -1.8125q-0.25 -0.671875 -1.09375 -0.671875q-0.53125 0 -1.125 0.296875q-0.578125 0.28125 -1.21875 0.875l-0.6875 3.25zm11.982407 1.453125q-1.375 0.390625 -2.296875 0.390625q-1.640625 0 -2.359375 -1.109375q-0.703125 -1.109375 -0.390625 -2.609375q0.21875 -1.0 0.828125 -1.890625q0.625 -0.90625 1.375 -1.34375q0.765625 -0.4375 1.671875 -0.4375q1.21875 0 1.765625 0.890625q0.546875 0.875 0.1875 2.625l-0.109375 0.390625l-4.453125 0q-0.078125 0.9375 0.109375 1.453125q0.1875 0.5 0.625 0.78125q0.4375 0.28125 1.203125 0.28125q0.390625 0 0.78125 -0.0625q0.40625 -0.078125 1.28125 -0.375l-0.21875 1.015625zm-3.515625 -4.0625l3.109375 0q0.234375 -1.0625 -0.09375 -1.515625q-0.3125 -0.453125 -0.953125 -0.453125q-0.734375 0 -1.25 0.5q-0.515625 0.484375 -0.8125 1.46875zm5.7067413 4.296875l1.5 -7.0625l1.28125 0l-0.28125 1.328125q0.515625 -0.71875 1.171875 -1.09375q0.671875 -0.390625 1.359375 -0.390625q0.1875 0 0.40625 0.03125l-0.25 1.1875q-0.3125 -0.109375 -0.578125 -0.109375q-0.59375 0 -1.1875 0.375q-0.59375 0.359375 -1.15625 1.078125l-0.984375 4.65625l-1.28125 0zm9.281723 -0.890625q-0.671875 0.515625 -1.296875 0.78125q-0.609375 0.265625 -1.140625 0.265625q-0.75 0 -1.296875 -0.484375q-0.53125 -0.5 -0.328125 -1.453125q0.21875 -1.03125 1.265625 -1.703125q1.046875 -0.6875 3.015625 -0.6875l0.296875 0l0.171875 -0.859375q0.109375 -0.5 0.03125 -0.734375q-0.078125 -0.234375 -0.34375 -0.359375q-0.265625 -0.140625 -0.703125 -0.140625q-1.0 0 -2.296875 0.625l0.21875 -1.0625q1.40625 -0.515625 2.546875 -0.515625q0.625 0 1.109375 0.203125q0.484375 0.1875 0.703125 0.625q0.21875 0.421875 0.015625 1.359375l-0.671875 3.203125q-0.109375 0.53125 -0.0625 0.71875q0.046875 0.1875 0.171875 0.28125q0.140625 0.09375 0.34375 0.09375q0.078125 0 0.234375 -0.015625l-0.046875 0.703125q-0.484375 0.203125 -1.0 0.203125q-0.359375 0 -0.640625 -0.21875q-0.28125 -0.234375 -0.296875 -0.828125zm-0.03125 -0.703125l0.390625 -1.828125l-0.40625 -0.015625q-1.015625 0 -1.78125 0.390625q-0.765625 0.390625 -0.90625 1.0625q-0.09375 0.46875 0.171875 0.78125q0.265625 0.3125 0.71875 0.3125q0.390625 0 0.84375 -0.171875q0.46875 -0.1875 0.96875 -0.53125zm6.7197876 1.59375q-0.625 0.15625 -1.0625 0.15625q-0.953125 0 -1.40625 -0.546875q-0.4375 -0.546875 -0.21875 -1.5625l0.875 -4.15625l-0.875 0l0.203125 -0.953125l0.875 0l0.28125 -1.28125l1.296875 -0.125l-0.296875 1.40625l1.859375 0l-0.203125 0.953125l-1.859375 0l-0.828125 3.921875q-0.15625 0.75 0.0625 1.078125q0.21875 0.3125 0.84375 0.3125q0.25 0 0.640625 -0.09375l-0.1875 0.890625zm1.8287811 0l1.5 -7.0625l1.28125 0l-1.5 7.0625l-1.28125 0zm1.78125 -8.34375l0.265625 -1.28125l1.28125 0l-0.265625 1.28125l-1.28125 0zm4.852661 8.5q-1.015625 0 -1.671875 -0.40625q-0.65625 -0.40625 -0.90625 -1.296875q-0.25 -0.890625 -0.015625 -1.984375q0.21875 -1.03125 0.796875 -1.90625q0.59375 -0.890625 1.4375 -1.328125q0.859375 -0.453125 1.921875 -0.453125q1.015625 0 1.671875 0.40625q0.65625 0.40625 0.90625 1.296875q0.25 0.890625 0.015625 1.984375q-0.21875 1.03125 -0.8125 1.921875q-0.59375 0.875 -1.4375 1.328125q-0.84375 0.4375 -1.90625 0.4375zm0.203125 -0.953125q0.953125 0 1.625 -0.703125q0.6875 -0.71875 0.96875 -2.03125q0.28125 -1.3125 -0.109375 -2.015625q-0.375 -0.71875 -1.328125 -0.71875q-0.953125 0 -1.625 0.71875q-0.671875 0.703125 -0.953125 2.015625q-0.28125 1.3125 0.09375 2.03125q0.375 0.703125 1.328125 0.703125zm5.20253 0.796875l1.5 -7.0625l1.28125 0l-0.28125 1.328125q0.640625 -0.71875 1.359375 -1.09375q0.734375 -0.390625 1.4375 -0.390625q0.890625 0 1.328125 0.578125q0.453125 0.5625 0.234375 1.5625l-1.078125 5.078125l-1.28125 0l0.984375 -4.65625q0.15625 -0.734375 0.078125 -0.96875q-0.078125 -0.234375 -0.296875 -0.359375q-0.203125 -0.140625 -0.46875 -0.140625q-0.46875 0 -1.09375 0.296875q-0.609375 0.296875 -1.453125 1.25l-0.96875 4.578125l-1.28125 0z" fill-rule="nonzero"/><path fill="#000000" d="m225.67441 70.76026l0 0.875q-1.0625 -0.71875 -1.71875 -1.71875q-0.65625 -1.0 -1.0 -2.140625q-0.34375 -1.140625 -0.34375 -2.234375q0 -1.09375 0.34375 -2.234375q0.34375 -1.140625 1.0 -2.140625q0.65625 -1.0 1.71875 -1.734375l0 0.890625q-0.734375 0.796875 -1.09375 1.546875q-0.34375 0.75 -0.515625 1.6875q-0.171875 0.9375 -0.171875 1.984375q0 1.03125 0.171875 1.984375q0.171875 0.9375 0.515625 1.6875q0.359375 0.734375 1.09375 1.546875zm0.9592438 -10.4375l0 -0.890625q1.0625 0.734375 1.71875 1.734375q0.65625 1.0 0.984375 2.140625q0.34375 1.140625 0.34375 2.234375q0 1.09375 -0.34375 2.234375q-0.328125 1.140625 -0.984375 2.140625q-0.65625 1.0 -1.71875 1.71875l0 -0.875q0.734375 -0.8125 1.078125 -1.546875q0.359375 -0.75 0.515625 -1.6875q0.171875 -0.953125 0.171875 -1.984375q0 -1.03125 -0.171875 -1.96875q-0.15625 -0.953125 -0.515625 -1.703125q-0.34375 -0.75 -1.078125 -1.546875z" fill-rule="nonzero"/><path fill="#000000" fill-opacity="0.0" d="m99.54199 27.748032l38.519684 0" fill-rule="evenodd"/><path stroke="#000000" stroke-width="2.0" stroke-linejoin="round" stroke-linecap="butt" stroke-dasharray="8.0,6.0" d="m99.54199 27.748032l31.665512 0" fill-rule="evenodd"/><path fill="#000000" stroke="#000000" stroke-width="2.0" stroke-linecap="butt" d="m131.2075 27.748032l-2.2491608 2.2491665l6.179535 -2.2491665l-6.179535 -2.2491665z" fill-rule="evenodd"/><path fill="#000000" fill-opacity="0.0" d="m138.06168 5.1653543l197.44882 0l0 45.16535l-197.44882 0z" fill-rule="evenodd"/><path stroke="#000000" stroke-width="3.0" stroke-linejoin="round" stroke-linecap="butt" d="m138.06168 5.1653543l197.44882 0l0 45.16535l-197.44882 0z" fill-rule="evenodd"/><path fill="#000000" d="m199.42998 24.23553l-7.0625 -3.546875l7.0625 -3.53125l0 1.125l-4.90625 2.40625l4.90625 2.421875l0 1.125zm8.427704 0l-7.0625 -3.546875l7.0625 -3.53125l0 1.125l-4.90625 2.40625l4.90625 2.421875l0 1.125zm1.9589539 0.3125l0 -7.0625l1.28125 0l0 7.0625l-1.28125 0zm0 -8.34375l0 -1.281249l1.28125 0l0 1.281249l-1.28125 0zm3.8526611 8.34375l0 -7.0625l1.28125 0l0 1.328125q0.484375 -0.71875 1.125 -1.09375q0.65625 -0.390625 1.359375 -0.390625q0.890625 0 1.453125 0.578125q0.5625 0.5625 0.5625 1.5625l0 5.078125l-1.28125 0l0 -4.65625q0 -0.734375 -0.140625 -0.96875q-0.125 -0.234375 -0.359375 -0.359375q-0.234375 -0.140625 -0.5 -0.140625q-0.46875 0 -1.03125 0.296875q-0.546875 0.296875 -1.1875 1.25l0 4.578125l-1.28125 0zm11.427765 0q-0.59375 0.15625 -1.03125 0.15625q-0.953125 0 -1.515625 -0.546875q-0.5625 -0.546875 -0.5625 -1.5625l0 -4.15625l-0.875 0l0 -0.953125l0.875 0l0 -1.28125l1.28125 -0.125l0 1.40625l1.859375 0l0 0.953125l-1.859375 0l0 3.921875q0 0.75 0.28125 1.078125q0.296875 0.3125 0.921875 0.3125q0.25 0 0.625 -0.09375l0 0.890625zm7.016281 -0.234375q-1.296875 0.390625 -2.21875 0.390625q-1.640625 0 -2.59375 -1.109375q-0.9375 -1.109375 -0.9375 -2.609375q0 -1.0 0.421875 -1.890625q0.421875 -0.90625 1.09375 -1.34375q0.671875 -0.4375 1.578125 -0.4375q1.21875 0 1.953125 0.890625q0.734375 0.875 0.734375 2.625l-0.015625 0.390625l-4.453125 0q0.109375 0.9375 0.40625 1.453125q0.296875 0.5 0.796875 0.78125q0.5 0.28125 1.265625 0.28125q0.390625 0 0.765625 -0.0625q0.390625 -0.078125 1.203125 -0.375l0 1.015625zm-4.375 -4.0625l3.109375 0q0 -1.0625 -0.421875 -1.515625q-0.40625 -0.453125 -1.046875 -0.453125q-0.734375 0 -1.15625 0.5q-0.40625 0.484375 -0.484375 1.46875zm6.6129913 4.296875l0 -7.0625l1.28125 0l0 1.328125q0.359375 -0.71875 0.9375 -1.09375q0.59375 -0.390625 1.28125 -0.390625q0.1875 0 0.40625 0.03125l0 1.1875q-0.328125 -0.109375 -0.59375 -0.109375q-0.59375 0 -1.109375 0.375q-0.515625 0.359375 -0.921875 1.078125l0 4.65625l-1.28125 0zm5.687973 0l0 -6.109375l-1.0 0l0 -0.953125l1.0 0l0 -0.84375q0 -0.87499905 0.21875 -1.374999q0.234375 -0.5 0.75 -0.828125q0.515625 -0.328125 1.328125 -0.328125q0.65625 0 1.484375 0.21875l0 1.015625q-0.875 -0.265625 -1.390625 -0.265625q-0.296875 0 -0.546875 0.09375q-0.25 0.09375 -0.40625 0.328125q-0.140625 0.234375 -0.140625 0.99999905l0 0.984375l1.765625 0l0 0.953125l-1.765625 0l0 6.109375l-1.296875 0zm8.306686 -0.890625q-0.5625 0.515625 -1.125 0.78125q-0.5625 0.265625 -1.09375 0.265625q-0.75 0 -1.390625 -0.484375q-0.640625 -0.5 -0.640625 -1.453125q0 -1.03125 0.890625 -1.703125q0.90625 -0.6875 2.875 -0.6875l0.296875 0l0 -0.859375q0 -0.5 -0.140625 -0.734375q-0.125 -0.234375 -0.421875 -0.359375q-0.28125 -0.140625 -0.71875 -0.140625q-1.0 0 -2.171875 0.625l0 -1.0625q1.296875 -0.515625 2.4375 -0.515625q0.625 0 1.140625 0.203125q0.53125 0.1875 0.84375 0.625q0.3125 0.421875 0.3125 1.359375l0 3.203125q0 0.53125 0.078125 0.71875q0.09375 0.1875 0.25 0.28125q0.15625 0.09375 0.359375 0.09375q0.078125 0 0.234375 -0.015625l0.09375 0.703125q-0.4375 0.203125 -0.953125 0.203125q-0.359375 0 -0.6875 -0.21875q-0.328125 -0.234375 -0.46875 -0.828125zm-0.1875 -0.703125l0 -1.828125l-0.40625 -0.015625q-1.015625 0 -1.703125 0.390625q-0.671875 0.390625 -0.671875 1.0625q0 0.46875 0.328125 0.78125q0.34375 0.3125 0.796875 0.3125q0.390625 0 0.8125 -0.171875q0.421875 -0.1875 0.84375 -0.53125zm8.813553 1.375q-1.2343903 0.375 -2.1406403 0.375q-0.953125 0 -1.75 -0.5q-0.78125 -0.515625 -1.1875 -1.34375q-0.390625 -0.84375 -0.390625 -1.890625q0 -1.5625 0.859375 -2.59375q0.875 -1.046875 2.6875 -1.046875q0.828125 0 1.8437653 0.21875l0 1.078125q-1.0781403 -0.3125 -1.7656403 -0.3125q-1.078125 0 -1.625 0.796875q-0.546875 0.796875 -0.546875 1.90625q0 1.1875 0.609375 1.921875q0.609375 0.734375 1.59375 0.734375q0.89064026 0 1.8125153 -0.453125l0 1.109375zm7.1080017 -0.015625q-1.296875 0.390625 -2.21875 0.390625q-1.640625 0 -2.59375 -1.109375q-0.9375 -1.109375 -0.9375 -2.609375q0 -1.0 0.421875 -1.890625q0.421875 -0.90625 1.09375 -1.34375q0.671875 -0.4375 1.578125 -0.4375q1.21875 0 1.953125 0.890625q0.734375 0.875 0.734375 2.625l-0.015625 0.390625l-4.453125 0q0.109375 0.9375 0.40625 1.453125q0.296875 0.5 0.796875 0.78125q0.5 0.28125 1.265625 0.28125q0.390625 0 0.765625 -0.0625q0.390625 -0.078125 1.203125 -0.375l0 1.015625zm-4.375 -4.0625l3.109375 0q0 -1.0625 -0.421875 -1.515625q-0.40625 -0.453125 -1.046875 -0.453125q-0.734375 0 -1.15625 0.5q-0.40625 0.484375 -0.484375 1.46875zm6.0192566 -3.09375l7.0625 3.53125l-7.0625 3.546875l0 -1.125l4.90625 -2.421875l-4.90625 -2.40625l0 -1.125zm8.427704 0l7.0625 3.53125l-7.0625 3.546875l0 -1.125l4.90625 -2.421875l-4.90625 -2.40625l0 -1.125z" fill-rule="nonzero"/><path fill="#000000" d="m192.59048 40.54803l-2.5625 0l-0.4375 -2.453125l-3.765625 0l-1.46875 2.453125l-1.71875 0l5.75 -9.640627l2.5625 0l1.640625 9.640627zm-3.25 -3.96875l-0.578125 -3.421875l-2.046875 3.421875l2.625 0zm13.036346 0.1875q-0.1875 0.90625 -0.5625 1.640625q-0.359375 0.734375 -0.875 1.25q-0.515625 0.5 -1.15625 0.78125q-0.640625 0.265625 -1.359375 0.265625q-0.5625 0 -0.921875 -0.15625q-0.359375 -0.15625 -0.890625 -0.640625l-0.15625 0l-0.453125 0.640625l-2.09375 0l2.1875 -10.281252l2.5625 0l-0.65625 3.062502l-0.28125 1.359375l0.03125 0q0.265625 -0.484375 0.671875 -0.8125q0.40625 -0.34375 0.90625 -0.53125q0.515625 -0.1875 1.046875 -0.1875q0.640625 0 1.109375 0.25q0.46875 0.25 0.71875 0.71875q0.265625 0.453125 0.3125 1.125q0.046875 0.671875 -0.140625 1.515625zm-2.765625 0.171875q0.125 -0.59375 0.078125 -1.015625q-0.046875 -0.4375 -0.265625 -0.65625q-0.203125 -0.21875 -0.578125 -0.21875q-0.671875 0 -1.421875 1.046875l-0.515625 2.40625q0.1875 0.375 0.40625 0.53125q0.21875 0.15625 0.5625 0.15625q0.34375 0 0.703125 -0.28125q0.359375 -0.296875 0.625 -0.8125q0.265625 -0.515625 0.40625 -1.15625zm10.414352 1.375q-0.109375 0.515625 -0.453125 0.96875q-0.328125 0.453125 -0.84375 0.765625q-0.5 0.3125 -1.1875 0.484375q-0.671875 0.171875 -1.453125 0.171875q-0.71875 0 -1.3125 -0.0625q-0.875 -0.09375 -1.65625 -0.3125l0.34375 -1.640625q0.125 0.0625 0.21875 0.09375q0.109375 0.03125 0.234375 0.09375q1.171875 0.390625 2.078125 0.390625q1.140625 0 1.265625 -0.578125q0.03125 -0.15625 -0.015625 -0.265625q-0.15625 -0.21875 -0.78125 -0.453125l-0.484375 -0.203125q-1.390625 -0.578125 -1.734375 -1.265625q-0.09375 -0.1875 -0.109375 -0.484375q-0.015625 -0.3125 0.046875 -0.578125q0.21875 -1.09375 1.234375 -1.6875q1.03125 -0.59375 2.703125 -0.59375q1.15625 0 2.359375 0.28125l-0.359375 1.640625q-0.171875 -0.0625 -0.375 -0.15625q-0.375 -0.125 -0.84375 -0.21875q-0.46875 -0.09375 -0.8125 -0.09375q-1.171875 0 -1.296875 0.578125q-0.046875 0.21875 0.109375 0.359375q0.15625 0.140625 0.59375 0.3125l0.46875 0.171875q1.34375 0.484375 1.78125 0.984375q0.453125 0.484375 0.28125 1.296875zm5.681656 2.171875q-0.5 0.140625 -0.78125 0.171875q-0.28125 0.046875 -0.703125 0.046875q-1.109375 0 -1.703125 -0.40625q-0.421875 -0.3125 -0.515625 -0.765625q-0.078125 -0.46875 0.125 -1.40625l0.71875 -3.359375l-0.71875 0l0.296875 -1.4375l0.71875 0l0.25 -1.140625l2.640625 -0.3125019l-0.3125 1.4531269l1.359375 0l-0.296875 1.4375l-1.359375 0l-0.65625 3.09375q-0.109375 0.46875 -0.109375 0.65625q0 0.1875 0.125 0.359375q0.1875 0.234375 0.65625 0.234375q0.234375 0 0.578125 -0.109375l-0.3125 1.484375zm7.8896637 -5.046875q-0.28125 -0.125 -0.453125 -0.15625q-0.171875 -0.03125 -0.5 -0.03125q-0.5625 0 -1.0 0.21875q-0.4375 0.203125 -0.859375 0.671875l-0.9375 4.40625l-2.5625 0l1.53125 -7.21875l2.5625 0l-0.28125 1.359375l0.03125 0q0.171875 -0.34375 0.546875 -0.671875q0.375 -0.328125 0.875 -0.578125q0.5625 -0.28125 1.21875 -0.28125q0.1875 0 0.296875 0.046875l-0.46875 2.234375zm6.9765625 5.109375q-0.75 0.15625 -1.3125 0.15625q-0.453125 0 -0.796875 -0.078125q-0.328125 -0.078125 -0.5 -0.203125q-0.1875 -0.15625 -0.328125 -0.515625l-0.171875 0q-0.515625 0.453125 -0.953125 0.625q-0.4375 0.171875 -1.015625 0.171875q-0.671875 0 -1.15625 -0.265625q-0.46875 -0.28125 -0.65625 -0.78125q-0.171875 -0.5 -0.03125 -1.140625q0.234375 -1.09375 1.15625 -1.75q0.59375 -0.421875 1.28125 -0.578125q0.703125 -0.171875 1.84375 -0.171875l0.53125 0l0.09375 -0.453125q0.203125 -1.0 -1.078125 -1.0q-0.578125 0 -1.34375 0.203125q-0.5625 0.15625 -1.15625 0.453125l0.34375 -1.609375q0.109375 -0.03125 0.203125 -0.0625q0.109375 -0.03125 0.1875 -0.046875q1.15625 -0.34375 2.421875 -0.34375q3.34375 0 2.859375 2.265625l-0.671875 3.125q-0.125 0.59375 0.28125 0.59375q0.078125 0 0.28125 -0.03125l-0.3125 1.4375zm-2.65625 -2.015625l0.25 -1.15625l-0.515625 0q-1.359375 0 -1.5625 0.953125q-0.078125 0.359375 0.078125 0.59375q0.171875 0.21875 0.53125 0.21875q0.5625 0 1.21875 -0.609375zm10.069672 1.921875q-1.28125 0.25 -2.40625 0.25q-0.515625 0 -0.9375 -0.046875q-0.421875 -0.046875 -0.765625 -0.15625q-0.328125 -0.125 -0.5625 -0.28125q-0.234375 -0.171875 -0.46875 -0.4375q-0.421875 -0.5 -0.546875 -1.234375q-0.109375 -0.734375 0.078125 -1.578125q0.234375 -1.140625 0.90625 -2.015625q0.6875 -0.875 1.71875 -1.328125q1.03125 -0.46875 2.265625 -0.46875q0.96875 0 2.15625 0.328125l-0.359375 1.703125q-1.125 -0.484375 -1.796875 -0.484375q-0.5 0 -0.953125 0.28125q-0.4375 0.265625 -0.75 0.765625q-0.296875 0.484375 -0.4375 1.140625q-0.21875 0.984375 0.171875 1.609375q0.390625 0.625 1.234375 0.625q0.71875 0 1.8125 -0.328125l-0.359375 1.65625zm5.8408813 0.03125q-0.5 0.140625 -0.78125 0.171875q-0.28125 0.046875 -0.703125 0.046875q-1.109375 0 -1.703125 -0.40625q-0.421875 -0.3125 -0.515625 -0.765625q-0.078125 -0.46875 0.125 -1.40625l0.71875 -3.359375l-0.71875 0l0.296875 -1.4375l0.71875 0l0.25 -1.140625l2.640625 -0.3125019l-0.3125 1.4531269l1.359375 0l-0.296875 1.4375l-1.359375 0l-0.65625 3.09375q-0.109375 0.46875 -0.109375 0.65625q0 0.1875 0.125 0.359375q0.1875 0.234375 0.65625 0.234375q0.234375 0 0.578125 -0.109375l-0.3125 1.484375zm12.389664 -4.765625q-0.25 1.15625 -0.796875 2.09375q-0.546875 0.921875 -1.375 1.59375q-0.828125 0.671875 -1.859375 1.03125q-1.015625 0.34375 -2.1875 0.34375q-1.21875 0 -2.140625 -0.34375q-0.90625 -0.34375 -1.453125 -1.015625q-0.546875 -0.671875 -0.703125 -1.59375q-0.15625 -0.9375 0.09375 -2.109375q0.25 -1.171875 0.796875 -2.09375q0.5625 -0.9375 1.390625 -1.59375q0.828125 -0.6562519 1.875 -1.0000019q1.046875 -0.359375 2.21875 -0.359375q1.1875 0 2.078125 0.359375q0.90625 0.34375 1.4375 1.0000019q0.546875 0.65625 0.703125 1.59375q0.15625 0.9375 -0.078125 2.09375zm-2.71875 0q0.125 -0.59375 0.109375 -1.15625q-0.015625 -0.578125 -0.171875 -1.046875q-0.140625 -0.46875 -0.40625 -0.765625q-0.203125 -0.234375 -0.5625 -0.34375q-0.359375 -0.125 -0.734375 -0.125q-0.375 0 -0.78125 0.125q-0.390625 0.109375 -0.6875 0.34375q-0.390625 0.28125 -0.75 0.765625q-0.359375 0.46875 -0.609375 1.03125q-0.25 0.5625 -0.375 1.171875q-0.21875 1.015625 -0.078125 1.8125q0.140625 0.796875 0.59375 1.234375q0.46875 0.421875 1.1875 0.421875q0.875 0 1.53125 -0.484375q0.390625 -0.296875 0.734375 -0.765625q0.359375 -0.46875 0.609375 -1.046875q0.265625 -0.578125 0.390625 -1.171875zm11.770294 1.046875q-0.1875 0.90625 -0.5625 1.640625q-0.359375 0.734375 -0.875 1.25q-0.515625 0.5 -1.15625 0.78125q-0.640625 0.265625 -1.359375 0.265625q-0.5625 0 -0.921875 -0.15625q-0.359375 -0.15625 -0.890625 -0.640625l-0.15625 0l-0.453125 0.640625l-2.09375 0l2.1875 -10.281252l2.5625 0l-0.65625 3.062502l-0.28125 1.359375l0.03125 0q0.265625 -0.484375 0.671875 -0.8125q0.40625 -0.34375 0.90625 -0.53125q0.515625 -0.1875 1.046875 -0.1875q0.640625 0 1.109375 0.25q0.46875 0.25 0.71875 0.71875q0.265625 0.453125 0.3125 1.125q0.046875 0.671875 -0.140625 1.515625zm-2.765625 0.171875q0.125 -0.59375 0.078125 -1.015625q-0.046875 -0.4375 -0.265625 -0.65625q-0.203125 -0.21875 -0.578125 -0.21875q-0.671875 0 -1.421875 1.046875l-0.515625 2.40625q0.1875 0.375 0.40625 0.53125q0.21875 0.15625 0.5625 0.15625q0.34375 0 0.703125 -0.28125q0.359375 -0.296875 0.625 -0.8125q0.265625 -0.515625 0.40625 -1.15625zm7.914337 -4.75l-2.5625 0l0.40625 -1.9218769l2.5625 0l-0.40625 1.9218769zm-1.734375 8.109375q-0.1875 0.890625 -0.46875 1.390625q-0.28125 0.515625 -0.78125 0.890625q-0.3125 0.25 -0.6875 0.40625q-0.359375 0.15625 -0.8125 0.21875q-0.4375 0.078125 -0.9375 0.078125q-0.53125 0 -0.859375 -0.046875q-0.34375 -0.046875 -1.046875 -0.21875l0.34375 -1.578125q0.734375 0.390625 1.421875 0.390625q0.484375 0 0.78125 -0.3125q0.296875 -0.3125 0.4375 -0.96875l1.53125 -7.21875l2.5625 0l-1.484375 6.96875zm8.699951 0.015625q-0.25 0.0625 -0.453125 0.109375q-1.359375 0.296875 -2.578125 0.296875q-0.890625 0 -1.609375 -0.21875q-0.703125 -0.234375 -1.109375 -0.625q-0.5 -0.515625 -0.6875 -1.34375q-0.1875 -0.84375 0 -1.703125q0.171875 -0.8125 0.578125 -1.5q0.421875 -0.6875 1.03125 -1.171875q0.609375 -0.484375 1.375 -0.734375q0.765625 -0.265625 1.625 -0.265625q0.828125 0 1.359375 0.203125q0.53125 0.203125 0.859375 0.625q0.4375 0.59375 0.46875 1.328125q0.015625 0.359375 0 0.640625q-0.015625 0.265625 -0.078125 0.640625q-0.0625 0.359375 -0.1875 0.90625l-4.53125 0q-0.03125 0.3125 -0.03125 0.515625q0.015625 0.1875 0.09375 0.375q0.15625 0.359375 0.53125 0.515625q0.390625 0.15625 1.125 0.15625q0.671875 0 1.125 -0.078125q0.453125 -0.078125 1.453125 -0.375l-0.359375 1.703125zm-1.546875 -4.09375l0.015625 -0.109375q0.171875 -0.8125 0.015625 -1.171875q-0.140625 -0.375 -0.640625 -0.375q-0.359375 0 -0.65625 0.203125q-0.296875 0.1875 -0.515625 0.5625q-0.21875 0.359375 -0.359375 0.890625l2.140625 0zm8.96167 4.234375q-1.28125 0.25 -2.40625 0.25q-0.515625 0 -0.9375 -0.046875q-0.421875 -0.046875 -0.765625 -0.15625q-0.328125 -0.125 -0.5625 -0.28125q-0.234375 -0.171875 -0.46875 -0.4375q-0.421875 -0.5 -0.546875 -1.234375q-0.109375 -0.734375 0.078125 -1.578125q0.234375 -1.140625 0.90625 -2.015625q0.6875 -0.875 1.71875 -1.328125q1.03125 -0.46875 2.265625 -0.46875q0.96875 0 2.15625 0.328125l-0.359375 1.703125q-1.125 -0.484375 -1.796875 -0.484375q-0.5 0 -0.953125 0.28125q-0.4375 0.265625 -0.75 0.765625q-0.296875 0.484375 -0.4375 1.140625q-0.21875 0.984375 0.171875 1.609375q0.390625 0.625 1.234375 0.625q0.71875 0 1.8125 -0.328125l-0.359375 1.65625zm5.8408813 0.03125q-0.5 0.140625 -0.78125 0.171875q-0.28125 0.046875 -0.703125 0.046875q-1.109375 0 -1.703125 -0.40625q-0.421875 -0.3125 -0.515625 -0.765625q-0.078125 -0.46875 0.125 -1.40625l0.71875 -3.359375l-0.71875 0l0.296875 -1.4375l0.71875 0l0.25 -1.140625l2.640625 -0.3125019l-0.3125 1.4531269l1.359375 0l-0.296875 1.4375l-1.359375 0l-0.65625 3.09375q-0.109375 0.46875 -0.109375 0.65625q0 0.1875 0.125 0.359375q0.1875 0.234375 0.65625 0.234375q0.234375 0 0.578125 -0.109375l-0.3125 1.484375z" fill-rule="nonzero"/></g></svg>