<svg version="1.1" viewBox="0.0 0.0 324.0 157.501312335958" fill="none" stroke="none" stroke-linecap="square" stroke-miterlimit="10" xmlns:xlink="http://www.w3.org/1999/xlink" xmlns="http://www.w3.org/2000/svg"><clipPath id="p.0"><path d="m0 0l324.0 0l0 157.50131l-324.0 0l0 -157.50131z" clip-rule="nonzero"/></clipPath><g clip-path="url(#p.0)"><path fill="#000000" fill-opacity="0.0" d="m0 0l324.0 0l0 157.50131l-324.0 0z" fill-rule="evenodd"/><path fill="#000000" fill-opacity="0.0" d="m91.002625 109.69554l23.496063 0l0 29.826767l-23.496063 0z" fill-rule="evenodd"/><path fill="#000000" d="m104.971375 131.49554l-1.171875 0l0 -7.4687576q-0.421875 0.40625 -1.109375 0.8125q-0.6875 0.40625 -1.234375 0.609375l0 -1.140625q0.984375 -0.453125 1.71875 -1.109375q0.734375 -0.671875 1.03125 -1.28125l0.765625 0l0 9.578133z" fill-rule="nonzero"/><path fill="#000000" fill-opacity="0.0" d="m224.51181 47.947506l23.496063 0l0 30.99213l-23.496063 0z" fill-rule="evenodd"/><path fill="#000000" d="m238.48056 69.747505l-1.171875 0l0 -7.46875q-0.421875 0.40625 -1.109375 0.8125q-0.6875 0.40625 -1.234375 0.609375l0 -1.140625q0.984375 -0.453125 1.71875 -1.109375q0.734375 -0.671875 1.03125 -1.28125l0.765625 0l0 9.578125z" fill-rule="nonzero"/><path fill="#000000" fill-opacity="0.0" d="m4.4986877 4.8425198l220.0 0l0 29.826773l-220.0 0z" fill-rule="evenodd"/><path stroke="#000000" stroke-width="3.0" stroke-linejoin="round" stroke-linecap="butt" d="m4.4986877 4.8425198l220.0 0l0 29.826773l-220.0 0z" fill-rule="evenodd"/><path fill="#000000" d="m84.272484 22.087154q0 0.25 -0.109375 0.46875q-0.09375 0.203125 -0.28125 0.359375q-0.203125 0.140625 -0.484375 0.234375q-0.28125 0.078125 -0.640625 0.078125q-0.421875 0 -0.765625 -0.09375q-0.328125 -0.09375 -0.578125 -0.28125q-0.25 -0.203125 -0.390625 -0.5q-0.125 -0.3125 -0.140625 -0.734375l-1.796875 0q0 0.734375 0.28125 1.28125q0.28125 0.546875 0.78125 0.953125q0.5 0.40625 1.1875 0.625q0.703125 0.203125 1.421875 0.203125q0.71875 0 1.328125 -0.171875q0.609375 -0.171875 1.046875 -0.515625q0.453125 -0.328125 0.703125 -0.8125q0.25 -0.484375 0.25 -1.109375q0 -0.71875 -0.34375 -1.265625q-0.328125 -0.5625 -0.875 -0.984375q-0.375 -0.25 -0.828125 -0.4375q-0.4375 -0.203125 -0.921875 -0.34375q-0.453125 -0.125 -0.828125 -0.265625q-0.359375 -0.140625 -0.609375 -0.3125q-0.25 -0.171875 -0.390625 -0.390625q-0.125 -0.21875 -0.125 -0.484375q0 -0.25 0.09375 -0.46875q0.109375 -0.21875 0.296875 -0.375q0.203125 -0.15625 0.484375 -0.234375q0.28125 -0.09375 0.640625 -0.09375q0.40625 0 0.703125 0.109375q0.296875 0.09375 0.5 0.28125q0.1875 0.203125 0.28125 0.46875q0.109375 0.265625 0.125 0.578125l1.78125 0q0 -0.625 -0.25 -1.15625q-0.25 -0.546875 -0.6875 -0.9375q-0.4375 -0.375 -1.0625 -0.59375q-0.609375 -0.21875 -1.359375 -0.21875q-0.703125 0 -1.328125 0.1875q-0.609375 0.1875 -1.046875 0.53125q-0.453125 0.34375 -0.71875 0.84375q-0.25 0.484375 -0.25 1.078125q0 0.515625 0.1875 0.96875q0.203125 0.4375 0.578125 0.796875q0.375 0.375 0.96875 0.6875q0.609375 0.296875 1.390625 0.5q0.5 0.140625 0.84375 0.3125q0.34375 0.15625 0.5625 0.34375q0.203125 0.1875 0.28125 0.40625q0.09375 0.21875 0.09375 0.484375zm3.6388092 -4.578125l0 1.484375l2.0 0l0 4.09375l-2.0 0l0 1.46875l5.734375 0l0 -1.46875l-1.90625 0l0 -5.578125l-3.828125 0zm1.875 -1.796875q0 0.203125 0.0625 0.390625q0.078125 0.171875 0.21875 0.296875q0.140625 0.125 0.328125 0.203125q0.1875 0.078125 0.421875 0.078125q0.484375 0 0.765625 -0.265625q0.28125 -0.28125 0.28125 -0.703125q0 -0.421875 -0.28125 -0.6875q-0.28125 -0.28125 -0.765625 -0.28125q-0.234375 0 -0.421875 0.078125q-0.1875 0.0625 -0.328125 0.1875q-0.140625 0.140625 -0.21875 0.328125q-0.0625 0.171875 -0.0625 0.375zm5.638809 8.84375l1.8125 0l0 -5.0q0.09375 -0.140625 0.203125 -0.25q0.109375 -0.125 0.25 -0.21875q0.15625 -0.109375 0.375 -0.171875q0.21875 -0.0625 0.484375 -0.0625q0.3125 0 0.5625 0.0625q0.25 0.0625 0.421875 0.21875q0.171875 0.15625 0.265625 0.4375q0.09375 0.265625 0.09375 0.671875l0 4.3125l1.8125 0l0 -4.328125q0 -0.78125 -0.1875 -1.3125q-0.171875 -0.53125 -0.484375 -0.875q-0.328125 -0.34375 -0.78125 -0.5q-0.4375 -0.15625 -0.96875 -0.15625q-0.421875 0 -0.796875 0.125q-0.359375 0.109375 -0.671875 0.328125q-0.1875 0.125 -0.34375 0.296875q-0.15625 0.15625 -0.296875 0.359375l-0.109375 -0.984375l-1.640625 0l0 7.046875zm7.810684 -3.578125l0 0.140625q0 0.765625 0.1875 1.421875q0.203125 0.65625 0.578125 1.125q0.375 0.484375 0.890625 0.75q0.53125 0.265625 1.1875 0.265625q0.328125 0 0.609375 -0.078125q0.296875 -0.0625 0.546875 -0.1875q0.15625 -0.09375 0.296875 -0.203125q0.15625 -0.125 0.28125 -0.265625l0 0.40625q0 0.359375 -0.109375 0.640625q-0.09375 0.28125 -0.28125 0.484375q-0.203125 0.203125 -0.515625 0.3125q-0.3125 0.125 -0.703125 0.125q-0.25 0 -0.484375 -0.0625q-0.234375 -0.046875 -0.453125 -0.140625q-0.21875 -0.09375 -0.421875 -0.25q-0.203125 -0.15625 -0.375 -0.359375l-0.8125 1.109375q0.234375 0.296875 0.546875 0.5q0.328125 0.21875 0.671875 0.34375q0.359375 0.140625 0.71875 0.203125q0.375 0.0625 0.6875 0.0625q0.75 0 1.359375 -0.203125q0.625 -0.1875 1.0625 -0.578125q0.4375 -0.375 0.671875 -0.9375q0.25 -0.5625 0.25 -1.28125l0 -6.8125l-1.640625 0l-0.078125 0.671875q-0.125 -0.15625 -0.28125 -0.28125q-0.15625 -0.140625 -0.34375 -0.234375q-0.234375 -0.140625 -0.53125 -0.203125q-0.296875 -0.078125 -0.65625 -0.078125q-0.671875 0 -1.203125 0.265625q-0.515625 0.25 -0.890625 0.734375q-0.375 0.46875 -0.578125 1.140625q-0.1875 0.65625 -0.1875 1.453125zm1.8125 0.140625l0 -0.140625q0 -0.4375 0.09375 -0.828125q0.09375 -0.390625 0.28125 -0.671875q0.1875 -0.296875 0.453125 -0.453125q0.28125 -0.171875 0.671875 -0.171875q0.203125 0 0.375 0.046875q0.1875 0.03125 0.34375 0.109375q0.171875 0.078125 0.3125 0.21875q0.140625 0.140625 0.234375 0.3125l0 2.984375q-0.09375 0.15625 -0.21875 0.296875q-0.125 0.125 -0.28125 0.21875q-0.15625 0.078125 -0.359375 0.125q-0.1875 0.046875 -0.421875 0.046875q-0.375 0 -0.65625 -0.15625q-0.28125 -0.171875 -0.46875 -0.453125q-0.171875 -0.28125 -0.265625 -0.65625q-0.09375 -0.390625 -0.09375 -0.828125zm6.748184 -6.5625l0 1.484375l2.109375 0l0 7.046875l-2.109375 0l0 1.46875l5.953125 0l0 -1.46875l-2.015625 0l0 -8.53125l-3.9375 0zm11.029434 10.125q1.03125 0 1.78125 -0.390625q0.75 -0.390625 1.09375 -0.890625l-0.90625 -0.96875q-0.3125 0.40625 -0.8125 0.609375q-0.5 0.1875 -1.046875 0.1875q-0.375 0 -0.703125 -0.109375q-0.3125 -0.125 -0.546875 -0.328125q-0.25 -0.21875 -0.390625 -0.46875q-0.140625 -0.265625 -0.234375 -0.6875l0 -0.015625l4.78125 0l0 -0.765625q0 -0.78125 -0.21875 -1.421875q-0.21875 -0.640625 -0.625 -1.09375q-0.421875 -0.453125 -1.015625 -0.703125q-0.59375 -0.25 -1.359375 -0.25q-0.734375 0 -1.359375 0.265625q-0.625 0.265625 -1.078125 0.75q-0.453125 0.484375 -0.703125 1.15625q-0.25 0.65625 -0.25 1.46875l0 0.25q0 0.71875 0.25 1.34375q0.265625 0.609375 0.734375 1.078125q0.46875 0.453125 1.125 0.71875q0.671875 0.265625 1.484375 0.265625zm-0.203125 -5.828125q0.34375 0 0.59375 0.109375q0.265625 0.09375 0.453125 0.28125q0.1875 0.1875 0.28125 0.453125q0.109375 0.25 0.109375 0.53125l0 0.140625l-2.96875 0q0.0625 -0.34375 0.1875 -0.625q0.140625 -0.28125 0.34375 -0.484375q0.1875 -0.203125 0.4375 -0.296875q0.25 -0.109375 0.5625 -0.109375zm8.107552 -3.0625l-1.8125 0l0 1.71875l-1.6093674 0l0 1.34375l1.6093674 0l0 3.203125q0 0.6875 0.1875 1.1875q0.1875 0.5 0.515625 0.8125q0.34375 0.328125 0.8125 0.484375q0.46875 0.15625 1.046875 0.15625q0.296875 0 0.609375 -0.03125q0.3125 -0.03125 0.59376526 -0.078125q0.28125 -0.0625 0.53125 -0.140625q0.265625 -0.078125 0.453125 -0.1875l-0.171875 -1.25q-0.125 0.03125 -0.296875 0.078125q-0.171875 0.03125 -0.375 0.046875q-0.203125 0.03125 -0.42189026 0.0625q-0.21875 0.015625 -0.421875 0.015625q-0.28125 0 -0.515625 -0.0625q-0.234375 -0.078125 -0.390625 -0.234375q-0.171875 -0.140625 -0.265625 -0.390625q-0.078125 -0.265625 -0.078125 -0.65625l0 -3.015625l2.6250153 0l0 -1.34375l-2.6250153 0l0 -1.71875zm4.435684 5.1875l0 0.125q0 0.78125 0.21875 1.4375q0.21875 0.65625 0.65625 1.125q0.421875 0.484375 1.03125 0.765625q0.625 0.265625 1.421875 0.265625q0.796875 0 1.40625 -0.265625q0.625 -0.28125 1.046875 -0.765625q0.421875 -0.46875 0.640625 -1.125q0.21875 -0.65625 0.21875 -1.4375l0 -0.125q0 -0.78125 -0.21875 -1.421875q-0.21875 -0.65625 -0.640625 -1.140625q-0.4375 -0.484375 -1.0625 -0.75q-0.609375 -0.28125 -1.40625 -0.28125q-0.78125 0 -1.40625 0.28125q-0.609375 0.265625 -1.03125 0.75q-0.4375 0.484375 -0.65625 1.140625q-0.21875 0.640625 -0.21875 1.421875zm1.8125 0.125l0 -0.125q0 -0.4375 0.078125 -0.8125q0.09375 -0.390625 0.265625 -0.6875q0.1875 -0.296875 0.46875 -0.453125q0.28125 -0.171875 0.6875 -0.171875q0.421875 0 0.703125 0.171875q0.28125 0.15625 0.46875 0.453125q0.171875 0.296875 0.25 0.6875q0.09375 0.375 0.09375 0.8125l0 0.125q0 0.453125 -0.09375 0.84375q-0.078125 0.375 -0.25 0.65625q-0.1875 0.296875 -0.46875 0.46875q-0.28125 0.171875 -0.6875 0.171875q-0.40625 0 -0.703125 -0.171875q-0.28125 -0.171875 -0.46875 -0.46875q-0.171875 -0.28125 -0.265625 -0.65625q-0.078125 -0.390625 -0.078125 -0.84375zm6.4356995 3.453125l1.8125 0l0 -5.0q0.09375 -0.140625 0.203125 -0.25q0.109375 -0.125 0.25 -0.21875q0.15625 -0.109375 0.375 -0.171875q0.21875 -0.0625 0.484375 -0.0625q0.3125 0 0.5625 0.0625q0.25 0.0625 0.421875 0.21875q0.171875 0.15625 0.265625 0.4375q0.09375 0.265625 0.09375 0.671875l0 4.3125l1.8125 0l0 -4.328125q0 -0.78125 -0.1875 -1.3125q-0.171875 -0.53125 -0.484375 -0.875q-0.328125 -0.34375 -0.78125 -0.5q-0.4375 -0.15625 -0.96875 -0.15625q-0.421875 0 -0.796875 0.125q-0.359375 0.109375 -0.671875 0.328125q-0.1875 0.125 -0.34375 0.296875q-0.15625 0.15625 -0.296875 0.359375l-0.109375 -0.984375l-1.640625 0l0 7.046875z" fill-rule="nonzero"/><path fill="#000000" fill-opacity="0.0" d="m4.4986877 59.23622l220.0 0l0 45.196846l-220.0 0z" fill-rule="evenodd"/><path stroke="#000000" stroke-width="2.0" stroke-linejoin="round" stroke-linecap="butt" d="m4.4986877 59.23622l220.0 0l0 45.196846l-220.0 0z" fill-rule="evenodd"/><path fill="#000000" d="m15.264313 76.073395l0 -0.890625l-4.484375 0l0 0.890625l4.484375 0zm14.121094 1.125q0 0.34375 -0.15625 0.609375q-0.140625 0.25 -0.390625 0.421875q-0.234375 0.15625 -0.546875 0.25q-0.3125 0.078125 -0.625 0.078125q-0.390625 0 -0.734375 -0.109375q-0.328125 -0.109375 -0.59375 -0.328125q-0.25 -0.21875 -0.421875 -0.515625q-0.15625 -0.3125 -0.21875 -0.71875l-1.109375 0q0.015625 0.5625 0.234375 1.015625q0.234375 0.4375 0.625 0.765625q0.4375 0.390625 1.015625 0.609375q0.59375 0.203125 1.203125 0.203125q0.515625 0 1.015625 -0.140625q0.515625 -0.15625 0.921875 -0.4375q0.40625 -0.28125 0.65625 -0.703125q0.25 -0.4375 0.25 -1.015625q0 -0.5625 -0.234375 -1.0q-0.234375 -0.4375 -0.625 -0.734375q-0.390625 -0.3125 -0.875 -0.515625q-0.46875 -0.21875 -0.9375 -0.359375q-0.28125 -0.09375 -0.609375 -0.203125q-0.328125 -0.125 -0.609375 -0.296875q-0.28125 -0.1875 -0.46875 -0.4375q-0.171875 -0.25 -0.171875 -0.625q0 -0.34375 0.125 -0.59375q0.140625 -0.265625 0.375 -0.4375q0.234375 -0.171875 0.53125 -0.25q0.296875 -0.09375 0.609375 -0.09375q0.390625 0 0.6875 0.125q0.3125 0.109375 0.53125 0.328125q0.21875 0.21875 0.359375 0.515625q0.140625 0.296875 0.1875 0.671875l1.109375 0q-0.015625 -0.578125 -0.265625 -1.046875q-0.234375 -0.484375 -0.625 -0.828125q-0.40625 -0.328125 -0.921875 -0.515625q-0.515625 -0.1875 -1.0625 -0.1875q-0.5 0 -1.0 0.15625q-0.5 0.15625 -0.890625 0.453125q-0.390625 0.3125 -0.640625 0.75q-0.25 0.421875 -0.25 0.96875q0 0.5625 0.25 0.96875q0.25 0.40625 0.625 0.703125q0.390625 0.296875 0.84375 0.5q0.46875 0.203125 0.921875 0.359375q0.3125 0.09375 0.640625 0.21875q0.34375 0.125 0.625 0.296875q0.28125 0.1875 0.453125 0.46875q0.1875 0.265625 0.1875 0.65625zm2.9042969 -4.1875l0 0.953125l2.15625 0l0 4.453125l-2.15625 0l0 0.9375l5.3125 0l0 -0.9375l-2.0625 0l0 -5.40625l-3.25 0zm2.015625 -1.65625q0 0.265625 0.15625 0.4375q0.171875 0.171875 0.5 0.171875q0.3125 0 0.46875 -0.171875q0.171875 -0.171875 0.171875 -0.4375q0 -0.15625 -0.046875 -0.265625q-0.046875 -0.125 -0.140625 -0.21875q-0.0625 -0.078125 -0.1875 -0.109375q-0.109375 -0.046875 -0.265625 -0.046875q-0.15625 0 -0.28125 0.046875q-0.109375 0.03125 -0.1875 0.109375q-0.09375 0.09375 -0.140625 0.21875q-0.046875 0.125 -0.046875 0.265625zm5.013672 8.0l1.09375 0l0 -4.546875q0.109375 -0.203125 0.25 -0.375q0.15625 -0.171875 0.328125 -0.296875q0.21875 -0.15625 0.46875 -0.234375q0.265625 -0.078125 0.5625 -0.078125q0.34375 0 0.609375 0.078125q0.265625 0.078125 0.453125 0.265625q0.1875 0.171875 0.28125 0.46875q0.09375 0.296875 0.09375 0.71875l0 4.0l1.078125 0l0 -4.03125q0 -0.625 -0.15625 -1.078125q-0.140625 -0.46875 -0.4375 -0.765625q-0.28125 -0.296875 -0.6875 -0.4375q-0.40625 -0.140625 -0.90625 -0.140625q-0.375 0 -0.703125 0.109375q-0.328125 0.09375 -0.609375 0.28125q-0.1875 0.125 -0.359375 0.296875q-0.171875 0.15625 -0.3125 0.359375l-0.0625 -0.9375l-0.984375 0l0 6.34375zm7.013672 -3.21875l0 0.125q0 0.671875 0.171875 1.265625q0.171875 0.578125 0.5 1.015625q0.328125 0.4375 0.796875 0.6875q0.46875 0.25 1.046875 0.25q0.34375 0 0.640625 -0.078125q0.296875 -0.078125 0.546875 -0.21875q0.15625 -0.078125 0.296875 -0.1875q0.140625 -0.125 0.265625 -0.265625l0 0.546875q0 0.40625 -0.125 0.71875q-0.109375 0.328125 -0.328125 0.53125q-0.234375 0.21875 -0.546875 0.328125q-0.296875 0.109375 -0.6875 0.109375q-0.21875 0 -0.4375 -0.046875q-0.21875 -0.03125 -0.4375 -0.140625q-0.203125 -0.09375 -0.421875 -0.265625q-0.203125 -0.171875 -0.40625 -0.40625l-0.5625 0.65625q0.21875 0.3125 0.515625 0.515625q0.296875 0.21875 0.625 0.328125q0.328125 0.140625 0.640625 0.1875q0.3125 0.0625 0.5625 0.0625q0.59375 0 1.078125 -0.1875q0.5 -0.171875 0.859375 -0.5q0.359375 -0.34375 0.546875 -0.828125q0.203125 -0.484375 0.203125 -1.125l0 -6.203125l-0.984375 0l-0.046875 0.6875q-0.125 -0.140625 -0.25 -0.25q-0.125 -0.125 -0.265625 -0.203125q-0.25 -0.171875 -0.578125 -0.25q-0.3125 -0.09375 -0.6875 -0.09375q-0.59375 0 -1.0625 0.234375q-0.46875 0.234375 -0.796875 0.671875q-0.328125 0.421875 -0.5 1.015625q-0.171875 0.59375 -0.171875 1.3125zm1.078125 0.125l0 -0.125q0 -0.46875 0.09375 -0.890625q0.09375 -0.421875 0.3125 -0.734375q0.203125 -0.3125 0.53125 -0.5q0.328125 -0.1875 0.78125 -0.1875q0.265625 0 0.484375 0.0625q0.234375 0.0625 0.40625 0.1875q0.1875 0.125 0.328125 0.296875q0.140625 0.15625 0.25 0.34375l0 2.90625q-0.109375 0.203125 -0.25 0.375q-0.140625 0.171875 -0.3125 0.296875q-0.1875 0.125 -0.421875 0.203125q-0.21875 0.0625 -0.5 0.0625q-0.453125 0 -0.78125 -0.1875q-0.3125 -0.1875 -0.515625 -0.5q-0.21875 -0.328125 -0.3125 -0.734375q-0.09375 -0.421875 -0.09375 -0.875zm6.482422 -5.90625l0 0.9375l2.15625 0l0 7.125l-2.15625 0l0 0.9375l5.3125 0l0 -0.9375l-2.0625 0l0 -8.0625l-3.25 0zm9.841797 9.125q0.921875 0 1.546875 -0.375q0.625 -0.375 0.953125 -0.859375l-0.671875 -0.515625q-0.296875 0.390625 -0.75 0.625q-0.453125 0.234375 -1.03125 0.234375q-0.4375 0 -0.796875 -0.15625q-0.359375 -0.171875 -0.625 -0.46875q-0.25 -0.265625 -0.390625 -0.609375q-0.140625 -0.359375 -0.1875 -0.8125l0 -0.046875l4.53125 0l0 -0.484375q0 -0.671875 -0.171875 -1.234375q-0.15625 -0.5625 -0.5 -0.984375q-0.34375 -0.421875 -0.859375 -0.65625q-0.515625 -0.234375 -1.1875 -0.234375q-0.546875 0 -1.078125 0.21875q-0.515625 0.21875 -0.921875 0.640625q-0.40625 0.421875 -0.65625 1.03125q-0.234375 0.59375 -0.234375 1.375l0 0.234375q0 0.671875 0.21875 1.234375q0.21875 0.5625 0.625 0.96875q0.390625 0.40625 0.953125 0.640625q0.5625 0.234375 1.234375 0.234375zm-0.140625 -5.6875q0.40625 0 0.703125 0.15625q0.3125 0.140625 0.515625 0.390625q0.1875 0.25 0.296875 0.59375q0.125 0.328125 0.125 0.625l0 0.046875l-3.421875 0q0.0625 -0.4375 0.21875 -0.765625q0.171875 -0.34375 0.40625 -0.578125q0.234375 -0.234375 0.53125 -0.34375q0.296875 -0.125 0.625 -0.125zm7.107422 -2.3125l-1.09375 0l0 1.53125l-1.671875 0l0 0.84375l1.671875 0l0 3.4375q0 0.59375 0.15625 1.015625q0.15625 0.40625 0.421875 0.65625q0.265625 0.265625 0.625 0.390625q0.375 0.125 0.796875 0.125q0.25 0 0.5 -0.03125q0.265625 -0.015625 0.484375 -0.0625q0.234375 -0.046875 0.421875 -0.109375q0.203125 -0.0625 0.328125 -0.140625l-0.140625 -0.765625q-0.109375 0.015625 -0.265625 0.046875q-0.15625 0.03125 -0.328125 0.0625q-0.171875 0.03125 -0.359375 0.0625q-0.1875 0.015625 -0.375 0.015625q-0.234375 0 -0.453125 -0.0625q-0.203125 -0.0625 -0.375 -0.203125q-0.15625 -0.140625 -0.25 -0.375q-0.09375 -0.25 -0.09375 -0.625l0 -3.4375l2.40625 0l0 -0.84375l-2.40625 0l0 -1.53125zm4.326172 4.640625l0 0.140625q0 0.671875 0.1875 1.265625q0.203125 0.578125 0.578125 1.015625q0.375 0.4375 0.90625 0.6875q0.546875 0.25 1.21875 0.25q0.65625 0 1.1875 -0.25q0.546875 -0.25 0.921875 -0.6875q0.359375 -0.4375 0.5625 -1.015625q0.203125 -0.59375 0.203125 -1.265625l0 -0.140625q0 -0.6875 -0.203125 -1.265625q-0.203125 -0.59375 -0.5625 -1.03125q-0.375 -0.421875 -0.921875 -0.671875q-0.53125 -0.25 -1.203125 -0.25q-0.671875 0 -1.203125 0.25q-0.53125 0.25 -0.90625 0.671875q-0.375 0.4375 -0.578125 1.03125q-0.1875 0.578125 -0.1875 1.265625zm1.078125 0.140625l0 -0.140625q0 -0.453125 0.109375 -0.875q0.109375 -0.4375 0.34375 -0.75q0.21875 -0.328125 0.546875 -0.515625q0.34375 -0.1875 0.796875 -0.1875q0.453125 0 0.78125 0.1875q0.34375 0.1875 0.578125 0.515625q0.21875 0.3125 0.328125 0.75q0.109375 0.421875 0.109375 0.875l0 0.140625q0 0.46875 -0.109375 0.890625q-0.109375 0.421875 -0.328125 0.75q-0.234375 0.3125 -0.578125 0.5q-0.328125 0.1875 -0.765625 0.1875q-0.453125 0 -0.796875 -0.1875q-0.34375 -0.1875 -0.5625 -0.5q-0.234375 -0.328125 -0.34375 -0.75q-0.109375 -0.421875 -0.109375 -0.890625zm6.419922 3.09375l1.09375 0l0 -4.546875q0.109375 -0.203125 0.25 -0.375q0.15625 -0.171875 0.328125 -0.296875q0.21875 -0.15625 0.46875 -0.234375q0.265625 -0.078125 0.5625 -0.078125q0.34375 0 0.609375 0.078125q0.265625 0.078125 0.453125 0.265625q0.1875 0.171875 0.28125 0.46875q0.09375 0.296875 0.09375 0.71875l0 4.0l1.078125 0l0 -4.03125q0 -0.625 -0.15625 -1.078125q-0.140625 -0.46875 -0.4375 -0.765625q-0.28125 -0.296875 -0.6875 -0.4375q-0.40625 -0.140625 -0.90625 -0.140625q-0.375 0 -0.703125 0.109375q-0.328125 0.09375 -0.609375 0.28125q-0.1875 0.125 -0.359375 0.296875q-0.171875 0.15625 -0.3125 0.359375l-0.0625 -0.9375l-0.984375 0l0 6.34375zm8.279297 -3.46875l0 0.0625q0 0.84375 0.125 1.578125q0.140625 0.734375 0.359375 1.359375q0.21875 0.640625 0.5 1.15625q0.296875 0.515625 0.625 0.921875q0.3125 0.40625 0.640625 0.6875q0.328125 0.296875 0.609375 0.453125l0.234375 -0.65625q-0.234375 -0.1875 -0.484375 -0.46875q-0.234375 -0.265625 -0.453125 -0.625q-0.21875 -0.359375 -0.421875 -0.828125q-0.1875 -0.46875 -0.34375 -1.015625q-0.140625 -0.546875 -0.234375 -1.171875q-0.078125 -0.640625 -0.078125 -1.375l0 -0.078125q0 -0.765625 0.09375 -1.421875q0.09375 -0.671875 0.25 -1.21875q0.15625 -0.609375 0.40625 -1.125q0.25 -0.515625 0.515625 -0.890625q0.1875 -0.25 0.375 -0.4375q0.1875 -0.203125 0.375 -0.34375l-0.234375 -0.71875q-0.28125 0.15625 -0.609375 0.453125q-0.328125 0.28125 -0.640625 0.6875q-0.328125 0.40625 -0.625 0.9375q-0.28125 0.515625 -0.5 1.140625q-0.21875 0.625 -0.359375 1.375q-0.125 0.734375 -0.125 1.5625zm10.076172 0.0625l0 -0.0625q0 -0.890625 -0.140625 -1.609375q-0.125 -0.71875 -0.34375 -1.328125q-0.21875 -0.640625 -0.5 -1.140625q-0.28125 -0.515625 -0.609375 -0.9375q-0.328125 -0.40625 -0.65625 -0.6875q-0.328125 -0.296875 -0.609375 -0.453125l-0.234375 0.65625q0.1875 0.15625 0.390625 0.390625q0.21875 0.21875 0.40625 0.515625q0.25 0.390625 0.484375 0.90625q0.25 0.5 0.421875 1.15625q0.109375 0.4375 0.203125 1.09375q0.109375 0.640625 0.109375 1.4375l0 0.078125q0 0.6875 -0.078125 1.3125q-0.078125 0.609375 -0.203125 1.140625q-0.140625 0.5625 -0.34375 1.03125q-0.1875 0.484375 -0.40625 0.875q-0.234375 0.375 -0.484375 0.65625q-0.25 0.28125 -0.5 0.46875l0.234375 0.65625q0.28125 -0.15625 0.609375 -0.453125q0.328125 -0.28125 0.65625 -0.6875q0.3125 -0.40625 0.59375 -0.921875q0.296875 -0.515625 0.515625 -1.15625q0.234375 -0.625 0.359375 -1.359375q0.125 -0.734375 0.125 -1.578125z" fill-rule="nonzero"/><path fill="#000000" d="m13.654938 88.77652l0 -2.484375l-1.078125 0l0 2.484375l-2.375 0l0 1.078125l2.375 0l0 2.640625l1.078125 0l0 -2.640625l2.390625 0l0 -1.078125l-2.390625 0zm11.074219 1.359375l0 0.125q0 0.671875 0.171875 1.265625q0.171875 0.578125 0.5 1.015625q0.328125 0.4375 0.796875 0.6875q0.46875 0.25 1.046875 0.25q0.34375 0 0.640625 -0.078125q0.296875 -0.078125 0.546875 -0.21875q0.15625 -0.078125 0.296875 -0.1875q0.140625 -0.125 0.265625 -0.265625l0 0.546875q0 0.40625 -0.125 0.71875q-0.109375 0.328125 -0.328125 0.53125q-0.234375 0.21875 -0.546875 0.328125q-0.296875 0.109375 -0.6875 0.109375q-0.21875 0 -0.4375 -0.046875q-0.21875 -0.03125 -0.4375 -0.140625q-0.203125 -0.09375 -0.421875 -0.265625q-0.203125 -0.171875 -0.40625 -0.40625l-0.5625 0.65625q0.21875 0.3125 0.515625 0.515625q0.296875 0.21875 0.625 0.328125q0.328125 0.140625 0.640625 0.1875q0.3125 0.0625 0.5625 0.0625q0.59375 0 1.078125 -0.1875q0.5 -0.171875 0.859375 -0.5q0.359375 -0.34375 0.546875 -0.828125q0.203125 -0.484375 0.203125 -1.125l0 -6.203125l-0.984375 0l-0.046875 0.6875q-0.125 -0.140625 -0.25 -0.25q-0.125 -0.125 -0.265625 -0.203125q-0.25 -0.171875 -0.578125 -0.25q-0.3125 -0.09375 -0.6875 -0.09375q-0.59375 0 -1.0625 0.234375q-0.46875 0.234375 -0.796875 0.671875q-0.328125 0.421875 -0.5 1.015625q-0.171875 0.59375 -0.171875 1.3125zm1.078125 0.125l0 -0.125q0 -0.46875 0.09375 -0.890625q0.09375 -0.421875 0.3125 -0.734375q0.203125 -0.3125 0.53125 -0.5q0.328125 -0.1875 0.78125 -0.1875q0.265625 0 0.484375 0.0625q0.234375 0.0625 0.40625 0.1875q0.1875 0.125 0.328125 0.296875q0.140625 0.15625 0.25 0.34375l0 2.90625q-0.109375 0.203125 -0.25 0.375q-0.140625 0.171875 -0.3125 0.296875q-0.1875 0.125 -0.421875 0.203125q-0.21875 0.0625 -0.5 0.0625q-0.453125 0 -0.78125 -0.1875q-0.3125 -0.1875 -0.515625 -0.5q-0.21875 -0.328125 -0.3125 -0.734375q-0.09375 -0.421875 -0.09375 -0.875zm9.123047 3.21875q0.921875 0 1.546875 -0.375q0.625 -0.375 0.953125 -0.859375l-0.671875 -0.515625q-0.296875 0.390625 -0.75 0.625q-0.453125 0.234375 -1.03125 0.234375q-0.4375 0 -0.796875 -0.15625q-0.359375 -0.171875 -0.625 -0.46875q-0.25 -0.265625 -0.390625 -0.609375q-0.140625 -0.359375 -0.1875 -0.8125l0 -0.046875l4.53125 0l0 -0.484375q0 -0.671875 -0.171875 -1.234375q-0.15625 -0.5625 -0.5 -0.984375q-0.34375 -0.421875 -0.859375 -0.65625q-0.515625 -0.234375 -1.1875 -0.234375q-0.546875 0 -1.078125 0.21875q-0.515625 0.21875 -0.921875 0.640625q-0.40625 0.421875 -0.65625 1.03125q-0.234375 0.59375 -0.234375 1.375l0 0.234375q0 0.671875 0.21875 1.234375q0.21875 0.5625 0.625 0.96875q0.390625 0.40625 0.953125 0.640625q0.5625 0.234375 1.234375 0.234375zm-0.140625 -5.6875q0.40625 0 0.703125 0.15625q0.3125 0.140625 0.515625 0.390625q0.1875 0.25 0.296875 0.59375q0.125 0.328125 0.125 0.625l0 0.046875l-3.421875 0q0.0625 -0.4375 0.21875 -0.765625q0.171875 -0.34375 0.40625 -0.578125q0.234375 -0.234375 0.53125 -0.34375q0.296875 -0.125 0.625 -0.125zm7.107422 -2.3125l-1.09375 0l0 1.53125l-1.671875 0l0 0.84375l1.671875 0l0 3.4375q0 0.59375 0.15625 1.015625q0.15625 0.40625 0.421875 0.65625q0.265625 0.265625 0.625 0.390625q0.375 0.125 0.796875 0.125q0.25 0 0.5 -0.03125q0.265625 -0.015625 0.484375 -0.0625q0.234375 -0.046875 0.421875 -0.109375q0.203125 -0.0625 0.328125 -0.140625l-0.140625 -0.765625q-0.109375 0.015625 -0.265625 0.046875q-0.15625 0.03125 -0.328125 0.0625q-0.171875 0.03125 -0.359375 0.0625q-0.1875 0.015625 -0.375 0.015625q-0.234375 0 -0.453125 -0.0625q-0.203125 -0.0625 -0.375 -0.203125q-0.15625 -0.140625 -0.25 -0.375q-0.09375 -0.25 -0.09375 -0.625l0 -3.4375l2.40625 0l0 -0.84375l-2.40625 0l0 -1.53125zm4.623047 -0.65625l0 0.9375l2.0 0l0 6.65625l-2.0 0l0 0.9375l5.15625 0l0 -0.9375l-2.046875 0l0 -6.65625l2.046875 0l0 -0.9375l-5.15625 0zm7.201172 8.53125l1.09375 0l0 -4.546875q0.109375 -0.203125 0.25 -0.375q0.15625 -0.171875 0.328125 -0.296875q0.21875 -0.15625 0.46875 -0.234375q0.265625 -0.078125 0.5625 -0.078125q0.34375 0 0.609375 0.078125q0.265625 0.078125 0.453125 0.265625q0.1875 0.171875 0.28125 0.46875q0.09375 0.296875 0.09375 0.71875l0 4.0l1.078125 0l0 -4.03125q0 -0.625 -0.15625 -1.078125q-0.140625 -0.46875 -0.4375 -0.765625q-0.28125 -0.296875 -0.6875 -0.4375q-0.40625 -0.140625 -0.90625 -0.140625q-0.375 0 -0.703125 0.109375q-0.328125 0.09375 -0.609375 0.28125q-0.1875 0.125 -0.359375 0.296875q-0.171875 0.15625 -0.3125 0.359375l-0.0625 -0.9375l-0.984375 0l0 6.34375zm11.419922 -1.6875q0 0.15625 -0.0625 0.296875q-0.0625 0.125 -0.171875 0.234375q-0.171875 0.1875 -0.5 0.296875q-0.328125 0.09375 -0.75 0.09375q-0.28125 0 -0.5625 -0.046875q-0.28125 -0.0625 -0.515625 -0.203125q-0.234375 -0.140625 -0.390625 -0.375q-0.140625 -0.234375 -0.171875 -0.5625l-1.078125 0q0 0.40625 0.171875 0.78125q0.1875 0.375 0.546875 0.65625q0.34375 0.28125 0.84375 0.46875q0.5 0.171875 1.15625 0.171875q0.5625 0 1.03125 -0.140625q0.46875 -0.140625 0.8125 -0.390625q0.34375 -0.234375 0.53125 -0.578125q0.1875 -0.359375 0.1875 -0.78125q0 -0.390625 -0.171875 -0.6875q-0.15625 -0.296875 -0.46875 -0.53125q-0.328125 -0.21875 -0.796875 -0.375q-0.453125 -0.15625 -1.03125 -0.28125q-0.453125 -0.09375 -0.75 -0.1875q-0.28125 -0.09375 -0.453125 -0.203125q-0.171875 -0.125 -0.25 -0.265625q-0.0625 -0.15625 -0.0625 -0.34375q0 -0.171875 0.078125 -0.34375q0.09375 -0.171875 0.265625 -0.296875q0.171875 -0.140625 0.4375 -0.203125q0.265625 -0.078125 0.609375 -0.078125q0.328125 0 0.59375 0.09375q0.265625 0.09375 0.453125 0.234375q0.1875 0.15625 0.296875 0.359375q0.109375 0.1875 0.109375 0.390625l1.078125 0q0 -0.40625 -0.1875 -0.765625q-0.171875 -0.359375 -0.5 -0.640625q-0.328125 -0.265625 -0.796875 -0.40625q-0.46875 -0.15625 -1.046875 -0.15625q-0.546875 0 -1.0 0.140625q-0.453125 0.140625 -0.78125 0.40625q-0.328125 0.25 -0.515625 0.59375q-0.171875 0.328125 -0.171875 0.71875q0 0.390625 0.171875 0.6875q0.171875 0.296875 0.5 0.5q0.3125 0.234375 0.75 0.390625q0.453125 0.15625 1.0 0.265625q0.453125 0.09375 0.75 0.203125q0.296875 0.109375 0.484375 0.234375q0.171875 0.125 0.25 0.28125q0.078125 0.15625 0.078125 0.34375zm5.560547 -6.1875l-1.09375 0l0 1.53125l-1.671875 0l0 0.84375l1.671875 0l0 3.4375q0 0.59375 0.15625 1.015625q0.15625 0.40625 0.421875 0.65625q0.265625 0.265625 0.625 0.390625q0.375 0.125 0.796875 0.125q0.25 0 0.5 -0.03125q0.265625 -0.015625 0.484375 -0.0625q0.234375 -0.046875 0.421875 -0.109375q0.203125 -0.0625 0.328125 -0.140625l-0.140625 -0.765625q-0.109375 0.015625 -0.265625 0.046875q-0.15625 0.03125 -0.328125 0.0625q-0.171875 0.03125 -0.359375 0.0625q-0.1875 0.015625 -0.375 0.015625q-0.234375 0 -0.453125 -0.0625q-0.203125 -0.0625 -0.375 -0.203125q-0.15625 -0.140625 -0.25 -0.375q-0.09375 -0.25 -0.09375 -0.625l0 -3.4375l2.40625 0l0 -0.84375l-2.40625 0l0 -1.53125zm8.794922 7.875l1.125 0l0 -0.09375q-0.09375 -0.265625 -0.15625 -0.609375q-0.0625 -0.359375 -0.0625 -0.6875l0 -2.9375q0 -0.53125 -0.203125 -0.921875q-0.1875 -0.40625 -0.515625 -0.6875q-0.34375 -0.25 -0.8125 -0.375q-0.453125 -0.140625 -1.0 -0.140625q-0.578125 0 -1.046875 0.171875q-0.46875 0.15625 -0.796875 0.421875q-0.328125 0.265625 -0.5 0.609375q-0.171875 0.328125 -0.171875 0.671875l1.09375 0q0 -0.203125 0.09375 -0.390625q0.09375 -0.1875 0.265625 -0.3125q0.171875 -0.140625 0.421875 -0.21875q0.265625 -0.078125 0.59375 -0.078125q0.34375 0 0.609375 0.09375q0.28125 0.078125 0.484375 0.234375q0.1875 0.15625 0.296875 0.390625q0.109375 0.234375 0.109375 0.515625l0 0.5l-1.1875 0q-0.65625 0 -1.203125 0.125q-0.53125 0.125 -0.90625 0.390625q-0.390625 0.265625 -0.59375 0.65625q-0.203125 0.390625 -0.203125 0.90625q0 0.40625 0.140625 0.75q0.15625 0.34375 0.453125 0.59375q0.28125 0.25 0.6875 0.40625q0.40625 0.140625 0.90625 0.140625q0.3125 0 0.578125 -0.078125q0.28125 -0.0625 0.53125 -0.171875q0.234375 -0.109375 0.4375 -0.25q0.203125 -0.15625 0.375 -0.3125q0.015625 0.1875 0.046875 0.375q0.046875 0.1875 0.109375 0.3125zm-1.921875 -0.828125q-0.3125 0 -0.5625 -0.078125q-0.234375 -0.078125 -0.390625 -0.234375q-0.15625 -0.140625 -0.234375 -0.328125q-0.078125 -0.203125 -0.078125 -0.4375q0 -0.25 0.09375 -0.4375q0.09375 -0.203125 0.265625 -0.34375q0.25 -0.203125 0.65625 -0.296875q0.421875 -0.09375 0.984375 -0.09375l1.015625 0l0 1.28125q-0.09375 0.1875 -0.265625 0.359375q-0.15625 0.171875 -0.390625 0.3125q-0.21875 0.140625 -0.5 0.21875q-0.265625 0.078125 -0.59375 0.078125zm4.951172 0.828125l1.09375 0l0 -4.546875q0.109375 -0.203125 0.25 -0.375q0.15625 -0.171875 0.328125 -0.296875q0.21875 -0.15625 0.46875 -0.234375q0.265625 -0.078125 0.5625 -0.078125q0.34375 0 0.609375 0.078125q0.265625 0.078125 0.453125 0.265625q0.1875 0.171875 0.28125 0.46875q0.09375 0.296875 0.09375 0.71875l0 4.0l1.078125 0l0 -4.03125q0 -0.625 -0.15625 -1.078125q-0.140625 -0.46875 -0.4375 -0.765625q-0.28125 -0.296875 -0.6875 -0.4375q-0.40625 -0.140625 -0.90625 -0.140625q-0.375 0 -0.703125 0.109375q-0.328125 0.09375 -0.609375 0.28125q-0.1875 0.125 -0.359375 0.296875q-0.171875 0.15625 -0.3125 0.359375l-0.0625 -0.9375l-0.984375 0l0 6.34375zm9.904297 -0.765625q-0.5 0 -0.84375 -0.203125q-0.34375 -0.203125 -0.546875 -0.53125q-0.21875 -0.3125 -0.3125 -0.71875q-0.09375 -0.40625 -0.09375 -0.828125l0 -0.25q0 -0.40625 0.09375 -0.8125q0.09375 -0.40625 0.3125 -0.734375q0.203125 -0.3125 0.546875 -0.515625q0.34375 -0.203125 0.84375 -0.203125q0.328125 0 0.609375 0.109375q0.296875 0.109375 0.5 0.296875q0.203125 0.203125 0.3125 0.453125q0.125 0.25 0.140625 0.546875l1.015625 0q0 -0.484375 -0.203125 -0.90625q-0.1875 -0.421875 -0.515625 -0.734375q-0.34375 -0.296875 -0.828125 -0.46875q-0.46875 -0.1875 -1.03125 -0.1875q-0.71875 0 -1.265625 0.265625q-0.53125 0.25 -0.890625 0.671875q-0.359375 0.453125 -0.546875 1.03125q-0.171875 0.5625 -0.171875 1.1875l0 0.25q0 0.625 0.171875 1.203125q0.1875 0.578125 0.546875 1.0q0.359375 0.4375 0.890625 0.703125q0.546875 0.265625 1.265625 0.265625q0.5 0 0.96875 -0.171875q0.46875 -0.1875 0.828125 -0.46875q0.34375 -0.296875 0.5625 -0.671875q0.21875 -0.390625 0.21875 -0.8125l-1.015625 0q-0.015625 0.265625 -0.15625 0.5q-0.125 0.21875 -0.34375 0.375q-0.203125 0.171875 -0.484375 0.265625q-0.28125 0.09375 -0.578125 0.09375zm7.310547 0.890625q0.921875 0 1.546875 -0.375q0.625 -0.375 0.953125 -0.859375l-0.671875 -0.515625q-0.296875 0.390625 -0.75 0.625q-0.453125 0.234375 -1.03125 0.234375q-0.4375 0 -0.796875 -0.15625q-0.359375 -0.171875 -0.625 -0.46875q-0.25 -0.265625 -0.390625 -0.609375q-0.140625 -0.359375 -0.1875 -0.8125l0 -0.046875l4.53125 0l0 -0.484375q0 -0.671875 -0.171875 -1.234375q-0.15625 -0.5625 -0.5 -0.984375q-0.34375 -0.421875 -0.859375 -0.65625q-0.515625 -0.234375 -1.1875 -0.234375q-0.546875 0 -1.078125 0.21875q-0.515625 0.21875 -0.921875 0.640625q-0.40625 0.421875 -0.65625 1.03125q-0.234375 0.59375 -0.234375 1.375l0 0.234375q0 0.671875 0.21875 1.234375q0.21875 0.5625 0.625 0.96875q0.390625 0.40625 0.953125 0.640625q0.5625 0.234375 1.234375 0.234375zm-0.140625 -5.6875q0.40625 0 0.703125 0.15625q0.3125 0.140625 0.515625 0.390625q0.1875 0.25 0.296875 0.59375q0.125 0.328125 0.125 0.625l0 0.046875l-3.421875 0q0.0625 -0.4375 0.21875 -0.765625q0.171875 -0.34375 0.40625 -0.578125q0.234375 -0.234375 0.53125 -0.34375q0.296875 -0.125 0.625 -0.125zm5.607422 2.09375l0 0.0625q0 0.84375 0.125 1.578125q0.140625 0.734375 0.359375 1.359375q0.21875 0.640625 0.5 1.15625q0.296875 0.515625 0.625 0.921875q0.3125 0.40625 0.640625 0.6875q0.328125 0.296875 0.609375 0.453125l0.234375 -0.65625q-0.234375 -0.1875 -0.484375 -0.46875q-0.234375 -0.265625 -0.453125 -0.625q-0.21875 -0.359375 -0.421875 -0.828125q-0.1875 -0.46875 -0.34375 -1.015625q-0.140625 -0.546875 -0.234375 -1.171875q-0.078125 -0.640625 -0.078125 -1.375l0 -0.078125q0 -0.765625 0.09375 -1.421875q0.09375 -0.671875 0.25 -1.21875q0.15625 -0.609375 0.40625 -1.125q0.25 -0.515625 0.515625 -0.890625q0.1875 -0.25 0.375 -0.4375q0.1875 -0.203125 0.375 -0.34375l-0.234375 -0.71875q-0.28125 0.15625 -0.609375 0.453125q-0.328125 0.28125 -0.640625 0.6875q-0.328125 0.40625 -0.625 0.9375q-0.28125 0.515625 -0.5 1.140625q-0.21875 0.625 -0.359375 1.375q-0.125 0.734375 -0.125 1.5625zm10.076172 0.0625l0 -0.0625q0 -0.890625 -0.140625 -1.609375q-0.125 -0.71875 -0.34375 -1.328125q-0.21875 -0.640625 -0.5 -1.140625q-0.28125 -0.515625 -0.609375 -0.9375q-0.328125 -0.40625 -0.65625 -0.6875q-0.328125 -0.296875 -0.609375 -0.453125l-0.234375 0.65625q0.1875 0.15625 0.390625 0.390625q0.21875 0.21875 0.40625 0.515625q0.25 0.390625 0.484375 0.90625q0.25 0.5 0.421875 1.15625q0.109375 0.4375 0.203125 1.09375q0.109375 0.640625 0.109375 1.4375l0 0.078125q0 0.6875 -0.078125 1.3125q-0.078125 0.609375 -0.203125 1.140625q-0.140625 0.5625 -0.34375 1.03125q-0.1875 0.484375 -0.40625 0.875q-0.234375 0.375 -0.484375 0.65625q-0.25 0.28125 -0.5 0.46875l0.234375 0.65625q0.28125 -0.15625 0.609375 -0.453125q0.328125 -0.28125 0.65625 -0.6875q0.3125 -0.40625 0.59375 -0.921875q0.296875 -0.515625 0.515625 -1.15625q0.234375 -0.625 0.359375 -1.359375q0.125 -0.734375 0.125 -1.578125zm5.435547 2.703125q0 0.34375 0.203125 0.578125q0.21875 0.234375 0.640625 0.234375q0.421875 0 0.640625 -0.234375q0.234375 -0.234375 0.234375 -0.578125q0 -0.359375 -0.234375 -0.59375q-0.21875 -0.25 -0.640625 -0.25q-0.421875 0 -0.640625 0.25q-0.203125 0.25 -0.203125 0.59375zm0 -5.140625q0 0.34375 0.203125 0.578125q0.21875 0.234375 0.640625 0.234375q0.421875 0 0.640625 -0.234375q0.234375 -0.234375 0.234375 -0.578125q0 -0.359375 -0.234375 -0.59375q-0.21875 -0.25 -0.640625 -0.25q-0.421875 0 -0.640625 0.25q-0.203125 0.25 -0.203125 0.59375zm16.683594 3.6875q0 0.34375 -0.15625 0.609375q-0.140625 0.25 -0.390625 0.421875q-0.234375 0.15625 -0.546875 0.25q-0.3125 0.078125 -0.625 0.078125q-0.390625 0 -0.734375 -0.109375q-0.328125 -0.109375 -0.59375 -0.328125q-0.25 -0.21875 -0.421875 -0.515625q-0.15625 -0.3125 -0.21875 -0.71875l-1.109375 0q0.015625 0.5625 0.234375 1.015625q0.234375 0.4375 0.625 0.765625q0.4375 0.390625 1.015625 0.609375q0.59375 0.203125 1.203125 0.203125q0.515625 0 1.015625 -0.140625q0.515625 -0.15625 0.921875 -0.4375q0.40625 -0.28125 0.65625 -0.703125q0.25 -0.4375 0.25 -1.015625q0 -0.5625 -0.234375 -1.0q-0.234375 -0.4375 -0.625 -0.734375q-0.390625 -0.3125 -0.875 -0.515625q-0.46875 -0.21875 -0.9375 -0.359375q-0.28125 -0.09375 -0.609375 -0.203125q-0.328125 -0.125 -0.609375 -0.296875q-0.28125 -0.1875 -0.46875 -0.4375q-0.171875 -0.25 -0.171875 -0.625q0 -0.34375 0.125 -0.59375q0.140625 -0.265625 0.375 -0.4375q0.234375 -0.171875 0.53125 -0.25q0.296875 -0.09375 0.609375 -0.09375q0.390625 0 0.6875 0.125q0.3125 0.109375 0.53125 0.328125q0.21875 0.21875 0.359375 0.515625q0.140625 0.296875 0.1875 0.671875l1.109375 0q-0.015625 -0.578125 -0.265625 -1.046875q-0.234375 -0.484375 -0.625 -0.828125q-0.40625 -0.328125 -0.921875 -0.515625q-0.515625 -0.1875 -1.0625 -0.1875q-0.5 0 -1.0 0.15625q-0.5 0.15625 -0.890625 0.453125q-0.390625 0.3125 -0.640625 0.75q-0.25 0.421875 -0.25 0.96875q0 0.5625 0.25 0.96875q0.25 0.40625 0.625 0.703125q0.390625 0.296875 0.84375 0.5q0.46875 0.203125 0.921875 0.359375q0.3125 0.09375 0.640625 0.21875q0.34375 0.125 0.625 0.296875q0.28125 0.1875 0.453125 0.46875q0.1875 0.265625 0.1875 0.65625zm2.9042969 -4.1875l0 0.953125l2.15625 0l0 4.453125l-2.15625 0l0 0.9375l5.3125 0l0 -0.9375l-2.0625 0l0 -5.40625l-3.25 0zm2.015625 -1.65625q0 0.265625 0.15625 0.4375q0.171875 0.171875 0.5 0.171875q0.3125 0 0.46875 -0.171875q0.171875 -0.171875 0.171875 -0.4375q0 -0.15625 -0.046875 -0.265625q-0.046875 -0.125 -0.140625 -0.21875q-0.0625 -0.078125 -0.1875 -0.109375q-0.109375 -0.046875 -0.265625 -0.046875q-0.15625 0 -0.28125 0.046875q-0.109375 0.03125 -0.1875 0.109375q-0.09375 0.09375 -0.140625 0.21875q-0.046875 0.125 -0.046875 0.265625zm5.013672 8.0l1.09375 0l0 -4.546875q0.109375 -0.203125 0.25 -0.375q0.15625 -0.171875 0.328125 -0.296875q0.21875 -0.15625 0.46875 -0.234375q0.265625 -0.078125 0.5625 -0.078125q0.34375 0 0.609375 0.078125q0.265625 0.078125 0.453125 0.265625q0.1875 0.171875 0.28125 0.46875q0.09375 0.296875 0.09375 0.71875l0 4.0l1.078125 0l0 -4.03125q0 -0.625 -0.15625 -1.078125q-0.140625 -0.46875 -0.4375 -0.765625q-0.28125 -0.296875 -0.6875 -0.4375q-0.40625 -0.140625 -0.90625 -0.140625q-0.375 0 -0.703125 0.109375q-0.328125 0.09375 -0.609375 0.28125q-0.1875 0.125 -0.359375 0.296875q-0.171875 0.15625 -0.3125 0.359375l-0.0625 -0.9375l-0.984375 0l0 6.34375zm7.013672 -3.21875l0 0.125q0 0.671875 0.171875 1.265625q0.171875 0.578125 0.5 1.015625q0.328125 0.4375 0.796875 0.6875q0.46875 0.25 1.046875 0.25q0.34375 0 0.640625 -0.078125q0.296875 -0.078125 0.546875 -0.21875q0.15625 -0.078125 0.296875 -0.1875q0.140625 -0.125 0.265625 -0.265625l0 0.546875q0 0.40625 -0.125 0.71875q-0.109375 0.328125 -0.328125 0.53125q-0.234375 0.21875 -0.546875 0.328125q-0.296875 0.109375 -0.6875 0.109375q-0.21875 0 -0.4375 -0.046875q-0.21875 -0.03125 -0.4375 -0.140625q-0.203125 -0.09375 -0.421875 -0.265625q-0.203125 -0.171875 -0.40625 -0.40625l-0.5625 0.65625q0.21875 0.3125 0.515625 0.515625q0.296875 0.21875 0.625 0.328125q0.328125 0.140625 0.640625 0.1875q0.3125 0.0625 0.5625 0.0625q0.59375 0 1.078125 -0.1875q0.5 -0.171875 0.859375 -0.5q0.359375 -0.34375 0.546875 -0.828125q0.203125 -0.484375 0.203125 -1.125l0 -6.203125l-0.984375 0l-0.046875 0.6875q-0.125 -0.140625 -0.25 -0.25q-0.125 -0.125 -0.265625 -0.203125q-0.25 -0.171875 -0.578125 -0.25q-0.3125 -0.09375 -0.6875 -0.09375q-0.59375 0 -1.0625 0.234375q-0.46875 0.234375 -0.796875 0.671875q-0.328125 0.421875 -0.5 1.015625q-0.171875 0.59375 -0.171875 1.3125zm1.078125 0.125l0 -0.125q0 -0.46875 0.09375 -0.890625q0.09375 -0.421875 0.3125 -0.734375q0.203125 -0.3125 0.53125 -0.5q0.328125 -0.1875 0.78125 -0.1875q0.265625 0 0.484375 0.0625q0.234375 0.0625 0.40625 0.1875q0.1875 0.125 0.328125 0.296875q0.140625 0.15625 0.25 0.34375l0 2.90625q-0.109375 0.203125 -0.25 0.375q-0.140625 0.171875 -0.3125 0.296875q-0.1875 0.125 -0.421875 0.203125q-0.21875 0.0625 -0.5 0.0625q-0.453125 0 -0.78125 -0.1875q-0.3125 -0.1875 -0.515625 -0.5q-0.21875 -0.328125 -0.3125 -0.734375q-0.09375 -0.421875 -0.09375 -0.875zm6.482422 -5.90625l0 0.9375l2.15625 0l0 7.125l-2.15625 0l0 0.9375l5.3125 0l0 -0.9375l-2.0625 0l0 -8.0625l-3.25 0zm9.841797 9.125q0.921875 0 1.546875 -0.375q0.625 -0.375 0.953125 -0.859375l-0.671875 -0.515625q-0.296875 0.390625 -0.75 0.625q-0.453125 0.234375 -1.03125 0.234375q-0.4375 0 -0.796875 -0.15625q-0.359375 -0.171875 -0.625 -0.46875q-0.25 -0.265625 -0.390625 -0.609375q-0.140625 -0.359375 -0.1875 -0.8125l0 -0.046875l4.53125 0l0 -0.484375q0 -0.671875 -0.171875 -1.234375q-0.15625 -0.5625 -0.5 -0.984375q-0.34375 -0.421875 -0.859375 -0.65625q-0.515625 -0.234375 -1.1875 -0.234375q-0.546875 0 -1.078125 0.21875q-0.515625 0.21875 -0.921875 0.640625q-0.40625 0.421875 -0.65625 1.03125q-0.234375 0.59375 -0.234375 1.375l0 0.234375q0 0.671875 0.21875 1.234375q0.21875 0.5625 0.625 0.96875q0.390625 0.40625 0.953125 0.640625q0.5625 0.234375 1.234375 0.234375zm-0.140625 -5.6875q0.40625 0 0.703125 0.15625q0.3125 0.140625 0.515625 0.390625q0.1875 0.25 0.296875 0.59375q0.125 0.328125 0.125 0.625l0 0.046875l-3.421875 0q0.0625 -0.4375 0.21875 -0.765625q0.171875 -0.34375 0.40625 -0.578125q0.234375 -0.234375 0.53125 -0.34375q0.296875 -0.125 0.625 -0.125zm7.107422 -2.3125l-1.09375 0l0 1.53125l-1.671875 0l0 0.84375l1.671875 0l0 3.4375q0 0.59375 0.15625 1.015625q0.15625 0.40625 0.421875 0.65625q0.265625 0.265625 0.625 0.390625q0.375 0.125 0.796875 0.125q0.25 0 0.5 -0.03125q0.265625 -0.015625 0.484375 -0.0625q0.234375 -0.046875 0.421875 -0.109375q0.203125 -0.0625 0.328125 -0.140625l-0.140625 -0.765625q-0.109375 0.015625 -0.265625 0.046875q-0.15625 0.03125 -0.328125 0.0625q-0.171875 0.03125 -0.359375 0.0625q-0.1875 0.015625 -0.375 0.015625q-0.234375 0 -0.453125 -0.0625q-0.203125 -0.0625 -0.375 -0.203125q-0.15625 -0.140625 -0.25 -0.375q-0.09375 -0.25 -0.09375 -0.625l0 -3.4375l2.40625 0l0 -0.84375l-2.40625 0l0 -1.53125zm4.326172 4.640625l0 0.140625q0 0.671875 0.1875 1.265625q0.203125 0.578125 0.578125 1.015625q0.375 0.4375 0.90625 0.6875q0.546875 0.25 1.21875 0.25q0.65625 0 1.1875 -0.25q0.546875 -0.25 0.921875 -0.6875q0.359375 -0.4375 0.5625 -1.015625q0.203125 -0.59375 0.203125 -1.265625l0 -0.140625q0 -0.6875 -0.203125 -1.265625q-0.203125 -0.59375 -0.5625 -1.03125q-0.375 -0.421875 -0.921875 -0.671875q-0.53125 -0.25 -1.203125 -0.25q-0.671875 0 -1.203125 0.25q-0.53125 0.25 -0.90625 0.671875q-0.375 0.4375 -0.578125 1.03125q-0.1875 0.578125 -0.1875 1.265625zm1.078125 0.140625l0 -0.140625q0 -0.453125 0.109375 -0.875q0.109375 -0.4375 0.34375 -0.75q0.21875 -0.328125 0.546875 -0.515625q0.34375 -0.1875 0.796875 -0.1875q0.453125 0 0.78125 0.1875q0.34375 0.1875 0.578125 0.515625q0.21875 0.3125 0.328125 0.75q0.109375 0.421875 0.109375 0.875l0 0.140625q0 0.46875 -0.109375 0.890625q-0.109375 0.421875 -0.328125 0.75q-0.234375 0.3125 -0.578125 0.5q-0.328125 0.1875 -0.765625 0.1875q-0.453125 0 -0.796875 -0.1875q-0.34375 -0.1875 -0.5625 -0.5q-0.234375 -0.328125 -0.34375 -0.75q-0.109375 -0.421875 -0.109375 -0.890625zm6.419922 3.09375l1.09375 0l0 -4.546875q0.109375 -0.203125 0.25 -0.375q0.15625 -0.171875 0.328125 -0.296875q0.21875 -0.15625 0.46875 -0.234375q0.265625 -0.078125 0.5625 -0.078125q0.34375 0 0.609375 0.078125q0.265625 0.078125 0.453125 0.265625q0.1875 0.171875 0.28125 0.46875q0.09375 0.296875 0.09375 0.71875l0 4.0l1.078125 0l0 -4.03125q0 -0.625 -0.15625 -1.078125q-0.140625 -0.46875 -0.4375 -0.765625q-0.28125 -0.296875 -0.6875 -0.4375q-0.40625 -0.140625 -0.90625 -0.140625q-0.375 0 -0.703125 0.109375q-0.328125 0.09375 -0.609375 0.28125q-0.1875 0.125 -0.359375 0.296875q-0.171875 0.15625 -0.3125 0.359375l-0.0625 -0.9375l-0.984375 0l0 6.34375z" fill-rule="nonzero"/><path fill="#000000" fill-opacity="0.0" d="m4.4984026 34.669292l220.0 0l0 24.566929l-220.0 0z" fill-rule="evenodd"/><path stroke="#000000" stroke-width="2.0" stroke-linejoin="round" stroke-linecap="butt" d="m4.4984026 34.669292l220.0 0l0 24.566929l-220.0 0z" fill-rule="evenodd"/><path fill="#000000" d="m13.952589 48.191505l0 -0.890625l-4.484375 0l0 0.890625l4.484375 0z" fill-rule="nonzero"/><path fill="#000000" d="m24.10493 45.129005l-0.96875 0l0 6.34375l1.03125 0l0 -5.046875q0.03125 -0.09375 0.078125 -0.171875q0.0625 -0.078125 0.140625 -0.15625q0.109375 -0.078125 0.25 -0.109375q0.140625 -0.046875 0.328125 -0.046875q0.1875 0 0.3125 0.046875q0.125 0.03125 0.21875 0.125q0.09375 0.109375 0.140625 0.265625q0.046875 0.140625 0.046875 0.34375l0 4.75l1.03125 0l0 -4.75q0 -0.03125 0 -0.046875q0 -0.03125 0 -0.0625q0.015625 -0.15625 0.0625 -0.265625q0.0625 -0.125 0.15625 -0.21875q0.09375 -0.09375 0.234375 -0.140625q0.140625 -0.046875 0.328125 -0.046875q0.1875 0 0.3125 0.046875q0.140625 0.046875 0.234375 0.140625q0.09375 0.09375 0.140625 0.25q0.046875 0.140625 0.046875 0.34375l0 4.75l1.03125 0l0 -4.734375q0 -0.453125 -0.109375 -0.78125q-0.109375 -0.34375 -0.296875 -0.5625q-0.1875 -0.1875 -0.453125 -0.28125q-0.265625 -0.09375 -0.59375 -0.09375q-0.234375 0 -0.4375 0.0625q-0.203125 0.0625 -0.375 0.15625q-0.125 0.09375 -0.234375 0.21875q-0.109375 0.109375 -0.1875 0.234375q-0.0625 -0.140625 -0.15625 -0.25q-0.09375 -0.125 -0.203125 -0.203125q-0.15625 -0.109375 -0.359375 -0.15625q-0.203125 -0.0625 -0.453125 -0.0625q-0.4375 0 -0.765625 0.1875q-0.3125 0.1875 -0.5 0.515625l-0.03125 -0.59375zm11.966797 7.234375l0 -0.890625l-5.375 0l0 0.890625l5.375 0zm2.1074219 -7.234375l0 0.953125l2.15625 0l0 4.453125l-2.15625 0l0 0.9375l5.3125 0l0 -0.9375l-2.0625 0l0 -5.40625l-3.25 0zm2.015625 -1.65625q0 0.265625 0.15625 0.4375q0.171875 0.171875 0.5 0.171875q0.3125 0 0.46875 -0.171875q0.171875 -0.171875 0.171875 -0.4375q0 -0.15625 -0.046875 -0.265625q-0.046875 -0.125 -0.140625 -0.21875q-0.0625 -0.078125 -0.1875 -0.109375q-0.109375 -0.046875 -0.265625 -0.046875q-0.15625 0 -0.28125 0.046875q-0.109375 0.03125 -0.1875 0.109375q-0.09375 0.09375 -0.140625 0.21875q-0.046875 0.125 -0.046875 0.265625zm5.013672 8.0l1.09375 0l0 -4.546875q0.109375 -0.203125 0.25 -0.375q0.15625 -0.171875 0.328125 -0.296875q0.21875 -0.15625 0.46875 -0.234375q0.265625 -0.078125 0.5625 -0.078125q0.34375 0 0.609375 0.078125q0.265625 0.078125 0.453125 0.265625q0.1875 0.171875 0.28125 0.46875q0.09375 0.296875 0.09375 0.71875l0 4.0l1.078125 0l0 -4.03125q0 -0.625 -0.15625 -1.078125q-0.140625 -0.46875 -0.4375 -0.765625q-0.28125 -0.296875 -0.6875 -0.4375q-0.40625 -0.140625 -0.90625 -0.140625q-0.375 0 -0.703125 0.109375q-0.328125 0.09375 -0.609375 0.28125q-0.1875 0.125 -0.359375 0.296875q-0.171875 0.15625 -0.3125 0.359375l-0.0625 -0.9375l-0.984375 0l0 6.34375zm11.419922 -1.6875q0 0.15625 -0.0625 0.296875q-0.0625 0.125 -0.171875 0.234375q-0.171875 0.1875 -0.5 0.296875q-0.328125 0.09375 -0.75 0.09375q-0.28125 0 -0.5625 -0.046875q-0.28125 -0.0625 -0.515625 -0.203125q-0.234375 -0.140625 -0.390625 -0.375q-0.140625 -0.234375 -0.171875 -0.5625l-1.078125 0q0 0.40625 0.171875 0.78125q0.1875 0.375 0.546875 0.65625q0.34375 0.28125 0.84375 0.46875q0.5 0.171875 1.15625 0.171875q0.5625 0 1.03125 -0.140625q0.46875 -0.140625 0.8125 -0.390625q0.34375 -0.234375 0.53125 -0.578125q0.1875 -0.359375 0.1875 -0.78125q0 -0.390625 -0.171875 -0.6875q-0.15625 -0.296875 -0.46875 -0.53125q-0.328125 -0.21875 -0.796875 -0.375q-0.453125 -0.15625 -1.03125 -0.28125q-0.453125 -0.09375 -0.75 -0.1875q-0.28125 -0.09375 -0.453125 -0.203125q-0.171875 -0.125 -0.25 -0.265625q-0.0625 -0.15625 -0.0625 -0.34375q0 -0.171875 0.078125 -0.34375q0.09375 -0.171875 0.265625 -0.296875q0.171875 -0.140625 0.4375 -0.203125q0.265625 -0.078125 0.609375 -0.078125q0.328125 0 0.59375 0.09375q0.265625 0.09375 0.453125 0.234375q0.1875 0.15625 0.296875 0.359375q0.109375 0.1875 0.109375 0.390625l1.078125 0q0 -0.40625 -0.1875 -0.765625q-0.171875 -0.359375 -0.5 -0.640625q-0.328125 -0.265625 -0.796875 -0.40625q-0.46875 -0.15625 -1.046875 -0.15625q-0.546875 0 -1.0 0.140625q-0.453125 0.140625 -0.78125 0.40625q-0.328125 0.25 -0.515625 0.59375q-0.171875 0.328125 -0.171875 0.71875q0 0.390625 0.171875 0.6875q0.171875 0.296875 0.5 0.5q0.3125 0.234375 0.75 0.390625q0.453125 0.15625 1.0 0.265625q0.453125 0.09375 0.75 0.203125q0.296875 0.109375 0.484375 0.234375q0.171875 0.125 0.25 0.28125q0.078125 0.15625 0.078125 0.34375zm5.560547 -6.1875l-1.09375 0l0 1.53125l-1.671875 0l0 0.84375l1.671875 0l0 3.4375q0 0.59375 0.15625 1.015625q0.15625 0.40625 0.421875 0.65625q0.265625 0.265625 0.625 0.390625q0.375 0.125 0.796875 0.125q0.25 0 0.5 -0.03125q0.265625 -0.015625 0.4843788 -0.0625q0.234375 -0.046875 0.421875 -0.109375q0.203125 -0.0625 0.328125 -0.140625l-0.140625 -0.765625q-0.109375 0.015625 -0.265625 0.046875q-0.15625 0.03125 -0.328125 0.0625q-0.17187881 0.03125 -0.3593788 0.0625q-0.1875 0.015625 -0.375 0.015625q-0.234375 0 -0.453125 -0.0625q-0.203125 -0.0625 -0.375 -0.203125q-0.15625 -0.140625 -0.25 -0.375q-0.09375 -0.25 -0.09375 -0.625l0 -3.4375l2.4062538 0l0 -0.84375l-2.4062538 0l0 -1.53125zm8.794926 7.875l1.125 0l0 -0.09375q-0.09375 -0.265625 -0.15625 -0.609375q-0.0625 -0.359375 -0.0625 -0.6875l0 -2.9375q0 -0.53125 -0.203125 -0.921875q-0.1875 -0.40625 -0.515625 -0.6875q-0.34375 -0.25 -0.8125 -0.375q-0.453125 -0.140625 -1.0 -0.140625q-0.578125 0 -1.046875 0.171875q-0.46875 0.15625 -0.796875 0.421875q-0.328125 0.265625 -0.5 0.609375q-0.171875 0.328125 -0.171875 0.671875l1.09375 0q0 -0.203125 0.09375 -0.390625q0.09375 -0.1875 0.265625 -0.3125q0.171875 -0.140625 0.421875 -0.21875q0.265625 -0.078125 0.59375 -0.078125q0.34375 0 0.609375 0.09375q0.28125 0.078125 0.484375 0.234375q0.1875 0.15625 0.296875 0.390625q0.109375 0.234375 0.109375 0.515625l0 0.5l-1.1875 0q-0.65625 0 -1.203125 0.125q-0.53125 0.125 -0.90625 0.390625q-0.390625 0.265625 -0.59375 0.65625q-0.203125 0.390625 -0.203125 0.90625q0 0.40625 0.140625 0.75q0.15625 0.34375 0.453125 0.59375q0.28125 0.25 0.6875 0.40625q0.40625 0.140625 0.90625 0.140625q0.3125 0 0.578125 -0.078125q0.28125 -0.0625 0.53125 -0.171875q0.234375 -0.109375 0.4375 -0.25q0.203125 -0.15625 0.375 -0.3125q0.015625 0.1875 0.046875 0.375q0.046875 0.1875 0.109375 0.3125zm-1.921875 -0.828125q-0.3125 0 -0.5625 -0.078125q-0.234375 -0.078125 -0.390625 -0.234375q-0.15625 -0.140625 -0.234375 -0.328125q-0.078125 -0.203125 -0.078125 -0.4375q0 -0.25 0.09375 -0.4375q0.09375 -0.203125 0.265625 -0.34375q0.25 -0.203125 0.65625 -0.296875q0.421875 -0.09375 0.984375 -0.09375l1.015625 0l0 1.28125q-0.09375 0.1875 -0.265625 0.359375q-0.15625 0.171875 -0.390625 0.3125q-0.21875 0.140625 -0.5 0.21875q-0.265625 0.078125 -0.59375 0.078125zm4.951172 0.828125l1.09375 0l0 -4.546875q0.109375 -0.203125 0.25 -0.375q0.15625 -0.171875 0.328125 -0.296875q0.21875 -0.15625 0.46875 -0.234375q0.265625 -0.078125 0.5625 -0.078125q0.34375 0 0.609375 0.078125q0.265625 0.078125 0.453125 0.265625q0.1875 0.171875 0.28125 0.46875q0.09375 0.296875 0.09375 0.71875l0 4.0l1.078125 0l0 -4.03125q0 -0.625 -0.15625 -1.078125q-0.140625 -0.46875 -0.4375 -0.765625q-0.28125 -0.296875 -0.6875 -0.4375q-0.40625 -0.140625 -0.90625 -0.140625q-0.375 0 -0.703125 0.109375q-0.328125 0.09375 -0.609375 0.28125q-0.1875 0.125 -0.359375 0.296875q-0.171875 0.15625 -0.3125 0.359375l-0.0625 -0.9375l-0.984375 0l0 6.34375zm9.904297 -0.765625q-0.5 0 -0.84375 -0.203125q-0.34375 -0.203125 -0.546875 -0.53125q-0.21875 -0.3125 -0.3125 -0.71875q-0.09375 -0.40625 -0.09375 -0.828125l0 -0.25q0 -0.40625 0.09375 -0.8125q0.09375 -0.40625 0.3125 -0.734375q0.203125 -0.3125 0.546875 -0.515625q0.34375 -0.203125 0.84375 -0.203125q0.328125 0 0.609375 0.109375q0.296875 0.109375 0.5 0.296875q0.203125 0.203125 0.3125 0.453125q0.125 0.25 0.140625 0.546875l1.015625 0q0 -0.484375 -0.203125 -0.90625q-0.1875 -0.421875 -0.515625 -0.734375q-0.34375 -0.296875 -0.828125 -0.46875q-0.46875 -0.1875 -1.03125 -0.1875q-0.71875 0 -1.265625 0.265625q-0.53125 0.25 -0.890625 0.671875q-0.359375 0.453125 -0.546875 1.03125q-0.171875 0.5625 -0.171875 1.1875l0 0.25q0 0.625 0.171875 1.203125q0.1875 0.578125 0.546875 1.0q0.359375 0.4375 0.890625 0.703125q0.546875 0.265625 1.265625 0.265625q0.5 0 0.96875 -0.171875q0.46875 -0.1875 0.828125 -0.46875q0.34375 -0.296875 0.5625 -0.671875q0.21875 -0.390625 0.21875 -0.8125l-1.015625 0q-0.015625 0.265625 -0.15625 0.5q-0.125 0.21875 -0.34375 0.375q-0.203125 0.171875 -0.484375 0.265625q-0.28125 0.09375 -0.578125 0.09375zm7.310547 0.890625q0.921875 0 1.546875 -0.375q0.625 -0.375 0.953125 -0.859375l-0.671875 -0.515625q-0.296875 0.390625 -0.75 0.625q-0.453125 0.234375 -1.03125 0.234375q-0.4375 0 -0.796875 -0.15625q-0.359375 -0.171875 -0.625 -0.46875q-0.25 -0.265625 -0.390625 -0.609375q-0.140625 -0.359375 -0.1875 -0.8125l0 -0.046875l4.53125 0l0 -0.484375q0 -0.671875 -0.171875 -1.234375q-0.15625 -0.5625 -0.5 -0.984375q-0.34375 -0.421875 -0.859375 -0.65625q-0.515625 -0.234375 -1.1875 -0.234375q-0.546875 0 -1.078125 0.21875q-0.515625 0.21875 -0.921875 0.640625q-0.40625 0.421875 -0.65625 1.03125q-0.234375 0.59375 -0.234375 1.375l0 0.234375q0 0.671875 0.21875 1.234375q0.21875 0.5625 0.625 0.96875q0.390625 0.40625 0.953125 0.640625q0.5625 0.234375 1.234375 0.234375zm-0.140625 -5.6875q0.40625 0 0.703125 0.15625q0.3125 0.140625 0.515625 0.390625q0.1875 0.25 0.296875 0.59375q0.125 0.328125 0.125 0.625l0 0.046875l-3.421875 0q0.0625 -0.4375 0.21875 -0.765625q0.171875 -0.34375 0.40625 -0.578125q0.234375 -0.234375 0.53125 -0.34375q0.296875 -0.125 0.625 -0.125zm6.716797 4.859375q0 0.34375 0.203125 0.578125q0.21875 0.234375 0.640625 0.234375q0.421875 0 0.640625 -0.234375q0.234375 -0.234375 0.234375 -0.578125q0 -0.359375 -0.234375 -0.59375q-0.21875 -0.25 -0.640625 -0.25q-0.421875 0 -0.640625 0.25q-0.203125 0.25 -0.203125 0.59375zm0 -5.140625q0 0.34375 0.203125 0.578125q0.21875 0.234375 0.640625 0.234375q0.421875 0 0.640625 -0.234375q0.234375 -0.234375 0.234375 -0.578125q0 -0.359375 -0.234375 -0.59375q-0.21875 -0.25 -0.640625 -0.25q-0.421875 0 -0.640625 0.25q-0.203125 0.25 -0.203125 0.59375zm16.683594 3.6875q0 0.34375 -0.15625 0.609375q-0.140625 0.25 -0.390625 0.421875q-0.234375 0.15625 -0.546875 0.25q-0.3125 0.078125 -0.625 0.078125q-0.390625 0 -0.734375 -0.109375q-0.328125 -0.109375 -0.59375 -0.328125q-0.25 -0.21875 -0.421875 -0.515625q-0.15625 -0.3125 -0.21875 -0.71875l-1.109375 0q0.015625 0.5625 0.234375 1.015625q0.234375 0.4375 0.625 0.765625q0.4375 0.390625 1.015625 0.609375q0.59375 0.203125 1.203125 0.203125q0.515625 0 1.015625 -0.140625q0.515625 -0.15625 0.921875 -0.4375q0.40625 -0.28125 0.65625 -0.703125q0.25 -0.4375 0.25 -1.015625q0 -0.5625 -0.234375 -1.0q-0.234375 -0.4375 -0.625 -0.734375q-0.390625 -0.3125 -0.875 -0.515625q-0.46875 -0.21875 -0.9375 -0.359375q-0.28125 -0.09375 -0.609375 -0.203125q-0.328125 -0.125 -0.609375 -0.296875q-0.28125 -0.1875 -0.46875 -0.4375q-0.171875 -0.25 -0.171875 -0.625q0 -0.34375 0.125 -0.59375q0.140625 -0.265625 0.375 -0.4375q0.234375 -0.171875 0.53125 -0.25q0.296875 -0.09375 0.609375 -0.09375q0.390625 0 0.6875 0.125q0.3125 0.109375 0.53125 0.328125q0.21875 0.21875 0.359375 0.515625q0.140625 0.296875 0.1875 0.671875l1.109375 0q-0.015625 -0.578125 -0.265625 -1.046875q-0.234375 -0.484375 -0.625 -0.828125q-0.40625 -0.328125 -0.921875 -0.515625q-0.515625 -0.1875 -1.0625 -0.1875q-0.5 0 -1.0 0.15625q-0.5 0.15625 -0.890625 0.453125q-0.390625 0.3125 -0.640625 0.75q-0.25 0.421875 -0.25 0.96875q0 0.5625 0.25 0.96875q0.25 0.40625 0.625 0.703125q0.390625 0.296875 0.84375 0.5q0.46875 0.203125 0.921875 0.359375q0.3125 0.09375 0.640625 0.21875q0.34375 0.125 0.625 0.296875q0.28125 0.1875 0.453125 0.46875q0.1875 0.265625 0.1875 0.65625zm2.9042969 -4.1875l0 0.953125l2.15625 0l0 4.453125l-2.15625 0l0 0.9375l5.3125 0l0 -0.9375l-2.0625 0l0 -5.40625l-3.25 0zm2.015625 -1.65625q0 0.265625 0.15625 0.4375q0.171875 0.171875 0.5 0.171875q0.3125 0 0.46875 -0.171875q0.171875 -0.171875 0.171875 -0.4375q0 -0.15625 -0.046875 -0.265625q-0.046875 -0.125 -0.140625 -0.21875q-0.0625 -0.078125 -0.1875 -0.109375q-0.109375 -0.046875 -0.265625 -0.046875q-0.15625 0 -0.28125 0.046875q-0.109375 0.03125 -0.1875 0.109375q-0.09375 0.09375 -0.140625 0.21875q-0.046875 0.125 -0.046875 0.265625zm5.013672 8.0l1.09375 0l0 -4.546875q0.109375 -0.203125 0.25 -0.375q0.15625 -0.171875 0.328125 -0.296875q0.21875 -0.15625 0.46875 -0.234375q0.265625 -0.078125 0.5625 -0.078125q0.34375 0 0.609375 0.078125q0.265625 0.078125 0.453125 0.265625q0.1875 0.171875 0.28125 0.46875q0.09375 0.296875 0.09375 0.71875l0 4.0l1.078125 0l0 -4.03125q0 -0.625 -0.15625 -1.078125q-0.140625 -0.46875 -0.4375 -0.765625q-0.28125 -0.296875 -0.6875 -0.4375q-0.40625 -0.140625 -0.90625 -0.140625q-0.375 0 -0.703125 0.109375q-0.328125 0.09375 -0.609375 0.28125q-0.1875 0.125 -0.359375 0.296875q-0.171875 0.15625 -0.3125 0.359375l-0.0625 -0.9375l-0.984375 0l0 6.34375zm7.013672 -3.21875l0 0.125q0 0.671875 0.171875 1.265625q0.171875 0.578125 0.5 1.015625q0.328125 0.4375 0.796875 0.6875q0.46875 0.25 1.046875 0.25q0.34375 0 0.640625 -0.078125q0.296875 -0.078125 0.546875 -0.21875q0.15625 -0.078125 0.296875 -0.1875q0.140625 -0.125 0.265625 -0.265625l0 0.546875q0 0.40625 -0.125 0.71875q-0.109375 0.328125 -0.328125 0.53125q-0.234375 0.21875 -0.546875 0.328125q-0.296875 0.109375 -0.6875 0.109375q-0.21875 0 -0.4375 -0.046875q-0.21875 -0.03125 -0.4375 -0.140625q-0.203125 -0.09375 -0.421875 -0.265625q-0.203125 -0.171875 -0.40625 -0.40625l-0.5625 0.65625q0.21875 0.3125 0.515625 0.515625q0.296875 0.21875 0.625 0.328125q0.328125 0.140625 0.640625 0.1875q0.3125 0.0625 0.5625 0.0625q0.59375 0 1.078125 -0.1875q0.5 -0.171875 0.859375 -0.5q0.359375 -0.34375 0.546875 -0.828125q0.203125 -0.484375 0.203125 -1.125l0 -6.203125l-0.984375 0l-0.046875 0.6875q-0.125 -0.140625 -0.25 -0.25q-0.125 -0.125 -0.265625 -0.203125q-0.25 -0.171875 -0.578125 -0.25q-0.3125 -0.09375 -0.6875 -0.09375q-0.59375 0 -1.0625 0.234375q-0.46875 0.234375 -0.796875 0.671875q-0.328125 0.421875 -0.5 1.015625q-0.171875 0.59375 -0.171875 1.3125zm1.078125 0.125l0 -0.125q0 -0.46875 0.09375 -0.890625q0.09375 -0.421875 0.3125 -0.734375q0.203125 -0.3125 0.53125 -0.5q0.328125 -0.1875 0.78125 -0.1875q0.265625 0 0.484375 0.0625q0.234375 0.0625 0.40625 0.1875q0.1875 0.125 0.328125 0.296875q0.140625 0.15625 0.25 0.34375l0 2.90625q-0.109375 0.203125 -0.25 0.375q-0.140625 0.171875 -0.3125 0.296875q-0.1875 0.125 -0.421875 0.203125q-0.21875 0.0625 -0.5 0.0625q-0.453125 0 -0.78125 -0.1875q-0.3125 -0.1875 -0.515625 -0.5q-0.21875 -0.328125 -0.3125 -0.734375q-0.09375 -0.421875 -0.09375 -0.875zm6.482422 -5.90625l0 0.9375l2.15625 0l0 7.125l-2.15625 0l0 0.9375l5.3125 0l0 -0.9375l-2.0625 0l0 -8.0625l-3.25 0zm9.841797 9.125q0.921875 0 1.546875 -0.375q0.625 -0.375 0.953125 -0.859375l-0.671875 -0.515625q-0.296875 0.390625 -0.75 0.625q-0.453125 0.234375 -1.03125 0.234375q-0.4375 0 -0.796875 -0.15625q-0.359375 -0.171875 -0.625 -0.46875q-0.25 -0.265625 -0.390625 -0.609375q-0.140625 -0.359375 -0.1875 -0.8125l0 -0.046875l4.53125 0l0 -0.484375q0 -0.671875 -0.171875 -1.234375q-0.15625 -0.5625 -0.5 -0.984375q-0.34375 -0.421875 -0.859375 -0.65625q-0.515625 -0.234375 -1.1875 -0.234375q-0.546875 0 -1.078125 0.21875q-0.515625 0.21875 -0.921875 0.640625q-0.40625 0.421875 -0.65625 1.03125q-0.234375 0.59375 -0.234375 1.375l0 0.234375q0 0.671875 0.21875 1.234375q0.21875 0.5625 0.625 0.96875q0.390625 0.40625 0.953125 0.640625q0.5625 0.234375 1.234375 0.234375zm-0.140625 -5.6875q0.40625 0 0.703125 0.15625q0.3125 0.140625 0.515625 0.390625q0.1875 0.25 0.296875 0.59375q0.125 0.328125 0.125 0.625l0 0.046875l-3.421875 0q0.0625 -0.4375 0.21875 -0.765625q0.171875 -0.34375 0.40625 -0.578125q0.234375 -0.234375 0.53125 -0.34375q0.296875 -0.125 0.625 -0.125zm7.107422 -2.3125l-1.09375 0l0 1.53125l-1.671875 0l0 0.84375l1.671875 0l0 3.4375q0 0.59375 0.15625 1.015625q0.15625 0.40625 0.421875 0.65625q0.265625 0.265625 0.625 0.390625q0.375 0.125 0.796875 0.125q0.25 0 0.5 -0.03125q0.265625 -0.015625 0.484375 -0.0625q0.234375 -0.046875 0.421875 -0.109375q0.203125 -0.0625 0.328125 -0.140625l-0.140625 -0.765625q-0.109375 0.015625 -0.265625 0.046875q-0.15625 0.03125 -0.328125 0.0625q-0.171875 0.03125 -0.359375 0.0625q-0.1875 0.015625 -0.375 0.015625q-0.234375 0 -0.453125 -0.0625q-0.203125 -0.0625 -0.375 -0.203125q-0.15625 -0.140625 -0.25 -0.375q-0.09375 -0.25 -0.09375 -0.625l0 -3.4375l2.40625 0l0 -0.84375l-2.40625 0l0 -1.53125zm4.326172 4.640625l0 0.140625q0 0.671875 0.1875 1.265625q0.203125 0.578125 0.578125 1.015625q0.375 0.4375 0.90625 0.6875q0.546875 0.25 1.21875 0.25q0.65625 0 1.1875 -0.25q0.546875 -0.25 0.921875 -0.6875q0.359375 -0.4375 0.5625 -1.015625q0.203125 -0.59375 0.203125 -1.265625l0 -0.140625q0 -0.6875 -0.203125 -1.265625q-0.203125 -0.59375 -0.5625 -1.03125q-0.375 -0.421875 -0.921875 -0.671875q-0.53125 -0.25 -1.203125 -0.25q-0.671875 0 -1.203125 0.25q-0.53125 0.25 -0.90625 0.671875q-0.375 0.4375 -0.578125 1.03125q-0.1875 0.578125 -0.1875 1.265625zm1.078125 0.140625l0 -0.140625q0 -0.453125 0.109375 -0.875q0.109375 -0.4375 0.34375 -0.75q0.21875 -0.328125 0.546875 -0.515625q0.34375 -0.1875 0.796875 -0.1875q0.453125 0 0.78125 0.1875q0.34375 0.1875 0.578125 0.515625q0.21875 0.3125 0.328125 0.75q0.109375 0.421875 0.109375 0.875l0 0.140625q0 0.46875 -0.109375 0.890625q-0.109375 0.421875 -0.328125 0.75q-0.234375 0.3125 -0.578125 0.5q-0.328125 0.1875 -0.765625 0.1875q-0.453125 0 -0.796875 -0.1875q-0.34375 -0.1875 -0.5625 -0.5q-0.234375 -0.328125 -0.34375 -0.75q-0.109375 -0.421875 -0.109375 -0.890625zm6.419922 3.09375l1.09375 0l0 -4.546875q0.109375 -0.203125 0.25 -0.375q0.15625 -0.171875 0.328125 -0.296875q0.21875 -0.15625 0.46875 -0.234375q0.265625 -0.078125 0.5625 -0.078125q0.34375 0 0.609375 0.078125q0.265625 0.078125 0.453125 0.265625q0.1875 0.171875 0.28125 0.46875q0.09375 0.296875 0.09375 0.71875l0 4.0l1.078125 0l0 -4.03125q0 -0.625 -0.15625 -1.078125q-0.140625 -0.46875 -0.4375 -0.765625q-0.28125 -0.296875 -0.6875 -0.4375q-0.40625 -0.140625 -0.90625 -0.140625q-0.375 0 -0.703125 0.109375q-0.328125 0.09375 -0.609375 0.28125q-0.1875 0.125 -0.359375 0.296875q-0.171875 0.15625 -0.3125 0.359375l-0.0625 -0.9375l-0.984375 0l0 6.34375z" fill-rule="nonzero"/><path fill="#000000" fill-opacity="0.0" d="m114.49869 104.43307l0 47.55906" fill-rule="evenodd"/><path stroke="#000000" stroke-width="2.0" stroke-linejoin="round" stroke-linecap="butt" d="m114.49869 104.43307l0 47.55906" fill-rule="evenodd"/><path fill="#000000" fill-opacity="0.0" d="m115.0 151.50131l189.03937 0" fill-rule="evenodd"/><path stroke="#000000" stroke-width="2.0" stroke-linejoin="round" stroke-linecap="butt" d="m115.0 151.50131l189.03937 0" fill-rule="evenodd"/><path fill="#000000" fill-opacity="0.0" d="m303.50656 46.501312l-0.50393677 104.50394" fill-rule="evenodd"/><path stroke="#000000" stroke-width="2.0" stroke-linejoin="round" stroke-linecap="butt" d="m303.50656 46.501312l-0.50393677 104.50394" fill-rule="evenodd"/><path fill="#000000" fill-opacity="0.0" d="m303.49054 47.015747l-78.99214 -0.062992096" fill-rule="evenodd"/><path stroke="#000000" stroke-width="2.0" stroke-linejoin="round" stroke-linecap="butt" d="m303.49054 47.015747l-72.13797 -0.057525635" fill-rule="evenodd"/><path fill="#000000" stroke="#000000" stroke-width="2.0" stroke-linecap="butt" d="m231.35257 46.95822l2.2509613 -2.2473717l-6.18132 2.244236l6.1777344 2.254097z" fill-rule="evenodd"/><path fill="#000000" fill-opacity="0.0" d="m238.13124 15.0131235l81.38582 0l0 30.992126l-81.38582 0z" fill-rule="evenodd"/><path fill="#000000" d="m248.06874 33.734997l1.25 -0.125l-0.015625 0.328125q0 0.5625 0.25 1.015625q0.265625 0.453125 0.84375 0.71875q0.59375 0.25 1.390625 0.25q1.15625 0 1.75 -0.5q0.609375 -0.515625 0.609375 -1.15625q0 -0.453125 -0.328125 -0.8125q-0.328125 -0.375 -1.78125 -1.0q-1.125 -0.484375 -1.53125 -0.75q-0.640625 -0.421875 -0.953125 -0.90625q-0.296875 -0.5 -0.296875 -1.140625q0 -0.734375 0.390625 -1.328125q0.40625 -0.59375 1.1875 -0.90625q0.78125 -0.3125 1.75 -0.3125q1.171875 0 1.96875 0.390625q0.796875 0.390625 1.15625 1.046875q0.37498474 0.640625 0.37498474 1.234375q0 0.0625 -0.015625 0.203125l-1.2187347 0.09375q0 -0.40625 -0.078125 -0.625q-0.125 -0.40625 -0.40625 -0.671875q-0.265625 -0.28125 -0.75 -0.4375q-0.484375 -0.171875 -1.0625 -0.171875q-1.046875 0 -1.625 0.46875q-0.453125 0.359375 -0.453125 0.953125q0 0.34375 0.1875 0.625q0.1875 0.28125 0.65625 0.546875q0.34375 0.1875 1.609375 0.75q1.03125 0.453125 1.421875 0.703125q0.515625 0.34375 0.796875 0.84375q0.28125 0.484375 0.28125 1.109375q0 0.78125 -0.46875 1.4375q-0.46875 0.65625 -1.3125 1.015625q-0.828125 0.34375 -1.90625 0.34375q-1.609375 0 -2.640625 -0.703125q-1.03125 -0.703125 -1.03125 -2.53125zm10.06163 -5.125l0.28125 -1.34375l1.171875 0l-0.28125 1.34375l-1.171875 0zm-1.71875 8.203125l1.453125 -6.90625l1.171875 0l-1.4375 6.90625l-1.1875 0zm3.007965 0l1.453125 -6.90625l1.0625 0l-0.25 1.203125q0.6875 -0.71875 1.296875 -1.03125q0.609375 -0.328125 1.234375 -0.328125q0.84375 0 1.3125 0.453125q0.484375 0.453125 0.484375 1.21875q0 0.375 -0.171875 1.203125l-0.875 4.1875l-1.171875 0l0.921875 -4.375q0.125 -0.640625 0.125 -0.953125q0 -0.34375 -0.234375 -0.546875q-0.234375 -0.21875 -0.6875 -0.21875q-0.90625 0 -1.609375 0.65625q-0.703125 0.640625 -1.03125 2.21875l-0.671875 3.21875l-1.1875 0zm7.3499756 0.625l1.1875 0.109375q0 0.40625 0.109375 0.609375q0.109375 0.203125 0.34375 0.3125q0.328125 0.140625 0.828125 0.140625q1.0625 0 1.53125 -0.546875q0.3125 -0.375 0.578125 -1.625l0.109375 -0.5625q-0.921875 0.9375 -1.953125 0.9375q-1.046875 0 -1.75 -0.765625q-0.703125 -0.78125 -0.703125 -2.1875q0 -1.171875 0.546875 -2.140625q0.5625 -0.984375 1.328125 -1.46875q0.765625 -0.5 1.578125 -0.5q1.359375 0 2.09375 1.28125l0.234375 -1.125l1.078125 0l-1.390625 6.671875q-0.21875 1.09375 -0.59375 1.703125q-0.375 0.625 -1.03125 0.953125q-0.65625 0.34375 -1.53125 0.34375q-0.828125 0 -1.4375 -0.21875q-0.59375 -0.203125 -0.890625 -0.625q-0.296875 -0.40625 -0.296875 -0.953125q0 -0.15625 0.03125 -0.34375zm1.46875 -3.6875q0 0.71875 0.140625 1.078125q0.203125 0.5 0.5625 0.765625q0.359375 0.25 0.796875 0.25q0.578125 0 1.140625 -0.40625q0.578125 -0.40625 0.9375 -1.25q0.359375 -0.859375 0.359375 -1.625q0 -0.859375 -0.484375 -1.359375q-0.46875 -0.515625 -1.15625 -0.515625q-0.4375 0 -0.84375 0.234375q-0.390625 0.234375 -0.75 0.703125q-0.34375 0.46875 -0.53125 1.140625q-0.171875 0.65625 -0.171875 0.984375zm5.9124756 3.0625l2.0 -9.546875l1.171875 0l-1.984375 9.546875l-1.1875 0zm8.132965 -2.34375l1.15625 0.109375q-0.25 0.859375 -1.140625 1.625q-0.890625 0.765625 -2.125 0.765625q-0.765625 0 -1.40625 -0.34375q-0.640625 -0.359375 -0.984375 -1.03125q-0.328125 -0.6875 -0.328125 -1.546875q0 -1.140625 0.515625 -2.203125q0.53125 -1.0625 1.359375 -1.578125q0.84375 -0.515625 1.8125 -0.515625q1.234375 0 1.96875 0.765625q0.75 0.765625 0.75 2.09375q0 0.5 -0.09375 1.046875l-5.09375 0q-0.03125 0.1875 -0.03125 0.359375q0 0.96875 0.4375 1.484375q0.453125 0.5 1.109375 0.5q0.59375 0 1.171875 -0.390625q0.59375 -0.390625 0.921875 -1.140625zm-3.421875 -1.71875l3.875 0q0.015625 -0.1875 0.015625 -0.265625q0 -0.875 -0.453125 -1.34375q-0.4375 -0.484375 -1.125 -0.484375q-0.765625 0 -1.390625 0.53125q-0.609375 0.515625 -0.921875 1.5625zm8.521851 3.109375l-0.203125 0.953125q-0.421875 0.109375 -0.8125 0.109375q-0.703125 0 -1.125 -0.34375q-0.3125 -0.25 -0.3125 -0.703125q0 -0.234375 0.171875 -1.046875l0.828125 -4.015625l-0.921875 0l0.1875 -0.90625l0.9375 0l0.34375 -1.703125l1.359375 -0.8125l-0.53125 2.515625l1.15625 0l-0.1875 0.90625l-1.15625 0l-0.796875 3.8125q-0.15625 0.734375 -0.15625 0.875q0 0.21875 0.109375 0.328125q0.125 0.109375 0.40625 0.109375q0.390625 0 0.703125 -0.078125zm1.1560974 -1.671875q0 -2.015625 1.1875 -3.34375q0.984375 -1.09375 2.578125 -1.09375q1.25 0 2.015625 0.78125q0.765625 0.78125 0.765625 2.109375q0 1.1875 -0.484375 2.21875q-0.484375 1.015625 -1.375 1.5625q-0.890625 0.546875 -1.875 0.546875q-0.796875 0 -1.46875 -0.34375q-0.65625 -0.34375 -1.0 -0.96875q-0.34375 -0.640625 -0.34375 -1.46875zm1.171875 -0.109375q0 0.96875 0.46875 1.484375q0.46875 0.5 1.1875 0.5q0.375 0 0.75 -0.15625q0.375 -0.15625 0.6875 -0.46875q0.328125 -0.3125 0.546875 -0.703125q0.21875 -0.40625 0.359375 -0.875q0.203125 -0.640625 0.203125 -1.234375q0 -0.9375 -0.46875 -1.453125q-0.46875 -0.515625 -1.1875 -0.515625q-0.5625 0 -1.015625 0.265625q-0.453125 0.265625 -0.828125 0.78125q-0.359375 0.5 -0.53125 1.171875q-0.171875 0.671875 -0.171875 1.203125zm6.0218506 2.734375l1.453125 -6.90625l1.0625 0l-0.25 1.203125q0.6875 -0.71875 1.296875 -1.03125q0.609375 -0.328125 1.234375 -0.328125q0.84375 0 1.3125 0.453125q0.484375 0.453125 0.484375 1.21875q0 0.375 -0.171875 1.203125l-0.875 4.1875l-1.171875 0l0.921875 -4.375q0.125 -0.640625 0.125 -0.953125q0 -0.34375 -0.234375 -0.546875q-0.234375 -0.21875 -0.6875 -0.21875q-0.90625 0 -1.609375 0.65625q-0.703125 0.640625 -1.03125 2.21875l-0.671875 3.21875l-1.1875 0z" fill-rule="nonzero"/></g></svg>