<svg version="1.1" viewBox="0.0 0.0 735.0787401574803 319.4776902887139" fill="none" stroke="none" stroke-linecap="square" stroke-miterlimit="10" xmlns:xlink="http://www.w3.org/1999/xlink" xmlns="http://www.w3.org/2000/svg"><clipPath id="p.0"><path d="m0 0l735.07874 0l0 319.4777l-735.07874 0l0 -319.4777z" clip-rule="nonzero"/></clipPath><g clip-path="url(#p.0)"><path fill="#000000" fill-opacity="0.0" d="m0 0l735.07874 0l0 319.4777l-735.07874 0z" fill-rule="evenodd"/><path fill="#cccccc" d="m98.50131 118.6601l188.47244 0l0 72.56693l-188.47244 0z" fill-rule="evenodd"/><path stroke="#000000" stroke-width="4.0" stroke-linejoin="round" stroke-linecap="butt" d="m98.50131 118.6601l188.47244 0l0 72.56693l-188.47244 0z" fill-rule="evenodd"/><path fill="#000000" d="m157.60123 161.86357l0 -13.484375l1.921875 0l0 12.046875l6.0625 0l0 1.4375l-7.984375 0zm10.010071 0l0 -9.890625l1.796875 0l0 9.890625l-1.796875 0zm0 -11.6875l0 -1.796875l1.796875 0l0 1.796875l-1.796875 0zm5.4240723 14.96875l0.21875 -1.546875q1.546875 0.734375 3.078125 0.734375q1.703125 0 2.359375 -0.875q0.65625 -0.859375 0.65625 -2.34375l0 -1.5625q-0.390625 0.828125 -1.21875 1.453125q-0.828125 0.625 -2.015625 0.625q-2.03125 0 -2.96875 -1.453125q-0.921875 -1.46875 -0.921875 -3.328125q0 -1.40625 0.546875 -2.625q0.546875 -1.234375 1.515625 -1.84375q0.96875 -0.625 2.21875 -0.625q0.546875 0 1.03125 0.125q0.484375 0.125 0.890625 0.390625q0.421875 0.25 0.921875 0.828125l0 -1.125l1.8125 0l0 7.1875q0 3.15625 -0.53125 4.3125q-0.515625 1.15625 -1.640625 1.671875q-1.109375 0.53125 -2.65625 0.53125q-0.5 0 -1.078125 -0.0625q-0.578125 -0.046875 -1.03125 -0.140625q-0.453125 -0.078125 -1.1875 -0.328125zm6.3125 -6.703125l0 -4.109375q-0.59375 -0.625 -1.234375 -0.921875q-0.640625 -0.3125 -1.34375 -0.3125q-1.1875 0 -1.921875 0.96875q-0.71875 0.953125 -0.71875 2.78125q0 1.421875 0.53125 2.328125q0.546875 0.890625 1.75 0.890625q0.796875 0 1.515625 -0.40625q0.734375 -0.40625 1.421875 -1.21875zm5.2890778 3.421875l0 -14.390625l1.796875 0l0 6.359375q0.671875 -1.0 1.578125 -1.53125q0.90625 -0.546875 1.890625 -0.546875q1.25 0 2.03125 0.796875q0.796875 0.796875 0.796875 2.203125l0 7.109375l-1.796875 0l0 -6.515625q0 -1.03125 -0.1875 -1.359375q-0.1875 -0.328125 -0.515625 -0.5q-0.328125 -0.1875 -0.6875 -0.1875q-0.671875 0 -1.453125 0.40625q-0.765625 0.40625 -1.65625 1.75l0 6.40625l-1.796875 0zm15.984421 0q-0.828125 0.234375 -1.4375 0.234375q-1.328125 0 -2.109375 -0.765625q-0.78125 -0.78125 -0.78125 -2.203125l0 -5.8125l-1.25 0l0 -1.34375l1.25 0l0 -1.796875l1.78125 -0.171875l0 1.96875l2.59375 0l0 1.34375l-2.59375 0l0 5.484375q0 1.046875 0.40625 1.5q0.40625 0.4375 1.28125 0.4375q0.34375 0 0.859375 -0.109375l0 1.234375zm8.02475 0.34375q-1.90625 0 -3.328125 -0.859375q-1.421875 -0.859375 -2.203125 -2.5q-0.765625 -1.65625 -0.765625 -3.71875q0 -2.015625 0.734375 -3.65625q0.75 -1.640625 2.1875 -2.53125q1.453125 -0.890625 3.375 -0.890625q1.921875 0 3.359375 0.890625q1.453125 0.890625 2.203125 2.53125q0.75 1.640625 0.75 3.65625q0 1.984375 -0.734375 3.625q-0.734375 1.640625 -2.171875 2.546875q-1.4375 0.90625 -3.40625 0.90625zm0 -1.4375q2.046875 0 3.15625 -1.515625q1.125 -1.53125 1.125 -4.15625q0 -2.609375 -1.125 -4.109375q-1.125 -1.515625 -3.15625 -1.515625q-2.015625 0 -3.140625 1.515625q-1.125 1.5 -1.125 4.109375q0 2.625 1.109375 4.15625q1.109375 1.515625 3.15625 1.515625zm9.36821 1.09375l0 -8.546875l-1.390625 0l0 -1.34375l1.390625 0l0 -1.1875q0 -1.21875 0.3125 -1.90625q0.328125 -0.703125 1.03125 -1.15625q0.71875 -0.46875 1.875 -0.46875q0.921875 0 2.0625 0.296875l0 1.421875q-1.21875 -0.375 -1.9375 -0.375q-0.421875 0 -0.765625 0.140625q-0.34375 0.125 -0.5625 0.46875q-0.203125 0.328125 -0.203125 1.390625l0 1.375l2.46875 0l0 1.34375l-2.46875 0l0 8.546875l-1.8125 0zm6.8594513 0l0 -8.546875l-1.390625 0l0 -1.34375l1.390625 0l0 -1.1875q0 -1.21875 0.3125 -1.90625q0.328125 -0.703125 1.03125 -1.15625q0.71875 -0.46875 1.875 -0.46875q0.921875 0 2.0625 0.296875l0 1.421875q-1.21875 -0.375 -1.9375 -0.375q-0.421875 0 -0.765625 0.140625q-0.34375 0.125 -0.5625 0.46875q-0.203125 0.328125 -0.203125 1.390625l0 1.375l2.46875 0l0 1.34375l-2.46875 0l0 8.546875l-1.8125 0z" fill-rule="nonzero"/><path fill="#cccccc" d="m315.69553 231.70341l188.47244 0l0 72.56694l-188.47244 0z" fill-rule="evenodd"/><path stroke="#000000" stroke-width="4.0" stroke-linejoin="round" stroke-linecap="butt" d="m315.69553 231.70341l188.47244 0l0 72.56694l-188.47244 0z" fill-rule="evenodd"/><path fill="#000000" d="m351.74387 274.90686l0 -13.484375l1.921875 0l0 5.6875l6.40625 0l0 -5.6875l1.921875 0l0 13.484375l-1.921875 0l0 -6.375l-6.40625 0l0 6.375l-1.921875 0zm13.772278 0l0 -9.890625l1.796875 0l0 9.890625l-1.796875 0zm0 -11.6875l0 -1.796875l1.796875 0l0 1.796875l-1.796875 0zm5.4240723 14.96875l0.21875 -1.546875q1.546875 0.734375 3.078125 0.734375q1.703125 0 2.359375 -0.875q0.65625 -0.859375 0.65625 -2.34375l0 -1.5625q-0.390625 0.828125 -1.21875 1.453125q-0.828125 0.625 -2.015625 0.625q-2.03125 0 -2.96875 -1.453125q-0.921875 -1.46875 -0.921875 -3.328125q0 -1.40625 0.546875 -2.625q0.546875 -1.234375 1.515625 -1.84375q0.96875 -0.625 2.21875 -0.625q0.546875 0 1.03125 0.125q0.484375 0.125 0.890625 0.390625q0.421875 0.25 0.921875 0.828125l0 -1.125l1.8125 0l0 7.1875q0 3.15625 -0.53125 4.3125q-0.515625 1.15625 -1.640625 1.671875q-1.109375 0.53125 -2.65625 0.53125q-0.5 0 -1.078125 -0.0625q-0.578125 -0.046875 -1.03125 -0.140625q-0.453125 -0.078125 -1.1875 -0.328125zm6.3125 -6.703125l0 -4.109375q-0.59375 -0.625 -1.234375 -0.921875q-0.640625 -0.3125 -1.34375 -0.3125q-1.1875 0 -1.921875 0.96875q-0.71875 0.953125 -0.71875 2.78125q0 1.421875 0.53125 2.328125q0.546875 0.890625 1.75 0.890625q0.796875 0 1.515625 -0.40625q0.734375 -0.40625 1.421875 -1.21875zm5.289093 3.421875l0 -14.390625l1.796875 0l0 6.359375q0.671875 -1.0 1.578125 -1.53125q0.90625 -0.546875 1.890625 -0.546875q1.25 0 2.03125 0.796875q0.796875 0.796875 0.796875 2.203125l0 7.109375l-1.796875 0l0 -6.515625q0 -1.03125 -0.1875 -1.359375q-0.1875 -0.328125 -0.515625 -0.5q-0.328125 -0.1875 -0.6875 -0.1875q-0.671875 0 -1.453125 0.40625q-0.765625 0.40625 -1.65625 1.75l0 6.40625l-1.796875 0zm11.5156555 0l0 -13.484375l1.90625 0l0 13.484375l-1.90625 0zm5.4371033 0l0 -9.890625l1.796875 0l0 1.859375q0.671875 -1.0 1.578125 -1.53125q0.90625 -0.546875 1.890625 -0.546875q1.25 0 2.03125 0.796875q0.796875 0.796875 0.796875 2.203125l0 7.109375l-1.796875 0l0 -6.515625q0 -1.03125 -0.1875 -1.359375q-0.1875 -0.328125 -0.515625 -0.5q-0.328125 -0.1875 -0.6875 -0.1875q-0.671875 0 -1.453125 0.40625q-0.765625 0.40625 -1.65625 1.75l0 6.40625l-1.796875 0zm15.984436 0q-0.828125 0.234375 -1.4375 0.234375q-1.328125 0 -2.109375 -0.765625q-0.78125 -0.78125 -0.78125 -2.203125l0 -5.8125l-1.25 0l0 -1.34375l1.25 0l0 -1.796875l1.78125 -0.171875l0 1.96875l2.59375 0l0 1.34375l-2.59375 0l0 5.484375q0 1.046875 0.40625 1.5q0.40625 0.4375 1.28125 0.4375q0.34375 0 0.859375 -0.109375l0 1.234375zm9.821625 -0.3125q-1.8125 0.546875 -3.09375 0.546875q-2.296875 0 -3.625 -1.546875q-1.3125 -1.5625 -1.3125 -3.671875q0 -1.40625 0.578125 -2.65625q0.578125 -1.265625 1.515625 -1.875q0.953125 -0.609375 2.234375 -0.609375q1.703125 0 2.71875 1.234375q1.03125 1.234375 1.03125 3.6875l-0.015625 0.53125l-6.234375 0q0.140625 1.3125 0.5625 2.03125q0.421875 0.703125 1.109375 1.109375q0.703125 0.390625 1.78125 0.390625q0.546875 0 1.078125 -0.09375q0.546875 -0.09375 1.671875 -0.5l0 1.421875zm-6.125 -5.703125l4.359375 0q0 -1.484375 -0.578125 -2.109375q-0.578125 -0.640625 -1.46875 -0.640625q-1.03125 0 -1.609375 0.6875q-0.578125 0.6875 -0.703125 2.0625zm9.268921 6.015625l0 -9.890625l1.796875 0l0 1.859375q0.671875 -1.0 1.578125 -1.53125q0.90625 -0.546875 1.890625 -0.546875q1.25 0 2.03125 0.796875q0.796875 0.796875 0.796875 2.203125l0 7.109375l-1.796875 0l0 -6.515625q0 -1.03125 -0.1875 -1.359375q-0.1875 -0.328125 -0.515625 -0.5q-0.328125 -0.1875 -0.6875 -0.1875q-0.671875 0 -1.453125 0.40625q-0.765625 0.40625 -1.65625 1.75l0 6.40625l-1.796875 0zm11.218811 -0.34375l0 -1.65625q1.75 0.875 3.046875 0.875q0.765625 0 1.28125 -0.40625q0.515625 -0.421875 0.515625 -1.0625q0 -0.390625 -0.25 -0.765625q-0.25 -0.359375 -1.171875 -0.75l-1.046875 -0.453125q-1.21875 -0.5 -1.765625 -1.15625q-0.5625 -0.65625 -0.5625 -1.609375q0 -1.203125 0.859375 -1.984375q0.875 -0.796875 2.5625 -0.796875q0.828125 0 2.046875 0.21875l0.375 0.078125l0 1.5q-1.5 -0.453125 -2.390625 -0.453125q-0.859375 0 -1.296875 0.375q-0.421875 0.375 -0.421875 0.890625q0 0.390625 0.28125 0.71875q0.296875 0.328125 1.03125 0.640625l0.859375 0.359375q1.734375 0.75 2.21875 1.46875q0.46875 0.71875 0.46875 1.5625q0 0.8125 -0.4375 1.5q-0.4375 0.6875 -1.3125 1.09375q-0.859375 0.390625 -1.90625 0.390625q-1.234375 0 -2.984375 -0.578125zm9.86969 0.34375l0 -9.890625l1.796875 0l0 9.890625l-1.796875 0zm0 -11.6875l0 -1.796875l1.796875 0l0 1.796875l-1.796875 0zm9.799072 11.6875q-0.828125 0.234375 -1.4375 0.234375q-1.328125 0 -2.109375 -0.765625q-0.78125 -0.78125 -0.78125 -2.203125l0 -5.8125l-1.25 0l0 -1.34375l1.25 0l0 -1.796875l1.78125 -0.171875l0 1.96875l2.59375 0l0 1.34375l-2.59375 0l0 5.484375q0 1.046875 0.40625 1.5q0.40625 0.4375 1.28125 0.4375q0.34375 0 0.859375 -0.109375l0 1.234375zm3.1497498 3.59375l1.59375 -3.59375l-3.828125 -9.890625l1.953125 0l2.828125 7.453125l3.015625 -7.453125l1.703125 0l-5.40625 13.484375l-1.859375 0z" fill-rule="nonzero"/><path fill="#cccccc" d="m315.69553 5.616798l188.47244 0l0 72.566925l-188.47244 0z" fill-rule="evenodd"/><path stroke="#000000" stroke-width="4.0" stroke-linejoin="round" stroke-linecap="butt" d="m315.69553 5.616798l188.47244 0l0 72.566925l-188.47244 0z" fill-rule="evenodd"/><path fill="#000000" d="m355.0096 48.82026l0 -13.484375l1.921875 0l0 12.046875l6.0625 0l0 1.4375l-7.984375 0zm13.947571 0.234375q-1.421875 0 -2.46875 -0.578125q-1.03125 -0.578125 -1.640625 -1.828125q-0.609375 -1.25 -0.609375 -2.78125q0 -1.4375 0.546875 -2.671875q0.5625 -1.234375 1.625 -1.859375q1.0625 -0.625 2.546875 -0.625q1.40625 0 2.453125 0.578125q1.046875 0.5625 1.65625 1.8125q0.609375 1.25 0.609375 2.765625q0 1.46875 -0.578125 2.703125q-0.5625 1.234375 -1.609375 1.859375q-1.046875 0.625 -2.53125 0.625zm0 -1.359375q1.328125 0 2.0625 -0.984375q0.75 -1.0 0.75 -2.84375q0 -1.828125 -0.75 -2.8125q-0.734375 -1.0 -2.0625 -1.0q-1.328125 0 -2.078125 1.0q-0.734375 0.984375 -0.734375 2.8125q0 1.84375 0.734375 2.84375q0.75 0.984375 2.078125 0.984375zm8.662872 1.125l-2.828125 -9.890625l1.765625 0l2.15625 7.65625l2.34375 -7.65625l1.796875 0l2.046875 7.65625l2.484375 -7.65625l1.546875 0l-3.234375 9.890625l-1.796875 0l-2.09375 -7.65625l-2.375 7.65625l-1.8125 0zm13.171661 0l0 -13.484375l1.90625 0l0 13.484375l-1.90625 0zm5.4371033 0l0 -9.890625l1.796875 0l0 1.859375q0.671875 -1.0 1.578125 -1.53125q0.90625 -0.546875 1.890625 -0.546875q1.25 0 2.03125 0.796875q0.796875 0.796875 0.796875 2.203125l0 7.109375l-1.796875 0l0 -6.515625q0 -1.03125 -0.1875 -1.359375q-0.1875 -0.328125 -0.515625 -0.5q-0.328125 -0.1875 -0.6875 -0.1875q-0.671875 0 -1.453125 0.40625q-0.765625 0.40625 -1.65625 1.75l0 6.40625l-1.796875 0zm15.984436 0q-0.828125 0.234375 -1.4375 0.234375q-1.328125 0 -2.109375 -0.765625q-0.78125 -0.78125 -0.78125 -2.203125l0 -5.8125l-1.25 0l0 -1.34375l1.25 0l0 -1.796875l1.78125 -0.171875l0 1.96875l2.59375 0l0 1.34375l-2.59375 0l0 5.484375q0 1.046875 0.40625 1.5q0.40625 0.4375 1.28125 0.4375q0.34375 0 0.859375 -0.109375l0 1.234375zm9.821625 -0.3125q-1.8125 0.546875 -3.09375 0.546875q-2.296875 0 -3.625 -1.546875q-1.3125 -1.5625 -1.3125 -3.671875q0 -1.40625 0.578125 -2.65625q0.578125 -1.265625 1.515625 -1.875q0.953125 -0.609375 2.234375 -0.609375q1.703125 0 2.71875 1.234375q1.03125 1.234375 1.03125 3.6875l-0.015625 0.53125l-6.234375 0q0.140625 1.3125 0.5625 2.03125q0.421875 0.703125 1.109375 1.109375q0.703125 0.390625 1.78125 0.390625q0.546875 0 1.078125 -0.09375q0.546875 -0.09375 1.671875 -0.5l0 1.421875zm-6.125 -5.703125l4.359375 0q0 -1.484375 -0.578125 -2.109375q-0.578125 -0.640625 -1.46875 -0.640625q-1.03125 0 -1.609375 0.6875q-0.578125 0.6875 -0.703125 2.0625zm9.268921 6.015625l0 -9.890625l1.796875 0l0 1.859375q0.671875 -1.0 1.578125 -1.53125q0.90625 -0.546875 1.890625 -0.546875q1.25 0 2.03125 0.796875q0.796875 0.796875 0.796875 2.203125l0 7.109375l-1.796875 0l0 -6.515625q0 -1.03125 -0.1875 -1.359375q-0.1875 -0.328125 -0.515625 -0.5q-0.328125 -0.1875 -0.6875 -0.1875q-0.671875 0 -1.453125 0.40625q-0.765625 0.40625 -1.65625 1.75l0 6.40625l-1.796875 0zm11.218811 -0.34375l0 -1.65625q1.75 0.875 3.046875 0.875q0.765625 0 1.28125 -0.40625q0.515625 -0.421875 0.515625 -1.0625q0 -0.390625 -0.25 -0.765625q-0.25 -0.359375 -1.171875 -0.75l-1.046875 -0.453125q-1.21875 -0.5 -1.765625 -1.15625q-0.5625 -0.65625 -0.5625 -1.609375q0 -1.203125 0.859375 -1.984375q0.875 -0.796875 2.5625 -0.796875q0.828125 0 2.046875 0.21875l0.375 0.078125l0 1.5q-1.5 -0.453125 -2.390625 -0.453125q-0.859375 0 -1.296875 0.375q-0.421875 0.375 -0.421875 0.890625q0 0.390625 0.28125 0.71875q0.296875 0.328125 1.03125 0.640625l0.859375 0.359375q1.734375 0.75 2.21875 1.46875q0.46875 0.71875 0.46875 1.5625q0 0.8125 -0.4375 1.5q-0.4375 0.6875 -1.3125 1.09375q-0.859375 0.390625 -1.90625 0.390625q-1.234375 0 -2.984375 -0.578125zm9.869659 0.34375l0 -9.890625l1.796875 0l0 9.890625l-1.796875 0zm0 -11.6875l0 -1.796875l1.796875 0l0 1.796875l-1.796875 0zm9.799072 11.6875q-0.828125 0.234375 -1.4375 0.234375q-1.328125 0 -2.109375 -0.765625q-0.78125 -0.78125 -0.78125 -2.203125l0 -5.8125l-1.25 0l0 -1.34375l1.25 0l0 -1.796875l1.78125 -0.171875l0 1.96875l2.59375 0l0 1.34375l-2.59375 0l0 5.484375q0 1.046875 0.40625 1.5q0.40625 0.4375 1.28125 0.4375q0.34375 0 0.859375 -0.109375l0 1.234375zm3.1497498 3.59375l1.59375 -3.59375l-3.828125 -9.890625l1.953125 0l2.828125 7.453125l3.015625 -7.453125l1.703125 0l-5.40625 13.484375l-1.859375 0z" fill-rule="nonzero"/><path fill="#cccccc" d="m532.8898 118.6601l188.47241 0l0 72.56693l-188.47241 0z" fill-rule="evenodd"/><path stroke="#000000" stroke-width="4.0" stroke-linejoin="round" stroke-linecap="butt" d="m532.8898 118.6601l188.47241 0l0 72.56693l-188.47241 0z" fill-rule="evenodd"/><path fill="#000000" d="m553.7981 161.86357l0 -13.484375l2.65625 0l3.734375 10.4375l3.84375 -10.4375l2.375 0l0 13.484375l-1.796875 0l0 -10.96875l-3.703125 10.0625l-1.859375 0l-3.609375 -10.09375l0 11.0l-1.640625 0zm23.381653 -0.3125q-1.8125 0.546875 -3.09375 0.546875q-2.296875 0 -3.625 -1.546875q-1.3125 -1.5625 -1.3125 -3.671875q0 -1.40625 0.578125 -2.65625q0.578125 -1.265625 1.515625 -1.875q0.953125 -0.609375 2.234375 -0.609375q1.703125 0 2.71875 1.234375q1.03125 1.234375 1.03125 3.6875l-0.015625 0.53125l-6.234375 0q0.140625 1.3125 0.5625 2.03125q0.421875 0.703125 1.109375 1.109375q0.703125 0.390625 1.78125 0.390625q0.546875 0 1.078125 -0.09375q0.546875 -0.09375 1.671875 -0.5l0 1.421875zm-6.125 -5.703125l4.359375 0q0 -1.484375 -0.578125 -2.109375q-0.578125 -0.640625 -1.46875 -0.640625q-1.03125 0 -1.609375 0.6875q-0.578125 0.6875 -0.703125 2.0625zm15.612671 6.015625l0 -1.859375q-0.546875 1.046875 -1.375 1.578125q-0.8125 0.515625 -1.921875 0.515625q-1.8125 0 -2.828125 -1.34375q-1.0 -1.34375 -1.0 -3.53125q0 -2.34375 1.125 -3.90625q1.125 -1.5625 3.09375 -1.5625q0.5625 0 1.078125 0.140625q0.53125 0.125 0.9375 0.375q0.40625 0.25 0.890625 0.828125l0 -5.625l1.8125 0l0 14.390625l-1.8125 0zm0 -7.53125q-0.921875 -0.828125 -1.46875 -1.03125q-0.546875 -0.203125 -1.171875 -0.203125q-1.3125 0 -1.953125 1.109375q-0.625 1.09375 -0.625 2.84375q0 1.609375 0.5625 2.546875q0.5625 0.921875 1.734375 0.921875q0.75 0 1.484375 -0.40625q0.734375 -0.421875 1.4375 -1.234375l0 -4.546875zm5.3984375 7.53125l0 -9.890625l1.796875 0l0 9.890625l-1.796875 0zm0 -11.6875l0 -1.796875l1.796875 0l0 1.796875l-1.796875 0zm11.580322 11.6875l0 -1.859375q-0.703125 1.0 -1.609375 1.546875q-0.890625 0.546875 -1.859375 0.546875q-1.25 0 -2.046875 -0.796875q-0.78125 -0.796875 -0.78125 -2.21875l0 -7.109375l1.796875 0l0 6.515625q0 1.03125 0.171875 1.359375q0.1875 0.328125 0.515625 0.515625q0.328125 0.171875 0.703125 0.171875q0.65625 0 1.421875 -0.40625q0.78125 -0.40625 1.6875 -1.75l0 -6.40625l1.796875 0l0 9.890625l-1.796875 0zm5.390625 0l0 -9.890625l1.796875 0l0 1.859375q0.546875 -0.875 1.390625 -1.46875q0.859375 -0.609375 1.96875 -0.609375q0.65625 0 1.140625 0.21875q0.484375 0.203125 0.875 0.59375q0.390625 0.375 0.703125 1.265625q0.546875 -0.890625 1.375 -1.484375q0.84375 -0.609375 1.9375 -0.609375q1.046875 0 1.890625 0.65625q0.859375 0.65625 0.859375 2.265625l0 7.203125l-1.8125 0l0 -6.921875q0 -0.96875 -0.421875 -1.328125q-0.40625 -0.359375 -0.90625 -0.359375q-0.640625 0 -1.328125 0.40625q-0.6875 0.390625 -1.59375 1.578125l0 6.625l-1.8125 0l0 -6.921875q0 -0.984375 -0.421875 -1.34375q-0.421875 -0.359375 -0.9375 -0.359375q-0.65625 0 -1.3125 0.40625q-0.65625 0.390625 -1.59375 1.59375l0 6.625l-1.796875 0zm17.354858 0l0 -13.484375l1.90625 0l0 13.484375l-1.90625 0zm5.437134 0l0 -9.890625l1.796875 0l0 1.859375q0.671875 -1.0 1.578125 -1.53125q0.90625 -0.546875 1.890625 -0.546875q1.25 0 2.03125 0.796875q0.796875 0.796875 0.796875 2.203125l0 7.109375l-1.796875 0l0 -6.515625q0 -1.03125 -0.1875 -1.359375q-0.1875 -0.328125 -0.515625 -0.5q-0.328125 -0.1875 -0.6875 -0.1875q-0.671875 0 -1.453125 0.40625q-0.765625 0.40625 -1.65625 1.75l0 6.40625l-1.796875 0zm15.984436 0q-0.828125 0.234375 -1.4375 0.234375q-1.328125 0 -2.109375 -0.765625q-0.78125 -0.78125 -0.78125 -2.203125l0 -5.8125l-1.25 0l0 -1.34375l1.25 0l0 -1.796875l1.78125 -0.171875l0 1.96875l2.59375 0l0 1.34375l-2.59375 0l0 5.484375q0 1.046875 0.40625 1.5q0.40625 0.4375 1.28125 0.4375q0.34375 0 0.859375 -0.109375l0 1.234375zm9.821594 -0.3125q-1.8125 0.546875 -3.09375 0.546875q-2.296875 0 -3.625 -1.546875q-1.3125 -1.5625 -1.3125 -3.671875q0 -1.40625 0.578125 -2.65625q0.578125 -1.265625 1.515625 -1.875q0.953125 -0.609375 2.234375 -0.609375q1.703125 0 2.71875 1.234375q1.03125 1.234375 1.03125 3.6875l-0.015625 0.53125l-6.234375 0q0.140625 1.3125 0.5625 2.03125q0.421875 0.703125 1.109375 1.109375q0.703125 0.390625 1.78125 0.390625q0.546875 0 1.078125 -0.09375q0.546875 -0.09375 1.671875 -0.5l0 1.421875zm-6.125 -5.703125l4.359375 0q0 -1.484375 -0.578125 -2.109375q-0.578125 -0.640625 -1.46875 -0.640625q-1.03125 0 -1.609375 0.6875q-0.578125 0.6875 -0.703125 2.0625zm9.268921 6.015625l0 -9.890625l1.796875 0l0 1.859375q0.671875 -1.0 1.578125 -1.53125q0.90625 -0.546875 1.890625 -0.546875q1.25 0 2.03125 0.796875q0.796875 0.796875 0.796875 2.203125l0 7.109375l-1.796875 0l0 -6.515625q0 -1.03125 -0.1875 -1.359375q-0.1875 -0.328125 -0.515625 -0.5q-0.328125 -0.1875 -0.6875 -0.1875q-0.671875 0 -1.453125 0.40625q-0.765625 0.40625 -1.65625 1.75l0 6.40625l-1.796875 0zm11.218811 -0.34375l0 -1.65625q1.75 0.875 3.046875 0.875q0.765625 0 1.28125 -0.40625q0.515625 -0.421875 0.515625 -1.0625q0 -0.390625 -0.25 -0.765625q-0.25 -0.359375 -1.171875 -0.75l-1.046875 -0.453125q-1.21875 -0.5 -1.765625 -1.15625q-0.5625 -0.65625 -0.5625 -1.609375q0 -1.203125 0.859375 -1.984375q0.875 -0.796875 2.5625 -0.796875q0.828125 0 2.046875 0.21875l0.375 0.078125l0 1.5q-1.5 -0.453125 -2.390625 -0.453125q-0.859375 0 -1.296875 0.375q-0.421875 0.375 -0.421875 0.890625q0 0.390625 0.28125 0.71875q0.296875 0.328125 1.03125 0.640625l0.859375 0.359375q1.734375 0.75 2.21875 1.46875q0.46875 0.71875 0.46875 1.5625q0 0.8125 -0.4375 1.5q-0.4375 0.6875 -1.3125 1.09375q-0.859375 0.390625 -1.90625 0.390625q-1.234375 0 -2.984375 -0.578125zm9.86969 0.34375l0 -9.890625l1.796875 0l0 9.890625l-1.796875 0zm0 -11.6875l0 -1.796875l1.796875 0l0 1.796875l-1.796875 0zm9.799072 11.6875q-0.828125 0.234375 -1.4375 0.234375q-1.328125 0 -2.109375 -0.765625q-0.78125 -0.78125 -0.78125 -2.203125l0 -5.8125l-1.25 0l0 -1.34375l1.25 0l0 -1.796875l1.78125 -0.171875l0 1.96875l2.59375 0l0 1.34375l-2.59375 0l0 5.484375q0 1.046875 0.40625 1.5q0.40625 0.4375 1.28125 0.4375q0.34375 0 0.859375 -0.109375l0 1.234375zm3.1497803 3.59375l1.59375 -3.59375l-3.828125 -9.890625l1.953125 0l2.828125 7.453125l3.015625 -7.453125l1.703125 0l-5.40625 13.484375l-1.859375 0z" fill-rule="nonzero"/><path fill="#000000" fill-opacity="0.0" d="m192.73753 118.6601l0 -76.755905l122.96062 0" fill-rule="evenodd"/><path stroke="#000000" stroke-width="3.0" stroke-linejoin="round" stroke-linecap="butt" d="m192.73753 118.6601l0 -76.755905l104.96062 0" fill-rule="evenodd"/><path fill="#000000" stroke="#000000" stroke-width="3.0" stroke-linecap="butt" d="m297.69815 46.859398l13.614319 -4.9552l-13.614319 -4.9551964z" fill-rule="evenodd"/><path fill="#000000" fill-opacity="0.0" d="m315.69553 267.98688l-122.96062 0l0 -76.755905" fill-rule="evenodd"/><path stroke="#000000" stroke-width="3.0" stroke-linejoin="round" stroke-linecap="butt" d="m315.69553 267.98688l-122.96062 0l0 -58.755905" fill-rule="evenodd"/><path fill="#000000" stroke="#000000" stroke-width="3.0" stroke-linecap="butt" d="m197.69011 209.23097l-4.9552 -13.614288l-4.9552 13.614288z" fill-rule="evenodd"/><path fill="#000000" fill-opacity="0.0" d="m627.126 191.22704l0 76.755905l-122.96063 0" fill-rule="evenodd"/><path stroke="#000000" stroke-width="3.0" stroke-linejoin="round" stroke-linecap="butt" d="m627.126 191.22704l0 76.755905l-104.96063 0" fill-rule="evenodd"/><path fill="#000000" stroke="#000000" stroke-width="3.0" stroke-linecap="butt" d="m522.16534 263.02774l-13.614288 4.9552l13.614288 4.9552z" fill-rule="evenodd"/><path fill="#000000" fill-opacity="0.0" d="m504.16797 41.90026l122.96063 0l0 76.755905" fill-rule="evenodd"/><path stroke="#000000" stroke-width="3.0" stroke-linejoin="round" stroke-linecap="butt" d="m504.16797 41.90026l122.96063 0l0 58.755905" fill-rule="evenodd"/><path fill="#000000" stroke="#000000" stroke-width="3.0" stroke-linecap="butt" d="m622.1734 100.656166l4.9552 13.614296l4.9552 -13.614296z" fill-rule="evenodd"/><path fill="#000000" fill-opacity="0.0" d="m6.5958004 156.44095l91.90551 -0.3779602" fill-rule="evenodd"/><path stroke="#000000" stroke-width="3.0" stroke-linejoin="round" stroke-linecap="butt" d="m6.5958004 156.44095l73.90566 -0.30393982" fill-rule="evenodd"/><path fill="#000000" stroke="#000000" stroke-width="3.0" stroke-linecap="butt" d="m80.52184 161.09216l13.593803 -5.011139l-13.63456 -4.89917z" fill-rule="evenodd"/></g></svg>