<svg version="1.1" viewBox="0.0 0.0 600.0 293.46456692913387" fill="none" stroke="none" stroke-linecap="square" stroke-miterlimit="10" xmlns:xlink="http://www.w3.org/1999/xlink" xmlns="http://www.w3.org/2000/svg"><clipPath id="p.0"><path d="m0 0l600.0 0l0 293.46457l-600.0 0l0 -293.46457z" clip-rule="nonzero"/></clipPath><g clip-path="url(#p.0)"><path fill="#000000" fill-opacity="0.0" d="m0 0l600.0 0l0 293.46457l-600.0 0z" fill-rule="evenodd"/><path fill="#000000" fill-opacity="0.0" d="m15.6640415 174.25197l216.15747 0l0 39.118103l-216.15747 0z" fill-rule="evenodd"/><path stroke="#000000" stroke-width="3.0" stroke-linejoin="round" stroke-linecap="butt" d="m15.6640415 174.25197l216.15747 0l0 39.118103l-216.15747 0z" fill-rule="evenodd"/><path fill="#000000" d="m54.42072 198.61102l-3.109375 0l-2.078125 -3.859375l-0.90625 0l0 3.859375l-2.40625 0l0 -9.640625l4.203125 0q0.828125 0 1.328125 0.140625q0.5 0.140625 0.90625 0.484375q0.765625 0.640625 0.765625 1.78125q0 0.578125 -0.21875 1.109375q-0.21875 0.53125 -0.625 0.953125q-0.390625 0.421875 -0.953125 0.6875l3.09375 4.484375zm-3.859375 -6.9375q0 -0.59375 -0.40625 -0.84375q-0.390625 -0.25 -1.34375 -0.25l-0.484375 0l0 2.734375l0.421875 0q0.859375 0 1.328125 -0.421875q0.484375 -0.4375 0.484375 -1.21875zm11.593842 6.703125q-0.234375 0.0625 -0.4375 0.109375q-1.296875 0.296875 -2.515625 0.296875q-0.890625 0 -1.65625 -0.21875q-0.75 -0.234375 -1.234375 -0.625q-0.609375 -0.515625 -0.984375 -1.34375q-0.359375 -0.84375 -0.359375 -1.703125q0 -0.8125 0.265625 -1.5q0.28125 -0.6875 0.78125 -1.171875q0.5 -0.484375 1.203125 -0.734375q0.71875 -0.265625 1.578125 -0.265625q0.828125 0 1.40625 0.203125q0.578125 0.203125 1.0 0.625q0.5625 0.59375 0.75 1.328125q0.09375 0.359375 0.125 0.640625q0.046875 0.265625 0.0625 0.640625q0.015625 0.359375 0.015625 0.90625l-4.53125 0q0.03125 0.3125 0.078125 0.515625q0.046875 0.1875 0.171875 0.375q0.234375 0.359375 0.640625 0.515625q0.421875 0.15625 1.15625 0.15625q0.671875 0 1.109375 -0.078125q0.4375 -0.078125 1.375 -0.375l0 1.703125zm-2.421875 -4.09375l0 -0.109375q0 -0.8125 -0.234375 -1.171875q-0.21875 -0.375 -0.71875 -0.375q-0.359375 0 -0.625 0.203125q-0.25 0.1875 -0.390625 0.5625q-0.140625 0.359375 -0.171875 0.890625l2.140625 0zm11.164776 4.328125l-2.5625 0l0 -1.359375l-0.015625 0q-0.265625 0.703125 -0.890625 1.109375q-0.609375 0.40625 -1.40625 0.40625q-0.859375 0 -1.5 -0.421875q-0.6249962 -0.4375 -0.9531212 -1.25q-0.328125 -0.828125 -0.328125 -1.921875q0 -1.21875 0.375 -2.109375q0.375 -0.890625 1.0781212 -1.359375q0.703125 -0.484375 1.640625 -0.484375q0.59375 0 1.015625 0.171875q0.421875 0.171875 0.96875 0.625l0.015625 0l0 -0.625l0 -3.0625l2.5625 0l0 10.28125zm-2.5625 -2.765625l0 -2.421875q-0.484375 -0.671875 -1.109375 -0.671875q-0.359375 0 -0.65625 0.28125q-0.28125 0.28125 -0.4375 0.8125q-0.15625 0.515625 -0.15625 1.140625q0 0.890625 0.3125 1.390625q0.3125 0.5 0.859375 0.5q0.671875 0 1.1875 -1.03125zm11.273727 2.53125q-0.234375 0.0625 -0.4375 0.109375q-1.296875 0.296875 -2.515625 0.296875q-0.890625 0 -1.65625 -0.21875q-0.75 -0.234375 -1.234375 -0.625q-0.609375 -0.515625 -0.984375 -1.34375q-0.359375 -0.84375 -0.359375 -1.703125q0 -0.8125 0.265625 -1.5q0.28125 -0.6875 0.78125 -1.171875q0.5 -0.484375 1.203125 -0.734375q0.71875 -0.265625 1.578125 -0.265625q0.828125 0 1.40625 0.203125q0.578125 0.203125 1.0 0.625q0.5625 0.59375 0.75 1.328125q0.09375 0.359375 0.125 0.640625q0.046875 0.265625 0.0625 0.640625q0.015625 0.359375 0.015625 0.90625l-4.53125 0q0.03125 0.3125 0.078125 0.515625q0.046875 0.1875 0.171875 0.375q0.234375 0.359375 0.640625 0.515625q0.421875 0.15625 1.15625 0.15625q0.671875 0 1.109375 -0.078125q0.4375 -0.078125 1.375 -0.375l0 1.703125zm-2.421875 -4.09375l0 -0.109375q0 -0.8125 -0.234375 -1.171875q-0.21875 -0.375 -0.71875 -0.375q-0.359375 0 -0.625 0.203125q-0.25 0.1875 -0.390625 0.5625q-0.140625 0.359375 -0.171875 0.890625l2.140625 0zm9.336655 -4.25q-0.25 -0.125 -0.28125 -0.140625q-0.234375 -0.109375 -0.609375 -0.1875q-0.359375 -0.09375 -0.671875 -0.09375q-0.46875 0 -0.6875 0.390625q-0.203125 0.375 -0.203125 1.203125l0 0.1875l1.84375 0l0 1.4375l-1.84375 0l0 5.78125l-2.578125 0l0 -5.78125l-0.96875 0l0 -1.4375l0.96875 0l0 -0.1875q0 -1.046875 0.3125 -1.71875q0.3125 -0.671875 0.96875 -0.984375q0.671875 -0.328125 1.6875 -0.328125q1.0625 0 2.0625 0.28125l0 1.578125zm3.5184326 0.21875l-2.5625 0l0 -1.921875l2.5625 0l0 1.921875zm0 8.359375l-2.5625 0l0 -7.21875l2.5625 0l0 7.21875zm9.309326 0l-2.5625 0l0 -4.484375q0 -0.53125 -0.15625 -0.75q-0.140625 -0.234375 -0.46875 -0.234375q-0.34375 0 -0.65625 0.265625q-0.3125 0.25 -0.65625 0.796875l0 4.40625l-2.5625 0l0 -7.21875l2.5625 0l0 1.359375l0.03125 0q0.34375 -0.734375 0.953125 -1.125q0.625 -0.40625 1.40625 -0.40625q0.875 0 1.46875 0.53125q0.359375 0.328125 0.5 0.75q0.140625 0.40625 0.140625 1.078125l0 5.03125zm8.625305 -0.234375q-0.234375 0.0625 -0.4375 0.109375q-1.296875 0.296875 -2.515625 0.296875q-0.890625 0 -1.65625 -0.21875q-0.75 -0.234375 -1.234375 -0.625q-0.609375 -0.515625 -0.984375 -1.34375q-0.359375 -0.84375 -0.359375 -1.703125q0 -0.8125 0.265625 -1.5q0.28125 -0.6875 0.78125 -1.171875q0.5 -0.484375 1.203125 -0.734375q0.71875 -0.265625 1.578125 -0.265625q0.828125 0 1.40625 0.203125q0.578125 0.203125 1.0 0.625q0.5625 0.59375 0.75 1.328125q0.09375 0.359375 0.125 0.640625q0.046875 0.265625 0.0625 0.640625q0.015625 0.359375 0.015625 0.90625l-4.53125 0q0.03125 0.3125 0.078125 0.515625q0.046875 0.1875 0.171875 0.375q0.234375 0.359375 0.640625 0.515625q0.421875 0.15625 1.15625 0.15625q0.671875 0 1.109375 -0.078125q0.4375 -0.078125 1.375 -0.375l0 1.703125zm-2.421875 -4.09375l0 -0.109375q0 -0.8125 -0.234375 -1.171875q-0.21875 -0.375 -0.71875 -0.375q-0.359375 0 -0.625 0.203125q-0.25 0.1875 -0.390625 0.5625q-0.140625 0.359375 -0.171875 0.890625l2.140625 0zm11.16478 4.328125l-2.5625 0l0 -1.359375l-0.015625 0q-0.265625 0.703125 -0.890625 1.109375q-0.609375 0.40625 -1.40625 0.40625q-0.859375 0 -1.5 -0.421875q-0.625 -0.4375 -0.953125 -1.25q-0.328125 -0.828125 -0.328125 -1.921875q0 -1.21875 0.375 -2.109375q0.375 -0.890625 1.078125 -1.359375q0.703125 -0.484375 1.640625 -0.484375q0.59375 0 1.015625 0.171875q0.421875 0.171875 0.96875 0.625l0.015625 0l0 -0.625l0 -3.0625l2.5625 0l0 10.28125zm-2.5625 -2.765625l0 -2.421875q-0.484375 -0.671875 -1.109375 -0.671875q-0.359375 0 -0.65625 0.28125q-0.28125 0.28125 -0.4375 0.8125q-0.15625 0.515625 -0.15625 1.140625q0 0.890625 0.3125 1.390625q0.3125 0.5 0.859375 0.5q0.671875 0 1.1875 -1.03125zm13.804977 2.765625l-2.5625 0l-0.953125 -2.453125l-3.765625 0l-0.953125 2.453125l-1.71875 0l3.703125 -9.640625l2.5625 0l3.6875 9.640625zm-4.09375 -3.96875l-1.3125 -3.421875l-1.3125 3.421875l2.625 0zm13.083221 0.1875q0 0.90625 -0.21875 1.640625q-0.203125 0.734375 -0.609375 1.25q-0.40625 0.5 -1.0 0.78125q-0.578125 0.265625 -1.296875 0.265625q-0.5625 0 -0.953125 -0.15625q-0.390625 -0.15625 -1.03125 -0.640625l-0.15625 0l-0.3125 0.640625l-2.09375 0l0 -10.28125l2.5625 0l0 3.0625l0 1.359375l0.03125 0q0.171875 -0.484375 0.5 -0.8125q0.34375 -0.34375 0.796875 -0.53125q0.46875 -0.1875 1.0 -0.1875q0.640625 0 1.15625 0.25q0.53125 0.25 0.890625 0.71875q0.359375 0.453125 0.546875 1.125q0.1875 0.671875 0.1875 1.515625zm-2.734375 0.171875q0 -0.59375 -0.140625 -1.015625q-0.140625 -0.4375 -0.40625 -0.65625q-0.25 -0.21875 -0.625 -0.21875q-0.671875 0 -1.203125 1.046875l0 2.40625q0.265625 0.375 0.515625 0.53125q0.265625 0.15625 0.609375 0.15625q0.34375 0 0.640625 -0.28125q0.296875 -0.296875 0.453125 -0.8125q0.15625 -0.515625 0.15625 -1.15625zm10.711243 1.375q0 0.515625 -0.25 0.96875q-0.234375 0.453125 -0.6875 0.765625q-0.43751526 0.3125 -1.0781403 0.484375q-0.640625 0.171875 -1.421875 0.171875q-0.71875 0 -1.328125 -0.0625q-0.890625 -0.09375 -1.71875 -0.3125l0 -1.640625q0.140625 0.0625 0.234375 0.09375q0.109375 0.03125 0.25 0.09375q1.265625 0.390625 2.171875 0.390625q1.140625 0 1.140625 -0.578125q0 -0.15625 -0.078125 -0.265625q-0.203125 -0.21875 -0.875 -0.453125l-0.53125 -0.203125q-1.515625 -0.578125 -2.0 -1.265625q-0.140625 -0.1875 -0.21875 -0.484375q-0.078125 -0.3125 -0.078125 -0.578125q0 -1.09375 0.890625 -1.6875q0.890625 -0.59375 2.5625 -0.59375q1.15625 0 2.4218903 0.28125l0 1.640625q-0.1875 -0.0625 -0.421875 -0.15625q-0.39064026 -0.125 -0.89064026 -0.21875q-0.484375 -0.09375 -0.828125 -0.09375q-1.171875 0 -1.171875 0.578125q0 0.21875 0.1875 0.359375q0.1875 0.140625 0.65625 0.3125l0.515625 0.171875q1.4375153 0.484375 1.9843903 0.984375q0.5625 0.484375 0.5625 1.296875zm6.1347656 2.171875q-0.46875 0.140625 -0.75 0.171875q-0.265625 0.046875 -0.6875 0.046875q-1.109375 0 -1.78125 -0.40625q-0.5 -0.3125 -0.6875 -0.765625q-0.171875 -0.46875 -0.171875 -1.40625l0 -3.359375l-0.71875 0l0 -1.4375l0.71875 0l0 -1.140625l2.578125 -0.3125l0 1.453125l1.359375 0l0 1.4375l-1.359375 0l0 3.09375q0 0.46875 0.03125 0.65625q0.046875 0.1875 0.203125 0.359375q0.234375 0.234375 0.703125 0.234375q0.234375 0 0.5625 -0.109375l0 1.484375zm6.811554 -5.046875q-0.296875 -0.125 -0.484375 -0.15625q-0.171875 -0.03125 -0.5 -0.03125q-0.5625 0 -0.953125 0.21875q-0.390625 0.203125 -0.71875 0.671875l0 4.40625l-2.5625 0l0 -7.21875l2.5625 0l0 1.359375l0.03125 0q0.109375 -0.34375 0.40625 -0.671875q0.3125 -0.328125 0.75 -0.578125q0.5 -0.28125 1.15625 -0.28125q0.1875 0 0.3125 0.046875l0 2.234375zm8.0703125 5.109375q-0.71875 0.15625 -1.28125 0.15625q-0.453125 0 -0.8125 -0.078125q-0.34375 -0.078125 -0.546875 -0.203125q-0.21875 -0.15625 -0.4375 -0.515625l-0.171875 0q-0.421875 0.453125 -0.828125 0.625q-0.390625 0.171875 -0.96875 0.171875q-0.671875 0 -1.203125 -0.265625q-0.53125 -0.28125 -0.828125 -0.78125q-0.28125 -0.5 -0.28125 -1.140625q0 -1.09375 0.796875 -1.75q0.5 -0.421875 1.15625 -0.578125q0.65625 -0.171875 1.796875 -0.171875l0.53125 0l0 -0.453125q0 -1.0 -1.28125 -1.0q-0.578125 0 -1.3125 0.203125q-0.53125 0.15625 -1.046875 0.453125l0 -1.609375q0.09375 -0.03125 0.1875 -0.0625q0.09375 -0.03125 0.171875 -0.046875q1.078125 -0.34375 2.34375 -0.34375q3.34375 0 3.34375 2.265625l0 3.125q0 0.59375 0.40625 0.59375q0.078125 0 0.265625 -0.03125l0 1.4375zm-3.078125 -2.015625l0 -1.15625l-0.515625 0q-1.359375 0 -1.359375 0.953125q0 0.359375 0.203125 0.59375q0.21875 0.21875 0.578125 0.21875q0.5625 0 1.09375 -0.609375zm10.475922 1.921875q-1.234375 0.25 -2.359375 0.25q-0.515625 0 -0.953125 -0.046875q-0.421875 -0.046875 -0.78125 -0.15625q-0.359375 -0.125 -0.640625 -0.28125q-0.265625 -0.171875 -0.546875 -0.4375q-0.53125 -0.5 -0.8125 -1.234375q-0.265625 -0.734375 -0.265625 -1.578125q0 -1.140625 0.484375 -2.015625q0.5 -0.875 1.421875 -1.328125q0.9375 -0.46875 2.171875 -0.46875q0.96875 0 2.234375 0.328125l0 1.703125q-1.21875 -0.484375 -1.890625 -0.484375q-0.5 0 -0.890625 0.28125q-0.390625 0.265625 -0.59375 0.765625q-0.203125 0.484375 -0.203125 1.140625q0 0.984375 0.515625 1.609375q0.53125 0.625 1.375 0.625q0.71875 0 1.734375 -0.328125l0 1.65625zm5.8408813 0.03125q-0.46875 0.140625 -0.75 0.171875q-0.265625 0.046875 -0.6875 0.046875q-1.109375 0 -1.78125 -0.40625q-0.5 -0.3125 -0.6875 -0.765625q-0.171875 -0.46875 -0.171875 -1.40625l0 -3.359375l-0.71875 0l0 -1.4375l0.71875 0l0 -1.140625l2.578125 -0.3125l0 1.453125l1.359375 0l0 1.4375l-1.359375 0l0 3.09375q0 0.46875 0.03125 0.65625q0.046875 0.1875 0.203125 0.359375q0.234375 0.234375 0.703125 0.234375q0.234375 0 0.5625 -0.109375l0 1.484375zm4.1552734 -8.296875l-2.5625 0l0 -1.921875l2.5625 0l0 1.921875zm0 8.359375l-2.5625 0l0 -7.21875l2.5625 0l0 7.21875zm9.637451 -3.609375q0 0.875 -0.28125 1.578125q-0.265625 0.6875 -0.796875 1.1875q-0.515625 0.5 -1.25 0.75q-0.734375 0.25 -1.640625 0.25q-0.9375 0 -1.6875 -0.25q-0.75 -0.25 -1.296875 -0.734375q-0.53125 -0.5 -0.8125 -1.203125q-0.265625 -0.71875 -0.265625 -1.59375q0 -0.859375 0.265625 -1.5625q0.28125 -0.71875 0.796875 -1.203125q0.53125 -0.484375 1.265625 -0.734375q0.734375 -0.265625 1.671875 -0.265625q0.953125 0 1.6875 0.265625q0.75 0.25 1.265625 0.734375q0.53125 0.484375 0.796875 1.1875q0.28125 0.6875 0.28125 1.59375zm-2.734375 -0.015625q0 -1.046875 -0.359375 -1.671875q-0.359375 -0.640625 -0.9375 -0.640625q-0.375 0 -0.65625 0.296875q-0.28125 0.28125 -0.453125 0.828125q-0.15625 0.53125 -0.15625 1.203125q0 0.65625 0.15625 1.203125q0.15625 0.53125 0.4375 0.828125q0.296875 0.296875 0.671875 0.296875q0.578125 0 0.9375 -0.640625q0.359375 -0.65625 0.359375 -1.703125zm11.4001465 3.625l-2.5625 0l0 -4.484375q0 -0.53125 -0.15625 -0.75q-0.140625 -0.234375 -0.46875 -0.234375q-0.34375 0 -0.65625 0.265625q-0.3125 0.25 -0.65625 0.796875l0 4.40625l-2.5625 0l0 -7.21875l2.5625 0l0 1.359375l0.03125 0q0.34375 -0.734375 0.953125 -1.125q0.625 -0.40625 1.40625 -0.40625q0.875 0 1.46875 0.53125q0.359375 0.328125 0.5 0.75q0.140625 0.40625 0.140625 1.078125l0 5.03125z" fill-rule="nonzero"/><path fill="#000000" fill-opacity="0.0" d="m15.508881 244.59055l216.15749 0l0 34.015747l-216.15749 0z" fill-rule="evenodd"/><path stroke="#000000" stroke-width="2.0" stroke-linejoin="round" stroke-linecap="butt" d="m15.508881 244.59055l216.15749 0l0 34.015747l-216.15749 0z" fill-rule="evenodd"/><path fill="#000000" d="m28.243256 266.08594l0 -3.0625l-3.046875 0l0 -0.953125l3.046875 0l0 -3.0625l0.96875 0l0 3.0625l3.046875 0l0 0.953125l-3.046875 0l0 3.0625l-0.96875 0zm14.097931 0.546875q-1.375 0 -2.390625 -0.609375q-1.0 -0.609375 -1.5625 -1.78125q-0.5625 -1.171875 -0.5625 -2.65625q0 -1.4375 0.53125 -2.609375q0.53125 -1.171875 1.5625 -1.8125q1.046875 -0.640625 2.421875 -0.640625q1.359375 0 2.390625 0.640625q1.046875 0.640625 1.578125 1.8125q0.53125 1.171875 0.53125 2.609375q0 1.421875 -0.53125 2.59375q-0.515625 1.171875 -1.546875 1.8125q-1.015625 0.640625 -2.421875 0.640625zm0 -1.015625q1.453125 0 2.25 -1.078125q0.796875 -1.09375 0.796875 -2.96875q0 -1.875 -0.8125 -2.9375q-0.796875 -1.078125 -2.234375 -1.078125q-1.453125 0 -2.265625 1.078125q-0.796875 1.0625 -0.796875 2.9375q0 1.875 0.796875 2.96875q0.796875 1.078125 2.265625 1.078125zm6.4477844 3.359375l0 -9.640625l1.28125 0l0 1.328125q0.40625 -0.75 0.984375 -1.109375q0.59375 -0.375 1.375 -0.375q1.3125 0 2.03125 0.96875q0.71875 0.953125 0.71875 2.5q0 1.015625 -0.34375 1.921875q-0.328125 0.90625 -1.03125 1.453125q-0.6875 0.53125 -1.578125 0.53125q-0.359375 0 -0.9375 -0.109375q-0.5625 -0.09375 -1.21875 -0.84375l0 3.375l-1.28125 0zm1.28125 -4.265625q0.65625 0.59375 1.046875 0.75q0.390625 0.140625 0.84375 0.140625q0.9375 0 1.390625 -0.796875q0.453125 -0.796875 0.453125 -2.03125q0 -1.140625 -0.40625 -1.8125q-0.390625 -0.671875 -1.234375 -0.671875q-0.53125 0 -1.0625 0.296875q-0.515625 0.28125 -1.03125 0.875l0 3.25zm12.294907 1.453125q-1.296875 0.390625 -2.21875 0.390625q-1.640625 0 -2.59375 -1.109375q-0.9375 -1.109375 -0.9375 -2.609375q0 -1.0 0.421875 -1.890625q0.421875 -0.90625 1.09375 -1.34375q0.671875 -0.4375 1.578125 -0.4375q1.21875 0 1.953125 0.890625q0.734375 0.875 0.734375 2.625l-0.015625 0.390625l-4.453125 0q0.109375 0.9375 0.40625 1.453125q0.296875 0.5 0.796875 0.78125q0.5 0.28125 1.265625 0.28125q0.390625 0 0.765625 -0.0625q0.390625 -0.078125 1.203125 -0.375l0 1.015625zm-4.375 -4.0625l3.109375 0q0 -1.0625 -0.421875 -1.515625q-0.40625 -0.453125 -1.046875 -0.453125q-0.734375 0 -1.15625 0.5q-0.40625 0.484375 -0.484375 1.46875zm6.6129913 4.296875l0 -7.0625l1.28125 0l0 1.328125q0.359375 -0.71875 0.9375 -1.09375q0.59375 -0.390625 1.28125 -0.390625q0.1875 0 0.40625 0.03125l0 1.1875q-0.328125 -0.109375 -0.59375 -0.109375q-0.59375 0 -1.109375 0.375q-0.515625 0.359375 -0.921875 1.078125l0 4.65625l-1.28125 0zm9.094223 -0.890625q-0.5625 0.515625 -1.125 0.78125q-0.5625 0.265625 -1.09375 0.265625q-0.75 0 -1.390625 -0.484375q-0.640625 -0.5 -0.640625 -1.453125q0 -1.03125 0.890625 -1.703125q0.90625 -0.6875 2.875 -0.6875l0.296875 0l0 -0.859375q0 -0.5 -0.140625 -0.734375q-0.125 -0.234375 -0.421875 -0.359375q-0.28125 -0.140625 -0.71875 -0.140625q-1.0 0 -2.171875 0.625l0 -1.0625q1.296875 -0.515625 2.4375 -0.515625q0.625 0 1.140625 0.203125q0.53125 0.1875 0.84375 0.625q0.3125 0.421875 0.3125 1.359375l0 3.203125q0 0.53125 0.078125 0.71875q0.09375 0.1875 0.25 0.28125q0.15625 0.09375 0.359375 0.09375q0.078125 0 0.234375 -0.015625l0.09375 0.703125q-0.4375 0.203125 -0.953125 0.203125q-0.359375 0 -0.6875 -0.21875q-0.328125 -0.234375 -0.46875 -0.828125zm-0.1875 -0.703125l0 -1.828125l-0.40625 -0.015625q-1.015625 0 -1.703125 0.390625q-0.671875 0.390625 -0.671875 1.0625q0 0.46875 0.328125 0.78125q0.34375 0.3125 0.796875 0.3125q0.390625 0 0.8125 -0.171875q0.421875 -0.1875 0.84375 -0.53125zm7.0635376 1.59375q-0.59375 0.15625 -1.03125 0.15625q-0.953125 0 -1.515625 -0.546875q-0.5625 -0.546875 -0.5625 -1.5625l0 -4.15625l-0.875 0l0 -0.953125l0.875 0l0 -1.28125l1.28125 -0.125l0 1.40625l1.859375 0l0 0.953125l-1.859375 0l0 3.921875q0 0.75 0.28125 1.078125q0.296875 0.3125 0.921875 0.3125q0.25 0 0.625 -0.09375l0 0.890625zm1.8287811 0l0 -7.0625l1.28125 0l0 7.0625l-1.28125 0zm0 -8.34375l0 -1.28125l1.28125 0l0 1.28125l-1.28125 0zm6.665161 8.5q-1.015625 0 -1.765625 -0.40625q-0.734375 -0.40625 -1.171875 -1.296875q-0.4375 -0.890625 -0.4375 -1.984375q0 -1.03125 0.390625 -1.90625q0.40625 -0.890625 1.15625 -1.328125q0.765625 -0.453125 1.828125 -0.453125q1.015625 0 1.75 0.40625q0.75 0.40625 1.1875 1.296875q0.4375 0.890625 0.4375 1.984375q0 1.03125 -0.40625 1.921875q-0.40625 0.875 -1.15625 1.328125q-0.75 0.4375 -1.8125 0.4375zm0 -0.953125q0.953125 0 1.484375 -0.703125q0.53125 -0.71875 0.53125 -2.03125q0 -1.3125 -0.53125 -2.015625q-0.53125 -0.71875 -1.484375 -0.71875q-0.953125 0 -1.484375 0.71875q-0.515625 0.703125 -0.515625 2.015625q0 1.3125 0.515625 2.03125q0.53125 0.703125 1.484375 0.703125zm5.374405 0.796875l0 -7.0625l1.28125 0l0 1.328125q0.484375 -0.71875 1.125 -1.09375q0.65625 -0.390625 1.359375 -0.390625q0.890625 0 1.453125 0.578125q0.5625 0.5625 0.5625 1.5625l0 5.078125l-1.28125 0l0 -4.65625q0 -0.734375 -0.140625 -0.96875q-0.125 -0.234375 -0.359375 -0.359375q-0.234375 -0.140625 -0.5 -0.140625q-0.46875 0 -1.03125 0.296875q-0.546875 0.296875 -1.1875 1.25l0 4.578125l-1.28125 0zm10.84964 1.046875l0 0.875q-1.0625 -0.71875 -1.71875 -1.71875q-0.65625 -1.0 -1.0 -2.140625q-0.34375 -1.140625 -0.34375 -2.234375q0 -1.09375 0.34375 -2.234375q0.34375 -1.140625 1.0 -2.140625q0.65625 -1.0 1.71875 -1.734375l0 0.890625q-0.734375 0.796875 -1.09375 1.546875q-0.34375 0.75 -0.515625 1.6875q-0.171875 0.9375 -0.171875 1.984375q0 1.03125 0.171875 1.984375q0.171875 0.9375 0.515625 1.6875q0.359375 0.734375 1.09375 1.546875zm0.9592438 -10.4375l0 -0.890625q1.0625 0.734375 1.71875 1.734375q0.65625 1.0 0.984375 2.140625q0.34375 1.140625 0.34375 2.234375q0 1.09375 -0.34375 2.234375q-0.328125 1.140625 -0.984375 2.140625q-0.65625 1.0 -1.71875 1.71875l0 -0.875q0.734375 -0.8125 1.078125 -1.546875q0.359375 -0.75 0.515625 -1.6875q0.171875 -0.953125 0.171875 -1.984375q0 -1.03125 -0.171875 -1.96875q-0.15625 -0.953125 -0.515625 -1.703125q-0.34375 -0.75 -1.078125 -1.546875z" fill-rule="nonzero"/><path fill="#000000" fill-opacity="0.0" d="m15.6640415 213.37007l216.15747 0l0 31.2126l-216.15747 0z" fill-rule="evenodd"/><path stroke="#000000" stroke-width="2.0" stroke-linejoin="round" stroke-linecap="butt" d="m15.6640415 213.37007l216.15747 0l0 31.2126l-216.15747 0z" fill-rule="evenodd"/><path fill="#000000" d="m25.960917 233.77638l0 -1.609375l1.609375 0l0 1.609375l-1.609375 0zm4.217102 0l0 -1.609375l1.609375 0l0 1.609375l-1.609375 0zm4.217104 0l0 -1.609375l1.609375 0l0 1.609375l-1.609375 0z" fill-rule="nonzero"/><path fill="#000000" fill-opacity="0.0" d="m370.1168 174.25197l216.1575 0l0 39.118103l-216.1575 0z" fill-rule="evenodd"/><path stroke="#000000" stroke-width="3.0" stroke-linejoin="round" stroke-linecap="butt" d="m370.1168 174.25197l216.1575 0l0 39.118103l-216.1575 0z" fill-rule="evenodd"/><path fill="#000000" d="m398.33383 198.32977q-0.34375 0.109375 -0.390625 0.125q-1.40625 0.390625 -3.046875 0.390625q-0.765625 0 -1.421875 -0.125q-0.65625 -0.109375 -1.234375 -0.34375q-0.578125 -0.234375 -1.0 -0.578125q-0.421875 -0.328125 -0.734375 -0.75q-0.3125 -0.421875 -0.546875 -0.96875q-0.234375 -0.546875 -0.34375 -1.109375q-0.109375 -0.5625 -0.109375 -1.1875q0 -0.75 0.15625 -1.453125q0.171875 -0.703125 0.5 -1.28125q0.328125 -0.59375 0.796875 -1.03125q0.453125 -0.453125 1.03125 -0.734375q0.578125 -0.28125 1.296875 -0.40625q0.71875 -0.140625 1.59375 -0.140625q0.90625 0 1.828125 0.09375q0.921875 0.09375 1.46875 0.234375l0 1.84375q-0.1875 -0.078125 -0.28125 -0.09375q-0.09375 -0.03125 -0.1875 -0.0625q-1.328125 -0.421875 -2.390625 -0.421875q-1.390625 0 -2.15625 0.71875q-0.4375 0.4375 -0.6875 1.140625q-0.234375 0.6875 -0.234375 1.546875q0 1.09375 0.375 1.875q0.390625 0.765625 1.125 1.171875q0.75 0.390625 1.8125 0.390625q0.453125 0 1.078125 -0.09375q0.5 -0.09375 0.828125 -0.171875q0.328125 -0.09375 0.875 -0.34375l0 1.765625zm8.880341 -3.328125q0 0.875 -0.28125 1.578125q-0.265625 0.6875 -0.796875 1.1875q-0.515625 0.5 -1.25 0.75q-0.734375 0.25 -1.640625 0.25q-0.9375 0 -1.6875 -0.25q-0.75 -0.25 -1.296875 -0.734375q-0.53125 -0.5 -0.8125 -1.203125q-0.265625 -0.71875 -0.265625 -1.59375q0 -0.859375 0.265625 -1.5625q0.28125 -0.71875 0.796875 -1.203125q0.53125 -0.484375 1.265625 -0.734375q0.734375 -0.265625 1.671875 -0.265625q0.953125 0 1.6875 0.265625q0.75 0.25 1.265625 0.734375q0.53125 0.484375 0.796875 1.1875q0.28125 0.6875 0.28125 1.59375zm-2.734375 -0.015625q0 -1.046875 -0.359375 -1.671875q-0.359375 -0.640625 -0.9375 -0.640625q-0.375 0 -0.65625 0.296875q-0.28125 0.28125 -0.453125 0.828125q-0.15625 0.53125 -0.15625 1.203125q0 0.65625 0.15625 1.203125q0.15625 0.53125 0.4375 0.828125q0.296875 0.296875 0.671875 0.296875q0.578125 0 0.9375 -0.640625q0.359375 -0.65625 0.359375 -1.703125zm11.4001465 3.625l-2.5625 0l0 -4.484375q0 -0.53125 -0.15625 -0.75q-0.140625 -0.234375 -0.46875 -0.234375q-0.34375 0 -0.65625 0.265625q-0.3125 0.25 -0.65625 0.796875l0 4.40625l-2.5625 0l0 -7.21875l2.5625 0l0 1.359375l0.03125 0q0.34375 -0.734375 0.953125 -1.125q0.625 -0.40625 1.40625 -0.40625q0.875 0 1.46875 0.53125q0.359375 0.328125 0.5 0.75q0.140625 0.40625 0.140625 1.078125l0 5.03125zm7.89093 -0.09375q-1.234375 0.25 -2.359375 0.25q-0.515625 0 -0.953125 -0.046875q-0.421875 -0.046875 -0.78125 -0.15625q-0.359375 -0.125 -0.640625 -0.28125q-0.265625 -0.171875 -0.546875 -0.4375q-0.53125 -0.5 -0.8125 -1.234375q-0.265625 -0.734375 -0.265625 -1.578125q0 -1.140625 0.484375 -2.015625q0.5 -0.875 1.421875 -1.328125q0.9375 -0.46875 2.171875 -0.46875q0.96875 0 2.234375 0.328125l0 1.703125q-1.21875 -0.484375 -1.890625 -0.484375q-0.5 0 -0.890625 0.28125q-0.390625 0.265625 -0.59375 0.765625q-0.203125 0.484375 -0.203125 1.140625q0 0.984375 0.515625 1.609375q0.53125 0.625 1.375 0.625q0.71875 0 1.734375 -0.328125l0 1.65625zm6.8408813 -5.015625q-0.296875 -0.125 -0.484375 -0.15625q-0.171875 -0.03125 -0.5 -0.03125q-0.5625 0 -0.953125 0.21875q-0.390625 0.203125 -0.71875 0.671875l0 4.40625l-2.5625 0l0 -7.21875l2.5625 0l0 1.359375l0.03125 0q0.109375 -0.34375 0.40625 -0.671875q0.3125 -0.328125 0.75 -0.578125q0.5 -0.28125 1.15625 -0.28125q0.1875 0 0.3125 0.046875l0 2.234375zm7.8984375 4.875q-0.234375 0.0625 -0.4375 0.109375q-1.296875 0.296875 -2.515625 0.296875q-0.890625 0 -1.65625 -0.21875q-0.75 -0.234375 -1.234375 -0.625q-0.609375 -0.515625 -0.984375 -1.34375q-0.359375 -0.84375 -0.359375 -1.703125q0 -0.8125 0.265625 -1.5q0.28125 -0.6875 0.78125 -1.171875q0.5 -0.484375 1.203125 -0.734375q0.71875 -0.265625 1.578125 -0.265625q0.828125 0 1.40625 0.203125q0.578125 0.203125 1.0 0.625q0.5625 0.59375 0.75 1.328125q0.09375 0.359375 0.125 0.640625q0.046875 0.265625 0.0625 0.640625q0.015625 0.359375 0.015625 0.90625l-4.53125 0q0.03125 0.3125 0.078125 0.515625q0.046875 0.1875 0.171875 0.375q0.234375 0.359375 0.640625 0.515625q0.421875 0.15625 1.15625 0.15625q0.671875 0 1.109375 -0.078125q0.4375 -0.078125 1.375 -0.375l0 1.703125zm-2.421875 -4.09375l0 -0.109375q0 -0.8125 -0.234375 -1.171875q-0.21875 -0.375 -0.71875 -0.375q-0.359375 0 -0.625 0.203125q-0.25 0.1875 -0.390625 0.5625q-0.140625 0.359375 -0.171875 0.890625l2.140625 0zm8.367889 4.265625q-0.46875 0.140625 -0.75 0.171875q-0.265625 0.046875 -0.6875 0.046875q-1.109375 0 -1.78125 -0.40625q-0.5 -0.3125 -0.6875 -0.765625q-0.171875 -0.46875 -0.171875 -1.40625l0 -3.359375l-0.71875 0l0 -1.4375l0.71875 0l0 -1.140625l2.578125 -0.3125l0 1.453125l1.359375 0l0 1.4375l-1.359375 0l0 3.09375q0 0.46875 0.03125 0.65625q0.046875 0.1875 0.203125 0.359375q0.234375 0.234375 0.703125 0.234375q0.234375 0 0.5625 -0.109375l0 1.484375zm8.045929 -0.171875q-0.234375 0.0625 -0.4375 0.109375q-1.296875 0.296875 -2.515625 0.296875q-0.890625 0 -1.65625 -0.21875q-0.75 -0.234375 -1.234375 -0.625q-0.609375 -0.515625 -0.984375 -1.34375q-0.359375 -0.84375 -0.359375 -1.703125q0 -0.8125 0.265625 -1.5q0.28125 -0.6875 0.78125 -1.171875q0.5 -0.484375 1.203125 -0.734375q0.71875 -0.265625 1.578125 -0.265625q0.828125 0 1.40625 0.203125q0.578125 0.203125 1.0 0.625q0.5625 0.59375 0.75 1.328125q0.09375 0.359375 0.125 0.640625q0.046875 0.265625 0.0625 0.640625q0.015625 0.359375 0.015625 0.90625l-4.53125 0q0.03125 0.3125 0.078125 0.515625q0.046875 0.1875 0.171875 0.375q0.234375 0.359375 0.640625 0.515625q0.421875 0.15625 1.15625 0.15625q0.671875 0 1.109375 -0.078125q0.4375 -0.078125 1.375 -0.375l0 1.703125zm-2.421875 -4.09375l0 -0.109375q0 -0.8125 -0.234375 -1.171875q-0.21875 -0.375 -0.71875 -0.375q-0.359375 0 -0.625 0.203125q-0.25 0.1875 -0.390625 0.5625q-0.140625 0.359375 -0.171875 0.890625l2.140625 0zm6.7116394 4.328125l-2.5625 0l0 -9.640625l2.5625 0l0 9.640625zm13.496826 0l-2.421875 0l0 -4.09375q0 -0.703125 -0.171875 -1.015625q-0.15625 -0.3125 -0.53125 -0.3125q-0.71875 0 -1.296875 1.09375l0 4.328125l-2.40625 0l0 -4.09375q0 -0.71875 -0.171875 -1.015625q-0.15625 -0.3125 -0.546875 -0.3125q-0.703125 0 -1.296875 1.09375l0 4.328125l-2.40625 0l0 -7.21875l2.40625 0l0 1.359375l0.03125 0q0.09375 -0.34375 0.234375 -0.515625q0.140625 -0.171875 0.515625 -0.484375q0.375 -0.296875 0.734375 -0.421875q0.375 -0.125 0.859375 -0.125q0.828125 0 1.3125 0.375q0.484375 0.359375 0.671875 1.171875l0.09375 0q0.25 -0.453125 0.421875 -0.65625q0.171875 -0.21875 0.4375 -0.421875q0.3125 -0.234375 0.6875 -0.34375q0.375 -0.109375 0.859375 -0.109375q1.015625 0 1.5 0.546875q0.484375 0.53125 0.484375 1.6875l0 5.15625zm9.8280945 -3.78125q0 0.90625 -0.21875 1.640625q-0.203125 0.71875 -0.609375 1.234375q-0.40625 0.515625 -1.0 0.796875q-0.578125 0.265625 -1.28125 0.265625q-0.40625 0 -0.71875 -0.078125q-0.296875 -0.0625 -0.625 -0.25q-0.328125 -0.203125 -0.625 -0.46875l-0.03125 0l0 0.640625l0 2.578125l-2.5625 0l0 -9.796875l2.5625 0l0 1.359375l0.03125 0q0.171875 -0.484375 0.5 -0.8125q0.34375 -0.34375 0.796875 -0.53125q0.46875 -0.1875 1.0 -0.1875q0.640625 0 1.15625 0.25q0.53125 0.25 0.890625 0.71875q0.359375 0.453125 0.546875 1.125q0.1875 0.671875 0.1875 1.515625zm-2.734375 0.171875q0 -0.59375 -0.140625 -1.015625q-0.140625 -0.4375 -0.40625 -0.65625q-0.25 -0.21875 -0.625 -0.21875q-0.671875 0 -1.203125 1.046875l0 2.40625q0.265625 0.375 0.515625 0.53125q0.265625 0.15625 0.609375 0.15625q0.34375 0 0.640625 -0.28125q0.296875 -0.296875 0.453125 -0.8125q0.15625 -0.515625 0.15625 -1.15625zm6.8987427 3.609375l-2.5625 0l0 -10.28125l2.5625 0l0 10.28125zm8.699951 -0.234375q-0.234375 0.0625 -0.4375 0.109375q-1.296875 0.296875 -2.515625 0.296875q-0.890625 0 -1.65625 -0.21875q-0.75 -0.234375 -1.234375 -0.625q-0.609375 -0.515625 -0.984375 -1.34375q-0.359375 -0.84375 -0.359375 -1.703125q0 -0.8125 0.265625 -1.5q0.28125 -0.6875 0.78125 -1.171875q0.5 -0.484375 1.203125 -0.734375q0.71875 -0.265625 1.578125 -0.265625q0.828125 0 1.40625 0.203125q0.578125 0.203125 1.0 0.625q0.5625 0.59375 0.75 1.328125q0.09375 0.359375 0.125 0.640625q0.046875 0.265625 0.0625 0.640625q0.015625 0.359375 0.015625 0.90625l-4.53125 0q0.03125 0.3125 0.078125 0.515625q0.046875 0.1875 0.171875 0.375q0.234375 0.359375 0.640625 0.515625q0.421875 0.15625 1.15625 0.15625q0.671875 0 1.109375 -0.078125q0.4375 -0.078125 1.375 -0.375l0 1.703125zm-2.421875 -4.09375l0 -0.109375q0 -0.8125 -0.234375 -1.171875q-0.21875 -0.375 -0.71875 -0.375q-0.359375 0 -0.625 0.203125q-0.25 0.1875 -0.390625 0.5625q-0.140625 0.359375 -0.171875 0.890625l2.140625 0zm15.399139 4.328125l-2.421875 0l0 -4.09375q0 -0.703125 -0.171875 -1.015625q-0.15625 -0.3125 -0.53125 -0.3125q-0.71875 0 -1.296875 1.09375l0 4.328125l-2.40625 0l0 -4.09375q0 -0.71875 -0.171875 -1.015625q-0.15625 -0.3125 -0.546875 -0.3125q-0.703125 0 -1.296875 1.09375l0 4.328125l-2.40625 0l0 -7.21875l2.40625 0l0 1.359375l0.03125 0q0.09375 -0.34375 0.234375 -0.515625q0.140625 -0.171875 0.515625 -0.484375q0.375 -0.296875 0.734375 -0.421875q0.375 -0.125 0.859375 -0.125q0.828125 0 1.3125 0.375q0.484375 0.359375 0.671875 1.171875l0.09375 0q0.25 -0.453125 0.421875 -0.65625q0.171875 -0.21875 0.4375 -0.421875q0.3125 -0.234375 0.6875 -0.34375q0.375 -0.109375 0.859375 -0.109375q1.015625 0 1.5 0.546875q0.484375 0.53125 0.484375 1.6875l0 5.15625zm8.6093445 -0.234375q-0.234375 0.0625 -0.4375 0.109375q-1.296875 0.296875 -2.515625 0.296875q-0.890625 0 -1.65625 -0.21875q-0.75 -0.234375 -1.234375 -0.625q-0.609375 -0.515625 -0.984375 -1.34375q-0.359375 -0.84375 -0.359375 -1.703125q0 -0.8125 0.265625 -1.5q0.28125 -0.6875 0.78125 -1.171875q0.5 -0.484375 1.203125 -0.734375q0.71875 -0.265625 1.578125 -0.265625q0.828125 0 1.40625 0.203125q0.578125 0.203125 1.0 0.625q0.5625 0.59375 0.75 1.328125q0.09375 0.359375 0.125 0.640625q0.046875 0.265625 0.0625 0.640625q0.015625 0.359375 0.015625 0.90625l-4.53125 0q0.03125 0.3125 0.078125 0.515625q0.046875 0.1875 0.171875 0.375q0.234375 0.359375 0.640625 0.515625q0.421875 0.15625 1.15625 0.15625q0.671875 0 1.109375 -0.078125q0.4375 -0.078125 1.375 -0.375l0 1.703125zm-2.421875 -4.09375l0 -0.109375q0 -0.8125 -0.234375 -1.171875q-0.21875 -0.375 -0.71875 -0.375q-0.359375 0 -0.625 0.203125q-0.25 0.1875 -0.390625 0.5625q-0.140625 0.359375 -0.171875 0.890625l2.140625 0zm11.21167 4.328125l-2.5625 0l0 -4.484375q0 -0.53125 -0.15625 -0.75q-0.140625 -0.234375 -0.46875 -0.234375q-0.34375 0 -0.65625 0.265625q-0.3125 0.25 -0.65625 0.796875l0 4.40625l-2.5625 0l0 -7.21875l2.5625 0l0 1.359375l0.03125 0q0.34375 -0.734375 0.953125 -1.125q0.625 -0.40625 1.40625 -0.40625q0.875 0 1.46875 0.53125q0.359375 0.328125 0.5 0.75q0.140625 0.40625 0.140625 1.078125l0 5.03125zm6.39093 -0.0625q-0.46875 0.140625 -0.75 0.171875q-0.265625 0.046875 -0.6875 0.046875q-1.109375 0 -1.78125 -0.40625q-0.5 -0.3125 -0.6875 -0.765625q-0.171875 -0.46875 -0.171875 -1.40625l0 -3.359375l-0.71875 0l0 -1.4375l0.71875 0l0 -1.140625l2.578125 -0.3125l0 1.453125l1.359375 0l0 1.4375l-1.359375 0l0 3.09375q0 0.46875 0.03125 0.65625q0.046875 0.1875 0.203125 0.359375q0.234375 0.234375 0.703125 0.234375q0.234375 0 0.5625 -0.109375l0 1.484375zm8.217773 0.0625q-0.71875 0.15625 -1.28125 0.15625q-0.453125 0 -0.8125 -0.078125q-0.34375 -0.078125 -0.546875 -0.203125q-0.21875 -0.15625 -0.4375 -0.515625l-0.171875 0q-0.421875 0.453125 -0.828125 0.625q-0.390625 0.171875 -0.96875 0.171875q-0.671875 0 -1.203125 -0.265625q-0.53125 -0.28125 -0.828125 -0.78125q-0.28125 -0.5 -0.28125 -1.140625q0 -1.09375 0.796875 -1.75q0.5 -0.421875 1.15625 -0.578125q0.65625 -0.171875 1.796875 -0.171875l0.53125 0l0 -0.453125q0 -1.0 -1.28125 -1.0q-0.578125 0 -1.3125 0.203125q-0.53125 0.15625 -1.046875 0.453125l0 -1.609375q0.09375 -0.03125 0.1875 -0.0625q0.09375 -0.03125 0.171875 -0.046875q1.078125 -0.34375 2.34375 -0.34375q3.34375 0 3.34375 2.265625l0 3.125q0 0.59375 0.40625 0.59375q0.078125 0 0.265625 -0.03125l0 1.4375zm-3.078125 -2.015625l0 -1.15625l-0.515625 0q-1.359375 0 -1.359375 0.953125q0 0.359375 0.203125 0.59375q0.21875 0.21875 0.578125 0.21875q0.5625 0 1.09375 -0.609375zm8.975952 1.953125q-0.46875 0.140625 -0.75 0.171875q-0.265625 0.046875 -0.6875 0.046875q-1.109375 0 -1.78125 -0.40625q-0.5 -0.3125 -0.6875 -0.765625q-0.171875 -0.46875 -0.171875 -1.40625l0 -3.359375l-0.71875 0l0 -1.4375l0.71875 0l0 -1.140625l2.578125 -0.3125l0 1.453125l1.359375 0l0 1.4375l-1.359375 0l0 3.09375q0 0.46875 0.03125 0.65625q0.046875 0.1875 0.203125 0.359375q0.234375 0.234375 0.703125 0.234375q0.234375 0 0.5625 -0.109375l0 1.484375zm4.1552734 -8.296875l-2.5625 0l0 -1.921875l2.5625 0l0 1.921875zm0 8.359375l-2.5625 0l0 -7.21875l2.5625 0l0 7.21875zm9.637451 -3.609375q0 0.875 -0.28125 1.578125q-0.265625 0.6875 -0.796875 1.1875q-0.515625 0.5 -1.25 0.75q-0.734375 0.25 -1.640625 0.25q-0.9375 0 -1.6875 -0.25q-0.75 -0.25 -1.296875 -0.734375q-0.53125 -0.5 -0.8125 -1.203125q-0.265625 -0.71875 -0.265625 -1.59375q0 -0.859375 0.265625 -1.5625q0.28125 -0.71875 0.796875 -1.203125q0.53125 -0.484375 1.265625 -0.734375q0.734375 -0.265625 1.671875 -0.265625q0.953125 0 1.6875 0.265625q0.75 0.25 1.265625 0.734375q0.53125 0.484375 0.796875 1.1875q0.28125 0.6875 0.28125 1.59375zm-2.734375 -0.015625q0 -1.046875 -0.359375 -1.671875q-0.359375 -0.640625 -0.9375 -0.640625q-0.375 0 -0.65625 0.296875q-0.28125 0.28125 -0.453125 0.828125q-0.15625 0.53125 -0.15625 1.203125q0 0.65625 0.15625 1.203125q0.15625 0.53125 0.4375 0.828125q0.296875 0.296875 0.671875 0.296875q0.578125 0 0.9375 -0.640625q0.359375 -0.65625 0.359375 -1.703125zm11.4001465 3.625l-2.5625 0l0 -4.484375q0 -0.53125 -0.15625 -0.75q-0.140625 -0.234375 -0.46875 -0.234375q-0.34375 0 -0.65625 0.265625q-0.3125 0.25 -0.65625 0.796875l0 4.40625l-2.5625 0l0 -7.21875l2.5625 0l0 1.359375l0.03125 0q0.34375 -0.734375 0.953125 -1.125q0.625 -0.40625 1.40625 -0.40625q0.875 0 1.46875 0.53125q0.359375 0.328125 0.5 0.75q0.140625 0.40625 0.140625 1.078125l0 5.03125z" fill-rule="nonzero"/><path fill="#000000" fill-opacity="0.0" d="m370.1168 244.59055l216.1575 0l0 34.015747l-216.1575 0z" fill-rule="evenodd"/><path stroke="#000000" stroke-width="2.0" stroke-linejoin="round" stroke-linecap="butt" d="m370.1168 244.59055l216.1575 0l0 34.015747l-216.1575 0z" fill-rule="evenodd"/><path fill="#000000" d="m382.85117 266.08594l0 -3.0625l-3.046875 0l0 -0.953125l3.046875 0l0 -3.0625l0.96875 0l0 3.0625l3.046875 0l0 0.953125l-3.046875 0l0 3.0625l-0.96875 0zm14.097931 0.546875q-1.375 0 -2.390625 -0.609375q-1.0 -0.609375 -1.5625 -1.78125q-0.5625 -1.171875 -0.5625 -2.65625q0 -1.4375 0.53125 -2.609375q0.53125 -1.171875 1.5625 -1.8125q1.046875 -0.640625 2.421875 -0.640625q1.359375 0 2.390625 0.640625q1.046875 0.640625 1.578125 1.8125q0.53125 1.171875 0.53125 2.609375q0 1.421875 -0.53125 2.59375q-0.515625 1.171875 -1.546875 1.8125q-1.015625 0.640625 -2.421875 0.640625zm0 -1.015625q1.453125 0 2.25 -1.078125q0.796875 -1.09375 0.796875 -2.96875q0 -1.875 -0.8125 -2.9375q-0.796875 -1.078125 -2.234375 -1.078125q-1.453125 0 -2.265625 1.078125q-0.796875 1.0625 -0.796875 2.9375q0 1.875 0.796875 2.96875q0.796875 1.078125 2.265625 1.078125zm6.4477844 3.359375l0 -9.640625l1.28125 0l0 1.328125q0.40625 -0.75 0.984375 -1.109375q0.59375 -0.375 1.375 -0.375q1.3125 0 2.03125 0.96875q0.71875 0.953125 0.71875 2.5q0 1.015625 -0.34375 1.921875q-0.328125 0.90625 -1.03125 1.453125q-0.6875 0.53125 -1.578125 0.53125q-0.359375 0 -0.9375 -0.109375q-0.5625 -0.09375 -1.21875 -0.84375l0 3.375l-1.28125 0zm1.28125 -4.265625q0.65625 0.59375 1.046875 0.75q0.390625 0.140625 0.84375 0.140625q0.9375 0 1.390625 -0.796875q0.453125 -0.796875 0.453125 -2.03125q0 -1.140625 -0.40625 -1.8125q-0.390625 -0.671875 -1.234375 -0.671875q-0.53125 0 -1.0625 0.296875q-0.515625 0.28125 -1.03125 0.875l0 3.25zm12.294922 1.453125q-1.296875 0.390625 -2.21875 0.390625q-1.640625 0 -2.59375 -1.109375q-0.9375 -1.109375 -0.9375 -2.609375q0 -1.0 0.421875 -1.890625q0.421875 -0.90625 1.09375 -1.34375q0.671875 -0.4375 1.578125 -0.4375q1.21875 0 1.953125 0.890625q0.734375 0.875 0.734375 2.625l-0.015625 0.390625l-4.453125 0q0.109375 0.9375 0.40625 1.453125q0.296875 0.5 0.796875 0.78125q0.5 0.28125 1.265625 0.28125q0.390625 0 0.765625 -0.0625q0.390625 -0.078125 1.203125 -0.375l0 1.015625zm-4.375 -4.0625l3.109375 0q0 -1.0625 -0.421875 -1.515625q-0.40625 -0.453125 -1.046875 -0.453125q-0.734375 0 -1.15625 0.5q-0.40625 0.484375 -0.484375 1.46875zm6.612976 4.296875l0 -7.0625l1.28125 0l0 1.328125q0.359375 -0.71875 0.9375 -1.09375q0.59375 -0.390625 1.28125 -0.390625q0.1875 0 0.40625 0.03125l0 1.1875q-0.328125 -0.109375 -0.59375 -0.109375q-0.59375 0 -1.109375 0.375q-0.515625 0.359375 -0.921875 1.078125l0 4.65625l-1.28125 0zm9.094238 -0.890625q-0.5625 0.515625 -1.125 0.78125q-0.5625 0.265625 -1.09375 0.265625q-0.75 0 -1.390625 -0.484375q-0.640625 -0.5 -0.640625 -1.453125q0 -1.03125 0.890625 -1.703125q0.90625 -0.6875 2.875 -0.6875l0.296875 0l0 -0.859375q0 -0.5 -0.140625 -0.734375q-0.125 -0.234375 -0.421875 -0.359375q-0.28125 -0.140625 -0.71875 -0.140625q-1.0 0 -2.171875 0.625l0 -1.0625q1.296875 -0.515625 2.4375 -0.515625q0.625 0 1.140625 0.203125q0.53125 0.1875 0.84375 0.625q0.3125 0.421875 0.3125 1.359375l0 3.203125q0 0.53125 0.078125 0.71875q0.09375 0.1875 0.25 0.28125q0.15625 0.09375 0.359375 0.09375q0.078125 0 0.234375 -0.015625l0.09375 0.703125q-0.4375 0.203125 -0.953125 0.203125q-0.359375 0 -0.6875 -0.21875q-0.328125 -0.234375 -0.46875 -0.828125zm-0.1875 -0.703125l0 -1.828125l-0.40625 -0.015625q-1.015625 0 -1.703125 0.390625q-0.671875 0.390625 -0.671875 1.0625q0 0.46875 0.328125 0.78125q0.34375 0.3125 0.796875 0.3125q0.390625 0 0.8125 -0.171875q0.421875 -0.1875 0.84375 -0.53125zm7.0635376 1.59375q-0.59375 0.15625 -1.03125 0.15625q-0.953125 0 -1.515625 -0.546875q-0.5625 -0.546875 -0.5625 -1.5625l0 -4.15625l-0.875 0l0 -0.953125l0.875 0l0 -1.28125l1.28125 -0.125l0 1.40625l1.859375 0l0 0.953125l-1.859375 0l0 3.921875q0 0.75 0.28125 1.078125q0.296875 0.3125 0.921875 0.3125q0.25 0 0.625 -0.09375l0 0.890625zm1.8287659 0l0 -7.0625l1.28125 0l0 7.0625l-1.28125 0zm0 -8.34375l0 -1.28125l1.28125 0l0 1.28125l-1.28125 0zm6.665161 8.5q-1.015625 0 -1.765625 -0.40625q-0.734375 -0.40625 -1.171875 -1.296875q-0.4375 -0.890625 -0.4375 -1.984375q0 -1.03125 0.390625 -1.90625q0.40625 -0.890625 1.15625 -1.328125q0.765625 -0.453125 1.828125 -0.453125q1.015625 0 1.75 0.40625q0.75 0.40625 1.1875 1.296875q0.4375 0.890625 0.4375 1.984375q0 1.03125 -0.40625 1.921875q-0.40625 0.875 -1.15625 1.328125q-0.75 0.4375 -1.8125 0.4375zm0 -0.953125q0.953125 0 1.484375 -0.703125q0.53125 -0.71875 0.53125 -2.03125q0 -1.3125 -0.53125 -2.015625q-0.53125 -0.71875 -1.484375 -0.71875q-0.953125 0 -1.484375 0.71875q-0.515625 0.703125 -0.515625 2.015625q0 1.3125 0.515625 2.03125q0.53125 0.703125 1.484375 0.703125zm5.37442 0.796875l0 -7.0625l1.28125 0l0 1.328125q0.484375 -0.71875 1.125 -1.09375q0.65625 -0.390625 1.359375 -0.390625q0.890625 0 1.453125 0.578125q0.5625 0.5625 0.5625 1.5625l0 5.078125l-1.28125 0l0 -4.65625q0 -0.734375 -0.140625 -0.96875q-0.125 -0.234375 -0.359375 -0.359375q-0.234375 -0.140625 -0.5 -0.140625q-0.46875 0 -1.03125 0.296875q-0.546875 0.296875 -1.1875 1.25l0 4.578125l-1.28125 0zm8.22464 0l0 -9.625l1.375 0l0 9.625l-1.375 0zm3.8865051 0l0 -7.0625l1.28125 0l0 1.328125q0.390625 -0.625 1.0 -1.046875q0.609375 -0.4375 1.40625 -0.4375q0.46875 0 0.8125 0.15625q0.34375 0.140625 0.625 0.421875q0.28125 0.265625 0.5 0.90625q0.390625 -0.640625 0.984375 -1.0625q0.609375 -0.4375 1.390625 -0.4375q0.75 0 1.34375 0.46875q0.609375 0.46875 0.609375 1.625l0 5.140625l-1.28125 0l0 -4.9375q0 -0.703125 -0.296875 -0.953125q-0.296875 -0.265625 -0.65625 -0.265625q-0.46875 0 -0.953125 0.296875q-0.484375 0.28125 -1.140625 1.125l0 4.734375l-1.296875 0l0 -4.9375q0 -0.71875 -0.296875 -0.96875q-0.296875 -0.25 -0.671875 -0.25q-0.46875 0 -0.9375 0.28125q-0.46875 0.28125 -1.140625 1.140625l0 4.734375l-1.28125 0zm12.443054 2.578125l0 -9.640625l1.28125 0l0 1.328125q0.40625 -0.75 0.984375 -1.109375q0.59375 -0.375 1.375 -0.375q1.3125 0 2.03125 0.96875q0.71875 0.953125 0.71875 2.5q0 1.015625 -0.34375 1.921875q-0.328125 0.90625 -1.03125 1.453125q-0.6875 0.53125 -1.578125 0.53125q-0.359375 0 -0.9375 -0.109375q-0.5625 -0.09375 -1.21875 -0.84375l0 3.375l-1.28125 0zm1.28125 -4.265625q0.65625 0.59375 1.046875 0.75q0.390625 0.140625 0.84375 0.140625q0.9375 0 1.390625 -0.796875q0.453125 -0.796875 0.453125 -2.03125q0 -1.140625 -0.40625 -1.8125q-0.390625 -0.671875 -1.234375 -0.671875q-0.53125 0 -1.0625 0.296875q-0.515625 0.28125 -1.03125 0.875l0 3.25zm7.107422 1.6875l0 -10.28125l1.28125 0l0 10.28125l-1.28125 0zm9.040161 -0.234375q-1.296875 0.390625 -2.21875 0.390625q-1.640625 0 -2.59375 -1.109375q-0.9375 -1.109375 -0.9375 -2.609375q0 -1.0 0.421875 -1.890625q0.421875 -0.90625 1.09375 -1.34375q0.671875 -0.4375 1.578125 -0.4375q1.21875 0 1.953125 0.890625q0.734375 0.875 0.734375 2.625l-0.015625 0.390625l-4.453125 0q0.109375 0.9375 0.40625 1.453125q0.296875 0.5 0.796875 0.78125q0.5 0.28125 1.265625 0.28125q0.390625 0 0.765625 -0.0625q0.390625 -0.078125 1.203125 -0.375l0 1.015625zm-4.375 -4.0625l3.109375 0q0 -1.0625 -0.421875 -1.515625q-0.40625 -0.453125 -1.046875 -0.453125q-0.734375 0 -1.15625 0.5q-0.40625 0.484375 -0.484375 1.46875zm6.612976 4.296875l0 -7.0625l1.28125 0l0 1.328125q0.390625 -0.625 1.0 -1.046875q0.609375 -0.4375 1.40625 -0.4375q0.46875 0 0.8125 0.15625q0.34375 0.140625 0.625 0.421875q0.28125 0.265625 0.5 0.90625q0.390625 -0.640625 0.984375 -1.0625q0.609375 -0.4375 1.390625 -0.4375q0.75 0 1.34375 0.46875q0.609375 0.46875 0.609375 1.625l0 5.140625l-1.28125 0l0 -4.9375q0 -0.703125 -0.296875 -0.953125q-0.296875 -0.265625 -0.65625 -0.265625q-0.46875 0 -0.953125 0.296875q-0.484375 0.28125 -1.140625 1.125l0 4.734375l-1.296875 0l0 -4.9375q0 -0.71875 -0.296875 -0.96875q-0.296875 -0.25 -0.671875 -0.25q-0.46875 0 -0.9375 0.28125q-0.46875 0.28125 -1.140625 1.140625l0 4.734375l-1.28125 0zm17.630554 -0.234375q-1.296875 0.390625 -2.21875 0.390625q-1.640625 0 -2.59375 -1.109375q-0.9375 -1.109375 -0.9375 -2.609375q0 -1.0 0.421875 -1.890625q0.421875 -0.90625 1.09375 -1.34375q0.671875 -0.4375 1.578125 -0.4375q1.21875 0 1.953125 0.890625q0.734375 0.875 0.734375 2.625l-0.015625 0.390625l-4.453125 0q0.109375 0.9375 0.40625 1.453125q0.296875 0.5 0.796875 0.78125q0.5 0.28125 1.265625 0.28125q0.390625 0 0.765625 -0.0625q0.390625 -0.078125 1.203125 -0.375l0 1.015625zm-4.375 -4.0625l3.109375 0q0 -1.0625 -0.421875 -1.515625q-0.40625 -0.453125 -1.046875 -0.453125q-0.734375 0 -1.15625 0.5q-0.40625 0.484375 -0.484375 1.46875zm6.6130066 4.296875l0 -7.0625l1.28125 0l0 1.328125q0.484375 -0.71875 1.125 -1.09375q0.65625 -0.390625 1.359375 -0.390625q0.890625 0 1.453125 0.578125q0.5625 0.5625 0.5625 1.5625l0 5.078125l-1.28125 0l0 -4.65625q0 -0.734375 -0.140625 -0.96875q-0.125 -0.234375 -0.359375 -0.359375q-0.234375 -0.140625 -0.5 -0.140625q-0.46875 0 -1.03125 0.296875q-0.546875 0.296875 -1.1875 1.25l0 4.578125l-1.28125 0zm11.427734 0q-0.59375 0.15625 -1.03125 0.15625q-0.953125 0 -1.515625 -0.546875q-0.5625 -0.546875 -0.5625 -1.5625l0 -4.15625l-0.875 0l0 -0.953125l0.875 0l0 -1.28125l1.28125 -0.125l0 1.40625l1.859375 0l0 0.953125l-1.859375 0l0 3.921875q0 0.75 0.28125 1.078125q0.296875 0.3125 0.921875 0.3125q0.25 0 0.625 -0.09375l0 0.890625zm5.4694214 -0.890625q-0.5625 0.515625 -1.125 0.78125q-0.5625 0.265625 -1.09375 0.265625q-0.75 0 -1.390625 -0.484375q-0.640625 -0.5 -0.640625 -1.453125q0 -1.03125 0.890625 -1.703125q0.90625 -0.6875 2.875 -0.6875l0.296875 0l0 -0.859375q0 -0.5 -0.140625 -0.734375q-0.125 -0.234375 -0.421875 -0.359375q-0.28125 -0.140625 -0.71875 -0.140625q-1.0 0 -2.171875 0.625l0 -1.0625q1.296875 -0.515625 2.4375 -0.515625q0.625 0 1.140625 0.203125q0.53125 0.1875 0.84375 0.625q0.3125 0.421875 0.3125 1.359375l0 3.203125q0 0.53125 0.078125 0.71875q0.09375 0.1875 0.25 0.28125q0.15625 0.09375 0.359375 0.09375q0.078125 0 0.234375 -0.015625l0.09375 0.703125q-0.4375 0.203125 -0.953125 0.203125q-0.359375 0 -0.6875 -0.21875q-0.328125 -0.234375 -0.46875 -0.828125zm-0.1875 -0.703125l0 -1.828125l-0.40625 -0.015625q-1.015625 0 -1.703125 0.390625q-0.671875 0.390625 -0.671875 1.0625q0 0.46875 0.328125 0.78125q0.34375 0.3125 0.796875 0.3125q0.390625 0 0.8125 -0.171875q0.421875 -0.1875 0.84375 -0.53125zm7.0635376 1.59375q-0.59375 0.15625 -1.03125 0.15625q-0.953125 0 -1.515625 -0.546875q-0.5625 -0.546875 -0.5625 -1.5625l0 -4.15625l-0.875 0l0 -0.953125l0.875 0l0 -1.28125l1.28125 -0.125l0 1.40625l1.859375 0l0 0.953125l-1.859375 0l0 3.921875q0 0.75 0.28125 1.078125q0.296875 0.3125 0.921875 0.3125q0.25 0 0.625 -0.09375l0 0.890625zm1.8287964 0l0 -7.0625l1.28125 0l0 7.0625l-1.28125 0zm0 -8.34375l0 -1.28125l1.28125 0l0 1.28125l-1.28125 0zm6.665161 8.5q-1.015625 0 -1.765625 -0.40625q-0.734375 -0.40625 -1.171875 -1.296875q-0.4375 -0.890625 -0.4375 -1.984375q0 -1.03125 0.390625 -1.90625q0.40625 -0.890625 1.15625 -1.328125q0.765625 -0.453125 1.828125 -0.453125q1.015625 0 1.75 0.40625q0.75 0.40625 1.1875 1.296875q0.4375 0.890625 0.4375 1.984375q0 1.03125 -0.40625 1.921875q-0.40625 0.875 -1.15625 1.328125q-0.75 0.4375 -1.8125 0.4375zm0 -0.953125q0.953125 0 1.484375 -0.703125q0.53125 -0.71875 0.53125 -2.03125q0 -1.3125 -0.53125 -2.015625q-0.53125 -0.71875 -1.484375 -0.71875q-0.953125 0 -1.484375 0.71875q-0.515625 0.703125 -0.515625 2.015625q0 1.3125 0.515625 2.03125q0.53125 0.703125 1.484375 0.703125zm5.3743896 0.796875l0 -7.0625l1.28125 0l0 1.328125q0.484375 -0.71875 1.125 -1.09375q0.65625 -0.390625 1.359375 -0.390625q0.890625 0 1.453125 0.578125q0.5625 0.5625 0.5625 1.5625l0 5.078125l-1.28125 0l0 -4.65625q0 -0.734375 -0.140625 -0.96875q-0.125 -0.234375 -0.359375 -0.359375q-0.234375 -0.140625 -0.5 -0.140625q-0.46875 0 -1.03125 0.296875q-0.546875 0.296875 -1.1875 1.25l0 4.578125l-1.28125 0zm10.84967 1.046875l0 0.875q-1.0625 -0.71875 -1.71875 -1.71875q-0.65625 -1.0 -1.0 -2.140625q-0.34375 -1.140625 -0.34375 -2.234375q0 -1.09375 0.34375 -2.234375q0.34375 -1.140625 1.0 -2.140625q0.65625 -1.0 1.71875 -1.734375l0 0.890625q-0.734375 0.796875 -1.09375 1.546875q-0.34375 0.75 -0.515625 1.6875q-0.171875 0.9375 -0.171875 1.984375q0 1.03125 0.171875 1.984375q0.171875 0.9375 0.515625 1.6875q0.359375 0.734375 1.09375 1.546875zm0.9592285 -10.4375l0 -0.890625q1.0625 0.734375 1.71875 1.734375q0.65625 1.0 0.984375 2.140625q0.34375 1.140625 0.34375 2.234375q0 1.09375 -0.34375 2.234375q-0.328125 1.140625 -0.984375 2.140625q-0.65625 1.0 -1.71875 1.71875l0 -0.875q0.734375 -0.8125 1.078125 -1.546875q0.359375 -0.75 0.515625 -1.6875q0.171875 -0.953125 0.171875 -1.984375q0 -1.03125 -0.171875 -1.96875q-0.15625 -0.953125 -0.515625 -1.703125q-0.34375 -0.75 -1.078125 -1.546875z" fill-rule="nonzero"/><path fill="#000000" fill-opacity="0.0" d="m370.1168 213.37007l216.1575 0l0 31.2126l-216.1575 0z" fill-rule="evenodd"/><path stroke="#000000" stroke-width="2.0" stroke-linejoin="round" stroke-linecap="butt" d="m370.1168 213.37007l216.1575 0l0 31.2126l-216.1575 0z" fill-rule="evenodd"/><path fill="#000000" d="m380.41367 233.77638l0 -1.609375l1.609375 0l0 1.609375l-1.609375 0zm4.217102 0l0 -1.609375l1.609375 0l0 1.609375l-1.609375 0zm4.217102 0l0 -1.609375l1.609375 0l0 1.609375l-1.609375 0z" fill-rule="nonzero"/><path fill="#000000" fill-opacity="0.0" d="m16.225721 16.047245l216.15749 0l0 39.11811l-216.15749 0z" fill-rule="evenodd"/><path stroke="#000000" stroke-width="3.0" stroke-linejoin="round" stroke-linecap="butt" d="m16.225721 16.047245l216.15749 0l0 39.11811l-216.15749 0z" fill-rule="evenodd"/><path fill="#000000" d="m91.9955 40.4063l-2.5625 0l-0.4375 -2.453125l-3.765625 0l-1.46875 2.453125l-1.71875 0l5.75 -9.640625l2.5625 0l1.640625 9.640625zm-3.25 -3.96875l-0.578125 -3.421875l-2.046875 3.421875l2.625 0zm13.036346 0.1875q-0.1875 0.90625 -0.5625 1.640625q-0.359375 0.734375 -0.875 1.25q-0.515625 0.5 -1.15625 0.78125q-0.640625 0.265625 -1.359375 0.265625q-0.5625 0 -0.921875 -0.15625q-0.359375 -0.15625 -0.890625 -0.640625l-0.15625 0l-0.453125 0.640625l-2.09375 0l2.1875 -10.28125l2.5625 0l-0.65625 3.0625l-0.28125 1.359375l0.03125 0q0.265625 -0.484375 0.671875 -0.8125q0.40625 -0.34375 0.90625 -0.53125q0.515625 -0.1875 1.046875 -0.1875q0.640625 0 1.109375 0.25q0.46875 0.25 0.71875 0.71875q0.265625 0.453125 0.3125 1.125q0.046875 0.671875 -0.140625 1.515625zm-2.765625 0.171875q0.125 -0.59375 0.078125 -1.015625q-0.046875 -0.4375 -0.265625 -0.65625q-0.203125 -0.21875 -0.578125 -0.21875q-0.671875 0 -1.421875 1.046875l-0.515625 2.40625q0.1875 0.375 0.40625 0.53125q0.21875 0.15625 0.5625 0.15625q0.34375 0 0.703125 -0.28125q0.359375 -0.296875 0.625 -0.8125q0.265625 -0.515625 0.40625 -1.15625zm10.414352 1.375q-0.109375 0.515625 -0.453125 0.96875q-0.328125 0.453125 -0.84375 0.765625q-0.5 0.3125 -1.1875 0.484375q-0.671875 0.171875 -1.453125 0.171875q-0.71875 0 -1.3125 -0.0625q-0.875 -0.09375 -1.65625 -0.3125l0.34375 -1.640625q0.125 0.0625 0.21875 0.09375q0.109375 0.03125 0.234375 0.09375q1.171875 0.390625 2.078125 0.390625q1.140625 0 1.265625 -0.578125q0.03125 -0.15625 -0.015625 -0.265625q-0.15625 -0.21875 -0.78125 -0.453125l-0.484375 -0.203125q-1.390625 -0.578125 -1.734375 -1.265625q-0.09375 -0.1875 -0.109375 -0.484375q-0.015625 -0.3125 0.046875 -0.578125q0.21875 -1.09375 1.234375 -1.6875q1.03125 -0.59375 2.703125 -0.59375q1.15625 0 2.359375 0.28125l-0.359375 1.640625q-0.171875 -0.0625 -0.375 -0.15625q-0.375 -0.125 -0.84375 -0.21875q-0.46875 -0.09375 -0.8125 -0.09375q-1.171875 0 -1.296875 0.578125q-0.046875 0.21875 0.109375 0.359375q0.15625 0.140625 0.59375 0.3125l0.46875 0.171875q1.34375 0.484375 1.78125 0.984375q0.453125 0.484375 0.28125 1.296875zm5.681656 2.171875q-0.5 0.140625 -0.78125 0.171875q-0.28125 0.046875 -0.703125 0.046875q-1.109375 0 -1.703125 -0.40625q-0.421875 -0.3125 -0.515625 -0.765625q-0.078125 -0.46875 0.125 -1.40625l0.71875 -3.359375l-0.71875 0l0.296875 -1.4375l0.71875 0l0.25 -1.140625l2.640625 -0.3125l-0.3125 1.453125l1.359375 0l-0.296875 1.4375l-1.359375 0l-0.65625 3.09375q-0.109375 0.46875 -0.109375 0.65625q0 0.1875 0.125 0.359375q0.1875 0.234375 0.65625 0.234375q0.234375 0 0.578125 -0.109375l-0.3125 1.484375zm7.8896637 -5.046875q-0.28125 -0.125 -0.453125 -0.15625q-0.171875 -0.03125 -0.5 -0.03125q-0.5625 0 -1.0 0.21875q-0.4375 0.203125 -0.859375 0.671875l-0.9375 4.40625l-2.5625 0l1.53125 -7.21875l2.5625 0l-0.28125 1.359375l0.03125 0q0.171875 -0.34375 0.546875 -0.671875q0.375 -0.328125 0.875 -0.578125q0.5625 -0.28125 1.21875 -0.28125q0.1875 0 0.296875 0.046875l-0.46875 2.234375zm6.9765625 5.109375q-0.75 0.15625 -1.3125 0.15625q-0.453125 0 -0.796875 -0.078125q-0.328125 -0.078125 -0.5 -0.203125q-0.1875 -0.15625 -0.328125 -0.515625l-0.171875 0q-0.515625 0.453125 -0.953125 0.625q-0.4375 0.171875 -1.015625 0.171875q-0.671875 0 -1.15625 -0.265625q-0.46875 -0.28125 -0.65625 -0.78125q-0.171875 -0.5 -0.03125 -1.140625q0.234375 -1.09375 1.15625 -1.75q0.59375 -0.421875 1.28125 -0.578125q0.703125 -0.171875 1.84375 -0.171875l0.53125 0l0.09375 -0.453125q0.203125 -1.0 -1.078125 -1.0q-0.578125 0 -1.34375 0.203125q-0.5625 0.15625 -1.15625 0.453125l0.34375 -1.609375q0.109375 -0.03125 0.203125 -0.0625q0.109375 -0.03125 0.1875 -0.046875q1.15625 -0.34375 2.421875 -0.34375q3.34375 0 2.859375 2.265625l-0.671875 3.125q-0.125 0.59375 0.28125 0.59375q0.078125 0 0.28125 -0.03125l-0.3125 1.4375zm-2.65625 -2.015625l0.25 -1.15625l-0.515625 0q-1.359375 0 -1.5625 0.953125q-0.078125 0.359375 0.078125 0.59375q0.171875 0.21875 0.53125 0.21875q0.5625 0 1.21875 -0.609375zm10.069672 1.921875q-1.28125 0.25 -2.40625 0.25q-0.515625 0 -0.9375 -0.046875q-0.421875 -0.046875 -0.765625 -0.15625q-0.328125 -0.125 -0.5625 -0.28125q-0.234375 -0.171875 -0.46875 -0.4375q-0.421875 -0.5 -0.546875 -1.234375q-0.109375 -0.734375 0.078125 -1.578125q0.234375 -1.140625 0.90625 -2.015625q0.6875 -0.875 1.71875 -1.328125q1.03125 -0.46875 2.265625 -0.46875q0.96875 0 2.15625 0.328125l-0.359375 1.703125q-1.125 -0.484375 -1.796875 -0.484375q-0.5 0 -0.953125 0.28125q-0.4375 0.265625 -0.75 0.765625q-0.296875 0.484375 -0.4375 1.140625q-0.21875 0.984375 0.171875 1.609375q0.390625 0.625 1.234375 0.625q0.71875 0 1.8125 -0.328125l-0.359375 1.65625zm5.8408813 0.03125q-0.5 0.140625 -0.78125 0.171875q-0.28125 0.046875 -0.703125 0.046875q-1.109375 0 -1.703125 -0.40625q-0.421875 -0.3125 -0.515625 -0.765625q-0.078125 -0.46875 0.125 -1.40625l0.71875 -3.359375l-0.71875 0l0.296875 -1.4375l0.71875 0l0.25 -1.140625l2.640625 -0.3125l-0.3125 1.453125l1.359375 0l-0.296875 1.4375l-1.359375 0l-0.65625 3.09375q-0.109375 0.46875 -0.109375 0.65625q0 0.1875 0.125 0.359375q0.1875 0.234375 0.65625 0.234375q0.234375 0 0.578125 -0.109375l-0.3125 1.484375zm5.9209137 -8.296875l-2.5625 0l0.40625 -1.921875l2.5625 0l-0.40625 1.921875zm-1.78125 8.359375l-2.5625 0l1.53125 -7.21875l2.5625 0l-1.53125 7.21875zm10.403076 -3.609375q-0.1875 0.875 -0.609375 1.578125q-0.421875 0.6875 -1.046875 1.1875q-0.625 0.5 -1.421875 0.75q-0.78125 0.25 -1.6875 0.25q-0.9375 0 -1.640625 -0.25q-0.6875 -0.25 -1.125 -0.734375q-0.4375 -0.5 -0.5625 -1.203125q-0.125 -0.71875 0.0625 -1.59375q0.1875 -0.859375 0.609375 -1.5625q0.421875 -0.71875 1.046875 -1.203125q0.640625 -0.484375 1.421875 -0.734375q0.796875 -0.265625 1.734375 -0.265625q0.953125 0 1.640625 0.265625q0.6875 0.25 1.09375 0.734375q0.421875 0.484375 0.546875 1.1875q0.125 0.6875 -0.0625 1.59375zm-2.734375 -0.015625q0.234375 -1.046875 0 -1.671875q-0.21875 -0.640625 -0.796875 -0.640625q-0.375 0 -0.71875 0.296875q-0.34375 0.28125 -0.625 0.828125q-0.28125 0.53125 -0.421875 1.203125q-0.140625 0.65625 -0.09375 1.203125q0.046875 0.53125 0.265625 0.828125q0.21875 0.296875 0.59375 0.296875q0.578125 0 1.078125 -0.640625q0.5 -0.65625 0.71875 -1.703125zm10.634506 3.625l-2.5625 0l0.953125 -4.484375q0.109375 -0.53125 0 -0.75q-0.09375 -0.234375 -0.421875 -0.234375q-0.34375 0 -0.71875 0.265625q-0.359375 0.25 -0.8125 0.796875l-0.9375 4.40625l-2.5625 0l1.53125 -7.21875l2.5625 0l-0.28125 1.359375l0.03125 0q0.5 -0.734375 1.203125 -1.125q0.703125 -0.40625 1.484375 -0.40625q0.875 0 1.34375 0.53125q0.296875 0.328125 0.34375 0.75q0.0625 0.40625 -0.09375 1.078125l-1.0625 5.03125z" fill-rule="nonzero"/><path fill="#000000" fill-opacity="0.0" d="m16.225721 88.92913l216.15749 0l0 34.015755l-216.15749 0z" fill-rule="evenodd"/><path stroke="#000000" stroke-width="2.0" stroke-linejoin="round" stroke-linecap="butt" d="m16.225721 88.92913l216.15749 0l0 34.015755l-216.15749 0z" fill-rule="evenodd"/><path fill="#000000" d="m28.960096 110.42451l0 -3.0625l-3.046875 0l0 -0.953125l3.046875 0l0 -3.0625l0.96875 0l0 3.0625l3.046877 0l0 0.953125l-3.046877 0l0 3.0625l-0.96875 0zm14.097933 0.546875q-1.375 0 -2.390625 -0.609375q-1.0 -0.609375 -1.5625 -1.78125q-0.5625 -1.171875 -0.5625 -2.65625q0 -1.4375 0.53125 -2.609375q0.53125 -1.171875 1.5625 -1.8125q1.046875 -0.640625 2.421875 -0.640625q1.359375 0 2.390625 0.640625q1.046875 0.640625 1.578125 1.8125q0.53125 1.171875 0.53125 2.609375q0 1.421875 -0.53125 2.59375q-0.515625 1.171875 -1.546875 1.8125q-1.015625 0.640625 -2.421875 0.640625zm0 -1.015625q1.453125 0 2.25 -1.078125q0.796875 -1.09375 0.796875 -2.96875q0 -1.875 -0.8125 -2.9375q-0.796875 -1.078125 -2.234375 -1.078125q-1.453125 0 -2.265625 1.078125q-0.796875 1.0625 -0.796875 2.9375q0 1.875 0.796875 2.96875q0.796875 1.078125 2.265625 1.078125zm6.4477844 3.359375l0 -9.640625l1.28125 0l0 1.328125q0.40625 -0.75 0.984375 -1.109375q0.59375 -0.375 1.375 -0.375q1.3125 0 2.03125 0.96875q0.71875 0.953125 0.71875 2.5q0 1.015625 -0.34375 1.921875q-0.328125 0.90625 -1.03125 1.453125q-0.6875 0.53125 -1.578125 0.53125q-0.359375 0 -0.9375 -0.109375q-0.5625 -0.09375 -1.21875 -0.84375l0 3.375l-1.28125 0zm1.28125 -4.265625q0.65625 0.59375 1.046875 0.75q0.390625 0.140625 0.84375 0.140625q0.9375 0 1.390625 -0.796875q0.453125 -0.796875 0.453125 -2.03125q0 -1.140625 -0.40625 -1.8125q-0.390625 -0.671875 -1.234375 -0.671875q-0.53125 0 -1.0625 0.296875q-0.515625 0.28125 -1.03125 0.875l0 3.25zm12.294907 1.453125q-1.296875 0.390625 -2.21875 0.390625q-1.640625 0 -2.59375 -1.109375q-0.9375 -1.109375 -0.9375 -2.609375q0 -1.0 0.421875 -1.890625q0.421875 -0.90625 1.09375 -1.34375q0.671875 -0.4375 1.578125 -0.4375q1.21875 0 1.953125 0.890625q0.734375 0.875 0.734375 2.625l-0.015625 0.390625l-4.453125 0q0.109375 0.9375 0.40625 1.453125q0.296875 0.5 0.796875 0.78125q0.5 0.28125 1.265625 0.28125q0.390625 0 0.765625 -0.0625q0.390625 -0.078125 1.203125 -0.375l0 1.015625zm-4.375 -4.0625l3.109375 0q0 -1.0625 -0.421875 -1.515625q-0.40625 -0.453125 -1.046875 -0.453125q-0.734375 0 -1.15625 0.5q-0.40625 0.484375 -0.484375 1.46875zm6.6129913 4.296875l0 -7.0625l1.28125 0l0 1.328125q0.359375 -0.71875 0.9375 -1.09375q0.59375 -0.390625 1.28125 -0.390625q0.1875 0 0.40625 0.03125l0 1.1875q-0.328125 -0.109375 -0.59375 -0.109375q-0.59375 0 -1.109375 0.375q-0.515625 0.359375 -0.921875 1.078125l0 4.65625l-1.28125 0zm9.094223 -0.890625q-0.5625 0.515625 -1.125 0.78125q-0.5625 0.265625 -1.09375 0.265625q-0.75 0 -1.390625 -0.484375q-0.640625 -0.5 -0.640625 -1.453125q0 -1.03125 0.890625 -1.703125q0.90625 -0.6875 2.875 -0.6875l0.296875 0l0 -0.859375q0 -0.5 -0.140625 -0.734375q-0.125 -0.234375 -0.421875 -0.359375q-0.28125 -0.140625 -0.71875 -0.140625q-1.0 0 -2.171875 0.625l0 -1.0625q1.296875 -0.515625 2.4375 -0.515625q0.625 0 1.140625 0.203125q0.53125 0.1875 0.84375 0.625q0.3125 0.421875 0.3125 1.359375l0 3.203125q0 0.53125 0.078125 0.71875q0.09375 0.1875 0.25 0.28125q0.15625 0.09375 0.359375 0.09375q0.078125 0 0.234375 -0.015625l0.09375 0.703125q-0.4375 0.203125 -0.953125 0.203125q-0.359375 0 -0.6875 -0.21875q-0.328125 -0.234375 -0.46875 -0.828125zm-0.1875 -0.703125l0 -1.828125l-0.40625 -0.015625q-1.015625 0 -1.703125 0.390625q-0.671875 0.390625 -0.671875 1.0625q0 0.46875 0.328125 0.78125q0.34375 0.3125 0.796875 0.3125q0.390625 0 0.8125 -0.171875q0.421875 -0.1875 0.84375 -0.53125zm7.0635376 1.59375q-0.59375 0.15625 -1.03125 0.15625q-0.953125 0 -1.515625 -0.546875q-0.5625 -0.546875 -0.5625 -1.5625l0 -4.15625l-0.875 0l0 -0.953125l0.875 0l0 -1.28125l1.28125 -0.125l0 1.40625l1.859375 0l0 0.953125l-1.859375 0l0 3.921875q0 0.75 0.28125 1.078125q0.296875 0.3125 0.921875 0.3125q0.25 0 0.625 -0.09375l0 0.890625zm1.8287811 0l0 -7.0625l1.28125 0l0 7.0625l-1.28125 0zm0 -8.34375l0 -1.28125l1.28125 0l0 1.28125l-1.28125 0zm6.665161 8.5q-1.015625 0 -1.765625 -0.40625q-0.734375 -0.40625 -1.171875 -1.296875q-0.4375 -0.890625 -0.4375 -1.984375q0 -1.03125 0.390625 -1.90625q0.40625 -0.890625 1.15625 -1.328125q0.765625 -0.453125 1.828125 -0.453125q1.015625 0 1.75 0.40625q0.75 0.40625 1.1875 1.296875q0.4375 0.890625 0.4375 1.984375q0 1.03125 -0.40625 1.921875q-0.40625 0.875 -1.15625 1.328125q-0.75 0.4375 -1.8125 0.4375zm0 -0.953125q0.953125 0 1.484375 -0.703125q0.53125 -0.71875 0.53125 -2.03125q0 -1.3125 -0.53125 -2.015625q-0.53125 -0.71875 -1.484375 -0.71875q-0.953125 0 -1.484375 0.71875q-0.515625 0.703125 -0.515625 2.015625q0 1.3125 0.515625 2.03125q0.53125 0.703125 1.484375 0.703125zm5.374405 0.796875l0 -7.0625l1.28125 0l0 1.328125q0.484375 -0.71875 1.125 -1.09375q0.65625 -0.390625 1.359375 -0.390625q0.890625 0 1.453125 0.578125q0.5625 0.5625 0.5625 1.5625l0 5.078125l-1.28125 0l0 -4.65625q0 -0.734375 -0.140625 -0.96875q-0.125 -0.234375 -0.359375 -0.359375q-0.234375 -0.140625 -0.5 -0.140625q-0.46875 0 -1.03125 0.296875q-0.546875 0.296875 -1.1875 1.25l0 4.578125l-1.28125 0zm10.84964 1.046875l0 0.875q-1.0625 -0.71875 -1.71875 -1.71875q-0.65625 -1.0 -1.0 -2.140625q-0.34375 -1.140625 -0.34375 -2.234375q0 -1.09375 0.34375 -2.234375q0.34375 -1.140625 1.0 -2.140625q0.65625 -1.0 1.71875 -1.734375l0 0.890625q-0.734375 0.796875 -1.09375 1.546875q-0.34375 0.75 -0.515625 1.6875q-0.171875 0.9375 -0.171875 1.984375q0 1.03125 0.171875 1.984375q0.171875 0.9375 0.515625 1.6875q0.359375 0.734375 1.09375 1.546875zm0.9592438 -10.4375l0 -0.890625q1.0625 0.734375 1.71875 1.734375q0.65625 1.0 0.984375 2.140625q0.34375 1.140625 0.34375 2.234375q0 1.09375 -0.34375 2.234375q-0.328125 1.140625 -0.984375 2.140625q-0.65625 1.0 -1.71875 1.71875l0 -0.875q0.734375 -0.8125 1.078125 -1.546875q0.359375 -0.75 0.515625 -1.6875q0.171875 -0.953125 0.171875 -1.984375q0 -1.03125 -0.171875 -1.96875q-0.15625 -0.953125 -0.515625 -1.703125q-0.34375 -0.75 -1.078125 -1.546875z" fill-rule="nonzero"/><path fill="#000000" fill-opacity="0.0" d="m369.5328 16.047245l216.1575 0l0 39.11811l-216.1575 0z" fill-rule="evenodd"/><path stroke="#000000" stroke-width="3.0" stroke-linejoin="round" stroke-linecap="butt" d="m369.5328 16.047245l216.1575 0l0 39.11811l-216.1575 0z" fill-rule="evenodd"/><path fill="#000000" d="m434.91415 40.4063l-2.5625 0l2.046875 -9.640625l2.5625 0l-2.046875 9.640625zm13.496826 0l-2.421875 0l0.875 -4.09375q0.140625 -0.703125 0.046875 -1.015625q-0.09375 -0.3125 -0.46875 -0.3125q-0.71875 0 -1.53125 1.09375l-0.921875 4.328125l-2.40625 0l0.875 -4.09375q0.140625 -0.71875 0.046875 -1.015625q-0.09375 -0.3125 -0.484375 -0.3125q-0.703125 0 -1.53125 1.09375l-0.921875 4.328125l-2.40625 0l1.53125 -7.21875l2.40625 0l-0.28125 1.359375l0.03125 0q0.15625 -0.34375 0.328125 -0.515625q0.1875 -0.171875 0.625 -0.484375q0.4375 -0.296875 0.828125 -0.421875q0.40625 -0.125 0.890625 -0.125q0.828125 0 1.234375 0.375q0.40625 0.359375 0.421875 1.171875l0.09375 0q0.34375 -0.453125 0.5625 -0.65625q0.21875 -0.21875 0.515625 -0.421875q0.375 -0.234375 0.765625 -0.34375q0.40625 -0.109375 0.890625 -0.109375q1.015625 0 1.375 0.546875q0.375 0.53125 0.125 1.6875l-1.09375 5.15625zm10.6249695 -3.78125q-0.1875 0.90625 -0.5625 1.640625q-0.359375 0.71875 -0.875 1.234375q-0.515625 0.515625 -1.15625 0.796875q-0.640625 0.265625 -1.34375 0.265625q-0.40625 0 -0.703125 -0.078125q-0.28125 -0.0625 -0.578125 -0.25q-0.28125 -0.203125 -0.515625 -0.46875l-0.03125 0l-0.140625 0.640625l-0.546875 2.578125l-2.5625 0l2.078125 -9.796875l2.5625 0l-0.28125 1.359375l0.03125 0q0.265625 -0.484375 0.671875 -0.8125q0.40625 -0.34375 0.90625 -0.53125q0.515625 -0.1875 1.046875 -0.1875q0.640625 0 1.109375 0.25q0.46875 0.25 0.71875 0.71875q0.265625 0.453125 0.3125 1.125q0.046875 0.671875 -0.140625 1.515625zm-2.765625 0.171875q0.125 -0.59375 0.078125 -1.015625q-0.046875 -0.4375 -0.265625 -0.65625q-0.203125 -0.21875 -0.578125 -0.21875q-0.671875 0 -1.421875 1.046875l-0.515625 2.40625q0.1875 0.375 0.40625 0.53125q0.21875 0.15625 0.5625 0.15625q0.34375 0 0.703125 -0.28125q0.359375 -0.296875 0.625 -0.8125q0.265625 -0.515625 0.40625 -1.15625zm6.1331177 3.609375l-2.5625 0l2.1875 -10.28125l2.5625 0l-2.1875 10.28125zm8.746826 -0.234375q-0.25 0.0625 -0.453125 0.109375q-1.359375 0.296875 -2.578125 0.296875q-0.890625 0 -1.609375 -0.21875q-0.703125 -0.234375 -1.109375 -0.625q-0.5 -0.515625 -0.6875 -1.34375q-0.1875 -0.84375 0 -1.703125q0.171875 -0.8125 0.578125 -1.5q0.421875 -0.6875 1.03125 -1.171875q0.609375 -0.484375 1.375 -0.734375q0.765625 -0.265625 1.625 -0.265625q0.828125 0 1.359375 0.203125q0.53125 0.203125 0.859375 0.625q0.4375 0.59375 0.46875 1.328125q0.015625 0.359375 0 0.640625q-0.015625 0.265625 -0.078125 0.640625q-0.0625 0.359375 -0.1875 0.90625l-4.53125 0q-0.03125 0.3125 -0.03125 0.515625q0.015625 0.1875 0.09375 0.375q0.15625 0.359375 0.53125 0.515625q0.390625 0.15625 1.125 0.15625q0.671875 0 1.125 -0.078125q0.453125 -0.078125 1.453125 -0.375l-0.359375 1.703125zm-1.546875 -4.09375l0.015625 -0.109375q0.171875 -0.8125 0.015625 -1.171875q-0.140625 -0.375 -0.640625 -0.375q-0.359375 0 -0.65625 0.203125q-0.296875 0.1875 -0.515625 0.5625q-0.21875 0.359375 -0.359375 0.890625l2.140625 0zm14.477264 4.328125l-2.421875 0l0.875 -4.09375q0.140625 -0.703125 0.046875 -1.015625q-0.09375 -0.3125 -0.46875 -0.3125q-0.71875 0 -1.53125 1.09375l-0.921875 4.328125l-2.40625 0l0.875 -4.09375q0.140625 -0.71875 0.046875 -1.015625q-0.09375 -0.3125 -0.484375 -0.3125q-0.703125 0 -1.53125 1.09375l-0.921875 4.328125l-2.40625 0l1.53125 -7.21875l2.40625 0l-0.28125 1.359375l0.03125 0q0.15625 -0.34375 0.328125 -0.515625q0.1875 -0.171875 0.625 -0.484375q0.4375 -0.296875 0.828125 -0.421875q0.40625 -0.125 0.890625 -0.125q0.828125 0 1.234375 0.375q0.40625 0.359375 0.421875 1.171875l0.09375 0q0.34375 -0.453125 0.5625 -0.65625q0.21875 -0.21875 0.515625 -0.421875q0.375 -0.234375 0.765625 -0.34375q0.40625 -0.109375 0.890625 -0.109375q1.015625 0 1.375 0.546875q0.375 0.53125 0.125 1.6875l-1.09375 5.15625zm8.6562195 -0.234375q-0.25 0.0625 -0.453125 0.109375q-1.359375 0.296875 -2.578125 0.296875q-0.890625 0 -1.609375 -0.21875q-0.703125 -0.234375 -1.109375 -0.625q-0.5 -0.515625 -0.6875 -1.34375q-0.1875 -0.84375 0 -1.703125q0.171875 -0.8125 0.578125 -1.5q0.421875 -0.6875 1.03125 -1.171875q0.609375 -0.484375 1.375 -0.734375q0.765625 -0.265625 1.625 -0.265625q0.828125 0 1.359375 0.203125q0.53125 0.203125 0.859375 0.625q0.4375 0.59375 0.46875 1.328125q0.015625 0.359375 0 0.640625q-0.015625 0.265625 -0.078125 0.640625q-0.0625 0.359375 -0.1875 0.90625l-4.53125 0q-0.03125 0.3125 -0.03125 0.515625q0.015625 0.1875 0.09375 0.375q0.15625 0.359375 0.53125 0.515625q0.390625 0.15625 1.125 0.15625q0.671875 0 1.125 -0.078125q0.453125 -0.078125 1.453125 -0.375l-0.359375 1.703125zm-1.546875 -4.09375l0.015625 -0.109375q0.171875 -0.8125 0.015625 -1.171875q-0.140625 -0.375 -0.640625 -0.375q-0.359375 0 -0.65625 0.203125q-0.296875 0.1875 -0.515625 0.5625q-0.21875 0.359375 -0.359375 0.890625l2.140625 0zm10.289795 4.328125l-2.5625 0l0.953125 -4.484375q0.109375 -0.53125 0 -0.75q-0.09375 -0.234375 -0.421875 -0.234375q-0.34375 0 -0.71875 0.265625q-0.359375 0.25 -0.8125 0.796875l-0.9375 4.40625l-2.5625 0l1.53125 -7.21875l2.5625 0l-0.28125 1.359375l0.03125 0q0.5 -0.734375 1.203125 -1.125q0.703125 -0.40625 1.484375 -0.40625q0.875 0 1.34375 0.53125q0.296875 0.328125 0.34375 0.75q0.0625 0.40625 -0.09375 1.078125l-1.0625 5.03125zm6.406555 -0.0625q-0.5 0.140625 -0.78125 0.171875q-0.28125 0.046875 -0.703125 0.046875q-1.109375 0 -1.703125 -0.40625q-0.421875 -0.3125 -0.515625 -0.765625q-0.078125 -0.46875 0.125 -1.40625l0.71875 -3.359375l-0.71875 0l0.296875 -1.4375l0.71875 0l0.25 -1.140625l2.640625 -0.3125l-0.3125 1.453125l1.359375 0l-0.296875 1.4375l-1.359375 0l-0.65625 3.09375q-0.109375 0.46875 -0.109375 0.65625q0 0.1875 0.125 0.359375q0.1875 0.234375 0.65625 0.234375q0.234375 0 0.578125 -0.109375l-0.3125 1.484375zm9.733398 -3.546875q-0.1875 0.875 -0.609375 1.578125q-0.421875 0.6875 -1.046875 1.1875q-0.625 0.5 -1.421875 0.75q-0.78125 0.25 -1.6875 0.25q-0.9375 0 -1.640625 -0.25q-0.6875 -0.25 -1.125 -0.734375q-0.4375 -0.5 -0.5625 -1.203125q-0.125 -0.71875 0.0625 -1.59375q0.1875 -0.859375 0.609375 -1.5625q0.421875 -0.71875 1.046875 -1.203125q0.640625 -0.484375 1.421875 -0.734375q0.796875 -0.265625 1.734375 -0.265625q0.953125 0 1.640625 0.265625q0.6875 0.25 1.09375 0.734375q0.421875 0.484375 0.546875 1.1875q0.125 0.6875 -0.0625 1.59375zm-2.734375 -0.015625q0.234375 -1.046875 0 -1.671875q-0.21875 -0.640625 -0.796875 -0.640625q-0.375 0 -0.71875 0.296875q-0.34375 0.28125 -0.625 0.828125q-0.28125 0.53125 -0.421875 1.203125q-0.140625 0.65625 -0.09375 1.203125q0.046875 0.53125 0.265625 0.828125q0.21875 0.296875 0.59375 0.296875q0.578125 0 1.078125 -0.640625q0.5 -0.65625 0.71875 -1.703125zm9.8845215 -1.484375q-0.28125 -0.125 -0.453125 -0.15625q-0.171875 -0.03125 -0.5 -0.03125q-0.5625 0 -1.0 0.21875q-0.4375 0.203125 -0.859375 0.671875l-0.9375 4.40625l-2.5625 0l1.53125 -7.21875l2.5625 0l-0.28125 1.359375l0.03125 0q0.171875 -0.34375 0.546875 -0.671875q0.375 -0.328125 0.875 -0.578125q0.5625 -0.28125 1.21875 -0.28125q0.1875 0 0.296875 0.046875l-0.46875 2.234375z" fill-rule="nonzero"/><path fill="#000000" fill-opacity="0.0" d="m369.5328 86.385826l216.1575 0l0 34.015747l-216.1575 0z" fill-rule="evenodd"/><path stroke="#000000" stroke-width="2.0" stroke-linejoin="round" stroke-linecap="butt" d="m369.5328 86.385826l216.1575 0l0 34.015747l-216.1575 0z" fill-rule="evenodd"/><path fill="#000000" d="m382.26718 107.8812l0 -3.0625l-3.046875 0l0 -0.953125l3.046875 0l0 -3.0625l0.96875 0l0 3.0625l3.046875 0l0 0.953125l-3.046875 0l0 3.0625l-0.96875 0z" fill-rule="nonzero"/><path fill="#000000" d="m396.31824 108.42808q-1.375 0 -2.265625 -0.609375q-0.875 -0.609375 -1.1875 -1.78125q-0.3125 -1.171875 0 -2.65625q0.3125 -1.4375 1.09375 -2.609375q0.78125 -1.171875 1.953125 -1.8125q1.171875 -0.640625 2.546875 -0.640625q1.359375 0 2.265625 0.640625q0.90625 0.640625 1.1875 1.8125q0.28125 1.171875 -0.03125 2.609375q-0.296875 1.421875 -1.078125 2.59375q-0.765625 1.171875 -1.921875 1.8125q-1.15625 0.640625 -2.5625 0.640625zm0.21875 -1.015625q1.453125 0 2.46875 -1.078125q1.03125 -1.09375 1.4375 -2.96875q0.390625 -1.875 -0.1875 -2.9375q-0.578125 -1.078125 -2.015625 -1.078125q-1.453125 0 -2.484375 1.078125q-1.03125 1.0625 -1.421875 2.9375q-0.40625 1.875 0.15625 2.96875q0.578125 1.078125 2.046875 1.078125zm5.7290344 3.359375l2.046875 -9.640625l1.28125 0l-0.28125 1.328125q0.5625 -0.75 1.21875 -1.109375q0.671875 -0.375 1.453125 -0.375q1.3125 0 1.828125 0.96875q0.515625 0.953125 0.1875 2.5q-0.21875 1.015625 -0.75 1.921875q-0.515625 0.90625 -1.328125 1.453125q-0.8125 0.53125 -1.703125 0.53125q-0.359375 0 -0.90625 -0.109375q-0.546875 -0.09375 -1.046875 -0.84375l-0.71875 3.375l-1.28125 0zm2.1875 -4.265625q0.53125 0.59375 0.890625 0.75q0.359375 0.140625 0.8125 0.140625q0.9375 0 1.5625 -0.796875q0.625 -0.796875 0.875 -2.03125q0.25 -1.140625 -0.015625 -1.8125q-0.25 -0.671875 -1.09375 -0.671875q-0.53125 0 -1.125 0.296875q-0.578125 0.28125 -1.21875 0.875l-0.6875 3.25zm11.982422 1.453125q-1.375 0.390625 -2.296875 0.390625q-1.640625 0 -2.359375 -1.109375q-0.703125 -1.109375 -0.390625 -2.609375q0.21875 -1.0 0.828125 -1.890625q0.625 -0.90625 1.375 -1.34375q0.765625 -0.4375 1.671875 -0.4375q1.21875 0 1.765625 0.890625q0.546875 0.875 0.1875 2.625l-0.109375 0.390625l-4.453125 0q-0.078125 0.9375 0.109375 1.453125q0.1875 0.5 0.625 0.78125q0.4375 0.28125 1.203125 0.28125q0.390625 0 0.78125 -0.0625q0.40625 -0.078125 1.28125 -0.375l-0.21875 1.015625zm-3.515625 -4.0625l3.109375 0q0.234375 -1.0625 -0.09375 -1.515625q-0.3125 -0.453125 -0.953125 -0.453125q-0.734375 0 -1.25 0.5q-0.515625 0.484375 -0.8125 1.46875zm5.706726 4.296875l1.5 -7.0625l1.28125 0l-0.28125 1.328125q0.515625 -0.71875 1.171875 -1.09375q0.671875 -0.390625 1.359375 -0.390625q0.1875 0 0.40625 0.03125l-0.25 1.1875q-0.3125 -0.109375 -0.578125 -0.109375q-0.59375 0 -1.1875 0.375q-0.59375 0.359375 -1.15625 1.078125l-0.984375 4.65625l-1.28125 0zm9.281738 -0.890625q-0.671875 0.515625 -1.296875 0.78125q-0.609375 0.265625 -1.140625 0.265625q-0.75 0 -1.296875 -0.484375q-0.53125 -0.5 -0.328125 -1.453125q0.21875 -1.03125 1.265625 -1.703125q1.046875 -0.6875 3.015625 -0.6875l0.296875 0l0.171875 -0.859375q0.109375 -0.5 0.03125 -0.734375q-0.078125 -0.234375 -0.34375 -0.359375q-0.265625 -0.140625 -0.703125 -0.140625q-1.0 0 -2.296875 0.625l0.21875 -1.0625q1.40625 -0.515625 2.546875 -0.515625q0.625 0 1.109375 0.203125q0.484375 0.1875 0.703125 0.625q0.21875 0.421875 0.015625 1.359375l-0.671875 3.203125q-0.109375 0.53125 -0.0625 0.71875q0.046875 0.1875 0.171875 0.28125q0.140625 0.09375 0.34375 0.09375q0.078125 0 0.234375 -0.015625l-0.046875 0.703125q-0.484375 0.203125 -1.0 0.203125q-0.359375 0 -0.640625 -0.21875q-0.28125 -0.234375 -0.296875 -0.828125zm-0.03125 -0.703125l0.390625 -1.828125l-0.40625 -0.015625q-1.015625 0 -1.78125 0.390625q-0.765625 0.390625 -0.90625 1.0625q-0.09375 0.46875 0.171875 0.78125q0.265625 0.3125 0.71875 0.3125q0.390625 0 0.84375 -0.171875q0.46875 -0.1875 0.96875 -0.53125zm6.7197876 1.59375q-0.625 0.15625 -1.0625 0.15625q-0.953125 0 -1.40625 -0.546875q-0.4375 -0.546875 -0.21875 -1.5625l0.875 -4.15625l-0.875 0l0.203125 -0.953125l0.875 0l0.28125 -1.28125l1.296875 -0.125l-0.296875 1.40625l1.859375 0l-0.203125 0.953125l-1.859375 0l-0.828125 3.921875q-0.15625 0.75 0.0625 1.078125q0.21875 0.3125 0.84375 0.3125q0.25 0 0.640625 -0.09375l-0.1875 0.890625zm1.8287659 0l1.5 -7.0625l1.28125 0l-1.5 7.0625l-1.28125 0zm1.78125 -8.34375l0.265625 -1.28125l1.28125 0l-0.265625 1.28125l-1.28125 0zm4.852661 8.5q-1.015625 0 -1.671875 -0.40625q-0.65625 -0.40625 -0.90625 -1.296875q-0.25 -0.890625 -0.015625 -1.984375q0.21875 -1.03125 0.796875 -1.90625q0.59375 -0.890625 1.4375 -1.328125q0.859375 -0.453125 1.921875 -0.453125q1.015625 0 1.671875 0.40625q0.65625 0.40625 0.90625 1.296875q0.25 0.890625 0.015625 1.984375q-0.21875 1.03125 -0.8125 1.921875q-0.59375 0.875 -1.4375 1.328125q-0.84375 0.4375 -1.90625 0.4375zm0.203125 -0.953125q0.953125 0 1.625 -0.703125q0.6875 -0.71875 0.96875 -2.03125q0.28125 -1.3125 -0.109375 -2.015625q-0.375 -0.71875 -1.328125 -0.71875q-0.953125 0 -1.625 0.71875q-0.671875 0.703125 -0.953125 2.015625q-0.28125 1.3125 0.09375 2.03125q0.375 0.703125 1.328125 0.703125zm5.202545 0.796875l1.5 -7.0625l1.28125 0l-0.28125 1.328125q0.640625 -0.71875 1.359375 -1.09375q0.734375 -0.390625 1.4375 -0.390625q0.890625 0 1.328125 0.578125q0.453125 0.5625 0.234375 1.5625l-1.078125 5.078125l-1.28125 0l0.984375 -4.65625q0.15625 -0.734375 0.078125 -0.96875q-0.078125 -0.234375 -0.296875 -0.359375q-0.203125 -0.140625 -0.46875 -0.140625q-0.46875 0 -1.09375 0.296875q-0.609375 0.296875 -1.453125 1.25l-0.96875 4.578125l-1.28125 0zm8.22464 0l2.046875 -9.625l1.375 0l-2.046875 9.625l-1.375 0zm3.8865051 0l1.5 -7.0625l1.28125 0l-0.28125 1.328125q0.53125 -0.625 1.21875 -1.046875q0.703125 -0.4375 1.5 -0.4375q0.46875 0 0.78125 0.15625q0.3125 0.140625 0.53125 0.421875q0.234375 0.265625 0.3125 0.90625q0.53125 -0.640625 1.21875 -1.0625q0.6875 -0.4375 1.46875 -0.4375q0.75 0 1.25 0.46875q0.515625 0.46875 0.265625 1.625l-1.09375 5.140625l-1.28125 0l1.046875 -4.9375q0.15625 -0.703125 -0.09375 -0.953125q-0.234375 -0.265625 -0.59375 -0.265625q-0.46875 0 -1.015625 0.296875q-0.546875 0.28125 -1.390625 1.125l-1.0 4.734375l-1.296875 0l1.046875 -4.9375q0.15625 -0.71875 -0.09375 -0.96875q-0.234375 -0.25 -0.609375 -0.25q-0.46875 0 -1.0 0.28125q-0.53125 0.28125 -1.390625 1.140625l-1.0 4.734375l-1.28125 0zm11.896179 2.578125l2.046875 -9.640625l1.28125 0l-0.28125 1.328125q0.5625 -0.75 1.21875 -1.109375q0.671875 -0.375 1.453125 -0.375q1.3125 0 1.828125 0.96875q0.515625 0.953125 0.1875 2.5q-0.21875 1.015625 -0.75 1.921875q-0.515625 0.90625 -1.328125 1.453125q-0.8125 0.53125 -1.703125 0.53125q-0.359375 0 -0.90625 -0.109375q-0.546875 -0.09375 -1.046875 -0.84375l-0.71875 3.375l-1.28125 0zm2.1875 -4.265625q0.53125 0.59375 0.890625 0.75q0.359375 0.140625 0.8125 0.140625q0.9375 0 1.5625 -0.796875q0.625 -0.796875 0.875 -2.03125q0.25 -1.140625 -0.015625 -1.8125q-0.25 -0.671875 -1.09375 -0.671875q-0.53125 0 -1.125 0.296875q-0.578125 0.28125 -1.21875 0.875l-0.6875 3.25zm6.748047 1.6875l2.1875 -10.28125l1.28125 0l-2.1875 10.28125l-1.28125 0zm9.087036 -0.234375q-1.375 0.390625 -2.296875 0.390625q-1.640625 0 -2.359375 -1.109375q-0.703125 -1.109375 -0.390625 -2.609375q0.21875 -1.0 0.828125 -1.890625q0.625 -0.90625 1.375 -1.34375q0.765625 -0.4375 1.671875 -0.4375q1.21875 0 1.765625 0.890625q0.546875 0.875 0.1875 2.625l-0.109375 0.390625l-4.453125 0q-0.078125 0.9375 0.109375 1.453125q0.1875 0.5 0.625 0.78125q0.4375 0.28125 1.203125 0.28125q0.390625 0 0.78125 -0.0625q0.40625 -0.078125 1.28125 -0.375l-0.21875 1.015625zm-3.515625 -4.0625l3.109375 0q0.234375 -1.0625 -0.09375 -1.515625q-0.3125 -0.453125 -0.953125 -0.453125q-0.734375 0 -1.25 0.5q-0.515625 0.484375 -0.8125 1.46875zm5.706726 4.296875l1.5 -7.0625l1.28125 0l-0.28125 1.328125q0.53125 -0.625 1.21875 -1.046875q0.703125 -0.4375 1.5 -0.4375q0.46875 0 0.78125 0.15625q0.3125 0.140625 0.53125 0.421875q0.234375 0.265625 0.3125 0.90625q0.53125 -0.640625 1.21875 -1.0625q0.6875 -0.4375 1.46875 -0.4375q0.75 0 1.25 0.46875q0.515625 0.46875 0.265625 1.625l-1.09375 5.140625l-1.28125 0l1.046875 -4.9375q0.15625 -0.703125 -0.09375 -0.953125q-0.234375 -0.265625 -0.59375 -0.265625q-0.46875 0 -1.015625 0.296875q-0.546875 0.28125 -1.390625 1.125l-1.0 4.734375l-1.296875 0l1.046875 -4.9375q0.15625 -0.71875 -0.09375 -0.96875q-0.234375 -0.25 -0.609375 -0.25q-0.46875 0 -1.0 0.28125q-0.53125 0.28125 -1.390625 1.140625l-1.0 4.734375l-1.28125 0zm17.67743 -0.234375q-1.375 0.390625 -2.296875 0.390625q-1.640625 0 -2.359375 -1.109375q-0.703125 -1.109375 -0.390625 -2.609375q0.21875 -1.0 0.828125 -1.890625q0.625 -0.90625 1.375 -1.34375q0.765625 -0.4375 1.671875 -0.4375q1.21875 0 1.765625 0.890625q0.546875 0.875 0.1875 2.625l-0.109375 0.390625l-4.453125 0q-0.078125 0.9375 0.109375 1.453125q0.1875 0.5 0.625 0.78125q0.4375 0.28125 1.203125 0.28125q0.390625 0 0.78125 -0.0625q0.40625 -0.078125 1.28125 -0.375l-0.21875 1.015625zm-3.515625 -4.0625l3.109375 0q0.234375 -1.0625 -0.09375 -1.515625q-0.3125 -0.453125 -0.953125 -0.453125q-0.734375 0 -1.25 0.5q-0.515625 0.484375 -0.8125 1.46875zm5.7067566 4.296875l1.5 -7.0625l1.28125 0l-0.28125 1.328125q0.640625 -0.71875 1.359375 -1.09375q0.734375 -0.390625 1.4375 -0.390625q0.890625 0 1.328125 0.578125q0.453125 0.5625 0.234375 1.5625l-1.078125 5.078125l-1.28125 0l0.984375 -4.65625q0.15625 -0.734375 0.078125 -0.96875q-0.078125 -0.234375 -0.296875 -0.359375q-0.203125 -0.140625 -0.46875 -0.140625q-0.46875 0 -1.09375 0.296875q-0.609375 0.296875 -1.453125 1.25l-0.96875 4.578125l-1.28125 0zm11.427734 0q-0.625 0.15625 -1.0625 0.15625q-0.953125 0 -1.40625 -0.546875q-0.4375 -0.546875 -0.21875 -1.5625l0.875 -4.15625l-0.875 0l0.203125 -0.953125l0.875 0l0.28125 -1.28125l1.296875 -0.125l-0.296875 1.40625l1.859375 0l-0.203125 0.953125l-1.859375 0l-0.828125 3.921875q-0.15625 0.75 0.0625 1.078125q0.21875 0.3125 0.84375 0.3125q0.25 0 0.640625 -0.09375l-0.1875 0.890625zm5.6569214 -0.890625q-0.671875 0.515625 -1.296875 0.78125q-0.609375 0.265625 -1.140625 0.265625q-0.75 0 -1.296875 -0.484375q-0.53125 -0.5 -0.328125 -1.453125q0.21875 -1.03125 1.265625 -1.703125q1.046875 -0.6875 3.015625 -0.6875l0.296875 0l0.171875 -0.859375q0.109375 -0.5 0.03125 -0.734375q-0.078125 -0.234375 -0.34375 -0.359375q-0.265625 -0.140625 -0.703125 -0.140625q-1.0 0 -2.296875 0.625l0.21875 -1.0625q1.40625 -0.515625 2.546875 -0.515625q0.625 0 1.109375 0.203125q0.484375 0.1875 0.703125 0.625q0.21875 0.421875 0.015625 1.359375l-0.671875 3.203125q-0.109375 0.53125 -0.0625 0.71875q0.046875 0.1875 0.171875 0.28125q0.140625 0.09375 0.34375 0.09375q0.078125 0 0.234375 -0.015625l-0.046875 0.703125q-0.484375 0.203125 -1.0 0.203125q-0.359375 0 -0.640625 -0.21875q-0.28125 -0.234375 -0.296875 -0.828125zm-0.03125 -0.703125l0.390625 -1.828125l-0.40625 -0.015625q-1.015625 0 -1.78125 0.390625q-0.765625 0.390625 -0.90625 1.0625q-0.09375 0.46875 0.171875 0.78125q0.265625 0.3125 0.71875 0.3125q0.390625 0 0.84375 -0.171875q0.46875 -0.1875 0.96875 -0.53125zm6.7197876 1.59375q-0.625 0.15625 -1.0625 0.15625q-0.953125 0 -1.40625 -0.546875q-0.4375 -0.546875 -0.21875 -1.5625l0.875 -4.15625l-0.875 0l0.203125 -0.953125l0.875 0l0.28125 -1.28125l1.296875 -0.125l-0.296875 1.40625l1.859375 0l-0.203125 0.953125l-1.859375 0l-0.828125 3.921875q-0.15625 0.75 0.0625 1.078125q0.21875 0.3125 0.84375 0.3125q0.25 0 0.640625 -0.09375l-0.1875 0.890625zm1.8287964 0l1.5 -7.0625l1.28125 0l-1.5 7.0625l-1.28125 0zm1.78125 -8.34375l0.265625 -1.28125l1.28125 0l-0.265625 1.28125l-1.28125 0zm4.852661 8.5q-1.015625 0 -1.671875 -0.40625q-0.65625 -0.40625 -0.90625 -1.296875q-0.25 -0.890625 -0.015625 -1.984375q0.21875 -1.03125 0.796875 -1.90625q0.59375 -0.890625 1.4375 -1.328125q0.859375 -0.453125 1.921875 -0.453125q1.015625 0 1.671875 0.40625q0.65625 0.40625 0.90625 1.296875q0.25 0.890625 0.015625 1.984375q-0.21875 1.03125 -0.8125 1.921875q-0.59375 0.875 -1.4375 1.328125q-0.84375 0.4375 -1.90625 0.4375zm0.203125 -0.953125q0.953125 0 1.625 -0.703125q0.6875 -0.71875 0.96875 -2.03125q0.28125 -1.3125 -0.109375 -2.015625q-0.375 -0.71875 -1.328125 -0.71875q-0.953125 0 -1.625 0.71875q-0.671875 0.703125 -0.953125 2.015625q-0.28125 1.3125 0.09375 2.03125q0.375 0.703125 1.328125 0.703125zm5.2025146 0.796875l1.5 -7.0625l1.28125 0l-0.28125 1.328125q0.640625 -0.71875 1.359375 -1.09375q0.734375 -0.390625 1.4375 -0.390625q0.890625 0 1.328125 0.578125q0.453125 0.5625 0.234375 1.5625l-1.078125 5.078125l-1.28125 0l0.984375 -4.65625q0.15625 -0.734375 0.078125 -0.96875q-0.078125 -0.234375 -0.296875 -0.359375q-0.203125 -0.140625 -0.46875 -0.140625q-0.46875 0 -1.09375 0.296875q-0.609375 0.296875 -1.453125 1.25l-0.96875 4.578125l-1.28125 0z" fill-rule="nonzero"/><path fill="#000000" d="m561.04645 109.24058l0 0.875q-1.0625 -0.71875 -1.71875 -1.71875q-0.65625 -1.0 -1.0 -2.140625q-0.34375 -1.140625 -0.34375 -2.234375q0 -1.09375 0.34375 -2.234375q0.34375 -1.140625 1.0 -2.140625q0.65625 -1.0 1.71875 -1.734375l0 0.890625q-0.734375 0.796875 -1.09375 1.546875q-0.34375 0.75 -0.515625 1.6875q-0.171875 0.9375 -0.171875 1.984375q0 1.03125 0.171875 1.984375q0.171875 0.9375 0.515625 1.6875q0.359375 0.734375 1.09375 1.546875zm0.9592285 -10.4375l0 -0.890625q1.0625 0.734375 1.71875 1.734375q0.65625 1.0 0.984375 2.140625q0.34375 1.140625 0.34375 2.234375q0 1.09375 -0.34375 2.234375q-0.328125 1.140625 -0.984375 2.140625q-0.65625 1.0 -1.71875 1.71875l0 -0.875q0.734375 -0.8125 1.078125 -1.546875q0.359375 -0.75 0.515625 -1.6875q0.171875 -0.953125 0.171875 -1.984375q0 -1.03125 -0.171875 -1.96875q-0.15625 -0.953125 -0.515625 -1.703125q-0.34375 -0.75 -1.078125 -1.546875z" fill-rule="nonzero"/><path fill="#000000" fill-opacity="0.0" d="m369.5328 55.165356l216.1575 0l0 31.212597l-216.1575 0z" fill-rule="evenodd"/><path stroke="#000000" stroke-width="2.0" stroke-linejoin="round" stroke-linecap="butt" d="m369.5328 55.165356l216.1575 0l0 31.212597l-216.1575 0z" fill-rule="evenodd"/><path fill="#000000" d="m379.82968 75.571655l0 -1.609375l1.609375 0l0 1.609375l-1.609375 0zm4.217102 0l0 -1.609375l1.609375 0l0 1.609375l-1.609375 0zm4.217102 0l0 -1.609375l1.609375 0l0 1.609375l-1.609375 0z" fill-rule="nonzero"/><path fill="#000000" fill-opacity="0.0" d="m232.24672 72.04724l137.29134 -1.2598419" fill-rule="evenodd"/><path stroke="#000000" stroke-width="2.0" stroke-linejoin="round" stroke-linecap="butt" d="m232.24672 72.04724l130.43745 -1.1969452" fill-rule="evenodd"/><path fill="#000000" stroke="#000000" stroke-width="2.0" stroke-linecap="butt" d="m362.68417 70.850296l-2.228424 2.2697067l6.1586304 -2.3057709l-6.1999207 -2.1923676z" fill-rule="evenodd"/><path fill="#000000" fill-opacity="0.0" d="m16.08924 55.03937l216.15749 0l0 34.015743l-216.15749 0z" fill-rule="evenodd"/><path stroke="#000000" stroke-width="2.0" stroke-linejoin="round" stroke-linecap="butt" d="m16.08924 55.03937l216.15749 0l0 34.015743l-216.15749 0z" fill-rule="evenodd"/><path fill="#000000" d="m28.823614 76.534744l0 -3.0625l-3.046875 0l0 -0.953125l3.046875 0l0 -3.0625l0.96875 0l0 3.0625l3.046873 0l0 0.953125l-3.046873 0l0 3.0625l-0.96875 0zm10.191679 0.3125l0 -7.0625l1.28125 0l0 7.0625l-1.28125 0zm0 -8.34375l0 -1.28125l1.28125 0l0 1.28125l-1.28125 0zm3.8526611 8.34375l0 -7.0625l1.28125 0l0 1.328125q0.390625 -0.625 1.0 -1.046875q0.609375 -0.4375 1.40625 -0.4375q0.46875 0 0.8125 0.15625q0.34375 0.140625 0.625 0.421875q0.28125 0.265625 0.5 0.90625q0.390625 -0.640625 0.984375 -1.0625q0.609375 -0.4375 1.390625 -0.4375q0.75 0 1.34375 0.46875q0.609375 0.46875 0.609375 1.625l0 5.140625l-1.28125 0l0 -4.9375q0 -0.703125 -0.296875 -0.953125q-0.296875 -0.265625 -0.65625 -0.265625q-0.46875 0 -0.953125 0.296875q-0.484375 0.28125 -1.140625 1.125l0 4.734375l-1.296875 0l0 -4.9375q0 -0.71875 -0.296875 -0.96875q-0.296875 -0.25 -0.671875 -0.25q-0.46875 0 -0.9375 0.28125q-0.46875 0.28125 -1.140625 1.140625l0 4.734375l-1.28125 0zm12.443054 2.578125l0 -9.640625l1.28125 0l0 1.328125q0.40625 -0.75 0.984375 -1.109375q0.59375 -0.375 1.375 -0.375q1.3125 0 2.03125 0.96875q0.71875 0.953125 0.71875 2.5q0 1.015625 -0.34375 1.921875q-0.328125 0.90625 -1.03125 1.453125q-0.6875 0.53125 -1.578125 0.53125q-0.359375 0 -0.9375 -0.109375q-0.5625 -0.09375 -1.21875 -0.84375l0 3.375l-1.28125 0zm1.28125 -4.265625q0.65625 0.59375 1.046875 0.75q0.390625 0.140625 0.84375 0.140625q0.9375 0 1.390625 -0.796875q0.453125 -0.796875 0.453125 -2.03125q0 -1.140625 -0.40625 -1.8125q-0.390625 -0.671875 -1.234375 -0.671875q-0.53125 0 -1.0625 0.296875q-0.515625 0.28125 -1.03125 0.875l0 3.25zm7.1074066 1.6875l0 -10.28125l1.2812538 0l0 10.28125l-1.2812538 0zm9.040165 -0.234375q-1.296875 0.390625 -2.21875 0.390625q-1.640625 0 -2.59375 -1.109375q-0.9375 -1.109375 -0.9375 -2.609375q0 -1.0 0.421875 -1.890625q0.421875 -0.90625 1.09375 -1.34375q0.671875 -0.4375 1.578125 -0.4375q1.21875 0 1.953125 0.890625q0.734375 0.875 0.734375 2.625l-0.015625 0.390625l-4.453125 0q0.109375 0.9375 0.40625 1.453125q0.296875 0.5 0.796875 0.78125q0.5 0.28125 1.265625 0.28125q0.390625 0 0.765625 -0.0625q0.390625 -0.078125 1.203125 -0.375l0 1.015625zm-4.375 -4.0625l3.109375 0q0 -1.0625 -0.421875 -1.515625q-0.40625 -0.453125 -1.046875 -0.453125q-0.734375 0 -1.15625 0.5q-0.40625 0.484375 -0.484375 1.46875zm6.6129913 4.296875l0 -7.0625l1.28125 0l0 1.328125q0.390625 -0.625 1.0 -1.046875q0.609375 -0.4375 1.40625 -0.4375q0.46875 0 0.8125 0.15625q0.34375 0.140625 0.625 0.421875q0.28125 0.265625 0.5 0.90625q0.390625 -0.640625 0.984375 -1.0625q0.609375 -0.4375 1.390625 -0.4375q0.75 0 1.34375 0.46875q0.609375 0.46875 0.609375 1.625l0 5.140625l-1.28125 0l0 -4.9375q0 -0.703125 -0.296875 -0.953125q-0.296875 -0.265625 -0.65625 -0.265625q-0.46875 0 -0.953125 0.296875q-0.484375 0.28125 -1.140625 1.125l0 4.734375l-1.296875 0l0 -4.9375q0 -0.71875 -0.296875 -0.96875q-0.296875 -0.25 -0.671875 -0.25q-0.46875 0 -0.9375 0.28125q-0.46875 0.28125 -1.140625 1.140625l0 4.734375l-1.28125 0zm17.630554 -0.234375q-1.296875 0.390625 -2.21875 0.390625q-1.640625 0 -2.59375 -1.109375q-0.9375 -1.109375 -0.9375 -2.609375q0 -1.0 0.421875 -1.890625q0.421875 -0.90625 1.09375 -1.34375q0.671875 -0.4375 1.578125 -0.4375q1.21875 0 1.953125 0.890625q0.734375 0.875 0.734375 2.625l-0.015625 0.390625l-4.453125 0q0.109375 0.9375 0.40625 1.453125q0.296875 0.5 0.796875 0.78125q0.5 0.28125 1.265625 0.28125q0.390625 0 0.765625 -0.0625q0.390625 -0.078125 1.203125 -0.375l0 1.015625zm-4.375 -4.0625l3.109375 0q0 -1.0625 -0.421875 -1.515625q-0.40625 -0.453125 -1.046875 -0.453125q-0.734375 0 -1.15625 0.5q-0.40625 0.484375 -0.484375 1.46875zm6.6129913 4.296875l0 -7.0625l1.28125 0l0 1.328125q0.484375 -0.71875 1.125 -1.09375q0.65625 -0.390625 1.359375 -0.390625q0.890625 0 1.453125 0.578125q0.5625 0.5625 0.5625 1.5625l0 5.078125l-1.28125 0l0 -4.65625q0 -0.734375 -0.140625 -0.96875q-0.125 -0.234375 -0.359375 -0.359375q-0.234375 -0.140625 -0.5 -0.140625q-0.46875 0 -1.03125 0.296875q-0.546875 0.296875 -1.1875 1.25l0 4.578125l-1.28125 0zm11.427765 0q-0.59375 0.15625 -1.03125 0.15625q-0.953125 0 -1.515625 -0.546875q-0.5625 -0.546875 -0.5625 -1.5625l0 -4.15625l-0.875 0l0 -0.953125l0.875 0l0 -1.28125l1.28125 -0.125l0 1.40625l1.859375 0l0 0.953125l-1.859375 0l0 3.921875q0 0.75 0.28125 1.078125q0.296875 0.3125 0.921875 0.3125q0.25 0 0.625 -0.09375l0 0.890625zm4.641281 0.15625q-1.015625 0 -1.765625 -0.40625q-0.734375 -0.40625 -1.171875 -1.296875q-0.4375 -0.890625 -0.4375 -1.984375q0 -1.03125 0.390625 -1.90625q0.40625 -0.890625 1.15625 -1.328125q0.765625 -0.453125 1.828125 -0.453125q1.015625 0 1.75 0.40625q0.75 0.40625 1.1875 1.296875q0.4375 0.890625 0.4375 1.984375q0 1.03125 -0.40625 1.921875q-0.40625 0.875 -1.15625 1.328125q-0.75 0.4375 -1.8125 0.4375zm0 -0.953125q0.953125 0 1.484375 -0.703125q0.53125 -0.71875 0.53125 -2.03125q0 -1.3125 -0.53125 -2.015625q-0.53125 -0.71875 -1.484375 -0.71875q-0.953125 0 -1.484375 0.71875q-0.515625 0.703125 -0.515625 2.015625q0 1.3125 0.515625 2.03125q0.53125 0.703125 1.484375 0.703125zm5.374405 0.796875l0 -7.0625l1.28125 0l0 1.328125q0.359375 -0.71875 0.9375 -1.09375q0.59375 -0.390625 1.28125 -0.390625q0.1875 0 0.40625 0.03125l0 1.1875q-0.328125 -0.109375 -0.59375 -0.109375q-0.59375 0 -1.109375 0.375q-0.515625 0.359375 -0.921875 1.078125l0 4.65625l-1.28125 0zm5.641098 0l0 -1.28125l1.28125 0l0 1.28125l-1.28125 0zm0 -5.78125l0 -1.28125l1.28125 0l0 1.28125l-1.28125 0zm8.199821 5.78125l0 -9.625l1.375 0l0 9.625l-1.375 0zm3.8865204 0l0 -7.0625l1.28125 0l0 1.328125q0.390625 -0.625 1.0 -1.046875q0.609375 -0.4375 1.40625 -0.4375q0.46875 0 0.8125 0.15625q0.34375 0.140625 0.625 0.421875q0.28125 0.265625 0.5 0.90625q0.390625 -0.640625 0.984375 -1.0625q0.609375 -0.4375 1.390625 -0.4375q0.75 0 1.34375 0.46875q0.609375 0.46875 0.609375 1.625l0 5.140625l-1.28125 0l0 -4.9375q0 -0.703125 -0.296875 -0.953125q-0.296875 -0.265625 -0.65625 -0.265625q-0.46875 0 -0.953125 0.296875q-0.484375 0.28125 -1.140625 1.125l0 4.734375l-1.296875 0l0 -4.9375q0 -0.71875 -0.296875 -0.96875q-0.296875 -0.25 -0.671875 -0.25q-0.46875 0 -0.9375 0.28125q-0.46875 0.28125 -1.140625 1.140625l0 4.734375l-1.28125 0zm12.443054 2.578125l0 -9.640625l1.28125 0l0 1.328125q0.40625 -0.75 0.984375 -1.109375q0.59375 -0.375 1.375 -0.375q1.3125 0 2.03125 0.96875q0.71875 0.953125 0.71875 2.5q0 1.015625 -0.34375 1.921875q-0.328125 0.90625 -1.03125 1.453125q-0.6875 0.53125 -1.578125 0.53125q-0.359375 0 -0.9375 -0.109375q-0.5625 -0.09375 -1.21875 -0.84375l0 3.375l-1.28125 0zm1.28125 -4.265625q0.65625 0.59375 1.046875 0.75q0.390625 0.140625 0.84375 0.140625q0.9375 0 1.390625 -0.796875q0.453125 -0.796875 0.453125 -2.03125q0 -1.140625 -0.40625 -1.8125q-0.390625 -0.671875 -1.234375 -0.671875q-0.53125 0 -1.0625 0.296875q-0.515625 0.28125 -1.03125 0.875l0 3.25zm7.1074066 1.6875l0 -10.28125l1.28125 0l0 10.28125l-1.28125 0zm9.040161 -0.234375q-1.296875 0.390625 -2.21875 0.390625q-1.640625 0 -2.59375 -1.109375q-0.9375 -1.109375 -0.9375 -2.609375q0 -1.0 0.421875 -1.890625q0.421875 -0.90625 1.09375 -1.34375q0.671875 -0.4375 1.578125 -0.4375q1.21875 0 1.953125 0.890625q0.734375 0.875 0.734375 2.625l-0.015625 0.390625l-4.453125 0q0.109375 0.9375 0.40625 1.453125q0.296875 0.5 0.796875 0.78125q0.5 0.28125 1.265625 0.28125q0.390625 0 0.765625 -0.0625q0.390625 -0.078125 1.203125 -0.375l0 1.015625zm-4.375 -4.0625l3.109375 0q0 -1.0625 -0.421875 -1.515625q-0.40625 -0.453125 -1.046875 -0.453125q-0.734375 0 -1.15625 0.5q-0.40625 0.484375 -0.484375 1.46875zm6.6129913 4.296875l0 -7.0625l1.28125 0l0 1.328125q0.390625 -0.625 1.0 -1.046875q0.609375 -0.4375 1.40625 -0.4375q0.46875 0 0.8125 0.15625q0.34375 0.140625 0.625 0.421875q0.28125 0.265625 0.5 0.90625q0.390625 -0.640625 0.984375 -1.0625q0.609375 -0.4375 1.390625 -0.4375q0.75 0 1.34375 0.46875q0.609375 0.46875 0.609375 1.625l0 5.140625l-1.28125 0l0 -4.9375q0 -0.703125 -0.296875 -0.953125q-0.296875 -0.265625 -0.65625 -0.265625q-0.46875 0 -0.953125 0.296875q-0.484375 0.28125 -1.140625 1.125l0 4.734375l-1.296875 0l0 -4.9375q0 -0.71875 -0.296875 -0.96875q-0.296875 -0.25 -0.671875 -0.25q-0.46875 0 -0.9375 0.28125q-0.46875 0.28125 -1.140625 1.140625l0 4.734375l-1.28125 0zm17.630554 -0.234375q-1.296875 0.390625 -2.21875 0.390625q-1.640625 0 -2.59375 -1.109375q-0.9375 -1.109375 -0.9375 -2.609375q0 -1.0 0.421875 -1.890625q0.421875 -0.90625 1.09375 -1.34375q0.671875 -0.4375 1.578125 -0.4375q1.21875 0 1.953125 0.890625q0.734375 0.875 0.734375 2.625l-0.015625 0.390625l-4.453125 0q0.109375 0.9375 0.40625 1.453125q0.296875 0.5 0.796875 0.78125q0.5 0.28125 1.265625 0.28125q0.390625 0 0.765625 -0.0625q0.390625 -0.078125 1.203125 -0.375l0 1.015625zm-4.375 -4.0625l3.109375 0q0 -1.0625 -0.421875 -1.515625q-0.40625 -0.453125 -1.046875 -0.453125q-0.734375 0 -1.15625 0.5q-0.40625 0.484375 -0.484375 1.46875zm6.6129913 4.296875l0 -7.0625l1.28125 0l0 1.328125q0.484375 -0.71875 1.125 -1.09375q0.65625 -0.390625 1.359375 -0.390625q0.890625 0 1.453125 0.578125q0.5625 0.5625 0.5625 1.5625l0 5.078125l-1.28125 0l0 -4.65625q0 -0.734375 -0.140625 -0.96875q-0.125 -0.234375 -0.359375 -0.359375q-0.234375 -0.140625 -0.5 -0.140625q-0.46875 0 -1.03125 0.296875q-0.546875 0.296875 -1.1875 1.25l0 4.578125l-1.28125 0zm11.427765 0q-0.59375 0.15625 -1.03125 0.15625q-0.953125 0 -1.515625 -0.546875q-0.5625 -0.546875 -0.5625 -1.5625l0 -4.15625l-0.875 0l0 -0.953125l0.875 0l0 -1.28125l1.28125 -0.125l0 1.40625l1.859375 0l0 0.953125l-1.859375 0l0 3.921875q0 0.75 0.28125 1.078125q0.296875 0.3125 0.921875 0.3125q0.25 0 0.625 -0.09375l0 0.890625zm4.641281 0.15625q-1.015625 0 -1.765625 -0.40625q-0.734375 -0.40625 -1.171875 -1.296875q-0.4375 -0.890625 -0.4375 -1.984375q0 -1.03125 0.390625 -1.90625q0.40625 -0.890625 1.15625 -1.328125q0.765625 -0.453125 1.828125 -0.453125q1.015625 0 1.75 0.40625q0.75 0.40625 1.1875 1.296875q0.4375 0.890625 0.4375 1.984375q0 1.03125 -0.40625 1.921875q-0.40625 0.875 -1.15625 1.328125q-0.75 0.4375 -1.8125 0.4375zm0 -0.953125q0.953125 0 1.484375 -0.703125q0.53125 -0.71875 0.53125 -2.03125q0 -1.3125 -0.53125 -2.015625q-0.53125 -0.71875 -1.484375 -0.71875q-0.953125 0 -1.484375 0.71875q-0.515625 0.703125 -0.515625 2.015625q0 1.3125 0.515625 2.03125q0.53125 0.703125 1.484375 0.703125zm5.374405 0.796875l0 -7.0625l1.28125 0l0 1.328125q0.359375 -0.71875 0.9375 -1.09375q0.59375 -0.390625 1.28125 -0.390625q0.1875 0 0.40625 0.03125l0 1.1875q-0.328125 -0.109375 -0.59375 -0.109375q-0.59375 0 -1.109375 0.375q-0.515625 0.359375 -0.921875 1.078125l0 4.65625l-1.28125 0z" fill-rule="nonzero"/><path fill="#000000" fill-opacity="0.0" d="m232.38321 39.89501l24.283447 0l0 26.3937l-24.283447 0z" fill-rule="evenodd"/><path fill="#000000" d="m246.35196 61.69501l-1.171875 0l0 -7.46875q-0.421875 0.40625 -1.109375 0.8125q-0.6875 0.40625 -1.234375 0.609375l0 -1.140625q0.984375 -0.453125 1.71875 -1.109375q0.734375 -0.671875 1.03125 -1.28125l0.765625 0l0 9.578125z" fill-rule="nonzero"/><path fill="#000000" fill-opacity="0.0" d="m123.74278 174.25197l0.56692505 -51.307083" fill-rule="evenodd"/><path stroke="#000000" stroke-width="2.0" stroke-linejoin="round" stroke-linecap="butt" d="m123.74278 174.25197l0.43434143 -39.307816" fill-rule="evenodd"/><path stroke="#000000" stroke-width="2.0" stroke-linecap="butt" d="m127.480385 134.98065l-3.20298 -9.112144l-3.4035416 9.039146z" fill-rule="evenodd"/><path fill="#000000" fill-opacity="0.0" d="m478.19553 174.25197l-0.5984192 -53.85827" fill-rule="evenodd"/><path stroke="#000000" stroke-width="2.0" stroke-linejoin="round" stroke-linecap="butt" d="m478.19553 174.25197l-0.4650879 -41.85901" fill-rule="evenodd"/><path stroke="#000000" stroke-width="2.0" stroke-linecap="butt" d="m481.0337 132.35626l-3.4040833 -9.03894l-3.202423 9.112335z" fill-rule="evenodd"/><path fill="#000000" fill-opacity="0.0" d="m345.83466 39.89501l24.283447 0l0 26.3937l-24.283447 0z" fill-rule="evenodd"/><path fill="#000000" d="m359.8034 61.69501l-1.171875 0l0 -7.46875q-0.421875 0.40625 -1.109375 0.8125q-0.6875 0.40625 -1.234375 0.609375l0 -1.140625q0.984375 -0.453125 1.71875 -1.109375q0.734375 -0.671875 1.03125 -1.28125l0.765625 0l0 9.578125z" fill-rule="nonzero"/></g></svg>