<svg version="1.1" viewBox="0.0 0.0 480.501312335958 258.501312335958" fill="none" stroke="none" stroke-linecap="square" stroke-miterlimit="10" xmlns:xlink="http://www.w3.org/1999/xlink" xmlns="http://www.w3.org/2000/svg"><clipPath id="p.0"><path d="m0 0l480.5013 0l0 258.5013l-480.5013 0l0 -258.5013z" clip-rule="nonzero"/></clipPath><g clip-path="url(#p.0)"><path fill="#000000" fill-opacity="0.0" d="m0 0l480.5013 0l0 258.5013l-480.5013 0z" fill-rule="evenodd"/><path fill="#000000" fill-opacity="0.0" d="m171.74803 34.047245l-50.267715 0" fill-rule="evenodd"/><path stroke="#000000" stroke-width="2.0" stroke-linejoin="round" stroke-linecap="butt" d="m164.89386 34.047245l-32.156998 0" fill-rule="evenodd"/><path fill="#000000" stroke="#000000" stroke-width="2.0" stroke-linecap="butt" d="m164.89386 34.047245l-2.249176 2.2491646l6.17955 -2.2491646l-6.17955 -2.2491684z" fill-rule="evenodd"/><path fill="#000000" stroke="#000000" stroke-width="2.0" stroke-linecap="butt" d="m132.73686 34.047245l-4.756546 -3.330576l-4.7565536 3.330576l4.7565536 3.330574z" fill-rule="evenodd"/><path fill="#000000" fill-opacity="0.0" d="m2.9737532 143.48032l218.29921 0l0 39.118103l-218.29921 0z" fill-rule="evenodd"/><path stroke="#000000" stroke-width="3.0" stroke-linejoin="round" stroke-linecap="butt" d="m2.9737532 143.48032l218.29921 0l0 39.118103l-218.29921 0z" fill-rule="evenodd"/><path fill="#000000" d="m47.5772 164.87062l-1.828125 0q-0.03125 0.4375 -0.15625 0.75q-0.109375 0.296875 -0.3125 0.484375q-0.203125 0.203125 -0.5 0.296875q-0.28125 0.078125 -0.625 0.078125q-0.28125 0 -0.5 -0.0625q-0.203125 -0.0625 -0.390625 -0.1875q-0.15625 -0.109375 -0.28125 -0.28125q-0.125 -0.1875 -0.21875 -0.40625q-0.125 -0.34375 -0.1875 -0.78125q-0.0625 -0.453125 -0.0625 -1.015625l0 -1.28125q0 -0.421875 0.03125 -0.78125q0.046875 -0.359375 0.125 -0.65625q0.109375 -0.390625 0.296875 -0.671875q0.1875 -0.296875 0.453125 -0.453125q0.15625 -0.09375 0.34375 -0.140625q0.1875 -0.046875 0.390625 -0.046875q0.40625 0 0.6875 0.109375q0.296875 0.109375 0.5 0.3125q0.1875 0.21875 0.28125 0.546875q0.109375 0.3125 0.125 0.734375l1.828125 0q-0.0625 -0.75 -0.3125 -1.328125q-0.25 -0.59375 -0.671875 -1.015625q-0.4375 -0.40625 -1.046875 -0.625q-0.609375 -0.21875 -1.390625 -0.21875q-0.515625 0 -0.984375 0.140625q-0.453125 0.125 -0.84375 0.375q-0.421875 0.28125 -0.765625 0.71875q-0.328125 0.421875 -0.546875 0.953125q-0.171875 0.453125 -0.265625 0.96875q-0.09375 0.515625 -0.09375 1.078125l0 1.28125q0 0.609375 0.09375 1.15625q0.109375 0.546875 0.296875 1.0q0.1875 0.453125 0.46875 0.84375q0.296875 0.375 0.65625 0.640625q0.390625 0.28125 0.890625 0.4375q0.5 0.15625 1.09375 0.15625q0.734375 0 1.34375 -0.21875q0.609375 -0.21875 1.0625 -0.625q0.4375 -0.40625 0.703125 -0.96875q0.265625 -0.578125 0.3125 -1.296875zm1.2325592 -0.609375l0 0.125q0 0.78125 0.21875 1.4375q0.21875 0.65625 0.65625 1.125q0.421875 0.484375 1.03125 0.765625q0.625 0.265625 1.421875 0.265625q0.796875 0 1.40625 -0.265625q0.625 -0.28125 1.046875 -0.765625q0.421875 -0.46875 0.640625 -1.125q0.21875 -0.65625 0.21875 -1.4375l0 -0.125q0 -0.78125 -0.21875 -1.421875q-0.21875 -0.65625 -0.640625 -1.140625q-0.4375 -0.484375 -1.0625 -0.75q-0.609375 -0.28125 -1.40625 -0.28125q-0.78125 0 -1.40625 0.28125q-0.609375 0.265625 -1.03125 0.75q-0.4375 0.484375 -0.65625 1.140625q-0.21875 0.640625 -0.21875 1.421875zm1.8125 0.125l0 -0.125q0 -0.4375 0.078125 -0.8125q0.09375 -0.390625 0.265625 -0.6875q0.1875 -0.296875 0.46875 -0.453125q0.28125 -0.171875 0.6875 -0.171875q0.421875 0 0.703125 0.171875q0.28125 0.15625 0.46875 0.453125q0.171875 0.296875 0.25 0.6875q0.09375 0.375 0.09375 0.8125l0 0.125q0 0.453125 -0.09375 0.84375q-0.078125 0.375 -0.25 0.65625q-0.1875 0.296875 -0.46875 0.46875q-0.28125 0.171875 -0.6875 0.171875q-0.40625 0 -0.703125 -0.171875q-0.28125 -0.171875 -0.46875 -0.46875q-0.171875 -0.28125 -0.265625 -0.65625q-0.078125 -0.390625 -0.078125 -0.84375zm6.435684 3.453125l1.8125 0l0 -5.0q0.09375 -0.140625 0.203125 -0.25q0.109375 -0.125 0.25 -0.21875q0.15625 -0.109375 0.375 -0.171875q0.21875 -0.0625 0.484375 -0.0625q0.3125 0 0.5625 0.0625q0.25 0.0625 0.421875 0.21875q0.171875 0.15625 0.265625 0.4375q0.09375 0.265625 0.09375 0.671875l0 4.3125l1.8125 0l0 -4.328125q0 -0.78125 -0.1875 -1.3125q-0.171875 -0.53125 -0.484375 -0.875q-0.328125 -0.34375 -0.78125 -0.5q-0.4375 -0.15625 -0.96875 -0.15625q-0.421875 0 -0.796875 0.125q-0.359375 0.109375 -0.671875 0.328125q-0.1875 0.125 -0.34375 0.296875q-0.15625 0.15625 -0.296875 0.359375l-0.109375 -0.984375l-1.640625 0l0 7.046875zm11.107559 -1.3125q-0.4375 0 -0.71875 -0.171875q-0.28125 -0.1875 -0.4375 -0.46875q-0.171875 -0.296875 -0.234375 -0.671875q-0.0625 -0.375 -0.0625 -0.796875l0 -0.1875q0 -0.40625 0.0625 -0.78125q0.0625 -0.375 0.234375 -0.671875q0.171875 -0.296875 0.4375 -0.46875q0.28125 -0.171875 0.71875 -0.171875q0.296875 0 0.53125 0.109375q0.25 0.09375 0.421875 0.25q0.1875 0.171875 0.265625 0.40625q0.09375 0.234375 0.09375 0.5l1.703125 0q0 -0.625 -0.21875 -1.125q-0.21875 -0.515625 -0.609375 -0.875q-0.40625 -0.34375 -0.96875 -0.53125q-0.546875 -0.203125 -1.203125 -0.203125q-0.8125 0 -1.421875 0.28125q-0.609375 0.28125 -1.03125 0.765625q-0.421875 0.46875 -0.625 1.125q-0.203125 0.640625 -0.203125 1.390625l0 0.1875q0 0.75 0.203125 1.40625q0.21875 0.640625 0.625 1.125q0.421875 0.46875 1.03125 0.75q0.625 0.28125 1.4375 0.28125q0.609375 0 1.15625 -0.1875q0.546875 -0.203125 0.953125 -0.53125q0.40625 -0.34375 0.640625 -0.8125q0.234375 -0.46875 0.234375 -1.015625l-1.703125 0q0 0.25 -0.109375 0.453125q-0.09375 0.203125 -0.265625 0.34375q-0.1875 0.140625 -0.4375 0.21875q-0.234375 0.078125 -0.5 0.078125zm9.935684 -5.859375q-0.703125 0 -1.3125 0.34375q-0.59375 0.34375 -1.015625 0.9375l-0.015625 -0.15625l-0.078125 -1.0l-1.671875 0l0 7.046875l1.796875 0l0 -4.234375q0.125 -0.296875 0.3125 -0.515625q0.1875 -0.21875 0.453125 -0.359375q0.234375 -0.125 0.515625 -0.1875q0.28125 -0.0625 0.625 -0.0625q0.34375 0 0.71875 0.046875q0.375 0.03125 0.734375 0.125l0.265625 -1.8125q-0.21875 -0.0625 -0.5625 -0.109375q-0.34375 -0.0625 -0.765625 -0.0625zm6.357559 7.296875q1.03125 0 1.78125 -0.390625q0.75 -0.390625 1.09375 -0.890625l-0.90625 -0.96875q-0.3125 0.40625 -0.8125 0.609375q-0.5 0.1875 -1.046875 0.1875q-0.375 0 -0.703125 -0.109375q-0.3125 -0.125 -0.546875 -0.328125q-0.25 -0.21875 -0.390625 -0.46875q-0.140625 -0.265625 -0.234375 -0.6875l0 -0.015625l4.78125 0l0 -0.765625q0 -0.78125 -0.21875 -1.421875q-0.21875 -0.640625 -0.625 -1.09375q-0.421875 -0.453125 -1.015625 -0.703125q-0.59375 -0.25 -1.359375 -0.25q-0.734375 0 -1.359375 0.265625q-0.625 0.265625 -1.078125 0.75q-0.453125 0.484375 -0.703125 1.15625q-0.25 0.65625 -0.25 1.46875l0 0.25q0 0.71875 0.25 1.34375q0.265625 0.609375 0.734375 1.078125q0.46875 0.453125 1.125 0.71875q0.671875 0.265625 1.484375 0.265625zm-0.203125 -5.828125q0.34375 0 0.59375 0.109375q0.265625 0.09375 0.453125 0.28125q0.1875 0.1875 0.28125 0.453125q0.109375 0.25 0.109375 0.53125l0 0.140625l-2.96875 0q0.0625 -0.34375 0.1875 -0.625q0.140625 -0.28125 0.34375 -0.484375q0.1875 -0.203125 0.4375 -0.296875q0.25 -0.109375 0.5625 -0.109375zm8.107559 -3.0625l-1.8125 0l0 1.71875l-1.609375 0l0 1.34375l1.609375 0l0 3.203125q0 0.6875 0.1875 1.1875q0.1875 0.5 0.515625 0.8125q0.34375 0.328125 0.8125 0.484375q0.46875 0.15625 1.046875 0.15625q0.296875 0 0.609375 -0.03125q0.3125 -0.03125 0.59375 -0.078125q0.28125 -0.0625 0.53125 -0.140625q0.265625 -0.078125 0.453125 -0.1875l-0.171875 -1.25q-0.125 0.03125 -0.296875 0.078125q-0.171875 0.03125 -0.375 0.046875q-0.203125 0.03125 -0.421875 0.0625q-0.21875 0.015625 -0.421875 0.015625q-0.28125 0 -0.515625 -0.0625q-0.234375 -0.078125 -0.390625 -0.234375q-0.171875 -0.140625 -0.265625 -0.390625q-0.078125 -0.265625 -0.078125 -0.65625l0 -3.015625l2.625 0l0 -1.34375l-2.625 0l0 -1.71875zm8.091934 8.890625q1.03125 0 1.78125 -0.390625q0.75 -0.390625 1.09375 -0.890625l-0.90625 -0.96875q-0.3125 0.40625 -0.8125 0.609375q-0.5 0.1875 -1.046875 0.1875q-0.375 0 -0.703125 -0.109375q-0.3125 -0.125 -0.546875 -0.328125q-0.25 -0.21875 -0.390625 -0.46875q-0.140625 -0.265625 -0.234375 -0.6875l0 -0.015625l4.78125 0l0 -0.765625q0 -0.78125 -0.21875 -1.421875q-0.21875 -0.640625 -0.625 -1.09375q-0.421875 -0.453125 -1.015625 -0.703125q-0.59375 -0.25 -1.359375 -0.25q-0.734375 0 -1.359375 0.265625q-0.625 0.265625 -1.078125 0.75q-0.453125 0.484375 -0.703125 1.15625q-0.25 0.65625 -0.25 1.46875l0 0.25q0 0.71875 0.25 1.34375q0.265625 0.609375 0.734375 1.078125q0.46875 0.453125 1.125 0.71875q0.671875 0.265625 1.484375 0.265625zm-0.203125 -5.828125q0.34375 0 0.59375 0.109375q0.265625 0.09375 0.453125 0.28125q0.1875 0.1875 0.28125 0.453125q0.109375 0.25 0.109375 0.53125l0 0.140625l-2.96875 0q0.0625 -0.34375 0.1875 -0.625q0.140625 -0.28125 0.34375 -0.484375q0.1875 -0.203125 0.4375 -0.296875q0.25 -0.109375 0.5625 -0.109375zm6.670059 2.234375l1.40625 0q0.78125 0 1.40625 -0.21875q0.625 -0.234375 1.0625 -0.625q0.4375 -0.390625 0.671875 -0.921875q0.25 -0.546875 0.25 -1.1875q0 -0.6875 -0.25 -1.234375q-0.234375 -0.5625 -0.671875 -0.96875q-0.4375 -0.40625 -1.0625 -0.625q-0.625 -0.21875 -1.40625 -0.21875l-3.234375 0l0 9.46875l1.828125 0l0 -3.46875zm0 -1.484375l0 -3.03125l1.40625 0q0.390625 0 0.671875 0.125q0.296875 0.109375 0.5 0.328125q0.1875 0.21875 0.28125 0.515625q0.09375 0.28125 0.09375 0.609375q0 0.28125 -0.09375 0.546875q-0.09375 0.265625 -0.28125 0.46875q-0.203125 0.203125 -0.5 0.328125q-0.28125 0.109375 -0.671875 0.109375l-1.40625 0zm11.170059 -2.21875q-0.703125 0 -1.3125 0.34375q-0.59375 0.34375 -1.015625 0.9375l-0.015625 -0.15625l-0.078125 -1.0l-1.671875 0l0 7.046875l1.796875 0l0 -4.234375q0.125 -0.296875 0.3125 -0.515625q0.1875 -0.21875 0.453125 -0.359375q0.234375 -0.125 0.515625 -0.1875q0.28125 -0.0625 0.625 -0.0625q0.34375 0 0.71875 0.046875q0.375 0.03125 0.734375 0.125l0.265625 -1.8125q-0.21875 -0.0625 -0.5625 -0.109375q-0.34375 -0.0625 -0.765625 -0.0625zm2.7013092 3.59375l0 0.125q0 0.78125 0.21875 1.4375q0.21875 0.65625 0.65625 1.125q0.421875 0.484375 1.03125 0.765625q0.625 0.265625 1.421875 0.265625q0.796875 0 1.40625 -0.265625q0.625 -0.28125 1.046875 -0.765625q0.421875 -0.46875 0.640625 -1.125q0.21875 -0.65625 0.21875 -1.4375l0 -0.125q0 -0.78125 -0.21875 -1.421875q-0.21875 -0.65625 -0.640625 -1.140625q-0.4375 -0.484375 -1.0625 -0.75q-0.609375 -0.28125 -1.40625 -0.28125q-0.78125 0 -1.40625 0.28125q-0.609375 0.265625 -1.03125 0.75q-0.4375 0.484375 -0.65625 1.140625q-0.21875 0.640625 -0.21875 1.421875zm1.8125 0.125l0 -0.125q0 -0.4375 0.078125 -0.8125q0.09375 -0.390625 0.265625 -0.6875q0.1875 -0.296875 0.46875 -0.453125q0.28125 -0.171875 0.6875 -0.171875q0.421875 0 0.703125 0.171875q0.28125 0.15625 0.46875 0.453125q0.171875 0.296875 0.25 0.6875q0.09375 0.375 0.09375 0.8125l0 0.125q0 0.453125 -0.09375 0.84375q-0.078125 0.375 -0.25 0.65625q-0.1875 0.296875 -0.46875 0.46875q-0.28125 0.171875 -0.6875 0.171875q-0.40625 0 -0.703125 -0.171875q-0.28125 -0.171875 -0.46875 -0.46875q-0.171875 -0.28125 -0.265625 -0.65625q-0.078125 -0.390625 -0.078125 -0.84375zm9.748177 -5.3125l-1.8125 0l0 1.71875l-1.609375 0l0 1.34375l1.609375 0l0 3.203125q0 0.6875 0.1875 1.1875q0.1875 0.5 0.515625 0.8125q0.34375 0.328125 0.8125 0.484375q0.46875 0.15625 1.046875 0.15625q0.296875 0 0.609375 -0.03125q0.3125 -0.03125 0.59375 -0.078125q0.28125 -0.0625 0.53125 -0.140625q0.265625 -0.078125 0.453125 -0.1875l-0.171875 -1.25q-0.125 0.03125 -0.296875 0.078125q-0.171875 0.03125 -0.375 0.046875q-0.203125 0.03125 -0.421875 0.0625q-0.21875 0.015625 -0.421875 0.015625q-0.28125 0 -0.515625 -0.0625q-0.234375 -0.078125 -0.390625 -0.234375q-0.171875 -0.140625 -0.265625 -0.390625q-0.078125 -0.265625 -0.078125 -0.65625l0 -3.015625l2.625 0l0 -1.34375l-2.625 0l0 -1.71875zm4.4356995 5.1875l0 0.125q0 0.78125 0.21875 1.4375q0.21875 0.65625 0.65625 1.125q0.421875 0.484375 1.03125 0.765625q0.625 0.265625 1.421875 0.265625q0.796875 0 1.40625 -0.265625q0.625 -0.28125 1.046875 -0.765625q0.421875 -0.46875 0.640625 -1.125q0.21875 -0.65625 0.21875 -1.4375l0 -0.125q0 -0.78125 -0.21875 -1.421875q-0.21875 -0.65625 -0.640625 -1.140625q-0.4375 -0.484375 -1.0625 -0.75q-0.609375 -0.28125 -1.40625 -0.28125q-0.78125 0 -1.40625 0.28125q-0.609375 0.265625 -1.03125 0.75q-0.4375 0.484375 -0.65625 1.140625q-0.21875 0.640625 -0.21875 1.421875zm1.8125 0.125l0 -0.125q0 -0.4375 0.078125 -0.8125q0.09375 -0.390625 0.265625 -0.6875q0.1875 -0.296875 0.46875 -0.453125q0.28125 -0.171875 0.6875 -0.171875q0.421875 0 0.703125 0.171875q0.28125 0.15625 0.46875 0.453125q0.171875 0.296875 0.25 0.6875q0.09375 0.375 0.09375 0.8125l0 0.125q0 0.453125 -0.09375 0.84375q-0.078125 0.375 -0.25 0.65625q-0.1875 0.296875 -0.46875 0.46875q-0.28125 0.171875 -0.6875 0.171875q-0.40625 0 -0.703125 -0.171875q-0.28125 -0.171875 -0.46875 -0.46875q-0.171875 -0.28125 -0.265625 -0.65625q-0.078125 -0.390625 -0.078125 -0.84375zm9.748169 -5.3125l-1.8125 0l0 1.71875l-1.609375 0l0 1.34375l1.609375 0l0 3.203125q0 0.6875 0.1875 1.1875q0.1875 0.5 0.515625 0.8125q0.34375 0.328125 0.8125 0.484375q0.46875 0.15625 1.046875 0.15625q0.296875 0 0.609375 -0.03125q0.3125 -0.03125 0.59375 -0.078125q0.28125 -0.0625 0.53125 -0.140625q0.265625 -0.078125 0.453125 -0.1875l-0.171875 -1.25q-0.125 0.03125 -0.296875 0.078125q-0.171875 0.03125 -0.375 0.046875q-0.203125 0.03125 -0.421875 0.0625q-0.21875 0.015625 -0.421875 0.015625q-0.28125 0 -0.515625 -0.0625q-0.234375 -0.078125 -0.390625 -0.234375q-0.171875 -0.140625 -0.265625 -0.390625q-0.078125 -0.265625 -0.078125 -0.65625l0 -3.015625l2.625 0l0 -1.34375l-2.625 0l0 -1.71875zm5.7950745 11.609375q0.546875 0 0.9375 -0.1875q0.40625 -0.171875 0.6875 -0.4375q0.28125 -0.265625 0.46875 -0.578125q0.1875 -0.3125 0.296875 -0.59375l3.578125 -8.09375l-2.0 0l-1.609375 4.140625l-0.265625 0.703125l-0.1875 -0.71875l-1.625 -4.125l-1.96875 0l2.96875 6.75l-0.40625 0.765625q-0.078125 0.15625 -0.140625 0.234375q-0.046875 0.078125 -0.171875 0.234375q-0.109375 0.15625 -0.28125 0.28125q-0.171875 0.140625 -0.375 0.140625q-0.109375 0 -0.28125 -0.015625q-0.171875 -0.015625 -0.28125 -0.015625l-0.21875 1.390625q0.234375 0.0625 0.421875 0.09375q0.1875 0.03125 0.453125 0.03125zm6.904419 -0.140625l1.8125 0l0 -3.3125q0.125 0.140625 0.265625 0.25q0.140625 0.109375 0.28125 0.203125q0.25 0.140625 0.546875 0.203125q0.296875 0.078125 0.65625 0.078125q0.65625 0 1.171875 -0.265625q0.515625 -0.28125 0.875 -0.75q0.34375 -0.484375 0.515625 -1.140625q0.1875 -0.65625 0.1875 -1.421875l0 -0.140625q0 -0.796875 -0.1875 -1.453125q-0.171875 -0.671875 -0.53125 -1.140625q-0.34375 -0.46875 -0.859375 -0.71875q-0.515625 -0.265625 -1.1875 -0.265625q-0.328125 0 -0.609375 0.078125q-0.28125 0.0625 -0.515625 0.1875q-0.203125 0.09375 -0.375 0.234375q-0.15625 0.140625 -0.296875 0.3125l-0.078125 -0.6875l-1.671875 0l0 9.75zm4.5 -6.296875l0 0.140625q0 0.4375 -0.078125 0.828125q-0.078125 0.375 -0.25 0.671875q-0.171875 0.296875 -0.4375 0.46875q-0.265625 0.15625 -0.65625 0.15625q-0.234375 0 -0.4375 -0.046875q-0.1875 -0.046875 -0.34375 -0.140625q-0.15625 -0.09375 -0.28125 -0.21875q-0.109375 -0.140625 -0.203125 -0.3125l0 -2.9375q0.09375 -0.1875 0.21875 -0.328125q0.125 -0.140625 0.296875 -0.21875q0.15625 -0.078125 0.328125 -0.125q0.1875 -0.046875 0.40625 -0.046875q0.390625 0 0.65625 0.171875q0.265625 0.15625 0.453125 0.4375q0.15625 0.28125 0.234375 0.671875q0.09375 0.390625 0.09375 0.828125zm6.8888245 3.71875q1.03125 0 1.78125 -0.390625q0.75 -0.390625 1.09375 -0.890625l-0.90625 -0.96875q-0.3125 0.40625 -0.8125 0.609375q-0.5 0.1875 -1.046875 0.1875q-0.375 0 -0.703125 -0.109375q-0.3125 -0.125 -0.546875 -0.328125q-0.25 -0.21875 -0.390625 -0.46875q-0.140625 -0.265625 -0.234375 -0.6875l0 -0.015625l4.78125 0l0 -0.765625q0 -0.78125 -0.21875 -1.421875q-0.21875 -0.640625 -0.625 -1.09375q-0.421875 -0.453125 -1.015625 -0.703125q-0.59375 -0.25 -1.359375 -0.25q-0.734375 0 -1.359375 0.265625q-0.625 0.265625 -1.078125 0.75q-0.453125 0.484375 -0.703125 1.15625q-0.25 0.65625 -0.25 1.46875l0 0.25q0 0.71875 0.25 1.34375q0.265625 0.609375 0.734375 1.078125q0.46875 0.453125 1.125 0.71875q0.671875 0.265625 1.484375 0.265625zm-0.203125 -5.828125q0.34375 0 0.59375 0.109375q0.265625 0.09375 0.453125 0.28125q0.1875 0.1875 0.28125 0.453125q0.109375 0.25 0.109375 0.53125l0 0.140625l-2.96875 0q0.0625 -0.34375 0.1875 -0.625q0.140625 -0.28125 0.34375 -0.484375q0.1875 -0.203125 0.4375 -0.296875q0.25 -0.109375 0.5625 -0.109375zm9.216919 5.703125l0 -9.46875l-0.09375 0l-4.125 1.484375l0 1.578125l2.390625 -0.859375l0 7.265625l1.828125 0z" fill-rule="nonzero"/><path fill="#000000" fill-opacity="0.0" d="m2.9737532 216.61417l218.29921 0l0 34.015762l-218.29921 0z" fill-rule="evenodd"/><path stroke="#000000" stroke-width="2.0" stroke-linejoin="round" stroke-linecap="butt" d="m2.9737532 216.61417l218.29921 0l0 34.015762l-218.29921 0z" fill-rule="evenodd"/><path fill="#000000" d="m16.130003 233.56392l0 -2.484375l-1.078125 0l0 2.484375l-2.375 0l0 1.078125l2.375 0l0 2.640625l1.078125 0l0 -2.640625l2.390625 0l0 -1.078125l-2.390625 0zm13.964844 3.8125q-0.5 0 -0.84375 -0.203125q-0.34375 -0.203125 -0.546875 -0.53125q-0.21875 -0.3125 -0.3125 -0.71875q-0.09375 -0.40625 -0.09375 -0.828125l0 -0.25q0 -0.40625 0.09375 -0.8125q0.09375 -0.40625 0.3125 -0.734375q0.203125 -0.3125 0.546875 -0.515625q0.34375 -0.203125 0.84375 -0.203125q0.328125 0 0.609375 0.109375q0.296875 0.109375 0.5 0.296875q0.203125 0.203125 0.3125 0.453125q0.125 0.25 0.140625 0.546875l1.0156269 0q0 -0.484375 -0.203125 -0.90625q-0.1875 -0.421875 -0.5156269 -0.734375q-0.34375 -0.296875 -0.828125 -0.46875q-0.46875 -0.1875 -1.03125 -0.1875q-0.71875 0 -1.265625 0.265625q-0.53125 0.25 -0.890625 0.671875q-0.359375 0.453125 -0.546875 1.03125q-0.171875 0.5625 -0.171875 1.1875l0 0.25q0 0.625 0.171875 1.203125q0.1875 0.578125 0.546875 1.0q0.359375 0.4375 0.890625 0.703125q0.546875 0.265625 1.265625 0.265625q0.5 0 0.96875 -0.171875q0.46875 -0.1875 0.828125 -0.46875q0.3437519 -0.296875 0.5625019 -0.671875q0.21875 -0.390625 0.21875 -0.8125l-1.0156269 0q-0.015625 0.265625 -0.15625 0.5q-0.125 0.21875 -0.34375 0.375q-0.203125 0.171875 -0.484375 0.265625q-0.28125 0.09375 -0.578125 0.09375zm4.669924 -8.234375l0 0.9375l2.15625 0l0 7.125l-2.15625 0l0 0.9375l5.3125 0l0 -0.9375l-2.0625 0l0 -8.0625l-3.25 0zm6.732422 5.765625l0 0.140625q0 0.671875 0.1875 1.265625q0.203125 0.578125 0.578125 1.015625q0.375 0.4375 0.90625 0.6875q0.546875 0.25 1.21875 0.25q0.65625 0 1.1875 -0.25q0.546875 -0.25 0.921875 -0.6875q0.359375 -0.4375 0.5625 -1.015625q0.203125 -0.59375 0.203125 -1.265625l0 -0.140625q0 -0.6875 -0.203125 -1.265625q-0.203125 -0.59375 -0.5625 -1.03125q-0.375 -0.421875 -0.921875 -0.671875q-0.53125 -0.25 -1.203125 -0.25q-0.671875 0 -1.203125 0.25q-0.53125 0.25 -0.90625 0.671875q-0.375 0.4375 -0.578125 1.03125q-0.1875 0.578125 -0.1875 1.265625zm1.078125 0.140625l0 -0.140625q0 -0.453125 0.109375 -0.875q0.109375 -0.4375 0.34375 -0.75q0.21875 -0.328125 0.546875 -0.515625q0.34375 -0.1875 0.796875 -0.1875q0.453125 0 0.78125 0.1875q0.34375 0.1875 0.578125 0.515625q0.21875 0.3125 0.328125 0.75q0.109375 0.421875 0.109375 0.875l0 0.140625q0 0.46875 -0.109375 0.890625q-0.109375 0.421875 -0.328125 0.75q-0.234375 0.3125 -0.578125 0.5q-0.328125 0.1875 -0.765625 0.1875q-0.453125 0 -0.796875 -0.1875q-0.34375 -0.1875 -0.5625 -0.5q-0.234375 -0.328125 -0.34375 -0.75q-0.109375 -0.421875 -0.109375 -0.890625zm6.419922 3.09375l1.09375 0l0 -4.546875q0.109375 -0.203125 0.25 -0.375q0.15625 -0.171875 0.328125 -0.296875q0.21875 -0.15625 0.46875 -0.234375q0.265625 -0.078125 0.5625 -0.078125q0.34375 0 0.609375 0.078125q0.265625 0.078125 0.453125 0.265625q0.1875 0.171875 0.28125 0.46875q0.09375 0.296875 0.09375 0.71875l0 4.0l1.078125 0l0 -4.03125q0 -0.625 -0.15625 -1.078125q-0.140625 -0.46875 -0.4375 -0.765625q-0.28125 -0.296875 -0.6875 -0.4375q-0.40625 -0.140625 -0.90625 -0.140625q-0.375 0 -0.703125 0.109375q-0.328125 0.09375 -0.609375 0.28125q-0.1875 0.125 -0.359375 0.296875q-0.171875 0.15625 -0.3125 0.359375l-0.0625 -0.9375l-0.984375 0l0 6.34375zm10.013672 0.125q0.921875 0 1.546875 -0.375q0.625 -0.375 0.953125 -0.859375l-0.671875 -0.515625q-0.296875 0.390625 -0.75 0.625q-0.453125 0.234375 -1.03125 0.234375q-0.4375 0 -0.796875 -0.15625q-0.359375 -0.171875 -0.625 -0.46875q-0.25 -0.265625 -0.390625 -0.609375q-0.140625 -0.359375 -0.1875 -0.8125l0 -0.046875l4.53125 0l0 -0.484375q0 -0.671875 -0.171875 -1.234375q-0.15625 -0.5625 -0.5 -0.984375q-0.34375 -0.421875 -0.859375 -0.65625q-0.515625 -0.234375 -1.1875 -0.234375q-0.546875 0 -1.078125 0.21875q-0.515625 0.21875 -0.921875 0.640625q-0.40625 0.421875 -0.65625 1.03125q-0.234375 0.59375 -0.234375 1.375l0 0.234375q0 0.671875 0.21875 1.234375q0.21875 0.5625 0.625 0.96875q0.390625 0.40625 0.953125 0.640625q0.5625 0.234375 1.234375 0.234375zm-0.140625 -5.6875q0.40625 0 0.703125 0.15625q0.3125 0.140625 0.515625 0.390625q0.1875 0.25 0.296875 0.59375q0.125 0.328125 0.125 0.625l0 0.046875l-3.421875 0q0.0625 -0.4375 0.21875 -0.765625q0.171875 -0.34375 0.40625 -0.578125q0.234375 -0.234375 0.53125 -0.34375q0.296875 -0.125 0.625 -0.125zm5.607422 2.09375l0 0.0625q0 0.84375 0.125 1.578125q0.140625 0.734375 0.359375 1.359375q0.21875 0.640625 0.5 1.15625q0.296875 0.515625 0.625 0.921875q0.3125 0.40625 0.640625 0.6875q0.328125 0.296875 0.609375 0.453125l0.234375 -0.65625q-0.234375 -0.1875 -0.484375 -0.46875q-0.234375 -0.265625 -0.453125 -0.625q-0.21875 -0.359375 -0.421875 -0.828125q-0.1875 -0.46875 -0.34375 -1.015625q-0.140625 -0.546875 -0.234375 -1.171875q-0.078125 -0.640625 -0.078125 -1.375l0 -0.078125q0 -0.765625 0.09375 -1.421875q0.09375 -0.671875 0.25 -1.21875q0.15625 -0.609375 0.40625 -1.125q0.25 -0.515625 0.515625 -0.890625q0.1875 -0.25 0.375 -0.4375q0.1875 -0.203125 0.375 -0.34375l-0.234375 -0.71875q-0.28125 0.15625 -0.609375 0.453125q-0.328125 0.28125 -0.640625 0.6875q-0.328125 0.40625 -0.625 0.9375q-0.28125 0.515625 -0.5 1.140625q-0.21875 0.625 -0.359375 1.375q-0.125 0.734375 -0.125 1.5625zm10.076172 0.0625l0 -0.0625q0 -0.890625 -0.140625 -1.609375q-0.125 -0.71875 -0.34375 -1.328125q-0.21875 -0.640625 -0.5 -1.140625q-0.28125 -0.515625 -0.609375 -0.9375q-0.328125 -0.40625 -0.65625 -0.6875q-0.328125 -0.296875 -0.609375 -0.453125l-0.234375 0.65625q0.1875 0.15625 0.390625 0.390625q0.21875 0.21875 0.40625 0.515625q0.25 0.390625 0.484375 0.90625q0.25 0.5 0.421875 1.15625q0.109375 0.4375 0.203125 1.09375q0.109375 0.640625 0.109375 1.4375l0 0.078125q0 0.6875 -0.078125 1.3125q-0.078125 0.609375 -0.203125 1.140625q-0.140625 0.5625 -0.34375 1.03125q-0.1875 0.484375 -0.40625 0.875q-0.234375 0.375 -0.484375 0.65625q-0.25 0.28125 -0.5 0.46875l0.234375 0.65625q0.28125 -0.15625 0.609375 -0.453125q0.328125 -0.28125 0.65625 -0.6875q0.3125 -0.40625 0.59375 -0.921875q0.296875 -0.515625 0.515625 -1.15625q0.234375 -0.625 0.359375 -1.359375q0.125 -0.734375 0.125 -1.578125zm12.636719 2.703125q0 0.34375 0.203125 0.578125q0.21875 0.234375 0.640625 0.234375q0.421875 0 0.640625 -0.234375q0.234375 -0.234375 0.234375 -0.578125q0 -0.359375 -0.234375 -0.59375q-0.21875 -0.25 -0.640625 -0.25q-0.421875 0 -0.640625 0.25q-0.203125 0.25 -0.203125 0.59375zm0 -5.140625q0 0.34375 0.203125 0.578125q0.21875 0.234375 0.640625 0.234375q0.421875 0 0.640625 -0.234375q0.234375 -0.234375 0.234375 -0.578125q0 -0.359375 -0.234375 -0.59375q-0.21875 -0.25 -0.640625 -0.25q-0.421875 0 -0.640625 0.25q-0.203125 0.25 -0.203125 0.59375zm13.402344 2.421875l1.6875 0q0.5625 0 1.078125 -0.171875q0.515625 -0.171875 0.90625 -0.5q0.390625 -0.3125 0.609375 -0.78125q0.21875 -0.484375 0.21875 -1.09375q0 -0.625 -0.21875 -1.09375q-0.21875 -0.46875 -0.609375 -0.796875q-0.390625 -0.328125 -0.90625 -0.484375q-0.515625 -0.171875 -1.078125 -0.1875l-2.765625 0l0 8.53125l1.078125 0l0 -3.421875zm0 -0.890625l0 -3.328125l1.6875 0q0.375 0 0.6875 0.125q0.328125 0.109375 0.5625 0.328125q0.21875 0.21875 0.34375 0.53125q0.140625 0.3125 0.140625 0.703125q0 0.375 -0.140625 0.6875q-0.125 0.296875 -0.359375 0.5q-0.234375 0.21875 -0.546875 0.34375q-0.3125 0.109375 -0.6875 0.109375l-1.6875 0zm10.169922 -2.140625q-0.6875 0 -1.234375 0.296875q-0.53125 0.296875 -0.921875 0.828125l-0.015625 -0.15625l-0.046875 -0.859375l-1.03125 0l0 6.34375l1.09375 0l0 -4.0625q0.109375 -0.296875 0.265625 -0.53125q0.171875 -0.234375 0.375 -0.40625q0.25 -0.1875 0.5625 -0.28125q0.328125 -0.09375 0.734375 -0.09375q0.296875 0 0.578125 0.03125q0.296875 0.03125 0.609375 0.09375l0.140625 -1.0625q-0.15625 -0.0625 -0.484375 -0.09375q-0.328125 -0.046875 -0.625 -0.046875zm2.7480469 3.21875l0 0.140625q0 0.671875 0.1875 1.265625q0.203125 0.578125 0.578125 1.015625q0.375 0.4375 0.90625 0.6875q0.546875 0.25 1.21875 0.25q0.65625 0 1.1875 -0.25q0.546875 -0.25 0.921875 -0.6875q0.359375 -0.4375 0.5625 -1.015625q0.203125 -0.59375 0.203125 -1.265625l0 -0.140625q0 -0.6875 -0.203125 -1.265625q-0.203125 -0.59375 -0.5625 -1.03125q-0.375 -0.421875 -0.921875 -0.671875q-0.53125 -0.25 -1.203125 -0.25q-0.671875 0 -1.203125 0.25q-0.53125 0.25 -0.90625 0.671875q-0.375 0.4375 -0.578125 1.03125q-0.1875 0.578125 -0.1875 1.265625zm1.078125 0.140625l0 -0.140625q0 -0.453125 0.109375 -0.875q0.109375 -0.4375 0.34375 -0.75q0.21875 -0.328125 0.546875 -0.515625q0.34375 -0.1875 0.796875 -0.1875q0.453125 0 0.78125 0.1875q0.34375 0.1875 0.578125 0.515625q0.21875 0.3125 0.328125 0.75q0.109375 0.421875 0.109375 0.875l0 0.140625q0 0.46875 -0.109375 0.890625q-0.109375 0.421875 -0.328125 0.75q-0.234375 0.3125 -0.578125 0.5q-0.328125 0.1875 -0.765625 0.1875q-0.453125 0 -0.796875 -0.1875q-0.34375 -0.1875 -0.5625 -0.5q-0.234375 -0.328125 -0.34375 -0.75q-0.109375 -0.421875 -0.109375 -0.890625zm8.998047 -4.78125l-1.09375 0l0 1.53125l-1.671875 0l0 0.84375l1.671875 0l0 3.4375q0 0.59375 0.15625 1.015625q0.15625 0.40625 0.421875 0.65625q0.265625 0.265625 0.625 0.390625q0.375 0.125 0.796875 0.125q0.25 0 0.5 -0.03125q0.265625 -0.015625 0.484375 -0.0625q0.234375 -0.046875 0.421875 -0.109375q0.203125 -0.0625 0.328125 -0.140625l-0.140625 -0.765625q-0.109375 0.015625 -0.265625 0.046875q-0.15625 0.03125 -0.328125 0.0625q-0.171875 0.03125 -0.359375 0.0625q-0.1875 0.015625 -0.375 0.015625q-0.234375 0 -0.453125 -0.0625q-0.203125 -0.0625 -0.375 -0.203125q-0.15625 -0.140625 -0.25 -0.375q-0.09375 -0.25 -0.09375 -0.625l0 -3.4375l2.40625 0l0 -0.84375l-2.40625 0l0 -1.53125zm4.326172 4.640625l0 0.140625q0 0.671875 0.1875 1.265625q0.203125 0.578125 0.578125 1.015625q0.375 0.4375 0.90625 0.6875q0.546875 0.25 1.21875 0.25q0.65625 0 1.1875 -0.25q0.546875 -0.25 0.921875 -0.6875q0.359375 -0.4375 0.5625 -1.015625q0.203125 -0.59375 0.203125 -1.265625l0 -0.140625q0 -0.6875 -0.203125 -1.265625q-0.203125 -0.59375 -0.5625 -1.03125q-0.375 -0.421875 -0.921875 -0.671875q-0.53125 -0.25 -1.203125 -0.25q-0.671875 0 -1.203125 0.25q-0.53125 0.25 -0.90625 0.671875q-0.375 0.4375 -0.578125 1.03125q-0.1875 0.578125 -0.1875 1.265625zm1.078125 0.140625l0 -0.140625q0 -0.453125 0.109375 -0.875q0.109375 -0.4375 0.34375 -0.75q0.21875 -0.328125 0.546875 -0.515625q0.34375 -0.1875 0.796875 -0.1875q0.453125 0 0.78125 0.1875q0.34375 0.1875 0.578125 0.515625q0.21875 0.3125 0.328125 0.75q0.109375 0.421875 0.109375 0.875l0 0.140625q0 0.46875 -0.109375 0.890625q-0.109375 0.421875 -0.328125 0.75q-0.234375 0.3125 -0.578125 0.5q-0.328125 0.1875 -0.765625 0.1875q-0.453125 0 -0.796875 -0.1875q-0.34375 -0.1875 -0.5625 -0.5q-0.234375 -0.328125 -0.34375 -0.75q-0.109375 -0.421875 -0.109375 -0.890625zm8.998047 -4.78125l-1.09375 0l0 1.53125l-1.671875 0l0 0.84375l1.671875 0l0 3.4375q0 0.59375 0.15625 1.015625q0.15625 0.40625 0.421875 0.65625q0.265625 0.265625 0.625 0.390625q0.375 0.125 0.796875 0.125q0.25 0 0.5 -0.03125q0.265625 -0.015625 0.484375 -0.0625q0.234375 -0.046875 0.421875 -0.109375q0.203125 -0.0625 0.328125 -0.140625l-0.140625 -0.765625q-0.109375 0.015625 -0.265625 0.046875q-0.15625 0.03125 -0.328125 0.0625q-0.171875 0.03125 -0.359375 0.0625q-0.1875 0.015625 -0.375 0.015625q-0.234375 0 -0.453125 -0.0625q-0.203125 -0.0625 -0.375 -0.203125q-0.15625 -0.140625 -0.25 -0.375q-0.09375 -0.25 -0.09375 -0.625l0 -3.4375l2.40625 0l0 -0.84375l-2.40625 0l0 -1.53125zm5.138672 10.4375q0.421875 0 0.75 -0.15625q0.328125 -0.15625 0.578125 -0.390625q0.25 -0.234375 0.421875 -0.515625q0.171875 -0.28125 0.28125 -0.515625l3.21875 -7.328125l-1.21875 0l-1.625 4.109375l-0.296875 0.75l-0.28125 -0.765625l-1.75 -4.09375l-1.203125 0l2.71875 6.046875l-0.421875 0.84375q-0.0625 0.109375 -0.171875 0.296875q-0.09375 0.1875 -0.234375 0.359375q-0.15625 0.15625 -0.34375 0.28125q-0.171875 0.125 -0.40625 0.125q-0.078125 0 -0.21875 -0.015625q-0.140625 0 -0.296875 -0.015625l-0.171875 0.890625q0.109375 0.015625 0.3125 0.046875q0.203125 0.046875 0.359375 0.046875zm6.685547 -0.125l1.078125 0l0 -3.046875q0.125 0.125 0.25 0.234375q0.140625 0.109375 0.296875 0.203125q0.25 0.140625 0.5625 0.21875q0.3125 0.078125 0.671875 0.078125q0.609375 0 1.0625 -0.25q0.46875 -0.25 0.78125 -0.6875q0.328125 -0.4375 0.484375 -1.015625q0.171875 -0.59375 0.171875 -1.265625l0 -0.125q0 -0.71875 -0.171875 -1.3125q-0.15625 -0.59375 -0.484375 -1.015625q-0.3125 -0.4375 -0.78125 -0.671875q-0.46875 -0.234375 -1.078125 -0.234375q-0.34375 0 -0.65625 0.078125q-0.296875 0.0625 -0.53125 0.203125q-0.1875 0.09375 -0.34375 0.234375q-0.140625 0.125 -0.265625 0.28125l-0.0625 -0.6875l-0.984375 0l0 8.78125zm4.265625 -5.65625l0 0.125q0 0.453125 -0.109375 0.875q-0.09375 0.421875 -0.296875 0.75q-0.21875 0.3125 -0.546875 0.515625q-0.328125 0.1875 -0.78125 0.1875q-0.28125 0 -0.515625 -0.0625q-0.21875 -0.078125 -0.40625 -0.203125q-0.171875 -0.109375 -0.296875 -0.25q-0.125 -0.15625 -0.234375 -0.34375l0 -3.046875q0.109375 -0.203125 0.25 -0.359375q0.15625 -0.171875 0.34375 -0.28125q0.171875 -0.109375 0.375 -0.15625q0.21875 -0.0625 0.484375 -0.0625q0.453125 0 0.78125 0.1875q0.328125 0.1875 0.546875 0.5q0.203125 0.3125 0.296875 0.734375q0.109375 0.421875 0.109375 0.890625zm5.748047 3.34375q0.921875 0 1.546875 -0.375q0.625 -0.375 0.953125 -0.859375l-0.671875 -0.515625q-0.296875 0.390625 -0.75 0.625q-0.453125 0.234375 -1.03125 0.234375q-0.4375 0 -0.796875 -0.15625q-0.359375 -0.171875 -0.625 -0.46875q-0.25 -0.265625 -0.390625 -0.609375q-0.140625 -0.359375 -0.1875 -0.8125l0 -0.046875l4.53125 0l0 -0.484375q0 -0.671875 -0.171875 -1.234375q-0.15625 -0.5625 -0.5 -0.984375q-0.34375 -0.421875 -0.859375 -0.65625q-0.515625 -0.234375 -1.1875 -0.234375q-0.546875 0 -1.078125 0.21875q-0.515625 0.21875 -0.921875 0.640625q-0.40625 0.421875 -0.65625 1.03125q-0.234375 0.59375 -0.234375 1.375l0 0.234375q0 0.671875 0.21875 1.234375q0.21875 0.5625 0.625 0.96875q0.390625 0.40625 0.953125 0.640625q0.5625 0.234375 1.234375 0.234375zm-0.140625 -5.6875q0.40625 0 0.703125 0.15625q0.3125 0.140625 0.515625 0.390625q0.1875 0.25 0.296875 0.59375q0.125 0.328125 0.125 0.625l0 0.046875l-3.421875 0q0.0625 -0.4375 0.21875 -0.765625q0.171875 -0.34375 0.40625 -0.578125q0.234375 -0.234375 0.53125 -0.34375q0.296875 -0.125 0.625 -0.125z" fill-rule="nonzero"/><path fill="#000000" fill-opacity="0.0" d="m2.9737532 182.59842l218.29921 0l0 34.015747l-218.29921 0z" fill-rule="evenodd"/><path stroke="#000000" stroke-width="2.0" stroke-linejoin="round" stroke-linecap="butt" d="m2.9737532 182.59842l218.29921 0l0 34.015747l-218.29921 0z" fill-rule="evenodd"/><path fill="#000000" d="m13.270628 204.4063l0 -1.609375l1.609375 0l0 1.609375l-1.609375 0zm4.217102 0l0 -1.609375l1.609375 0l0 1.609375l-1.609375 0zm4.217102 0l0 -1.609375l1.609375 0l0 1.609375l-1.609375 0z" fill-rule="nonzero"/><path fill="#000000" fill-opacity="0.0" d="m171.74803 17.03937l179.937 0l0 34.015747l-179.937 0z" fill-rule="evenodd"/><path stroke="#000000" stroke-width="3.0" stroke-linejoin="round" stroke-linecap="butt" d="m171.74803 17.03937l179.937 0l0 34.015747l-179.937 0z" fill-rule="evenodd"/><path fill="#000000" d="m229.17169 35.378494l1.453125 0q0.6875 0 1.328125 -0.1875q0.640625 -0.203125 1.140625 -0.59375q0.515625 -0.375 0.84375 -0.921875q0.328125 -0.5625 0.375 -1.296875q0.0625 -0.6718769 -0.125 -1.2187519q-0.1875 -0.546875 -0.578125 -0.9375q-0.390625 -0.390625 -0.9375 -0.609375q-0.546875 -0.21875 -1.203125 -0.234375l-3.046875 0l-1.640625 9.468752l1.78125 0l0.609375 -3.46875zm0.25 -1.484375l0.515625 -3.031252l1.453125 0q0.328125 0.015625 0.5625 0.140625q0.234375 0.125 0.375 0.328125q0.140625 0.203125 0.1875 0.484375q0.046875 0.2656269 0 0.5625019q-0.03125 0.359375 -0.203125 0.640625q-0.15625 0.28125 -0.390625 0.46875q-0.25 0.203125 -0.5625 0.3125q-0.296875 0.09375 -0.640625 0.109375l-1.296875 -0.015625zm11.181839 -2.234377q-0.390625 0 -0.734375 0.09375q-0.34375 0.09375 -0.640625 0.2656269q-0.3125 0.171875 -0.578125 0.421875q-0.265625 0.234375 -0.5 0.515625l0.046875 -0.28125l0.140625 -0.8750019l-1.640625 0l-1.234375 7.046877l1.765625 0l0.734375 -4.234375q0.171875 -0.265625 0.375 -0.46875q0.203125 -0.203125 0.4375 -0.34375q0.28125 -0.171875 0.59375 -0.25q0.328125 -0.09375 0.703125 -0.078125q0.359375 0 0.6875 0.046875q0.34375 0.046875 0.6875 0.140625l0.484375 -1.8125019q-0.34375 -0.078125 -0.671875 -0.125q-0.328125 -0.046875 -0.65625 -0.0625zm2.150589 3.640627l-0.015625 0.140625q-0.046875 0.484375 0 0.9375q0.046875 0.453125 0.203125 0.859375q0.109375 0.3125 0.28125 0.578125q0.1875 0.25 0.4375 0.515625q0.296875 0.28125 0.765625 0.46875q0.46875 0.171875 1.046875 0.1875q0.78125 0.015625 1.421875 -0.265625q0.65625 -0.28125 1.125 -0.78125q0.484375 -0.5 0.78125 -1.15625q0.296875 -0.65625 0.375 -1.40625l0.03125 -0.140625q0.046875 -0.484375 0 -0.953125q-0.046875 -0.46875 -0.203125 -0.875q-0.125 -0.328125 -0.328125 -0.609375q-0.1875 -0.28125 -0.4375 -0.515625q-0.328125 -0.28125 -0.765625 -0.4375019q-0.4375 -0.171875 -1.0 -0.171875q-0.796875 -0.015625 -1.453125 0.265625q-0.640625 0.2812519 -1.109375 0.7812519q-0.46875 0.515625 -0.765625 1.1875q-0.296875 0.65625 -0.390625 1.390625zm1.75 0.140625l0.015625 -0.140625q0.046875 -0.375 0.171875 -0.765625q0.125 -0.390625 0.34375 -0.703125q0.21875 -0.328125 0.53125 -0.515625q0.328125 -0.203125 0.78125 -0.1875q0.359375 0.03125 0.578125 0.1875q0.234375 0.15625 0.359375 0.421875q0.15625 0.359375 0.15625 0.765625q0.015625 0.390625 -0.015625 0.75l-0.015625 0.125q-0.046875 0.375 -0.171875 0.765625q-0.125 0.390625 -0.328125 0.703125q-0.234375 0.3125 -0.5625 0.515625q-0.3125 0.203125 -0.75 0.1875q-0.421875 -0.015625 -0.671875 -0.21875q-0.234375 -0.21875 -0.328125 -0.53125q-0.109375 -0.3125 -0.125 -0.671875q0 -0.359375 0.03125 -0.6875zm10.431839 -5.359377l-1.75 0l-0.3125 1.71875l-1.5625 0l-0.234375 1.3437519l1.5625 0l-0.515625 3.203125q-0.0625 0.546875 0.03125 1.03125q0.109375 0.484375 0.375 0.828125q0.265625 0.359375 0.6875 0.5625q0.421875 0.203125 1.015625 0.203125q0.515625 0.015625 1.078125 -0.078125q0.578125 -0.078125 1.0625153 -0.328125l-0.0625 -1.265625q-0.37501526 0.078125 -0.75001526 0.140625q-0.359375 0.0625 -0.75 0.046875q-0.296875 0 -0.5 -0.109375q-0.1875 -0.109375 -0.28125 -0.28125q-0.109375 -0.171875 -0.140625 -0.40625q-0.015625 -0.234375 0.03125 -0.515625l0.484375 -3.03125l2.5468903 0l0.234375 -1.3437519l-2.5468903 0l0.296875 -1.71875zm3.463089 5.218752l-0.015625 0.140625q-0.046875 0.484375 0 0.9375q0.046875 0.453125 0.203125 0.859375q0.109375 0.3125 0.28125 0.578125q0.1875 0.25 0.4375 0.515625q0.296875 0.28125 0.765625 0.46875q0.46875 0.171875 1.046875 0.1875q0.78125 0.015625 1.421875 -0.265625q0.65625 -0.28125 1.125 -0.78125q0.484375 -0.5 0.78125 -1.15625q0.296875 -0.65625 0.375 -1.40625l0.03125 -0.140625q0.046875 -0.484375 0 -0.953125q-0.046875 -0.46875 -0.203125 -0.875q-0.125 -0.328125 -0.328125 -0.609375q-0.1875 -0.28125 -0.4375 -0.515625q-0.328125 -0.28125 -0.765625 -0.4375019q-0.4375 -0.171875 -1.0 -0.171875q-0.796875 -0.015625 -1.453125 0.265625q-0.640625 0.2812519 -1.109375 0.7812519q-0.46875 0.515625 -0.765625 1.1875q-0.296875 0.65625 -0.390625 1.390625zm1.75 0.140625l0.015625 -0.140625q0.046875 -0.375 0.171875 -0.765625q0.125 -0.390625 0.34375 -0.703125q0.21875 -0.328125 0.53125 -0.515625q0.328125 -0.203125 0.78125 -0.1875q0.359375 0.03125 0.578125 0.1875q0.234375 0.15625 0.359375 0.421875q0.15625 0.359375 0.15625 0.765625q0.015625 0.390625 -0.015625 0.75l-0.015625 0.125q-0.046875 0.375 -0.171875 0.765625q-0.125 0.390625 -0.328125 0.703125q-0.234375 0.3125 -0.5625 0.515625q-0.3125 0.203125 -0.75 0.1875q-0.421875 -0.015625 -0.671875 -0.21875q-0.234375 -0.21875 -0.328125 -0.53125q-0.109375 -0.3125 -0.125 -0.671875q0 -0.359375 0.03125 -0.6875zm10.431854 -5.359377l-1.75 0l-0.3125 1.71875l-1.5625 0l-0.234375 1.3437519l1.5625 0l-0.515625 3.203125q-0.0625 0.546875 0.03125 1.03125q0.109375 0.484375 0.375 0.828125q0.265625 0.359375 0.6875 0.5625q0.421875 0.203125 1.015625 0.203125q0.515625 0.015625 1.078125 -0.078125q0.578125 -0.078125 1.0625 -0.328125l-0.0625 -1.265625q-0.375 0.078125 -0.75 0.140625q-0.359375 0.0625 -0.75 0.046875q-0.296875 0 -0.5 -0.109375q-0.1875 -0.109375 -0.28125 -0.28125q-0.109375 -0.171875 -0.140625 -0.40625q-0.015625 -0.234375 0.03125 -0.515625l0.484375 -3.03125l2.546875 0l0.234375 -1.3437519l-2.546875 0l0.296875 -1.71875zm6.4943237 5.890627l-0.859375 -4.171877l-1.859375 0l1.703125 6.656252l-0.625 0.90625q-0.109375 0.140625 -0.234375 0.28125q-0.109375 0.140625 -0.234375 0.265625q-0.125 0.125 -0.28125 0.203125q-0.140625 0.09375 -0.328125 0.109375q-0.125 0.015625 -0.28125 -0.015625q-0.140625 -0.015625 -0.265625 -0.015625l-0.359375 1.375q0.234375 0.046875 0.453125 0.09375q0.21875 0.046875 0.453125 0.046875q0.46875 0 0.84375 -0.140625q0.390625 -0.140625 0.703125 -0.375q0.3125 -0.25 0.5625 -0.578125q0.265625 -0.328125 0.46875 -0.703125l4.859375 -8.109377l-2.015625 0l-2.640625 4.812502l-0.0625 -0.640625zm11.150604 -0.625l0.015625 -0.140625q0.046875 -0.390625 0.03125 -0.796875q-0.015625 -0.421875 -0.09375 -0.8125q-0.078125 -0.390625 -0.234375 -0.734375q-0.15625 -0.34375 -0.421875 -0.609375q-0.25 -0.2656269 -0.609375 -0.4062519q-0.359375 -0.15625 -0.84375 -0.171875q-0.359375 0 -0.671875 0.078125q-0.3125 0.078125 -0.578125 0.2656269q-0.15625 0.09375 -0.3125 0.21875q-0.140625 0.125 -0.265625 0.265625l0.109375 -0.7031269l-1.625 0l-1.6875 9.750002l1.765625 0l0.625 -3.328125q0.125 0.140625 0.25 0.265625q0.140625 0.109375 0.296875 0.203125q0.234375 0.140625 0.5 0.203125q0.28125 0.078125 0.578125 0.09375q0.5 0.015625 0.90625 -0.140625q0.421875 -0.140625 0.765625 -0.40625q0.328125 -0.25 0.578125 -0.59375q0.265625 -0.359375 0.453125 -0.78125q0.1875 -0.40625 0.296875 -0.84375q0.125 -0.4375 0.171875 -0.875zm-1.75 -0.140625l-0.015625 0.140625q-0.03125 0.234375 -0.09375 0.5q-0.046875 0.25 -0.140625 0.5q-0.109375 0.265625 -0.265625 0.5q-0.140625 0.234375 -0.359375 0.40625q-0.171875 0.125 -0.40625 0.203125q-0.21875 0.078125 -0.484375 0.078125q-0.21875 -0.015625 -0.40625 -0.0625q-0.171875 -0.0625 -0.3125 -0.15625q-0.125 -0.09375 -0.21875 -0.21875q-0.078125 -0.125 -0.15625 -0.296875l0.53125 -2.953125q0.109375 -0.140625 0.234375 -0.265625q0.125 -0.125 0.265625 -0.21875q0.171875 -0.109375 0.375 -0.15625q0.21875 -0.0625 0.453125 -0.0625q0.25 0.015625 0.421875 0.09375q0.171875 0.078125 0.296875 0.234375q0.140625 0.15625 0.203125 0.390625q0.078125 0.234375 0.09375 0.484375q0.015625 0.21875 0 0.453125q0 0.21875 -0.015625 0.40625zm6.2443237 3.765625q0.828125 0.015625 1.625 -0.296875q0.796875 -0.3125 1.265625 -0.96875l-0.796875 -0.984375q-0.375 0.390625 -0.875 0.609375q-0.484375 0.203125 -1.03125 0.1875q-0.359375 0 -0.640625 -0.125q-0.265625 -0.140625 -0.4375 -0.34375q-0.203125 -0.21875 -0.296875 -0.5q-0.09375 -0.296875 -0.078125 -0.640625l4.59375 0l0.125 -0.765625q0.078125 -0.6875 -0.046875 -1.296875q-0.109375 -0.625 -0.4375 -1.109375q-0.328125 -0.46875 -0.875 -0.7500019q-0.53125 -0.296875 -1.265625 -0.3125q-0.515625 -0.015625 -1.0 0.125q-0.46875 0.125 -0.875 0.3750019q-0.3125 0.1875 -0.59375 0.453125q-0.28125 0.265625 -0.515625 0.5625q-0.34375 0.453125 -0.5625 1.0q-0.203125 0.546875 -0.265625 1.140625l-0.015625 0.265625q-0.078125 0.71875 0.109375 1.328125q0.203125 0.609375 0.59375 1.0625q0.40625 0.453125 0.984375 0.71875q0.578125 0.265625 1.3125 0.265625zm0.703125 -5.84375q0.296875 0.015625 0.515625 0.125q0.21875 0.109375 0.375 0.296875q0.140625 0.171875 0.203125 0.421875q0.0625 0.25 0.015625 0.53125l-0.03125 0.171875l-2.875 0q0.125 -0.296875 0.28125 -0.578125q0.171875 -0.28125 0.390625 -0.5q0.21875 -0.21875 0.484375 -0.34375q0.28125 -0.140625 0.640625 -0.125z" fill-rule="nonzero"/><path fill="#000000" fill-opacity="0.0" d="m171.74803 51.05512l179.937 0l0 34.01575l-179.937 0z" fill-rule="evenodd"/><path stroke="#000000" stroke-width="2.0" stroke-linejoin="round" stroke-linecap="butt" d="m171.74803 51.05512l179.937 0l0 34.01575l-179.937 0z" fill-rule="evenodd"/><path fill="#000000" d="m184.90428 68.00487l0 -2.484375l-1.078125 0l0 2.484375l-2.375 0l0 1.078125l2.375 0l0 2.640625l1.078125 0l0 -2.640625l2.390625 0l0 -1.078125l-2.390625 0z" fill-rule="nonzero"/><path fill="#000000" d="m198.27538 71.83299q-0.3125 -0.015625 -0.546875 -0.109375q-0.21875 -0.109375 -0.375 -0.28125q-0.15625 -0.171875 -0.25 -0.390625q-0.09375 -0.234375 -0.140625 -0.484375q-0.046875 -0.234375 -0.046875 -0.5q0 -0.265625 0.03125 -0.515625l0.03125 -0.25q0.046875 -0.28125 0.125 -0.5625q0.09375 -0.296875 0.21875 -0.546875q0.125 -0.25 0.28125 -0.46875q0.171875 -0.21875 0.390625 -0.375q0.234375 -0.171875 0.515625 -0.25q0.28125 -0.09375 0.609375 -0.09375q0.296875 0.015625 0.53125 0.125q0.25 0.109375 0.421875 0.296875q0.171875 0.203125 0.25 0.453125q0.078125 0.25 0.0625 0.546875l1.0 0q0.03125 -0.5 -0.140625 -0.90625q-0.15625 -0.421875 -0.4375 -0.734375q-0.3125 -0.296875 -0.734375 -0.46875q-0.40625 -0.1875 -0.890625 -0.1875q-0.6875 -0.015625 -1.25 0.234375q-0.5625 0.234375 -0.96875 0.671875q-0.421875 0.453125 -0.6875 1.046875q-0.265625 0.578125 -0.34375 1.21875l-0.03125 0.25q-0.03125 0.328125 -0.015625 0.65625q0.015625 0.3125 0.078125 0.609375q0.09375 0.390625 0.28125 0.734375q0.1875 0.34375 0.453125 0.59375q0.28125 0.25 0.65625 0.40625q0.390625 0.140625 0.875 0.15625q0.46875 0.015625 0.9375 -0.140625q0.46875 -0.15625 0.84375 -0.4375q0.390625 -0.265625 0.65625 -0.65625q0.265625 -0.40625 0.3125 -0.890625l-1.0 0q-0.0625 0.296875 -0.234375 0.53125q-0.15625 0.21875 -0.390625 0.390625q-0.234375 0.15625 -0.515625 0.25q-0.28125 0.078125 -0.5625 0.078125zm6.0273438 -8.25l-0.171875 0.9375l2.09375 0l-1.234375 7.125l-2.09375 0l-0.15625 0.9375l5.15625 0l0.15625 -0.9375l-2.0 0l1.390625 -8.0625l-3.140625 0zm5.5742188 5.8125l-0.015625 0.125q-0.046875 0.4375 0 0.859375q0.046875 0.40625 0.1875 0.78125q0.09375 0.25 0.234375 0.484375q0.140625 0.21875 0.328125 0.421875q0.28125 0.28125 0.671875 0.453125q0.40625 0.171875 0.921875 0.1875q0.6875 0.015625 1.25 -0.25q0.5625 -0.265625 0.984375 -0.71875q0.421875 -0.453125 0.671875 -1.03125q0.265625 -0.59375 0.34375 -1.234375l0.015625 -0.140625q0.046875 -0.421875 0 -0.828125q-0.03125 -0.421875 -0.15625 -0.796875q-0.109375 -0.296875 -0.28125 -0.5625q-0.171875 -0.265625 -0.390625 -0.46875q-0.265625 -0.234375 -0.65625 -0.390625q-0.375 -0.15625 -0.859375 -0.15625q-0.671875 -0.015625 -1.21875 0.234375q-0.546875 0.25 -0.953125 0.671875q-0.453125 0.453125 -0.71875 1.078125q-0.265625 0.609375 -0.359375 1.28125zm1.046875 0.125l0.015625 -0.125q0.0625 -0.421875 0.21875 -0.84375q0.15625 -0.4375 0.421875 -0.78125q0.265625 -0.34375 0.640625 -0.5625q0.375 -0.21875 0.859375 -0.203125q0.46875 0.015625 0.75 0.25q0.28125 0.21875 0.421875 0.5625q0.140625 0.34375 0.171875 0.75q0.03125 0.40625 -0.015625 0.78125l-0.015625 0.125q-0.015625 0.328125 -0.203125 0.796875q-0.171875 0.46875 -0.4375 0.8125q-0.265625 0.34375 -0.640625 0.5625q-0.375 0.203125 -0.859375 0.1875q-0.40625 -0.03125 -0.6875 -0.21875q-0.28125 -0.1875 -0.421875 -0.46875q-0.1875 -0.359375 -0.234375 -0.78125q-0.03125 -0.4375 0.015625 -0.84375zm5.7304688 3.0625l1.0625 0l0.796875 -4.546875q0.15625 -0.21875 0.34375 -0.40625q0.1875 -0.1875 0.40625 -0.3125q0.21875 -0.125 0.46875 -0.203125q0.25 -0.078125 0.515625 -0.0625q0.359375 0 0.578125 0.125q0.234375 0.109375 0.359375 0.3125q0.125 0.21875 0.15625 0.5q0.03125 0.265625 0 0.578125l-0.671875 4.015625l1.0625 0l0.65625 -3.96875q0.078125 -0.46875 0 -0.9375q-0.078125 -0.484375 -0.296875 -0.8125q-0.203125 -0.328125 -0.578125 -0.53125q-0.359375 -0.203125 -0.890625 -0.203125q-0.3125 -0.015625 -0.609375 0.0625q-0.28125 0.078125 -0.546875 0.21875q-0.25 0.140625 -0.484375 0.34375q-0.21875 0.1875 -0.421875 0.421875l0.140625 -0.9375l-0.9375 0l-1.109375 6.34375zm9.839844 0.125q0.734375 0 1.421875 -0.296875q0.703125 -0.3125 1.125 -0.921875l-0.609375 -0.515625q-0.375 0.390625 -0.84375 0.625q-0.453125 0.234375 -1.0 0.203125q-0.4375 0 -0.75 -0.1875q-0.3125 -0.1875 -0.5 -0.46875q-0.1875 -0.296875 -0.265625 -0.65625q-0.0625 -0.375 -0.015625 -0.765625l4.359375 0l0.078125 -0.484375q0.078125 -0.59375 -0.015625 -1.140625q-0.078125 -0.5625 -0.34375 -0.984375q-0.265625 -0.4375 -0.71875 -0.703125q-0.453125 -0.265625 -1.109375 -0.28125q-0.4375 -0.015625 -0.859375 0.109375q-0.40625 0.125 -0.75 0.34375q-0.34375 0.234375 -0.640625 0.546875q-0.28125 0.296875 -0.484375 0.671875q-0.21875 0.375 -0.359375 0.78125q-0.125 0.40625 -0.171875 0.8125l-0.03125 0.25q-0.046875 0.609375 0.078125 1.15625q0.140625 0.546875 0.453125 0.96875q0.328125 0.40625 0.8125 0.671875q0.484375 0.25 1.140625 0.265625zm0.765625 -5.6875q0.34375 0 0.59375 0.15625q0.265625 0.15625 0.4375 0.390625q0.15625 0.234375 0.21875 0.546875q0.0625 0.296875 0 0.625l-0.015625 0.109375l-3.3125 -0.015625q0.125 -0.34375 0.3125 -0.671875q0.1875 -0.34375 0.453125 -0.59375q0.25 -0.265625 0.578125 -0.40625q0.328125 -0.15625 0.734375 -0.140625zm5.1210938 2.125l0 0.0625q-0.078125 0.515625 -0.09375 1.078125q-0.015625 0.5625 0.046875 1.125q0.046875 0.578125 0.1875 1.140625q0.140625 0.5625 0.375 1.0625q0.21875 0.515625 0.546875 0.953125q0.34375 0.453125 0.8125 0.765625l0.265625 -0.65625q-0.34375 -0.3125 -0.578125 -0.734375q-0.234375 -0.40625 -0.375 -0.875q-0.140625 -0.46875 -0.203125 -0.96875q-0.0625 -0.5 -0.0625 -1.015625q0 -0.5 0.03125 -0.96875q0.046875 -0.484375 0.109375 -0.90625l0.015625 -0.09375q0.109375 -0.765625 0.3125 -1.53125q0.21875 -0.765625 0.5625 -1.484375q0.328125 -0.703125 0.796875 -1.328125q0.46875 -0.625 1.125 -1.09375l-0.171875 -0.734375q-0.546875 0.28125 -1.015625 0.6875q-0.46875 0.40625 -0.84375 0.90625q-0.390625 0.5 -0.703125 1.0625q-0.296875 0.5625 -0.515625 1.15625q-0.21875 0.59375 -0.375 1.203125q-0.15625 0.609375 -0.25 1.1875zm9.839844 0.015625l0.015625 -0.078125q0.0625 -0.5 0.078125 -1.0625q0.015625 -0.5625 -0.03125 -1.140625q-0.0625 -0.578125 -0.203125 -1.140625q-0.125 -0.5625 -0.359375 -1.078125q-0.234375 -0.5 -0.578125 -0.9375q-0.328125 -0.453125 -0.796875 -0.765625l-0.265625 0.65625q0.34375 0.3125 0.5625 0.734375q0.234375 0.40625 0.375 0.875q0.140625 0.46875 0.203125 0.984375q0.0625 0.5 0.078125 1.0q0 0.515625 -0.046875 1.0q-0.03125 0.46875 -0.09375 0.890625l-0.015625 0.078125q-0.109375 0.78125 -0.328125 1.5625q-0.203125 0.765625 -0.546875 1.46875q-0.328125 0.734375 -0.796875 1.359375q-0.46875 0.625 -1.125 1.109375l0.171875 0.671875q0.828125 -0.421875 1.46875 -1.125q0.640625 -0.703125 1.09375 -1.546875q0.4375 -0.828125 0.71875 -1.734375q0.296875 -0.921875 0.421875 -1.78125zm11.8828125 2.75q0 0.34375 0.234375 0.578125q0.234375 0.21875 0.578125 0.21875q0.359375 0 0.609375 -0.234375q0.25 -0.25 0.25 -0.625q0 -0.375 -0.234375 -0.59375q-0.234375 -0.234375 -0.59375 -0.21875q-0.375 0 -0.609375 0.265625q-0.234375 0.25 -0.234375 0.609375zm0.890625 -5.140625q0 0.34375 0.234375 0.578125q0.234375 0.21875 0.578125 0.21875q0.35935974 0 0.60935974 -0.234375q0.25 -0.25 0.25 -0.625q0 -0.375 -0.234375 -0.59375q-0.234375 -0.234375 -0.59373474 -0.21875q-0.375 0 -0.609375 0.265625q-0.234375 0.25 -0.234375 0.609375zm12.710922 2.390625l1.703125 0q0.578125 0 1.109375 -0.171875q0.546875 -0.171875 0.984375 -0.515625q0.421875 -0.328125 0.6875 -0.8125q0.265625 -0.484375 0.328125 -1.09375q0.046875 -0.5625 -0.125 -1.015625q-0.15625 -0.453125 -0.46875 -0.78125q-0.328125 -0.328125 -0.78125 -0.515625q-0.453125 -0.1875 -0.984375 -0.203125l-2.625 0l-1.484375 8.53125l1.0625 0l0.59375 -3.421875zm0.15625 -0.890625l0.578125 -3.328125l1.6875 0q0.34375 0.015625 0.609375 0.15625q0.265625 0.125 0.453125 0.34375q0.15625 0.21875 0.234375 0.515625q0.078125 0.28125 0.03125 0.625q-0.046875 0.390625 -0.234375 0.703125q-0.171875 0.3125 -0.4375 0.53125q-0.28125 0.21875 -0.625 0.34375q-0.34375 0.125 -0.734375 0.125l-1.5625 -0.015625zm10.214844 -2.15625q-0.34375 0 -0.65625 0.078125q-0.3125 0.078125 -0.59375 0.21875q-0.28125 0.15625 -0.546875 0.375q-0.25 0.203125 -0.46875 0.46875l0.03125 -0.1875l0.140625 -0.828125l-1.0 0l-1.09375 6.34375l1.0625 0l0.703125 -4.078125q0.1875 -0.34375 0.4375 -0.609375q0.25 -0.28125 0.546875 -0.4375q0.25 -0.140625 0.53125 -0.203125q0.296875 -0.0625 0.625 -0.0625q0.28125 0 0.5625 0.046875q0.28125 0.03125 0.5625 0.09375l0.265625 -1.046875q-0.265625 -0.109375 -0.546875 -0.140625q-0.28125 -0.03125 -0.5625 -0.03125zm2.2304688 3.28125l-0.015625 0.125q-0.046875 0.4375 0 0.859375q0.046875 0.40625 0.1875 0.78125q0.09375 0.25 0.234375 0.484375q0.140625 0.21875 0.328125 0.421875q0.28125 0.28125 0.671875 0.453125q0.40625 0.171875 0.921875 0.1875q0.6875 0.015625 1.25 -0.25q0.5625 -0.265625 0.984375 -0.71875q0.421875 -0.453125 0.671875 -1.03125q0.265625 -0.59375 0.34375 -1.234375l0.015625 -0.140625q0.046875 -0.421875 0 -0.828125q-0.03125 -0.421875 -0.15625 -0.796875q-0.109375 -0.296875 -0.28125 -0.5625q-0.171875 -0.265625 -0.390625 -0.46875q-0.265625 -0.234375 -0.65625 -0.390625q-0.375 -0.15625 -0.859375 -0.15625q-0.671875 -0.015625 -1.21875 0.234375q-0.546875 0.25 -0.953125 0.671875q-0.453125 0.453125 -0.71875 1.078125q-0.265625 0.609375 -0.359375 1.28125zm1.046875 0.125l0.015625 -0.125q0.0625 -0.421875 0.21875 -0.84375q0.15625 -0.4375 0.421875 -0.78125q0.265625 -0.34375 0.640625 -0.5625q0.375 -0.21875 0.859375 -0.203125q0.46875 0.015625 0.75 0.25q0.28125 0.21875 0.421875 0.5625q0.140625 0.34375 0.171875 0.75q0.03125 0.40625 -0.015625 0.78125l-0.015625 0.125q-0.015625 0.328125 -0.203125 0.796875q-0.171875 0.46875 -0.4375 0.8125q-0.265625 0.34375 -0.640625 0.5625q-0.375 0.203125 -0.859375 0.1875q-0.40625 -0.03125 -0.6875 -0.21875q-0.28125 -0.1875 -0.421875 -0.46875q-0.1875 -0.359375 -0.234375 -0.78125q-0.03125 -0.4375 0.015625 -0.84375zm9.605469 -4.8125l-1.078125 0l-0.265625 1.53125l-1.609375 0l-0.140625 0.84375l1.609375 0l-0.578125 3.4375q-0.03125 0.4375 0.03125 0.828125q0.078125 0.390625 0.28125 0.6875q0.203125 0.296875 0.53125 0.484375q0.328125 0.171875 0.796875 0.171875q0.421875 0.015625 0.859375 -0.046875q0.453125 -0.0625 0.828125 -0.28125l-0.09375 -0.765625q-0.328125 0.0625 -0.65625 0.125q-0.3125 0.0625 -0.625 0.046875q-0.28125 -0.015625 -0.46875 -0.109375q-0.1875 -0.09375 -0.28125 -0.265625q-0.109375 -0.15625 -0.140625 -0.375q-0.03125 -0.234375 0 -0.484375l0.578125 -3.453125l2.34375 0l0.140625 -0.84375l-2.34375 0l0.28125 -1.53125zm3.4335938 4.6875l-0.015625 0.125q-0.046875 0.4375 0 0.859375q0.046875 0.40625 0.1875 0.78125q0.09375 0.25 0.234375 0.484375q0.140625 0.21875 0.328125 0.421875q0.28125 0.28125 0.671875 0.453125q0.40625 0.171875 0.921875 0.1875q0.6875 0.015625 1.25 -0.25q0.5625 -0.265625 0.984375 -0.71875q0.421875 -0.453125 0.671875 -1.03125q0.265625 -0.59375 0.34375 -1.234375l0.015625 -0.140625q0.046875 -0.421875 0 -0.828125q-0.03125 -0.421875 -0.15625 -0.796875q-0.109375 -0.296875 -0.28125 -0.5625q-0.171875 -0.265625 -0.390625 -0.46875q-0.265625 -0.234375 -0.65625 -0.390625q-0.375 -0.15625 -0.859375 -0.15625q-0.671875 -0.015625 -1.21875 0.234375q-0.546875 0.25 -0.953125 0.671875q-0.453125 0.453125 -0.71875 1.078125q-0.265625 0.609375 -0.359375 1.28125zm1.046875 0.125l0.015625 -0.125q0.0625 -0.421875 0.21875 -0.84375q0.15625 -0.4375 0.421875 -0.78125q0.265625 -0.34375 0.640625 -0.5625q0.375 -0.21875 0.859375 -0.203125q0.46875 0.015625 0.75 0.25q0.28125 0.21875 0.421875 0.5625q0.140625 0.34375 0.171875 0.75q0.03125 0.40625 -0.015625 0.78125l-0.015625 0.125q-0.015625 0.328125 -0.203125 0.796875q-0.171875 0.46875 -0.4375 0.8125q-0.265625 0.34375 -0.640625 0.5625q-0.375 0.203125 -0.859375 0.1875q-0.40625 -0.03125 -0.6875 -0.21875q-0.28125 -0.1875 -0.421875 -0.46875q-0.1875 -0.359375 -0.234375 -0.78125q-0.03125 -0.4375 0.015625 -0.84375zm9.605469 -4.8125l-1.078125 0l-0.265625 1.53125l-1.609375 0l-0.140625 0.84375l1.609375 0l-0.578125 3.4375q-0.03125 0.4375 0.03125 0.828125q0.078125 0.390625 0.28125 0.6875q0.203125 0.296875 0.53125 0.484375q0.328125 0.171875 0.796875 0.171875q0.421875 0.015625 0.859375 -0.046875q0.453125 -0.0625 0.828125 -0.28125l-0.09375 -0.765625q-0.328125 0.0625 -0.65625 0.125q-0.3125 0.0625 -0.625 0.046875q-0.28125 -0.015625 -0.46875 -0.109375q-0.1875 -0.09375 -0.28125 -0.265625q-0.109375 -0.15625 -0.140625 -0.375q-0.03125 -0.234375 0 -0.484375l0.578125 -3.453125l2.34375 0l0.140625 -0.84375l-2.34375 0l0.28125 -1.53125zm5.8242188 5.671875l-1.0 -4.140625l-1.125 0l1.578125 5.984375l-0.59375 0.90625q-0.109375 0.171875 -0.25 0.359375q-0.125 0.203125 -0.28125 0.359375q-0.15625 0.15625 -0.359375 0.25q-0.1875 0.109375 -0.40625 0.125q-0.125 0 -0.265625 -0.03125q-0.125 -0.015625 -0.25 -0.015625l-0.25 0.890625q0.171875 0.03125 0.34375 0.0625q0.1875 0.03125 0.34375 0.03125q0.390625 0 0.703125 -0.140625q0.328125 -0.125 0.609375 -0.34375q0.265625 -0.234375 0.484375 -0.515625q0.234375 -0.28125 0.40625 -0.59375l4.390625 -7.328125l-1.25 0l-2.71875 4.84375l-0.109375 -0.703125zm10.121094 -0.9375l0.015625 -0.125q0.046875 -0.359375 0.03125 -0.71875q-0.015625 -0.375 -0.078125 -0.734375q-0.078125 -0.34375 -0.234375 -0.65625q-0.140625 -0.3125 -0.359375 -0.5625q-0.234375 -0.234375 -0.5625 -0.375q-0.328125 -0.140625 -0.75 -0.140625q-0.34375 -0.015625 -0.65625 0.0625q-0.296875 0.078125 -0.5625 0.234375q-0.171875 0.09375 -0.328125 0.21875q-0.15625 0.125 -0.296875 0.28125l0.109375 -0.6875l-0.96875 0l-1.515625 8.78125l1.0625 0l0.5625 -3.046875q0.109375 0.140625 0.25 0.25q0.140625 0.109375 0.28125 0.1875q0.25 0.140625 0.53125 0.21875q0.28125 0.078125 0.578125 0.078125q0.40625 0 0.75 -0.109375q0.34375 -0.09375 0.625 -0.28125q0.375 -0.234375 0.65625 -0.609375q0.296875 -0.390625 0.46875 -0.828125q0.15625 -0.34375 0.25 -0.703125q0.109375 -0.375 0.140625 -0.734375zm-1.046875 -0.125l-0.015625 0.125q-0.03125 0.265625 -0.109375 0.546875q-0.0625 0.265625 -0.171875 0.515625q-0.140625 0.296875 -0.328125 0.5625q-0.171875 0.25 -0.421875 0.4375q-0.21875 0.15625 -0.484375 0.25q-0.265625 0.078125 -0.578125 0.0625q-0.21875 -0.015625 -0.421875 -0.0625q-0.1875 -0.0625 -0.328125 -0.15625q-0.15625 -0.109375 -0.28125 -0.265625q-0.125 -0.15625 -0.203125 -0.359375l0.53125 -3.0625q0.125 -0.171875 0.265625 -0.3125q0.140625 -0.15625 0.3125 -0.265625q0.203125 -0.140625 0.4375 -0.21875q0.25 -0.078125 0.53125 -0.0625q0.296875 0 0.515625 0.109375q0.21875 0.09375 0.359375 0.25q0.109375 0.140625 0.1875 0.296875q0.09375 0.15625 0.140625 0.359375q0.078125 0.296875 0.078125 0.625q0.015625 0.328125 -0.015625 0.625zm5.1523438 3.390625q0.734375 0 1.421875 -0.296875q0.703125 -0.3125 1.125 -0.921875l-0.609375 -0.515625q-0.375 0.390625 -0.84375 0.625q-0.453125 0.234375 -1.0 0.203125q-0.4375 0 -0.75 -0.1875q-0.3125 -0.1875 -0.5 -0.46875q-0.1875 -0.296875 -0.265625 -0.65625q-0.0625 -0.375 -0.015625 -0.765625l4.359375 0l0.078125 -0.484375q0.078125 -0.59375 -0.015625 -1.140625q-0.078125 -0.5625 -0.34375 -0.984375q-0.265625 -0.4375 -0.71875 -0.703125q-0.453125 -0.265625 -1.109375 -0.28125q-0.4375 -0.015625 -0.859375 0.109375q-0.40625 0.125 -0.75 0.34375q-0.34375 0.234375 -0.640625 0.546875q-0.28125 0.296875 -0.484375 0.671875q-0.21875 0.375 -0.359375 0.78125q-0.125 0.40625 -0.171875 0.8125l-0.03125 0.25q-0.046875 0.609375 0.078125 1.15625q0.140625 0.546875 0.453125 0.96875q0.328125 0.40625 0.8125 0.671875q0.484375 0.25 1.140625 0.265625zm0.765625 -5.6875q0.34375 0 0.59375 0.15625q0.265625 0.15625 0.4375 0.390625q0.15625 0.234375 0.21875 0.546875q0.0625 0.296875 0 0.625l-0.015625 0.109375l-3.3125 -0.015625q0.125 -0.34375 0.3125 -0.671875q0.1875 -0.34375 0.453125 -0.59375q0.25 -0.265625 0.578125 -0.40625q0.328125 -0.15625 0.734375 -0.140625z" fill-rule="nonzero"/><path fill="#000000" fill-opacity="0.0" d="m257.2021 143.48032l218.29922 0l0 39.118103l-218.29922 0z" fill-rule="evenodd"/><path stroke="#000000" stroke-width="3.0" stroke-linejoin="round" stroke-linecap="butt" d="m257.2021 143.48032l218.29922 0l0 39.118103l-218.29922 0z" fill-rule="evenodd"/><path fill="#000000" d="m301.80554 164.87062l-1.828125 0q-0.03125 0.4375 -0.15625 0.75q-0.109375 0.296875 -0.3125 0.484375q-0.203125 0.203125 -0.5 0.296875q-0.28125 0.078125 -0.625 0.078125q-0.28125 0 -0.5 -0.0625q-0.203125 -0.0625 -0.390625 -0.1875q-0.15625 -0.109375 -0.28125 -0.28125q-0.125 -0.1875 -0.21875 -0.40625q-0.125 -0.34375 -0.1875 -0.78125q-0.0625 -0.453125 -0.0625 -1.015625l0 -1.28125q0 -0.421875 0.03125 -0.78125q0.046875 -0.359375 0.125 -0.65625q0.109375 -0.390625 0.296875 -0.671875q0.1875 -0.296875 0.453125 -0.453125q0.15625 -0.09375 0.34375 -0.140625q0.1875 -0.046875 0.390625 -0.046875q0.40625 0 0.6875 0.109375q0.296875 0.109375 0.5 0.3125q0.1875 0.21875 0.28125 0.546875q0.109375 0.3125 0.125 0.734375l1.828125 0q-0.0625 -0.75 -0.3125 -1.328125q-0.25 -0.59375 -0.671875 -1.015625q-0.4375 -0.40625 -1.046875 -0.625q-0.609375 -0.21875 -1.390625 -0.21875q-0.515625 0 -0.984375 0.140625q-0.453125 0.125 -0.84375 0.375q-0.421875 0.28125 -0.765625 0.71875q-0.328125 0.421875 -0.546875 0.953125q-0.171875 0.453125 -0.265625 0.96875q-0.09375 0.515625 -0.09375 1.078125l0 1.28125q0 0.609375 0.09375 1.15625q0.109375 0.546875 0.296875 1.0q0.1875 0.453125 0.46875 0.84375q0.296875 0.375 0.65625 0.640625q0.390625 0.28125 0.890625 0.4375q0.5 0.15625 1.09375 0.15625q0.734375 0 1.34375 -0.21875q0.609375 -0.21875 1.0625 -0.625q0.4375 -0.40625 0.703125 -0.96875q0.265625 -0.578125 0.3125 -1.296875zm1.2325745 -0.609375l0 0.125q0 0.78125 0.21875 1.4375q0.21875 0.65625 0.65625 1.125q0.421875 0.484375 1.03125 0.765625q0.625 0.265625 1.421875 0.265625q0.796875 0 1.40625 -0.265625q0.625 -0.28125 1.046875 -0.765625q0.421875 -0.46875 0.640625 -1.125q0.21875 -0.65625 0.21875 -1.4375l0 -0.125q0 -0.78125 -0.21875 -1.421875q-0.21875 -0.65625 -0.640625 -1.140625q-0.4375 -0.484375 -1.0625 -0.75q-0.609375 -0.28125 -1.40625 -0.28125q-0.78125 0 -1.40625 0.28125q-0.609375 0.265625 -1.03125 0.75q-0.4375 0.484375 -0.65625 1.140625q-0.21875 0.640625 -0.21875 1.421875zm1.8125 0.125l0 -0.125q0 -0.4375 0.078125 -0.8125q0.09375 -0.390625 0.265625 -0.6875q0.1875 -0.296875 0.46875 -0.453125q0.28125 -0.171875 0.6875 -0.171875q0.421875 0 0.703125 0.171875q0.28125 0.15625 0.46875 0.453125q0.171875 0.296875 0.25 0.6875q0.09375 0.375 0.09375 0.8125l0 0.125q0 0.453125 -0.09375 0.84375q-0.078125 0.375 -0.25 0.65625q-0.1875 0.296875 -0.46875 0.46875q-0.28125 0.171875 -0.6875 0.171875q-0.40625 0 -0.703125 -0.171875q-0.28125 -0.171875 -0.46875 -0.46875q-0.171875 -0.28125 -0.265625 -0.65625q-0.078125 -0.390625 -0.078125 -0.84375zm6.435669 3.453125l1.8125 0l0 -5.0q0.09375 -0.140625 0.203125 -0.25q0.109375 -0.125 0.25 -0.21875q0.15625 -0.109375 0.375 -0.171875q0.21875 -0.0625 0.484375 -0.0625q0.3125 0 0.5625 0.0625q0.25 0.0625 0.421875 0.21875q0.171875 0.15625 0.265625 0.4375q0.09375 0.265625 0.09375 0.671875l0 4.3125l1.8125 0l0 -4.328125q0 -0.78125 -0.1875 -1.3125q-0.171875 -0.53125 -0.484375 -0.875q-0.328125 -0.34375 -0.78125 -0.5q-0.4375 -0.15625 -0.96875 -0.15625q-0.421875 0 -0.796875 0.125q-0.359375 0.109375 -0.671875 0.328125q-0.1875 0.125 -0.34375 0.296875q-0.15625 0.15625 -0.296875 0.359375l-0.109375 -0.984375l-1.640625 0l0 7.046875zm11.107574 -1.3125q-0.4375 0 -0.71875 -0.171875q-0.28125 -0.1875 -0.4375 -0.46875q-0.171875 -0.296875 -0.234375 -0.671875q-0.0625 -0.375 -0.0625 -0.796875l0 -0.1875q0 -0.40625 0.0625 -0.78125q0.0625 -0.375 0.234375 -0.671875q0.171875 -0.296875 0.4375 -0.46875q0.28125 -0.171875 0.71875 -0.171875q0.296875 0 0.53125 0.109375q0.25 0.09375 0.421875 0.25q0.1875 0.171875 0.265625 0.40625q0.09375 0.234375 0.09375 0.5l1.703125 0q0 -0.625 -0.21875 -1.125q-0.21875 -0.515625 -0.609375 -0.875q-0.40625 -0.34375 -0.96875 -0.53125q-0.546875 -0.203125 -1.203125 -0.203125q-0.8125 0 -1.421875 0.28125q-0.609375 0.28125 -1.03125 0.765625q-0.421875 0.46875 -0.625 1.125q-0.203125 0.640625 -0.203125 1.390625l0 0.1875q0 0.75 0.203125 1.40625q0.21875 0.640625 0.625 1.125q0.421875 0.46875 1.03125 0.75q0.625 0.28125 1.4375 0.28125q0.609375 0 1.15625 -0.1875q0.546875 -0.203125 0.953125 -0.53125q0.40625 -0.34375 0.640625 -0.8125q0.234375 -0.46875 0.234375 -1.015625l-1.703125 0q0 0.25 -0.109375 0.453125q-0.09375 0.203125 -0.265625 0.34375q-0.1875 0.140625 -0.4375 0.21875q-0.234375 0.078125 -0.5 0.078125zm9.935669 -5.859375q-0.703125 0 -1.3125 0.34375q-0.59375 0.34375 -1.015625 0.9375l-0.015625 -0.15625l-0.078125 -1.0l-1.671875 0l0 7.046875l1.796875 0l0 -4.234375q0.125 -0.296875 0.3125 -0.515625q0.1875 -0.21875 0.453125 -0.359375q0.234375 -0.125 0.515625 -0.1875q0.28125 -0.0625 0.625 -0.0625q0.34375 0 0.71875 0.046875q0.375 0.03125 0.734375 0.125l0.265625 -1.8125q-0.21875 -0.0625 -0.5625 -0.109375q-0.34375 -0.0625 -0.765625 -0.0625zm6.3575745 7.296875q1.03125 0 1.78125 -0.390625q0.75 -0.390625 1.09375 -0.890625l-0.90625 -0.96875q-0.3125 0.40625 -0.8125 0.609375q-0.5 0.1875 -1.046875 0.1875q-0.375 0 -0.703125 -0.109375q-0.3125 -0.125 -0.546875 -0.328125q-0.25 -0.21875 -0.390625 -0.46875q-0.140625 -0.265625 -0.234375 -0.6875l0 -0.015625l4.78125 0l0 -0.765625q0 -0.78125 -0.21875 -1.421875q-0.21875 -0.640625 -0.625 -1.09375q-0.421875 -0.453125 -1.015625 -0.703125q-0.59375 -0.25 -1.359375 -0.25q-0.734375 0 -1.359375 0.265625q-0.625 0.265625 -1.078125 0.75q-0.453125 0.484375 -0.703125 1.15625q-0.25 0.65625 -0.25 1.46875l0 0.25q0 0.71875 0.25 1.34375q0.265625 0.609375 0.734375 1.078125q0.46875 0.453125 1.125 0.71875q0.671875 0.265625 1.484375 0.265625zm-0.203125 -5.828125q0.34375 0 0.59375 0.109375q0.265625 0.09375 0.453125 0.28125q0.1875 0.1875 0.28125 0.453125q0.109375 0.25 0.109375 0.53125l0 0.140625l-2.96875 0q0.0625 -0.34375 0.1875 -0.625q0.140625 -0.28125 0.34375 -0.484375q0.1875 -0.203125 0.4375 -0.296875q0.25 -0.109375 0.5625 -0.109375zm8.107544 -3.0625l-1.8125 0l0 1.71875l-1.609375 0l0 1.34375l1.609375 0l0 3.203125q0 0.6875 0.1875 1.1875q0.1875 0.5 0.515625 0.8125q0.34375 0.328125 0.8125 0.484375q0.46875 0.15625 1.046875 0.15625q0.296875 0 0.609375 -0.03125q0.3125 -0.03125 0.59375 -0.078125q0.28125 -0.0625 0.53125 -0.140625q0.265625 -0.078125 0.453125 -0.1875l-0.171875 -1.25q-0.125 0.03125 -0.296875 0.078125q-0.171875 0.03125 -0.375 0.046875q-0.203125 0.03125 -0.421875 0.0625q-0.21875 0.015625 -0.421875 0.015625q-0.28125 0 -0.515625 -0.0625q-0.234375 -0.078125 -0.390625 -0.234375q-0.171875 -0.140625 -0.265625 -0.390625q-0.078125 -0.265625 -0.078125 -0.65625l0 -3.015625l2.625 0l0 -1.34375l-2.625 0l0 -1.71875zm8.091949 8.890625q1.03125 0 1.78125 -0.390625q0.75 -0.390625 1.09375 -0.890625l-0.90625 -0.96875q-0.3125 0.40625 -0.8125 0.609375q-0.5 0.1875 -1.046875 0.1875q-0.375 0 -0.703125 -0.109375q-0.3125 -0.125 -0.546875 -0.328125q-0.25 -0.21875 -0.390625 -0.46875q-0.140625 -0.265625 -0.234375 -0.6875l0 -0.015625l4.78125 0l0 -0.765625q0 -0.78125 -0.21875 -1.421875q-0.21875 -0.640625 -0.625 -1.09375q-0.421875 -0.453125 -1.015625 -0.703125q-0.59375 -0.25 -1.359375 -0.25q-0.734375 0 -1.359375 0.265625q-0.625 0.265625 -1.078125 0.75q-0.453125 0.484375 -0.703125 1.15625q-0.25 0.65625 -0.25 1.46875l0 0.25q0 0.71875 0.25 1.34375q0.265625 0.609375 0.734375 1.078125q0.46875 0.453125 1.125 0.71875q0.671875 0.265625 1.484375 0.265625zm-0.203125 -5.828125q0.34375 0 0.59375 0.109375q0.265625 0.09375 0.453125 0.28125q0.1875 0.1875 0.28125 0.453125q0.109375 0.25 0.109375 0.53125l0 0.140625l-2.96875 0q0.0625 -0.34375 0.1875 -0.625q0.140625 -0.28125 0.34375 -0.484375q0.1875 -0.203125 0.4375 -0.296875q0.25 -0.109375 0.5625 -0.109375zm6.670044 2.234375l1.40625 0q0.78125 0 1.40625 -0.21875q0.625 -0.234375 1.0625 -0.625q0.4375 -0.390625 0.671875 -0.921875q0.25 -0.546875 0.25 -1.1875q0 -0.6875 -0.25 -1.234375q-0.234375 -0.5625 -0.671875 -0.96875q-0.4375 -0.40625 -1.0625 -0.625q-0.625 -0.21875 -1.40625 -0.21875l-3.234375 0l0 9.46875l1.828125 0l0 -3.46875zm0 -1.484375l0 -3.03125l1.40625 0q0.390625 0 0.671875 0.125q0.296875 0.109375 0.5 0.328125q0.1875 0.21875 0.28125 0.515625q0.09375 0.28125 0.09375 0.609375q0 0.28125 -0.09375 0.546875q-0.09375 0.265625 -0.28125 0.46875q-0.203125 0.203125 -0.5 0.328125q-0.28125 0.109375 -0.671875 0.109375l-1.40625 0zm11.170074 -2.21875q-0.703125 0 -1.3125 0.34375q-0.59375 0.34375 -1.015625 0.9375l-0.015625 -0.15625l-0.078125 -1.0l-1.671875 0l0 7.046875l1.796875 0l0 -4.234375q0.125 -0.296875 0.3125 -0.515625q0.1875 -0.21875 0.453125 -0.359375q0.234375 -0.125 0.515625 -0.1875q0.28125 -0.0625 0.625 -0.0625q0.34375 0 0.71875 0.046875q0.375 0.03125 0.734375 0.125l0.265625 -1.8125q-0.21875 -0.0625 -0.5625 -0.109375q-0.34375 -0.0625 -0.765625 -0.0625zm2.701294 3.59375l0 0.125q0 0.78125 0.21875 1.4375q0.21875 0.65625 0.65625 1.125q0.421875 0.484375 1.03125 0.765625q0.625 0.265625 1.421875 0.265625q0.796875 0 1.40625 -0.265625q0.625 -0.28125 1.046875 -0.765625q0.421875 -0.46875 0.640625 -1.125q0.21875 -0.65625 0.21875 -1.4375l0 -0.125q0 -0.78125 -0.21875 -1.421875q-0.21875 -0.65625 -0.640625 -1.140625q-0.4375 -0.484375 -1.0625 -0.75q-0.609375 -0.28125 -1.40625 -0.28125q-0.78125 0 -1.40625 0.28125q-0.609375 0.265625 -1.03125 0.75q-0.4375 0.484375 -0.65625 1.140625q-0.21875 0.640625 -0.21875 1.421875zm1.8125 0.125l0 -0.125q0 -0.4375 0.078125 -0.8125q0.09375 -0.390625 0.265625 -0.6875q0.1875 -0.296875 0.46875 -0.453125q0.28125 -0.171875 0.6875 -0.171875q0.421875 0 0.703125 0.171875q0.28125 0.15625 0.46875 0.453125q0.171875 0.296875 0.25 0.6875q0.09375 0.375 0.09375 0.8125l0 0.125q0 0.453125 -0.09375 0.84375q-0.078125 0.375 -0.25 0.65625q-0.1875 0.296875 -0.46875 0.46875q-0.28125 0.171875 -0.6875 0.171875q-0.40625 0 -0.703125 -0.171875q-0.28125 -0.171875 -0.46875 -0.46875q-0.171875 -0.28125 -0.265625 -0.65625q-0.078125 -0.390625 -0.078125 -0.84375zm9.748169 -5.3125l-1.8124695 0l0 1.71875l-1.609375 0l0 1.34375l1.609375 0l0 3.203125q0 0.6875 0.1875 1.1875q0.1875 0.5 0.5155945 0.8125q0.34375 0.328125 0.8125 0.484375q0.46875 0.15625 1.046875 0.15625q0.296875 0 0.609375 -0.03125q0.3125 -0.03125 0.59375 -0.078125q0.28125 -0.0625 0.53125 -0.140625q0.265625 -0.078125 0.453125 -0.1875l-0.171875 -1.25q-0.125 0.03125 -0.296875 0.078125q-0.171875 0.03125 -0.375 0.046875q-0.203125 0.03125 -0.421875 0.0625q-0.21875 0.015625 -0.421875 0.015625q-0.28125 0 -0.515625 -0.0625q-0.234375 -0.078125 -0.390625 -0.234375q-0.171875 -0.140625 -0.265625 -0.390625q-0.078125 -0.265625 -0.078125 -0.65625l0 -3.015625l2.625 0l0 -1.34375l-2.625 0l0 -1.71875zm4.4356995 5.1875l0 0.125q0 0.78125 0.21875 1.4375q0.21875 0.65625 0.65625 1.125q0.421875 0.484375 1.03125 0.765625q0.625 0.265625 1.421875 0.265625q0.796875 0 1.40625 -0.265625q0.625 -0.28125 1.046875 -0.765625q0.421875 -0.46875 0.640625 -1.125q0.21875 -0.65625 0.21875 -1.4375l0 -0.125q0 -0.78125 -0.21875 -1.421875q-0.21875 -0.65625 -0.640625 -1.140625q-0.4375 -0.484375 -1.0625 -0.75q-0.609375 -0.28125 -1.40625 -0.28125q-0.78125 0 -1.40625 0.28125q-0.609375 0.265625 -1.03125 0.75q-0.4375 0.484375 -0.65625 1.140625q-0.21875 0.640625 -0.21875 1.421875zm1.8125 0.125l0 -0.125q0 -0.4375 0.078125 -0.8125q0.09375 -0.390625 0.265625 -0.6875q0.1875 -0.296875 0.46875 -0.453125q0.28125 -0.171875 0.6875 -0.171875q0.421875 0 0.703125 0.171875q0.28125 0.15625 0.46875 0.453125q0.171875 0.296875 0.25 0.6875q0.09375 0.375 0.09375 0.8125l0 0.125q0 0.453125 -0.09375 0.84375q-0.078125 0.375 -0.25 0.65625q-0.1875 0.296875 -0.46875 0.46875q-0.28125 0.171875 -0.6875 0.171875q-0.40625 0 -0.703125 -0.171875q-0.28125 -0.171875 -0.46875 -0.46875q-0.171875 -0.28125 -0.265625 -0.65625q-0.078125 -0.390625 -0.078125 -0.84375zm9.748169 -5.3125l-1.8125 0l0 1.71875l-1.609375 0l0 1.34375l1.609375 0l0 3.203125q0 0.6875 0.1875 1.1875q0.1875 0.5 0.515625 0.8125q0.34375 0.328125 0.8125 0.484375q0.46875 0.15625 1.046875 0.15625q0.296875 0 0.609375 -0.03125q0.3125 -0.03125 0.59375 -0.078125q0.28125 -0.0625 0.53125 -0.140625q0.265625 -0.078125 0.453125 -0.1875l-0.171875 -1.25q-0.125 0.03125 -0.296875 0.078125q-0.171875 0.03125 -0.375 0.046875q-0.203125 0.03125 -0.421875 0.0625q-0.21875 0.015625 -0.421875 0.015625q-0.28125 0 -0.515625 -0.0625q-0.234375 -0.078125 -0.390625 -0.234375q-0.171875 -0.140625 -0.265625 -0.390625q-0.078125 -0.265625 -0.078125 -0.65625l0 -3.015625l2.625 0l0 -1.34375l-2.625 0l0 -1.71875zm5.7950745 11.609375q0.546875 0 0.9375 -0.1875q0.40625 -0.171875 0.6875 -0.4375q0.28125 -0.265625 0.46875 -0.578125q0.1875 -0.3125 0.296875 -0.59375l3.578125 -8.09375l-2.0 0l-1.609375 4.140625l-0.265625 0.703125l-0.1875 -0.71875l-1.625 -4.125l-1.96875 0l2.96875 6.75l-0.40625 0.765625q-0.078125 0.15625 -0.140625 0.234375q-0.046875 0.078125 -0.171875 0.234375q-0.109375 0.15625 -0.28125 0.28125q-0.171875 0.140625 -0.375 0.140625q-0.109375 0 -0.28125 -0.015625q-0.171875 -0.015625 -0.28125 -0.015625l-0.21875 1.390625q0.234375 0.0625 0.421875 0.09375q0.1875 0.03125 0.453125 0.03125zm6.904419 -0.140625l1.8125 0l0 -3.3125q0.125 0.140625 0.265625 0.25q0.140625 0.109375 0.28125 0.203125q0.25 0.140625 0.546875 0.203125q0.296875 0.078125 0.65625 0.078125q0.65625 0 1.171875 -0.265625q0.515625 -0.28125 0.875 -0.75q0.34375 -0.484375 0.515625 -1.140625q0.1875 -0.65625 0.1875 -1.421875l0 -0.140625q0 -0.796875 -0.1875 -1.453125q-0.171875 -0.671875 -0.53125 -1.140625q-0.34375 -0.46875 -0.859375 -0.71875q-0.515625 -0.265625 -1.1875 -0.265625q-0.328125 0 -0.609375 0.078125q-0.28125 0.0625 -0.515625 0.1875q-0.203125 0.09375 -0.375 0.234375q-0.15625 0.140625 -0.296875 0.3125l-0.078125 -0.6875l-1.671875 0l0 9.75zm4.5 -6.296875l0 0.140625q0 0.4375 -0.078125 0.828125q-0.078125 0.375 -0.25 0.671875q-0.171875 0.296875 -0.4375 0.46875q-0.265625 0.15625 -0.65625 0.15625q-0.234375 0 -0.4375 -0.046875q-0.1875 -0.046875 -0.34375 -0.140625q-0.15625 -0.09375 -0.28125 -0.21875q-0.109375 -0.140625 -0.203125 -0.3125l0 -2.9375q0.09375 -0.1875 0.21875 -0.328125q0.125 -0.140625 0.296875 -0.21875q0.15625 -0.078125 0.328125 -0.125q0.1875 -0.046875 0.40625 -0.046875q0.390625 0 0.65625 0.171875q0.265625 0.15625 0.453125 0.4375q0.15625 0.28125 0.234375 0.671875q0.09375 0.390625 0.09375 0.828125zm6.8888245 3.71875q1.03125 0 1.78125 -0.390625q0.75 -0.390625 1.09375 -0.890625l-0.90625 -0.96875q-0.3125 0.40625 -0.8125 0.609375q-0.5 0.1875 -1.046875 0.1875q-0.375 0 -0.703125 -0.109375q-0.3125 -0.125 -0.546875 -0.328125q-0.25 -0.21875 -0.390625 -0.46875q-0.140625 -0.265625 -0.234375 -0.6875l0 -0.015625l4.78125 0l0 -0.765625q0 -0.78125 -0.21875 -1.421875q-0.21875 -0.640625 -0.625 -1.09375q-0.421875 -0.453125 -1.015625 -0.703125q-0.59375 -0.25 -1.359375 -0.25q-0.734375 0 -1.359375 0.265625q-0.625 0.265625 -1.078125 0.75q-0.453125 0.484375 -0.703125 1.15625q-0.25 0.65625 -0.25 1.46875l0 0.25q0 0.71875 0.25 1.34375q0.265625 0.609375 0.734375 1.078125q0.46875 0.453125 1.125 0.71875q0.671875 0.265625 1.484375 0.265625zm-0.203125 -5.828125q0.34375 0 0.59375 0.109375q0.265625 0.09375 0.453125 0.28125q0.1875 0.1875 0.28125 0.453125q0.109375 0.25 0.109375 0.53125l0 0.140625l-2.96875 0q0.0625 -0.34375 0.1875 -0.625q0.140625 -0.28125 0.34375 -0.484375q0.1875 -0.203125 0.4375 -0.296875q0.25 -0.109375 0.5625 -0.109375zm10.982544 5.703125l0 -1.453125l-4.15625 0l1.78125 -1.890625q0.46875 -0.46875 0.84375 -0.890625q0.375 -0.4375 0.65625 -0.859375q0.265625 -0.421875 0.40625 -0.84375q0.140625 -0.421875 0.140625 -0.890625q0 -0.625 -0.203125 -1.125q-0.1875 -0.515625 -0.546875 -0.890625q-0.375 -0.359375 -0.9375 -0.5625q-0.5625 -0.203125 -1.28125 -0.203125q-0.75 0 -1.375 0.25q-0.625 0.234375 -1.0625 0.671875q-0.4375 0.421875 -0.6875 0.984375q-0.234375 0.5625 -0.234375 1.1875l1.8125 0q0 -0.375 0.09375 -0.671875q0.109375 -0.3125 0.296875 -0.515625q0.1875 -0.1875 0.453125 -0.28125q0.28125 -0.109375 0.640625 -0.109375q0.28125 0 0.515625 0.09375q0.234375 0.09375 0.40625 0.25q0.15625 0.1875 0.25 0.4375q0.09375 0.234375 0.09375 0.5625q0 0.203125 -0.078125 0.4375q-0.0625 0.234375 -0.21875 0.484375q-0.15625 0.265625 -0.40625 0.59375q-0.234375 0.3125 -0.59375 0.703125l-3.0625 3.296875l0 1.234375l6.453125 0z" fill-rule="nonzero"/><path fill="#000000" fill-opacity="0.0" d="m257.2021 216.61417l218.29922 0l0 34.015762l-218.29922 0z" fill-rule="evenodd"/><path stroke="#000000" stroke-width="2.0" stroke-linejoin="round" stroke-linecap="butt" d="m257.2021 216.61417l218.29922 0l0 34.015762l-218.29922 0z" fill-rule="evenodd"/><path fill="#000000" d="m270.35834 233.56392l0 -2.484375l-1.078125 0l0 2.484375l-2.375 0l0 1.078125l2.375 0l0 2.640625l1.078125 0l0 -2.640625l2.390625 0l0 -1.078125l-2.390625 0zm13.964844 3.8125q-0.5 0 -0.84375 -0.203125q-0.34375 -0.203125 -0.546875 -0.53125q-0.21875 -0.3125 -0.3125 -0.71875q-0.09375 -0.40625 -0.09375 -0.828125l0 -0.25q0 -0.40625 0.09375 -0.8125q0.09375 -0.40625 0.3125 -0.734375q0.203125 -0.3125 0.546875 -0.515625q0.34375 -0.203125 0.84375 -0.203125q0.328125 0 0.609375 0.109375q0.296875 0.109375 0.5 0.296875q0.203125 0.203125 0.3125 0.453125q0.125 0.25 0.140625 0.546875l1.015625 0q0 -0.484375 -0.203125 -0.90625q-0.1875 -0.421875 -0.515625 -0.734375q-0.34375 -0.296875 -0.828125 -0.46875q-0.46875 -0.1875 -1.03125 -0.1875q-0.71875 0 -1.265625 0.265625q-0.53125 0.25 -0.890625 0.671875q-0.359375 0.453125 -0.546875 1.03125q-0.171875 0.5625 -0.171875 1.1875l0 0.25q0 0.625 0.171875 1.203125q0.1875 0.578125 0.546875 1.0q0.359375 0.4375 0.890625 0.703125q0.546875 0.265625 1.265625 0.265625q0.5 0 0.96875 -0.171875q0.46875 -0.1875 0.828125 -0.46875q0.34375 -0.296875 0.5625 -0.671875q0.21875 -0.390625 0.21875 -0.8125l-1.015625 0q-0.015625 0.265625 -0.15625 0.5q-0.125 0.21875 -0.34375 0.375q-0.203125 0.171875 -0.484375 0.265625q-0.28125 0.09375 -0.578125 0.09375zm4.669922 -8.234375l0 0.9375l2.15625 0l0 7.125l-2.15625 0l0 0.9375l5.3125 0l0 -0.9375l-2.0625 0l0 -8.0625l-3.25 0zm6.732422 5.765625l0 0.140625q0 0.671875 0.1875 1.265625q0.203125 0.578125 0.578125 1.015625q0.375 0.4375 0.90625 0.6875q0.546875 0.25 1.21875 0.25q0.65625 0 1.1875 -0.25q0.546875 -0.25 0.921875 -0.6875q0.359375 -0.4375 0.5625 -1.015625q0.203125 -0.59375 0.203125 -1.265625l0 -0.140625q0 -0.6875 -0.203125 -1.265625q-0.203125 -0.59375 -0.5625 -1.03125q-0.375 -0.421875 -0.921875 -0.671875q-0.53125 -0.25 -1.203125 -0.25q-0.671875 0 -1.203125 0.25q-0.53125 0.25 -0.90625 0.671875q-0.375 0.4375 -0.578125 1.03125q-0.1875 0.578125 -0.1875 1.265625zm1.078125 0.140625l0 -0.140625q0 -0.453125 0.109375 -0.875q0.109375 -0.4375 0.34375 -0.75q0.21875 -0.328125 0.546875 -0.515625q0.34375 -0.1875 0.796875 -0.1875q0.453125 0 0.78125 0.1875q0.34375 0.1875 0.578125 0.515625q0.21875 0.3125 0.328125 0.75q0.109375 0.421875 0.109375 0.875l0 0.140625q0 0.46875 -0.109375 0.890625q-0.109375 0.421875 -0.328125 0.75q-0.234375 0.3125 -0.578125 0.5q-0.328125 0.1875 -0.765625 0.1875q-0.453125 0 -0.796875 -0.1875q-0.34375 -0.1875 -0.5625 -0.5q-0.234375 -0.328125 -0.34375 -0.75q-0.109375 -0.421875 -0.109375 -0.890625zm6.419922 3.09375l1.09375 0l0 -4.546875q0.109375 -0.203125 0.25 -0.375q0.15625 -0.171875 0.328125 -0.296875q0.21875 -0.15625 0.46875 -0.234375q0.265625 -0.078125 0.5625 -0.078125q0.34375 0 0.609375 0.078125q0.265625 0.078125 0.453125 0.265625q0.1875 0.171875 0.28125 0.46875q0.09375 0.296875 0.09375 0.71875l0 4.0l1.078125 0l0 -4.03125q0 -0.625 -0.15625 -1.078125q-0.140625 -0.46875 -0.4375 -0.765625q-0.28125 -0.296875 -0.6875 -0.4375q-0.40625 -0.140625 -0.90625 -0.140625q-0.375 0 -0.703125 0.109375q-0.328125 0.09375 -0.609375 0.28125q-0.1875 0.125 -0.359375 0.296875q-0.171875 0.15625 -0.3125 0.359375l-0.0625 -0.9375l-0.984375 0l0 6.34375zm10.013672 0.125q0.921875 0 1.546875 -0.375q0.625 -0.375 0.953125 -0.859375l-0.671875 -0.515625q-0.296875 0.390625 -0.75 0.625q-0.453125 0.234375 -1.03125 0.234375q-0.4375 0 -0.796875 -0.15625q-0.359375 -0.171875 -0.625 -0.46875q-0.25 -0.265625 -0.390625 -0.609375q-0.140625 -0.359375 -0.1875 -0.8125l0 -0.046875l4.53125 0l0 -0.484375q0 -0.671875 -0.171875 -1.234375q-0.15625 -0.5625 -0.5 -0.984375q-0.34375 -0.421875 -0.859375 -0.65625q-0.515625 -0.234375 -1.1875 -0.234375q-0.546875 0 -1.078125 0.21875q-0.515625 0.21875 -0.921875 0.640625q-0.40625 0.421875 -0.65625 1.03125q-0.234375 0.59375 -0.234375 1.375l0 0.234375q0 0.671875 0.21875 1.234375q0.21875 0.5625 0.625 0.96875q0.390625 0.40625 0.953125 0.640625q0.5625 0.234375 1.234375 0.234375zm-0.140625 -5.6875q0.40625 0 0.703125 0.15625q0.3125 0.140625 0.515625 0.390625q0.1875 0.25 0.296875 0.59375q0.125 0.328125 0.125 0.625l0 0.046875l-3.421875 0q0.0625 -0.4375 0.21875 -0.765625q0.171875 -0.34375 0.40625 -0.578125q0.234375 -0.234375 0.53125 -0.34375q0.296875 -0.125 0.625 -0.125zm5.607422 2.09375l0 0.0625q0 0.84375 0.125 1.578125q0.140625 0.734375 0.359375 1.359375q0.21875 0.640625 0.5 1.15625q0.296875 0.515625 0.625 0.921875q0.3125 0.40625 0.640625 0.6875q0.328125 0.296875 0.609375 0.453125l0.234375 -0.65625q-0.234375 -0.1875 -0.484375 -0.46875q-0.234375 -0.265625 -0.453125 -0.625q-0.21875 -0.359375 -0.421875 -0.828125q-0.1875 -0.46875 -0.34375 -1.015625q-0.140625 -0.546875 -0.234375 -1.171875q-0.078125 -0.640625 -0.078125 -1.375l0 -0.078125q0 -0.765625 0.09375 -1.421875q0.09375 -0.671875 0.25 -1.21875q0.15625 -0.609375 0.40625 -1.125q0.25 -0.515625 0.515625 -0.890625q0.1875 -0.25 0.375 -0.4375q0.1875 -0.203125 0.375 -0.34375l-0.234375 -0.71875q-0.28125 0.15625 -0.609375 0.453125q-0.328125 0.28125 -0.640625 0.6875q-0.328125 0.40625 -0.625 0.9375q-0.28125 0.515625 -0.5 1.140625q-0.21875 0.625 -0.359375 1.375q-0.125 0.734375 -0.125 1.5625zm10.076172 0.0625l0 -0.0625q0 -0.890625 -0.140625 -1.609375q-0.125 -0.71875 -0.34375 -1.328125q-0.21875 -0.640625 -0.5 -1.140625q-0.28125 -0.515625 -0.609375 -0.9375q-0.328125 -0.40625 -0.65625 -0.6875q-0.328125 -0.296875 -0.609375 -0.453125l-0.234375 0.65625q0.1875 0.15625 0.390625 0.390625q0.21875 0.21875 0.40625 0.515625q0.25 0.390625 0.484375 0.90625q0.25 0.5 0.421875 1.15625q0.109375 0.4375 0.203125 1.09375q0.109375 0.640625 0.109375 1.4375l0 0.078125q0 0.6875 -0.078125 1.3125q-0.078125 0.609375 -0.203125 1.140625q-0.140625 0.5625 -0.34375 1.03125q-0.1875 0.484375 -0.40625 0.875q-0.234375 0.375 -0.484375 0.65625q-0.25 0.28125 -0.5 0.46875l0.234375 0.65625q0.28125 -0.15625 0.609375 -0.453125q0.328125 -0.28125 0.65625 -0.6875q0.3125 -0.40625 0.59375 -0.921875q0.296875 -0.515625 0.515625 -1.15625q0.234375 -0.625 0.359375 -1.359375q0.125 -0.734375 0.125 -1.578125zm12.636719 2.703125q0 0.34375 0.203125 0.578125q0.21875 0.234375 0.640625 0.234375q0.421875 0 0.640625 -0.234375q0.234375 -0.234375 0.234375 -0.578125q0 -0.359375 -0.234375 -0.59375q-0.21875 -0.25 -0.640625 -0.25q-0.421875 0 -0.640625 0.25q-0.203125 0.25 -0.203125 0.59375zm0 -5.140625q0 0.34375 0.203125 0.578125q0.21875 0.234375 0.640625 0.234375q0.421875 0 0.640625 -0.234375q0.234375 -0.234375 0.234375 -0.578125q0 -0.359375 -0.234375 -0.59375q-0.21875 -0.25 -0.640625 -0.25q-0.421875 0 -0.640625 0.25q-0.203125 0.25 -0.203125 0.59375zm13.402344 2.421875l1.6875 0q0.5625 0 1.078125 -0.171875q0.515625 -0.171875 0.90625 -0.5q0.390625 -0.3125 0.609375 -0.78125q0.21875 -0.484375 0.21875 -1.09375q0 -0.625 -0.21875 -1.09375q-0.21875 -0.46875 -0.609375 -0.796875q-0.390625 -0.328125 -0.90625 -0.484375q-0.515625 -0.171875 -1.078125 -0.1875l-2.765625 0l0 8.53125l1.078125 0l0 -3.421875zm0 -0.890625l0 -3.328125l1.6875 0q0.375 0 0.6875 0.125q0.328125 0.109375 0.5625 0.328125q0.21875 0.21875 0.34375 0.53125q0.140625 0.3125 0.140625 0.703125q0 0.375 -0.140625 0.6875q-0.125 0.296875 -0.359375 0.5q-0.234375 0.21875 -0.546875 0.34375q-0.3125 0.109375 -0.6875 0.109375l-1.6875 0zm10.169922 -2.140625q-0.6875 0 -1.234375 0.296875q-0.53125 0.296875 -0.921875 0.828125l-0.015625 -0.15625l-0.046875 -0.859375l-1.03125 0l0 6.34375l1.09375 0l0 -4.0625q0.109375 -0.296875 0.265625 -0.53125q0.171875 -0.234375 0.375 -0.40625q0.25 -0.1875 0.5625 -0.28125q0.328125 -0.09375 0.734375 -0.09375q0.296875 0 0.578125 0.03125q0.296875 0.03125 0.609375 0.09375l0.140625 -1.0625q-0.15625 -0.0625 -0.484375 -0.09375q-0.328125 -0.046875 -0.625 -0.046875zm2.7480469 3.21875l0 0.140625q0 0.671875 0.1875 1.265625q0.203125 0.578125 0.578125 1.015625q0.375 0.4375 0.90625 0.6875q0.546875 0.25 1.21875 0.25q0.65625 0 1.1875 -0.25q0.546875 -0.25 0.921875 -0.6875q0.359375 -0.4375 0.5625 -1.015625q0.203125 -0.59375 0.203125 -1.265625l0 -0.140625q0 -0.6875 -0.203125 -1.265625q-0.203125 -0.59375 -0.5625 -1.03125q-0.375 -0.421875 -0.921875 -0.671875q-0.53125 -0.25 -1.203125 -0.25q-0.671875 0 -1.203125 0.25q-0.53125 0.25 -0.90625 0.671875q-0.375 0.4375 -0.578125 1.03125q-0.1875 0.578125 -0.1875 1.265625zm1.078125 0.140625l0 -0.140625q0 -0.453125 0.109375 -0.875q0.109375 -0.4375 0.34375 -0.75q0.21875 -0.328125 0.546875 -0.515625q0.34375 -0.1875 0.796875 -0.1875q0.453125 0 0.78125 0.1875q0.34375 0.1875 0.578125 0.515625q0.21875 0.3125 0.328125 0.75q0.109375 0.421875 0.109375 0.875l0 0.140625q0 0.46875 -0.109375 0.890625q-0.109375 0.421875 -0.328125 0.75q-0.234375 0.3125 -0.578125 0.5q-0.328125 0.1875 -0.765625 0.1875q-0.453125 0 -0.796875 -0.1875q-0.34375 -0.1875 -0.5625 -0.5q-0.234375 -0.328125 -0.34375 -0.75q-0.109375 -0.421875 -0.109375 -0.890625zm8.998047 -4.78125l-1.09375 0l0 1.53125l-1.671875 0l0 0.84375l1.671875 0l0 3.4375q0 0.59375 0.15625 1.015625q0.15625 0.40625 0.421875 0.65625q0.265625 0.265625 0.625 0.390625q0.375 0.125 0.796875 0.125q0.25 0 0.5 -0.03125q0.265625 -0.015625 0.484375 -0.0625q0.234375 -0.046875 0.421875 -0.109375q0.203125 -0.0625 0.328125 -0.140625l-0.140625 -0.765625q-0.109375 0.015625 -0.265625 0.046875q-0.15625 0.03125 -0.328125 0.0625q-0.171875 0.03125 -0.359375 0.0625q-0.1875 0.015625 -0.375 0.015625q-0.234375 0 -0.453125 -0.0625q-0.203125 -0.0625 -0.375 -0.203125q-0.15625 -0.140625 -0.25 -0.375q-0.09375 -0.25 -0.09375 -0.625l0 -3.4375l2.40625 0l0 -0.84375l-2.40625 0l0 -1.53125zm4.326172 4.640625l0 0.140625q0 0.671875 0.1875 1.265625q0.203125 0.578125 0.578125 1.015625q0.375 0.4375 0.90625 0.6875q0.546875 0.25 1.21875 0.25q0.65625 0 1.1875 -0.25q0.546875 -0.25 0.921875 -0.6875q0.359375 -0.4375 0.5625 -1.015625q0.203125 -0.59375 0.203125 -1.265625l0 -0.140625q0 -0.6875 -0.203125 -1.265625q-0.203125 -0.59375 -0.5625 -1.03125q-0.375 -0.421875 -0.921875 -0.671875q-0.53125 -0.25 -1.203125 -0.25q-0.671875 0 -1.203125 0.25q-0.53125 0.25 -0.90625 0.671875q-0.375 0.4375 -0.578125 1.03125q-0.1875 0.578125 -0.1875 1.265625zm1.078125 0.140625l0 -0.140625q0 -0.453125 0.109375 -0.875q0.109375 -0.4375 0.34375 -0.75q0.21875 -0.328125 0.546875 -0.515625q0.34375 -0.1875 0.796875 -0.1875q0.453125 0 0.78125 0.1875q0.34375 0.1875 0.578125 0.515625q0.21875 0.3125 0.328125 0.75q0.109375 0.421875 0.109375 0.875l0 0.140625q0 0.46875 -0.109375 0.890625q-0.109375 0.421875 -0.328125 0.75q-0.234375 0.3125 -0.578125 0.5q-0.328125 0.1875 -0.765625 0.1875q-0.453125 0 -0.796875 -0.1875q-0.34375 -0.1875 -0.5625 -0.5q-0.234375 -0.328125 -0.34375 -0.75q-0.109375 -0.421875 -0.109375 -0.890625zm8.998047 -4.78125l-1.09375 0l0 1.53125l-1.671875 0l0 0.84375l1.671875 0l0 3.4375q0 0.59375 0.15625 1.015625q0.15625 0.40625 0.421875 0.65625q0.265625 0.265625 0.625 0.390625q0.375 0.125 0.796875 0.125q0.25 0 0.5 -0.03125q0.265625 -0.015625 0.484375 -0.0625q0.234375 -0.046875 0.421875 -0.109375q0.203125 -0.0625 0.328125 -0.140625l-0.140625 -0.765625q-0.109375 0.015625 -0.265625 0.046875q-0.15625 0.03125 -0.328125 0.0625q-0.171875 0.03125 -0.359375 0.0625q-0.1875 0.015625 -0.375 0.015625q-0.234375 0 -0.453125 -0.0625q-0.203125 -0.0625 -0.375 -0.203125q-0.15625 -0.140625 -0.25 -0.375q-0.09375 -0.25 -0.09375 -0.625l0 -3.4375l2.40625 0l0 -0.84375l-2.40625 0l0 -1.53125zm5.138672 10.4375q0.421875 0 0.75 -0.15625q0.328125 -0.15625 0.578125 -0.390625q0.25 -0.234375 0.421875 -0.515625q0.171875 -0.28125 0.28125 -0.515625l3.21875 -7.328125l-1.21875 0l-1.625 4.109375l-0.296875 0.75l-0.28125 -0.765625l-1.75 -4.09375l-1.203125 0l2.71875 6.046875l-0.421875 0.84375q-0.0625 0.109375 -0.171875 0.296875q-0.09375 0.1875 -0.234375 0.359375q-0.15625 0.15625 -0.34375 0.28125q-0.171875 0.125 -0.40625 0.125q-0.078125 0 -0.21875 -0.015625q-0.140625 0 -0.296875 -0.015625l-0.171875 0.890625q0.109375 0.015625 0.3125 0.046875q0.203125 0.046875 0.359375 0.046875zm6.685547 -0.125l1.078125 0l0 -3.046875q0.125 0.125 0.25 0.234375q0.140625 0.109375 0.296875 0.203125q0.25 0.140625 0.5625 0.21875q0.3125 0.078125 0.671875 0.078125q0.609375 0 1.0625 -0.25q0.46875 -0.25 0.78125 -0.6875q0.328125 -0.4375 0.484375 -1.015625q0.171875 -0.59375 0.171875 -1.265625l0 -0.125q0 -0.71875 -0.171875 -1.3125q-0.15625 -0.59375 -0.484375 -1.015625q-0.3125 -0.4375 -0.78125 -0.671875q-0.46875 -0.234375 -1.078125 -0.234375q-0.34375 0 -0.65625 0.078125q-0.296875 0.0625 -0.53125 0.203125q-0.1875 0.09375 -0.34375 0.234375q-0.140625 0.125 -0.265625 0.28125l-0.0625 -0.6875l-0.984375 0l0 8.78125zm4.265625 -5.65625l0 0.125q0 0.453125 -0.109375 0.875q-0.09375 0.421875 -0.296875 0.75q-0.21875 0.3125 -0.546875 0.515625q-0.328125 0.1875 -0.78125 0.1875q-0.28125 0 -0.515625 -0.0625q-0.21875 -0.078125 -0.40625 -0.203125q-0.171875 -0.109375 -0.296875 -0.25q-0.125 -0.15625 -0.234375 -0.34375l0 -3.046875q0.109375 -0.203125 0.25 -0.359375q0.15625 -0.171875 0.34375 -0.28125q0.171875 -0.109375 0.375 -0.15625q0.21875 -0.0625 0.484375 -0.0625q0.453125 0 0.78125 0.1875q0.328125 0.1875 0.546875 0.5q0.203125 0.3125 0.296875 0.734375q0.109375 0.421875 0.109375 0.890625zm5.748047 3.34375q0.921875 0 1.546875 -0.375q0.625 -0.375 0.953125 -0.859375l-0.671875 -0.515625q-0.296875 0.390625 -0.75 0.625q-0.453125 0.234375 -1.03125 0.234375q-0.4375 0 -0.796875 -0.15625q-0.359375 -0.171875 -0.625 -0.46875q-0.25 -0.265625 -0.390625 -0.609375q-0.140625 -0.359375 -0.1875 -0.8125l0 -0.046875l4.53125 0l0 -0.484375q0 -0.671875 -0.171875 -1.234375q-0.15625 -0.5625 -0.5 -0.984375q-0.34375 -0.421875 -0.859375 -0.65625q-0.515625 -0.234375 -1.1875 -0.234375q-0.546875 0 -1.078125 0.21875q-0.515625 0.21875 -0.921875 0.640625q-0.40625 0.421875 -0.65625 1.03125q-0.234375 0.59375 -0.234375 1.375l0 0.234375q0 0.671875 0.21875 1.234375q0.21875 0.5625 0.625 0.96875q0.390625 0.40625 0.953125 0.640625q0.5625 0.234375 1.234375 0.234375zm-0.140625 -5.6875q0.40625 0 0.703125 0.15625q0.3125 0.140625 0.515625 0.390625q0.1875 0.25 0.296875 0.59375q0.125 0.328125 0.125 0.625l0 0.046875l-3.421875 0q0.0625 -0.4375 0.21875 -0.765625q0.171875 -0.34375 0.40625 -0.578125q0.234375 -0.234375 0.53125 -0.34375q0.296875 -0.125 0.625 -0.125z" fill-rule="nonzero"/><path fill="#000000" fill-opacity="0.0" d="m257.2021 182.59842l218.29922 0l0 34.015747l-218.29922 0z" fill-rule="evenodd"/><path stroke="#000000" stroke-width="2.0" stroke-linejoin="round" stroke-linecap="butt" d="m257.2021 182.59842l218.29922 0l0 34.015747l-218.29922 0z" fill-rule="evenodd"/><path fill="#000000" d="m267.49896 204.4063l0 -1.609375l1.609375 0l0 1.609375l-1.609375 0zm4.217102 0l0 -1.609375l1.609375 0l0 1.609375l-1.609375 0zm4.217102 0l0 -1.609375l1.609375 0l0 1.609375l-1.609375 0z" fill-rule="nonzero"/><path fill="#000000" fill-opacity="0.0" d="m261.55905 114.33071l0.1574707 -29.259842" fill-rule="evenodd"/><path stroke="#000000" stroke-width="2.0" stroke-linejoin="round" stroke-linecap="butt" d="m261.55905 114.33071l0.09289551 -17.260017" fill-rule="evenodd"/><path stroke="#000000" stroke-width="2.0" stroke-linecap="butt" d="m264.95535 97.08847l-3.254547 -9.093842l-3.3522644 9.058281z" fill-rule="evenodd"/><path fill="#000000" fill-opacity="0.0" d="m75.44882 114.71654l323.0551 -0.88188934" fill-rule="evenodd"/><path stroke="#000000" stroke-width="2.0" stroke-linejoin="round" stroke-linecap="butt" d="m75.44882 114.71654l323.0551 -0.88188934" fill-rule="evenodd"/><path fill="#000000" fill-opacity="0.0" d="m75.00787 114.32809l-0.12598419 30.01574" fill-rule="evenodd"/><path stroke="#000000" stroke-width="2.0" stroke-linejoin="round" stroke-linecap="butt" d="m75.00787 114.32809l-0.12598419 30.01574" fill-rule="evenodd"/><path fill="#000000" fill-opacity="0.0" d="m398.6299 114.32809l-0.12597656 30.01574" fill-rule="evenodd"/><path stroke="#000000" stroke-width="2.0" stroke-linejoin="round" stroke-linecap="butt" d="m398.6299 114.32809l-0.12597656 30.01574" fill-rule="evenodd"/><path fill="#000000" fill-opacity="0.0" d="m2.9737532 17.03937l118.519684 0l0 34.015747l-118.519684 0z" fill-rule="evenodd"/><path stroke="#000000" stroke-width="3.0" stroke-linejoin="round" stroke-linecap="butt" d="m2.9737532 17.03937l118.519684 0l0 34.015747l-118.519684 0z" fill-rule="evenodd"/><path fill="#000000" d="m45.676544 35.878494l-1.828125 0q-0.03125 0.4375 -0.15625 0.75q-0.109375 0.296875 -0.3125 0.484375q-0.203125 0.203125 -0.5 0.296875q-0.28125 0.078125 -0.625 0.078125q-0.28125 0 -0.5 -0.0625q-0.203125 -0.0625 -0.390625 -0.1875q-0.15625 -0.109375 -0.28125 -0.28125q-0.125 -0.1875 -0.21875 -0.40625q-0.125 -0.34375 -0.1875 -0.78125q-0.0625 -0.453125 -0.0625 -1.015625l0 -1.28125q0 -0.421875 0.03125 -0.78125q0.046875 -0.359375 0.125 -0.65625q0.109375 -0.3906269 0.296875 -0.6718769q0.1875 -0.296875 0.453125 -0.453125q0.15625 -0.09375 0.34375 -0.140625q0.1875 -0.046875 0.390625 -0.046875q0.40625 0 0.6875 0.109375q0.296875 0.109375 0.5 0.3125q0.1875 0.21875 0.28125 0.546875q0.109375 0.3125019 0.125 0.7343769l1.828125 0q-0.0625 -0.7500019 -0.3125 -1.3281269q-0.25 -0.59375 -0.671875 -1.015625q-0.4375 -0.40625 -1.046875 -0.625q-0.609375 -0.21875 -1.390625 -0.21875q-0.515625 0 -0.984375 0.140625q-0.453125 0.125 -0.84375 0.375q-0.421875 0.28125 -0.765625 0.71875q-0.328125 0.421875 -0.546875 0.953125q-0.171875 0.453125 -0.265625 0.9687519q-0.09375 0.515625 -0.09375 1.078125l0 1.28125q0 0.609375 0.09375 1.15625q0.109375 0.546875 0.296875 1.0q0.1875 0.453125 0.46875 0.84375q0.296875 0.375 0.65625 0.640625q0.390625 0.28125 0.890625 0.4375q0.5 0.15625 1.09375 0.15625q0.734375 0 1.34375 -0.21875q0.609375 -0.21875 1.0625 -0.625q0.4375 -0.40625 0.703125 -0.96875q0.265625 -0.578125 0.3125 -1.296875zm1.8575592 -7.031252l0 1.484375l2.109375 0l0 7.046877l-2.109375 0l0 1.46875l5.953125 0l0 -1.46875l-2.015625 0l0 -8.531252l-3.9375 0zm8.107559 2.953125l0 1.4843769l2.0 0l0 4.09375l-2.0 0l0 1.46875l5.734375 0l0 -1.46875l-1.90625 0l0 -5.578127l-3.828125 0zm1.875 -1.796875q0 0.203125 0.0625 0.390625q0.078125 0.171875 0.21875 0.296875q0.140625 0.125 0.328125 0.203125q0.1875 0.078125 0.421875 0.078125q0.484375 0 0.765625 -0.265625q0.28125 -0.28125 0.28125 -0.703125q0 -0.421875 -0.28125 -0.6875q-0.28125 -0.28125 -0.765625 -0.28125q-0.234375 0 -0.421875 0.078125q-0.1875 0.0625 -0.328125 0.1875q-0.140625 0.140625 -0.21875 0.328125q-0.0625 0.171875 -0.0625 0.375zm9.045059 8.968752q1.03125 0 1.78125 -0.390625q0.75 -0.390625 1.09375 -0.890625l-0.90625 -0.96875q-0.3125 0.40625 -0.8125 0.609375q-0.5 0.1875 -1.046875 0.1875q-0.375 0 -0.703125 -0.109375q-0.3125 -0.125 -0.546875 -0.328125q-0.25 -0.21875 -0.390625 -0.46875q-0.140625 -0.265625 -0.234375 -0.6875l0 -0.015625l4.78125 0l0 -0.765625q0 -0.78125 -0.21875 -1.421875q-0.21875 -0.640625 -0.625 -1.09375q-0.421875 -0.453125 -1.015625 -0.7031269q-0.59375 -0.25 -1.359375 -0.25q-0.734375 0 -1.359375 0.265625q-0.625 0.2656269 -1.078125 0.7500019q-0.453125 0.484375 -0.703125 1.15625q-0.25 0.65625 -0.25 1.46875l0 0.25q0 0.71875 0.25 1.34375q0.265625 0.609375 0.734375 1.078125q0.46875 0.453125 1.125 0.71875q0.671875 0.265625 1.484375 0.265625zm-0.203125 -5.828125q0.34375 0 0.59375 0.109375q0.265625 0.09375 0.453125 0.28125q0.1875 0.1875 0.28125 0.453125q0.109375 0.25 0.109375 0.53125l0 0.140625l-2.96875 0q0.0625 -0.34375 0.1875 -0.625q0.140625 -0.28125 0.34375 -0.484375q0.1875 -0.203125 0.4375 -0.296875q0.25 -0.109375 0.5625 -0.109375zm4.795059 5.703125l1.8125 0l0 -5.0q0.09375 -0.140625 0.203125 -0.25q0.109375 -0.125 0.25 -0.21875q0.15625 -0.109375 0.375 -0.171875q0.21875 -0.0625 0.484375 -0.0625q0.3125 0 0.5625 0.0625q0.25 0.0625 0.421875 0.21875q0.171875 0.15625 0.265625 0.4375q0.09375 0.265625 0.09375 0.671875l0 4.3125l1.8125 0l0 -4.328125q0 -0.78125 -0.1875 -1.3125q-0.171875 -0.53125 -0.484375 -0.875q-0.328125 -0.3437519 -0.78125 -0.5000019q-0.4375 -0.15625 -0.96875 -0.15625q-0.421875 0 -0.796875 0.125q-0.359375 0.109375 -0.671875 0.3281269q-0.1875 0.125 -0.34375 0.296875q-0.15625 0.15625 -0.296875 0.359375l-0.109375 -0.9843769l-1.640625 0l0 7.046877zm11.310684 -8.765627l-1.8125 0l0 1.71875l-1.609375 0l0 1.3437519l1.609375 0l0 3.203125q0 0.6875 0.1875 1.1875q0.1875 0.5 0.515625 0.8125q0.34375 0.328125 0.8125 0.484375q0.46875 0.15625 1.046875 0.15625q0.296875 0 0.609375 -0.03125q0.3125 -0.03125 0.59375 -0.078125q0.28125 -0.0625 0.53125 -0.140625q0.265625 -0.078125 0.453125 -0.1875l-0.171875 -1.25q-0.125 0.03125 -0.296875 0.078125q-0.171875 0.03125 -0.375 0.046875q-0.203125 0.03125 -0.421875 0.0625q-0.21875 0.015625 -0.421875 0.015625q-0.28125 0 -0.515625 -0.0625q-0.234375 -0.078125 -0.390625 -0.234375q-0.171875 -0.140625 -0.265625 -0.390625q-0.078125 -0.265625 -0.078125 -0.65625l0 -3.015625l2.625 0l0 -1.3437519l-2.625 0l0 -1.71875z" fill-rule="nonzero"/><path fill="#000000" fill-opacity="0.0" d="m148.7769 5.8267717l22.960632 0l0 28.220474l-22.960632 0z" fill-rule="evenodd"/><path fill="#000000" d="m161.74565 25.06677l-0.9375 0l0 -5.96875q-0.34375 0.328125 -0.890625 0.65625q-0.546875 0.3125 -0.984375 0.46875l0 -0.90625q0.796875 -0.359375 1.375 -0.890625q0.59375 -0.53125 0.828125 -1.015625l0.609375 0l0 7.65625z" fill-rule="nonzero"/><path fill="#000000" fill-opacity="0.0" d="m121.49344 5.8267717l20.283463 0l0 28.220474l-20.283463 0z" fill-rule="evenodd"/><path fill="#000000" d="m134.46219 25.06677l-0.9375 0l0 -5.96875q-0.34375 0.328125 -0.890625 0.65625q-0.546875 0.3125 -0.984375 0.46875l0 -0.90625q0.796875 -0.359375 1.375 -0.890625q0.59375 -0.53125 0.828125 -1.015625l0.609375 0l0 7.65625z" fill-rule="nonzero"/></g></svg>