<svg version="1.1" viewBox="0.0 0.0 487.0 264.0" fill="none" stroke="none" stroke-linecap="square" stroke-miterlimit="10" xmlns:xlink="http://www.w3.org/1999/xlink" xmlns="http://www.w3.org/2000/svg"><clipPath id="p.0"><path d="m0 0l487.0 0l0 264.0l-487.0 0l0 -264.0z" clip-rule="nonzero"/></clipPath><g clip-path="url(#p.0)"><path fill="#000000" fill-opacity="0.0" d="m0 0l487.0 0l0 264.0l-487.0 0z" fill-rule="evenodd"/><path fill="#000000" fill-opacity="0.0" d="m176.24672 38.047245l-50.267715 0" fill-rule="evenodd"/><path stroke="#000000" stroke-width="2.0" stroke-linejoin="round" stroke-linecap="butt" d="m169.39255 38.047245l-32.156998 0" fill-rule="evenodd"/><path fill="#000000" stroke="#000000" stroke-width="2.0" stroke-linecap="butt" d="m169.39255 38.047245l-2.249176 2.2491646l6.17955 -2.2491646l-6.17955 -2.2491684z" fill-rule="evenodd"/><path fill="#000000" stroke="#000000" stroke-width="2.0" stroke-linecap="butt" d="m137.23555 38.047245l-4.756546 -3.330574l-4.7565536 3.330574l4.7565536 3.330574z" fill-rule="evenodd"/><path fill="#000000" fill-opacity="0.0" d="m7.4724407 147.48032l218.29921 0l0 39.118103l-218.29921 0z" fill-rule="evenodd"/><path stroke="#000000" stroke-width="3.0" stroke-linejoin="round" stroke-linecap="butt" d="m7.4724407 147.48032l218.29921 0l0 39.118103l-218.29921 0z" fill-rule="evenodd"/><path fill="#000000" d="m53.77195 171.55812q-0.34375 0.109375 -0.390625 0.125q-1.40625 0.390625 -3.046875 0.390625q-0.765625 0 -1.421875 -0.125q-0.65625 -0.109375 -1.234375 -0.34375q-0.578125 -0.234375 -1.0 -0.578125q-0.421875 -0.328125 -0.734375 -0.75q-0.3125 -0.421875 -0.546875 -0.96875q-0.234375 -0.546875 -0.34375 -1.109375q-0.109375 -0.5625 -0.109375 -1.1875q0 -0.75 0.15625 -1.453125q0.171875 -0.703125 0.5 -1.28125q0.328125 -0.59375 0.796875 -1.03125q0.453125 -0.453125 1.03125 -0.734375q0.578125 -0.28125 1.296875 -0.40625q0.71875 -0.140625 1.59375 -0.140625q0.90625 0 1.828125 0.09375q0.921875 0.09375 1.46875 0.234375l0 1.84375q-0.1875 -0.078125 -0.28125 -0.09375q-0.09375 -0.03125 -0.1875 -0.0625q-1.328125 -0.421875 -2.390625 -0.421875q-1.390625 0 -2.15625 0.71875q-0.4375 0.4375 -0.6875 1.140625q-0.234375 0.6875 -0.234375 1.546875q0 1.09375 0.375 1.875q0.390625 0.765625 1.125 1.171875q0.75 0.390625 1.8125 0.390625q0.453125 0 1.078125 -0.09375q0.5 -0.09375 0.828125 -0.171875q0.328125 -0.09375 0.875 -0.34375l0 1.765625zm8.880341 -3.328125q0 0.875 -0.28125 1.578125q-0.265625 0.6875 -0.796875 1.1875q-0.515625 0.5 -1.25 0.75q-0.734375 0.25 -1.640625 0.25q-0.9375 0 -1.6875 -0.25q-0.75 -0.25 -1.296875 -0.734375q-0.53125 -0.5 -0.8125 -1.203125q-0.265625 -0.71875 -0.265625 -1.59375q0 -0.859375 0.265625 -1.5625q0.28125 -0.71875 0.796875 -1.203125q0.53125 -0.484375 1.265625 -0.734375q0.734375 -0.265625 1.671875 -0.265625q0.953125 0 1.6875 0.265625q0.75 0.25 1.265625 0.734375q0.53125 0.484375 0.796875 1.1875q0.28125 0.6875 0.28125 1.59375zm-2.734375 -0.015625q0 -1.046875 -0.359375 -1.671875q-0.359375 -0.640625 -0.9375 -0.640625q-0.375 0 -0.65625 0.296875q-0.28125 0.28125 -0.453125 0.828125q-0.15625 0.53125 -0.15625 1.203125q0 0.65625 0.15625 1.203125q0.15625 0.53125 0.4375 0.828125q0.296875 0.296875 0.671875 0.296875q0.578125 0 0.9375 -0.640625q0.359375 -0.65625 0.359375 -1.703125zm11.400131 3.625l-2.5625 0l0 -4.484375q0 -0.53125 -0.15625 -0.75q-0.140625 -0.234375 -0.46875 -0.234375q-0.34375 0 -0.65625 0.265625q-0.3125 0.25 -0.65625 0.796875l0 4.40625l-2.5625 0l0 -7.21875l2.5625 0l0 1.359375l0.03125 0q0.34375 -0.734375 0.953125 -1.125q0.625 -0.40625 1.40625 -0.40625q0.875 0 1.46875 0.53125q0.359375 0.328125 0.5 0.75q0.140625 0.40625 0.140625 1.078125l0 5.03125zm7.89093 -0.09375q-1.234375 0.25 -2.359375 0.25q-0.515625 0 -0.953125 -0.046875q-0.421875 -0.046875 -0.78125 -0.15625q-0.359375 -0.125 -0.640625 -0.28125q-0.265625 -0.171875 -0.546875 -0.4375q-0.53125 -0.5 -0.8125 -1.234375q-0.265625 -0.734375 -0.265625 -1.578125q0 -1.140625 0.484375 -2.015625q0.5 -0.875 1.421875 -1.328125q0.9375 -0.46875 2.171875 -0.46875q0.96875 0 2.234375 0.328125l0 1.703125q-1.21875 -0.484375 -1.890625 -0.484375q-0.5 0 -0.890625 0.28125q-0.390625 0.265625 -0.59375 0.765625q-0.203125 0.484375 -0.203125 1.140625q0 0.984375 0.515625 1.609375q0.53125 0.625 1.375 0.625q0.71875 0 1.734375 -0.328125l0 1.65625zm6.8408813 -5.015625q-0.296875 -0.125 -0.484375 -0.15625q-0.171875 -0.03125 -0.5 -0.03125q-0.5625 0 -0.953125 0.21875q-0.390625 0.203125 -0.71875 0.671875l0 4.40625l-2.5625 0l0 -7.21875l2.5625 0l0 1.359375l0.03125 0q0.109375 -0.34375 0.40625 -0.671875q0.3125 -0.328125 0.75 -0.578125q0.5 -0.28125 1.15625 -0.28125q0.1875 0 0.3125 0.046875l0 2.234375zm7.8984375 4.875q-0.234375 0.0625 -0.4375 0.109375q-1.296875 0.296875 -2.515625 0.296875q-0.890625 0 -1.65625 -0.21875q-0.75 -0.234375 -1.234375 -0.625q-0.609375 -0.515625 -0.984375 -1.34375q-0.359375 -0.84375 -0.359375 -1.703125q0 -0.8125 0.265625 -1.5q0.28125 -0.6875 0.78125 -1.171875q0.5 -0.484375 1.203125 -0.734375q0.71875 -0.265625 1.578125 -0.265625q0.828125 0 1.40625 0.203125q0.578125 0.203125 1.0 0.625q0.5625 0.59375 0.75 1.328125q0.09375 0.359375 0.125 0.640625q0.046875 0.265625 0.0625 0.640625q0.015625 0.359375 0.015625 0.90625l-4.53125 0q0.03125 0.3125 0.078125 0.515625q0.046875 0.1875 0.171875 0.375q0.234375 0.359375 0.640625 0.515625q0.421875 0.15625 1.15625 0.15625q0.671875 0 1.109375 -0.078125q0.4375 -0.078125 1.375 -0.375l0 1.703125zm-2.421875 -4.09375l0 -0.109375q0 -0.8125 -0.234375 -1.171875q-0.21875 -0.375 -0.71875 -0.375q-0.359375 0 -0.625 0.203125q-0.25 0.1875 -0.390625 0.5625q-0.140625 0.359375 -0.171875 0.890625l2.140625 0zm8.367905 4.265625q-0.46875 0.140625 -0.75 0.171875q-0.265625 0.046875 -0.6875 0.046875q-1.109375 0 -1.78125 -0.40625q-0.5 -0.3125 -0.6875 -0.765625q-0.171875 -0.46875 -0.171875 -1.40625l0 -3.359375l-0.71875 0l0 -1.4375l0.71875 0l0 -1.140625l2.578125 -0.3125l0 1.453125l1.359375 0l0 1.4375l-1.359375 0l0 3.09375q0 0.46875 0.03125 0.65625q0.046875 0.1875 0.203125 0.359375q0.234375 0.234375 0.703125 0.234375q0.234375 0 0.5625 -0.109375l0 1.484375zm8.045914 -0.171875q-0.234375 0.0625 -0.4375 0.109375q-1.296875 0.296875 -2.515625 0.296875q-0.890625 0 -1.65625 -0.21875q-0.75 -0.234375 -1.234375 -0.625q-0.609375 -0.515625 -0.984375 -1.34375q-0.359375 -0.84375 -0.359375 -1.703125q0 -0.8125 0.265625 -1.5q0.28125 -0.6875 0.78125 -1.171875q0.5 -0.484375 1.203125 -0.734375q0.71875 -0.265625 1.578125 -0.265625q0.828125 0 1.40625 0.203125q0.578125 0.203125 1.0 0.625q0.5625 0.59375 0.75 1.328125q0.09375 0.359375 0.125 0.640625q0.046875 0.265625 0.0625 0.640625q0.015625 0.359375 0.015625 0.90625l-4.53125 0q0.03125 0.3125 0.078125 0.515625q0.046875 0.1875 0.171875 0.375q0.234375 0.359375 0.640625 0.515625q0.421875 0.15625 1.15625 0.15625q0.671875 0 1.109375 -0.078125q0.4375 -0.078125 1.375 -0.375l0 1.703125zm-2.421875 -4.09375l0 -0.109375q0 -0.8125 -0.234375 -1.171875q-0.21875 -0.375 -0.71875 -0.375q-0.359375 0 -0.625 0.203125q-0.25 0.1875 -0.390625 0.5625q-0.140625 0.359375 -0.171875 0.890625l2.140625 0zm11.32103 -2.71875q0 0.78125 -0.25 1.390625q-0.234375 0.609375 -0.71875 1.046875q-0.484375 0.4375 -1.1875 0.65625q-0.703125 0.21875 -1.578125 0.21875l-1.03125 0l0 3.734375l-2.40625 0l0 -9.640625l3.9375 0q0.703125 0 1.125 0.0625q0.421875 0.046875 0.71875 0.171875q0.3125 0.125 0.59375 0.328125q0.796875 0.640625 0.796875 2.03125zm-2.59375 0.21875q0 -1.203125 -1.5 -1.203125l-0.671875 0l0 2.84375l0.3125 0q0.875 0 1.359375 -0.421875q0.5 -0.4375 0.5 -1.21875zm9.400223 1.71875q-0.296875 -0.125 -0.484375 -0.15625q-0.171875 -0.03125 -0.5 -0.03125q-0.5625 0 -0.953125 0.21875q-0.390625 0.203125 -0.71875 0.671875l0 4.40625l-2.5625 0l0 -7.21875l2.5625 0l0 1.359375l0.03125 0q0.109375 -0.34375 0.40625 -0.671875q0.3125 -0.328125 0.75 -0.578125q0.5 -0.28125 1.15625 -0.28125q0.1875 0 0.3125 0.046875l0 2.234375zm8.83593 1.5q0 0.875 -0.28125 1.578125q-0.265625 0.6875 -0.796875 1.1875q-0.515625 0.5 -1.25 0.75q-0.734375 0.25 -1.640625 0.25q-0.9374924 0 -1.6874924 -0.25q-0.75 -0.25 -1.296875 -0.734375q-0.53125 -0.5 -0.8125 -1.203125q-0.265625 -0.71875 -0.265625 -1.59375q0 -0.859375 0.265625 -1.5625q0.28125 -0.71875 0.796875 -1.203125q0.53125 -0.484375 1.265625 -0.734375q0.734375 -0.265625 1.6718674 -0.265625q0.953125 0 1.6875 0.265625q0.75 0.25 1.265625 0.734375q0.53125 0.484375 0.796875 1.1875q0.28125 0.6875 0.28125 1.59375zm-2.734375 -0.015625q0 -1.046875 -0.359375 -1.671875q-0.359375 -0.640625 -0.9375 -0.640625q-0.375 0 -0.6562424 0.296875q-0.28125 0.28125 -0.453125 0.828125q-0.15625 0.53125 -0.15625 1.203125q0 0.65625 0.15625 1.203125q0.15625 0.53125 0.4375 0.828125q0.29686737 0.296875 0.6718674 0.296875q0.578125 0 0.9375 -0.640625q0.359375 -0.65625 0.359375 -1.703125zm8.556381 3.5625q-0.46875 0.140625 -0.75 0.171875q-0.265625 0.046875 -0.6875 0.046875q-1.109375 0 -1.78125 -0.40625q-0.5 -0.3125 -0.6875 -0.765625q-0.171875 -0.46875 -0.171875 -1.40625l0 -3.359375l-0.71875 0l0 -1.4375l0.71875 0l0 -1.140625l2.578125 -0.3125l0 1.453125l1.359375 0l0 1.4375l-1.359375 0l0 3.09375q0 0.46875 0.03125 0.65625q0.046875 0.1875 0.203125 0.359375q0.234375 0.234375 0.703125 0.234375q0.234375 0 0.5625 -0.109375l0 1.484375zm8.983429 -3.546875q0 0.875 -0.28125 1.578125q-0.265625 0.6875 -0.796875 1.1875q-0.515625 0.5 -1.25 0.75q-0.734375 0.25 -1.640625 0.25q-0.9375 0 -1.6875 -0.25q-0.75 -0.25 -1.296875 -0.734375q-0.53125 -0.5 -0.8125 -1.203125q-0.265625 -0.71875 -0.265625 -1.59375q0 -0.859375 0.265625 -1.5625q0.28125 -0.71875 0.796875 -1.203125q0.53125 -0.484375 1.265625 -0.734375q0.734375 -0.265625 1.671875 -0.265625q0.953125 0 1.6875 0.265625q0.75 0.25 1.265625 0.734375q0.53125 0.484375 0.796875 1.1875q0.28125 0.6875 0.28125 1.59375zm-2.734375 -0.015625q0 -1.046875 -0.359375 -1.671875q-0.359375 -0.640625 -0.9375 -0.640625q-0.375 0 -0.65625 0.296875q-0.28125 0.28125 -0.453125 0.828125q-0.15625 0.53125 -0.15625 1.203125q0 0.65625 0.15625 1.203125q0.15625 0.53125 0.4375 0.828125q0.296875 0.296875 0.671875 0.296875q0.578125 0 0.9375 -0.640625q0.359375 -0.65625 0.359375 -1.703125zm8.556366 3.5625q-0.46875 0.140625 -0.75 0.171875q-0.265625 0.046875 -0.6875 0.046875q-1.109375 0 -1.78125 -0.40625q-0.5 -0.3125 -0.6875 -0.765625q-0.171875 -0.46875 -0.171875 -1.40625l0 -3.359375l-0.71875 0l0 -1.4375l0.71875 0l0 -1.140625l2.578125 -0.3125l0 1.453125l1.359375 0l0 1.4375l-1.359375 0l0 3.09375q0 0.46875 0.03125 0.65625q0.046875 0.1875 0.203125 0.359375q0.234375 0.234375 0.703125 0.234375q0.234375 0 0.5625 -0.109375l0 1.484375zm8.905304 -7.15625l-4.703125 9.796875l-2.65625 0l1.96875 -2.578125l-2.84375 -7.21875l2.765625 0l1.65625 4.203125l2.03125 -4.203125l1.78125 0zm8.956268 3.4375q0 0.90625 -0.21875 1.640625q-0.203125 0.71875 -0.609375 1.234375q-0.40625 0.515625 -1.0 0.796875q-0.578125 0.265625 -1.28125 0.265625q-0.40625 0 -0.71875 -0.078125q-0.296875 -0.0625 -0.625 -0.25q-0.328125 -0.203125 -0.625 -0.46875l-0.03125 0l0 0.640625l0 2.578125l-2.5625 0l0 -9.796875l2.5625 0l0 1.359375l0.03125 0q0.171875 -0.484375 0.5 -0.8125q0.34375 -0.34375 0.796875 -0.53125q0.46875 -0.1875 1.0 -0.1875q0.640625 0 1.15625 0.25q0.53125 0.25 0.890625 0.71875q0.359375 0.453125 0.546875 1.125q0.1875 0.671875 0.1875 1.515625zm-2.734375 0.171875q0 -0.59375 -0.140625 -1.015625q-0.140625 -0.4375 -0.40625 -0.65625q-0.25 -0.21875 -0.625 -0.21875q-0.671875 0 -1.203125 1.046875l0 2.40625q0.265625 0.375 0.515625 0.53125q0.265625 0.15625 0.609375 0.15625q0.34375 0 0.640625 -0.28125q0.296875 -0.296875 0.453125 -0.8125q0.15625 -0.515625 0.15625 -1.15625zm10.789368 3.375q-0.234375 0.0625 -0.4375 0.109375q-1.296875 0.296875 -2.515625 0.296875q-0.890625 0 -1.65625 -0.21875q-0.75 -0.234375 -1.234375 -0.625q-0.609375 -0.515625 -0.984375 -1.34375q-0.359375 -0.84375 -0.359375 -1.703125q0 -0.8125 0.265625 -1.5q0.28125 -0.6875 0.78125 -1.171875q0.5 -0.484375 1.203125 -0.734375q0.71875 -0.265625 1.578125 -0.265625q0.828125 0 1.40625 0.203125q0.578125 0.203125 1.0 0.625q0.5625 0.59375 0.75 1.328125q0.09375 0.359375 0.125 0.640625q0.046875 0.265625 0.0625 0.640625q0.015625 0.359375 0.015625 0.90625l-4.53125 0q0.03125 0.3125 0.078125 0.515625q0.046875 0.1875 0.171875 0.375q0.234375 0.359375 0.640625 0.515625q0.421875 0.15625 1.15625 0.15625q0.671875 0 1.109375 -0.078125q0.4375 -0.078125 1.375 -0.375l0 1.703125zm-2.421875 -4.09375l0 -0.109375q0 -0.8125 -0.234375 -1.171875q-0.21875 -0.375 -0.71875 -0.375q-0.359375 0 -0.625 0.203125q-0.25 0.1875 -0.390625 0.5625q-0.140625 0.359375 -0.171875 0.890625l2.140625 0zm9.055389 4.328125l-2.578125 0l0 -8.1875l-1.359375 0l0 -1.28125l3.9375 -0.328125l0 9.796875z" fill-rule="nonzero"/><path fill="#000000" fill-opacity="0.0" d="m7.4724407 220.61417l218.29921 0l0 34.015762l-218.29921 0z" fill-rule="evenodd"/><path stroke="#000000" stroke-width="2.0" stroke-linejoin="round" stroke-linecap="butt" d="m7.4724407 220.61417l218.29921 0l0 34.015762l-218.29921 0z" fill-rule="evenodd"/><path fill="#000000" d="m20.206816 242.10954l0 -3.0625l-3.046875 0l0 -0.953125l3.046875 0l0 -3.0625l0.96875 0l0 3.0625l3.046875 0l0 0.953125l-3.046875 0l0 3.0625l-0.96875 0zm15.097933 0.09375q-1.234375 0.375 -2.140625 0.375q-0.953125 0 -1.7500019 -0.5q-0.78125 -0.515625 -1.1875 -1.34375q-0.390625 -0.84375 -0.390625 -1.890625q0 -1.5625 0.859375 -2.59375q0.875 -1.046875 2.687502 -1.046875q0.828125 0 1.84375 0.21875l0 1.078125q-1.078125 -0.3125 -1.765625 -0.3125q-1.078125 0 -1.6250019 0.796875q-0.546875 0.796875 -0.546875 1.90625q0 1.1875 0.609375 1.921875q0.6093769 0.734375 1.5937519 0.734375q0.890625 0 1.8125 -0.453125l0 1.109375zm1.920517 0.21875l0 -10.28125l1.28125 0l0 10.28125l-1.28125 0zm6.665161 0.15625q-1.015625 0 -1.765625 -0.40625q-0.734375 -0.40625 -1.171875 -1.296875q-0.4375 -0.890625 -0.4375 -1.984375q0 -1.03125 0.390625 -1.90625q0.40625 -0.890625 1.15625 -1.328125q0.765625 -0.453125 1.828125 -0.453125q1.015625 0 1.75 0.40625q0.75 0.40625 1.1875 1.296875q0.4375 0.890625 0.4375 1.984375q0 1.03125 -0.40625 1.921875q-0.40625 0.875 -1.15625 1.328125q-0.75 0.4375 -1.8125 0.4375zm0 -0.953125q0.953125 0 1.484375 -0.703125q0.53125 -0.71875 0.53125 -2.03125q0 -1.3125 -0.53125 -2.015625q-0.53125 -0.71875 -1.484375 -0.71875q-0.953125 0 -1.484375 0.71875q-0.515625 0.703125 -0.515625 2.015625q0 1.3125 0.515625 2.03125q0.53125 0.703125 1.484375 0.703125zm5.374405 0.796875l0 -7.0625l1.28125 0l0 1.328125q0.484375 -0.71875 1.125 -1.09375q0.65625 -0.390625 1.359375 -0.390625q0.890625 0 1.453125 0.578125q0.5625 0.5625 0.5625 1.5625l0 5.078125l-1.28125 0l0 -4.65625q0 -0.734375 -0.140625 -0.96875q-0.125 -0.234375 -0.359375 -0.359375q-0.234375 -0.140625 -0.5 -0.140625q-0.46875 0 -1.03125 0.296875q-0.546875 0.296875 -1.1875 1.25l0 4.578125l-1.28125 0zm13.459015 -0.234375q-1.296875 0.390625 -2.21875 0.390625q-1.640625 0 -2.59375 -1.109375q-0.9375 -1.109375 -0.9375 -2.609375q0 -1.0 0.421875 -1.890625q0.421875 -0.90625 1.09375 -1.34375q0.671875 -0.4375 1.578125 -0.4375q1.21875 0 1.953125 0.890625q0.734375 0.875 0.734375 2.625l-0.015625 0.390625l-4.453125 0q0.109375 0.9375 0.40625 1.453125q0.296875 0.5 0.796875 0.78125q0.5 0.28125 1.265625 0.28125q0.390625 0 0.765625 -0.0625q0.390625 -0.078125 1.203125 -0.375l0 1.015625zm-4.375 -4.0625l3.109375 0q0 -1.0625 -0.421875 -1.515625q-0.40625 -0.453125 -1.046875 -0.453125q-0.734375 0 -1.15625 0.5q-0.40625 0.484375 -0.484375 1.46875zm9.191116 5.34375l0 0.875q-1.0625 -0.71875 -1.71875 -1.71875q-0.65625 -1.0 -1.0 -2.140625q-0.34375 -1.140625 -0.34375 -2.234375q0 -1.09375 0.34375 -2.234375q0.34375 -1.140625 1.0 -2.140625q0.65625 -1.0 1.71875 -1.734375l0 0.890625q-0.734375 0.796875 -1.09375 1.546875q-0.34375 0.75 -0.515625 1.6875q-0.171875 0.9375 -0.171875 1.984375q0 1.03125 0.171875 1.984375q0.171875 0.9375 0.515625 1.6875q0.359375 0.734375 1.09375 1.546875zm0.9592438 -10.4375l0 -0.890625q1.0625 0.734375 1.71875 1.734375q0.65625 1.0 0.984375 2.140625q0.34375 1.140625 0.34375 2.234375q0 1.09375 -0.34375 2.234375q-0.328125 1.140625 -0.984375 2.140625q-0.65625 1.0 -1.71875 1.71875l0 -0.875q0.734375 -0.8125 1.078125 -1.546875q0.359375 -0.75 0.515625 -1.6875q0.171875 -0.953125 0.171875 -1.984375q0 -1.03125 -0.171875 -1.96875q-0.15625 -0.953125 -0.515625 -1.703125q-0.34375 -0.75 -1.078125 -1.546875zm9.535721 9.390625l0 -1.28125l1.28125 0l0 1.28125l-1.28125 0zm0 -5.78125l0 -1.28125l1.28125 0l0 1.28125l-1.28125 0zm8.215454 5.78125l0 -9.625l2.609375 0q1.40625 0 2.015625 0.28125q0.609375 0.265625 0.921875 0.828125q0.328125 0.5625 0.328125 1.40625q0 0.984375 -0.4375 1.734375q-0.421875 0.734375 -1.375 1.140625q-0.953125 0.40625 -2.109375 0.40625l-0.609375 0l0 3.828125l-1.34375 0zm1.34375 -4.859375l0.5625 0q1.359375 0 1.9375 -0.609375q0.59375 -0.625 0.59375 -1.546875q0 -0.484375 -0.1875 -0.828125q-0.1875 -0.34375 -0.609375 -0.546875q-0.40625 -0.21875 -1.453125 -0.21875l-0.84375 0l0 3.75zm6.054413 4.859375l0 -7.0625l1.28125 0l0 1.328125q0.359375 -0.71875 0.9375 -1.09375q0.59375 -0.390625 1.28125 -0.390625q0.1875 0 0.40625 0.03125l0 1.1875q-0.328125 -0.109375 -0.59375 -0.109375q-0.59375 0 -1.109375 0.375q-0.515625 0.359375 -0.921875 1.078125l0 4.65625l-1.28125 0zm8.266098 0.15625q-1.015625 0 -1.765625 -0.40625q-0.734375 -0.40625 -1.171875 -1.296875q-0.4375 -0.890625 -0.4375 -1.984375q0 -1.03125 0.390625 -1.90625q0.40625 -0.890625 1.15625 -1.328125q0.765625 -0.453125 1.828125 -0.453125q1.015625 0 1.75 0.40625q0.75 0.40625 1.1875 1.296875q0.4375 0.890625 0.4375 1.984375q0 1.03125 -0.40625 1.921875q-0.40625 0.875 -1.15625 1.328125q-0.75 0.4375 -1.8125 0.4375zm0 -0.953125q0.953125 0 1.484375 -0.703125q0.53125 -0.71875 0.53125 -2.03125q0 -1.3125 -0.53125 -2.015625q-0.53125 -0.71875 -1.484375 -0.71875q-0.953125 0 -1.484375 0.71875q-0.515625 0.703125 -0.515625 2.015625q0 1.3125 0.515625 2.03125q0.53125 0.703125 1.484375 0.703125zm8.530655 0.796875q-0.59375 0.15625 -1.03125 0.15625q-0.953125 0 -1.515625 -0.546875q-0.5625 -0.546875 -0.5625 -1.5625l0 -4.15625l-0.875 0l0 -0.953125l0.875 0l0 -1.28125l1.28125 -0.125l0 1.40625l1.859375 0l0 0.953125l-1.859375 0l0 3.921875q0 0.75 0.28125 1.078125q0.296875 0.3125 0.921875 0.3125q0.25 0 0.625 -0.09375l0 0.890625zm4.641281 0.15625q-1.015625 0 -1.765625 -0.40625q-0.734375 -0.40625 -1.171875 -1.296875q-0.4375 -0.890625 -0.4375 -1.984375q0 -1.03125 0.390625 -1.90625q0.40625 -0.890625 1.15625 -1.328125q0.765625 -0.453125 1.828125 -0.453125q1.015625 0 1.75 0.40625q0.75 0.40625 1.1875 1.296875q0.4375 0.890625 0.4375 1.984375q0 1.03125 -0.40625 1.921875q-0.40625 0.875 -1.15625 1.328125q-0.75 0.4375 -1.8125 0.4375zm0 -0.953125q0.953125 0 1.484375 -0.703125q0.53125 -0.71875 0.53125 -2.03125q0 -1.3125 -0.53125 -2.015625q-0.53125 -0.71875 -1.484375 -0.71875q-0.953125 0 -1.484375 0.71875q-0.515625 0.703125 -0.515625 2.015625q0 1.3125 0.515625 2.03125q0.53125 0.703125 1.484375 0.703125zm8.530655 0.796875q-0.59375 0.15625 -1.03125 0.15625q-0.953125 0 -1.515625 -0.546875q-0.5625 -0.546875 -0.5625 -1.5625l0 -4.15625l-0.875 0l0 -0.953125l0.875 0l0 -1.28125l1.28125 -0.125l0 1.40625l1.859375 0l0 0.953125l-1.859375 0l0 3.921875q0 0.75 0.28125 1.078125q0.296875 0.3125 0.921875 0.3125q0.25 0 0.625 -0.09375l0 0.890625zm2.2350311 2.578125l1.15625 -2.578125l-2.734375 -7.0625l1.375 0l2.03125 5.3125l2.15625 -5.3125l1.21875 0l-3.859375 9.640625l-1.34375 0zm6.5571747 0l0 -9.640625l1.28125 0l0 1.328125q0.40625 -0.75 0.984375 -1.109375q0.59375 -0.375 1.375 -0.375q1.3125 0 2.03125 0.96875q0.71875 0.953125 0.71875 2.5q0 1.015625 -0.34375 1.921875q-0.328125 0.90625 -1.03125 1.453125q-0.6875 0.53125 -1.578125 0.53125q-0.359375 0 -0.9375 -0.109375q-0.5625 -0.09375 -1.21875 -0.84375l0 3.375l-1.28125 0zm1.28125 -4.265625q0.65625 0.59375 1.046875 0.75q0.390625 0.140625 0.84375 0.140625q0.9375 0 1.390625 -0.796875q0.453125 -0.796875 0.453125 -2.03125q0 -1.140625 -0.40625 -1.8125q-0.390625 -0.671875 -1.234375 -0.671875q-0.53125 0 -1.0625 0.296875q-0.515625 0.28125 -1.03125 0.875l0 3.25zm12.294907 1.453125q-1.296875 0.390625 -2.21875 0.390625q-1.640625 0 -2.59375 -1.109375q-0.9375 -1.109375 -0.9375 -2.609375q0 -1.0 0.421875 -1.890625q0.421875 -0.90625 1.09375 -1.34375q0.671875 -0.4375 1.578125 -0.4375q1.21875 0 1.953125 0.890625q0.734375 0.875 0.734375 2.625l-0.015625 0.390625l-4.453125 0q0.109375 0.9375 0.40625 1.453125q0.296875 0.5 0.796875 0.78125q0.5 0.28125 1.265625 0.28125q0.390625 0 0.765625 -0.0625q0.390625 -0.078125 1.203125 -0.375l0 1.015625zm-4.375 -4.0625l3.109375 0q0 -1.0625 -0.421875 -1.515625q-0.40625 -0.453125 -1.046875 -0.453125q-0.734375 0 -1.15625 0.5q-0.40625 0.484375 -0.484375 1.46875z" fill-rule="nonzero"/><path fill="#000000" fill-opacity="0.0" d="m7.4724407 186.59842l218.29921 0l0 34.015747l-218.29921 0z" fill-rule="evenodd"/><path stroke="#000000" stroke-width="2.0" stroke-linejoin="round" stroke-linecap="butt" d="m7.4724407 186.59842l218.29921 0l0 34.015747l-218.29921 0z" fill-rule="evenodd"/><path fill="#000000" d="m17.769316 208.4063l0 -1.609375l1.609375 0l0 1.609375l-1.609375 0zm4.217102 0l0 -1.609375l1.609375 0l0 1.609375l-1.609375 0zm4.217102 0l0 -1.609375l1.609375 0l0 1.609375l-1.609375 0z" fill-rule="nonzero"/><path fill="#000000" fill-opacity="0.0" d="m176.24672 21.03937l179.937 0l0 34.015747l-179.937 0z" fill-rule="evenodd"/><path stroke="#000000" stroke-width="3.0" stroke-linejoin="round" stroke-linecap="butt" d="m176.24672 21.03937l179.937 0l0 34.015747l-179.937 0z" fill-rule="evenodd"/><path fill="#000000" d="m240.46933 35.80037q-0.171875 0.78125 -0.546875 1.390625q-0.359375 0.609375 -0.9375 1.046875q-0.578125 0.4375 -1.328125 0.65625q-0.75 0.21875 -1.625 0.21875l-1.03125 0l-0.796875 3.734375l-2.40625 0l2.046875 -9.640625l3.9375 0q0.703125 0 1.109375 0.0625q0.421875 0.046875 0.6875 0.171875q0.28125 0.125 0.515625 0.328125q0.671875 0.640625 0.375 2.03125zm-2.640625 0.21875q0.25 -1.203125 -1.25 -1.203125l-0.671875 0l-0.59375 2.84375l0.3125 0q0.875 0 1.453125 -0.421875q0.578125 -0.4375 0.75 -1.21875zm9.040848 1.71875q-0.28125 -0.125 -0.453125 -0.15625q-0.171875 -0.03125 -0.5 -0.03125q-0.5625 0 -1.0 0.21875q-0.4375 0.203125 -0.859375 0.671875l-0.9375 4.40625l-2.5625 0l1.53125 -7.21875l2.5625 0l-0.28125 1.359375l0.03125 0q0.171875 -0.34375 0.546875 -0.671875q0.375 -0.328125 0.875 -0.578125q0.5625 -0.28125 1.21875 -0.28125q0.1875 0 0.296875 0.046875l-0.46875 2.234375zm8.5078125 1.5q-0.1875 0.875 -0.609375 1.578125q-0.421875 0.6875 -1.046875 1.1875q-0.625 0.5 -1.421875 0.75q-0.78125 0.25 -1.6875 0.25q-0.9375 0 -1.640625 -0.25q-0.6875 -0.25 -1.125 -0.734375q-0.4375 -0.5 -0.5625 -1.203125q-0.125 -0.71875 0.0625 -1.59375q0.1875 -0.859375 0.609375 -1.5625q0.421875 -0.71875 1.046875 -1.203125q0.640625 -0.484375 1.421875 -0.734375q0.796875 -0.265625 1.734375 -0.265625q0.953125 0 1.640625 0.265625q0.6875 0.25 1.09375 0.734375q0.421875 0.484375 0.546875 1.1875q0.125 0.6875 -0.0625 1.59375zm-2.734375 -0.015625q0.234375 -1.046875 0 -1.671875q-0.21875 -0.640625 -0.796875 -0.640625q-0.375 0 -0.71875 0.296875q-0.34375 0.28125 -0.625 0.828125q-0.28125 0.53125 -0.421875 1.203125q-0.140625 0.65625 -0.09375 1.203125q0.046875 0.53125 0.265625 0.828125q0.21875 0.296875 0.59375 0.296875q0.578125 0 1.078125 -0.640625q0.5 -0.65625 0.71875 -1.703125zm7.806381 3.5625q-0.5 0.140625 -0.78125 0.171875q-0.28125 0.046875 -0.703125 0.046875q-1.109375 0 -1.703125 -0.40625q-0.421875 -0.3125 -0.515625 -0.765625q-0.078125 -0.46875 0.125 -1.40625l0.71875 -3.359375l-0.71875 0l0.296875 -1.4375l0.71875 0l0.25 -1.140625l2.640625 -0.3125l-0.3125 1.453125l1.359375 0l-0.296875 1.4375l-1.359375 0l-0.65625 3.09375q-0.109375 0.46875 -0.109375 0.65625q0 0.1875 0.125 0.359375q0.1875 0.234375 0.65625 0.234375q0.234375 0 0.578125 -0.109375l-0.3125 1.484375zm9.733398 -3.546875q-0.1875 0.875 -0.609375 1.578125q-0.421875 0.6875 -1.046875 1.1875q-0.625 0.5 -1.421875 0.75q-0.78125 0.25 -1.6875 0.25q-0.9375 0 -1.640625 -0.25q-0.6875 -0.25 -1.125 -0.734375q-0.4375 -0.5 -0.5625 -1.203125q-0.125 -0.71875 0.0625 -1.59375q0.1875 -0.859375 0.609375 -1.5625q0.421875 -0.71875 1.046875 -1.203125q0.640625 -0.484375 1.421875 -0.734375q0.796875 -0.265625 1.734375 -0.265625q0.953125 0 1.640625 0.265625q0.6875 0.25 1.09375 0.734375q0.421875 0.484375 0.546875 1.1875q0.125 0.6875 -0.0625 1.59375zm-2.734375 -0.015625q0.234375 -1.046875 0 -1.671875q-0.21875 -0.640625 -0.796875 -0.640625q-0.375 0 -0.71875 0.296875q-0.34375 0.28125 -0.625 0.828125q-0.28125 0.53125 -0.421875 1.203125q-0.140625 0.65625 -0.09375 1.203125q0.046875 0.53125 0.265625 0.828125q0.21875 0.296875 0.59375 0.296875q0.578125 0 1.078125 -0.640625q0.5 -0.65625 0.71875 -1.703125zm7.8063965 3.5625q-0.5 0.140625 -0.78125 0.171875q-0.28125 0.046875 -0.703125 0.046875q-1.109375 0 -1.703125 -0.40625q-0.421875 -0.3125 -0.515625 -0.765625q-0.078125 -0.46875 0.125 -1.40625l0.71875 -3.359375l-0.71875 0l0.296875 -1.4375l0.71875 0l0.25 -1.140625l2.640625 -0.3125l-0.3125 1.453125l1.359375 0l-0.296875 1.4375l-1.359375 0l-0.65625 3.09375q-0.109375 0.46875 -0.109375 0.65625q0 0.1875 0.125 0.359375q0.1875 0.234375 0.65625 0.234375q0.234375 0 0.578125 -0.109375l-0.3125 1.484375zm10.420898 -7.15625l-6.78125 9.796875l-2.65625 0l2.515625 -2.578125l-1.3125 -7.21875l2.765625 0l0.765625 4.203125l2.921875 -4.203125l1.78125 0zm8.221924 3.4375q-0.1875 0.90625 -0.5625 1.640625q-0.359375 0.71875 -0.875 1.234375q-0.515625 0.515625 -1.15625 0.796875q-0.640625 0.265625 -1.34375 0.265625q-0.40625 0 -0.703125 -0.078125q-0.28125 -0.0625 -0.578125 -0.25q-0.28125 -0.203125 -0.515625 -0.46875l-0.03125 0l-0.140625 0.640625l-0.546875 2.578125l-2.5625 0l2.078125 -9.796875l2.5625 0l-0.28125 1.359375l0.03125 0q0.265625 -0.484375 0.671875 -0.8125q0.40625 -0.34375 0.90625 -0.53125q0.515625 -0.1875 1.046875 -0.1875q0.640625 0 1.109375 0.25q0.46875 0.25 0.71875 0.71875q0.265625 0.453125 0.3125 1.125q0.046875 0.671875 -0.140625 1.515625zm-2.765625 0.171875q0.125 -0.59375 0.078125 -1.015625q-0.046875 -0.4375 -0.265625 -0.65625q-0.203125 -0.21875 -0.578125 -0.21875q-0.671875 0 -1.421875 1.046875l-0.515625 2.40625q0.1875 0.375 0.40625 0.53125q0.21875 0.15625 0.5625 0.15625q0.34375 0 0.703125 -0.28125q0.359375 -0.296875 0.625 -0.8125q0.265625 -0.515625 0.40625 -1.15625zm10.070587 3.375q-0.25 0.0625 -0.453125 0.109375q-1.359375 0.296875 -2.578125 0.296875q-0.890625 0 -1.609375 -0.21875q-0.703125 -0.234375 -1.109375 -0.625q-0.5 -0.515625 -0.6875 -1.34375q-0.1875 -0.84375 0 -1.703125q0.171875 -0.8125 0.578125 -1.5q0.421875 -0.6875 1.03125 -1.171875q0.609375 -0.484375 1.375 -0.734375q0.765625 -0.265625 1.625 -0.265625q0.828125 0 1.359375 0.203125q0.53125 0.203125 0.859375 0.625q0.4375 0.59375 0.46875 1.328125q0.015625 0.359375 0 0.640625q-0.015625 0.265625 -0.078125 0.640625q-0.0625 0.359375 -0.1875 0.90625l-4.53125 0q-0.03125 0.3125 -0.03125 0.515625q0.015625 0.1875 0.09375 0.375q0.15625 0.359375 0.53125 0.515625q0.390625 0.15625 1.125 0.15625q0.671875 0 1.125 -0.078125q0.453125 -0.078125 1.453125 -0.375l-0.359375 1.703125zm-1.546875 -4.09375l0.015625 -0.109375q0.171875 -0.8125 0.015625 -1.171875q-0.140625 -0.375 -0.640625 -0.375q-0.359375 0 -0.65625 0.203125q-0.296875 0.1875 -0.515625 0.5625q-0.21875 0.359375 -0.359375 0.890625l2.140625 0z" fill-rule="nonzero"/><path fill="#000000" fill-opacity="0.0" d="m176.24672 55.05512l179.937 0l0 34.01575l-179.937 0z" fill-rule="evenodd"/><path stroke="#000000" stroke-width="2.0" stroke-linejoin="round" stroke-linecap="butt" d="m176.24672 55.05512l179.937 0l0 34.01575l-179.937 0z" fill-rule="evenodd"/><path fill="#000000" d="m188.9811 76.55049l0 -3.0625l-3.046875 0l0 -0.953125l3.046875 0l0 -3.0625l0.96875 0l0 3.0625l3.046875 0l0 0.953125l-3.046875 0l0 3.0625l-0.96875 0z" fill-rule="nonzero"/><path fill="#000000" d="m204.1259 76.64424q-1.3125 0.375 -2.21875 0.375q-0.953125 0 -1.640625 -0.5q-0.671875 -0.515625 -0.90625 -1.34375q-0.21875 -0.84375 0.015625 -1.890625q0.328125 -1.5625 1.40625 -2.59375q1.09375 -1.046875 2.90625 -1.046875q0.828125 0 1.796875 0.21875l-0.21875 1.078125q-1.015625 -0.3125 -1.703125 -0.3125q-1.078125 0 -1.796875 0.796875q-0.71875 0.796875 -0.953125 1.90625q-0.25 1.1875 0.203125 1.921875q0.453125 0.734375 1.4375 0.734375q0.890625 0 1.90625 -0.453125l-0.234375 1.109375zm1.873642 0.21875l2.1875 -10.28125l1.28125 0l-2.1875 10.28125l-1.28125 0zm6.633911 0.15625q-1.015625 0 -1.671875 -0.40625q-0.65625 -0.40625 -0.90625 -1.296875q-0.25 -0.890625 -0.015625 -1.984375q0.21875 -1.03125 0.796875 -1.90625q0.59375 -0.890625 1.4375 -1.328125q0.859375 -0.453125 1.921875 -0.453125q1.015625 0 1.671875 0.40625q0.65625 0.40625 0.90625 1.296875q0.25 0.890625 0.015625 1.984375q-0.21875 1.03125 -0.8125 1.921875q-0.59375 0.875 -1.4375 1.328125q-0.84375 0.4375 -1.90625 0.4375zm0.203125 -0.953125q0.953125 0 1.625 -0.703125q0.6875 -0.71875 0.96875 -2.03125q0.28125 -1.3125 -0.109375 -2.015625q-0.375 -0.71875 -1.328125 -0.71875q-0.953125 0 -1.625 0.71875q-0.671875 0.703125 -0.953125 2.015625q-0.28125 1.3125 0.09375 2.03125q0.375 0.703125 1.328125 0.703125zm5.20253 0.796875l1.5 -7.0625l1.28125 0l-0.28125 1.328125q0.640625 -0.71875 1.359375 -1.09375q0.734375 -0.390625 1.4375 -0.390625q0.890625 0 1.328125 0.578125q0.453125 0.5625 0.234375 1.5625l-1.078125 5.078125l-1.28125 0l0.984375 -4.65625q0.15625 -0.734375 0.078125 -0.96875q-0.078125 -0.234375 -0.296875 -0.359375q-0.203125 -0.140625 -0.46875 -0.140625q-0.46875 0 -1.09375 0.296875q-0.609375 0.296875 -1.453125 1.25l-0.96875 4.578125l-1.28125 0zm13.50589 -0.234375q-1.375 0.390625 -2.296875 0.390625q-1.640625 0 -2.359375 -1.109375q-0.703125 -1.109375 -0.390625 -2.609375q0.21875 -1.0 0.828125 -1.890625q0.625 -0.90625 1.375 -1.34375q0.765625 -0.4375 1.671875 -0.4375q1.21875 0 1.765625 0.890625q0.546875 0.875 0.1875 2.625l-0.109375 0.390625l-4.453125 0q-0.078125 0.9375 0.109375 1.453125q0.1875 0.5 0.625 0.78125q0.4375 0.28125 1.203125 0.28125q0.390625 0 0.78125 -0.0625q0.40625 -0.078125 1.28125 -0.375l-0.21875 1.015625zm-3.515625 -4.0625l3.109375 0q0.234375 -1.0625 -0.09375 -1.515625q-0.3125 -0.453125 -0.953125 -0.453125q-0.734375 0 -1.25 0.5q-0.515625 0.484375 -0.8125 1.46875zm8.066116 5.34375l-0.1875 0.875q-0.90625 -0.71875 -1.359375 -1.71875q-0.4375 -1.0 -0.546875 -2.140625q-0.09375 -1.140625 0.140625 -2.234375q0.234375 -1.09375 0.8125 -2.234375q0.59375 -1.140625 1.453125 -2.140625q0.875 -1.0 2.09375 -1.734375l-0.1875 0.890625q-0.90625 0.796875 -1.421875 1.546875q-0.515625 0.75 -0.890625 1.6875q-0.359375 0.9375 -0.578125 1.984375q-0.21875 1.03125 -0.25 1.984375q-0.03125 0.9375 0.15625 1.6875q0.203125 0.734375 0.765625 1.546875zm3.1779938 -10.4375l0.1875 -0.890625q0.90625 0.734375 1.34375 1.734375q0.453125 1.0 0.546875 2.140625q0.09375 1.140625 -0.140625 2.234375q-0.234375 1.09375 -0.8125 2.234375q-0.578125 1.140625 -1.453125 2.140625q-0.859375 1.0 -2.078125 1.71875l0.1875 -0.875q0.90625 -0.8125 1.40625 -1.546875q0.515625 -0.75 0.875 -1.6875q0.375 -0.953125 0.59375 -1.984375q0.21875 -1.03125 0.25 -1.96875q0.03125 -0.953125 -0.15625 -1.703125q-0.1875 -0.75 -0.75 -1.546875zm7.535721 9.390625l0.265625 -1.28125l1.28125 0l-0.265625 1.28125l-1.28125 0zm1.234375 -5.78125l0.265625 -1.28125l1.28125 0l-0.265625 1.28125l-1.28125 0zm6.981079 5.78125l2.046875 -9.625l2.609375 0q1.40625 0 1.953125 0.28125q0.546875 0.265625 0.75 0.828125q0.203125 0.5625 0.03125 1.40625q-0.21875 0.984375 -0.8125 1.734375q-0.578125 0.734375 -1.625 1.140625q-1.03125 0.40625 -2.1875 0.40625l-0.609375 0l-0.8125 3.828125l-1.34375 0zm2.375 -4.859375l0.5625 0q1.359375 0 2.078125 -0.609375q0.71875 -0.625 0.90625 -1.546875q0.109375 -0.484375 -0.015625 -0.828125q-0.109375 -0.34375 -0.484375 -0.546875q-0.359375 -0.21875 -1.40625 -0.21875l-0.84375 0l-0.796875 3.75zm5.023163 4.859375l1.5 -7.0625l1.28125 0l-0.28125 1.328125q0.515625 -0.71875 1.171875 -1.09375q0.671875 -0.390625 1.359375 -0.390625q0.1875 0 0.40625 0.03125l-0.25 1.1875q-0.3125 -0.109375 -0.578125 -0.109375q-0.59375 0 -1.1875 0.375q-0.59375 0.359375 -1.15625 1.078125l-0.984375 4.65625l-1.28125 0zm8.234833 0.15625q-1.015625 0 -1.671875 -0.40625q-0.65625 -0.40625 -0.90625 -1.296875q-0.25 -0.890625 -0.015625 -1.984375q0.21875 -1.03125 0.796875 -1.90625q0.59375 -0.890625 1.4375 -1.328125q0.859375 -0.453125 1.921875 -0.453125q1.015625 0 1.671875 0.40625q0.65625 0.40625 0.90625 1.296875q0.25 0.890625 0.015625 1.984375q-0.21875 1.03125 -0.8125 1.921875q-0.59375 0.875 -1.4375 1.328125q-0.84375 0.4375 -1.90625 0.4375zm0.203125 -0.953125q0.953125 0 1.625 -0.703125q0.6875 -0.71875 0.96875 -2.03125q0.28125 -1.3125 -0.109375 -2.015625q-0.375 -0.71875 -1.328125 -0.71875q-0.953125 0 -1.625 0.71875q-0.671875 0.703125 -0.953125 2.015625q-0.28125 1.3125 0.09375 2.03125q0.375 0.703125 1.328125 0.703125zm8.358795 0.796875q-0.625 0.15625 -1.0625 0.15625q-0.953125 0 -1.40625 -0.546875q-0.4375 -0.546875 -0.21875 -1.5625l0.875 -4.15625l-0.875 0l0.203125 -0.953125l0.875 0l0.28125 -1.28125l1.296875 -0.125l-0.296875 1.40625l1.859375 0l-0.203125 0.953125l-1.859375 0l-0.828125 3.921875q-0.15625 0.75 0.0625 1.078125q0.21875 0.3125 0.84375 0.3125q0.25 0 0.640625 -0.09375l-0.1875 0.890625zm4.610016 0.15625q-1.015625 0 -1.671875 -0.40625q-0.65625 -0.40625 -0.90625 -1.296875q-0.25 -0.890625 -0.015625 -1.984375q0.21875 -1.03125 0.796875 -1.90625q0.59375 -0.890625 1.4375 -1.328125q0.859375 -0.453125 1.921875 -0.453125q1.015625 0 1.671875 0.40625q0.65625 0.40625 0.90625 1.296875q0.25 0.890625 0.015625 1.984375q-0.21875 1.03125 -0.8125 1.921875q-0.59375 0.875 -1.4375 1.328125q-0.84375 0.4375 -1.90625 0.4375zm0.203125 -0.953125q0.953125 0 1.625 -0.703125q0.6875 -0.71875 0.96875 -2.03125q0.28125 -1.3125 -0.109375 -2.015625q-0.375 -0.71875 -1.328125 -0.71875q-0.953125 0 -1.625 0.71875q-0.671875 0.703125 -0.953125 2.015625q-0.28125 1.3125 0.09375 2.03125q0.375 0.703125 1.328125 0.703125zm8.358795 0.796875q-0.625 0.15625 -1.0625 0.15625q-0.953125 0 -1.40625 -0.546875q-0.4375 -0.546875 -0.21875 -1.5625l0.875 -4.15625l-0.875 0l0.203125 -0.953125l0.875 0l0.28125 -1.28125l1.296875 -0.125l-0.296875 1.40625l1.859375 0l-0.203125 0.953125l-1.859375 0l-0.828125 3.921875q-0.15625 0.75 0.0625 1.078125q0.21875 0.3125 0.84375 0.3125q0.25 0 0.640625 -0.09375l-0.1875 0.890625zm1.6881409 2.578125l1.703125 -2.578125l-1.234375 -7.0625l1.375 0l0.90625 5.3125l3.28125 -5.3125l1.21875 0l-5.90625 9.640625l-1.34375 0zm6.55719 0l2.046875 -9.640625l1.28125 0l-0.28125 1.328125q0.5625 -0.75 1.21875 -1.109375q0.671875 -0.375 1.453125 -0.375q1.3125 0 1.828125 0.96875q0.515625 0.953125 0.1875 2.5q-0.21875 1.015625 -0.75 1.921875q-0.515625 0.90625 -1.328125 1.453125q-0.8125 0.53125 -1.703125 0.53125q-0.359375 0 -0.90625 -0.109375q-0.546875 -0.09375 -1.046875 -0.84375l-0.71875 3.375l-1.28125 0zm2.1875 -4.265625q0.53125 0.59375 0.890625 0.75q0.359375 0.140625 0.8125 0.140625q0.9375 0 1.5625 -0.796875q0.625 -0.796875 0.875 -2.03125q0.25 -1.140625 -0.015625 -1.8125q-0.25 -0.671875 -1.09375 -0.671875q-0.53125 0 -1.125 0.296875q-0.578125 0.28125 -1.21875 0.875l-0.6875 3.25zm11.982391 1.453125q-1.375 0.390625 -2.296875 0.390625q-1.640625 0 -2.359375 -1.109375q-0.703125 -1.109375 -0.390625 -2.609375q0.21875 -1.0 0.828125 -1.890625q0.625 -0.90625 1.375 -1.34375q0.765625 -0.4375 1.671875 -0.4375q1.21875 0 1.765625 0.890625q0.546875 0.875 0.1875 2.625l-0.109375 0.390625l-4.453125 0q-0.078125 0.9375 0.109375 1.453125q0.1875 0.5 0.625 0.78125q0.4375 0.28125 1.203125 0.28125q0.390625 0 0.78125 -0.0625q0.40625 -0.078125 1.28125 -0.375l-0.21875 1.015625zm-3.515625 -4.0625l3.109375 0q0.234375 -1.0625 -0.09375 -1.515625q-0.3125 -0.453125 -0.953125 -0.453125q-0.734375 0 -1.25 0.5q-0.515625 0.484375 -0.8125 1.46875z" fill-rule="nonzero"/><path fill="#000000" fill-opacity="0.0" d="m261.70078 147.48032l218.29922 0l0 39.118103l-218.29922 0z" fill-rule="evenodd"/><path stroke="#000000" stroke-width="3.0" stroke-linejoin="round" stroke-linecap="butt" d="m261.70078 147.48032l218.29922 0l0 39.118103l-218.29922 0z" fill-rule="evenodd"/><path fill="#000000" d="m308.0003 171.55812q-0.34375 0.109375 -0.390625 0.125q-1.40625 0.390625 -3.046875 0.390625q-0.765625 0 -1.421875 -0.125q-0.65625 -0.109375 -1.234375 -0.34375q-0.578125 -0.234375 -1.0 -0.578125q-0.421875 -0.328125 -0.734375 -0.75q-0.3125 -0.421875 -0.546875 -0.96875q-0.234375 -0.546875 -0.34375 -1.109375q-0.109375 -0.5625 -0.109375 -1.1875q0 -0.75 0.15625 -1.453125q0.171875 -0.703125 0.5 -1.28125q0.328125 -0.59375 0.796875 -1.03125q0.453125 -0.453125 1.03125 -0.734375q0.578125 -0.28125 1.296875 -0.40625q0.71875 -0.140625 1.59375 -0.140625q0.90625 0 1.828125 0.09375q0.921875 0.09375 1.46875 0.234375l0 1.84375q-0.1875 -0.078125 -0.28125 -0.09375q-0.09375 -0.03125 -0.1875 -0.0625q-1.328125 -0.421875 -2.390625 -0.421875q-1.390625 0 -2.15625 0.71875q-0.4375 0.4375 -0.6875 1.140625q-0.234375 0.6875 -0.234375 1.546875q0 1.09375 0.375 1.875q0.390625 0.765625 1.125 1.171875q0.75 0.390625 1.8125 0.390625q0.453125 0 1.078125 -0.09375q0.5 -0.09375 0.828125 -0.171875q0.328125 -0.09375 0.875 -0.34375l0 1.765625zm8.880341 -3.328125q0 0.875 -0.28125 1.578125q-0.265625 0.6875 -0.796875 1.1875q-0.515625 0.5 -1.25 0.75q-0.734375 0.25 -1.640625 0.25q-0.9375 0 -1.6875 -0.25q-0.75 -0.25 -1.296875 -0.734375q-0.53125 -0.5 -0.8125 -1.203125q-0.265625 -0.71875 -0.265625 -1.59375q0 -0.859375 0.265625 -1.5625q0.28125 -0.71875 0.796875 -1.203125q0.53125 -0.484375 1.265625 -0.734375q0.734375 -0.265625 1.671875 -0.265625q0.953125 0 1.6875 0.265625q0.75 0.25 1.265625 0.734375q0.53125 0.484375 0.796875 1.1875q0.28125 0.6875 0.28125 1.59375zm-2.734375 -0.015625q0 -1.046875 -0.359375 -1.671875q-0.359375 -0.640625 -0.9375 -0.640625q-0.375 0 -0.65625 0.296875q-0.28125 0.28125 -0.453125 0.828125q-0.15625 0.53125 -0.15625 1.203125q0 0.65625 0.15625 1.203125q0.15625 0.53125 0.4375 0.828125q0.296875 0.296875 0.671875 0.296875q0.578125 0 0.9375 -0.640625q0.359375 -0.65625 0.359375 -1.703125zm11.400116 3.625l-2.5625 0l0 -4.484375q0 -0.53125 -0.15625 -0.75q-0.140625 -0.234375 -0.46875 -0.234375q-0.34375 0 -0.65625 0.265625q-0.3125 0.25 -0.65625 0.796875l0 4.40625l-2.5625 0l0 -7.21875l2.5625 0l0 1.359375l0.03125 0q0.34375 -0.734375 0.953125 -1.125q0.625 -0.40625 1.40625 -0.40625q0.875 0 1.46875 0.53125q0.359375 0.328125 0.5 0.75q0.140625 0.40625 0.140625 1.078125l0 5.03125zm7.89093 -0.09375q-1.234375 0.25 -2.359375 0.25q-0.515625 0 -0.953125 -0.046875q-0.421875 -0.046875 -0.78125 -0.15625q-0.359375 -0.125 -0.640625 -0.28125q-0.265625 -0.171875 -0.546875 -0.4375q-0.53125 -0.5 -0.8125 -1.234375q-0.265625 -0.734375 -0.265625 -1.578125q0 -1.140625 0.484375 -2.015625q0.5 -0.875 1.421875 -1.328125q0.9375 -0.46875 2.171875 -0.46875q0.96875 0 2.234375 0.328125l0 1.703125q-1.21875 -0.484375 -1.890625 -0.484375q-0.5 0 -0.890625 0.28125q-0.390625 0.265625 -0.59375 0.765625q-0.203125 0.484375 -0.203125 1.140625q0 0.984375 0.515625 1.609375q0.53125 0.625 1.375 0.625q0.71875 0 1.734375 -0.328125l0 1.65625zm6.8408813 -5.015625q-0.296875 -0.125 -0.484375 -0.15625q-0.171875 -0.03125 -0.5 -0.03125q-0.5625 0 -0.953125 0.21875q-0.390625 0.203125 -0.71875 0.671875l0 4.40625l-2.5625 0l0 -7.21875l2.5625 0l0 1.359375l0.03125 0q0.109375 -0.34375 0.40625 -0.671875q0.3125 -0.328125 0.75 -0.578125q0.5 -0.28125 1.15625 -0.28125q0.1875 0 0.3125 0.046875l0 2.234375zm7.8984375 4.875q-0.234375 0.0625 -0.4375 0.109375q-1.296875 0.296875 -2.515625 0.296875q-0.890625 0 -1.65625 -0.21875q-0.75 -0.234375 -1.234375 -0.625q-0.609375 -0.515625 -0.984375 -1.34375q-0.359375 -0.84375 -0.359375 -1.703125q0 -0.8125 0.265625 -1.5q0.28125 -0.6875 0.78125 -1.171875q0.5 -0.484375 1.203125 -0.734375q0.71875 -0.265625 1.578125 -0.265625q0.828125 0 1.40625 0.203125q0.578125 0.203125 1.0 0.625q0.5625 0.59375 0.75 1.328125q0.09375 0.359375 0.125 0.640625q0.046875 0.265625 0.0625 0.640625q0.015625 0.359375 0.015625 0.90625l-4.53125 0q0.03125 0.3125 0.078125 0.515625q0.046875 0.1875 0.171875 0.375q0.234375 0.359375 0.640625 0.515625q0.421875 0.15625 1.15625 0.15625q0.671875 0 1.109375 -0.078125q0.4375 -0.078125 1.375 -0.375l0 1.703125zm-2.421875 -4.09375l0 -0.109375q0 -0.8125 -0.234375 -1.171875q-0.21875 -0.375 -0.71875 -0.375q-0.359375 0 -0.625 0.203125q-0.25 0.1875 -0.390625 0.5625q-0.140625 0.359375 -0.171875 0.890625l2.140625 0zm8.36792 4.265625q-0.46875 0.140625 -0.75 0.171875q-0.265625 0.046875 -0.6875 0.046875q-1.109375 0 -1.78125 -0.40625q-0.5 -0.3125 -0.6875 -0.765625q-0.171875 -0.46875 -0.171875 -1.40625l0 -3.359375l-0.71875 0l0 -1.4375l0.71875 0l0 -1.140625l2.578125 -0.3125l0 1.453125l1.359375 0l0 1.4375l-1.359375 0l0 3.09375q0 0.46875 0.03125 0.65625q0.046875 0.1875 0.203125 0.359375q0.234375 0.234375 0.703125 0.234375q0.234375 0 0.5625 -0.109375l0 1.484375zm8.045898 -0.171875q-0.234375 0.0625 -0.4375 0.109375q-1.296875 0.296875 -2.515625 0.296875q-0.890625 0 -1.65625 -0.21875q-0.75 -0.234375 -1.234375 -0.625q-0.609375 -0.515625 -0.984375 -1.34375q-0.359375 -0.84375 -0.359375 -1.703125q0 -0.8125 0.265625 -1.5q0.28125 -0.6875 0.78125 -1.171875q0.5 -0.484375 1.203125 -0.734375q0.71875 -0.265625 1.578125 -0.265625q0.828125 0 1.40625 0.203125q0.578125 0.203125 1.0 0.625q0.5625 0.59375 0.75 1.328125q0.09375 0.359375 0.125 0.640625q0.046875 0.265625 0.0625 0.640625q0.015625 0.359375 0.015625 0.90625l-4.53125 0q0.03125 0.3125 0.078125 0.515625q0.046875 0.1875 0.171875 0.375q0.234375 0.359375 0.640625 0.515625q0.421875 0.15625 1.15625 0.15625q0.671875 0 1.109375 -0.078125q0.4375 -0.078125 1.375 -0.375l0 1.703125zm-2.421875 -4.09375l0 -0.109375q0 -0.8125 -0.234375 -1.171875q-0.21875 -0.375 -0.71875 -0.375q-0.359375 0 -0.625 0.203125q-0.25 0.1875 -0.390625 0.5625q-0.140625 0.359375 -0.171875 0.890625l2.140625 0zm11.321045 -2.71875q0 0.78125 -0.25 1.390625q-0.234375 0.609375 -0.71875 1.046875q-0.484375 0.4375 -1.1875 0.65625q-0.703125 0.21875 -1.578125 0.21875l-1.03125 0l0 3.734375l-2.40625 0l0 -9.640625l3.9375 0q0.703125 0 1.125 0.0625q0.421875 0.046875 0.71875 0.171875q0.3125 0.125 0.59375 0.328125q0.796875 0.640625 0.796875 2.03125zm-2.59375 0.21875q0 -1.203125 -1.5 -1.203125l-0.671875 0l0 2.84375l0.3125 0q0.875 0 1.359375 -0.421875q0.5 -0.4375 0.5 -1.21875zm9.4002075 1.71875q-0.296875 -0.125 -0.484375 -0.15625q-0.171875 -0.03125 -0.5 -0.03125q-0.5625 0 -0.953125 0.21875q-0.390625 0.203125 -0.71875 0.671875l0 4.40625l-2.5625 0l0 -7.21875l2.5625 0l0 1.359375l0.03125 0q0.109375 -0.34375 0.40625 -0.671875q0.3125 -0.328125 0.75 -0.578125q0.5 -0.28125 1.15625 -0.28125q0.1875 0 0.3125 0.046875l0 2.234375zm8.8359375 1.5q0 0.875 -0.28125 1.578125q-0.265625 0.6875 -0.796875 1.1875q-0.515625 0.5 -1.25 0.75q-0.734375 0.25 -1.640625 0.25q-0.9375 0 -1.6875 -0.25q-0.75 -0.25 -1.296875 -0.734375q-0.53125 -0.5 -0.8125 -1.203125q-0.265625 -0.71875 -0.265625 -1.59375q0 -0.859375 0.265625 -1.5625q0.28125 -0.71875 0.796875 -1.203125q0.53125 -0.484375 1.265625 -0.734375q0.734375 -0.265625 1.671875 -0.265625q0.953125 0 1.6875 0.265625q0.75 0.25 1.265625 0.734375q0.53125 0.484375 0.796875 1.1875q0.28125 0.6875 0.28125 1.59375zm-2.734375 -0.015625q0 -1.046875 -0.359375 -1.671875q-0.359375 -0.640625 -0.9375 -0.640625q-0.375 0 -0.65625 0.296875q-0.28125 0.28125 -0.453125 0.828125q-0.15625 0.53125 -0.15625 1.203125q0 0.65625 0.15625 1.203125q0.15625 0.53125 0.4375 0.828125q0.296875 0.296875 0.671875 0.296875q0.578125 0 0.9375 -0.640625q0.359375 -0.65625 0.359375 -1.703125zm8.556366 3.5625q-0.46875 0.140625 -0.75 0.171875q-0.265625 0.046875 -0.6875 0.046875q-1.109375 0 -1.7812195 -0.40625q-0.5 -0.3125 -0.6875 -0.765625q-0.171875 -0.46875 -0.171875 -1.40625l0 -3.359375l-0.71875 0l0 -1.4375l0.71875 0l0 -1.140625l2.5780945 -0.3125l0 1.453125l1.359375 0l0 1.4375l-1.359375 0l0 3.09375q0 0.46875 0.03125 0.65625q0.046875 0.1875 0.203125 0.359375q0.234375 0.234375 0.703125 0.234375q0.234375 0 0.5625 -0.109375l0 1.484375zm8.983429 -3.546875q0 0.875 -0.28125 1.578125q-0.265625 0.6875 -0.796875 1.1875q-0.515625 0.5 -1.25 0.75q-0.734375 0.25 -1.640625 0.25q-0.9375 0 -1.6875 -0.25q-0.75 -0.25 -1.296875 -0.734375q-0.53125 -0.5 -0.8125 -1.203125q-0.265625 -0.71875 -0.265625 -1.59375q0 -0.859375 0.265625 -1.5625q0.28125 -0.71875 0.796875 -1.203125q0.53125 -0.484375 1.265625 -0.734375q0.734375 -0.265625 1.671875 -0.265625q0.953125 0 1.6875 0.265625q0.75 0.25 1.265625 0.734375q0.53125 0.484375 0.796875 1.1875q0.28125 0.6875 0.28125 1.59375zm-2.734375 -0.015625q0 -1.046875 -0.359375 -1.671875q-0.359375 -0.640625 -0.9375 -0.640625q-0.375 0 -0.65625 0.296875q-0.28125 0.28125 -0.453125 0.828125q-0.15625 0.53125 -0.15625 1.203125q0 0.65625 0.15625 1.203125q0.15625 0.53125 0.4375 0.828125q0.296875 0.296875 0.671875 0.296875q0.578125 0 0.9375 -0.640625q0.359375 -0.65625 0.359375 -1.703125zm8.556366 3.5625q-0.46875 0.140625 -0.75 0.171875q-0.265625 0.046875 -0.6875 0.046875q-1.109375 0 -1.78125 -0.40625q-0.5 -0.3125 -0.6875 -0.765625q-0.171875 -0.46875 -0.171875 -1.40625l0 -3.359375l-0.71875 0l0 -1.4375l0.71875 0l0 -1.140625l2.578125 -0.3125l0 1.453125l1.359375 0l0 1.4375l-1.359375 0l0 3.09375q0 0.46875 0.03125 0.65625q0.046875 0.1875 0.203125 0.359375q0.234375 0.234375 0.703125 0.234375q0.234375 0 0.5625 -0.109375l0 1.484375zm8.905304 -7.15625l-4.703125 9.796875l-2.65625 0l1.96875 -2.578125l-2.84375 -7.21875l2.765625 0l1.65625 4.203125l2.03125 -4.203125l1.78125 0zm8.956268 3.4375q0 0.90625 -0.21875 1.640625q-0.203125 0.71875 -0.609375 1.234375q-0.40625 0.515625 -1.0 0.796875q-0.578125 0.265625 -1.28125 0.265625q-0.40625 0 -0.71875 -0.078125q-0.296875 -0.0625 -0.625 -0.25q-0.328125 -0.203125 -0.625 -0.46875l-0.03125 0l0 0.640625l0 2.578125l-2.5625 0l0 -9.796875l2.5625 0l0 1.359375l0.03125 0q0.171875 -0.484375 0.5 -0.8125q0.34375 -0.34375 0.796875 -0.53125q0.46875 -0.1875 1.0 -0.1875q0.640625 0 1.15625 0.25q0.53125 0.25 0.890625 0.71875q0.359375 0.453125 0.546875 1.125q0.1875 0.671875 0.1875 1.515625zm-2.734375 0.171875q0 -0.59375 -0.140625 -1.015625q-0.140625 -0.4375 -0.40625 -0.65625q-0.25 -0.21875 -0.625 -0.21875q-0.671875 0 -1.203125 1.046875l0 2.40625q0.265625 0.375 0.515625 0.53125q0.265625 0.15625 0.609375 0.15625q0.34375 0 0.640625 -0.28125q0.296875 -0.296875 0.453125 -0.8125q0.15625 -0.515625 0.15625 -1.15625zm10.789368 3.375q-0.234375 0.0625 -0.4375 0.109375q-1.296875 0.296875 -2.515625 0.296875q-0.890625 0 -1.65625 -0.21875q-0.75 -0.234375 -1.234375 -0.625q-0.609375 -0.515625 -0.984375 -1.34375q-0.359375 -0.84375 -0.359375 -1.703125q0 -0.8125 0.265625 -1.5q0.28125 -0.6875 0.78125 -1.171875q0.5 -0.484375 1.203125 -0.734375q0.71875 -0.265625 1.578125 -0.265625q0.828125 0 1.40625 0.203125q0.578125 0.203125 1.0 0.625q0.5625 0.59375 0.75 1.328125q0.09375 0.359375 0.125 0.640625q0.046875 0.265625 0.0625 0.640625q0.015625 0.359375 0.015625 0.90625l-4.53125 0q0.03125 0.3125 0.078125 0.515625q0.046875 0.1875 0.171875 0.375q0.234375 0.359375 0.640625 0.515625q0.421875 0.15625 1.15625 0.15625q0.671875 0 1.109375 -0.078125q0.4375 -0.078125 1.375 -0.375l0 1.703125zm-2.421875 -4.09375l0 -0.109375q0 -0.8125 -0.234375 -1.171875q-0.21875 -0.375 -0.71875 -0.375q-0.359375 0 -0.625 0.203125q-0.25 0.1875 -0.390625 0.5625q-0.140625 0.359375 -0.171875 0.890625l2.140625 0zm10.992889 -2.875q0 0.515625 -0.171875 0.9375q-0.203125 0.515625 -0.625 0.984375q-0.40625 0.453125 -1.3125 1.171875l-0.796875 0.625q-0.671875 0.53125 -1.046875 0.90625q-0.15625 0.171875 -0.25 0.3125q-0.078125 0.125 -0.15625 0.328125l4.34375 0l0 1.9375l-7.15625 0l0 -1.9375q0.453125 -0.4375 1.0625 -0.90625l0.90625 -0.734375q0.828125 -0.671875 1.375 -1.265625q0.5625 -0.609375 0.828125 -1.15625q0.265625 -0.546875 0.265625 -1.0625q0 -0.625 -0.421875 -0.953125q-0.40625 -0.34375 -1.203125 -0.34375q-0.3125 0 -0.90625 0.109375q-0.390625 0.078125 -0.78125 0.21875q-0.390625 0.125 -0.875 0.34375l0 -1.703125q0.046875 0 0.140625 -0.03125q0.109375 -0.03125 0.1875 -0.046875q0.078125 -0.03125 0.09375 -0.03125q0.515625 -0.140625 1.375 -0.25q0.859375 -0.125 1.359375 -0.125q0.859375 0 1.5625 0.1875q0.703125 0.1875 1.1875 0.53125q0.484375 0.34375 0.75 0.84375q0.265625 0.484375 0.265625 1.109375z" fill-rule="nonzero"/><path fill="#000000" fill-opacity="0.0" d="m261.70078 220.61417l218.29922 0l0 34.015762l-218.29922 0z" fill-rule="evenodd"/><path stroke="#000000" stroke-width="2.0" stroke-linejoin="round" stroke-linecap="butt" d="m261.70078 220.61417l218.29922 0l0 34.015762l-218.29922 0z" fill-rule="evenodd"/><path fill="#000000" d="m274.43515 242.10954l0 -3.0625l-3.046875 0l0 -0.953125l3.046875 0l0 -3.0625l0.96875 0l0 3.0625l3.046875 0l0 0.953125l-3.046875 0l0 3.0625l-0.96875 0zm15.097931 0.09375q-1.234375 0.375 -2.140625 0.375q-0.953125 0 -1.75 -0.5q-0.78125 -0.515625 -1.1875 -1.34375q-0.390625 -0.84375 -0.390625 -1.890625q0 -1.5625 0.859375 -2.59375q0.875 -1.046875 2.6875 -1.046875q0.828125 0 1.84375 0.21875l0 1.078125q-1.078125 -0.3125 -1.765625 -0.3125q-1.078125 0 -1.625 0.796875q-0.546875 0.796875 -0.546875 1.90625q0 1.1875 0.609375 1.921875q0.609375 0.734375 1.59375 0.734375q0.890625 0 1.8125 -0.453125l0 1.109375zm1.9205322 0.21875l0 -10.28125l1.28125 0l0 10.28125l-1.28125 0zm6.665161 0.15625q-1.015625 0 -1.765625 -0.40625q-0.734375 -0.40625 -1.171875 -1.296875q-0.4375 -0.890625 -0.4375 -1.984375q0 -1.03125 0.390625 -1.90625q0.40625 -0.890625 1.15625 -1.328125q0.765625 -0.453125 1.828125 -0.453125q1.015625 0 1.75 0.40625q0.75 0.40625 1.1875 1.296875q0.4375 0.890625 0.4375 1.984375q0 1.03125 -0.40625 1.921875q-0.40625 0.875 -1.15625 1.328125q-0.75 0.4375 -1.8125 0.4375zm0 -0.953125q0.953125 0 1.484375 -0.703125q0.53125 -0.71875 0.53125 -2.03125q0 -1.3125 -0.53125 -2.015625q-0.53125 -0.71875 -1.484375 -0.71875q-0.953125 0 -1.484375 0.71875q-0.515625 0.703125 -0.515625 2.015625q0 1.3125 0.515625 2.03125q0.53125 0.703125 1.484375 0.703125zm5.3743896 0.796875l0 -7.0625l1.28125 0l0 1.328125q0.484375 -0.71875 1.125 -1.09375q0.65625 -0.390625 1.359375 -0.390625q0.890625 0 1.453125 0.578125q0.5625 0.5625 0.5625 1.5625l0 5.078125l-1.28125 0l0 -4.65625q0 -0.734375 -0.140625 -0.96875q-0.125 -0.234375 -0.359375 -0.359375q-0.234375 -0.140625 -0.5 -0.140625q-0.46875 0 -1.03125 0.296875q-0.546875 0.296875 -1.1875 1.25l0 4.578125l-1.28125 0zm13.459015 -0.234375q-1.296875 0.390625 -2.21875 0.390625q-1.640625 0 -2.59375 -1.109375q-0.9375 -1.109375 -0.9375 -2.609375q0 -1.0 0.421875 -1.890625q0.421875 -0.90625 1.09375 -1.34375q0.671875 -0.4375 1.578125 -0.4375q1.21875 0 1.953125 0.890625q0.734375 0.875 0.734375 2.625l-0.015625 0.390625l-4.453125 0q0.109375 0.9375 0.40625 1.453125q0.296875 0.5 0.796875 0.78125q0.5 0.28125 1.265625 0.28125q0.390625 0 0.765625 -0.0625q0.390625 -0.078125 1.203125 -0.375l0 1.015625zm-4.375 -4.0625l3.109375 0q0 -1.0625 -0.421875 -1.515625q-0.40625 -0.453125 -1.046875 -0.453125q-0.734375 0 -1.15625 0.5q-0.40625 0.484375 -0.484375 1.46875zm9.191132 5.34375l0 0.875q-1.0625 -0.71875 -1.71875 -1.71875q-0.65625 -1.0 -1.0 -2.140625q-0.34375 -1.140625 -0.34375 -2.234375q0 -1.09375 0.34375 -2.234375q0.34375 -1.140625 1.0 -2.140625q0.65625 -1.0 1.71875 -1.734375l0 0.890625q-0.734375 0.796875 -1.09375 1.546875q-0.34375 0.75 -0.515625 1.6875q-0.171875 0.9375 -0.171875 1.984375q0 1.03125 0.171875 1.984375q0.171875 0.9375 0.515625 1.6875q0.359375 0.734375 1.09375 1.546875zm0.9592285 -10.4375l0 -0.890625q1.0625 0.734375 1.71875 1.734375q0.65625 1.0 0.984375 2.140625q0.34375 1.140625 0.34375 2.234375q0 1.09375 -0.34375 2.234375q-0.328125 1.140625 -0.984375 2.140625q-0.65625 1.0 -1.71875 1.71875l0 -0.875q0.734375 -0.8125 1.078125 -1.546875q0.359375 -0.75 0.515625 -1.6875q0.171875 -0.953125 0.171875 -1.984375q0 -1.03125 -0.171875 -1.96875q-0.15625 -0.953125 -0.515625 -1.703125q-0.34375 -0.75 -1.078125 -1.546875zm9.535736 9.390625l0 -1.28125l1.28125 0l0 1.28125l-1.28125 0zm0 -5.78125l0 -1.28125l1.28125 0l0 1.28125l-1.28125 0zm8.215454 5.78125l0 -9.625l2.609375 0q1.40625 0 2.015625 0.28125q0.609375 0.265625 0.921875 0.828125q0.328125 0.5625 0.328125 1.40625q0 0.984375 -0.4375 1.734375q-0.421875 0.734375 -1.375 1.140625q-0.953125 0.40625 -2.109375 0.40625l-0.609375 0l0 3.828125l-1.34375 0zm1.34375 -4.859375l0.5625 0q1.359375 0 1.9375 -0.609375q0.59375 -0.625 0.59375 -1.546875q0 -0.484375 -0.1875 -0.828125q-0.1875 -0.34375 -0.609375 -0.546875q-0.40625 -0.21875 -1.453125 -0.21875l-0.84375 0l0 3.75zm6.054413 4.859375l0 -7.0625l1.28125 0l0 1.328125q0.359375 -0.71875 0.9375 -1.09375q0.59375 -0.390625 1.28125 -0.390625q0.1875 0 0.40625 0.03125l0 1.1875q-0.328125 -0.109375 -0.59375 -0.109375q-0.59375 0 -1.109375 0.375q-0.515625 0.359375 -0.921875 1.078125l0 4.65625l-1.28125 0zm8.266083 0.15625q-1.015625 0 -1.765625 -0.40625q-0.734375 -0.40625 -1.171875 -1.296875q-0.4375 -0.890625 -0.4375 -1.984375q0 -1.03125 0.390625 -1.90625q0.40625 -0.890625 1.15625 -1.328125q0.765625 -0.453125 1.828125 -0.453125q1.015625 0 1.75 0.40625q0.75 0.40625 1.1875 1.296875q0.4375 0.890625 0.4375 1.984375q0 1.03125 -0.40625 1.921875q-0.40625 0.875 -1.15625 1.328125q-0.75 0.4375 -1.8125 0.4375zm0 -0.953125q0.953125 0 1.484375 -0.703125q0.53125 -0.71875 0.53125 -2.03125q0 -1.3125 -0.53125 -2.015625q-0.53125 -0.71875 -1.484375 -0.71875q-0.953125 0 -1.484375 0.71875q-0.515625 0.703125 -0.515625 2.015625q0 1.3125 0.515625 2.03125q0.53125 0.703125 1.484375 0.703125zm8.53067 0.796875q-0.59375 0.15625 -1.03125 0.15625q-0.953125 0 -1.515625 -0.546875q-0.5625 -0.546875 -0.5625 -1.5625l0 -4.15625l-0.875 0l0 -0.953125l0.875 0l0 -1.28125l1.28125 -0.125l0 1.40625l1.859375 0l0 0.953125l-1.859375 0l0 3.921875q0 0.75 0.28125 1.078125q0.296875 0.3125 0.921875 0.3125q0.25 0 0.625 -0.09375l0 0.890625zm4.641266 0.15625q-1.015625 0 -1.765625 -0.40625q-0.734375 -0.40625 -1.171875 -1.296875q-0.4375 -0.890625 -0.4375 -1.984375q0 -1.03125 0.390625 -1.90625q0.40625 -0.890625 1.15625 -1.328125q0.765625 -0.453125 1.828125 -0.453125q1.015625 0 1.75 0.40625q0.75 0.40625 1.1875 1.296875q0.4375 0.890625 0.4375 1.984375q0 1.03125 -0.40625 1.921875q-0.40625 0.875 -1.15625 1.328125q-0.75 0.4375 -1.8125 0.4375zm0 -0.953125q0.953125 0 1.484375 -0.703125q0.53125 -0.71875 0.53125 -2.03125q0 -1.3125 -0.53125 -2.015625q-0.53125 -0.71875 -1.484375 -0.71875q-0.953125 0 -1.484375 0.71875q-0.515625 0.703125 -0.515625 2.015625q0 1.3125 0.515625 2.03125q0.53125 0.703125 1.484375 0.703125zm8.53067 0.796875q-0.59375 0.15625 -1.03125 0.15625q-0.953125 0 -1.515625 -0.546875q-0.5625 -0.546875 -0.5625 -1.5625l0 -4.15625l-0.875 0l0 -0.953125l0.875 0l0 -1.28125l1.28125 -0.125l0 1.40625l1.859375 0l0 0.953125l-1.859375 0l0 3.921875q0 0.75 0.28125 1.078125q0.296875 0.3125 0.921875 0.3125q0.25 0 0.625 -0.09375l0 0.890625zm2.2350159 2.578125l1.15625 -2.578125l-2.734375 -7.0625l1.375 0l2.03125 5.3125l2.15625 -5.3125l1.21875 0l-3.859375 9.640625l-1.34375 0zm6.55719 0l0 -9.640625l1.28125 0l0 1.328125q0.40625 -0.75 0.984375 -1.109375q0.59375 -0.375 1.375 -0.375q1.3125 0 2.03125 0.96875q0.71875 0.953125 0.71875 2.5q0 1.015625 -0.34375 1.921875q-0.328125 0.90625 -1.03125 1.453125q-0.6875 0.53125 -1.578125 0.53125q-0.359375 0 -0.9375 -0.109375q-0.5625 -0.09375 -1.21875 -0.84375l0 3.375l-1.28125 0zm1.28125 -4.265625q0.65625 0.59375 1.046875 0.75q0.390625 0.140625 0.84375 0.140625q0.9375 0 1.390625 -0.796875q0.453125 -0.796875 0.453125 -2.03125q0 -1.140625 -0.40625 -1.8125q-0.390625 -0.671875 -1.234375 -0.671875q-0.53125 0 -1.0625 0.296875q-0.515625 0.28125 -1.03125 0.875l0 3.25zm12.294891 1.453125q-1.296875 0.390625 -2.21875 0.390625q-1.640625 0 -2.59375 -1.109375q-0.9375 -1.109375 -0.9375 -2.609375q0 -1.0 0.421875 -1.890625q0.421875 -0.90625 1.09375 -1.34375q0.671875 -0.4375 1.578125 -0.4375q1.21875 0 1.953125 0.890625q0.734375 0.875 0.734375 2.625l-0.015625 0.390625l-4.453125 0q0.109375 0.9375 0.40625 1.453125q0.296875 0.5 0.796875 0.78125q0.5 0.28125 1.265625 0.28125q0.390625 0 0.765625 -0.0625q0.390625 -0.078125 1.203125 -0.375l0 1.015625zm-4.375 -4.0625l3.109375 0q0 -1.0625 -0.421875 -1.515625q-0.40625 -0.453125 -1.046875 -0.453125q-0.734375 0 -1.15625 0.5q-0.40625 0.484375 -0.484375 1.46875z" fill-rule="nonzero"/><path fill="#000000" fill-opacity="0.0" d="m261.70078 186.59842l218.29922 0l0 34.015747l-218.29922 0z" fill-rule="evenodd"/><path stroke="#000000" stroke-width="2.0" stroke-linejoin="round" stroke-linecap="butt" d="m261.70078 186.59842l218.29922 0l0 34.015747l-218.29922 0z" fill-rule="evenodd"/><path fill="#000000" d="m271.99765 208.4063l0 -1.609375l1.609375 0l0 1.609375l-1.609375 0zm4.217102 0l0 -1.609375l1.609375 0l0 1.609375l-1.609375 0zm4.217102 0l0 -1.609375l1.609375 0l0 1.609375l-1.609375 0z" fill-rule="nonzero"/><path fill="#000000" fill-opacity="0.0" d="m266.05774 118.33071l0.1574707 -29.259842" fill-rule="evenodd"/><path stroke="#000000" stroke-width="2.0" stroke-linejoin="round" stroke-linecap="butt" d="m266.05774 118.33071l0.09289551 -17.260017" fill-rule="evenodd"/><path stroke="#000000" stroke-width="2.0" stroke-linecap="butt" d="m269.45404 101.08847l-3.254547 -9.093842l-3.3522644 9.058281z" fill-rule="evenodd"/><path fill="#000000" fill-opacity="0.0" d="m79.94751 118.71654l323.0551 -0.88188934" fill-rule="evenodd"/><path stroke="#000000" stroke-width="2.0" stroke-linejoin="round" stroke-linecap="butt" d="m79.94751 118.71654l323.0551 -0.88188934" fill-rule="evenodd"/><path fill="#000000" fill-opacity="0.0" d="m79.50656 118.32809l-0.12598419 30.01574" fill-rule="evenodd"/><path stroke="#000000" stroke-width="2.0" stroke-linejoin="round" stroke-linecap="butt" d="m79.50656 118.32809l-0.12598419 30.01574" fill-rule="evenodd"/><path fill="#000000" fill-opacity="0.0" d="m403.1286 118.32809l-0.12597656 30.01574" fill-rule="evenodd"/><path stroke="#000000" stroke-width="2.0" stroke-linejoin="round" stroke-linecap="butt" d="m403.1286 118.32809l-0.12597656 30.01574" fill-rule="evenodd"/><path fill="#000000" fill-opacity="0.0" d="m7.4724407 21.03937l118.519684 0l0 34.015747l-118.519684 0z" fill-rule="evenodd"/><path stroke="#000000" stroke-width="3.0" stroke-linejoin="round" stroke-linecap="butt" d="m7.4724407 21.03937l118.519684 0l0 34.015747l-118.519684 0z" fill-rule="evenodd"/><path fill="#000000" d="m54.78354 42.565994q-0.34375 0.109375 -0.390625 0.125q-1.40625 0.390625 -3.046875 0.390625q-0.765625 0 -1.421875 -0.125q-0.65625 -0.109375 -1.234375 -0.34375q-0.578125 -0.234375 -1.0 -0.578125q-0.421875 -0.328125 -0.734375 -0.75q-0.3125 -0.421875 -0.546875 -0.96875q-0.234375 -0.546875 -0.34375 -1.109375q-0.109375 -0.5625 -0.109375 -1.1875q0 -0.75 0.15625 -1.453125q0.171875 -0.703125 0.5 -1.28125q0.328125 -0.59375 0.796875 -1.03125q0.453125 -0.453125 1.03125 -0.734375q0.578125 -0.28125 1.296875 -0.40625q0.71875 -0.140625 1.59375 -0.140625q0.90625 0 1.828125 0.09375q0.921875 0.09375 1.46875 0.234375l0 1.84375q-0.1875 -0.078125 -0.28125 -0.09375q-0.09375 -0.03125 -0.1875 -0.0625q-1.328125 -0.421875 -2.390625 -0.421875q-1.390625 0 -2.15625 0.71875q-0.4375 0.4375 -0.6875 1.140625q-0.234375 0.6875 -0.234375 1.546875q0 1.09375 0.375 1.875q0.390625 0.765625 1.125 1.171875q0.75 0.390625 1.8125 0.390625q0.453125 0 1.078125 -0.09375q0.5 -0.09375 0.828125 -0.171875q0.328125 -0.09375 0.875 -0.34375l0 1.765625zm4.0522156 0.28125l-2.5625 0l0 -10.28125l2.5625 0l0 10.28125zm4.809326 -8.359375l-2.5625 0l0 -1.921875l2.5625 0l0 1.921875zm0 8.359375l-2.5625 0l0 -7.21875l2.5625 0l0 7.21875zm8.699951 -0.234375q-0.234375 0.0625 -0.4375 0.109375q-1.296875 0.296875 -2.515625 0.296875q-0.890625 0 -1.65625 -0.21875q-0.75 -0.234375 -1.234375 -0.625q-0.609375 -0.515625 -0.984375 -1.34375q-0.359375 -0.84375 -0.359375 -1.703125q0 -0.8125 0.265625 -1.5q0.28125 -0.6875 0.78125 -1.171875q0.5 -0.484375 1.203125 -0.734375q0.71875 -0.265625 1.578125 -0.265625q0.828125 0 1.40625 0.203125q0.578125 0.203125 1.0 0.625q0.5625 0.59375 0.75 1.328125q0.09375 0.359375 0.125 0.640625q0.046875 0.265625 0.0625 0.640625q0.015625 0.359375 0.015625 0.90625l-4.53125 0q0.03125 0.3125 0.078125 0.515625q0.046875 0.1875 0.171875 0.375q0.234375 0.359375 0.640625 0.515625q0.421875 0.15625 1.15625 0.15625q0.671875 0 1.109375 -0.078125q0.4375 -0.078125 1.375 -0.375l0 1.703125zm-2.421875 -4.09375l0 -0.109375q0 -0.8125 -0.234375 -1.171875q-0.21875 -0.375 -0.71875 -0.375q-0.359375 0 -0.625 0.203125q-0.25 0.1875 -0.390625 0.5625q-0.140625 0.359375 -0.171875 0.890625l2.140625 0zm11.211655 4.328125l-2.5625 0l0 -4.484375q0 -0.53125 -0.15625 -0.75q-0.140625 -0.234375 -0.46875 -0.234375q-0.34375 0 -0.65625 0.265625q-0.3125 0.25 -0.65625 0.796875l0 4.40625l-2.5625 0l0 -7.21875l2.5625 0l0 1.359375l0.03125 0q0.34375 -0.734375 0.953125 -1.125q0.625 -0.40625 1.40625 -0.40625q0.875 0 1.46875 0.53125q0.359375 0.328125 0.5 0.75q0.140625 0.40625 0.140625 1.078125l0 5.03125zm6.39093 -0.0625q-0.46875 0.140625 -0.75 0.171875q-0.265625 0.046875 -0.6875 0.046875q-1.109375 0 -1.78125 -0.40625q-0.5 -0.3125 -0.6875 -0.765625q-0.171875 -0.46875 -0.171875 -1.40625l0 -3.359375l-0.71875 0l0 -1.4375l0.71875 0l0 -1.140625l2.578125 -0.3125l0 1.453125l1.359375 0l0 1.4375l-1.359375 0l0 3.09375q0 0.46875 0.03125 0.65625q0.046875 0.1875 0.203125 0.359375q0.234375 0.234375 0.703125 0.234375q0.234375 0 0.5625 -0.109375l0 1.484375z" fill-rule="nonzero"/><path fill="#000000" fill-opacity="0.0" d="m153.27559 9.826772l22.960632 0l0 28.220474l-22.960632 0z" fill-rule="evenodd"/><path fill="#000000" d="m166.24434 29.06677l-0.9375 0l0 -5.96875q-0.34375 0.328125 -0.890625 0.65625q-0.546875 0.3125 -0.984375 0.46875l0 -0.90625q0.796875 -0.359375 1.375 -0.890625q0.59375 -0.53125 0.828125 -1.015625l0.609375 0l0 7.65625z" fill-rule="nonzero"/><path fill="#000000" fill-opacity="0.0" d="m125.99213 9.826772l20.283463 0l0 28.220474l-20.283463 0z" fill-rule="evenodd"/><path fill="#000000" d="m138.96088 29.06677l-0.9375 0l0 -5.96875q-0.34375 0.328125 -0.890625 0.65625q-0.546875 0.3125 -0.984375 0.46875l0 -0.90625q0.796875 -0.359375 1.375 -0.890625q0.59375 -0.53125 0.828125 -1.015625l0.609375 0l0 7.65625z" fill-rule="nonzero"/></g></svg>