<svg version="1.1" viewBox="0.0 0.0 825.0 269.0" fill="none" stroke="none" stroke-linecap="square" stroke-miterlimit="10" xmlns:xlink="http://www.w3.org/1999/xlink" xmlns="http://www.w3.org/2000/svg"><clipPath id="p.0"><path d="m0 0l825.0 0l0 269.0l-825.0 0l0 -269.0z" clip-rule="nonzero"/></clipPath><g clip-path="url(#p.0)"><path fill="#000000" fill-opacity="0.0" d="m0 0l825.0 0l0 269.0l-825.0 0z" fill-rule="evenodd"/><path fill="#000000" fill-opacity="0.0" d="m711.0 122.685036l65.13385 0l0 48.62992l-65.13385 0z" fill-rule="evenodd"/><path fill="#000000" d="m725.3906 150.94063q-0.65625 0.5625 -1.265625 0.796875q-0.59375 0.21875 -1.28125 0.21875q-1.140625 0 -1.75 -0.546875q-0.609375 -0.5625 -0.609375 -1.4375q0 -0.5 0.21875 -0.921875q0.234375 -0.421875 0.609375 -0.671875q0.375 -0.25 0.84375 -0.390625q0.34375 -0.078125 1.046875 -0.171875q1.421875 -0.171875 2.09375 -0.40625q0 -0.234375 0 -0.296875q0 -0.71875 -0.328125 -1.015625q-0.453125 -0.390625 -1.34375 -0.390625q-0.8125 0 -1.21875 0.296875q-0.390625 0.28125 -0.578125 1.015625l-1.140625 -0.15625q0.15625 -0.734375 0.515625 -1.1875q0.359375 -0.453125 1.03125 -0.6875q0.671875 -0.25 1.5625 -0.25q0.890625 0 1.4375 0.203125q0.5625 0.203125 0.8125 0.53125q0.265625 0.3125 0.375 0.796875q0.046875 0.296875 0.046875 1.078125l0 1.5625q0 1.625 0.078125 2.0625q0.078125 0.4375 0.296875 0.828125l-1.21875 0q-0.1875 -0.359375 -0.234375 -0.859375zm-0.09375 -2.609375q-0.640625 0.265625 -1.921875 0.4375q-0.71875 0.109375 -1.015625 0.25q-0.296875 0.125 -0.46875 0.375q-0.15625 0.25 -0.15625 0.546875q0 0.46875 0.34375 0.78125q0.359375 0.3125 1.046875 0.3125q0.671875 0 1.203125 -0.296875q0.53125 -0.296875 0.78125 -0.8125q0.1875 -0.390625 0.1875 -1.171875l0 -0.421875zm2.5218506 1.40625l1.15625 -0.1875q0.109375 0.703125 0.546875 1.078125q0.453125 0.359375 1.25 0.359375q0.8125 0 1.203125 -0.328125q0.390625 -0.328125 0.390625 -0.765625q0 -0.390625 -0.359375 -0.625q-0.234375 -0.15625 -1.1875 -0.390625q-1.296875 -0.328125 -1.796875 -0.5625q-0.484375 -0.25 -0.75 -0.65625q-0.25 -0.421875 -0.25 -0.9375q0 -0.453125 0.203125 -0.84375q0.21875 -0.40625 0.578125 -0.671875q0.28125 -0.1875 0.75 -0.328125q0.46875 -0.140625 1.015625 -0.140625q0.8125 0 1.421875 0.234375q0.609375 0.234375 0.90625 0.640625q0.296875 0.390625 0.40625 1.0625l-1.140625 0.15625q-0.078125 -0.53125 -0.453125 -0.828125q-0.375 -0.3125 -1.0625 -0.3125q-0.8125 0 -1.15625 0.265625q-0.34375 0.265625 -0.34375 0.625q0 0.234375 0.140625 0.421875q0.15625 0.1875 0.453125 0.3125q0.171875 0.0625 1.03125 0.296875q1.25 0.328125 1.734375 0.546875q0.5 0.203125 0.78125 0.609375q0.28125 0.40625 0.28125 1.0q0 0.59375 -0.34375 1.109375q-0.34375 0.515625 -1.0 0.796875q-0.640625 0.28125 -1.453125 0.28125q-1.34375 0 -2.046875 -0.5625q-0.703125 -0.5625 -0.90625 -1.65625zm7.1484375 2.0625l0 -9.546875l1.171875 0l0 5.453125l2.765625 -2.8125l1.515625 0l-2.640625 2.5625l2.90625 4.34375l-1.4375 0l-2.28125 -3.53125l-0.828125 0.796875l0 2.734375l-1.171875 0zm6.1796875 -2.0625l1.15625 -0.1875q0.109375 0.703125 0.546875 1.078125q0.453125 0.359375 1.25 0.359375q0.8125 0 1.203125 -0.328125q0.390625 -0.328125 0.390625 -0.765625q0 -0.390625 -0.359375 -0.625q-0.234375 -0.15625 -1.1875 -0.390625q-1.296875 -0.328125 -1.796875 -0.5625q-0.484375 -0.25 -0.75 -0.65625q-0.25 -0.421875 -0.25 -0.9375q0 -0.453125 0.203125 -0.84375q0.21875 -0.40625 0.578125 -0.671875q0.28125 -0.1875 0.75 -0.328125q0.46875 -0.140625 1.015625 -0.140625q0.8125 0 1.421875 0.234375q0.609375 0.234375 0.90625 0.640625q0.296875 0.390625 0.40625 1.0625l-1.140625 0.15625q-0.078125 -0.53125 -0.453125 -0.828125q-0.375 -0.3125 -1.0625 -0.3125q-0.8125 0 -1.15625 0.265625q-0.34375 0.265625 -0.34375 0.625q0 0.234375 0.140625 0.421875q0.15625 0.1875 0.453125 0.3125q0.171875 0.0625 1.03125 0.296875q1.25 0.328125 1.734375 0.546875q0.5 0.203125 0.78125 0.609375q0.28125 0.40625 0.28125 1.0q0 0.59375 -0.34375 1.109375q-0.34375 0.515625 -1.0 0.796875q-0.640625 0.28125 -1.453125 0.28125q-1.34375 0 -2.046875 -0.5625q-0.703125 -0.5625 -0.90625 -1.65625z" fill-rule="nonzero"/><path fill="#000000" fill-opacity="0.0" d="m605.22046 90.88976l211.55908 0l0 30.992126l-211.55908 0z" fill-rule="evenodd"/><path stroke="#000000" stroke-width="3.0" stroke-linejoin="round" stroke-linecap="butt" d="m605.22046 90.88976l211.55908 0l0 30.992126l-211.55908 0z" fill-rule="evenodd"/><path fill="#000000" d="m699.0513 110.90458q-0.34375 0.109375 -0.390625 0.125q-1.40625 0.390625 -3.046875 0.390625q-0.765625 0 -1.421875 -0.125q-0.65625 -0.109375 -1.234375 -0.34375q-0.578125 -0.234375 -1.0 -0.578125q-0.421875 -0.328125 -0.734375 -0.75q-0.3125 -0.421875 -0.546875 -0.96875q-0.234375 -0.546875 -0.34375 -1.109375q-0.109375 -0.5625 -0.109375 -1.1875q0 -0.75 0.15625 -1.453125q0.171875 -0.703125 0.5 -1.28125q0.328125 -0.59375 0.796875 -1.03125q0.453125 -0.453125 1.03125 -0.734375q0.578125 -0.28125 1.296875 -0.40625q0.71875 -0.140625 1.59375 -0.140625q0.90625 0 1.828125 0.09375q0.921875 0.09375 1.46875 0.234375l0 1.84375q-0.1875 -0.078125 -0.28125 -0.09375q-0.09375 -0.03125 -0.1875 -0.0625q-1.328125 -0.421875 -2.390625 -0.421875q-1.390625 0 -2.15625 0.71875q-0.4375 0.4375 -0.6875 1.140625q-0.234375 0.6875 -0.234375 1.546875q0 1.09375 0.375 1.875q0.390625 0.765625 1.125 1.171875q0.75 0.390625 1.8125 0.390625q0.453125 0 1.078125 -0.09375q0.5 -0.09375 0.828125 -0.171875q0.328125 -0.09375 0.875 -0.34375l0 1.765625zm4.052185 0.28125l-2.5625 0l0 -10.28125l2.5625 0l0 10.28125zm4.809326 -8.359375l-2.5625 0l0 -1.921875l2.5625 0l0 1.921875zm0 8.359375l-2.5625 0l0 -7.21875l2.5625 0l0 7.21875zm8.699951 -0.234375q-0.234375 0.0625 -0.4375 0.109375q-1.296875 0.296875 -2.515625 0.296875q-0.890625 0 -1.65625 -0.21875q-0.75 -0.234375 -1.234375 -0.625q-0.609375 -0.515625 -0.984375 -1.34375q-0.359375 -0.84375 -0.359375 -1.703125q0 -0.8125 0.265625 -1.5q0.28125 -0.6875 0.78125 -1.171875q0.5 -0.484375 1.203125 -0.734375q0.71875 -0.265625 1.578125 -0.265625q0.828125 0 1.40625 0.203125q0.578125 0.203125 1.0 0.625q0.5625 0.59375 0.75 1.328125q0.09375 0.359375 0.125 0.640625q0.046875 0.265625 0.0625 0.640625q0.015625 0.359375 0.015625 0.90625l-4.53125 0q0.03125 0.3125 0.078125 0.515625q0.046875 0.1875 0.171875 0.375q0.234375 0.359375 0.640625 0.515625q0.421875 0.15625 1.15625 0.15625q0.671875 0 1.109375 -0.078125q0.4375 -0.078125 1.375 -0.375l0 1.703125zm-2.421875 -4.09375l0 -0.109375q0 -0.8125 -0.234375 -1.171875q-0.21875 -0.375 -0.71875 -0.375q-0.359375 0 -0.625 0.203125q-0.25 0.1875 -0.390625 0.5625q-0.140625 0.359375 -0.171875 0.890625l2.140625 0zm11.21167 4.328125l-2.5625 0l0 -4.484375q0 -0.53125 -0.15625 -0.75q-0.140625 -0.234375 -0.46875 -0.234375q-0.34375 0 -0.65625 0.265625q-0.3125 0.25 -0.65625 0.796875l0 4.40625l-2.5625 0l0 -7.21875l2.5625 0l0 1.359375l0.03125 0q0.34375 -0.734375 0.953125 -1.125q0.625 -0.40625 1.40625 -0.40625q0.875 0 1.46875 0.53125q0.359375 0.328125 0.5 0.75q0.140625 0.40625 0.140625 1.078125l0 5.03125zm6.39093 -0.0625q-0.46875 0.140625 -0.75 0.171875q-0.265625 0.046875 -0.6875 0.046875q-1.109375 0 -1.78125 -0.40625q-0.5 -0.3125 -0.6875 -0.765625q-0.171875 -0.46875 -0.171875 -1.40625l0 -3.359375l-0.71875 0l0 -1.4375l0.71875 0l0 -1.140625l2.578125 -0.3125l0 1.453125l1.359375 0l0 1.4375l-1.359375 0l0 3.09375q0 0.46875 0.03125 0.65625q0.046875 0.1875 0.203125 0.359375q0.234375 0.234375 0.703125 0.234375q0.234375 0 0.5625 -0.109375l0 1.484375z" fill-rule="nonzero"/><path fill="#000000" fill-opacity="0.0" d="m605.22046 200.41733l-81.22833 0" fill-rule="evenodd"/><path stroke="#000000" stroke-width="2.0" stroke-linejoin="round" stroke-linecap="butt" d="m605.22046 200.41733l-74.374146 0" fill-rule="evenodd"/><path fill="#000000" stroke="#000000" stroke-width="2.0" stroke-linecap="butt" d="m530.8463 200.41733l2.2491455 -2.249176l-6.1795044 2.249176l6.1795044 2.2491608z" fill-rule="evenodd"/><path fill="#000000" fill-opacity="0.0" d="m195.34908 20.674541l149.76378 0l0 44.692913l-149.76378 0z" fill-rule="evenodd"/><path stroke="#000000" stroke-width="3.0" stroke-linejoin="round" stroke-linecap="butt" d="m195.34908 20.674541l149.76378 0l0 44.692913l-149.76378 0z" fill-rule="evenodd"/><path fill="#000000" d="m232.87486 39.508495l-7.0625 -3.546875l7.0625 -3.53125l0 1.125l-4.90625 2.40625l4.90625 2.421875l0 1.125zm8.427704 0l-7.0625 -3.546875l7.0625 -3.53125l0 1.125l-4.90625 2.40625l4.90625 2.421875l0 1.125zm1.9589539 0.3125l0 -7.0625l1.28125 0l0 7.0625l-1.28125 0zm0 -8.343748l0 -1.28125l1.28125 0l0 1.28125l-1.28125 0zm3.8526611 8.343748l0 -7.0625l1.28125 0l0 1.328125q0.484375 -0.71875 1.125 -1.09375q0.65625 -0.390625 1.359375 -0.390625q0.890625 0 1.453125 0.578125q0.5625 0.5625 0.5625 1.5625l0 5.078125l-1.28125 0l0 -4.65625q0 -0.734375 -0.140625 -0.96875q-0.125 -0.234375 -0.359375 -0.359375q-0.234375 -0.140625 -0.5 -0.140625q-0.46875 0 -1.03125 0.296875q-0.546875 0.296875 -1.1875 1.25l0 4.578125l-1.28125 0zm11.42775 0q-0.59375 0.15625 -1.03125 0.15625q-0.953125 0 -1.5156097 -0.546875q-0.5625 -0.546875 -0.5625 -1.5625l0 -4.15625l-0.875 0l0 -0.953125l0.875 0l0 -1.2812481l1.2812347 -0.125l0 1.4062481l1.859375 0l0 0.953125l-1.859375 0l0 3.921875q0 0.75 0.28125 1.078125q0.296875 0.3125 0.921875 0.3125q0.25 0 0.625 -0.09375l0 0.890625zm7.0162964 -0.234375q-1.296875 0.390625 -2.21875 0.390625q-1.640625 0 -2.59375 -1.109375q-0.9375 -1.109375 -0.9375 -2.609375q0 -1.0 0.421875 -1.890625q0.421875 -0.90625 1.09375 -1.34375q0.671875 -0.4375 1.578125 -0.4375q1.21875 0 1.953125 0.890625q0.734375 0.875 0.734375 2.625l-0.015625 0.390625l-4.453125 0q0.109375 0.9375 0.40625 1.453125q0.296875 0.5 0.796875 0.78125q0.5 0.28125 1.265625 0.28125q0.390625 0 0.765625 -0.0625q0.390625 -0.078125 1.203125 -0.375l0 1.015625zm-4.375 -4.0625l3.109375 0q0 -1.0625 -0.421875 -1.515625q-0.40625 -0.453125 -1.046875 -0.453125q-0.734375 0 -1.15625 0.5q-0.40625 0.484375 -0.484375 1.46875zm6.612976 4.296875l0 -7.0625l1.28125 0l0 1.328125q0.359375 -0.71875 0.9375 -1.09375q0.59375 -0.390625 1.28125 -0.390625q0.1875 0 0.40625 0.03125l0 1.1875q-0.328125 -0.109375 -0.59375 -0.109375q-0.59375 0 -1.109375 0.375q-0.515625 0.359375 -0.921875 1.078125l0 4.65625l-1.28125 0zm5.6879883 0l0 -6.109375l-1.0 0l0 -0.953125l1.0 0l0 -0.8437481q0 -0.875 0.21875 -1.375q0.234375 -0.5 0.75 -0.828125q0.515625 -0.328125 1.328125 -0.328125q0.65625 0 1.484375 0.21875l0 1.015625q-0.875 -0.265625 -1.390625 -0.265625q-0.296875 0 -0.546875 0.09375q-0.25 0.09375 -0.40625 0.328125q-0.140625 0.234375 -0.140625 1.0l0 0.9843731l1.765625 0l0 0.953125l-1.765625 0l0 6.109375l-1.296875 0zm8.306671 -0.890625q-0.5625 0.515625 -1.125 0.78125q-0.5625 0.265625 -1.09375 0.265625q-0.75 0 -1.390625 -0.484375q-0.640625 -0.5 -0.640625 -1.453125q0 -1.03125 0.890625 -1.703125q0.90625 -0.6875 2.875 -0.6875l0.296875 0l0 -0.859375q0 -0.5 -0.140625 -0.734375q-0.125 -0.234375 -0.421875 -0.359375q-0.28125 -0.140625 -0.71875 -0.140625q-1.0 0 -2.171875 0.625l0 -1.0625q1.296875 -0.515625 2.4375 -0.515625q0.625 0 1.140625 0.203125q0.53125 0.1875 0.84375 0.625q0.3125 0.421875 0.3125 1.359375l0 3.203125q0 0.53125 0.078125 0.71875q0.09375 0.1875 0.25 0.28125q0.15625 0.09375 0.359375 0.09375q0.078125 0 0.234375 -0.015625l0.09375 0.703125q-0.4375 0.203125 -0.953125 0.203125q-0.359375 0 -0.6875 -0.21875q-0.328125 -0.234375 -0.46875 -0.828125zm-0.1875 -0.703125l0 -1.828125l-0.40625 -0.015625q-1.015625 0 -1.703125 0.390625q-0.671875 0.390625 -0.671875 1.0625q0 0.46875 0.328125 0.78125q0.34375 0.3125 0.796875 0.3125q0.390625 0 0.8125 -0.171875q0.421875 -0.1875 0.84375 -0.53125zm8.813538 1.375q-1.234375 0.375 -2.140625 0.375q-0.953125 0 -1.75 -0.5q-0.78125 -0.515625 -1.1875 -1.34375q-0.390625 -0.84375 -0.390625 -1.890625q0 -1.5625 0.859375 -2.59375q0.875 -1.046875 2.6875 -1.046875q0.828125 0 1.84375 0.21875l0 1.078125q-1.078125 -0.3125 -1.765625 -0.3125q-1.078125 0 -1.625 0.796875q-0.546875 0.796875 -0.546875 1.90625q0 1.1875 0.609375 1.921875q0.609375 0.734375 1.59375 0.734375q0.890625 0 1.8125 -0.453125l0 1.109375zm7.108032 -0.015625q-1.296875 0.390625 -2.21875 0.390625q-1.640625 0 -2.59375 -1.109375q-0.9375 -1.109375 -0.9375 -2.609375q0 -1.0 0.421875 -1.890625q0.421875 -0.90625 1.09375 -1.34375q0.671875 -0.4375 1.578125 -0.4375q1.21875 0 1.953125 0.890625q0.734375 0.875 0.734375 2.625l-0.015625 0.390625l-4.453125 0q0.109375 0.9375 0.40625 1.453125q0.296875 0.5 0.796875 0.78125q0.5 0.28125 1.265625 0.28125q0.390625 0 0.765625 -0.0625q0.390625 -0.078125 1.203125 -0.375l0 1.015625zm-4.375 -4.0625l3.109375 0q0 -1.0625 -0.421875 -1.515625q-0.40625 -0.453125 -1.046875 -0.453125q-0.734375 0 -1.15625 0.5q-0.40625 0.484375 -0.484375 1.46875zm6.019226 -3.09375l7.0625 3.53125l-7.0625 3.546875l0 -1.125l4.90625 -2.421875l-4.90625 -2.40625l0 -1.125zm8.427704 0l7.0625 3.53125l-7.0625 3.546875l0 -1.125l4.90625 -2.421875l-4.90625 -2.40625l0 -1.125z" fill-rule="nonzero"/><path fill="#000000" d="m235.14302 48.77412q-0.171875 0.78125 -0.546875 1.390625q-0.359375 0.609375 -0.9375 1.046875q-0.578125 0.4375 -1.328125 0.65625q-0.75 0.21875 -1.625 0.21875l-1.03125 0l-0.796875 3.734375l-2.40625 0l2.046875 -9.640625l3.9375 0q0.703125 0 1.109375 0.0625q0.421875 0.046875 0.6875 0.171875q0.28125 0.125 0.515625 0.328125q0.671875 0.640625 0.375 2.03125zm-2.640625 0.21875q0.25 -1.203125 -1.25 -1.203125l-0.671875 0l-0.59375 2.84375l0.3125 0q0.875 0 1.453125 -0.421875q0.578125 -0.4375 0.75 -1.21875zm9.040848 1.71875q-0.28125 -0.125 -0.453125 -0.15625q-0.171875 -0.03125 -0.5 -0.03125q-0.5625 0 -1.0 0.21875q-0.4375 0.203125 -0.859375 0.671875l-0.9375 4.40625l-2.5625 0l1.53125 -7.21875l2.5625 0l-0.28125 1.359375l0.03125 0q0.171875 -0.34375 0.546875 -0.671875q0.375 -0.328125 0.875 -0.578125q0.5625 -0.28125 1.21875 -0.28125q0.1875 0 0.296875 0.046875l-0.46875 2.234375zm8.5078125 1.5q-0.1875 0.875 -0.609375 1.578125q-0.421875 0.6875 -1.046875 1.1875q-0.625 0.5 -1.421875 0.75q-0.78125 0.25 -1.6875 0.25q-0.9375 0 -1.640625 -0.25q-0.6875 -0.25 -1.125 -0.734375q-0.4375 -0.5 -0.5625 -1.203125q-0.125 -0.71875 0.0625 -1.59375q0.1875 -0.859375 0.609375 -1.5625q0.421875 -0.71875 1.046875 -1.203125q0.640625 -0.484375 1.421875 -0.734375q0.796875 -0.265625 1.734375 -0.265625q0.953125 0 1.640625 0.265625q0.6875 0.25 1.09375 0.734375q0.421875 0.484375 0.546875 1.1875q0.125 0.6875 -0.0625 1.59375zm-2.734375 -0.015625q0.234375 -1.046875 0 -1.671875q-0.21875 -0.640625 -0.796875 -0.640625q-0.375 0 -0.71875 0.296875q-0.34375 0.28125 -0.625 0.828125q-0.28125 0.53125 -0.421875 1.203125q-0.140625 0.65625 -0.09375 1.203125q0.046875 0.53125 0.265625 0.828125q0.21875 0.296875 0.59375 0.296875q0.578125 0 1.078125 -0.640625q0.5 -0.65625 0.71875 -1.703125zm10.5876465 3.625l-2.5625153 0l0.28125 -1.359375l-0.015625 0q-0.40625 0.703125 -1.109375 1.109375q-0.703125 0.40625 -1.5 0.40625q-0.859375 0 -1.40625 -0.421875q-0.53125 -0.4375 -0.6875 -1.25q-0.15625 -0.828125 0.078125 -1.921875q0.25 -1.21875 0.8125 -2.109375q0.578125 -0.890625 1.375 -1.359375q0.8125 -0.484375 1.75 -0.484375q0.59375 0 0.96875 0.171875q0.39064026 0.171875 0.84376526 0.625l0.015625 0l0.125 -0.625l0.65625 -3.0625l2.5625 0l-2.1875 10.28125zm-1.9687653 -2.765625l0.51564026 -2.421875q-0.34375 -0.671875 -0.96876526 -0.671875q-0.359375 0 -0.71875 0.28125q-0.34375 0.28125 -0.609375 0.8125q-0.265625 0.515625 -0.40625 1.140625q-0.1875 0.890625 0.015625 1.390625q0.21875 0.5 0.765625 0.5q0.671875 0 1.40625 -1.03125zm11.211227 2.765625l-2.5625 0l0.28125 -1.359375l-0.03125 0q-0.46875 0.71875 -1.1875 1.125q-0.703125 0.390625 -1.484375 0.390625q-0.875 0 -1.359375 -0.546875q-0.265625 -0.3125 -0.328125 -0.734375q-0.0625 -0.421875 0.078125 -1.078125l1.0625 -5.015625l2.5625 0l-0.953125 4.484375q-0.0625 0.34375 -0.046875 0.5625q0.015625 0.203125 0.125 0.3125q0.125 0.09375 0.34375 0.09375q0.34375 0 0.703125 -0.25q0.359375 -0.25 0.828125 -0.796875l0.9375 -4.40625l2.5625 0l-1.53125 7.21875zm7.98468 -0.09375q-1.28125 0.25 -2.40625 0.25q-0.515625 0 -0.9375 -0.046875q-0.421875 -0.046875 -0.765625 -0.15625q-0.328125 -0.125 -0.5625 -0.28125q-0.234375 -0.171875 -0.46875 -0.4375q-0.421875 -0.5 -0.546875 -1.234375q-0.109375 -0.734375 0.078125 -1.578125q0.234375 -1.140625 0.90625 -2.015625q0.6875 -0.875 1.71875 -1.328125q1.03125 -0.46875 2.265625 -0.46875q0.96875 0 2.15625 0.328125l-0.359375 1.703125q-1.125 -0.484375 -1.796875 -0.484375q-0.5 0 -0.953125 0.28125q-0.4375 0.265625 -0.75 0.765625q-0.296875 0.484375 -0.4375 1.140625q-0.21875 0.984375 0.171875 1.609375q0.390625 0.625 1.234375 0.625q0.71875 0 1.8125 -0.328125l-0.359375 1.65625zm5.8408813 0.03125q-0.5 0.140625 -0.78125 0.171875q-0.28125 0.046875 -0.703125 0.046875q-1.109375 0 -1.703125 -0.40625q-0.421875 -0.3125 -0.515625 -0.765625q-0.078125 -0.46875 0.125 -1.40625l0.71875 -3.359375l-0.71875 0l0.296875 -1.4375l0.71875 0l0.25 -1.140625l2.640625 -0.3125l-0.3125 1.453125l1.359375 0l-0.296875 1.4375l-1.359375 0l-0.65625 3.09375q-0.109375 0.46875 -0.109375 0.65625q0 0.1875 0.125 0.359375q0.1875 0.234375 0.65625 0.234375q0.234375 0 0.578125 -0.109375l-0.3125 1.484375zm9.311554 -2.3125q-0.109375 0.515625 -0.4375 1.0q-0.328125 0.46875 -0.78125 0.796875q-0.46875 0.3125 -1.0 0.453125q-0.515625 0.125 -1.375 0.125l-4.140625 0l2.046875 -9.640625l3.875 0q0.859375 0 1.3125 0.125q0.453125 0.109375 0.75 0.390625q0.1875 0.203125 0.3125 0.484375q0.125 0.265625 0.15625 0.5625q0.03125 0.296875 -0.03125 0.59375q-0.0625 0.296875 -0.21875 0.59375q-0.140625 0.296875 -0.359375 0.53125q-0.203125 0.234375 -0.5 0.453125q-0.4375 0.3125 -0.796875 0.46875q-0.359375 0.15625 -1.234375 0.40625q0.4375 0.078125 0.765625 0.1875q0.34375 0.09375 0.546875 0.21875q0.21875 0.109375 0.453125 0.296875q0.453125 0.359375 0.609375 0.859375q0.171875 0.5 0.046875 1.09375zm-1.921875 -4.75q0.0625 -0.28125 -0.015625 -0.484375q-0.078125 -0.203125 -0.28125 -0.28125q-0.15625 -0.0625 -0.34375 -0.078125q-0.1875 -0.015625 -0.859375 -0.015625l-0.28125 0l-0.46875 2.203125l0.484375 0q0.640625 0 1.140625 -0.375q0.5 -0.390625 0.625 -0.96875zm-0.625 4.453125q0.078125 -0.328125 -0.015625 -0.609375q-0.078125 -0.28125 -0.296875 -0.5q-0.21875 -0.21875 -0.546875 -0.3125q-0.328125 -0.109375 -0.734375 -0.109375l-0.375 0l-0.546875 2.5625l0.515625 0q0.625 0 0.953125 -0.0625q0.40625 -0.0625 0.6875 -0.328125q0.28125 -0.265625 0.359375 -0.640625zm10.3532715 2.671875q-0.75 0.15625 -1.3125 0.15625q-0.453125 0 -0.796875 -0.078125q-0.328125 -0.078125 -0.5 -0.203125q-0.1875 -0.15625 -0.328125 -0.515625l-0.171875 0q-0.515625 0.453125 -0.953125 0.625q-0.4375 0.171875 -1.015625 0.171875q-0.671875 0 -1.15625 -0.265625q-0.46875 -0.28125 -0.65625 -0.78125q-0.171875 -0.5 -0.03125 -1.140625q0.234375 -1.09375 1.15625 -1.75q0.59375 -0.421875 1.28125 -0.578125q0.703125 -0.171875 1.84375 -0.171875l0.53125 0l0.09375 -0.453125q0.203125 -1.0 -1.078125 -1.0q-0.578125 0 -1.34375 0.203125q-0.5625 0.15625 -1.15625 0.453125l0.34375 -1.609375q0.109375 -0.03125 0.203125 -0.0625q0.109375 -0.03125 0.1875 -0.046875q1.15625 -0.34375 2.421875 -0.34375q3.34375 0 2.859375 2.265625l-0.671875 3.125q-0.125 0.59375 0.28125 0.59375q0.078125 0 0.28125 -0.03125l-0.3125 1.4375zm-2.65625 -2.015625l0.25 -1.15625l-0.515625 0q-1.359375 0 -1.5625 0.953125q-0.078125 0.359375 0.078125 0.59375q0.171875 0.21875 0.53125 0.21875q0.5625 0 1.21875 -0.609375zm11.179047 -0.21875q-0.109375 0.515625 -0.453125 0.96875q-0.328125 0.453125 -0.84375 0.765625q-0.5 0.3125 -1.1875 0.484375q-0.671875 0.171875 -1.453125 0.171875q-0.71875 0 -1.3125 -0.0625q-0.875 -0.09375 -1.65625 -0.3125l0.34375 -1.640625q0.125 0.0625 0.21875 0.09375q0.109375 0.03125 0.234375 0.09375q1.171875 0.390625 2.078125 0.390625q1.140625 0 1.265625 -0.578125q0.03125 -0.15625 -0.015625 -0.265625q-0.15625 -0.21875 -0.78125 -0.453125l-0.484375 -0.203125q-1.390625 -0.578125 -1.734375 -1.265625q-0.09375 -0.1875 -0.109375 -0.484375q-0.015625 -0.3125 0.046875 -0.578125q0.21875 -1.09375 1.234375 -1.6875q1.03125 -0.59375 2.703125 -0.59375q1.15625 0 2.359375 0.28125l-0.359375 1.640625q-0.171875 -0.0625 -0.375 -0.15625q-0.375 -0.125 -0.84375 -0.21875q-0.46875 -0.09375 -0.8125 -0.09375q-1.171875 0 -1.296875 0.578125q-0.046875 0.21875 0.109375 0.359375q0.15625 0.140625 0.59375 0.3125l0.46875 0.171875q1.34375 0.484375 1.78125 0.984375q0.453125 0.484375 0.28125 1.296875zm7.947296 2.0q-0.25 0.0625 -0.453125 0.109375q-1.359375 0.296875 -2.578125 0.296875q-0.890625 0 -1.609375 -0.21875q-0.703125 -0.234375 -1.109375 -0.625q-0.5 -0.515625 -0.6875 -1.34375q-0.1875 -0.84375 0 -1.703125q0.171875 -0.8125 0.578125 -1.5q0.421875 -0.6875 1.03125 -1.171875q0.609375 -0.484375 1.375 -0.734375q0.765625 -0.265625 1.625 -0.265625q0.828125 0 1.359375 0.203125q0.53125 0.203125 0.859375 0.625q0.4375 0.59375 0.46875 1.328125q0.015625 0.359375 0 0.640625q-0.015625 0.265625 -0.078125 0.640625q-0.0625 0.359375 -0.1875 0.90625l-4.53125 0q-0.03125 0.3125 -0.03125 0.515625q0.015625 0.1875 0.09375 0.375q0.15625 0.359375 0.53125 0.515625q0.390625 0.15625 1.125 0.15625q0.671875 0 1.125 -0.078125q0.453125 -0.078125 1.453125 -0.375l-0.359375 1.703125zm-1.546875 -4.09375l0.015625 -0.109375q0.171875 -0.8125 0.015625 -1.171875q-0.140625 -0.375 -0.640625 -0.375q-0.359375 0 -0.65625 0.203125q-0.296875 0.1875 -0.515625 0.5625q-0.21875 0.359375 -0.359375 0.890625l2.140625 0z" fill-rule="nonzero"/><path fill="#000000" fill-opacity="0.0" d="m195.34908 65.367455l149.76378 0l0 30.992126l-149.76378 0z" fill-rule="evenodd"/><path stroke="#000000" stroke-width="2.0" stroke-linejoin="round" stroke-linecap="butt" d="m195.34908 65.367455l149.76378 0l0 30.992126l-149.76378 0z" fill-rule="evenodd"/><path fill="#000000" d="m208.08345 85.35101l0 -3.0625l-3.046875 0l0 -0.953125l3.046875 0l0 -3.0625l0.96875 0l0 3.0625l3.046875 0l0 0.953125l-3.046875 0l0 3.0625l-0.96875 0z" fill-rule="nonzero"/><path fill="#000000" d="m223.5095 85.42914q-1.375 0.390625 -2.296875 0.390625q-1.640625 0 -2.359375 -1.109375q-0.703125 -1.109375 -0.390625 -2.609375q0.21875 -1.0 0.828125 -1.890625q0.625 -0.90625 1.375 -1.34375q0.765625 -0.4375 1.671875 -0.4375q1.21875 0 1.765625 0.890625q0.546875 0.875 0.1875 2.625l-0.109375 0.390625l-4.453125 0q-0.078125 0.9375 0.109375 1.453125q0.1875 0.5 0.625 0.78125q0.4375 0.28125 1.203125 0.28125q0.390625 0 0.78125 -0.0625q0.40625 -0.078125 1.28125 -0.375l-0.21875 1.015625zm-3.515625 -4.0625l3.109375 0q0.234375 -1.0625 -0.09375 -1.515625q-0.3125 -0.453125 -0.953125 -0.453125q-0.734375 0 -1.25 0.5q-0.515625 0.484375 -0.8125 1.46875zm5.0036163 4.296875l3.46875 -3.65625l-1.890625 -3.40625l1.515625 0l1.484375 2.71875l2.453125 -2.71875l1.25 0l-3.21875 3.578125l1.921875 3.484375l-1.515625 0l-1.53125 -2.796875l-2.65625 2.796875l-1.28125 0zm14.111389 -0.234375q-1.375 0.390625 -2.296875 0.390625q-1.640625 0 -2.359375 -1.109375q-0.703125 -1.109375 -0.390625 -2.609375q0.21875 -1.0 0.828125 -1.890625q0.625 -0.90625 1.375 -1.34375q0.765625 -0.4375 1.671875 -0.4375q1.21875 0 1.765625 0.890625q0.546875 0.875 0.1875 2.625l-0.109375 0.390625l-4.453125 0q-0.078125 0.9375 0.109375 1.453125q0.1875 0.5 0.625 0.78125q0.4375 0.28125 1.203125 0.28125q0.390625 0 0.78125 -0.0625q0.40625 -0.078125 1.28125 -0.375l-0.21875 1.015625zm-3.515625 -4.0625l3.109375 0q0.234375 -1.0625 -0.09375 -1.515625q-0.3125 -0.453125 -0.953125 -0.453125q-0.734375 0 -1.25 0.5q-0.515625 0.484375 -0.8125 1.46875zm10.659866 4.078125q-1.3125 0.375 -2.21875 0.375q-0.953125 0 -1.640625 -0.5q-0.671875 -0.515625 -0.90625 -1.34375q-0.21875 -0.84375 0.015625 -1.890625q0.328125 -1.5625 1.40625 -2.59375q1.09375 -1.046875 2.90625 -1.046875q0.828125 0 1.796875 0.21875l-0.21875 1.078125q-1.015625 -0.3125 -1.703125 -0.3125q-1.078125 0 -1.796875 0.796875q-0.71875 0.796875 -0.953125 1.90625q-0.25 1.1875 0.203125 1.921875q0.453125 0.734375 1.4375 0.734375q0.890625 0 1.90625 -0.453125l-0.234375 1.109375zm6.295517 0.21875l0.28125 -1.328125q-0.65625 0.71875 -1.375 1.109375q-0.71875 0.375 -1.421875 0.375q-0.890625 0 -1.34375 -0.5625q-0.4375 -0.5625 -0.21875 -1.578125l1.078125 -5.078125l1.28125 0l-0.984375 4.65625q-0.15625 0.734375 -0.078125 0.96875q0.078125 0.234375 0.28125 0.375q0.21875 0.125 0.484375 0.125q0.46875 0 1.078125 -0.296875q0.625 -0.296875 1.46875 -1.25l0.96875 -4.578125l1.28125 0l-1.5 7.0625l-1.28125 0zm7.00589 0q-0.625 0.15625 -1.0625 0.15625q-0.953125 0 -1.40625 -0.546875q-0.4375 -0.546875 -0.21875 -1.5625l0.875 -4.15625l-0.875 0l0.203125 -0.953125l0.875 0l0.28125 -1.28125l1.296875 -0.125l-0.296875 1.40625l1.859375 0l-0.203125 0.953125l-1.859375 0l-0.828125 3.921875q-0.15625 0.75 0.0625 1.078125q0.21875 0.3125 0.84375 0.3125q0.25 0 0.640625 -0.09375l-0.1875 0.890625zm7.0631714 -0.234375q-1.375 0.390625 -2.296875 0.390625q-1.640625 0 -2.359375 -1.109375q-0.703125 -1.109375 -0.390625 -2.609375q0.21875 -1.0 0.828125 -1.890625q0.625 -0.90625 1.375 -1.34375q0.765625 -0.4375 1.671875 -0.4375q1.21875 0 1.765625 0.890625q0.546875 0.875 0.1875 2.625l-0.109375 0.390625l-4.453125 0q-0.078125 0.9375 0.109375 1.453125q0.1875 0.5 0.625 0.78125q0.4375 0.28125 1.203125 0.28125q0.390625 0 0.78125 -0.0625q0.40625 -0.078125 1.28125 -0.375l-0.21875 1.015625zm-3.515625 -4.0625l3.109375 0q0.234375 -1.0625 -0.09375 -1.515625q-0.3125 -0.453125 -0.953125 -0.453125q-0.734375 0 -1.25 0.5q-0.515625 0.484375 -0.8125 1.46875zm8.066101 5.34375l-0.1875 0.875q-0.90625 -0.71875 -1.359375 -1.71875q-0.4375 -1.0 -0.546875 -2.140625q-0.09375 -1.140625 0.140625 -2.234375q0.234375 -1.09375 0.8125 -2.234375q0.59375 -1.140625 1.453125 -2.140625q0.875 -1.0 2.09375 -1.734375l-0.1875 0.890625q-0.90625 0.796875 -1.421875 1.546875q-0.515625 0.75 -0.890625 1.6875q-0.359375 0.9375 -0.578125 1.984375q-0.21875 1.03125 -0.25 1.984375q-0.03125 0.9375 0.15625 1.6875q0.203125 0.734375 0.765625 1.546875zm3.178009 -10.4375l0.1875 -0.890625q0.90625 0.734375 1.34375 1.734375q0.453125 1.0 0.546875 2.140625q0.09375 1.140625 -0.140625 2.234375q-0.234375 1.09375 -0.8125 2.234375q-0.578125 1.140625 -1.453125 2.140625q-0.859375 1.0 -2.078125 1.71875l0.1875 -0.875q0.90625 -0.8125 1.40625 -1.546875q0.515625 -0.75 0.875 -1.6875q0.375 -0.953125 0.59375 -1.984375q0.21875 -1.03125 0.25 -1.96875q0.03125 -0.953125 -0.15625 -1.703125q-0.1875 -0.75 -0.75 -1.546875z" fill-rule="nonzero"/><path fill="#000000" fill-opacity="0.0" d="m22.874016 155.39108l149.7638 0l0 29.165344l-149.7638 0z" fill-rule="evenodd"/><path stroke="#000000" stroke-width="3.0" stroke-linejoin="round" stroke-linecap="butt" d="m22.874016 155.39108l149.7638 0l0 29.165344l-149.7638 0z" fill-rule="evenodd"/><path fill="#000000" d="m41.8367 174.49251q-0.34375 0.109375 -0.390625 0.125q-1.40625 0.390625 -3.046875 0.390625q-0.765625 0 -1.421875 -0.125q-0.65625 -0.109375 -1.234375 -0.34375q-0.578125 -0.234375 -1.0 -0.578125q-0.421875 -0.328125 -0.734375 -0.75q-0.3125 -0.421875 -0.546875 -0.96875q-0.234375 -0.546875 -0.34375 -1.109375q-0.109375 -0.5625 -0.109375 -1.1875q0 -0.75 0.15625 -1.453125q0.171875 -0.703125 0.5 -1.28125q0.328125 -0.59375 0.796875 -1.03125q0.453125 -0.453125 1.03125 -0.734375q0.578125 -0.28125 1.296875 -0.40625q0.71875 -0.140625 1.59375 -0.140625q0.90625 0 1.828125 0.09375q0.921875 0.09375 1.46875 0.234375l0 1.84375q-0.1875 -0.078125 -0.28125 -0.09375q-0.09375 -0.03125 -0.1875 -0.0625q-1.328125 -0.421875 -2.390625 -0.421875q-1.390625 0 -2.15625 0.71875q-0.4375 0.4375 -0.6875 1.140625q-0.234375 0.6875 -0.234375 1.546875q0 1.09375 0.375 1.875q0.390625 0.765625 1.125 1.171875q0.75 0.390625 1.8125 0.390625q0.453125 0 1.078125 -0.09375q0.5 -0.09375 0.828125 -0.171875q0.328125 -0.09375 0.875 -0.34375l0 1.765625zm8.880341 -3.328125q0 0.875 -0.28125 1.578125q-0.265625 0.6875 -0.796875 1.1875q-0.515625 0.5 -1.25 0.75q-0.734375 0.25 -1.640625 0.25q-0.9375 0 -1.6875 -0.25q-0.75 -0.25 -1.296875 -0.734375q-0.53125 -0.5 -0.8125 -1.203125q-0.265625 -0.71875 -0.265625 -1.59375q0 -0.859375 0.265625 -1.5625q0.28125 -0.71875 0.796875 -1.203125q0.53125 -0.484375 1.265625 -0.734375q0.734375 -0.265625 1.671875 -0.265625q0.953125 0 1.6875 0.265625q0.75 0.25 1.265625 0.734375q0.53125 0.484375 0.796875 1.1875q0.28125 0.6875 0.28125 1.59375zm-2.734375 -0.015625q0 -1.046875 -0.359375 -1.671875q-0.359375 -0.640625 -0.9375 -0.640625q-0.375 0 -0.65625 0.296875q-0.28125 0.28125 -0.453125 0.828125q-0.15625 0.53125 -0.15625 1.203125q0 0.65625 0.15625 1.203125q0.15625 0.53125 0.4375 0.828125q0.296875 0.296875 0.671875 0.296875q0.578125 0 0.9375 -0.640625q0.359375 -0.65625 0.359375 -1.703125zm11.400131 3.625l-2.5625 0l0 -4.484375q0 -0.53125 -0.15625 -0.75q-0.140625 -0.234375 -0.46875 -0.234375q-0.34375 0 -0.65625 0.265625q-0.3125 0.25 -0.65625 0.796875l0 4.40625l-2.5625 0l0 -7.21875l2.5625 0l0 1.359375l0.03125 0q0.34375 -0.734375 0.953125 -1.125q0.625 -0.40625 1.40625 -0.40625q0.875 0 1.46875 0.53125q0.359375 0.328125 0.5 0.75q0.140625 0.40625 0.140625 1.078125l0 5.03125zm7.89093 -0.09375q-1.234375 0.25 -2.359375 0.25q-0.515625 0 -0.953125 -0.046875q-0.421875 -0.046875 -0.78125 -0.15625q-0.359375 -0.125 -0.640625 -0.28125q-0.265625 -0.171875 -0.546875 -0.4375q-0.53125 -0.5 -0.8125 -1.234375q-0.265625 -0.734375 -0.265625 -1.578125q0 -1.140625 0.484375 -2.015625q0.5 -0.875 1.421875 -1.328125q0.9375 -0.46875 2.171875 -0.46875q0.96875 0 2.234375 0.328125l0 1.703125q-1.21875 -0.484375 -1.890625 -0.484375q-0.5 0 -0.890625 0.28125q-0.390625 0.265625 -0.59375 0.765625q-0.203125 0.484375 -0.203125 1.140625q0 0.984375 0.515625 1.609375q0.53125 0.625 1.375 0.625q0.71875 0 1.734375 -0.328125l0 1.65625zm6.8408813 -5.015625q-0.296875 -0.125 -0.484375 -0.15625q-0.171875 -0.03125 -0.5 -0.03125q-0.5625 0 -0.953125 0.21875q-0.390625 0.203125 -0.71875 0.671875l0 4.40625l-2.5625 0l0 -7.21875l2.5625 0l0 1.359375l0.03125 0q0.109375 -0.34375 0.40625 -0.671875q0.3125 -0.328125 0.75 -0.578125q0.5 -0.28125 1.15625 -0.28125q0.1875 0 0.3125 0.046875l0 2.234375zm7.8984375 4.875q-0.234375 0.0625 -0.4375 0.109375q-1.296875 0.296875 -2.515625 0.296875q-0.890625 0 -1.65625 -0.21875q-0.75 -0.234375 -1.234375 -0.625q-0.609375 -0.515625 -0.984375 -1.34375q-0.359375 -0.84375 -0.359375 -1.703125q0 -0.8125 0.265625 -1.5q0.28125 -0.6875 0.78125 -1.171875q0.5 -0.484375 1.203125 -0.734375q0.71875 -0.265625 1.578125 -0.265625q0.828125 0 1.40625 0.203125q0.578125 0.203125 1.0 0.625q0.5625 0.59375 0.75 1.328125q0.09375 0.359375 0.125 0.640625q0.046875 0.265625 0.0625 0.640625q0.015625 0.359375 0.015625 0.90625l-4.53125 0q0.03125 0.3125 0.078125 0.515625q0.046875 0.1875 0.171875 0.375q0.234375 0.359375 0.640625 0.515625q0.421875 0.15625 1.15625 0.15625q0.671875 0 1.109375 -0.078125q0.4375 -0.078125 1.375 -0.375l0 1.703125zm-2.421875 -4.09375l0 -0.109375q0 -0.8125 -0.234375 -1.171875q-0.21875 -0.375 -0.71875 -0.375q-0.359375 0 -0.625 0.203125q-0.25 0.1875 -0.390625 0.5625q-0.140625 0.359375 -0.171875 0.890625l2.140625 0zm8.367905 4.265625q-0.46875 0.140625 -0.75 0.171875q-0.265625 0.046875 -0.6875 0.046875q-1.109375 0 -1.78125 -0.40625q-0.5 -0.3125 -0.6875 -0.765625q-0.171875 -0.46875 -0.171875 -1.40625l0 -3.359375l-0.71875 0l0 -1.4375l0.71875 0l0 -1.140625l2.578125 -0.3125l0 1.453125l1.359375 0l0 1.4375l-1.359375 0l0 3.09375q0 0.46875 0.03125 0.65625q0.046875 0.1875 0.203125 0.359375q0.234375 0.234375 0.703125 0.234375q0.234375 0 0.5625 -0.109375l0 1.484375zm8.045914 -0.171875q-0.234375 0.0625 -0.4375 0.109375q-1.296875 0.296875 -2.515625 0.296875q-0.890625 0 -1.65625 -0.21875q-0.75 -0.234375 -1.234375 -0.625q-0.609375 -0.515625 -0.984375 -1.34375q-0.359375 -0.84375 -0.359375 -1.703125q0 -0.8125 0.265625 -1.5q0.28125 -0.6875 0.78125 -1.171875q0.5 -0.484375 1.203125 -0.734375q0.71875 -0.265625 1.578125 -0.265625q0.828125 0 1.40625 0.203125q0.578125 0.203125 1.0 0.625q0.5625 0.59375 0.75 1.328125q0.09375 0.359375 0.125 0.640625q0.046875 0.265625 0.0625 0.640625q0.015625 0.359375 0.015625 0.90625l-4.53125 0q0.03125 0.3125 0.078125 0.515625q0.046875 0.1875 0.171875 0.375q0.234375 0.359375 0.640625 0.515625q0.421875 0.15625 1.15625 0.15625q0.671875 0 1.109375 -0.078125q0.4375 -0.078125 1.375 -0.375l0 1.703125zm-2.421875 -4.09375l0 -0.109375q0 -0.8125 -0.234375 -1.171875q-0.21875 -0.375 -0.71875 -0.375q-0.359375 0 -0.625 0.203125q-0.25 0.1875 -0.390625 0.5625q-0.140625 0.359375 -0.171875 0.890625l2.140625 0zm11.32103 -2.71875q0 0.78125 -0.25 1.390625q-0.234375 0.609375 -0.71875 1.046875q-0.484375 0.4375 -1.1875 0.65625q-0.703125 0.21875 -1.578125 0.21875l-1.03125 0l0 3.734375l-2.40625 0l0 -9.640625l3.9375 0q0.703125 0 1.125 0.0625q0.421875 0.046875 0.71875 0.171875q0.3125 0.125 0.59375 0.328125q0.796875 0.640625 0.796875 2.03125zm-2.59375 0.21875q0 -1.203125 -1.5 -1.203125l-0.671875 0l0 2.84375l0.3125 0q0.875 0 1.359375 -0.421875q0.5 -0.4375 0.5 -1.21875zm9.400223 1.71875q-0.296875 -0.125 -0.484375 -0.15625q-0.171875 -0.03125 -0.5 -0.03125q-0.5625 0 -0.953125 0.21875q-0.390625 0.203125 -0.71875 0.671875l0 4.40625l-2.5625 0l0 -7.21875l2.5625 0l0 1.359375l0.03125 0q0.109375 -0.34375 0.40625 -0.671875q0.3125 -0.328125 0.75 -0.578125q0.5 -0.28125 1.15625 -0.28125q0.1875 0 0.3125 0.046875l0 2.234375zm8.8359375 1.5q0 0.875 -0.28125 1.578125q-0.265625 0.6875 -0.796875 1.1875q-0.515625 0.5 -1.25 0.75q-0.734375 0.25 -1.640625 0.25q-0.9375 0 -1.6875 -0.25q-0.75 -0.25 -1.296875 -0.734375q-0.53125 -0.5 -0.8125 -1.203125q-0.265625 -0.71875 -0.265625 -1.59375q0 -0.859375 0.265625 -1.5625q0.28125 -0.71875 0.796875 -1.203125q0.53125 -0.484375 1.265625 -0.734375q0.734375 -0.265625 1.671875 -0.265625q0.953125 0 1.6875 0.265625q0.75 0.25 1.265625 0.734375q0.53125 0.484375 0.796875 1.1875q0.28125 0.6875 0.28125 1.59375zm-2.734375 -0.015625q0 -1.046875 -0.359375 -1.671875q-0.359375 -0.640625 -0.9375 -0.640625q-0.375 0 -0.65625 0.296875q-0.28125 0.28125 -0.453125 0.828125q-0.15625 0.53125 -0.15625 1.203125q0 0.65625 0.15625 1.203125q0.15625 0.53125 0.4375 0.828125q0.296875 0.296875 0.671875 0.296875q0.578125 0 0.9375 -0.640625q0.359375 -0.65625 0.359375 -1.703125zm11.353256 3.625l-2.5625 0l0 -1.359375l-0.015625 0q-0.265625 0.703125 -0.890625 1.109375q-0.609375 0.40625 -1.40625 0.40625q-0.859375 0 -1.5 -0.421875q-0.625 -0.4375 -0.953125 -1.25q-0.328125 -0.828125 -0.328125 -1.921875q0 -1.21875 0.375 -2.109375q0.375 -0.890625 1.078125 -1.359375q0.703125 -0.484375 1.640625 -0.484375q0.59375 0 1.015625 0.171875q0.421875 0.171875 0.96875 0.625l0.015625 0l0 -0.625l0 -3.0625l2.5625 0l0 10.28125zm-2.5625 -2.765625l0 -2.421875q-0.484375 -0.671875 -1.109375 -0.671875q-0.359375 0 -0.65625 0.28125q-0.28125 0.28125 -0.4375 0.8125q-0.15625 0.515625 -0.15625 1.140625q0 0.890625 0.3125 1.390625q0.3125 0.5 0.859375 0.5q0.671875 0 1.1875 -1.03125zm11.804977 2.765625l-2.5625 0l0 -1.359375l-0.03125 0q-0.328125 0.71875 -0.953125 1.125q-0.625 0.390625 -1.40625 0.390625q-0.875 0 -1.46875 -0.546875q-0.34375 -0.3125 -0.5 -0.734375q-0.140625 -0.421875 -0.140625 -1.078125l0 -5.015625l2.5625 0l0 4.484375q0 0.34375 0.0625 0.5625q0.0625 0.203125 0.203125 0.3125q0.140625 0.09375 0.359375 0.09375q0.34375 0 0.640625 -0.25q0.3125 -0.25 0.671875 -0.796875l0 -4.40625l2.5625 0l0 7.21875zm7.969055 -0.09375q-1.234375 0.25 -2.359375 0.25q-0.515625 0 -0.953125 -0.046875q-0.421875 -0.046875 -0.78125 -0.15625q-0.359375 -0.125 -0.640625 -0.28125q-0.265625 -0.171875 -0.546875 -0.4375q-0.53125 -0.5 -0.8125 -1.234375q-0.265625 -0.734375 -0.265625 -1.578125q0 -1.140625 0.484375 -2.015625q0.5 -0.875 1.421875 -1.328125q0.9375 -0.46875 2.171875 -0.46875q0.96875 0 2.234375 0.328125l0 1.703125q-1.21875 -0.484375 -1.890625 -0.484375q-0.5 0 -0.890625 0.28125q-0.390625 0.265625 -0.59375 0.765625q-0.203125 0.484375 -0.203125 1.140625q0 0.984375 0.515625 1.609375q0.53125 0.625 1.375 0.625q0.71875 0 1.734375 -0.328125l0 1.65625zm5.8408813 0.03125q-0.46875 0.140625 -0.75 0.171875q-0.265625 0.046875 -0.6875 0.046875q-1.109375 0 -1.78125 -0.40625q-0.5 -0.3125 -0.6875 -0.765625q-0.171875 -0.46875 -0.171875 -1.40625l0 -3.359375l-0.71875 0l0 -1.4375l0.71875 0l0 -1.140625l2.578125 -0.3125l0 1.453125l1.359375 0l0 1.4375l-1.359375 0l0 3.09375q0 0.46875 0.03125 0.65625q0.046875 0.1875 0.203125 0.359375q0.234375 0.234375 0.703125 0.234375q0.234375 0 0.5625 -0.109375l0 1.484375zm10.577148 0.0625l-2.5625 0l-0.953125 -2.453125l-3.765625 0l-0.953125 2.453125l-1.71875 0l3.703125 -9.640625l2.5625 0l3.6875 9.640625zm-4.09375 -3.96875l-1.3125 -3.421875l-1.3125 3.421875l2.625 0z" fill-rule="nonzero"/><path fill="#000000" fill-opacity="0.0" d="m22.874016 213.72179l149.7638 0l0 29.16536l-149.7638 0z" fill-rule="evenodd"/><path stroke="#000000" stroke-width="2.0" stroke-linejoin="round" stroke-linecap="butt" d="m22.874016 213.72179l149.7638 0l0 29.16536l-149.7638 0z" fill-rule="evenodd"/><path fill="#000000" d="m35.60839 232.79196l0 -3.0625l-3.046875 0l0 -0.953125l3.046875 0l0 -3.0625l0.96875 0l0 3.0625l3.046875 0l0 0.953125l-3.046875 0l0 3.0625l-0.96875 0zm15.379181 0.078125q-1.296875 0.390625 -2.21875 0.390625q-1.640625 0 -2.59375 -1.109375q-0.9375 -1.109375 -0.9375 -2.609375q0 -1.0 0.421875 -1.890625q0.421875 -0.90625 1.09375 -1.34375q0.671875 -0.4375 1.578125 -0.4375q1.21875 0 1.953125 0.890625q0.734375 0.875 0.734375 2.625l-0.015625 0.390625l-4.453125 0q0.109375 0.9375 0.40625 1.453125q0.296875 0.5 0.796875 0.78125q0.5 0.28125 1.265625 0.28125q0.390625 0 0.765625 -0.0625q0.390625 -0.078125 1.203125 -0.375l0 1.015625zm-4.375 -4.0625l3.109375 0q0 -1.0625 -0.421875 -1.515625q-0.40625 -0.453125 -1.046875 -0.453125q-0.734375 0 -1.15625 0.5q-0.40625 0.484375 -0.484375 1.46875zm5.9098663 4.296875l2.6875 -3.65625l-2.609375 -3.40625l1.515625 0l2.0625 2.71875l1.875 -2.71875l1.25 0l-2.453125 3.578125l2.65625 3.484375l-1.515625 0l-2.125 -2.796875l-2.0625 2.796875l-1.28125 0zm14.064514 -0.234375q-1.296875 0.390625 -2.21875 0.390625q-1.640625 0 -2.59375 -1.109375q-0.9375 -1.109375 -0.9375 -2.609375q0 -1.0 0.421875 -1.890625q0.421875 -0.90625 1.09375 -1.34375q0.671875 -0.4375 1.578125 -0.4375q1.21875 0 1.953125 0.890625q0.734375 0.875 0.734375 2.625l-0.015625 0.390625l-4.453125 0q0.109375 0.9375 0.40625 1.453125q0.296875 0.5 0.796875 0.78125q0.5 0.28125 1.265625 0.28125q0.390625 0 0.765625 -0.0625q0.390625 -0.078125 1.203125 -0.375l0 1.015625zm-4.375 -4.0625l3.109375 0q0 -1.0625 -0.421875 -1.515625q-0.40625 -0.453125 -1.046875 -0.453125q-0.734375 0 -1.15625 0.5q-0.40625 0.484375 -0.484375 1.46875zm11.519241 4.078125q-1.234375 0.375 -2.140625 0.375q-0.953125 0 -1.75 -0.5q-0.78125 -0.515625 -1.1875 -1.34375q-0.390625 -0.84375 -0.390625 -1.890625q0 -1.5625 0.859375 -2.59375q0.875 -1.046875 2.6875 -1.046875q0.828125 0 1.84375 0.21875l0 1.078125q-1.078125 -0.3125 -1.765625 -0.3125q-1.078125 0 -1.625 0.796875q-0.546875 0.796875 -0.546875 1.90625q0 1.1875 0.609375 1.921875q0.609375 0.734375 1.59375 0.734375q0.890625 0 1.8125 -0.453125l0 1.109375zm6.342392 0.21875l0 -1.328125q-0.5 0.71875 -1.140625 1.109375q-0.640625 0.375 -1.34375 0.375q-0.890625 0 -1.453125 -0.5625q-0.5625 -0.5625 -0.5625 -1.578125l0 -5.078125l1.28125 0l0 4.65625q0 0.734375 0.125 0.96875q0.140625 0.234375 0.375 0.375q0.234375 0.125 0.5 0.125q0.46875 0 1.015625 -0.296875q0.5625 -0.296875 1.203125 -1.25l0 -4.578125l1.28125 0l0 7.0625l-1.28125 0zm7.00589 0q-0.59375 0.15625 -1.03125 0.15625q-0.953125 0 -1.515625 -0.546875q-0.5625 -0.546875 -0.5625 -1.5625l0 -4.15625l-0.875 0l0 -0.953125l0.875 0l0 -1.28125l1.28125 -0.125l0 1.40625l1.859375 0l0 0.953125l-1.859375 0l0 3.921875q0 0.75 0.28125 1.078125q0.296875 0.3125 0.921875 0.3125q0.25 0 0.625 -0.09375l0 0.890625zm7.016281 -0.234375q-1.296875 0.390625 -2.21875 0.390625q-1.640625 0 -2.59375 -1.109375q-0.9375 -1.109375 -0.9375 -2.609375q0 -1.0 0.421875 -1.890625q0.421875 -0.90625 1.09375 -1.34375q0.671875 -0.4375 1.578125 -0.4375q1.21875 0 1.953125 0.890625q0.734375 0.875 0.734375 2.625l-0.015625 0.390625l-4.453125 0q0.109375 0.9375 0.40625 1.453125q0.296875 0.5 0.796875 0.78125q0.5 0.28125 1.265625 0.28125q0.390625 0 0.765625 -0.0625q0.390625 -0.078125 1.203125 -0.375l0 1.015625zm-4.375 -4.0625l3.109375 0q0 -1.0625 -0.421875 -1.515625q-0.40625 -0.453125 -1.046875 -0.453125q-0.734375 0 -1.15625 0.5q-0.40625 0.484375 -0.484375 1.46875zm9.191116 5.34375l0 0.875q-1.0625 -0.71875 -1.71875 -1.71875q-0.65625 -1.0 -1.0 -2.140625q-0.34375 -1.140625 -0.34375 -2.234375q0 -1.09375 0.34375 -2.234375q0.34375 -1.140625 1.0 -2.140625q0.65625 -1.0 1.71875 -1.734375l0 0.890625q-0.734375 0.796875 -1.09375 1.546875q-0.34375 0.75 -0.515625 1.6875q-0.171875 0.9375 -0.171875 1.984375q0 1.03125 0.171875 1.984375q0.171875 0.9375 0.515625 1.6875q0.359375 0.734375 1.09375 1.546875zm0.9592438 -10.4375l0 -0.890625q1.0625 0.734375 1.71875 1.734375q0.65625 1.0 0.984375 2.140625q0.34375 1.140625 0.34375 2.234375q0 1.09375 -0.34375 2.234375q-0.328125 1.140625 -0.984375 2.140625q-0.65625 1.0 -1.71875 1.71875l0 -0.875q0.734375 -0.8125 1.078125 -1.546875q0.359375 -0.75 0.515625 -1.6875q0.171875 -0.953125 0.171875 -1.984375q0 -1.03125 -0.171875 -1.96875q-0.15625 -0.953125 -0.515625 -1.703125q-0.34375 -0.75 -1.078125 -1.546875z" fill-rule="nonzero"/><path fill="#000000" fill-opacity="0.0" d="m22.874016 184.55643l149.7638 0l0 29.16536l-149.7638 0z" fill-rule="evenodd"/><path stroke="#000000" stroke-width="2.0" stroke-linejoin="round" stroke-linecap="butt" d="m22.874016 184.55643l149.7638 0l0 29.16536l-149.7638 0z" fill-rule="evenodd"/><path fill="#000000" d="m33.17089 203.9391l0 -1.609375l1.609375 0l0 1.609375l-1.609375 0zm4.217102 0l0 -1.609375l1.609375 0l0 1.609375l-1.609375 0zm4.217102 0l0 -1.609375l1.609375 0l0 1.609375l-1.609375 0z" fill-rule="nonzero"/><path fill="#000000" fill-opacity="0.0" d="m193.37448 156.6693l149.7638 0l0 29.165344l-149.7638 0z" fill-rule="evenodd"/><path stroke="#000000" stroke-width="3.0" stroke-linejoin="round" stroke-linecap="butt" d="m193.37448 156.6693l149.7638 0l0 29.165344l-149.7638 0z" fill-rule="evenodd"/><path fill="#000000" d="m213.03026 175.77072q-0.34375 0.109375 -0.390625 0.125q-1.40625 0.390625 -3.046875 0.390625q-0.765625 0 -1.421875 -0.125q-0.65625 -0.109375 -1.234375 -0.34375q-0.578125 -0.234375 -1.0 -0.578125q-0.421875 -0.328125 -0.734375 -0.75q-0.3125 -0.421875 -0.546875 -0.96875q-0.234375 -0.546875 -0.34375 -1.109375q-0.109375 -0.5625 -0.109375 -1.1875q0 -0.75 0.15625 -1.453125q0.171875 -0.703125 0.5 -1.28125q0.328125 -0.59375 0.796875 -1.03125q0.453125 -0.453125 1.03125 -0.734375q0.578125 -0.28125 1.296875 -0.40625q0.71875 -0.140625 1.59375 -0.140625q0.90625 0 1.828125 0.09375q0.921875 0.09375 1.46875 0.234375l0 1.84375q-0.1875 -0.078125 -0.28125 -0.09375q-0.09375 -0.03125 -0.1875 -0.0625q-1.328125 -0.421875 -2.390625 -0.421875q-1.390625 0 -2.15625 0.71875q-0.4375 0.4375 -0.6875 1.140625q-0.234375 0.6875 -0.234375 1.546875q0 1.09375 0.375 1.875q0.390625 0.765625 1.125 1.171875q0.75 0.390625 1.8125 0.390625q0.453125 0 1.078125 -0.09375q0.5 -0.09375 0.828125 -0.171875q0.328125 -0.09375 0.875 -0.34375l0 1.765625zm8.880341 -3.328125q0 0.875 -0.28125 1.578125q-0.265625 0.6875 -0.796875 1.1875q-0.515625 0.5 -1.25 0.75q-0.734375 0.25 -1.640625 0.25q-0.9375 0 -1.6875 -0.25q-0.75 -0.25 -1.296875 -0.734375q-0.53125 -0.5 -0.8125 -1.203125q-0.265625 -0.71875 -0.265625 -1.59375q0 -0.859375 0.265625 -1.5625q0.28125 -0.71875 0.796875 -1.203125q0.53125 -0.484375 1.265625 -0.734375q0.734375 -0.265625 1.671875 -0.265625q0.953125 0 1.6875 0.265625q0.75 0.25 1.265625 0.734375q0.53125 0.484375 0.796875 1.1875q0.28125 0.6875 0.28125 1.59375zm-2.734375 -0.015625q0 -1.046875 -0.359375 -1.671875q-0.359375 -0.640625 -0.9375 -0.640625q-0.375 0 -0.65625 0.296875q-0.28125 0.28125 -0.453125 0.828125q-0.15625 0.53125 -0.15625 1.203125q0 0.65625 0.15625 1.203125q0.15625 0.53125 0.4375 0.828125q0.296875 0.296875 0.671875 0.296875q0.578125 0 0.9375 -0.640625q0.359375 -0.65625 0.359375 -1.703125zm11.400131 3.625l-2.5625 0l0 -4.484375q0 -0.53125 -0.15625 -0.75q-0.140625 -0.234375 -0.46875 -0.234375q-0.34375 0 -0.65625 0.265625q-0.3125 0.25 -0.65625 0.796875l0 4.40625l-2.5625 0l0 -7.21875l2.5625 0l0 1.359375l0.03125 0q0.34375 -0.734375 0.953125 -1.125q0.625 -0.40625 1.40625 -0.40625q0.875 0 1.46875 0.53125q0.359375 0.328125 0.5 0.75q0.140625 0.40625 0.140625 1.078125l0 5.03125zm7.89093 -0.09375q-1.234375 0.25 -2.359375 0.25q-0.515625 0 -0.953125 -0.046875q-0.421875 -0.046875 -0.78125 -0.15625q-0.359375 -0.125 -0.640625 -0.28125q-0.265625 -0.171875 -0.546875 -0.4375q-0.53125 -0.5 -0.8125 -1.234375q-0.265625 -0.734375 -0.265625 -1.578125q0 -1.140625 0.484375 -2.015625q0.5 -0.875 1.421875 -1.328125q0.9375 -0.46875 2.171875 -0.46875q0.96875 0 2.234375 0.328125l0 1.703125q-1.21875 -0.484375 -1.890625 -0.484375q-0.5 0 -0.890625 0.28125q-0.390625 0.265625 -0.59375 0.765625q-0.203125 0.484375 -0.203125 1.140625q0 0.984375 0.515625 1.609375q0.53125 0.625 1.375 0.625q0.71875 0 1.734375 -0.328125l0 1.65625zm6.8408813 -5.015625q-0.296875 -0.125 -0.484375 -0.15625q-0.171875 -0.03125 -0.5 -0.03125q-0.5625 0 -0.953125 0.21875q-0.390625 0.203125 -0.71875 0.671875l0 4.40625l-2.5625 0l0 -7.21875l2.5625 0l0 1.359375l0.03125 0q0.109375 -0.34375 0.40625 -0.671875q0.3125 -0.328125 0.75 -0.578125q0.5 -0.28125 1.15625 -0.28125q0.1875 0 0.3125 0.046875l0 2.234375zm7.8984375 4.875q-0.234375 0.0625 -0.4375 0.109375q-1.296875 0.296875 -2.515625 0.296875q-0.890625 0 -1.65625 -0.21875q-0.75 -0.234375 -1.234375 -0.625q-0.609375 -0.515625 -0.984375 -1.34375q-0.359375 -0.84375 -0.359375 -1.703125q0 -0.8125 0.265625 -1.5q0.28125 -0.6875 0.78125 -1.171875q0.5 -0.484375 1.203125 -0.734375q0.71875 -0.265625 1.578125 -0.265625q0.828125 0 1.40625 0.203125q0.578125 0.203125 1.0 0.625q0.5625 0.59375 0.75 1.328125q0.09375 0.359375 0.125 0.640625q0.046875 0.265625 0.0625 0.640625q0.015625 0.359375 0.015625 0.90625l-4.53125 0q0.03125 0.3125 0.078125 0.515625q0.046875 0.1875 0.171875 0.375q0.234375 0.359375 0.640625 0.515625q0.421875 0.15625 1.15625 0.15625q0.671875 0 1.109375 -0.078125q0.4375 -0.078125 1.375 -0.375l0 1.703125zm-2.421875 -4.09375l0 -0.109375q0 -0.8125 -0.234375 -1.171875q-0.21875 -0.375 -0.71875 -0.375q-0.359375 0 -0.625 0.203125q-0.25 0.1875 -0.390625 0.5625q-0.140625 0.359375 -0.171875 0.890625l2.140625 0zm8.36792 4.265625q-0.46875 0.140625 -0.75 0.171875q-0.265625 0.046875 -0.6875 0.046875q-1.109375 0 -1.7812653 -0.40625q-0.5 -0.3125 -0.6875 -0.765625q-0.171875 -0.46875 -0.171875 -1.40625l0 -3.359375l-0.71875 0l0 -1.4375l0.71875 0l0 -1.140625l2.5781403 -0.3125l0 1.453125l1.359375 0l0 1.4375l-1.359375 0l0 3.09375q0 0.46875 0.03125 0.65625q0.046875 0.1875 0.203125 0.359375q0.234375 0.234375 0.703125 0.234375q0.234375 0 0.5625 -0.109375l0 1.484375zm8.045898 -0.171875q-0.234375 0.0625 -0.4375 0.109375q-1.296875 0.296875 -2.515625 0.296875q-0.890625 0 -1.65625 -0.21875q-0.75 -0.234375 -1.234375 -0.625q-0.609375 -0.515625 -0.984375 -1.34375q-0.359375 -0.84375 -0.359375 -1.703125q0 -0.8125 0.265625 -1.5q0.28125 -0.6875 0.78125 -1.171875q0.5 -0.484375 1.203125 -0.734375q0.71875 -0.265625 1.578125 -0.265625q0.828125 0 1.40625 0.203125q0.578125 0.203125 1.0 0.625q0.5625 0.59375 0.75 1.328125q0.09375 0.359375 0.125 0.640625q0.046875 0.265625 0.0625 0.640625q0.015625 0.359375 0.015625 0.90625l-4.53125 0q0.03125 0.3125 0.078125 0.515625q0.046875 0.1875 0.171875 0.375q0.234375 0.359375 0.640625 0.515625q0.421875 0.15625 1.15625 0.15625q0.671875 0 1.109375 -0.078125q0.4375 -0.078125 1.375 -0.375l0 1.703125zm-2.421875 -4.09375l0 -0.109375q0 -0.8125 -0.234375 -1.171875q-0.21875 -0.375 -0.71875 -0.375q-0.359375 0 -0.625 0.203125q-0.25 0.1875 -0.390625 0.5625q-0.140625 0.359375 -0.171875 0.890625l2.140625 0zm11.321045 -2.71875q0 0.78125 -0.25 1.390625q-0.234375 0.609375 -0.71875 1.046875q-0.484375 0.4375 -1.1875 0.65625q-0.703125 0.21875 -1.578125 0.21875l-1.03125 0l0 3.734375l-2.40625 0l0 -9.640625l3.9375 0q0.703125 0 1.125 0.0625q0.421875 0.046875 0.71875 0.171875q0.3125 0.125 0.59375 0.328125q0.796875 0.640625 0.796875 2.03125zm-2.59375 0.21875q0 -1.203125 -1.5 -1.203125l-0.671875 0l0 2.84375l0.3125 0q0.875 0 1.359375 -0.421875q0.5 -0.4375 0.5 -1.21875zm9.4002075 1.71875q-0.296875 -0.125 -0.484375 -0.15625q-0.171875 -0.03125 -0.5 -0.03125q-0.5625 0 -0.953125 0.21875q-0.390625 0.203125 -0.71875 0.671875l0 4.40625l-2.5625 0l0 -7.21875l2.5625 0l0 1.359375l0.03125 0q0.109375 -0.34375 0.40625 -0.671875q0.3125 -0.328125 0.75 -0.578125q0.5 -0.28125 1.15625 -0.28125q0.1875 0 0.3125 0.046875l0 2.234375zm8.8359375 1.5q0 0.875 -0.28125 1.578125q-0.265625 0.6875 -0.796875 1.1875q-0.515625 0.5 -1.25 0.75q-0.734375 0.25 -1.640625 0.25q-0.9375 0 -1.6875 -0.25q-0.75 -0.25 -1.296875 -0.734375q-0.53125 -0.5 -0.8125 -1.203125q-0.265625 -0.71875 -0.265625 -1.59375q0 -0.859375 0.265625 -1.5625q0.28125 -0.71875 0.796875 -1.203125q0.53125 -0.484375 1.265625 -0.734375q0.734375 -0.265625 1.671875 -0.265625q0.953125 0 1.6875 0.265625q0.75 0.25 1.265625 0.734375q0.53125 0.484375 0.796875 1.1875q0.28125 0.6875 0.28125 1.59375zm-2.734375 -0.015625q0 -1.046875 -0.359375 -1.671875q-0.359375 -0.640625 -0.9375 -0.640625q-0.375 0 -0.65625 0.296875q-0.28125 0.28125 -0.453125 0.828125q-0.15625 0.53125 -0.15625 1.203125q0 0.65625 0.15625 1.203125q0.15625 0.53125 0.4375 0.828125q0.296875 0.296875 0.671875 0.296875q0.578125 0 0.9375 -0.640625q0.359375 -0.65625 0.359375 -1.703125zm11.3532715 3.625l-2.5625 0l0 -1.359375l-0.015625 0q-0.265625 0.703125 -0.890625 1.109375q-0.609375 0.40625 -1.40625 0.40625q-0.859375 0 -1.5 -0.421875q-0.625 -0.4375 -0.953125 -1.25q-0.328125 -0.828125 -0.328125 -1.921875q0 -1.21875 0.375 -2.109375q0.375 -0.890625 1.078125 -1.359375q0.703125 -0.484375 1.640625 -0.484375q0.59375 0 1.015625 0.171875q0.421875 0.171875 0.96875 0.625l0.015625 0l0 -0.625l0 -3.0625l2.5625 0l0 10.28125zm-2.5625 -2.765625l0 -2.421875q-0.484375 -0.671875 -1.109375 -0.671875q-0.359375 0 -0.65625 0.28125q-0.28125 0.28125 -0.4375 0.8125q-0.15625 0.515625 -0.15625 1.140625q0 0.890625 0.3125 1.390625q0.3125 0.5 0.859375 0.5q0.671875 0 1.1875 -1.03125zm11.804962 2.765625l-2.5625 0l0 -1.359375l-0.03125 0q-0.328125 0.71875 -0.953125 1.125q-0.625 0.390625 -1.40625 0.390625q-0.875 0 -1.46875 -0.546875q-0.34375 -0.3125 -0.5 -0.734375q-0.140625 -0.421875 -0.140625 -1.078125l0 -5.015625l2.5625 0l0 4.484375q0 0.34375 0.0625 0.5625q0.0625 0.203125 0.203125 0.3125q0.140625 0.09375 0.359375 0.09375q0.34375 0 0.640625 -0.25q0.3125 -0.25 0.671875 -0.796875l0 -4.40625l2.5625 0l0 7.21875zm7.969055 -0.09375q-1.234375 0.25 -2.359375 0.25q-0.515625 0 -0.953125 -0.046875q-0.421875 -0.046875 -0.78125 -0.15625q-0.359375 -0.125 -0.640625 -0.28125q-0.265625 -0.171875 -0.546875 -0.4375q-0.53125 -0.5 -0.8125 -1.234375q-0.265625 -0.734375 -0.265625 -1.578125q0 -1.140625 0.484375 -2.015625q0.5 -0.875 1.421875 -1.328125q0.9375 -0.46875 2.171875 -0.46875q0.96875 0 2.234375 0.328125l0 1.703125q-1.21875 -0.484375 -1.890625 -0.484375q-0.5 0 -0.890625 0.28125q-0.390625 0.265625 -0.59375 0.765625q-0.203125 0.484375 -0.203125 1.140625q0 0.984375 0.515625 1.609375q0.53125 0.625 1.375 0.625q0.71875 0 1.734375 -0.328125l0 1.65625zm5.8408813 0.03125q-0.46875 0.140625 -0.75 0.171875q-0.265625 0.046875 -0.6875 0.046875q-1.109375 0 -1.78125 -0.40625q-0.5 -0.3125 -0.6875 -0.765625q-0.171875 -0.46875 -0.171875 -1.40625l0 -3.359375l-0.71875 0l0 -1.4375l0.71875 0l0 -1.140625l2.578125 -0.3125l0 1.453125l1.359375 0l0 1.4375l-1.359375 0l0 3.09375q0 0.46875 0.03125 0.65625q0.046875 0.1875 0.203125 0.359375q0.234375 0.234375 0.703125 0.234375q0.234375 0 0.5625 -0.109375l0 1.484375zm8.827179 -2.3125q0 0.515625 -0.234375 1.0q-0.21875 0.46875 -0.609375 0.796875q-0.40625 0.3125 -0.90625 0.453125q-0.484375 0.125 -1.34375 0.125l-4.140625 0l0 -9.640625l3.875 0q0.859375 0 1.328125 0.125q0.484375 0.109375 0.84375 0.390625q0.234375 0.203125 0.40625 0.484375q0.1875 0.265625 0.28125 0.5625q0.09375 0.296875 0.09375 0.59375q0 0.296875 -0.09375 0.59375q-0.078125 0.296875 -0.234375 0.53125q-0.15625 0.234375 -0.40625 0.453125q-0.375 0.3125 -0.703125 0.46875q-0.328125 0.15625 -1.140625 0.40625q0.453125 0.078125 0.796875 0.1875q0.359375 0.09375 0.59375 0.21875q0.25 0.109375 0.515625 0.296875q0.53125 0.359375 0.796875 0.859375q0.28125 0.5 0.28125 1.09375zm-2.9375 -4.75q0 -0.28125 -0.125 -0.484375q-0.109375 -0.203125 -0.328125 -0.28125q-0.171875 -0.0625 -0.375 -0.078125q-0.1875 -0.015625 -0.859375 -0.015625l-0.28125 0l0 2.203125l0.484375 0q0.640625 0 1.0625 -0.375q0.421875 -0.390625 0.421875 -0.96875zm0.328125 4.453125q0 -0.328125 -0.140625 -0.609375q-0.140625 -0.28125 -0.40625 -0.5q-0.265625 -0.21875 -0.625 -0.3125q-0.34375 -0.109375 -0.75 -0.109375l-0.375 0l0 2.5625l0.515625 0q0.625 0 0.9375 -0.0625q0.390625 -0.0625 0.609375 -0.328125q0.234375 -0.265625 0.234375 -0.640625z" fill-rule="nonzero"/><path fill="#000000" fill-opacity="0.0" d="m193.37448 215.0l149.7638 0l0 29.16536l-149.7638 0z" fill-rule="evenodd"/><path stroke="#000000" stroke-width="2.0" stroke-linejoin="round" stroke-linecap="butt" d="m193.37448 215.0l149.7638 0l0 29.16536l-149.7638 0z" fill-rule="evenodd"/><path fill="#000000" d="m206.10886 234.07018l0 -3.0625l-3.046875 0l0 -0.953125l3.046875 0l0 -3.0625l0.96875 0l0 3.0625l3.046875 0l0 0.953125l-3.046875 0l0 3.0625l-0.96875 0zm15.379181 0.078125q-1.296875 0.390625 -2.21875 0.390625q-1.640625 0 -2.59375 -1.109375q-0.9375 -1.109375 -0.9375 -2.609375q0 -1.0 0.421875 -1.890625q0.421875 -0.90625 1.09375 -1.34375q0.671875 -0.4375 1.578125 -0.4375q1.21875 0 1.953125 0.890625q0.734375 0.875 0.734375 2.625l-0.015625 0.390625l-4.453125 0q0.109375 0.9375 0.40625 1.453125q0.296875 0.5 0.796875 0.78125q0.5 0.28125 1.265625 0.28125q0.390625 0 0.765625 -0.0625q0.390625 -0.078125 1.203125 -0.375l0 1.015625zm-4.375 -4.0625l3.109375 0q0 -1.0625 -0.421875 -1.515625q-0.40625 -0.453125 -1.046875 -0.453125q-0.734375 0 -1.15625 0.5q-0.40625 0.484375 -0.484375 1.46875zm5.9098663 4.296875l2.6875 -3.65625l-2.609375 -3.40625l1.515625 0l2.0625 2.71875l1.875 -2.71875l1.25 0l-2.453125 3.578125l2.65625 3.484375l-1.515625 0l-2.125 -2.796875l-2.0625 2.796875l-1.28125 0zm14.064514 -0.234375q-1.296875 0.390625 -2.21875 0.390625q-1.640625 0 -2.59375 -1.109375q-0.9375 -1.109375 -0.9375 -2.609375q0 -1.0 0.421875 -1.890625q0.421875 -0.90625 1.09375 -1.34375q0.671875 -0.4375 1.578125 -0.4375q1.21875 0 1.953125 0.890625q0.734375 0.875 0.734375 2.625l-0.015625 0.390625l-4.453125 0q0.109375 0.9375 0.40625 1.453125q0.296875 0.5 0.796875 0.78125q0.5 0.28125 1.265625 0.28125q0.390625 0 0.765625 -0.0625q0.390625 -0.078125 1.203125 -0.375l0 1.015625zm-4.375 -4.0625l3.109375 0q0 -1.0625 -0.421875 -1.515625q-0.40625 -0.453125 -1.046875 -0.453125q-0.734375 0 -1.15625 0.5q-0.40625 0.484375 -0.484375 1.46875zm11.519241 4.078125q-1.234375 0.375 -2.140625 0.375q-0.953125 0 -1.75 -0.5q-0.78125 -0.515625 -1.1875 -1.34375q-0.390625 -0.84375 -0.390625 -1.890625q0 -1.5625 0.859375 -2.59375q0.875 -1.046875 2.6875 -1.046875q0.828125 0 1.84375 0.21875l0 1.078125q-1.078125 -0.3125 -1.765625 -0.3125q-1.078125 0 -1.625 0.796875q-0.546875 0.796875 -0.546875 1.90625q0 1.1875 0.609375 1.921875q0.609375 0.734375 1.59375 0.734375q0.890625 0 1.8125 -0.453125l0 1.109375zm6.342392 0.21875l0 -1.328125q-0.5 0.71875 -1.140625 1.109375q-0.640625 0.375 -1.34375 0.375q-0.890625 0 -1.453125 -0.5625q-0.5625 -0.5625 -0.5625 -1.578125l0 -5.078125l1.28125 0l0 4.65625q0 0.734375 0.125 0.96875q0.140625 0.234375 0.375 0.375q0.234375 0.125 0.5 0.125q0.46875 0 1.015625 -0.296875q0.5625 -0.296875 1.203125 -1.25l0 -4.578125l1.28125 0l0 7.0625l-1.28125 0zm7.005905 0q-0.59375 0.15625 -1.03125 0.15625q-0.95314026 0 -1.5156403 -0.546875q-0.5625 -0.546875 -0.5625 -1.5625l0 -4.15625l-0.875 0l0 -0.953125l0.875 0l0 -1.28125l1.28125 -0.125l0 1.40625l1.8593903 0l0 0.953125l-1.8593903 0l0 3.921875q0 0.75 0.28126526 1.078125q0.296875 0.3125 0.921875 0.3125q0.25 0 0.625 -0.09375l0 0.890625zm7.016266 -0.234375q-1.296875 0.390625 -2.21875 0.390625q-1.640625 0 -2.59375 -1.109375q-0.9375 -1.109375 -0.9375 -2.609375q0 -1.0 0.421875 -1.890625q0.421875 -0.90625 1.09375 -1.34375q0.671875 -0.4375 1.578125 -0.4375q1.21875 0 1.953125 0.890625q0.734375 0.875 0.734375 2.625l-0.015625 0.390625l-4.453125 0q0.109375 0.9375 0.40625 1.453125q0.296875 0.5 0.796875 0.78125q0.5 0.28125 1.265625 0.28125q0.390625 0 0.765625 -0.0625q0.390625 -0.078125 1.203125 -0.375l0 1.015625zm-4.375 -4.0625l3.109375 0q0 -1.0625 -0.421875 -1.515625q-0.40625 -0.453125 -1.046875 -0.453125q-0.734375 0 -1.15625 0.5q-0.40625 0.484375 -0.484375 1.46875zm9.191132 5.34375l0 0.875q-1.0625 -0.71875 -1.71875 -1.71875q-0.65625 -1.0 -1.0 -2.140625q-0.34375 -1.140625 -0.34375 -2.234375q0 -1.09375 0.34375 -2.234375q0.34375 -1.140625 1.0 -2.140625q0.65625 -1.0 1.71875 -1.734375l0 0.890625q-0.734375 0.796875 -1.09375 1.546875q-0.34375 0.75 -0.515625 1.6875q-0.171875 0.9375 -0.171875 1.984375q0 1.03125 0.171875 1.984375q0.171875 0.9375 0.515625 1.6875q0.359375 0.734375 1.09375 1.546875zm0.9592285 -10.4375l0 -0.890625q1.0625 0.734375 1.71875 1.734375q0.65625 1.0 0.984375 2.140625q0.34375 1.140625 0.34375 2.234375q0 1.09375 -0.34375 2.234375q-0.328125 1.140625 -0.984375 2.140625q-0.65625 1.0 -1.71875 1.71875l0 -0.875q0.734375 -0.8125 1.078125 -1.546875q0.359375 -0.75 0.515625 -1.6875q0.171875 -0.953125 0.171875 -1.984375q0 -1.03125 -0.171875 -1.96875q-0.15625 -0.953125 -0.515625 -1.703125q-0.34375 -0.75 -1.078125 -1.546875z" fill-rule="nonzero"/><path fill="#000000" fill-opacity="0.0" d="m193.37448 185.83464l149.7638 0l0 29.16536l-149.7638 0z" fill-rule="evenodd"/><path stroke="#000000" stroke-width="2.0" stroke-linejoin="round" stroke-linecap="butt" d="m193.37448 185.83464l149.7638 0l0 29.16536l-149.7638 0z" fill-rule="evenodd"/><path fill="#000000" d="m203.67136 205.21732l0 -1.609375l1.609375 0l0 1.609375l-1.609375 0zm4.217102 0l0 -1.609375l1.609375 0l0 1.609375l-1.609375 0zm4.217102 0l0 -1.609375l1.609375 0l0 1.609375l-1.609375 0z" fill-rule="nonzero"/><path fill="#000000" fill-opacity="0.0" d="m270.19815 95.53412l0 15.984253l0.0630188 0l0 15.984253" fill-rule="evenodd"/><path stroke="#000000" stroke-width="3.0" stroke-linejoin="round" stroke-linecap="butt" d="m270.26117 113.534004l0 13.96862" fill-rule="evenodd"/><path stroke="#000000" stroke-width="3.0" stroke-linecap="butt" d="m275.2163 113.51667l-5.0028076 -13.59687l-4.907501 13.631554z" fill-rule="evenodd"/><path fill="#000000" fill-opacity="0.0" d="m101.87533 127.88058l-0.15747833 28.409447" fill-rule="evenodd"/><path stroke="#000000" stroke-width="2.0" stroke-linejoin="round" stroke-linecap="round" d="m101.87533 127.88058l-0.15747833 28.409447" fill-rule="evenodd"/><path fill="#000000" fill-opacity="0.0" d="m270.05774 126.51312l0.34646606 29.16536" fill-rule="evenodd"/><path stroke="#000000" stroke-width="2.0" stroke-linejoin="round" stroke-linecap="round" d="m270.05774 126.51312l0.34646606 29.16536" fill-rule="evenodd"/><path fill="#000000" fill-opacity="0.0" d="m101.720474 126.95407l336.7874 0" fill-rule="evenodd"/><path stroke="#000000" stroke-width="2.0" stroke-linejoin="round" stroke-linecap="round" d="m101.720474 126.95407l336.7874 0" fill-rule="evenodd"/><path fill="#000000" fill-opacity="0.0" d="m605.22046 170.51181l211.55908 0l0 29.16536l-211.55908 0z" fill-rule="evenodd"/><path stroke="#000000" stroke-width="3.0" stroke-linejoin="round" stroke-linecap="butt" d="m605.22046 170.51181l211.55908 0l0 29.16536l-211.55908 0z" fill-rule="evenodd"/><path fill="#000000" d="m691.91345 181.86324l-4.09375 0l0 2.65625l3.328125 0l0 1.4375l-3.328125 0l0 3.9375l-2.5625 0l0 -9.640625l6.65625 0l0 1.609375zm7.992981 8.03125q-0.71875 0.15625 -1.28125 0.15625q-0.453125 0 -0.8125 -0.078125q-0.34375 -0.078125 -0.546875 -0.203125q-0.21875 -0.15625 -0.4375 -0.515625l-0.171875 0q-0.421875 0.453125 -0.828125 0.625q-0.390625 0.171875 -0.96875 0.171875q-0.671875 0 -1.203125 -0.265625q-0.53125 -0.28125 -0.828125 -0.78125q-0.28125 -0.5 -0.28125 -1.140625q0 -1.09375 0.796875 -1.75q0.5 -0.421875 1.15625 -0.578125q0.65625 -0.171875 1.796875 -0.171875l0.53125 0l0 -0.453125q0 -1.0 -1.28125 -1.0q-0.578125 0 -1.3125 0.203125q-0.53125 0.15625 -1.046875 0.453125l0 -1.609375q0.09375 -0.03125 0.1875 -0.0625q0.09375 -0.03125 0.171875 -0.046875q1.078125 -0.34375 2.34375 -0.34375q3.34375 0 3.34375 2.265625l0 3.125q0 0.59375 0.40625 0.59375q0.078125 0 0.265625 -0.03125l0 1.4375zm-3.078125 -2.015625l0 -1.15625l-0.515625 0q-1.359375 0 -1.359375 0.953125q0 0.359375 0.203125 0.59375q0.21875 0.21875 0.578125 0.21875q0.5625 0 1.09375 -0.609375zm10.475952 1.921875q-1.234375 0.25 -2.359375 0.25q-0.515625 0 -0.953125 -0.046875q-0.421875 -0.046875 -0.78125 -0.15625q-0.359375 -0.125 -0.640625 -0.28125q-0.265625 -0.171875 -0.546875 -0.4375q-0.53125 -0.5 -0.8125 -1.234375q-0.265625 -0.734375 -0.265625 -1.578125q0 -1.140625 0.484375 -2.015625q0.5 -0.875 1.421875 -1.328125q0.9375 -0.46875 2.171875 -0.46875q0.96875 0 2.234375 0.328125l0 1.703125q-1.21875 -0.484375 -1.890625 -0.484375q-0.5 0 -0.890625 0.28125q-0.390625 0.265625 -0.59375 0.765625q-0.203125 0.484375 -0.203125 1.140625q0 0.984375 0.515625 1.609375q0.53125 0.625 1.375 0.625q0.71875 0 1.734375 -0.328125l0 1.65625zm5.8408813 0.03125q-0.46875 0.140625 -0.75 0.171875q-0.265625 0.046875 -0.6875 0.046875q-1.109375 0 -1.78125 -0.40625q-0.5 -0.3125 -0.6875 -0.765625q-0.171875 -0.46875 -0.171875 -1.40625l0 -3.359375l-0.71875 0l0 -1.4375l0.71875 0l0 -1.140625l2.578125 -0.3125l0 1.453125l1.359375 0l0 1.4375l-1.359375 0l0 3.09375q0 0.46875 0.03125 0.65625q0.046875 0.1875 0.203125 0.359375q0.234375 0.234375 0.703125 0.234375q0.234375 0 0.5625 -0.109375l0 1.484375zm8.983398 -3.546875q0 0.875 -0.28125 1.578125q-0.265625 0.6875 -0.796875 1.1875q-0.515625 0.5 -1.25 0.75q-0.734375 0.25 -1.640625 0.25q-0.9375 0 -1.6875 -0.25q-0.75 -0.25 -1.296875 -0.734375q-0.53125 -0.5 -0.8125 -1.203125q-0.265625 -0.71875 -0.265625 -1.59375q0 -0.859375 0.265625 -1.5625q0.28125 -0.71875 0.796875 -1.203125q0.53125 -0.484375 1.265625 -0.734375q0.734375 -0.265625 1.671875 -0.265625q0.953125 0 1.6875 0.265625q0.75 0.25 1.265625 0.734375q0.53125 0.484375 0.796875 1.1875q0.28125 0.6875 0.28125 1.59375zm-2.734375 -0.015625q0 -1.046875 -0.359375 -1.671875q-0.359375 -0.640625 -0.9375 -0.640625q-0.375 0 -0.65625 0.296875q-0.28125 0.28125 -0.453125 0.828125q-0.15625 0.53125 -0.15625 1.203125q0 0.65625 0.15625 1.203125q0.15625 0.53125 0.4375 0.828125q0.296875 0.296875 0.671875 0.296875q0.578125 0 0.9375 -0.640625q0.359375 -0.65625 0.359375 -1.703125zm9.5563965 -1.484375q-0.296875 -0.125 -0.484375 -0.15625q-0.171875 -0.03125 -0.5 -0.03125q-0.5625 0 -0.953125 0.21875q-0.390625 0.203125 -0.71875 0.671875l0 4.40625l-2.5625 0l0 -7.21875l2.5625 0l0 1.359375l0.03125 0q0.109375 -0.34375 0.40625 -0.671875q0.3125 -0.328125 0.75 -0.578125q0.5 -0.28125 1.15625 -0.28125q0.1875 0 0.3125 0.046875l0 2.234375zm8.7578125 -2.109375l-4.703125 9.796875l-2.65625 0l1.96875 -2.578125l-2.84375 -7.21875l2.765625 0l1.65625 4.203125l2.03125 -4.203125l1.78125 0z" fill-rule="nonzero"/><path fill="#000000" fill-opacity="0.0" d="m605.22046 228.84251l211.55908 0l0 29.16536l-211.55908 0z" fill-rule="evenodd"/><path stroke="#000000" stroke-width="2.0" stroke-linejoin="round" stroke-linecap="butt" d="m605.22046 228.84251l211.55908 0l0 29.16536l-211.55908 0z" fill-rule="evenodd"/><path fill="#000000" d="m617.95483 247.91269l0 -3.0625l-3.046875 0l0 -0.953125l3.046875 0l0 -3.0625l0.96875 0l0 3.0625l3.046875 0l0 0.953125l-3.046875 0l0 3.0625l-0.96875 0zm10.222961 2.65625l0.140625 -1.109375q1.125 0.53125 2.203125 0.53125q1.21875 0 1.6875 -0.625q0.46875 -0.625 0.46875 -1.671875l0 -1.109375q-0.28125 0.578125 -0.875 1.03125q-0.578125 0.453125 -1.4375 0.453125q-1.453125 0 -2.125 -1.046875q-0.65625 -1.046875 -0.65625 -2.375q0 -1.015625 0.390625 -1.890625q0.390625 -0.875 1.078125 -1.3125q0.703125 -0.4375 1.59375 -0.4375q0.390625 0 0.734375 0.09375q0.34375 0.078125 0.640625 0.265625q0.296875 0.1875 0.65625 0.59375l0 -0.796875l1.296875 0l0 5.140625q0 2.234375 -0.375 3.0625q-0.375 0.828125 -1.171875 1.203125q-0.796875 0.390625 -1.90625 0.390625q-0.34375 0 -0.765625 -0.046875q-0.40625 -0.03125 -0.734375 -0.09375q-0.328125 -0.0625 -0.84375 -0.25zm4.5 -4.796875l0 -2.921875q-0.421875 -0.453125 -0.875 -0.671875q-0.453125 -0.21875 -0.96875 -0.21875q-0.84375 0 -1.359375 0.6875q-0.515625 0.6875 -0.515625 2.0q0 1.015625 0.375 1.65625q0.390625 0.640625 1.25 0.640625q0.5625 0 1.078125 -0.296875q0.53125 -0.296875 1.015625 -0.875zm8.966797 2.21875q-1.296875 0.390625 -2.21875 0.390625q-1.640625 0 -2.59375 -1.109375q-0.9375 -1.109375 -0.9375 -2.609375q0 -1.0 0.421875 -1.890625q0.421875 -0.90625 1.09375 -1.34375q0.671875 -0.4375 1.578125 -0.4375q1.21875 0 1.953125 0.890625q0.734375 0.875 0.734375 2.625l-0.015625 0.390625l-4.453125 0q0.109375 0.9375 0.40625 1.453125q0.296875 0.5 0.796875 0.78125q0.5 0.28125 1.265625 0.28125q0.390625 0 0.765625 -0.0625q0.390625 -0.078125 1.203125 -0.375l0 1.015625zm-4.375 -4.0625l3.109375 0q0 -1.0625 -0.421875 -1.515625q-0.40625 -0.453125 -1.046875 -0.453125q-0.734375 0 -1.15625 0.5q-0.40625 0.484375 -0.484375 1.46875zm9.769226 4.296875q-0.59375 0.15625 -1.03125 0.15625q-0.953125 0 -1.515625 -0.546875q-0.5625 -0.546875 -0.5625 -1.5625l0 -4.15625l-0.875 0l0 -0.953125l0.875 0l0 -1.28125l1.28125 -0.125l0 1.40625l1.859375 0l0 0.953125l-1.859375 0l0 3.921875q0 0.75 0.28125 1.078125q0.296875 0.3125 0.921875 0.3125q0.25 0 0.625 -0.09375l0 0.890625zm1.7975464 0l0 -9.625l2.609375 0q1.40625 0 2.015625 0.28125q0.609375 0.265625 0.921875 0.828125q0.328125 0.5625 0.328125 1.40625q0 0.984375 -0.4375 1.734375q-0.421875 0.734375 -1.375 1.140625q-0.953125 0.40625 -2.109375 0.40625l-0.609375 0l0 3.828125l-1.34375 0zm1.34375 -4.859375l0.5625 0q1.359375 0 1.9375 -0.609375q0.59375 -0.625 0.59375 -1.546875q0 -0.484375 -0.1875 -0.828125q-0.1875 -0.34375 -0.609375 -0.546875q-0.40625 -0.21875 -1.453125 -0.21875l-0.84375 0l0 3.75zm6.0543823 4.859375l0 -7.0625l1.28125 0l0 1.328125q0.359375 -0.71875 0.9375 -1.09375q0.59375 -0.390625 1.28125 -0.390625q0.1875 0 0.40625 0.03125l0 1.1875q-0.328125 -0.109375 -0.59375 -0.109375q-0.59375 0 -1.109375 0.375q-0.515625 0.359375 -0.921875 1.078125l0 4.65625l-1.28125 0zm8.266113 0.15625q-1.015625 0 -1.765625 -0.40625q-0.734375 -0.40625 -1.171875 -1.296875q-0.4375 -0.890625 -0.4375 -1.984375q0 -1.03125 0.390625 -1.90625q0.40625 -0.890625 1.15625 -1.328125q0.765625 -0.453125 1.828125 -0.453125q1.015625 0 1.75 0.40625q0.75 0.40625 1.1875 1.296875q0.4375 0.890625 0.4375 1.984375q0 1.03125 -0.40625 1.921875q-0.40625 0.875 -1.15625 1.328125q-0.75 0.4375 -1.8125 0.4375zm0 -0.953125q0.953125 0 1.484375 -0.703125q0.53125 -0.71875 0.53125 -2.03125q0 -1.3125 -0.53125 -2.015625q-0.53125 -0.71875 -1.484375 -0.71875q-0.953125 0 -1.484375 0.71875q-0.515625 0.703125 -0.515625 2.015625q0 1.3125 0.515625 2.03125q0.53125 0.703125 1.484375 0.703125zm9.90564 0.796875l0 -1.328125q-0.390625 0.75 -0.984375 1.125q-0.578125 0.359375 -1.359375 0.359375q-1.3125 0 -2.03125 -0.953125q-0.71875 -0.953125 -0.71875 -2.515625q0 -1.671875 0.8125 -2.78125q0.8125 -1.125 2.203125 -1.125q0.40625 0 0.78125 0.09375q0.375 0.09375 0.65625 0.28125q0.296875 0.171875 0.640625 0.578125l0 -4.015625l1.296875 0l0 10.28125l-1.296875 0zm0 -5.375q-0.65625 -0.59375 -1.046875 -0.734375q-0.390625 -0.15625 -0.828125 -0.15625q-0.9375 0 -1.390625 0.796875q-0.453125 0.78125 -0.453125 2.03125q0 1.140625 0.390625 1.8125q0.40625 0.65625 1.25 0.65625q0.53125 0 1.046875 -0.28125q0.53125 -0.296875 1.03125 -0.875l0 -3.25zm8.279297 5.375l0 -1.328125q-0.5 0.71875 -1.140625 1.109375q-0.640625 0.375 -1.34375 0.375q-0.890625 0 -1.453125 -0.5625q-0.5625 -0.5625 -0.5625 -1.578125l0 -5.078125l1.28125 0l0 4.65625q0 0.734375 0.125 0.96875q0.140625 0.234375 0.375 0.375q0.234375 0.125 0.5 0.125q0.46875 0 1.015625 -0.296875q0.5625 -0.296875 1.203125 -1.25l0 -4.578125l1.28125 0l0 7.0625l-1.28125 0zm8.75592 -0.21875q-1.234375 0.375 -2.140625 0.375q-0.953125 0 -1.75 -0.5q-0.78125 -0.515625 -1.1875 -1.34375q-0.390625 -0.84375 -0.390625 -1.890625q0 -1.5625 0.859375 -2.59375q0.875 -1.046875 2.6875 -1.046875q0.828125 0 1.84375 0.21875l0 1.078125q-1.078125 -0.3125 -1.765625 -0.3125q-1.078125 0 -1.625 0.796875q-0.546875 0.796875 -0.546875 1.90625q0 1.1875 0.609375 1.921875q0.609375 0.734375 1.59375 0.734375q0.890625 0 1.8125 -0.453125l0 1.109375zm5.076721 0.21875q-0.59375 0.15625 -1.03125 0.15625q-0.953125 0 -1.515625 -0.546875q-0.5625 -0.546875 -0.5625 -1.5625l0 -4.15625l-0.875 0l0 -0.953125l0.875 0l0 -1.28125l1.28125 -0.125l0 1.40625l1.859375 0l0 0.953125l-1.859375 0l0 3.921875q0 0.75 0.28125 1.078125q0.296875 0.3125 0.921875 0.3125q0.25 0 0.625 -0.09375l0 0.890625zm4.4069214 1.046875l0 0.875q-1.0625 -0.71875 -1.71875 -1.71875q-0.65625 -1.0 -1.0 -2.140625q-0.34375 -1.140625 -0.34375 -2.234375q0 -1.09375 0.34375 -2.234375q0.34375 -1.140625 1.0 -2.140625q0.65625 -1.0 1.71875 -1.734375l0 0.890625q-0.734375 0.796875 -1.09375 1.546875q-0.34375 0.75 -0.515625 1.6875q-0.171875 0.9375 -0.171875 1.984375q0 1.03125 0.171875 1.984375q0.171875 0.9375 0.515625 1.6875q0.359375 0.734375 1.09375 1.546875zm0.9592285 -10.4375l0 -0.890625q1.0625 0.734375 1.71875 1.734375q0.65625 1.0 0.984375 2.140625q0.34375 1.140625 0.34375 2.234375q0 1.09375 -0.34375 2.234375q-0.328125 1.140625 -0.984375 2.140625q-0.65625 1.0 -1.71875 1.71875l0 -0.875q0.734375 -0.8125 1.078125 -1.546875q0.359375 -0.75 0.515625 -1.6875q0.171875 -0.953125 0.171875 -1.984375q0 -1.03125 -0.171875 -1.96875q-0.15625 -0.953125 -0.515625 -1.703125q-0.34375 -0.75 -1.078125 -1.546875zm9.535767 9.390625l0 -1.28125l1.28125 0l0 1.28125l-1.28125 0zm0 -5.78125l0 -1.28125l1.28125 0l0 1.28125l-1.28125 0zm8.215454 5.78125l0 -9.625l2.609375 0q1.40625 0 2.015625 0.28125q0.609375 0.265625 0.921875 0.828125q0.328125 0.5625 0.328125 1.40625q0 0.984375 -0.4375 1.734375q-0.421875 0.734375 -1.375 1.140625q-0.953125 0.40625 -2.109375 0.40625l-0.609375 0l0 3.828125l-1.34375 0zm1.34375 -4.859375l0.5625 0q1.359375 0 1.9375 -0.609375q0.59375 -0.625 0.59375 -1.546875q0 -0.484375 -0.1875 -0.828125q-0.1875 -0.34375 -0.609375 -0.546875q-0.40625 -0.21875 -1.453125 -0.21875l-0.84375 0l0 3.75zm6.0543823 4.859375l0 -7.0625l1.28125 0l0 1.328125q0.359375 -0.71875 0.9375 -1.09375q0.59375 -0.390625 1.28125 -0.390625q0.1875 0 0.40625 0.03125l0 1.1875q-0.328125 -0.109375 -0.59375 -0.109375q-0.59375 0 -1.109375 0.375q-0.515625 0.359375 -0.921875 1.078125l0 4.65625l-1.28125 0zm8.266113 0.15625q-1.015625 0 -1.765625 -0.40625q-0.734375 -0.40625 -1.171875 -1.296875q-0.4375 -0.890625 -0.4375 -1.984375q0 -1.03125 0.390625 -1.90625q0.40625 -0.890625 1.15625 -1.328125q0.765625 -0.453125 1.828125 -0.453125q1.015625 0 1.75 0.40625q0.75 0.40625 1.1875 1.296875q0.4375 0.890625 0.4375 1.984375q0 1.03125 -0.40625 1.921875q-0.40625 0.875 -1.15625 1.328125q-0.75 0.4375 -1.8125 0.4375zm0 -0.953125q0.953125 0 1.484375 -0.703125q0.53125 -0.71875 0.53125 -2.03125q0 -1.3125 -0.53125 -2.015625q-0.53125 -0.71875 -1.484375 -0.71875q-0.953125 0 -1.484375 0.71875q-0.515625 0.703125 -0.515625 2.015625q0 1.3125 0.515625 2.03125q0.53125 0.703125 1.484375 0.703125zm9.90564 0.796875l0 -1.328125q-0.390625 0.75 -0.984375 1.125q-0.578125 0.359375 -1.359375 0.359375q-1.3125 0 -2.03125 -0.953125q-0.71875 -0.953125 -0.71875 -2.515625q0 -1.671875 0.8125 -2.78125q0.8125 -1.125 2.203125 -1.125q0.40625 0 0.78125 0.09375q0.375 0.09375 0.65625 0.28125q0.296875 0.171875 0.640625 0.578125l0 -4.015625l1.296875 0l0 10.28125l-1.296875 0zm0 -5.375q-0.65625 -0.59375 -1.046875 -0.734375q-0.390625 -0.15625 -0.828125 -0.15625q-0.9375 0 -1.390625 0.796875q-0.453125 0.78125 -0.453125 2.03125q0 1.140625 0.390625 1.8125q0.40625 0.65625 1.25 0.65625q0.53125 0 1.046875 -0.28125q0.53125 -0.296875 1.03125 -0.875l0 -3.25zm8.279297 5.375l0 -1.328125q-0.5 0.71875 -1.140625 1.109375q-0.640625 0.375 -1.34375 0.375q-0.890625 0 -1.453125 -0.5625q-0.5625 -0.5625 -0.5625 -1.578125l0 -5.078125l1.28125 0l0 4.65625q0 0.734375 0.125 0.96875q0.140625 0.234375 0.375 0.375q0.234375 0.125 0.5 0.125q0.46875 0 1.015625 -0.296875q0.5625 -0.296875 1.203125 -1.25l0 -4.578125l1.28125 0l0 7.0625l-1.28125 0zm8.755859 -0.21875q-1.234375 0.375 -2.140625 0.375q-0.953125 0 -1.75 -0.5q-0.78125 -0.515625 -1.1875 -1.34375q-0.390625 -0.84375 -0.390625 -1.890625q0 -1.5625 0.859375 -2.59375q0.875 -1.046875 2.6875 -1.046875q0.828125 0 1.84375 0.21875l0 1.078125q-1.078125 -0.3125 -1.765625 -0.3125q-1.078125 0 -1.625 0.796875q-0.546875 0.796875 -0.546875 1.90625q0 1.1875 0.609375 1.921875q0.609375 0.734375 1.59375 0.734375q0.890625 0 1.8125 -0.453125l0 1.109375zm5.076782 0.21875q-0.59375 0.15625 -1.03125 0.15625q-0.953125 0 -1.515625 -0.546875q-0.5625 -0.546875 -0.5625 -1.5625l0 -4.15625l-0.875 0l0 -0.953125l0.875 0l0 -1.28125l1.28125 -0.125l0 1.40625l1.859375 0l0 0.953125l-1.859375 0l0 3.921875q0 0.75 0.28125 1.078125q0.296875 0.3125 0.921875 0.3125q0.25 0 0.625 -0.09375l0 0.890625zm1.7975464 0l0 -9.625l2.484375 0q1.640625 0 2.3125 0.625q0.6875 0.625 0.6875 1.484375q0 0.703125 -0.46875 1.40625q-0.453125 0.6875 -1.515625 1.09375q0.9375 0.28125 1.390625 0.65625q0.46875 0.359375 0.71875 0.875q0.25 0.515625 0.25 1.078125q0 0.671875 -0.34375 1.25q-0.34375 0.578125 -0.90625 0.875q-0.5625 0.28125 -1.78125 0.28125l-2.828125 0zm1.34375 -1.015625l0.28125 0q1.453125 0 1.875 -0.15625q0.4375 -0.171875 0.671875 -0.53125q0.25 -0.375 0.25 -0.828125q0 -0.84375 -0.765625 -1.421875q-0.765625 -0.578125 -1.921875 -0.578125l-0.390625 0l0 3.515625zm0 -4.390625l0.4375 0q1.1875 0 1.734375 -0.5q0.5625 -0.515625 0.5625 -1.296875q0 -0.6875 -0.5 -1.046875q-0.484375 -0.359375 -1.703125 -0.359375l-0.53125 0l0 3.203125zm9.994385 4.515625q-0.5625 0.515625 -1.125 0.78125q-0.5625 0.265625 -1.09375 0.265625q-0.75 0 -1.390625 -0.484375q-0.640625 -0.5 -0.640625 -1.453125q0 -1.03125 0.890625 -1.703125q0.90625 -0.6875 2.875 -0.6875l0.296875 0l0 -0.859375q0 -0.5 -0.140625 -0.734375q-0.125 -0.234375 -0.421875 -0.359375q-0.28125 -0.140625 -0.71875 -0.140625q-1.0 0 -2.171875 0.625l0 -1.0625q1.296875 -0.515625 2.4375 -0.515625q0.625 0 1.140625 0.203125q0.53125 0.1875 0.84375 0.625q0.3125 0.421875 0.3125 1.359375l0 3.203125q0 0.53125 0.078125 0.71875q0.09375 0.1875 0.25 0.28125q0.15625 0.09375 0.359375 0.09375q0.078125 0 0.234375 -0.015625l0.09375 0.703125q-0.4375 0.203125 -0.953125 0.203125q-0.359375 0 -0.6875 -0.21875q-0.328125 -0.234375 -0.46875 -0.828125zm-0.1875 -0.703125l0 -1.828125l-0.40625 -0.015625q-1.015625 0 -1.703125 0.390625q-0.671875 0.390625 -0.671875 1.0625q0 0.46875 0.328125 0.78125q0.34375 0.3125 0.796875 0.3125q0.390625 0 0.8125 -0.171875q0.421875 -0.1875 0.84375 -0.53125zm3.6416626 1.34375l0 -1.171875q1.265625 0.625 2.1875 0.625q0.546875 0 0.90625 -0.296875q0.375 -0.3125 0.375 -0.75q0 -0.28125 -0.171875 -0.546875q-0.1875 -0.265625 -0.84375 -0.546875l-0.75 -0.3125q-0.859375 -0.359375 -1.265625 -0.84375q-0.390625 -0.46875 -0.390625 -1.140625q0 -0.859375 0.609375 -1.421875q0.625 -0.5625 1.828125 -0.5625q0.59375 0 1.46875 0.15625l0.265625 0.046875l0 1.078125q-1.0625 -0.328125 -1.703125 -0.328125q-0.625 0 -0.9375 0.265625q-0.296875 0.265625 -0.296875 0.640625q0 0.28125 0.203125 0.515625q0.203125 0.234375 0.734375 0.453125l0.625 0.265625q1.234375 0.53125 1.578125 1.046875q0.328125 0.5 0.328125 1.109375q0 0.578125 -0.3125 1.078125q-0.3125 0.5 -0.9375 0.78125q-0.609375 0.265625 -1.359375 0.265625q-0.875 0 -2.140625 -0.40625zm12.2473755 0.015625q-1.296875 0.390625 -2.21875 0.390625q-1.640625 0 -2.59375 -1.109375q-0.9375 -1.109375 -0.9375 -2.609375q0 -1.0 0.421875 -1.890625q0.421875 -0.90625 1.09375 -1.34375q0.671875 -0.4375 1.578125 -0.4375q1.21875 0 1.953125 0.890625q0.734375 0.875 0.734375 2.625l-0.015625 0.390625l-4.453125 0q0.109375 0.9375 0.40625 1.453125q0.296875 0.5 0.796875 0.78125q0.5 0.28125 1.265625 0.28125q0.390625 0 0.765625 -0.0625q0.390625 -0.078125 1.203125 -0.375l0 1.015625zm-4.375 -4.0625l3.109375 0q0 -1.0625 -0.421875 -1.515625q-0.40625 -0.453125 -1.046875 -0.453125q-0.734375 0 -1.15625 0.5q-0.40625 0.484375 -0.484375 1.46875z" fill-rule="nonzero"/><path fill="#000000" fill-opacity="0.0" d="m605.22046 199.67717l211.55908 0l0 29.165344l-211.55908 0z" fill-rule="evenodd"/><path stroke="#000000" stroke-width="2.0" stroke-linejoin="round" stroke-linecap="butt" d="m605.22046 199.67717l211.55908 0l0 29.165344l-211.55908 0z" fill-rule="evenodd"/><path fill="#000000" fill-opacity="0.0" d="m363.8758 156.6693l149.7638 0l0 29.165344l-149.7638 0z" fill-rule="evenodd"/><path stroke="#000000" stroke-width="3.0" stroke-linejoin="round" stroke-linecap="butt" d="m363.8758 156.6693l149.7638 0l0 29.165344l-149.7638 0z" fill-rule="evenodd"/><path fill="#000000" d="m383.15085 175.77072q-0.34375 0.109375 -0.390625 0.125q-1.40625 0.390625 -3.046875 0.390625q-0.765625 0 -1.421875 -0.125q-0.65625 -0.109375 -1.234375 -0.34375q-0.578125 -0.234375 -1.0 -0.578125q-0.421875 -0.328125 -0.734375 -0.75q-0.3125 -0.421875 -0.546875 -0.96875q-0.234375 -0.546875 -0.34375 -1.109375q-0.109375 -0.5625 -0.109375 -1.1875q0 -0.75 0.15625 -1.453125q0.171875 -0.703125 0.5 -1.28125q0.328125 -0.59375 0.796875 -1.03125q0.453125 -0.453125 1.03125 -0.734375q0.578125 -0.28125 1.296875 -0.40625q0.71875 -0.140625 1.59375 -0.140625q0.90625 0 1.828125 0.09375q0.921875 0.09375 1.46875 0.234375l0 1.84375q-0.1875 -0.078125 -0.28125 -0.09375q-0.09375 -0.03125 -0.1875 -0.0625q-1.328125 -0.421875 -2.390625 -0.421875q-1.390625 0 -2.15625 0.71875q-0.4375 0.4375 -0.6875 1.140625q-0.234375 0.6875 -0.234375 1.546875q0 1.09375 0.375 1.875q0.390625 0.765625 1.125 1.171875q0.75 0.390625 1.8125 0.390625q0.453125 0 1.078125 -0.09375q0.5 -0.09375 0.828125 -0.171875q0.328125 -0.09375 0.875 -0.34375l0 1.765625zm8.880341 -3.328125q0 0.875 -0.28125 1.578125q-0.265625 0.6875 -0.796875 1.1875q-0.515625 0.5 -1.25 0.75q-0.734375 0.25 -1.640625 0.25q-0.9375 0 -1.6875 -0.25q-0.75 -0.25 -1.296875 -0.734375q-0.53125 -0.5 -0.8125 -1.203125q-0.265625 -0.71875 -0.265625 -1.59375q0 -0.859375 0.265625 -1.5625q0.28125 -0.71875 0.796875 -1.203125q0.53125 -0.484375 1.265625 -0.734375q0.734375 -0.265625 1.671875 -0.265625q0.953125 0 1.6875 0.265625q0.75 0.25 1.265625 0.734375q0.53125 0.484375 0.796875 1.1875q0.28125 0.6875 0.28125 1.59375zm-2.734375 -0.015625q0 -1.046875 -0.359375 -1.671875q-0.359375 -0.640625 -0.9375 -0.640625q-0.375 0 -0.65625 0.296875q-0.28125 0.28125 -0.453125 0.828125q-0.15625 0.53125 -0.15625 1.203125q0 0.65625 0.15625 1.203125q0.15625 0.53125 0.4375 0.828125q0.296875 0.296875 0.671875 0.296875q0.578125 0 0.9375 -0.640625q0.359375 -0.65625 0.359375 -1.703125zm11.4001465 3.625l-2.5625 0l0 -4.484375q0 -0.53125 -0.15625 -0.75q-0.140625 -0.234375 -0.46875 -0.234375q-0.34375 0 -0.65625 0.265625q-0.3125 0.25 -0.65625 0.796875l0 4.40625l-2.5625 0l0 -7.21875l2.5625 0l0 1.359375l0.03125 0q0.34375 -0.734375 0.953125 -1.125q0.625 -0.40625 1.40625 -0.40625q0.875 0 1.46875 0.53125q0.359375 0.328125 0.5 0.75q0.140625 0.40625 0.140625 1.078125l0 5.03125zm7.89093 -0.09375q-1.234375 0.25 -2.359375 0.25q-0.515625 0 -0.953125 -0.046875q-0.421875 -0.046875 -0.78125 -0.15625q-0.359375 -0.125 -0.640625 -0.28125q-0.265625 -0.171875 -0.546875 -0.4375q-0.53125 -0.5 -0.8125 -1.234375q-0.265625 -0.734375 -0.265625 -1.578125q0 -1.140625 0.484375 -2.015625q0.5 -0.875 1.421875 -1.328125q0.9375 -0.46875 2.171875 -0.46875q0.96875 0 2.234375 0.328125l0 1.703125q-1.21875 -0.484375 -1.890625 -0.484375q-0.5 0 -0.890625 0.28125q-0.390625 0.265625 -0.59375 0.765625q-0.203125 0.484375 -0.203125 1.140625q0 0.984375 0.515625 1.609375q0.53125 0.625 1.375 0.625q0.71875 0 1.734375 -0.328125l0 1.65625zm6.8408813 -5.015625q-0.296875 -0.125 -0.484375 -0.15625q-0.171875 -0.03125 -0.5 -0.03125q-0.5625 0 -0.953125 0.21875q-0.390625 0.203125 -0.71875 0.671875l0 4.40625l-2.5625 0l0 -7.21875l2.5625 0l0 1.359375l0.03125 0q0.109375 -0.34375 0.40625 -0.671875q0.3125 -0.328125 0.75 -0.578125q0.5 -0.28125 1.15625 -0.28125q0.1875 0 0.3125 0.046875l0 2.234375zm7.8984375 4.875q-0.234375 0.0625 -0.4375 0.109375q-1.296875 0.296875 -2.515625 0.296875q-0.890625 0 -1.65625 -0.21875q-0.75 -0.234375 -1.234375 -0.625q-0.609375 -0.515625 -0.984375 -1.34375q-0.359375 -0.84375 -0.359375 -1.703125q0 -0.8125 0.265625 -1.5q0.28125 -0.6875 0.78125 -1.171875q0.5 -0.484375 1.203125 -0.734375q0.71875 -0.265625 1.578125 -0.265625q0.828125 0 1.40625 0.203125q0.578125 0.203125 1.0 0.625q0.5625 0.59375 0.75 1.328125q0.09375 0.359375 0.125 0.640625q0.046875 0.265625 0.0625 0.640625q0.015625 0.359375 0.015625 0.90625l-4.53125 0q0.03125 0.3125 0.078125 0.515625q0.046875 0.1875 0.171875 0.375q0.234375 0.359375 0.640625 0.515625q0.421875 0.15625 1.15625 0.15625q0.671875 0 1.109375 -0.078125q0.4375 -0.078125 1.375 -0.375l0 1.703125zm-2.421875 -4.09375l0 -0.109375q0 -0.8125 -0.234375 -1.171875q-0.21875 -0.375 -0.71875 -0.375q-0.359375 0 -0.625 0.203125q-0.25 0.1875 -0.390625 0.5625q-0.140625 0.359375 -0.171875 0.890625l2.140625 0zm8.367889 4.265625q-0.46875 0.140625 -0.75 0.171875q-0.265625 0.046875 -0.6875 0.046875q-1.109375 0 -1.78125 -0.40625q-0.5 -0.3125 -0.6875 -0.765625q-0.171875 -0.46875 -0.171875 -1.40625l0 -3.359375l-0.71875 0l0 -1.4375l0.71875 0l0 -1.140625l2.578125 -0.3125l0 1.453125l1.359375 0l0 1.4375l-1.359375 0l0 3.09375q0 0.46875 0.03125 0.65625q0.046875 0.1875 0.203125 0.359375q0.234375 0.234375 0.703125 0.234375q0.234375 0 0.5625 -0.109375l0 1.484375zm8.045929 -0.171875q-0.234375 0.0625 -0.4375 0.109375q-1.296875 0.296875 -2.515625 0.296875q-0.890625 0 -1.65625 -0.21875q-0.75 -0.234375 -1.234375 -0.625q-0.609375 -0.515625 -0.984375 -1.34375q-0.359375 -0.84375 -0.359375 -1.703125q0 -0.8125 0.265625 -1.5q0.28125 -0.6875 0.78125 -1.171875q0.5 -0.484375 1.203125 -0.734375q0.71875 -0.265625 1.578125 -0.265625q0.828125 0 1.40625 0.203125q0.578125 0.203125 1.0 0.625q0.5625 0.59375 0.75 1.328125q0.09375 0.359375 0.125 0.640625q0.046875 0.265625 0.0625 0.640625q0.015625 0.359375 0.015625 0.90625l-4.53125 0q0.03125 0.3125 0.078125 0.515625q0.046875 0.1875 0.171875 0.375q0.234375 0.359375 0.640625 0.515625q0.421875 0.15625 1.15625 0.15625q0.671875 0 1.109375 -0.078125q0.4375 -0.078125 1.375 -0.375l0 1.703125zm-2.421875 -4.09375l0 -0.109375q0 -0.8125 -0.234375 -1.171875q-0.21875 -0.375 -0.71875 -0.375q-0.359375 0 -0.625 0.203125q-0.25 0.1875 -0.390625 0.5625q-0.140625 0.359375 -0.171875 0.890625l2.140625 0zm11.321014 -2.71875q0 0.78125 -0.25 1.390625q-0.234375 0.609375 -0.71875 1.046875q-0.484375 0.4375 -1.1875 0.65625q-0.703125 0.21875 -1.578125 0.21875l-1.03125 0l0 3.734375l-2.40625 0l0 -9.640625l3.9375 0q0.703125 0 1.125 0.0625q0.421875 0.046875 0.71875 0.171875q0.3125 0.125 0.59375 0.328125q0.796875 0.640625 0.796875 2.03125zm-2.59375 0.21875q0 -1.203125 -1.5 -1.203125l-0.671875 0l0 2.84375l0.3125 0q0.875 0 1.359375 -0.421875q0.5 -0.4375 0.5 -1.21875zm9.400238 1.71875q-0.296875 -0.125 -0.484375 -0.15625q-0.171875 -0.03125 -0.5 -0.03125q-0.5625 0 -0.953125 0.21875q-0.390625 0.203125 -0.71875 0.671875l0 4.40625l-2.5625 0l0 -7.21875l2.5625 0l0 1.359375l0.03125 0q0.109375 -0.34375 0.40625 -0.671875q0.3125 -0.328125 0.75 -0.578125q0.5 -0.28125 1.15625 -0.28125q0.1875 0 0.3125 0.046875l0 2.234375zm8.8359375 1.5q0 0.875 -0.28125 1.578125q-0.265625 0.6875 -0.796875 1.1875q-0.515625 0.5 -1.25 0.75q-0.734375 0.25 -1.640625 0.25q-0.9375 0 -1.6875 -0.25q-0.75 -0.25 -1.296875 -0.734375q-0.53125 -0.5 -0.8125 -1.203125q-0.265625 -0.71875 -0.265625 -1.59375q0 -0.859375 0.265625 -1.5625q0.28125 -0.71875 0.796875 -1.203125q0.53125 -0.484375 1.265625 -0.734375q0.734375 -0.265625 1.671875 -0.265625q0.953125 0 1.6875 0.265625q0.75 0.25 1.265625 0.734375q0.53125 0.484375 0.796875 1.1875q0.28125 0.6875 0.28125 1.59375zm-2.734375 -0.015625q0 -1.046875 -0.359375 -1.671875q-0.359375 -0.640625 -0.9375 -0.640625q-0.375 0 -0.65625 0.296875q-0.28125 0.28125 -0.453125 0.828125q-0.15625 0.53125 -0.15625 1.203125q0 0.65625 0.15625 1.203125q0.15625 0.53125 0.4375 0.828125q0.296875 0.296875 0.671875 0.296875q0.578125 0 0.9375 -0.640625q0.359375 -0.65625 0.359375 -1.703125zm11.353241 3.625l-2.5625 0l0 -1.359375l-0.015625 0q-0.265625 0.703125 -0.890625 1.109375q-0.609375 0.40625 -1.40625 0.40625q-0.859375 0 -1.5 -0.421875q-0.625 -0.4375 -0.953125 -1.25q-0.328125 -0.828125 -0.328125 -1.921875q0 -1.21875 0.375 -2.109375q0.375 -0.890625 1.078125 -1.359375q0.703125 -0.484375 1.640625 -0.484375q0.59375 0 1.015625 0.171875q0.421875 0.171875 0.96875 0.625l0.015625 0l0 -0.625l0 -3.0625l2.5625 0l0 10.28125zm-2.5625 -2.765625l0 -2.421875q-0.484375 -0.671875 -1.109375 -0.671875q-0.359375 0 -0.65625 0.28125q-0.28125 0.28125 -0.4375 0.8125q-0.15625 0.515625 -0.15625 1.140625q0 0.890625 0.3125 1.390625q0.3125 0.5 0.859375 0.5q0.671875 0 1.1875 -1.03125zm11.804993 2.765625l-2.5625 0l0 -1.359375l-0.03125 0q-0.328125 0.71875 -0.953125 1.125q-0.625 0.390625 -1.40625 0.390625q-0.875 0 -1.46875 -0.546875q-0.34375 -0.3125 -0.5 -0.734375q-0.140625 -0.421875 -0.140625 -1.078125l0 -5.015625l2.5625 0l0 4.484375q0 0.34375 0.0625 0.5625q0.0625 0.203125 0.203125 0.3125q0.140625 0.09375 0.359375 0.09375q0.34375 0 0.640625 -0.25q0.3125 -0.25 0.671875 -0.796875l0 -4.40625l2.5625 0l0 7.21875zm7.969055 -0.09375q-1.234375 0.25 -2.359375 0.25q-0.515625 0 -0.953125 -0.046875q-0.421875 -0.046875 -0.78125 -0.15625q-0.359375 -0.125 -0.640625 -0.28125q-0.265625 -0.171875 -0.546875 -0.4375q-0.53125 -0.5 -0.8125 -1.234375q-0.265625 -0.734375 -0.265625 -1.578125q0 -1.140625 0.484375 -2.015625q0.5 -0.875 1.421875 -1.328125q0.9375 -0.46875 2.171875 -0.46875q0.96875 0 2.234375 0.328125l0 1.703125q-1.21875 -0.484375 -1.890625 -0.484375q-0.5 0 -0.890625 0.28125q-0.390625 0.265625 -0.59375 0.765625q-0.203125 0.484375 -0.203125 1.140625q0 0.984375 0.515625 1.609375q0.53125 0.625 1.375 0.625q0.71875 0 1.734375 -0.328125l0 1.65625zm5.8408813 0.03125q-0.46875 0.140625 -0.75 0.171875q-0.265625 0.046875 -0.6875 0.046875q-1.109375 0 -1.78125 -0.40625q-0.5 -0.3125 -0.6875 -0.765625q-0.171875 -0.46875 -0.171875 -1.40625l0 -3.359375l-0.71875 0l0 -1.4375l0.71875 0l0 -1.140625l2.578125 -0.3125l0 1.453125l1.359375 0l0 1.4375l-1.359375 0l0 3.09375q0 0.46875 0.03125 0.65625q0.046875 0.1875 0.203125 0.359375q0.234375 0.234375 0.703125 0.234375q0.234375 0 0.5625 -0.109375l0 1.484375zm9.780273 -0.21875q-0.34375 0.109375 -0.390625 0.125q-1.40625 0.390625 -3.046875 0.390625q-0.765625 0 -1.421875 -0.125q-0.65625 -0.109375 -1.234375 -0.34375q-0.578125 -0.234375 -1.0 -0.578125q-0.421875 -0.328125 -0.734375 -0.75q-0.3125 -0.421875 -0.546875 -0.96875q-0.234375 -0.546875 -0.34375 -1.109375q-0.109375 -0.5625 -0.109375 -1.1875q0 -0.75 0.15625 -1.453125q0.171875 -0.703125 0.5 -1.28125q0.328125 -0.59375 0.796875 -1.03125q0.453125 -0.453125 1.03125 -0.734375q0.578125 -0.28125 1.296875 -0.40625q0.71875 -0.140625 1.59375 -0.140625q0.90625 0 1.828125 0.09375q0.921875 0.09375 1.46875 0.234375l0 1.84375q-0.1875 -0.078125 -0.28125 -0.09375q-0.09375 -0.03125 -0.1875 -0.0625q-1.328125 -0.421875 -2.390625 -0.421875q-1.390625 0 -2.15625 0.71875q-0.4375 0.4375 -0.6875 1.140625q-0.234375 0.6875 -0.234375 1.546875q0 1.09375 0.375 1.875q0.390625 0.765625 1.125 1.171875q0.75 0.390625 1.8125 0.390625q0.453125 0 1.078125 -0.09375q0.5 -0.09375 0.828125 -0.171875q0.328125 -0.09375 0.875 -0.34375l0 1.765625z" fill-rule="nonzero"/><path fill="#000000" fill-opacity="0.0" d="m363.8758 215.0l149.7638 0l0 29.16536l-149.7638 0z" fill-rule="evenodd"/><path stroke="#000000" stroke-width="2.0" stroke-linejoin="round" stroke-linecap="butt" d="m363.8758 215.0l149.7638 0l0 29.16536l-149.7638 0z" fill-rule="evenodd"/><path fill="#000000" d="m376.61017 234.07018l0 -3.0625l-3.046875 0l0 -0.953125l3.046875 0l0 -3.0625l0.96875 0l0 3.0625l3.046875 0l0 0.953125l-3.046875 0l0 3.0625l-0.96875 0zm15.379181 0.078125q-1.296875 0.390625 -2.21875 0.390625q-1.640625 0 -2.59375 -1.109375q-0.9375 -1.109375 -0.9375 -2.609375q0 -1.0 0.421875 -1.890625q0.421875 -0.90625 1.09375 -1.34375q0.671875 -0.4375 1.578125 -0.4375q1.21875 0 1.953125 0.890625q0.734375 0.875 0.734375 2.625l-0.015625 0.390625l-4.453125 0q0.109375 0.9375 0.40625 1.453125q0.296875 0.5 0.796875 0.78125q0.5 0.28125 1.265625 0.28125q0.390625 0 0.765625 -0.0625q0.390625 -0.078125 1.203125 -0.375l0 1.015625zm-4.375 -4.0625l3.109375 0q0 -1.0625 -0.421875 -1.515625q-0.40625 -0.453125 -1.046875 -0.453125q-0.734375 0 -1.15625 0.5q-0.40625 0.484375 -0.484375 1.46875zm5.9098816 4.296875l2.6875 -3.65625l-2.609375 -3.40625l1.515625 0l2.0625 2.71875l1.875 -2.71875l1.25 0l-2.453125 3.578125l2.65625 3.484375l-1.515625 0l-2.125 -2.796875l-2.0625 2.796875l-1.28125 0zm14.064514 -0.234375q-1.296875 0.390625 -2.21875 0.390625q-1.640625 0 -2.59375 -1.109375q-0.9375 -1.109375 -0.9375 -2.609375q0 -1.0 0.421875 -1.890625q0.421875 -0.90625 1.09375 -1.34375q0.671875 -0.4375 1.578125 -0.4375q1.21875 0 1.953125 0.890625q0.734375 0.875 0.734375 2.625l-0.015625 0.390625l-4.453125 0q0.109375 0.9375 0.40625 1.453125q0.296875 0.5 0.796875 0.78125q0.5 0.28125 1.265625 0.28125q0.390625 0 0.765625 -0.0625q0.390625 -0.078125 1.203125 -0.375l0 1.015625zm-4.375 -4.0625l3.109375 0q0 -1.0625 -0.421875 -1.515625q-0.40625 -0.453125 -1.046875 -0.453125q-0.734375 0 -1.15625 0.5q-0.40625 0.484375 -0.484375 1.46875zm11.519226 4.078125q-1.234375 0.375 -2.140625 0.375q-0.953125 0 -1.75 -0.5q-0.78125 -0.515625 -1.1875 -1.34375q-0.390625 -0.84375 -0.390625 -1.890625q0 -1.5625 0.859375 -2.59375q0.875 -1.046875 2.6875 -1.046875q0.828125 0 1.84375 0.21875l0 1.078125q-1.078125 -0.3125 -1.765625 -0.3125q-1.078125 0 -1.625 0.796875q-0.546875 0.796875 -0.546875 1.90625q0 1.1875 0.609375 1.921875q0.609375 0.734375 1.59375 0.734375q0.890625 0 1.8125 -0.453125l0 1.109375zm6.342407 0.21875l0 -1.328125q-0.5 0.71875 -1.140625 1.109375q-0.640625 0.375 -1.34375 0.375q-0.890625 0 -1.453125 -0.5625q-0.5625 -0.5625 -0.5625 -1.578125l0 -5.078125l1.28125 0l0 4.65625q0 0.734375 0.125 0.96875q0.140625 0.234375 0.375 0.375q0.234375 0.125 0.5 0.125q0.46875 0 1.015625 -0.296875q0.5625 -0.296875 1.203125 -1.25l0 -4.578125l1.28125 0l0 7.0625l-1.28125 0zm7.00589 0q-0.59375 0.15625 -1.03125 0.15625q-0.953125 0 -1.515625 -0.546875q-0.5625 -0.546875 -0.5625 -1.5625l0 -4.15625l-0.875 0l0 -0.953125l0.875 0l0 -1.28125l1.28125 -0.125l0 1.40625l1.859375 0l0 0.953125l-1.859375 0l0 3.921875q0 0.75 0.28125 1.078125q0.296875 0.3125 0.921875 0.3125q0.25 0 0.625 -0.09375l0 0.890625zm7.016266 -0.234375q-1.296875 0.390625 -2.21875 0.390625q-1.640625 0 -2.59375 -1.109375q-0.9375 -1.109375 -0.9375 -2.609375q0 -1.0 0.421875 -1.890625q0.421875 -0.90625 1.09375 -1.34375q0.671875 -0.4375 1.578125 -0.4375q1.21875 0 1.953125 0.890625q0.734375 0.875 0.734375 2.625l-0.015625 0.390625l-4.453125 0q0.109375 0.9375 0.40625 1.453125q0.296875 0.5 0.796875 0.78125q0.5 0.28125 1.265625 0.28125q0.390625 0 0.765625 -0.0625q0.390625 -0.078125 1.203125 -0.375l0 1.015625zm-4.375 -4.0625l3.109375 0q0 -1.0625 -0.421875 -1.515625q-0.40625 -0.453125 -1.046875 -0.453125q-0.734375 0 -1.15625 0.5q-0.40625 0.484375 -0.484375 1.46875zm9.191132 5.34375l0 0.875q-1.0625 -0.71875 -1.71875 -1.71875q-0.65625 -1.0 -1.0 -2.140625q-0.34375 -1.140625 -0.34375 -2.234375q0 -1.09375 0.34375 -2.234375q0.34375 -1.140625 1.0 -2.140625q0.65625 -1.0 1.71875 -1.734375l0 0.890625q-0.734375 0.796875 -1.09375 1.546875q-0.34375 0.75 -0.515625 1.6875q-0.171875 0.9375 -0.171875 1.984375q0 1.03125 0.171875 1.984375q0.171875 0.9375 0.515625 1.6875q0.359375 0.734375 1.09375 1.546875zm0.9592285 -10.4375l0 -0.890625q1.0625 0.734375 1.71875 1.734375q0.65625 1.0 0.984375 2.140625q0.34375 1.140625 0.34375 2.234375q0 1.09375 -0.34375 2.234375q-0.328125 1.140625 -0.984375 2.140625q-0.65625 1.0 -1.71875 1.71875l0 -0.875q0.734375 -0.8125 1.078125 -1.546875q0.359375 -0.75 0.515625 -1.6875q0.171875 -0.953125 0.171875 -1.984375q0 -1.03125 -0.171875 -1.96875q-0.15625 -0.953125 -0.515625 -1.703125q-0.34375 -0.75 -1.078125 -1.546875z" fill-rule="nonzero"/><path fill="#000000" fill-opacity="0.0" d="m363.8758 185.83464l149.7638 0l0 29.16536l-149.7638 0z" fill-rule="evenodd"/><path stroke="#000000" stroke-width="2.0" stroke-linejoin="round" stroke-linecap="butt" d="m363.8758 185.83464l149.7638 0l0 29.16536l-149.7638 0z" fill-rule="evenodd"/><path fill="#000000" d="m374.17267 205.21732l0 -1.609375l1.609375 0l0 1.609375l-1.609375 0zm4.217102 0l0 -1.609375l1.609375 0l0 1.609375l-1.609375 0zm4.217102 0l0 -1.609375l1.609375 0l0 1.609375l-1.609375 0z" fill-rule="nonzero"/><path fill="#000000" fill-opacity="0.0" d="m438.58398 127.502625l0.34646606 29.16536" fill-rule="evenodd"/><path stroke="#000000" stroke-width="2.0" stroke-linejoin="round" stroke-linecap="round" d="m438.58398 127.502625l0.34646606 29.16536" fill-rule="evenodd"/><path fill="#000000" fill-opacity="0.0" d="m9.0 5.0l514.9921 0l0 253.00787l-514.9921 0z" fill-rule="evenodd"/><path stroke="#000000" stroke-width="2.0" stroke-linejoin="round" stroke-linecap="butt" d="m9.0 5.0l514.9921 0l0 253.00787l-514.9921 0z" fill-rule="evenodd"/><path fill="#000000" fill-opacity="0.0" d="m711.0 121.88189l0 48.62992" fill-rule="evenodd"/><path stroke="#000000" stroke-width="2.0" stroke-linejoin="round" stroke-linecap="butt" stroke-dasharray="8.0,6.0" d="m711.0 121.88189l0 41.77575" fill-rule="evenodd"/><path fill="#000000" stroke="#000000" stroke-width="2.0" stroke-linecap="butt" d="m711.0 163.65764l-2.2491455 -2.2491608l2.2491455 6.179535l2.2491455 -6.179535z" fill-rule="evenodd"/><path fill="#000000" fill-opacity="0.0" d="m523.9921 167.70866l81.22833 0l0 31.968506l-81.22833 0z" fill-rule="evenodd"/><path fill="#000000" d="m548.1435 186.97742l1.15625 0.15625q-0.1875 1.1875 -0.96875 1.859375q-0.78125 0.671875 -1.921875 0.671875q-1.40625 0 -2.28125 -0.921875q-0.859375 -0.9375 -0.859375 -2.65625q0 -1.125 0.375 -1.96875q0.375 -0.84375 1.125 -1.25q0.765625 -0.421875 1.65625 -0.421875q1.125 0 1.84375 0.578125q0.71875 0.5625 0.921875 1.609375l-1.140625 0.171875q-0.171875 -0.703125 -0.59375 -1.046875q-0.40625 -0.359375 -0.984375 -0.359375q-0.890625 0 -1.453125 0.640625q-0.546875 0.640625 -0.546875 2.0q0 1.40625 0.53125 2.03125q0.546875 0.625 1.40625 0.625q0.6875 0 1.140625 -0.421875q0.46875 -0.421875 0.59375 -1.296875zm2.1328125 2.53125l0 -6.90625l1.0625 0l0 1.046875q0.40625 -0.734375 0.734375 -0.96875q0.34375 -0.234375 0.765625 -0.234375q0.59375 0 1.203125 0.375l-0.40625 1.078125q-0.4375 -0.25 -0.859375 -0.25q-0.390625 0 -0.703125 0.234375q-0.296875 0.234375 -0.421875 0.640625q-0.203125 0.625 -0.203125 1.359375l0 3.625l-1.171875 0zm9.1883545 -2.21875l1.203125 0.140625q-0.28125 1.0625 -1.0625 1.65625q-0.765625 0.578125 -1.96875 0.578125q-1.515625 0 -2.40625 -0.9375q-0.890625 -0.9375 -0.890625 -2.609375q0 -1.75 0.890625 -2.703125q0.90625 -0.96875 2.34375 -0.96875q1.390625 0 2.265625 0.9375q0.875 0.9375 0.875 2.65625q0 0.109375 0 0.3125l-5.15625 0q0.0625 1.140625 0.640625 1.75q0.578125 0.59375 1.4375 0.59375q0.65625 0 1.109375 -0.328125q0.453125 -0.34375 0.71875 -1.078125zm-3.84375 -1.90625l3.859375 0q-0.078125 -0.859375 -0.4375 -1.296875q-0.5625 -0.6875 -1.453125 -0.6875q-0.8125 0 -1.359375 0.546875q-0.546875 0.53125 -0.609375 1.4375zm11.037476 3.265625q-0.65625 0.5625 -1.265625 0.796875q-0.59375 0.21875 -1.28125 0.21875q-1.140625 0 -1.75 -0.546875q-0.609375 -0.5625 -0.609375 -1.4375q0 -0.5 0.21875 -0.921875q0.234375 -0.421875 0.609375 -0.671875q0.375 -0.25 0.84375 -0.390625q0.34375 -0.078125 1.046875 -0.171875q1.421875 -0.171875 2.09375 -0.40625q0 -0.234375 0 -0.296875q0 -0.71875 -0.328125 -1.015625q-0.453125 -0.390625 -1.34375 -0.390625q-0.8125 0 -1.21875 0.296875q-0.390625 0.28125 -0.578125 1.015625l-1.140625 -0.15625q0.15625 -0.734375 0.515625 -1.1875q0.359375 -0.453125 1.03125 -0.6875q0.671875 -0.25 1.5625 -0.25q0.890625 0 1.4375 0.203125q0.5625 0.203125 0.8125 0.53125q0.265625 0.3125 0.375 0.796875q0.046875 0.296875 0.046875 1.078125l0 1.5625q0 1.625 0.078125 2.0625q0.078125 0.4375 0.296875 0.828125l-1.21875 0q-0.1875 -0.359375 -0.234375 -0.859375zm-0.09375 -2.609375q-0.640625 0.265625 -1.921875 0.4375q-0.71875 0.109375 -1.015625 0.25q-0.296875 0.125 -0.46875 0.375q-0.15625 0.25 -0.15625 0.546875q0 0.46875 0.34375 0.78125q0.359375 0.3125 1.046875 0.3125q0.671875 0 1.203125 -0.296875q0.53125 -0.296875 0.78125 -0.8125q0.1875 -0.390625 0.1875 -1.171875l0 -0.421875zm5.5531006 2.421875l0.171875 1.03125q-0.5 0.109375 -0.890625 0.109375q-0.640625 0 -1.0 -0.203125q-0.34375 -0.203125 -0.484375 -0.53125q-0.140625 -0.328125 -0.140625 -1.390625l0 -3.96875l-0.859375 0l0 -0.90625l0.859375 0l0 -1.71875l1.171875 -0.703125l0 2.421875l1.171875 0l0 0.90625l-1.171875 0l0 4.046875q0 0.5 0.046875 0.640625q0.0625 0.140625 0.203125 0.234375q0.140625 0.078125 0.40625 0.078125q0.203125 0 0.515625 -0.046875zm5.874878 -1.171875l1.203125 0.140625q-0.28125 1.0625 -1.0625 1.65625q-0.765625 0.578125 -1.96875 0.578125q-1.515625 0 -2.40625 -0.9375q-0.890625 -0.9375 -0.890625 -2.609375q0 -1.75 0.890625 -2.703125q0.90625 -0.96875 2.34375 -0.96875q1.390625 0 2.265625 0.9375q0.875 0.9375 0.875 2.65625q0 0.109375 0 0.3125l-5.15625 0q0.0625 1.140625 0.640625 1.75q0.578125 0.59375 1.4375 0.59375q0.65625 0 1.109375 -0.328125q0.453125 -0.34375 0.71875 -1.078125zm-3.84375 -1.90625l3.859375 0q-0.078125 -0.859375 -0.4375 -1.296875q-0.5625 -0.6875 -1.453125 -0.6875q-0.8125 0 -1.359375 0.546875q-0.546875 0.53125 -0.609375 1.4375zm6.0531006 2.0625l1.15625 -0.1875q0.109375 0.703125 0.546875 1.078125q0.453125 0.359375 1.25 0.359375q0.8125 0 1.203125 -0.328125q0.390625 -0.328125 0.390625 -0.765625q0 -0.390625 -0.359375 -0.625q-0.234375 -0.15625 -1.1875 -0.390625q-1.296875 -0.328125 -1.796875 -0.5625q-0.484375 -0.25 -0.75 -0.65625q-0.25 -0.421875 -0.25 -0.9375q0 -0.453125 0.203125 -0.84375q0.21875 -0.40625 0.578125 -0.671875q0.28125 -0.1875 0.75 -0.328125q0.46875 -0.140625 1.015625 -0.140625q0.8125 0 1.421875 0.234375q0.609375 0.234375 0.90625 0.640625q0.296875 0.390625 0.40625 1.0625l-1.140625 0.15625q-0.078125 -0.53125 -0.453125 -0.828125q-0.375 -0.3125 -1.0625 -0.3125q-0.8125 0 -1.15625 0.265625q-0.34375 0.265625 -0.34375 0.625q0 0.234375 0.140625 0.421875q0.15625 0.1875 0.453125 0.3125q0.171875 0.0625 1.03125 0.296875q1.25 0.328125 1.734375 0.546875q0.5 0.203125 0.78125 0.609375q0.28125 0.40625 0.28125 1.0q0 0.59375 -0.34375 1.109375q-0.34375 0.515625 -1.0 0.796875q-0.640625 0.28125 -1.453125 0.28125q-1.34375 0 -2.046875 -0.5625q-0.703125 -0.5625 -0.90625 -1.65625z" fill-rule="nonzero"/></g></svg>