<svg version="1.1" viewBox="0.0 0.0 495.98950131233596 292.2020997375328" fill="none" stroke="none" stroke-linecap="square" stroke-miterlimit="10" xmlns:xlink="http://www.w3.org/1999/xlink" xmlns="http://www.w3.org/2000/svg"><clipPath id="p.0"><path d="m0 0l495.9895 0l0 292.2021l-495.9895 0l0 -292.2021z" clip-rule="nonzero"/></clipPath><g clip-path="url(#p.0)"><path fill="#000000" fill-opacity="0.0" d="m0 0l495.9895 0l0 292.2021l-495.9895 0z" fill-rule="evenodd"/><path fill="#000000" fill-opacity="0.0" d="m152.79527 10.692913l188.22047 0l0 44.62992l-188.22047 0z" fill-rule="evenodd"/><path stroke="#000000" stroke-width="3.0" stroke-linejoin="round" stroke-linecap="butt" d="m152.79527 10.692913l188.22047 0l0 44.62992l-188.22047 0z" fill-rule="evenodd"/><path fill="#000000" d="m201.54231 28.526623l0 -1.265625l-3.984375 -1.546875l-0.34375 -0.109375l0.34375 -0.109375l3.984375 -1.5625l0 -1.28125l-5.515625 2.46875l0 0.953125l5.515625 2.453125zm7.998184 0l0 -1.265625l-3.984375 -1.546875l-0.34375 -0.109375l0.34375 -0.109375l3.984375 -1.5625l0 -1.28125l-5.515625 2.46875l0 0.953125l5.515625 2.453125zm2.7013092 -5.765625l0 1.046875l2.390625 0l0 4.953125l-2.390625 0l0 1.046875l5.890625 0l0 -1.046875l-2.296875 0l0 -6.0l-3.59375 0zm2.234375 -1.84375q0 0.296875 0.171875 0.5q0.1875 0.1875 0.546875 0.1875q0.359375 0 0.53125 -0.1875q0.1875 -0.203125 0.1875 -0.5q0 -0.15625 -0.046875 -0.296875q-0.046875 -0.140625 -0.15625 -0.234375q-0.078125 -0.078125 -0.21875 -0.125q-0.125 -0.046875 -0.296875 -0.046875q-0.171875 0 -0.3125 0.046875q-0.125 0.046875 -0.203125 0.125q-0.109375 0.109375 -0.15625 0.25q-0.046875 0.125 -0.046875 0.28125zm5.560684 8.890625l1.21875 0l0 -5.046875q0.109375 -0.234375 0.28125 -0.421875q0.171875 -0.1875 0.359375 -0.328125q0.25 -0.171875 0.53125 -0.265625q0.28125 -0.09375 0.609375 -0.09375q0.390625 0 0.6875 0.09375q0.296875 0.09375 0.5 0.296875q0.203125 0.203125 0.3125 0.53125q0.109375 0.328125 0.109375 0.796875l0 4.4375l1.203125 0l0 -4.46875q0 -0.703125 -0.171875 -1.21875q-0.171875 -0.515625 -0.5 -0.84375q-0.3125 -0.328125 -0.765625 -0.484375q-0.453125 -0.15625 -1.015625 -0.15625q-0.40625 0 -0.78125 0.125q-0.359375 0.109375 -0.671875 0.3125q-0.203125 0.140625 -0.390625 0.328125q-0.1875 0.1875 -0.34375 0.40625l-0.078125 -1.046875l-1.09375 0l0 7.046875zm10.857559 -8.75l-1.21875 0l0 1.703125l-1.84375 0l0 0.9375l1.84375 0l0 3.828125q0 0.640625 0.171875 1.109375q0.1875 0.453125 0.484375 0.75q0.296875 0.28125 0.703125 0.421875q0.40625 0.125 0.875 0.125q0.28125 0 0.5625 -0.03125q0.28125 -0.015625 0.53125 -0.0625q0.265625 -0.046875 0.46875 -0.109375q0.21875 -0.078125 0.375 -0.171875l-0.171875 -0.84375q-0.109375 0.015625 -0.28125 0.0625q-0.171875 0.03125 -0.375 0.0625q-0.203125 0.03125 -0.40625 0.0625q-0.203125 0.015625 -0.40625 0.015625q-0.265625 0 -0.5 -0.0625q-0.234375 -0.0625 -0.421875 -0.234375q-0.1875 -0.15625 -0.296875 -0.421875q-0.09375 -0.265625 -0.09375 -0.671875l0 -3.828125l2.6875 0l0 -0.9375l-2.6875 0l0 -1.703125zm8.263809 8.875q1.015625 0 1.71875 -0.40625q0.703125 -0.421875 1.046875 -0.953125l-0.734375 -0.5625q-0.328125 0.421875 -0.828125 0.6875q-0.5 0.25 -1.140625 0.25q-0.5 0 -0.90625 -0.171875q-0.390625 -0.1875 -0.671875 -0.5q-0.28125 -0.296875 -0.453125 -0.6875q-0.15625 -0.390625 -0.203125 -0.90625l0 -0.046875l5.03125 0l0 -0.546875q0 -0.734375 -0.1875 -1.359375q-0.1875 -0.640625 -0.5625 -1.109375q-0.375 -0.453125 -0.953125 -0.71875q-0.5625 -0.265625 -1.3125 -0.265625q-0.609375 0 -1.1875 0.25q-0.578125 0.25 -1.03125 0.703125q-0.453125 0.46875 -0.734375 1.140625q-0.265625 0.671875 -0.265625 1.53125l0 0.265625q0 0.75 0.25 1.375q0.25 0.625 0.6875 1.078125q0.453125 0.453125 1.0625 0.703125q0.625 0.25 1.375 0.25zm-0.15625 -6.3125q0.453125 0 0.78125 0.171875q0.34375 0.171875 0.5625 0.4375q0.21875 0.28125 0.34375 0.65625q0.125 0.375 0.125 0.703125l0 0.046875l-3.78125 0q0.0625 -0.484375 0.234375 -0.859375q0.1875 -0.375 0.453125 -0.625q0.265625 -0.265625 0.578125 -0.390625q0.328125 -0.140625 0.703125 -0.140625zm9.654434 -0.984375q-0.765625 0 -1.375 0.34375q-0.59375 0.328125 -1.03125 0.90625l0 -0.171875l-0.0625 -0.953125l-1.140625 0l0 7.046875l1.203125 0l0 -4.515625q0.125 -0.328125 0.296875 -0.59375q0.1875 -0.265625 0.421875 -0.4375q0.265625 -0.21875 0.625 -0.3125q0.359375 -0.109375 0.8125 -0.109375q0.34375 0 0.65625 0.03125q0.3125 0.03125 0.65625 0.109375l0.171875 -1.171875q-0.1875 -0.078125 -0.546875 -0.125q-0.359375 -0.046875 -0.6875 -0.046875zm5.170059 7.171875l1.21875 0l0 -6.109375l2.71875 0l0 -0.9375l-2.71875 0l0 -0.484375q0 -0.453125 0.109375 -0.78125q0.109375 -0.328125 0.34375 -0.53125q0.203125 -0.203125 0.515625 -0.296875q0.3125 -0.109375 0.734375 -0.109375q0.390625 0 0.75 0.0625q0.359375 0.0625 0.625 0.15625l0.140625 -0.984375q-0.171875 -0.046875 -0.34375 -0.078125q-0.15625 -0.046875 -0.3125 -0.078125q-0.25 -0.046875 -0.5 -0.078125q-0.25 -0.03125 -0.515625 -0.03125q-0.625 0 -1.140625 0.1875q-0.5 0.171875 -0.859375 0.515625q-0.359375 0.34375 -0.5625 0.859375q-0.203125 0.5 -0.203125 1.1875l0 0.484375l-1.9375 0l0 0.9375l1.9375 0l0 6.109375zm10.841949 0l1.25 0l0 -0.109375q-0.125 -0.28125 -0.1875 -0.671875q-0.0625 -0.40625 -0.0625 -0.75l0 -3.28125q0 -0.59375 -0.21875 -1.03125q-0.203125 -0.4375 -0.578125 -0.75q-0.375 -0.28125 -0.890625 -0.421875q-0.515625 -0.15625 -1.109375 -0.15625q-0.65625 0 -1.1875 0.1875q-0.515625 0.171875 -0.875 0.46875q-0.359375 0.296875 -0.546875 0.671875q-0.1875 0.375 -0.203125 0.75l1.21875 0q0 -0.21875 0.09375 -0.421875q0.109375 -0.203125 0.3125 -0.359375q0.1875 -0.140625 0.46875 -0.234375q0.296875 -0.09375 0.640625 -0.09375q0.390625 0 0.703125 0.109375q0.3125 0.09375 0.515625 0.265625q0.21875 0.171875 0.328125 0.4375q0.125 0.25 0.125 0.5625l0 0.5625l-1.3125 0q-0.734375 0 -1.328125 0.140625q-0.59375 0.140625 -1.015625 0.421875q-0.421875 0.296875 -0.65625 0.734375q-0.234375 0.4375 -0.234375 1.015625q0 0.4375 0.171875 0.828125q0.171875 0.375 0.484375 0.65625q0.3125 0.28125 0.765625 0.4375q0.453125 0.15625 1.015625 0.15625q0.34375 0 0.640625 -0.078125q0.3125 -0.0625 0.59375 -0.1875q0.265625 -0.125 0.484375 -0.28125q0.234375 -0.15625 0.40625 -0.34375q0.03125 0.21875 0.0625 0.421875q0.046875 0.203125 0.125 0.34375zm-2.140625 -0.921875q-0.34375 0 -0.609375 -0.078125q-0.265625 -0.09375 -0.4375 -0.265625q-0.1875 -0.15625 -0.28125 -0.375q-0.078125 -0.21875 -0.078125 -0.484375q0 -0.265625 0.09375 -0.484375q0.109375 -0.21875 0.296875 -0.375q0.28125 -0.21875 0.734375 -0.328125q0.46875 -0.109375 1.09375 -0.109375l1.125 0l0 1.4375q-0.109375 0.203125 -0.296875 0.390625q-0.171875 0.1875 -0.421875 0.34375q-0.25 0.15625 -0.5625 0.25q-0.296875 0.078125 -0.65625 0.078125zm8.498169 0.078125q-0.5625 0 -0.9375 -0.21875q-0.375 -0.234375 -0.609375 -0.59375q-0.234375 -0.359375 -0.34375 -0.8125q-0.09375 -0.453125 -0.09375 -0.921875l0 -0.265625q0 -0.453125 0.09375 -0.90625q0.109375 -0.453125 0.34375 -0.8125q0.234375 -0.359375 0.609375 -0.578125q0.390625 -0.234375 0.9375 -0.234375q0.375 0 0.6875 0.125q0.3125 0.125 0.546875 0.34375q0.21875 0.21875 0.34375 0.5q0.140625 0.28125 0.15625 0.59375l1.140625 0q0 -0.53125 -0.21875 -1.0q-0.21875 -0.46875 -0.59375 -0.8125q-0.375 -0.34375 -0.90625 -0.53125q-0.53125 -0.203125 -1.15625 -0.203125q-0.796875 0 -1.390625 0.296875q-0.59375 0.28125 -1.0 0.75q-0.40625 0.5 -0.609375 1.140625q-0.1875 0.625 -0.1875 1.328125l0 0.265625q0 0.703125 0.1875 1.34375q0.203125 0.640625 0.609375 1.109375q0.40625 0.5 1.0 0.78125q0.59375 0.28125 1.390625 0.28125q0.5625 0 1.078125 -0.1875q0.515625 -0.1875 0.921875 -0.515625q0.390625 -0.3125 0.625 -0.734375q0.234375 -0.4375 0.25 -0.90625l-1.140625 0q-0.015625 0.296875 -0.15625 0.546875q-0.140625 0.25 -0.390625 0.421875q-0.234375 0.203125 -0.546875 0.3125q-0.3125 0.09375 -0.640625 0.09375zm8.123199 0.96875q1.015625 0 1.71875 -0.40625q0.703125 -0.421875 1.046875 -0.953125l-0.734375 -0.5625q-0.328125 0.421875 -0.828125 0.6875q-0.5 0.25 -1.140625 0.25q-0.5 0 -0.90625 -0.171875q-0.390625 -0.1875 -0.671875 -0.5q-0.28125 -0.296875 -0.453125 -0.6875q-0.15625 -0.390625 -0.203125 -0.90625l0 -0.046875l5.03125 0l0 -0.546875q0 -0.734375 -0.1875 -1.359375q-0.1875 -0.640625 -0.5625 -1.109375q-0.375 -0.453125 -0.953125 -0.71875q-0.5625 -0.265625 -1.3125 -0.265625q-0.609375 0 -1.1875 0.25q-0.578125 0.25 -1.03125 0.703125q-0.453125 0.46875 -0.734375 1.140625q-0.265625 0.671875 -0.265625 1.53125l0 0.265625q0 0.75 0.25 1.375q0.25 0.625 0.6875 1.078125q0.453125 0.453125 1.0625 0.703125q0.625 0.25 1.375 0.25zm-0.15625 -6.3125q0.453125 0 0.78125 0.171875q0.34375 0.171875 0.5625 0.4375q0.21875 0.28125 0.34375 0.65625q0.125 0.375 0.125 0.703125l0 0.046875l-3.78125 0q0.0625 -0.484375 0.234375 -0.859375q0.1875 -0.375 0.453125 -0.625q0.265625 -0.265625 0.578125 -0.390625q0.328125 -0.140625 0.703125 -0.140625zm5.060669 4.90625l5.75 -2.46875l0 -0.953125l-5.75 -2.453125l0 1.234375l4.21875 1.5625l0.390625 0.125l-0.390625 0.109375l-4.21875 1.59375l0 1.25zm7.9981995 0l5.75 -2.46875l0 -0.953125l-5.75 -2.453125l0 1.234375l4.21875 1.5625l0.390625 0.125l-0.390625 0.109375l-4.21875 1.59375l0 1.25z" fill-rule="nonzero"/><path fill="#000000" d="m209.25696 43.292248q-0.03125 0.3125 -0.203125 0.546875q-0.15625 0.21875 -0.390625 0.359375q-0.234375 0.140625 -0.53125 0.21875q-0.28125 0.0625 -0.5625 0.0625q-0.390625 0 -0.6875 -0.109375q-0.296875 -0.109375 -0.484375 -0.3125q-0.203125 -0.203125 -0.296875 -0.5q-0.09375 -0.3125 -0.078125 -0.6875l-1.75 -0.015625q-0.015625 0.71875 0.21875 1.28125q0.234375 0.5625 0.671875 0.96875q0.4375 0.390625 1.03125 0.609375q0.59375 0.203125 1.265625 0.21875q0.640625 0.015625 1.28125 -0.140625q0.640625 -0.15625 1.125 -0.515625q0.46875 -0.34375 0.78125 -0.828125q0.328125 -0.484375 0.359375 -1.171875q0.046875 -0.59375 -0.15625 -1.0625q-0.1875 -0.484375 -0.53125 -0.84375q-0.34375 -0.375 -0.8125 -0.640625q-0.46875 -0.265625 -0.984375 -0.4375q-0.234375 -0.078125 -0.53125 -0.1875q-0.296875 -0.109375 -0.546875 -0.265625q-0.25 -0.15625 -0.40625 -0.390625q-0.140625 -0.234375 -0.109375 -0.5625q0.046875 -0.3125 0.203125 -0.53125q0.171875 -0.234375 0.40625 -0.390625q0.234375 -0.15625 0.515625 -0.21875q0.28125 -0.078125 0.5625 -0.078125q0.34375 0 0.59375 0.109375q0.25 0.109375 0.421875 0.296875q0.15625 0.1875 0.234375 0.453125q0.09375 0.265625 0.078125 0.578125l1.734375 0.015625q0.015625 -0.671875 -0.203125 -1.203125q-0.203125 -0.53125 -0.59375 -0.90625q-0.390625 -0.375 -0.9375 -0.578125q-0.546875 -0.21875 -1.1875 -0.234375q-0.625 -0.015625 -1.234375 0.15625q-0.609375 0.15625 -1.109375 0.5q-0.5 0.34375 -0.84375 0.859375q-0.328125 0.5 -0.359375 1.171875q-0.046875 0.609375 0.171875 1.078125q0.21875 0.46875 0.59375 0.8125q0.375 0.359375 0.859375 0.609375q0.5 0.25 1.015625 0.40625q0.265625 0.09375 0.53125 0.21875q0.28125 0.109375 0.484375 0.28125q0.21875 0.171875 0.328125 0.421875q0.109375 0.234375 0.0625 0.578125zm5.213089 2.65625q0.625 0.015625 1.140625 -0.3125q0.515625 -0.328125 0.90625 -0.828125l-0.140625 1.0l1.59375 0l1.21875 -7.046875l-1.765625 0l-0.859375 4.953125q-0.125 0.171875 -0.265625 0.3125q-0.140625 0.125 -0.296875 0.21875q-0.203125 0.125 -0.4375 0.1875q-0.21875 0.046875 -0.484375 0.046875q-0.34375 -0.015625 -0.53125 -0.140625q-0.171875 -0.140625 -0.25 -0.359375q-0.078125 -0.21875 -0.078125 -0.484375q0.015625 -0.265625 0.046875 -0.546875l0.6875 -4.1875l-1.765625 0l-0.6875 4.171875q-0.0625 0.546875 -0.015625 1.078125q0.0625 0.53125 0.3125 0.984375q0.21875 0.40625 0.625 0.671875q0.40625 0.265625 1.046875 0.28125zm12.025589 -3.625l0.015625 -0.140625q0.046875 -0.390625 0.03125 -0.796875q0 -0.421875 -0.078125 -0.8125q-0.078125 -0.390625 -0.25 -0.734375q-0.15625 -0.359375 -0.40625 -0.625q-0.265625 -0.25 -0.625 -0.40625q-0.359375 -0.15625 -0.84375 -0.171875q-0.328125 0 -0.625 0.078125q-0.296875 0.078125 -0.546875 0.21875q-0.15625 0.09375 -0.296875 0.21875q-0.140625 0.109375 -0.28125 0.265625l0.6875 -3.609375l-1.765625 0l-1.734375 10.0l1.59375 0l0.265625 -0.75q0.09375 0.140625 0.203125 0.265625q0.125 0.109375 0.25 0.21875q0.265625 0.1875 0.578125 0.28125q0.3125 0.109375 0.671875 0.109375q0.5 0.015625 0.921875 -0.125q0.421875 -0.140625 0.75 -0.390625q0.328125 -0.25 0.578125 -0.59375q0.265625 -0.359375 0.453125 -0.765625q0.171875 -0.40625 0.28125 -0.84375q0.125 -0.453125 0.171875 -0.890625zm-1.75 -0.140625l-0.015625 0.140625q-0.015625 0.234375 -0.078125 0.484375q-0.046875 0.234375 -0.125 0.46875q-0.09375 0.28125 -0.25 0.53125q-0.15625 0.25 -0.390625 0.40625q-0.15625 0.125 -0.34375 0.203125q-0.1875 0.0625 -0.515625 0.0625q-0.171875 0 -0.375 -0.046875q-0.203125 -0.0625 -0.359375 -0.171875q-0.125 -0.09375 -0.234375 -0.234375q-0.09375 -0.140625 -0.15625 -0.328125l0.5 -2.8125q0.109375 -0.1875 0.25 -0.328125q0.140625 -0.140625 0.296875 -0.234375q0.1875 -0.109375 0.390625 -0.15625q0.203125 -0.0625 0.4375 -0.0625q0.28125 0.015625 0.453125 0.109375q0.1875 0.09375 0.3125 0.265625q0.109375 0.15625 0.15625 0.375q0.0625 0.203125 0.078125 0.4375q0.015625 0.234375 0 0.46875q-0.015625 0.21875 -0.03125 0.421875zm5.088089 -3.421875l-0.265625 1.484375l1.71875 0l-0.96875 5.71875q-0.046875 0.265625 -0.15625 0.484375q-0.09375 0.21875 -0.25 0.375q-0.1875 0.171875 -0.46875 0.265625q-0.265625 0.09375 -0.59375 0.078125q-0.234375 0 -0.484375 -0.03125q-0.234375 -0.015625 -0.46875 -0.0625l-0.234375 1.484375q0.296875 0.046875 0.578125 0.0625q0.296875 0.03125 0.59375 0.046875q0.671875 0 1.234375 -0.171875q0.5625 -0.15625 0.984375 -0.5q0.421875 -0.328125 0.6875 -0.84375q0.28125 -0.5 0.359375 -1.1875l1.234375 -7.203125l-3.5 0zm1.921875 -1.765625q0 0.421875 0.28125 0.6875q0.296875 0.265625 0.71875 0.25q0.40625 0 0.703125 -0.265625q0.3125 -0.28125 0.3125 -0.734375q0 -0.4375 -0.3125 -0.6875q-0.296875 -0.265625 -0.703125 -0.25q-0.421875 0 -0.71875 0.296875q-0.28125 0.28125 -0.28125 0.703125zm7.041214 8.9375q0.828125 0.015625 1.625 -0.296875q0.796875 -0.3125 1.265625 -0.96875l-0.796875 -0.984375q-0.375 0.390625 -0.875 0.609375q-0.484375 0.203125 -1.03125 0.1875q-0.359375 0 -0.640625 -0.125q-0.265625 -0.140625 -0.4375 -0.34375q-0.203125 -0.21875 -0.296875 -0.5q-0.09375 -0.296875 -0.078125 -0.640625l4.59375 0l0.125 -0.765625q0.078125 -0.6875 -0.046875 -1.296875q-0.109375 -0.625 -0.4375 -1.109375q-0.328125 -0.46875 -0.875 -0.75q-0.53125 -0.296875 -1.265625 -0.3125q-0.515625 -0.015625 -1.0 0.125q-0.46875 0.125 -0.875 0.375q-0.3125 0.1875 -0.59375 0.453125q-0.28125 0.265625 -0.515625 0.5625q-0.34375 0.453125 -0.5625 1.0q-0.203125 0.546875 -0.265625 1.140625l-0.015625 0.265625q-0.078125 0.71875 0.109375 1.328125q0.203125 0.609375 0.59375 1.0625q0.40625 0.453125 0.984375 0.71875q0.578125 0.265625 1.3125 0.265625zm0.703125 -5.84375q0.296875 0.015625 0.515625 0.125q0.21875 0.109375 0.375 0.296875q0.140625 0.171875 0.203125 0.421875q0.0625 0.25 0.015625 0.53125l-0.03125 0.171875l-2.875 0q0.125 -0.296875 0.28125 -0.578125q0.171875 -0.28125 0.390625 -0.5q0.21875 -0.21875 0.484375 -0.34375q0.28125 -0.140625 0.640625 -0.125zm6.947464 4.40625q-0.234375 0 -0.40625 -0.0625q-0.171875 -0.078125 -0.28125 -0.203125q-0.171875 -0.171875 -0.25 -0.40625q-0.078125 -0.25 -0.109375 -0.515625q-0.03125 -0.21875 -0.015625 -0.453125q0.015625 -0.25 0.03125 -0.453125l0.03125 -0.1875q0.03125 -0.3125 0.109375 -0.640625q0.09375 -0.328125 0.25 -0.59375q0.078125 -0.15625 0.203125 -0.3125q0.125 -0.15625 0.265625 -0.28125q0.1875 -0.140625 0.421875 -0.21875q0.234375 -0.078125 0.515625 -0.078125q0.28125 0.015625 0.484375 0.125q0.21875 0.09375 0.359375 0.265625q0.125 0.171875 0.1875 0.40625q0.0625 0.21875 0.046875 0.484375l1.65625 0q0.03125 -0.59375 -0.140625 -1.09375q-0.171875 -0.5 -0.515625 -0.859375q-0.34375 -0.359375 -0.828125 -0.5625q-0.484375 -0.203125 -1.09375 -0.21875q-0.75 -0.015625 -1.375 0.234375q-0.625 0.25 -1.078125 0.71875q-0.515625 0.53125 -0.828125 1.203125q-0.3125 0.65625 -0.40625 1.421875l-0.03125 0.203125q-0.03125 0.359375 -0.015625 0.734375q0.015625 0.359375 0.09375 0.671875q0.125 0.515625 0.390625 0.9375q0.28125 0.421875 0.671875 0.71875q0.3125 0.21875 0.703125 0.328125q0.390625 0.125 0.875 0.140625q0.5625 0.015625 1.109375 -0.15625q0.546875 -0.171875 1.0 -0.515625q0.4375 -0.328125 0.71875 -0.796875q0.296875 -0.484375 0.328125 -1.09375l-1.65625 0.015625q-0.03125 0.265625 -0.171875 0.484375q-0.125 0.203125 -0.3125 0.328125q-0.203125 0.15625 -0.4375 0.234375q-0.234375 0.0625 -0.5 0.046875zm9.322464 -7.453125l-1.75 0l-0.3125 1.71875l-1.5625 0l-0.234375 1.34375l1.5625 0l-0.515625 3.203125q-0.0625 0.546875 0.03125 1.03125q0.109375 0.484375 0.375 0.828125q0.265625 0.359375 0.6875 0.5625q0.421875 0.203125 1.015625 0.203125q0.515625 0.015625 1.078125 -0.078125q0.578125 -0.078125 1.0625 -0.328125l-0.0625 -1.265625q-0.375 0.078125 -0.75 0.140625q-0.359375 0.0625 -0.75 0.046875q-0.296875 0 -0.5 -0.109375q-0.1875 -0.109375 -0.28125 -0.28125q-0.109375 -0.171875 -0.140625 -0.40625q-0.015625 -0.234375 0.03125 -0.515625l0.484375 -3.03125l2.546875 0l0.234375 -1.34375l-2.546875 0l0.296875 -1.71875zm2.9943542 8.765625l3.453125 0q0.6875 0 1.328125 -0.15625q0.640625 -0.15625 1.140625 -0.5q0.5 -0.34375 0.8125 -0.875q0.3125 -0.546875 0.375 -1.296875q0.015625 -0.328125 -0.046875 -0.640625q-0.0625 -0.3125 -0.203125 -0.578125q-0.140625 -0.28125 -0.375 -0.484375q-0.21875 -0.203125 -0.546875 -0.328125q0.34375 -0.140625 0.640625 -0.328125q0.296875 -0.203125 0.515625 -0.46875q0.21875 -0.25 0.359375 -0.5625q0.140625 -0.328125 0.171875 -0.71875q0.046875 -0.6875 -0.1875 -1.15625q-0.234375 -0.484375 -0.65625 -0.78125q-0.421875 -0.296875 -0.984375 -0.4375q-0.546875 -0.140625 -1.15625 -0.15625l-2.984375 0l-1.65625 9.46875zm2.53125 -4.171875l1.734375 0q0.3125 0.015625 0.53125 0.125q0.234375 0.09375 0.375 0.265625q0.125 0.171875 0.171875 0.421875q0.046875 0.234375 0 0.515625q-0.046875 0.34375 -0.21875 0.609375q-0.15625 0.25 -0.40625 0.421875q-0.25 0.171875 -0.546875 0.265625q-0.296875 0.078125 -0.625 0.078125l-1.484375 -0.015625l0.46875 -2.6875zm0.21875 -1.328125l0.4375 -2.484375l1.390625 0q0.296875 0.015625 0.546875 0.09375q0.25 0.0625 0.40625 0.1875q0.171875 0.140625 0.25 0.375q0.078125 0.21875 0.03125 0.546875q-0.046875 0.34375 -0.21875 0.59375q-0.171875 0.25 -0.421875 0.40625q-0.25 0.15625 -0.5625 0.234375q-0.296875 0.0625 -0.609375 0.0625l-1.25 -0.015625zm9.509949 5.5l1.75 0l0 -0.109375q-0.140625 -0.390625 -0.109375 -0.78125q0.03125 -0.40625 0.09375 -0.78125l0.484375 -3.03125q0.0625 -0.609375 -0.125 -1.0625q-0.1875 -0.453125 -0.546875 -0.765625q-0.359375 -0.3125 -0.859375 -0.46875q-0.5 -0.171875 -1.046875 -0.171875q-0.53125 -0.015625 -1.0625 0.109375q-0.53125 0.125 -0.984375 0.40625q-0.4375 0.28125 -0.734375 0.703125q-0.296875 0.421875 -0.328125 1.015625l1.765625 -0.015625q0.046875 -0.21875 0.140625 -0.375q0.09375 -0.171875 0.234375 -0.28125q0.15625 -0.109375 0.34375 -0.15625q0.203125 -0.0625 0.4375 -0.0625q0.25 0.015625 0.453125 0.09375q0.203125 0.0625 0.34375 0.203125q0.125 0.140625 0.171875 0.34375q0.0625 0.203125 0.03125 0.453125l-0.09375 0.4375l-1.015625 -0.015625q-0.390625 0 -0.796875 0.046875q-0.40625 0.046875 -0.796875 0.15625q-0.375 0.109375 -0.71875 0.296875q-0.34375 0.171875 -0.59375 0.4375q-0.265625 0.265625 -0.421875 0.625q-0.15625 0.359375 -0.1875 0.828125q-0.015625 0.46875 0.140625 0.84375q0.171875 0.375 0.46875 0.640625q0.296875 0.265625 0.6875 0.421875q0.40625 0.140625 0.84375 0.140625q0.390625 0.015625 0.71875 -0.078125q0.34375 -0.078125 0.640625 -0.25q0.15625 -0.09375 0.296875 -0.203125q0.15625 -0.125 0.296875 -0.25q0 0.171875 0 0.328125q0.015625 0.15625 0.078125 0.328125zm-1.5625 -1.265625q-0.1875 0 -0.34375 -0.046875q-0.15625 -0.046875 -0.28125 -0.15625q-0.109375 -0.09375 -0.15625 -0.234375q-0.046875 -0.15625 -0.03125 -0.359375q0.03125 -0.171875 0.09375 -0.3125q0.0625 -0.15625 0.140625 -0.265625q0.109375 -0.125 0.25 -0.21875q0.140625 -0.109375 0.296875 -0.1875q0.234375 -0.09375 0.5 -0.140625q0.265625 -0.046875 0.515625 -0.046875l0.8125 0.015625l-0.234375 1.21875q-0.125 0.140625 -0.265625 0.265625q-0.140625 0.125 -0.296875 0.21875q-0.21875 0.125 -0.484375 0.203125q-0.25 0.0625 -0.515625 0.046875zm9.806854 -0.703125q-0.03125 0.25 -0.203125 0.40625q-0.15625 0.15625 -0.375 0.234375q-0.21875 0.09375 -0.46875 0.125q-0.234375 0.03125 -0.4375 0.03125q-0.265625 0 -0.5 -0.046875q-0.234375 -0.0625 -0.421875 -0.203125q-0.1875 -0.125 -0.296875 -0.328125q-0.109375 -0.203125 -0.125 -0.484375l-1.671875 0q0 0.59375 0.25 1.03125q0.265625 0.4375 0.671875 0.734375q0.421875 0.296875 0.9375 0.453125q0.515625 0.140625 1.0625 0.15625q0.46875 0 1.0 -0.09375q0.53125 -0.09375 1.0 -0.3125q0.515625 -0.25 0.890625 -0.6875q0.375 -0.4375 0.40625 -1.109375q0.03125 -0.546875 -0.21875 -0.90625q-0.25 -0.375 -0.625 -0.609375q-0.15625 -0.109375 -0.34375 -0.1875q-0.171875 -0.078125 -0.34375 -0.140625q-0.265625 -0.09375 -0.546875 -0.15625q-0.28125 -0.078125 -0.546875 -0.125q-0.171875 -0.03125 -0.40625 -0.078125q-0.21875 -0.046875 -0.40625 -0.140625q-0.203125 -0.078125 -0.328125 -0.234375q-0.125 -0.15625 -0.078125 -0.390625q0.046875 -0.234375 0.1875 -0.390625q0.15625 -0.171875 0.34375 -0.265625q0.203125 -0.09375 0.421875 -0.125q0.234375 -0.046875 0.4375 -0.046875q0.25 0 0.453125 0.0625q0.21875 0.046875 0.375 0.15625q0.15625 0.125 0.234375 0.3125q0.09375 0.171875 0.09375 0.421875l1.75 0.015625q0 -0.59375 -0.25 -1.015625q-0.234375 -0.4375 -0.625 -0.71875q-0.40625 -0.265625 -0.921875 -0.40625q-0.5 -0.140625 -1.03125 -0.140625q-0.453125 0 -0.9375 0.109375q-0.484375 0.09375 -0.890625 0.28125q-0.546875 0.25 -0.9375 0.71875q-0.375 0.453125 -0.390625 1.109375q-0.03125 0.515625 0.1875 0.875q0.234375 0.34375 0.609375 0.59375q0.296875 0.203125 0.609375 0.34375q0.328125 0.125 0.734375 0.234375q0.203125 0.046875 0.4375 0.109375q0.25 0.046875 0.515625 0.109375q0.140625 0.03125 0.265625 0.09375q0.140625 0.0625 0.25 0.125q0.109375 0.09375 0.171875 0.21875q0.078125 0.109375 0.03125 0.28125zm6.4630737 2.09375q0.828125 0.015625 1.625 -0.296875q0.796875 -0.3125 1.265625 -0.96875l-0.796875 -0.984375q-0.375 0.390625 -0.875 0.609375q-0.484375 0.203125 -1.03125 0.1875q-0.359375 0 -0.640625 -0.125q-0.265625 -0.140625 -0.4375 -0.34375q-0.203125 -0.21875 -0.296875 -0.5q-0.09375 -0.296875 -0.078125 -0.640625l4.59375 0l0.125 -0.765625q0.078125 -0.6875 -0.046875 -1.296875q-0.109375 -0.625 -0.4375 -1.109375q-0.328125 -0.46875 -0.875 -0.75q-0.53125 -0.296875 -1.265625 -0.3125q-0.515625 -0.015625 -1.0 0.125q-0.46875 0.125 -0.875 0.375q-0.3125 0.1875 -0.59375 0.453125q-0.28125 0.265625 -0.515625 0.5625q-0.34375 0.453125 -0.5625 1.0q-0.203125 0.546875 -0.265625 1.140625l-0.015625 0.265625q-0.078125 0.71875 0.109375 1.328125q0.203125 0.609375 0.59375 1.0625q0.40625 0.453125 0.984375 0.71875q0.578125 0.265625 1.3125 0.265625zm0.703125 -5.84375q0.296875 0.015625 0.515625 0.125q0.21875 0.109375 0.375 0.296875q0.140625 0.171875 0.203125 0.421875q0.0625 0.25 0.015625 0.53125l-0.03125 0.171875l-2.875 0q0.125 -0.296875 0.28125 -0.578125q0.171875 -0.28125 0.390625 -0.5q0.21875 -0.21875 0.484375 -0.34375q0.28125 -0.140625 0.640625 -0.125z" fill-rule="nonzero"/><path fill="#000000" fill-opacity="0.0" d="m152.79527 85.15748l188.22047 0l0 30.992126l-188.22047 0z" fill-rule="evenodd"/><path stroke="#000000" stroke-width="2.0" stroke-linejoin="round" stroke-linecap="butt" d="m152.79527 85.15748l188.22047 0l0 30.992126l-188.22047 0z" fill-rule="evenodd"/><path fill="#000000" d="m166.42027 100.37542l0 -2.765625l-1.203125 0l0 2.765625l-2.640625 0l0 1.1875l2.640625 0l0 2.9375l1.203125 0l0 -2.9375l2.640625 0l0 -1.1875l-2.640625 0z" fill-rule="nonzero"/><path fill="#000000" d="m183.85414 98.266045q-0.390625 0 -0.75 0.09375q-0.34375 0.078125 -0.65625 0.25q-0.3125 0.171875 -0.59375 0.40625q-0.28125 0.234375 -0.515625 0.515625l0.03125 -0.203125l0.15625 -0.921875l-1.125 0l-1.203125 7.046875l1.171875 0l0.78125 -4.515625q0.21875 -0.390625 0.484375 -0.6875q0.28125 -0.3125 0.625 -0.484375q0.265625 -0.15625 0.578125 -0.234375q0.328125 -0.078125 0.6875 -0.078125q0.328125 0.015625 0.640625 0.0625q0.3125 0.046875 0.625 0.109375l0.296875 -1.171875q-0.296875 -0.109375 -0.609375 -0.140625q-0.3125 -0.03125 -0.625 -0.046875zm5.275589 7.3125q0.8125 0.015625 1.578125 -0.328125q0.78125 -0.34375 1.265625 -1.015625l-0.671875 -0.578125q-0.421875 0.4375 -0.9375 0.703125q-0.515625 0.25 -1.125 0.234375q-0.484375 -0.015625 -0.828125 -0.21875q-0.34375 -0.203125 -0.546875 -0.515625q-0.21875 -0.328125 -0.296875 -0.734375q-0.078125 -0.421875 -0.03125 -0.84375l4.859375 0l0.078125 -0.546875q0.078125 -0.640625 -0.015625 -1.25q-0.09375 -0.625 -0.390625 -1.109375q-0.296875 -0.484375 -0.796875 -0.78125q-0.5 -0.296875 -1.21875 -0.3125q-0.5 -0.015625 -0.953125 0.125q-0.453125 0.140625 -0.84375 0.375q-0.390625 0.265625 -0.703125 0.609375q-0.3125 0.34375 -0.546875 0.75q-0.25 0.40625 -0.40625 0.859375q-0.140625 0.453125 -0.1875 0.921875l-0.03125 0.28125q-0.0625 0.671875 0.09375 1.28125q0.15625 0.609375 0.5 1.0625q0.359375 0.46875 0.890625 0.75q0.546875 0.265625 1.265625 0.28125zm0.859375 -6.3125q0.375 0.015625 0.65625 0.1875q0.296875 0.15625 0.484375 0.421875q0.171875 0.28125 0.234375 0.625q0.078125 0.328125 0.015625 0.6875l-0.03125 0.109375l-3.671875 -0.015625q0.140625 -0.375 0.34375 -0.734375q0.21875 -0.375 0.5 -0.671875q0.28125 -0.28125 0.640625 -0.453125q0.375 -0.171875 0.828125 -0.15625zm4.275589 2.65625l-0.015625 0.140625q-0.046875 0.390625 -0.03125 0.796875q0.03125 0.40625 0.109375 0.796875q0.09375 0.390625 0.265625 0.734375q0.171875 0.34375 0.421875 0.59375q0.265625 0.28125 0.625 0.4375q0.359375 0.140625 0.828125 0.15625q0.3125 0.015625 0.609375 -0.046875q0.296875 -0.0625 0.5625 -0.1875q0.203125 -0.09375 0.390625 -0.21875q0.1875 -0.140625 0.359375 -0.3125l-0.625 3.34375l1.171875 0l1.6875 -9.75l-1.09375 0l-0.203125 0.703125q-0.140625 -0.171875 -0.3125 -0.3125q-0.15625 -0.140625 -0.328125 -0.234375q-0.25 -0.140625 -0.546875 -0.203125q-0.28125 -0.078125 -0.59375 -0.078125q-0.515625 -0.015625 -0.9375 0.125q-0.421875 0.140625 -0.765625 0.390625q-0.34375 0.265625 -0.625 0.625q-0.265625 0.34375 -0.453125 0.75q-0.203125 0.40625 -0.328125 0.859375q-0.109375 0.4375 -0.171875 0.890625zm1.15625 0.140625l0.015625 -0.140625q0.03125 -0.28125 0.109375 -0.5625q0.078125 -0.296875 0.1875 -0.5625q0.140625 -0.328125 0.34375 -0.625q0.203125 -0.296875 0.46875 -0.515625q0.25 -0.1875 0.546875 -0.296875q0.3125 -0.109375 0.6875 -0.09375q0.234375 0 0.4375 0.078125q0.21875 0.0625 0.390625 0.1875q0.171875 0.109375 0.296875 0.28125q0.140625 0.15625 0.25 0.375l-0.609375 3.484375q-0.171875 0.203125 -0.359375 0.375q-0.1875 0.171875 -0.40625 0.296875q-0.21875 0.125 -0.46875 0.203125q-0.234375 0.0625 -0.5 0.046875q-0.34375 0 -0.59375 -0.109375q-0.234375 -0.125 -0.390625 -0.328125q-0.171875 -0.1875 -0.265625 -0.4375q-0.09375 -0.265625 -0.125 -0.546875q-0.046875 -0.28125 -0.046875 -0.5625q0 -0.296875 0.03125 -0.546875zm8.728714 3.515625q0.6875 0.015625 1.21875 -0.28125q0.546875 -0.296875 0.96875 -0.8125l-0.15625 0.96875l1.0625 0l1.21875 -7.046875l-1.171875 0l-0.890625 5.0625q-0.15625 0.265625 -0.359375 0.46875q-0.203125 0.1875 -0.4375 0.34375q-0.265625 0.140625 -0.5625 0.21875q-0.296875 0.078125 -0.625 0.0625q-0.421875 -0.015625 -0.640625 -0.1875q-0.21875 -0.1875 -0.3125 -0.46875q-0.09375 -0.28125 -0.09375 -0.625q0.015625 -0.34375 0.046875 -0.671875l0.703125 -4.203125l-1.1875 0l-0.703125 4.1875q-0.046875 0.546875 0 1.078125q0.0625 0.53125 0.28125 0.953125q0.21875 0.421875 0.609375 0.6875q0.40625 0.25 1.03125 0.265625zm8.447464 0q0.8125 0.015625 1.578125 -0.328125q0.78125 -0.34375 1.265625 -1.015625l-0.671875 -0.578125q-0.421875 0.4375 -0.9375 0.703125q-0.515625 0.25 -1.125 0.234375q-0.484375 -0.015625 -0.828125 -0.21875q-0.34375 -0.203125 -0.546875 -0.515625q-0.21875 -0.328125 -0.296875 -0.734375q-0.078125 -0.421875 -0.03125 -0.84375l4.859375 0l0.078125 -0.546875q0.078125 -0.640625 -0.015625 -1.25q-0.09375 -0.625 -0.390625 -1.109375q-0.296875 -0.484375 -0.796875 -0.78125q-0.5 -0.296875 -1.21875 -0.3125q-0.5 -0.015625 -0.953125 0.125q-0.453125 0.140625 -0.84375 0.375q-0.390625 0.265625 -0.703125 0.609375q-0.3125 0.34375 -0.546875 0.75q-0.25 0.40625 -0.40625 0.859375q-0.140625 0.453125 -0.1875 0.921875l-0.03125 0.28125q-0.0625 0.671875 0.09375 1.28125q0.15625 0.609375 0.5 1.0625q0.359375 0.46875 0.890625 0.75q0.546875 0.265625 1.265625 0.28125zm0.859375 -6.3125q0.375 0.015625 0.65625 0.1875q0.296875 0.15625 0.484375 0.421875q0.171875 0.28125 0.234375 0.625q0.078125 0.328125 0.015625 0.6875l-0.03125 0.109375l-3.671875 -0.015625q0.140625 -0.375 0.34375 -0.734375q0.21875 -0.375 0.5 -0.671875q0.28125 -0.28125 0.640625 -0.453125q0.375 -0.171875 0.828125 -0.15625zm8.775589 4.28125q-0.046875 0.296875 -0.234375 0.515625q-0.1875 0.203125 -0.453125 0.3125q-0.25 0.125 -0.546875 0.1875q-0.296875 0.046875 -0.546875 0.03125q-0.328125 0 -0.609375 -0.078125q-0.28125 -0.078125 -0.484375 -0.234375q-0.203125 -0.15625 -0.328125 -0.40625q-0.125 -0.25 -0.140625 -0.59375l-1.171875 0q0 0.5625 0.21875 1.0q0.21875 0.421875 0.609375 0.703125q0.375 0.296875 0.859375 0.453125q0.484375 0.140625 1.0 0.140625q0.5 0.015625 1.015625 -0.109375q0.515625 -0.109375 0.953125 -0.375q0.421875 -0.25 0.703125 -0.65625q0.296875 -0.421875 0.328125 -0.984375q0.015625 -0.328125 -0.09375 -0.59375q-0.09375 -0.265625 -0.265625 -0.484375q-0.171875 -0.203125 -0.421875 -0.34375q-0.25 -0.15625 -0.515625 -0.28125q-0.28125 -0.109375 -0.5625 -0.1875q-0.28125 -0.09375 -0.546875 -0.15625q-0.21875 -0.046875 -0.484375 -0.109375q-0.25 -0.0625 -0.46875 -0.171875q-0.21875 -0.109375 -0.359375 -0.296875q-0.125 -0.1875 -0.078125 -0.484375q0.03125 -0.296875 0.203125 -0.5q0.171875 -0.203125 0.40625 -0.328125q0.25 -0.125 0.515625 -0.1875q0.28125 -0.0625 0.546875 -0.046875q0.265625 0 0.515625 0.078125q0.25 0.078125 0.453125 0.234375q0.1875 0.15625 0.296875 0.375q0.109375 0.21875 0.109375 0.515625l1.171875 0q0 -0.53125 -0.203125 -0.9375q-0.203125 -0.40625 -0.546875 -0.6875q-0.34375 -0.28125 -0.8125 -0.421875q-0.453125 -0.140625 -0.9375 -0.15625q-0.421875 0 -0.859375 0.09375q-0.421875 0.09375 -0.828125 0.296875q-0.46875 0.234375 -0.828125 0.6875q-0.34375 0.4375 -0.375 1.03125q-0.015625 0.484375 0.203125 0.828125q0.21875 0.34375 0.5625 0.578125q0.3125 0.1875 0.671875 0.328125q0.375 0.125 0.71875 0.21875q0.21875 0.0625 0.453125 0.125q0.234375 0.046875 0.484375 0.140625q0.140625 0.0625 0.265625 0.140625q0.140625 0.078125 0.25 0.1875q0.109375 0.109375 0.15625 0.265625q0.046875 0.140625 0.03125 0.34375zm7.213089 -6.84375l-1.1875 0l-0.296875 1.703125l-1.796875 0l-0.15625 0.9375l1.796875 0l-0.640625 3.828125q-0.046875 0.484375 0.03125 0.921875q0.078125 0.421875 0.296875 0.75q0.234375 0.328125 0.59375 0.53125q0.359375 0.1875 0.890625 0.203125q0.46875 0.015625 0.96875 -0.0625q0.5 -0.0625 0.90625 -0.296875l-0.109375 -0.859375q-0.359375 0.078125 -0.71875 0.140625q-0.34375 0.0625 -0.703125 0.046875q-0.3125 0 -0.515625 -0.109375q-0.203125 -0.109375 -0.3125 -0.296875q-0.109375 -0.1875 -0.15625 -0.421875q-0.03125 -0.25 0 -0.546875l0.640625 -3.828125l2.609375 0l0.15625 -0.9375l-2.609375 0l0.3125 -1.703125zm5.353714 4.9375l-0.015625 0.0625q-0.078125 0.5625 -0.09375 1.1875q-0.015625 0.625 0.046875 1.265625q0.0625 0.640625 0.203125 1.265625q0.15625 0.609375 0.421875 1.1875q0.25 0.5625 0.625 1.046875q0.375 0.5 0.875 0.859375l0.3125 -0.734375q-0.390625 -0.34375 -0.65625 -0.8125q-0.265625 -0.453125 -0.421875 -0.96875q-0.15625 -0.53125 -0.21875 -1.078125q-0.0625 -0.5625 -0.0625 -1.125q-0.015625 -0.5625 0.03125 -1.09375q0.046875 -0.53125 0.125 -1.0l0 -0.109375q0.140625 -0.84375 0.375 -1.6875q0.234375 -0.859375 0.609375 -1.65625q0.359375 -0.78125 0.875 -1.46875q0.53125 -0.6875 1.25 -1.21875l-0.171875 -0.8125q-0.625 0.3125 -1.140625 0.765625q-0.515625 0.453125 -0.9375 1.0q-0.421875 0.5625 -0.765625 1.1875q-0.328125 0.625 -0.578125 1.28125q-0.25 0.65625 -0.421875 1.34375q-0.171875 0.671875 -0.265625 1.3125zm10.916214 0l0.015625 -0.0625q0.078125 -0.5625 0.09375 -1.1875q0.015625 -0.625 -0.046875 -1.265625q-0.0625 -0.640625 -0.21875 -1.265625q-0.140625 -0.625 -0.390625 -1.203125q-0.265625 -0.5625 -0.640625 -1.046875q-0.375 -0.484375 -0.890625 -0.84375l-0.296875 0.71875q0.375 0.359375 0.625 0.8125q0.265625 0.453125 0.421875 0.96875q0.15625 0.53125 0.21875 1.109375q0.078125 0.5625 0.078125 1.109375q0.015625 0.5625 -0.03125 1.109375q-0.046875 0.53125 -0.109375 0.984375l-0.015625 0.09375q-0.140625 0.859375 -0.375 1.71875q-0.234375 0.859375 -0.59375 1.65625q-0.375 0.796875 -0.90625 1.5q-0.515625 0.703125 -1.234375 1.21875l0.171875 0.75q0.9375 -0.453125 1.640625 -1.234375q0.71875 -0.78125 1.21875 -1.71875q0.484375 -0.921875 0.796875 -1.9375q0.328125 -1.015625 0.46875 -1.984375z" fill-rule="nonzero"/><path fill="#000000" fill-opacity="0.0" d="m10.3412075 191.07611l188.22047 0l0 30.992126l-188.22047 0z" fill-rule="evenodd"/><path stroke="#000000" stroke-width="3.0" stroke-linejoin="round" stroke-linecap="butt" d="m10.3412075 191.07611l188.22047 0l0 30.992126l-188.22047 0z" fill-rule="evenodd"/><path fill="#000000" d="m64.52393 207.8253l1.78125 3.546875l1.96875 0l0 -0.078125l-2.046875 -3.921875q0.390625 -0.171875 0.703125 -0.40625q0.328125 -0.25 0.546875 -0.578125q0.234375 -0.3125 0.34375 -0.71875q0.125 -0.40625 0.125 -0.921875q0 -0.703125 -0.25 -1.234375q-0.234375 -0.53125 -0.6875 -0.890625q-0.453125 -0.359375 -1.09375 -0.53125q-0.640625 -0.1875 -1.421875 -0.1875l-3.1718788 0l0 9.46875l1.828125 0l0 -3.546875l1.3750038 0zm-1.3750038 -1.484375l0 -2.953125l1.3437538 0q0.375 0 0.65625 0.09375q0.296875 0.078125 0.5 0.25q0.234375 0.1875 0.34375 0.484375q0.125 0.28125 0.125 0.65625q0 0.3125 -0.09375 0.578125q-0.09375 0.25 -0.265625 0.421875q-0.1875 0.234375 -0.515625 0.359375q-0.328125 0.109375 -0.75 0.109375l-1.3437538 0zm9.638813 5.15625q1.03125 0 1.78125 -0.390625q0.75 -0.390625 1.09375 -0.890625l-0.90625 -0.96875q-0.3125 0.40625 -0.8125 0.609375q-0.5 0.1875 -1.046875 0.1875q-0.375 0 -0.703125 -0.109375q-0.3125 -0.125 -0.546875 -0.328125q-0.25 -0.21875 -0.390625 -0.46875q-0.140625 -0.265625 -0.234375 -0.6875l0 -0.015625l4.78125 0l0 -0.765625q0 -0.78125 -0.21875 -1.421875q-0.21875 -0.640625 -0.625 -1.09375q-0.421875 -0.453125 -1.015625 -0.703125q-0.59375 -0.25 -1.359375 -0.25q-0.734375 0 -1.359375 0.265625q-0.625 0.265625 -1.078125 0.75q-0.453125 0.484375 -0.703125 1.15625q-0.25 0.65625 -0.25 1.46875l0 0.25q0 0.71875 0.25 1.34375q0.265625 0.609375 0.734375 1.078125q0.46875 0.453125 1.125 0.71875q0.671875 0.265625 1.484375 0.265625zm-0.203125 -5.828125q0.34375 0 0.59375 0.109375q0.265625 0.09375 0.453125 0.28125q0.1875 0.1875 0.28125 0.453125q0.109375 0.25 0.109375 0.53125l0 0.140625l-2.96875 0q0.0625 -0.34375 0.1875 -0.625q0.140625 -0.28125 0.34375 -0.484375q0.1875 -0.203125 0.4375 -0.296875q0.25 -0.109375 0.5625 -0.109375zm9.185684 5.703125l1.84375 0l0 -0.109375q-0.140625 -0.265625 -0.21875 -0.640625q-0.0625 -0.375 -0.0625 -0.9375l0 -3.015625q0 -0.609375 -0.234375 -1.078125q-0.21875 -0.46875 -0.625 -0.765625q-0.40625 -0.3125 -0.953125 -0.46875q-0.546875 -0.15625 -1.1875 -0.15625q-0.71875 0 -1.265625 0.1875q-0.546875 0.171875 -0.921875 0.46875q-0.390625 0.3125 -0.59375 0.71875q-0.1875 0.40625 -0.1875 0.84375l1.8125 0q0 -0.1875 0.046875 -0.34375q0.0625 -0.15625 0.171875 -0.265625q0.140625 -0.125 0.34375 -0.1875q0.203125 -0.0625 0.5 -0.0625q0.3125 0 0.5625 0.078125q0.25 0.078125 0.40625 0.234375q0.15625 0.140625 0.234375 0.34375q0.078125 0.1875 0.078125 0.4375l0 0.421875l-1.015625 0q-0.765625 0 -1.375 0.140625q-0.609375 0.140625 -1.015625 0.40625q-0.453125 0.28125 -0.6875 0.734375q-0.21875 0.453125 -0.21875 1.046875q0 0.453125 0.171875 0.84375q0.1875 0.390625 0.515625 0.65625q0.328125 0.28125 0.78125 0.4375q0.453125 0.15625 0.984375 0.15625q0.34375 0 0.625 -0.0625q0.28125 -0.0625 0.53125 -0.171875q0.234375 -0.09375 0.421875 -0.234375q0.203125 -0.15625 0.34375 -0.3125q0.03125 0.1875 0.078125 0.359375q0.046875 0.171875 0.109375 0.296875zm-1.71875 -1.265625q-0.25 0 -0.453125 -0.0625q-0.1875 -0.0625 -0.3125 -0.171875q-0.140625 -0.109375 -0.203125 -0.265625q-0.0625 -0.15625 -0.0625 -0.34375q0 -0.25 0.078125 -0.453125q0.09375 -0.203125 0.28125 -0.359375q0.203125 -0.140625 0.5 -0.21875q0.296875 -0.078125 0.71875 -0.078125l0.921875 0l0 1.203125q-0.078125 0.140625 -0.21875 0.28125q-0.125 0.125 -0.328125 0.234375q-0.1875 0.09375 -0.421875 0.171875q-0.234375 0.0625 -0.5 0.0625zm5.701309 -8.734375l0 1.484375l2.109375 0l0 7.046875l-2.109375 0l0 1.46875l5.953125 0l0 -1.46875l-2.015625 0l0 -8.53125l-3.9375 0zm12.466934 7.53125q0 0.25 -0.109375 0.46875q-0.09375 0.203125 -0.28125 0.359375q-0.203125 0.140625 -0.484375 0.234375q-0.28125 0.078125 -0.640625 0.078125q-0.421875 0 -0.765625 -0.09375q-0.328125 -0.09375 -0.578125 -0.28125q-0.25 -0.203125 -0.390625 -0.5q-0.125 -0.3125 -0.140625 -0.734375l-1.796875 0q0 0.734375 0.28125 1.28125q0.28125 0.546875 0.78125 0.953125q0.5 0.40625 1.1875 0.625q0.703125 0.203125 1.421875 0.203125q0.71875 0 1.328125 -0.171875q0.609375 -0.171875 1.046875 -0.515625q0.453125 -0.328125 0.703125 -0.8125q0.25 -0.484375 0.25 -1.109375q0 -0.71875 -0.34375 -1.265625q-0.328125 -0.5625 -0.875 -0.984375q-0.375 -0.25 -0.828125 -0.4375q-0.4375 -0.203125 -0.921875 -0.34375q-0.453125 -0.125 -0.828125 -0.265625q-0.359375 -0.140625 -0.609375 -0.3125q-0.25 -0.171875 -0.390625 -0.390625q-0.125 -0.21875 -0.125 -0.484375q0 -0.25 0.09375 -0.46875q0.109375 -0.21875 0.296875 -0.375q0.203125 -0.15625 0.484375 -0.234375q0.28125 -0.09375 0.640625 -0.09375q0.40625 0 0.703125 0.109375q0.296875 0.09375 0.5 0.28125q0.1875 0.203125 0.28125 0.46875q0.109375 0.265625 0.125 0.578125l1.78125 0q0 -0.625 -0.25 -1.15625q-0.25 -0.546875 -0.6875 -0.9375q-0.4375 -0.375 -1.0625 -0.59375q-0.609375 -0.21875 -1.359375 -0.21875q-0.703125 0 -1.328125 0.1875q-0.609375 0.1875 -1.046875 0.53125q-0.453125 0.34375 -0.71875 0.84375q-0.25 0.484375 -0.25 1.078125q0 0.515625 0.1875 0.96875q0.203125 0.4375 0.578125 0.796875q0.375 0.375 0.96875 0.6875q0.609375 0.296875 1.390625 0.5q0.5 0.140625 0.84375 0.3125q0.34375 0.15625 0.5625 0.34375q0.203125 0.1875 0.28125 0.40625q0.09375 0.21875 0.09375 0.484375zm7.748184 2.46875l1.640625 0l0 -7.046875l-1.8125 0l0 4.9375q-0.09375 0.171875 -0.21875 0.3125q-0.109375 0.140625 -0.25 0.234375q-0.1875 0.109375 -0.421875 0.171875q-0.21875 0.0625 -0.515625 0.0625q-0.3125 0 -0.53125 -0.078125q-0.21875 -0.078125 -0.359375 -0.265625q-0.140625 -0.171875 -0.203125 -0.46875q-0.0625 -0.296875 -0.0625 -0.71875l0 -4.1875l-1.8125 0l0 4.171875q0 0.796875 0.171875 1.375q0.1875 0.5625 0.515625 0.921875q0.328125 0.375 0.78125 0.546875q0.453125 0.171875 1.0 0.171875q0.609375 0 1.109375 -0.296875q0.5 -0.3125 0.859375 -0.828125l0.109375 0.984375zm9.748184 -3.453125l0 -0.125q0 -0.640625 -0.125 -1.203125q-0.109375 -0.5625 -0.34375 -1.015625q-0.140625 -0.28125 -0.34375 -0.515625q-0.1875 -0.234375 -0.4375 -0.40625q-0.296875 -0.21875 -0.6875 -0.328125q-0.375 -0.125 -0.828125 -0.125q-0.328125 0 -0.609375 0.078125q-0.28125 0.0625 -0.53125 0.203125q-0.15625 0.078125 -0.3125 0.21875q-0.15625 0.125 -0.28125 0.265625l0 -3.59375l-1.8125 0l0 10.0l1.625 0l0.09375 -0.75q0.109375 0.140625 0.234375 0.265625q0.125 0.125 0.265625 0.21875q0.265625 0.1875 0.59375 0.28125q0.34375 0.109375 0.75 0.109375q0.453125 0 0.828125 -0.109375q0.375 -0.109375 0.671875 -0.328125q0.328125 -0.234375 0.5625 -0.578125q0.25 -0.34375 0.40625 -0.765625q0.140625 -0.375 0.203125 -0.828125q0.078125 -0.453125 0.078125 -0.96875zm-1.8125 -0.125l0 0.125q0 0.28125 -0.03125 0.53125q-0.015625 0.25 -0.0625 0.46875q-0.0625 0.296875 -0.203125 0.53125q-0.125 0.21875 -0.328125 0.359375q-0.140625 0.109375 -0.34375 0.171875q-0.1875 0.0625 -0.421875 0.0625q-0.28125 0 -0.5 -0.0625q-0.21875 -0.078125 -0.375 -0.203125q-0.140625 -0.09375 -0.25 -0.21875q-0.09375 -0.140625 -0.171875 -0.296875l0 -2.8125q0.0625 -0.125 0.125 -0.234375q0.078125 -0.109375 0.15625 -0.1875q0.1875 -0.171875 0.421875 -0.265625q0.25 -0.09375 0.578125 -0.09375q0.234375 0 0.421875 0.0625q0.203125 0.046875 0.34375 0.15625q0.234375 0.1875 0.34375 0.40625q0.109375 0.203125 0.1875 0.46875q0.0625 0.21875 0.078125 0.484375q0.03125 0.265625 0.03125 0.546875zm4.545059 -3.46875l0 1.484375l1.78125 0l0 5.71875q0 0.34375 -0.109375 0.5625q-0.09375 0.234375 -0.25 0.375q-0.171875 0.125 -0.40625 0.1875q-0.234375 0.0625 -0.484375 0.0625q-0.078125 0 -0.21875 -0.015625q-0.125 0 -0.265625 0q-0.140625 -0.015625 -0.28125 -0.03125q-0.140625 -0.015625 -0.21875 -0.03125l-0.09375 1.46875q0.109375 0.03125 0.234375 0.046875q0.125 0.015625 0.25 0.03125q0.171875 0.015625 0.34375 0.015625q0.171875 0.015625 0.328125 0.015625q0.71875 0 1.265625 -0.15625q0.5625 -0.15625 0.9375 -0.484375q0.390625 -0.328125 0.59375 -0.84375q0.203125 -0.5 0.203125 -1.203125l0 -7.203125l-3.609375 0zm1.65625 -1.796875q0 0.421875 0.28125 0.703125q0.28125 0.265625 0.75 0.265625q0.484375 0 0.765625 -0.265625q0.28125 -0.28125 0.28125 -0.703125q0 -0.421875 -0.28125 -0.6875q-0.28125 -0.28125 -0.765625 -0.28125q-0.484375 0 -0.765625 0.28125q-0.265625 0.28125 -0.265625 0.6875zm8.670052 8.96875q1.03125 0 1.78125 -0.390625q0.75 -0.390625 1.09375 -0.890625l-0.90625 -0.96875q-0.3125 0.40625 -0.8125 0.609375q-0.5 0.1875 -1.046875 0.1875q-0.375 0 -0.703125 -0.109375q-0.31249237 -0.125 -0.5468674 -0.328125q-0.25 -0.21875 -0.390625 -0.46875q-0.140625 -0.265625 -0.234375 -0.6875l0 -0.015625l4.7812424 0l0 -0.765625q0 -0.78125 -0.21875 -1.421875q-0.21875 -0.640625 -0.625 -1.09375q-0.421875 -0.453125 -1.015625 -0.703125q-0.59375 -0.25 -1.359375 -0.25q-0.7343674 0 -1.3593674 0.265625q-0.625 0.265625 -1.078125 0.75q-0.453125 0.484375 -0.703125 1.15625q-0.25 0.65625 -0.25 1.46875l0 0.25q0 0.71875 0.25 1.34375q0.265625 0.609375 0.734375 1.078125q0.46875 0.453125 1.125 0.71875q0.671875 0.265625 1.4843674 0.265625zm-0.203125 -5.828125q0.34375 0 0.59375 0.109375q0.265625 0.09375 0.453125 0.28125q0.1875 0.1875 0.28125 0.453125q0.109375 0.25 0.109375 0.53125l0 0.140625l-2.9687424 0q0.0625 -0.34375 0.1875 -0.625q0.140625 -0.28125 0.34375 -0.484375q0.1875 -0.203125 0.43749237 -0.296875q0.25 -0.109375 0.5625 -0.109375zm7.904434 4.390625q-0.4375 0 -0.71875 -0.171875q-0.28125 -0.1875 -0.4375 -0.46875q-0.171875 -0.296875 -0.234375 -0.671875q-0.0625 -0.375 -0.0625 -0.796875l0 -0.1875q0 -0.40625 0.0625 -0.78125q0.0625 -0.375 0.234375 -0.671875q0.171875 -0.296875 0.4375 -0.46875q0.28125 -0.171875 0.71875 -0.171875q0.296875 0 0.53125 0.109375q0.25 0.09375 0.421875 0.25q0.1875 0.171875 0.265625 0.40625q0.09375 0.234375 0.09375 0.5l1.703125 0q0 -0.625 -0.21875 -1.125q-0.21875 -0.515625 -0.609375 -0.875q-0.40625 -0.34375 -0.96875 -0.53125q-0.546875 -0.203125 -1.203125 -0.203125q-0.8125 0 -1.421875 0.28125q-0.609375 0.28125 -1.03125 0.765625q-0.421875 0.46875 -0.625 1.125q-0.203125 0.640625 -0.203125 1.390625l0 0.1875q0 0.75 0.203125 1.40625q0.21875 0.640625 0.625 1.125q0.421875 0.46875 1.03125 0.75q0.625 0.28125 1.4375 0.28125q0.609375 0 1.15625 -0.1875q0.546875 -0.203125 0.953125 -0.53125q0.40625 -0.34375 0.640625 -0.8125q0.234375 -0.46875 0.234375 -1.015625l-1.703125 0q0 0.25 -0.109375 0.453125q-0.09375 0.203125 -0.265625 0.34375q-0.1875 0.140625 -0.4375 0.21875q-0.234375 0.078125 -0.5 0.078125zm8.201309 -7.453125l-1.8125 0l0 1.71875l-1.609375 0l0 1.34375l1.609375 0l0 3.203125q0 0.6875 0.1875 1.1875q0.1875 0.5 0.515625 0.8125q0.34375 0.328125 0.8125 0.484375q0.46875 0.15625 1.046875 0.15625q0.296875 0 0.609375 -0.03125q0.3125 -0.03125 0.59375 -0.078125q0.28125 -0.0625 0.53125 -0.140625q0.265625 -0.078125 0.453125 -0.1875l-0.171875 -1.25q-0.125 0.03125 -0.296875 0.078125q-0.171875 0.03125 -0.375 0.046875q-0.203125 0.03125 -0.421875 0.0625q-0.21875 0.015625 -0.421875 0.015625q-0.28125 0 -0.515625 -0.0625q-0.234375 -0.078125 -0.390625 -0.234375q-0.171875 -0.140625 -0.265625 -0.390625q-0.078125 -0.265625 -0.078125 -0.65625l0 -3.015625l2.625 0l0 -1.34375l-2.625 0l0 -1.71875z" fill-rule="nonzero"/><path fill="#000000" fill-opacity="0.0" d="m267.83466 191.07611l217.92126 0l0 29.826782l-217.92126 0z" fill-rule="evenodd"/><path stroke="#000000" stroke-width="3.0" stroke-linejoin="round" stroke-linecap="butt" d="m267.83466 191.07611l217.92126 0l0 29.826782l-217.92126 0z" fill-rule="evenodd"/><path fill="#000000" d="m359.59668 207.32076l1.40625 0q0.78125 0 1.40625 -0.21875q0.625 -0.234375 1.0625 -0.625q0.4375 -0.390625 0.671875 -0.921875q0.25 -0.546875 0.25 -1.1875q0 -0.6875 -0.25 -1.234375q-0.234375 -0.5625 -0.671875 -0.96875q-0.4375 -0.40625 -1.0625 -0.625q-0.625 -0.21875 -1.40625 -0.21875l-3.234375 0l0 9.46875l1.828125 0l0 -3.46875zm0 -1.484375l0 -3.03125l1.40625 0q0.390625 0 0.671875 0.125q0.296875 0.109375 0.5 0.328125q0.1875 0.21875 0.28125 0.515625q0.09375 0.28125 0.09375 0.609375q0 0.28125 -0.09375 0.546875q-0.09375 0.265625 -0.28125 0.46875q-0.203125 0.203125 -0.5 0.328125q-0.28125 0.109375 -0.671875 0.109375l-1.40625 0zm11.170074 -2.21875q-0.703125 0 -1.3125 0.34375q-0.59375 0.34375 -1.015625 0.9375l-0.015625 -0.15625l-0.078125 -1.0l-1.671875 0l0 7.046875l1.796875 0l0 -4.234375q0.125 -0.296875 0.3125 -0.515625q0.1875 -0.21875 0.453125 -0.359375q0.234375 -0.125 0.515625 -0.1875q0.28125 -0.0625 0.625 -0.0625q0.34375 0 0.71875 0.046875q0.375 0.03125 0.734375 0.125l0.265625 -1.8125q-0.21875 -0.0625 -0.5625 -0.109375q-0.34375 -0.0625 -0.765625 -0.0625zm2.701294 3.59375l0 0.125q0 0.78125 0.21875 1.4375q0.21875 0.65625 0.65625 1.125q0.421875 0.484375 1.03125 0.765625q0.625 0.265625 1.421875 0.265625q0.796875 0 1.40625 -0.265625q0.625 -0.28125 1.046875 -0.765625q0.421875 -0.46875 0.640625 -1.125q0.21875 -0.65625 0.21875 -1.4375l0 -0.125q0 -0.78125 -0.21875 -1.421875q-0.21875 -0.65625 -0.640625 -1.140625q-0.4375 -0.484375 -1.0625 -0.75q-0.609375 -0.28125 -1.40625 -0.28125q-0.78125 0 -1.40625 0.28125q-0.609375 0.265625 -1.03125 0.75q-0.4375 0.484375 -0.65625 1.140625q-0.21875 0.640625 -0.21875 1.421875zm1.8125 0.125l0 -0.125q0 -0.4375 0.078125 -0.8125q0.09375 -0.390625 0.265625 -0.6875q0.1875 -0.296875 0.46875 -0.453125q0.28125 -0.171875 0.6875 -0.171875q0.421875 0 0.703125 0.171875q0.28125 0.15625 0.46875 0.453125q0.171875 0.296875 0.25 0.6875q0.09375 0.375 0.09375 0.8125l0 0.125q0 0.453125 -0.09375 0.84375q-0.078125 0.375 -0.25 0.65625q-0.1875 0.296875 -0.46875 0.46875q-0.28125 0.171875 -0.6875 0.171875q-0.40625 0 -0.703125 -0.171875q-0.28125 -0.171875 -0.46875 -0.46875q-0.171875 -0.28125 -0.265625 -0.65625q-0.078125 -0.390625 -0.078125 -0.84375zm9.654449 -1.390625l-1.53125 -2.203125l-1.9375 0l2.359375 3.46875l-2.453125 3.578125l1.953125 0l1.609375 -2.296875l1.625 2.296875l1.953125 0l-2.453125 -3.578125l2.375 -3.46875l-1.953125 0l-1.546875 2.203125zm5.888794 7.6875q0.546875 0 0.9375 -0.1875q0.40625 -0.171875 0.6875 -0.4375q0.28125 -0.265625 0.46875 -0.578125q0.1875 -0.3125 0.296875 -0.59375l3.5781555 -8.09375l-2.0000305 0l-1.609375 4.140625l-0.265625 0.703125l-0.1875 -0.71875l-1.625 -4.125l-1.96875 0l2.96875 6.75l-0.40625 0.765625q-0.078125 0.15625 -0.140625 0.234375q-0.046875 0.078125 -0.171875 0.234375q-0.109375 0.15625 -0.28125 0.28125q-0.171875 0.140625 -0.375 0.140625q-0.109375 0 -0.28125 -0.015625q-0.171875 -0.015625 -0.28125 -0.015625l-0.21875 1.390625q0.234375 0.0625 0.421875 0.09375q0.1875 0.03125 0.453125 0.03125z" fill-rule="nonzero"/><path fill="#000000" fill-opacity="0.0" d="m267.83466 116.154854l0 37.463066l115.08661 0l0 37.466064" fill-rule="evenodd"/><path stroke="#000000" stroke-width="3.0" stroke-linejoin="round" stroke-linecap="butt" d="m267.83466 134.15486l0 19.463058l115.08661 0l0 37.466064" fill-rule="evenodd"/><path stroke="#000000" stroke-width="3.0" stroke-linecap="butt" d="m272.78986 134.15486l-4.9552 -13.614296l-4.9552 13.614296z" fill-rule="evenodd"/><path fill="#000000" fill-opacity="0.0" d="m235.17586 116.154854l0 37.463066l-115.08662 0l0 37.466064" fill-rule="evenodd"/><path stroke="#000000" stroke-width="3.0" stroke-linejoin="round" stroke-linecap="butt" d="m235.17586 134.15486l0 19.463058l-115.08662 0l0 37.466064" fill-rule="evenodd"/><path stroke="#000000" stroke-width="3.0" stroke-linecap="butt" d="m240.13106 134.15486l-4.9552 -13.614296l-4.9552 13.614296z" fill-rule="evenodd"/><path fill="#000000" fill-opacity="0.0" d="m198.5748 202.70079l23.496063 0l0 30.992126l-23.496063 0z" fill-rule="evenodd"/><path fill="#000000" d="m212.54355 224.5008l-1.171875 0l0 -7.46875q-0.421875 0.40625 -1.109375 0.8125q-0.6875 0.40625 -1.234375 0.609375l0 -1.140625q0.984375 -0.453125 1.71875 -1.109375q0.734375 -0.671875 1.03125 -1.28125l0.765625 0l0 9.578125z" fill-rule="nonzero"/><path fill="#000000" fill-opacity="0.0" d="m267.83466 222.08661l217.92126 0l0 30.992126l-217.92126 0z" fill-rule="evenodd"/><path stroke="#000000" stroke-width="2.0" stroke-linejoin="round" stroke-linecap="butt" d="m267.83466 222.08661l217.92126 0l0 30.992126l-217.92126 0z" fill-rule="evenodd"/><path fill="#000000" d="m284.8479 238.82143l0 -0.890625l-4.484375 0l0 0.890625l4.484375 0z" fill-rule="nonzero"/><path fill="#000000" d="m298.6565 235.64955q-0.6875 0 -1.234375 0.296875q-0.53125 0.296875 -0.921875 0.828125l-0.015625 -0.15625l-0.046875 -0.859375l-1.03125 0l0 6.34375l1.09375 0l0 -4.0625q0.109375 -0.296875 0.265625 -0.53125q0.171875 -0.234375 0.375 -0.40625q0.25 -0.1875 0.5625 -0.28125q0.328125 -0.09375 0.734375 -0.09375q0.296875 0 0.578125 0.03125q0.296875 0.03125 0.609375 0.09375l0.140625 -1.0625q-0.15625 -0.0625 -0.484375 -0.09375q-0.328125 -0.046875 -0.625 -0.046875zm5.857422 6.578125q0.921875 0 1.546875 -0.375q0.625 -0.375 0.953125 -0.859375l-0.671875 -0.515625q-0.296875 0.390625 -0.75 0.625q-0.453125 0.234375 -1.03125 0.234375q-0.4375 0 -0.796875 -0.15625q-0.359375 -0.171875 -0.625 -0.46875q-0.25 -0.265625 -0.390625 -0.609375q-0.140625 -0.359375 -0.1875 -0.8125l0 -0.046875l4.53125 0l0 -0.484375q0 -0.671875 -0.171875 -1.234375q-0.15625 -0.5625 -0.5 -0.984375q-0.34375 -0.421875 -0.859375 -0.65625q-0.515625 -0.234375 -1.1875 -0.234375q-0.546875 0 -1.078125 0.21875q-0.515625 0.21875 -0.921875 0.640625q-0.40625 0.421875 -0.65625 1.03125q-0.234375 0.59375 -0.234375 1.375l0 0.234375q0 0.671875 0.21875 1.234375q0.21875 0.5625 0.625 0.96875q0.390625 0.40625 0.953125 0.640625q0.5625 0.234375 1.234375 0.234375zm-0.140625 -5.6875q0.40625 0 0.703125 0.15625q0.3125 0.140625 0.515625 0.390625q0.1875 0.25 0.296875 0.59375q0.125 0.328125 0.125 0.625l0 0.046875l-3.421875 0q0.0625 -0.4375 0.21875 -0.765625q0.171875 -0.34375 0.40625 -0.578125q0.234375 -0.234375 0.53125 -0.34375q0.296875 -0.125 0.625 -0.125zm8.701172 5.5625l1.125 0l0 -0.09375q-0.09375 -0.265625 -0.15625 -0.609375q-0.0625 -0.359375 -0.0625 -0.6875l0 -2.9375q0 -0.53125 -0.203125 -0.921875q-0.1875 -0.40625 -0.515625 -0.6875q-0.34375 -0.25 -0.8125 -0.375q-0.453125 -0.140625 -1.0 -0.140625q-0.578125 0 -1.046875 0.171875q-0.46875 0.15625 -0.796875 0.421875q-0.328125 0.265625 -0.5 0.609375q-0.171875 0.328125 -0.171875 0.671875l1.09375 0q0 -0.203125 0.09375 -0.390625q0.09375 -0.1875 0.265625 -0.3125q0.171875 -0.140625 0.421875 -0.21875q0.265625 -0.078125 0.59375 -0.078125q0.34375 0 0.609375 0.09375q0.28125 0.078125 0.484375 0.234375q0.1875 0.15625 0.296875 0.390625q0.109375 0.234375 0.109375 0.515625l0 0.5l-1.1875 0q-0.65625 0 -1.203125 0.125q-0.53125 0.125 -0.90625 0.390625q-0.390625 0.265625 -0.59375 0.65625q-0.203125 0.390625 -0.203125 0.90625q0 0.40625 0.140625 0.75q0.15625 0.34375 0.453125 0.59375q0.28125 0.25 0.6875 0.40625q0.40625 0.140625 0.90625 0.140625q0.3125 0 0.578125 -0.078125q0.28125 -0.0625 0.53125 -0.171875q0.234375 -0.109375 0.4375 -0.25q0.203125 -0.15625 0.375 -0.3125q0.015625 0.1875 0.046875 0.375q0.046875 0.1875 0.109375 0.3125zm-1.921875 -0.828125q-0.3125 0 -0.5625 -0.078125q-0.234375 -0.078125 -0.390625 -0.234375q-0.15625 -0.140625 -0.234375 -0.328125q-0.078125 -0.203125 -0.078125 -0.4375q0 -0.25 0.09375 -0.4375q0.09375 -0.203125 0.265625 -0.34375q0.25 -0.203125 0.65625 -0.296875q0.421875 -0.09375 0.984375 -0.09375l1.015625 0l0 1.28125q-0.09375 0.1875 -0.265625 0.359375q-0.15625 0.171875 -0.390625 0.3125q-0.21875 0.140625 -0.5 0.21875q-0.265625 0.078125 -0.59375 0.078125zm5.123047 -8.171875l0 0.9375l2.15625 0l0 7.125l-2.15625 0l0 0.9375l5.3125 0l0 -0.9375l-2.0625 0l0 -8.0625l-3.25 0zm11.498047 6.84375q0 0.34375 -0.15625 0.609375q-0.140625 0.25 -0.390625 0.421875q-0.234375 0.15625 -0.546875 0.25q-0.3125 0.078125 -0.625 0.078125q-0.390625 0 -0.734375 -0.109375q-0.328125 -0.109375 -0.59375 -0.328125q-0.25 -0.21875 -0.421875 -0.515625q-0.15625 -0.3125 -0.21875 -0.71875l-1.109375 0q0.015625 0.5625 0.234375 1.015625q0.234375 0.4375 0.625 0.765625q0.4375 0.390625 1.015625 0.609375q0.59375 0.203125 1.203125 0.203125q0.515625 0 1.015625 -0.140625q0.515625 -0.15625 0.921875 -0.4375q0.40625 -0.28125 0.65625 -0.703125q0.25 -0.4375 0.25 -1.015625q0 -0.5625 -0.234375 -1.0q-0.234375 -0.4375 -0.625 -0.734375q-0.390625 -0.3125 -0.875 -0.515625q-0.46875 -0.21875 -0.9375 -0.359375q-0.28125 -0.09375 -0.609375 -0.203125q-0.328125 -0.125 -0.609375 -0.296875q-0.28125 -0.1875 -0.46875 -0.4375q-0.171875 -0.25 -0.171875 -0.625q0 -0.34375 0.125 -0.59375q0.140625 -0.265625 0.375 -0.4375q0.234375 -0.171875 0.53125 -0.25q0.296875 -0.09375 0.609375 -0.09375q0.390625 0 0.6875 0.125q0.3125 0.109375 0.53125 0.328125q0.21875 0.21875 0.359375 0.515625q0.140625 0.296875 0.1875 0.671875l1.109375 0q-0.015625 -0.578125 -0.265625 -1.046875q-0.234375 -0.484375 -0.625 -0.828125q-0.40625 -0.328125 -0.921875 -0.515625q-0.515625 -0.1875 -1.0625 -0.1875q-0.5 0 -1.0 0.15625q-0.5 0.15625 -0.890625 0.453125q-0.390625 0.3125 -0.640625 0.75q-0.25 0.421875 -0.25 0.96875q0 0.5625 0.25 0.96875q0.25 0.40625 0.625 0.703125q0.390625 0.296875 0.84375 0.5q0.46875 0.203125 0.921875 0.359375q0.3125 0.09375 0.640625 0.21875q0.34375 0.125 0.625 0.296875q0.28125 0.1875 0.453125 0.46875q0.1875 0.265625 0.1875 0.65625zm6.919922 2.15625l0.984375 0l0 -6.34375l-1.09375 0l0 4.546875q-0.09375 0.203125 -0.234375 0.375q-0.125 0.171875 -0.296875 0.296875q-0.203125 0.15625 -0.5 0.25q-0.28125 0.078125 -0.640625 0.078125q-0.3125 0 -0.5625 -0.078125q-0.234375 -0.09375 -0.390625 -0.296875q-0.171875 -0.1875 -0.25 -0.53125q-0.078125 -0.34375 -0.078125 -0.859375l0 -3.78125l-1.078125 0l0 3.765625q0 0.71875 0.140625 1.234375q0.15625 0.5 0.453125 0.828125q0.28125 0.328125 0.6875 0.484375q0.40625 0.15625 0.90625 0.15625q0.625 0 1.09375 -0.265625q0.46875 -0.265625 0.796875 -0.734375l0.0625 0.875zm8.388672 -3.09375l0 -0.125q0 -0.5 -0.078125 -0.953125q-0.078125 -0.453125 -0.234375 -0.8125q-0.15625 -0.328125 -0.359375 -0.59375q-0.203125 -0.265625 -0.453125 -0.453125q-0.28125 -0.203125 -0.625 -0.3125q-0.34375 -0.109375 -0.75 -0.109375q-0.328125 0 -0.609375 0.0625q-0.28125 0.0625 -0.515625 0.1875q-0.1875 0.09375 -0.359375 0.234375q-0.15625 0.140625 -0.296875 0.3125l0 -3.34375l-1.078125 0l0 9.0l0.984375 0l0.0625 -0.71875q0.109375 0.125 0.21875 0.25q0.125 0.109375 0.25 0.203125q0.265625 0.1875 0.59375 0.28125q0.34375 0.109375 0.75 0.109375q0.359375 0 0.671875 -0.09375q0.3125 -0.09375 0.5625 -0.25q0.359375 -0.234375 0.609375 -0.578125q0.265625 -0.34375 0.421875 -0.78125q0.109375 -0.34375 0.171875 -0.71875q0.0625 -0.390625 0.0625 -0.796875zm-1.078125 -0.125l0 0.125q0 0.28125 -0.046875 0.546875q-0.03125 0.265625 -0.109375 0.5q-0.09375 0.3125 -0.25 0.5625q-0.15625 0.25 -0.390625 0.421875q-0.171875 0.125 -0.40625 0.203125q-0.21875 0.0625 -0.484375 0.0625q-0.28125 0 -0.515625 -0.078125q-0.234375 -0.078125 -0.421875 -0.203125q-0.1875 -0.140625 -0.328125 -0.3125q-0.140625 -0.1875 -0.25 -0.390625l0 -2.78125q0.09375 -0.203125 0.234375 -0.375q0.15625 -0.1875 0.34375 -0.328125q0.171875 -0.125 0.40625 -0.1875q0.234375 -0.078125 0.515625 -0.078125q0.265625 0 0.46875 0.0625q0.21875 0.046875 0.390625 0.15625q0.25 0.140625 0.40625 0.40625q0.171875 0.25 0.28125 0.5625q0.078125 0.25 0.109375 0.546875q0.046875 0.28125 0.046875 0.578125zm3.6386719 -3.125l0 0.953125l2.125 0l0 5.4375q0 0.453125 -0.125 0.75q-0.109375 0.3125 -0.3125 0.5q-0.203125 0.1875 -0.46875 0.265625q-0.265625 0.078125 -0.578125 0.078125q-0.078125 0 -0.21875 0q-0.140625 0 -0.296875 -0.015625q-0.15625 0 -0.3125 -0.015625q-0.15625 -0.015625 -0.25 -0.03125l-0.078125 0.890625q0.15625 0.015625 0.28125 0.03125q0.140625 0.03125 0.265625 0.03125q0.171875 0.015625 0.34375 0.015625q0.171875 0.015625 0.34375 0.015625q0.59375 0 1.046875 -0.171875q0.46875 -0.15625 0.78125 -0.484375q0.328125 -0.3125 0.484375 -0.78125q0.171875 -0.46875 0.171875 -1.078125l0 -6.390625l-3.203125 0zm1.96875 -1.671875q0 0.265625 0.15625 0.453125q0.15625 0.171875 0.484375 0.171875q0.328125 0 0.484375 -0.171875q0.171875 -0.1875 0.171875 -0.453125q0 -0.265625 -0.171875 -0.4375q-0.15625 -0.1875 -0.484375 -0.1875q-0.328125 0 -0.484375 0.1875q-0.15625 0.171875 -0.15625 0.4375zm7.310547 8.140625q0.921875 0 1.546875 -0.375q0.625 -0.375 0.953125 -0.859375l-0.671875 -0.515625q-0.296875 0.390625 -0.75 0.625q-0.453125 0.234375 -1.03125 0.234375q-0.4375 0 -0.796875 -0.15625q-0.359375 -0.171875 -0.625 -0.46875q-0.25 -0.265625 -0.390625 -0.609375q-0.140625 -0.359375 -0.1875 -0.8125l0 -0.046875l4.53125 0l0 -0.484375q0 -0.671875 -0.171875 -1.234375q-0.15625 -0.5625 -0.5 -0.984375q-0.34375 -0.421875 -0.859375 -0.65625q-0.515625 -0.234375 -1.1875 -0.234375q-0.546875 0 -1.078125 0.21875q-0.515625 0.21875 -0.921875 0.640625q-0.40625 0.421875 -0.65625 1.03125q-0.234375 0.59375 -0.234375 1.375l0 0.234375q0 0.671875 0.21875 1.234375q0.21875 0.5625 0.625 0.96875q0.390625 0.40625 0.953125 0.640625q0.5625 0.234375 1.234375 0.234375zm-0.140625 -5.6875q0.40625 0 0.703125 0.15625q0.3125 0.140625 0.515625 0.390625q0.1875 0.25 0.296875 0.59375q0.125 0.328125 0.125 0.625l0 0.046875l-3.421875 0q0.0625 -0.4375 0.21875 -0.765625q0.171875 -0.34375 0.40625 -0.578125q0.234375 -0.234375 0.53125 -0.34375q0.296875 -0.125 0.625 -0.125zm7.232422 4.796875q-0.5 0 -0.84375 -0.203125q-0.34375 -0.203125 -0.546875 -0.53125q-0.21875 -0.3125 -0.3125 -0.71875q-0.09375 -0.40625 -0.09375 -0.828125l0 -0.25q0 -0.40625 0.09375 -0.8125q0.09375 -0.40625 0.3125 -0.734375q0.203125 -0.3125 0.546875 -0.515625q0.34375 -0.203125 0.84375 -0.203125q0.328125 0 0.609375 0.109375q0.296875 0.109375 0.5 0.296875q0.203125 0.203125 0.3125 0.453125q0.125 0.25 0.140625 0.546875l1.015625 0q0 -0.484375 -0.203125 -0.90625q-0.1875 -0.421875 -0.515625 -0.734375q-0.34375 -0.296875 -0.828125 -0.46875q-0.46875 -0.1875 -1.03125 -0.1875q-0.71875 0 -1.265625 0.265625q-0.53125 0.25 -0.890625 0.671875q-0.359375 0.453125 -0.546875 1.03125q-0.171875 0.5625 -0.171875 1.1875l0 0.25q0 0.625 0.171875 1.203125q0.1875 0.578125 0.546875 1.0q0.359375 0.4375 0.890625 0.703125q0.546875 0.265625 1.265625 0.265625q0.5 0 0.96875 -0.171875q0.46875 -0.1875 0.828125 -0.46875q0.34375 -0.296875 0.5625 -0.671875q0.21875 -0.390625 0.21875 -0.8125l-1.015625 0q-0.015625 0.265625 -0.15625 0.5q-0.125 0.21875 -0.34375 0.375q-0.203125 0.171875 -0.484375 0.265625q-0.28125 0.09375 -0.578125 0.09375zm7.076172 -7.109375l-1.09375 0l0 1.53125l-1.671875 0l0 0.84375l1.671875 0l0 3.4375q0 0.59375 0.15625 1.015625q0.15625 0.40625 0.421875 0.65625q0.265625 0.265625 0.625 0.390625q0.375 0.125 0.796875 0.125q0.25 0 0.5 -0.03125q0.265625 -0.015625 0.484375 -0.0625q0.234375 -0.046875 0.421875 -0.109375q0.203125 -0.0625 0.328125 -0.140625l-0.140625 -0.765625q-0.109375 0.015625 -0.265625 0.046875q-0.15625 0.03125 -0.328125 0.0625q-0.171875 0.03125 -0.359375 0.0625q-0.1875 0.015625 -0.375 0.015625q-0.234375 0 -0.453125 -0.0625q-0.203125 -0.0625 -0.375 -0.203125q-0.15625 -0.140625 -0.25 -0.375q-0.09375 -0.25 -0.09375 -0.625l0 -3.4375l2.40625 0l0 -0.84375l-2.40625 0l0 -1.53125zm6.810547 7.171875q0 0.34375 0.203125 0.578125q0.21875 0.234375 0.640625 0.234375q0.421875 0 0.640625 -0.234375q0.234375 -0.234375 0.234375 -0.578125q0 -0.359375 -0.234375 -0.59375q-0.21875 -0.25 -0.640625 -0.25q-0.421875 0 -0.640625 0.25q-0.203125 0.25 -0.203125 0.59375zm0 -5.140625q0 0.34375 0.203125 0.578125q0.21875 0.234375 0.640625 0.234375q0.421875 0 0.640625 -0.234375q0.234375 -0.234375 0.234375 -0.578125q0 -0.359375 -0.234375 -0.59375q-0.21875 -0.25 -0.640625 -0.25q-0.421875 0 -0.640625 0.25q-0.203125 0.25 -0.203125 0.59375zm15.042969 2.359375l1.671875 3.484375l1.140625 0l0.015625 -0.078125l-1.8125 -3.640625q0.34375 -0.15625 0.640625 -0.359375q0.296875 -0.21875 0.5 -0.5q0.21875 -0.28125 0.328125 -0.625q0.125 -0.359375 0.125 -0.765625q0 -0.640625 -0.234375 -1.125q-0.21875 -0.484375 -0.609375 -0.796875q-0.390625 -0.3125 -0.921875 -0.46875q-0.53125 -0.15625 -1.125 -0.171875l-2.5 0l0 8.53125l1.078125 0l0 -3.484375l1.703125 0zm-1.703125 -0.890625l0 -3.265625l1.421875 0q0.390625 0 0.71875 0.109375q0.34375 0.109375 0.578125 0.3125q0.234375 0.203125 0.375 0.515625q0.140625 0.3125 0.140625 0.71875q0 0.390625 -0.140625 0.6875q-0.140625 0.296875 -0.390625 0.5q-0.25 0.203125 -0.578125 0.3125q-0.3125 0.109375 -0.671875 0.109375l-1.453125 0zm8.888672 4.5q0.921875 0 1.546875 -0.375q0.625 -0.375 0.953125 -0.859375l-0.671875 -0.515625q-0.296875 0.390625 -0.75 0.625q-0.453125 0.234375 -1.03125 0.234375q-0.4375 0 -0.796875 -0.15625q-0.359375 -0.171875 -0.625 -0.46875q-0.25 -0.265625 -0.390625 -0.609375q-0.140625 -0.359375 -0.1875 -0.8125l0 -0.046875l4.53125 0l0 -0.484375q0 -0.671875 -0.171875 -1.234375q-0.15625 -0.5625 -0.5 -0.984375q-0.34375 -0.421875 -0.859375 -0.65625q-0.515625 -0.234375 -1.1875 -0.234375q-0.546875 0 -1.078125 0.21875q-0.515625 0.21875 -0.921875 0.640625q-0.40625 0.421875 -0.65625 1.03125q-0.234375 0.59375 -0.234375 1.375l0 0.234375q0 0.671875 0.21875 1.234375q0.21875 0.5625 0.625 0.96875q0.390625 0.40625 0.953125 0.640625q0.5625 0.234375 1.234375 0.234375zm-0.140625 -5.6875q0.40625 0 0.703125 0.15625q0.3125 0.140625 0.515625 0.390625q0.1875 0.25 0.296875 0.59375q0.125 0.328125 0.125 0.625l0 0.046875l-3.421875 0q0.0625 -0.4375 0.21875 -0.765625q0.171875 -0.34375 0.40625 -0.578125q0.234375 -0.234375 0.53125 -0.34375q0.296875 -0.125 0.625 -0.125zm8.701172 5.5625l1.125 0l0 -0.09375q-0.09375 -0.265625 -0.15625 -0.609375q-0.0625 -0.359375 -0.0625 -0.6875l0 -2.9375q0 -0.53125 -0.203125 -0.921875q-0.1875 -0.40625 -0.515625 -0.6875q-0.34375 -0.25 -0.8125 -0.375q-0.453125 -0.140625 -1.0 -0.140625q-0.578125 0 -1.046875 0.171875q-0.46875 0.15625 -0.796875 0.421875q-0.328125 0.265625 -0.5 0.609375q-0.171875 0.328125 -0.171875 0.671875l1.09375 0q0 -0.203125 0.09375 -0.390625q0.09375 -0.1875 0.265625 -0.3125q0.171875 -0.140625 0.421875 -0.21875q0.265625 -0.078125 0.59375 -0.078125q0.34375 0 0.609375 0.09375q0.28125 0.078125 0.484375 0.234375q0.1875 0.15625 0.296875 0.390625q0.109375 0.234375 0.109375 0.515625l0 0.5l-1.1875 0q-0.65625 0 -1.203125 0.125q-0.53125 0.125 -0.90625 0.390625q-0.390625 0.265625 -0.59375 0.65625q-0.203125 0.390625 -0.203125 0.90625q0 0.40625 0.140625 0.75q0.15625 0.34375 0.453125 0.59375q0.28125 0.25 0.6875 0.40625q0.40625 0.140625 0.90625 0.140625q0.3125 0 0.578125 -0.078125q0.28125 -0.0625 0.53125 -0.171875q0.234375 -0.109375 0.4375 -0.25q0.203125 -0.15625 0.375 -0.3125q0.015625 0.1875 0.046875 0.375q0.046875 0.1875 0.109375 0.3125zm-1.921875 -0.828125q-0.3125 0 -0.5625 -0.078125q-0.234375 -0.078125 -0.390625 -0.234375q-0.15625 -0.140625 -0.234375 -0.328125q-0.078125 -0.203125 -0.078125 -0.4375q0 -0.25 0.09375 -0.4375q0.09375 -0.203125 0.265625 -0.34375q0.25 -0.203125 0.65625 -0.296875q0.421875 -0.09375 0.984375 -0.09375l1.015625 0l0 1.28125q-0.09375 0.1875 -0.265625 0.359375q-0.15625 0.171875 -0.390625 0.3125q-0.21875 0.140625 -0.5 0.21875q-0.265625 0.078125 -0.59375 0.078125zm5.123047 -8.171875l0 0.9375l2.15625 0l0 7.125l-2.15625 0l0 0.9375l5.3125 0l0 -0.9375l-2.0625 0l0 -8.0625l-3.25 0zm11.498047 6.84375q0 0.34375 -0.15625 0.609375q-0.140625 0.25 -0.390625 0.421875q-0.234375 0.15625 -0.546875 0.25q-0.3125 0.078125 -0.625 0.078125q-0.390625 0 -0.734375 -0.109375q-0.328125 -0.109375 -0.59375 -0.328125q-0.25 -0.21875 -0.421875 -0.515625q-0.15625 -0.3125 -0.21875 -0.71875l-1.109375 0q0.015625 0.5625 0.234375 1.015625q0.234375 0.4375 0.625 0.765625q0.4375 0.390625 1.015625 0.609375q0.59375 0.203125 1.203125 0.203125q0.515625 0 1.015625 -0.140625q0.515625 -0.15625 0.921875 -0.4375q0.40625 -0.28125 0.65625 -0.703125q0.25 -0.4375 0.25 -1.015625q0 -0.5625 -0.234375 -1.0q-0.234375 -0.4375 -0.625 -0.734375q-0.390625 -0.3125 -0.875 -0.515625q-0.46875 -0.21875 -0.9375 -0.359375q-0.28125 -0.09375 -0.609375 -0.203125q-0.328125 -0.125 -0.609375 -0.296875q-0.28125 -0.1875 -0.46875 -0.4375q-0.171875 -0.25 -0.171875 -0.625q0 -0.34375 0.125 -0.59375q0.140625 -0.265625 0.375 -0.4375q0.234375 -0.171875 0.53125 -0.25q0.296875 -0.09375 0.609375 -0.09375q0.390625 0 0.6875 0.125q0.3125 0.109375 0.53125 0.328125q0.21875 0.21875 0.359375 0.515625q0.140625 0.296875 0.1875 0.671875l1.109375 0q-0.015625 -0.578125 -0.265625 -1.046875q-0.234375 -0.484375 -0.625 -0.828125q-0.40625 -0.328125 -0.921875 -0.515625q-0.515625 -0.1875 -1.0625 -0.1875q-0.5 0 -1.0 0.15625q-0.5 0.15625 -0.890625 0.453125q-0.390625 0.3125 -0.640625 0.75q-0.25 0.421875 -0.25 0.96875q0 0.5625 0.25 0.96875q0.25 0.40625 0.625 0.703125q0.390625 0.296875 0.84375 0.5q0.46875 0.203125 0.921875 0.359375q0.3125 0.09375 0.640625 0.21875q0.34375 0.125 0.625 0.296875q0.28125 0.1875 0.453125 0.46875q0.1875 0.265625 0.1875 0.65625zm6.919922 2.15625l0.984375 0l0 -6.34375l-1.09375 0l0 4.546875q-0.09375 0.203125 -0.234375 0.375q-0.125 0.171875 -0.296875 0.296875q-0.203125 0.15625 -0.5 0.25q-0.28125 0.078125 -0.640625 0.078125q-0.3125 0 -0.5625 -0.078125q-0.234375 -0.09375 -0.390625 -0.296875q-0.171875 -0.1875 -0.25 -0.53125q-0.078125 -0.34375 -0.078125 -0.859375l0 -3.78125l-1.078125 0l0 3.765625q0 0.71875 0.140625 1.234375q0.15625 0.5 0.453125 0.828125q0.28125 0.328125 0.6875 0.484375q0.40625 0.15625 0.90625 0.15625q0.625 0 1.09375 -0.265625q0.46875 -0.265625 0.796875 -0.734375l0.0625 0.875zm8.388672 -3.09375l0 -0.125q0 -0.5 -0.078125 -0.953125q-0.078125 -0.453125 -0.234375 -0.8125q-0.15625 -0.328125 -0.359375 -0.59375q-0.203125 -0.265625 -0.453125 -0.453125q-0.28125 -0.203125 -0.625 -0.3125q-0.34375 -0.109375 -0.75 -0.109375q-0.328125 0 -0.609375 0.0625q-0.28125 0.0625 -0.515625 0.1875q-0.1875 0.09375 -0.359375 0.234375q-0.15625 0.140625 -0.296875 0.3125l0 -3.34375l-1.078125 0l0 9.0l0.984375 0l0.0625 -0.71875q0.109375 0.125 0.21875 0.25q0.125 0.109375 0.25 0.203125q0.265625 0.1875 0.59375 0.28125q0.34375 0.109375 0.75 0.109375q0.359375 0 0.671875 -0.09375q0.3125 -0.09375 0.5625 -0.25q0.359375 -0.234375 0.609375 -0.578125q0.265625 -0.34375 0.421875 -0.78125q0.109375 -0.34375 0.171875 -0.71875q0.0625 -0.390625 0.0625 -0.796875zm-1.078125 -0.125l0 0.125q0 0.28125 -0.046875 0.546875q-0.03125 0.265625 -0.109375 0.5q-0.09375 0.3125 -0.25 0.5625q-0.15625 0.25 -0.390625 0.421875q-0.171875 0.125 -0.40625 0.203125q-0.21875 0.0625 -0.484375 0.0625q-0.28125 0 -0.515625 -0.078125q-0.234375 -0.078125 -0.421875 -0.203125q-0.1875 -0.140625 -0.328125 -0.3125q-0.140625 -0.1875 -0.25 -0.390625l0 -2.78125q0.09375 -0.203125 0.234375 -0.375q0.15625 -0.1875 0.34375 -0.328125q0.171875 -0.125 0.40625 -0.1875q0.234375 -0.078125 0.515625 -0.078125q0.265625 0 0.46875 0.0625q0.21875 0.046875 0.390625 0.15625q0.25 0.140625 0.40625 0.40625q0.171875 0.25 0.28125 0.5625q0.078125 0.25 0.109375 0.546875q0.046875 0.28125 0.046875 0.578125zm3.6386719 -3.125l0 0.953125l2.125 0l0 5.4375q0 0.453125 -0.125 0.75q-0.109375 0.3125 -0.3125 0.5q-0.203125 0.1875 -0.46875 0.265625q-0.265625 0.078125 -0.578125 0.078125q-0.078125 0 -0.21875 0q-0.140625 0 -0.296875 -0.015625q-0.15625 0 -0.3125 -0.015625q-0.15625 -0.015625 -0.25 -0.03125l-0.078125 0.890625q0.15625 0.015625 0.28125 0.03125q0.140625 0.03125 0.265625 0.03125q0.171875 0.015625 0.34375 0.015625q0.171875 0.015625 0.34375 0.015625q0.59375 0 1.046875 -0.171875q0.46875 -0.15625 0.78125 -0.484375q0.328125 -0.3125 0.484375 -0.78125q0.171875 -0.46875 0.171875 -1.078125l0 -6.390625l-3.203125 0zm1.96875 -1.671875q0 0.265625 0.15625 0.453125q0.15625 0.171875 0.484375 0.171875q0.328125 0 0.484375 -0.171875q0.171875 -0.1875 0.171875 -0.453125q0 -0.265625 -0.171875 -0.4375q-0.15625 -0.1875 -0.484375 -0.1875q-0.328125 0 -0.484375 0.1875q-0.15625 0.171875 -0.15625 0.4375zm7.310547 8.140625q0.921875 0 1.546875 -0.375q0.625 -0.375 0.953125 -0.859375l-0.671875 -0.515625q-0.296875 0.390625 -0.75 0.625q-0.453125 0.234375 -1.03125 0.234375q-0.4375 0 -0.796875 -0.15625q-0.359375 -0.171875 -0.625 -0.46875q-0.25 -0.265625 -0.390625 -0.609375q-0.140625 -0.359375 -0.1875 -0.8125l0 -0.046875l4.53125 0l0 -0.484375q0 -0.671875 -0.171875 -1.234375q-0.15625 -0.5625 -0.5 -0.984375q-0.34375 -0.421875 -0.859375 -0.65625q-0.515625 -0.234375 -1.1875 -0.234375q-0.546875 0 -1.078125 0.21875q-0.515625 0.21875 -0.921875 0.640625q-0.40625 0.421875 -0.65625 1.03125q-0.234375 0.59375 -0.234375 1.375l0 0.234375q0 0.671875 0.21875 1.234375q0.21875 0.5625 0.625 0.96875q0.390625 0.40625 0.953125 0.640625q0.5625 0.234375 1.234375 0.234375zm-0.140625 -5.6875q0.40625 0 0.703125 0.15625q0.3125 0.140625 0.515625 0.390625q0.1875 0.25 0.296875 0.59375q0.125 0.328125 0.125 0.625l0 0.046875l-3.421875 0q0.0625 -0.4375 0.21875 -0.765625q0.171875 -0.34375 0.40625 -0.578125q0.234375 -0.234375 0.53125 -0.34375q0.296875 -0.125 0.625 -0.125zm7.232422 4.796875q-0.5 0 -0.84375 -0.203125q-0.34375 -0.203125 -0.546875 -0.53125q-0.21875 -0.3125 -0.3125 -0.71875q-0.09375 -0.40625 -0.09375 -0.828125l0 -0.25q0 -0.40625 0.09375 -0.8125q0.09375 -0.40625 0.3125 -0.734375q0.203125 -0.3125 0.546875 -0.515625q0.34375 -0.203125 0.84375 -0.203125q0.328125 0 0.609375 0.109375q0.296875 0.109375 0.5 0.296875q0.203125 0.203125 0.3125 0.453125q0.125 0.25 0.140625 0.546875l1.015625 0q0 -0.484375 -0.203125 -0.90625q-0.1875 -0.421875 -0.515625 -0.734375q-0.34375 -0.296875 -0.828125 -0.46875q-0.46875 -0.1875 -1.03125 -0.1875q-0.71875 0 -1.265625 0.265625q-0.53125 0.25 -0.890625 0.671875q-0.359375 0.453125 -0.546875 1.03125q-0.171875 0.5625 -0.171875 1.1875l0 0.25q0 0.625 0.171875 1.203125q0.1875 0.578125 0.546875 1.0q0.359375 0.4375 0.890625 0.703125q0.546875 0.265625 1.265625 0.265625q0.5 0 0.96875 -0.171875q0.46875 -0.1875 0.828125 -0.46875q0.34375 -0.296875 0.5625 -0.671875q0.21875 -0.390625 0.21875 -0.8125l-1.015625 0q-0.015625 0.265625 -0.15625 0.5q-0.125 0.21875 -0.34375 0.375q-0.203125 0.171875 -0.484375 0.265625q-0.28125 0.09375 -0.578125 0.09375zm7.076172 -7.109375l-1.09375 0l0 1.53125l-1.671875 0l0 0.84375l1.671875 0l0 3.4375q0 0.59375 0.15625 1.015625q0.15625 0.40625 0.421875 0.65625q0.265625 0.265625 0.625 0.390625q0.375 0.125 0.796875 0.125q0.25 0 0.5 -0.03125q0.265625 -0.015625 0.484375 -0.0625q0.234375 -0.046875 0.421875 -0.109375q0.203125 -0.0625 0.328125 -0.140625l-0.140625 -0.765625q-0.109375 0.015625 -0.265625 0.046875q-0.15625 0.03125 -0.328125 0.0625q-0.171875 0.03125 -0.359375 0.0625q-0.1875 0.015625 -0.375 0.015625q-0.234375 0 -0.453125 -0.0625q-0.203125 -0.0625 -0.375 -0.203125q-0.15625 -0.140625 -0.25 -0.375q-0.09375 -0.25 -0.09375 -0.625l0 -3.4375l2.40625 0l0 -0.84375l-2.40625 0l0 -1.53125z" fill-rule="nonzero"/><path fill="#000000" fill-opacity="0.0" d="m152.79527 55.32546l188.22047 0l0 29.82677l-188.22047 0z" fill-rule="evenodd"/><path stroke="#000000" stroke-width="2.0" stroke-linejoin="round" stroke-linecap="butt" d="m152.79527 55.32546l188.22047 0l0 29.82677l-188.22047 0z" fill-rule="evenodd"/><path fill="#000000" d="m163.6234 77.158844l0 -2.25l2.25 0l0 2.25l-2.25 0zm5.902954 0l0 -2.25l2.25 0l0 2.25l-2.25 0zm5.902954 0l0 -2.25l2.25 0l0 2.25l-2.25 0z" fill-rule="nonzero"/><path fill="#000000" fill-opacity="0.0" d="m10.3412075 222.08661l188.22047 0l0 29.826782l-188.22047 0z" fill-rule="evenodd"/><path stroke="#000000" stroke-width="2.0" stroke-linejoin="round" stroke-linecap="butt" d="m10.3412075 222.08661l188.22047 0l0 29.826782l-188.22047 0z" fill-rule="evenodd"/><path fill="#000000" d="m21.169333 243.92l0 -2.25l2.25 0l0 2.25l-2.25 0zm5.902954 0l0 -2.25l2.25 0l0 2.25l-2.25 0zm5.902952 0l0 -2.25l2.25 0l0 2.25l-2.25 0z" fill-rule="nonzero"/><path fill="#000000" fill-opacity="0.0" d="m267.83466 254.26247l217.92126 0l0 30.992142l-217.92126 0z" fill-rule="evenodd"/><path stroke="#000000" stroke-width="2.0" stroke-linejoin="round" stroke-linecap="butt" d="m267.83466 254.26247l217.92126 0l0 30.992142l-217.92126 0z" fill-rule="evenodd"/><path fill="#000000" d="m280.9909 269.7004l0 -2.484375l-1.078125 0l0 2.484375l-2.375 0l0 1.078125l2.375 0l0 2.640625l1.078125 0l0 -2.640625l2.390625 0l0 -1.078125l-2.390625 0zm15.417969 -1.875q-0.6875 0 -1.234375 0.296875q-0.53125 0.296875 -0.921875 0.828125l-0.015625 -0.15625l-0.046875 -0.859375l-1.03125 0l0 6.34375l1.09375 0l0 -4.0625q0.109375 -0.296875 0.265625 -0.53125q0.171875 -0.234375 0.375 -0.40625q0.25 -0.1875 0.5625 -0.28125q0.328125 -0.09375 0.734375 -0.09375q0.296875 0 0.578125 0.03125q0.296875 0.03125 0.609375 0.09375l0.140625 -1.0625q-0.15625 -0.0625 -0.484375 -0.09375q-0.328125 -0.046875 -0.625 -0.046875zm5.857422 6.578125q0.921875 0 1.546875 -0.375q0.625 -0.375 0.953125 -0.859375l-0.671875 -0.515625q-0.296875 0.390625 -0.75 0.625q-0.453125 0.234375 -1.03125 0.234375q-0.4375 0 -0.796875 -0.15625q-0.359375 -0.171875 -0.625 -0.46875q-0.25 -0.265625 -0.390625 -0.609375q-0.140625 -0.359375 -0.1875 -0.8125l0 -0.046875l4.53125 0l0 -0.484375q0 -0.671875 -0.171875 -1.234375q-0.15625 -0.5625 -0.5 -0.984375q-0.34375 -0.421875 -0.859375 -0.65625q-0.515625 -0.234375 -1.1875 -0.234375q-0.546875 0 -1.078125 0.21875q-0.515625 0.21875 -0.921875 0.640625q-0.40625 0.421875 -0.65625 1.03125q-0.234375 0.59375 -0.234375 1.375l0 0.234375q0 0.671875 0.21875 1.234375q0.21875 0.5625 0.625 0.96875q0.390625 0.40625 0.953125 0.640625q0.5625 0.234375 1.234375 0.234375zm-0.140625 -5.6875q0.40625 0 0.703125 0.15625q0.3125 0.140625 0.515625 0.390625q0.1875 0.25 0.296875 0.59375q0.125 0.328125 0.125 0.625l0 0.046875l-3.421875 0q0.0625 -0.4375 0.21875 -0.765625q0.171875 -0.34375 0.40625 -0.578125q0.234375 -0.234375 0.53125 -0.34375q0.296875 -0.125 0.625 -0.125zm4.341797 2.34375l0 0.125q0 0.671875 0.171875 1.265625q0.171875 0.578125 0.5 1.015625q0.328125 0.4375 0.796875 0.6875q0.46875 0.25 1.078125 0.25q0.3125 0 0.578125 -0.0625q0.265625 -0.0625 0.5 -0.171875q0.171875 -0.078125 0.328125 -0.1875q0.15625 -0.125 0.296875 -0.28125l0 3.015625l1.09375 0l0 -8.78125l-1.0 0l-0.046875 0.625q-0.125 -0.140625 -0.265625 -0.25q-0.140625 -0.125 -0.296875 -0.203125q-0.25 -0.140625 -0.546875 -0.203125q-0.296875 -0.078125 -0.640625 -0.078125q-0.609375 0 -1.09375 0.234375q-0.46875 0.234375 -0.796875 0.671875q-0.328125 0.421875 -0.5 1.015625q-0.15625 0.59375 -0.15625 1.3125zm1.078125 0.125l0 -0.125q0 -0.46875 0.09375 -0.890625q0.109375 -0.421875 0.328125 -0.75q0.203125 -0.328125 0.53125 -0.515625q0.328125 -0.1875 0.78125 -0.1875q0.25 0 0.46875 0.0625q0.21875 0.0625 0.390625 0.171875q0.1875 0.109375 0.328125 0.265625q0.140625 0.140625 0.25 0.328125l0 3.125q-0.109375 0.1875 -0.265625 0.359375q-0.140625 0.15625 -0.328125 0.265625q-0.171875 0.09375 -0.390625 0.15625q-0.203125 0.0625 -0.453125 0.0625q-0.453125 0 -0.78125 -0.1875q-0.328125 -0.203125 -0.53125 -0.515625q-0.21875 -0.328125 -0.328125 -0.75q-0.09375 -0.421875 -0.09375 -0.875zm10.498047 3.09375l0.984375 0l0 -6.34375l-1.09375 0l0 4.546875q-0.09375 0.203125 -0.234375 0.375q-0.125 0.171875 -0.296875 0.296875q-0.203125 0.15625 -0.5 0.25q-0.28125 0.078125 -0.640625 0.078125q-0.3125 0 -0.5625 -0.078125q-0.234375 -0.09375 -0.390625 -0.296875q-0.171875 -0.1875 -0.25 -0.53125q-0.078125 -0.34375 -0.078125 -0.859375l0 -3.78125l-1.078125 0l0 3.765625q0 0.71875 0.140625 1.234375q0.15625 0.5 0.453125 0.828125q0.28125 0.328125 0.6875 0.484375q0.40625 0.15625 0.90625 0.15625q0.625 0 1.09375 -0.265625q0.46875 -0.265625 0.796875 -0.734375l0.0625 0.875zm5.826172 0.125q0.921875 0 1.546875 -0.375q0.625 -0.375 0.953125 -0.859375l-0.671875 -0.515625q-0.296875 0.390625 -0.75 0.625q-0.453125 0.234375 -1.03125 0.234375q-0.4375 0 -0.796875 -0.15625q-0.359375 -0.171875 -0.625 -0.46875q-0.25 -0.265625 -0.390625 -0.609375q-0.140625 -0.359375 -0.1875 -0.8125l0 -0.046875l4.53125 0l0 -0.484375q0 -0.671875 -0.171875 -1.234375q-0.15625 -0.5625 -0.5 -0.984375q-0.34375 -0.421875 -0.859375 -0.65625q-0.515625 -0.234375 -1.1875 -0.234375q-0.546875 0 -1.078125 0.21875q-0.515625 0.21875 -0.921875 0.640625q-0.40625 0.421875 -0.65625 1.03125q-0.234375 0.59375 -0.234375 1.375l0 0.234375q0 0.671875 0.21875 1.234375q0.21875 0.5625 0.625 0.96875q0.390625 0.40625 0.953125 0.640625q0.5625 0.234375 1.234375 0.234375zm-0.140625 -5.6875q0.40625 0 0.703125 0.15625q0.3125 0.140625 0.515625 0.390625q0.1875 0.25 0.296875 0.59375q0.125 0.328125 0.125 0.625l0 0.046875l-3.421875 0q0.0625 -0.4375 0.21875 -0.765625q0.171875 -0.34375 0.40625 -0.578125q0.234375 -0.234375 0.53125 -0.34375q0.296875 -0.125 0.625 -0.125zm8.748047 3.875q0 0.15625 -0.0625 0.296875q-0.0625 0.125 -0.171875 0.234375q-0.171875 0.1875 -0.5 0.296875q-0.328125 0.09375 -0.75 0.09375q-0.28125 0 -0.5625 -0.046875q-0.28125 -0.0625 -0.515625 -0.203125q-0.234375 -0.140625 -0.390625 -0.375q-0.140625 -0.234375 -0.171875 -0.5625l-1.078125 0q0 0.40625 0.171875 0.78125q0.1875 0.375 0.546875 0.65625q0.34375 0.28125 0.84375 0.46875q0.5 0.171875 1.15625 0.171875q0.5625 0 1.03125 -0.140625q0.46875 -0.140625 0.8125 -0.390625q0.34375 -0.234375 0.53125 -0.578125q0.1875 -0.359375 0.1875 -0.78125q0 -0.390625 -0.171875 -0.6875q-0.15625 -0.296875 -0.46875 -0.53125q-0.328125 -0.21875 -0.796875 -0.375q-0.453125 -0.15625 -1.03125 -0.28125q-0.453125 -0.09375 -0.75 -0.1875q-0.28125 -0.09375 -0.453125 -0.203125q-0.171875 -0.125 -0.25 -0.265625q-0.0625 -0.15625 -0.0625 -0.34375q0 -0.171875 0.078125 -0.34375q0.09375 -0.171875 0.265625 -0.296875q0.171875 -0.140625 0.4375 -0.203125q0.265625 -0.078125 0.609375 -0.078125q0.328125 0 0.59375 0.09375q0.265625 0.09375 0.453125 0.234375q0.1875 0.15625 0.296875 0.359375q0.109375 0.1875 0.109375 0.390625l1.078125 0q0 -0.40625 -0.1875 -0.765625q-0.171875 -0.359375 -0.5 -0.640625q-0.328125 -0.265625 -0.796875 -0.40625q-0.46875 -0.15625 -1.046875 -0.15625q-0.546875 0 -1.0 0.140625q-0.453125 0.140625 -0.78125 0.40625q-0.328125 0.25 -0.515625 0.59375q-0.171875 0.328125 -0.171875 0.71875q0 0.390625 0.171875 0.6875q0.171875 0.296875 0.5 0.5q0.3125 0.234375 0.75 0.390625q0.453125 0.15625 1.0 0.265625q0.453125 0.09375 0.75 0.203125q0.296875 0.109375 0.484375 0.234375q0.171875 0.125 0.25 0.28125q0.078125 0.15625 0.078125 0.34375zm5.560547 -6.1875l-1.09375 0l0 1.53125l-1.671875 0l0 0.84375l1.671875 0l0 3.4375q0 0.59375 0.15625 1.015625q0.15625 0.40625 0.421875 0.65625q0.265625 0.265625 0.625 0.390625q0.375 0.125 0.796875 0.125q0.25 0 0.5 -0.03125q0.265625 -0.015625 0.484375 -0.0625q0.234375 -0.046875 0.421875 -0.109375q0.203125 -0.0625 0.328125 -0.140625l-0.140625 -0.765625q-0.109375 0.015625 -0.265625 0.046875q-0.15625 0.03125 -0.328125 0.0625q-0.171875 0.03125 -0.359375 0.0625q-0.1875 0.015625 -0.375 0.015625q-0.234375 0 -0.453125 -0.0625q-0.203125 -0.0625 -0.375 -0.203125q-0.15625 -0.140625 -0.25 -0.375q-0.09375 -0.25 -0.09375 -0.625l0 -3.4375l2.40625 0l0 -0.84375l-2.40625 0l0 -1.53125zm5.701172 4.40625l0 0.0625q0 0.84375 0.125 1.578125q0.140625 0.734375 0.359375 1.359375q0.21875 0.640625 0.5 1.15625q0.296875 0.515625 0.625 0.921875q0.3125 0.40625 0.640625 0.6875q0.328125 0.296875 0.609375 0.453125l0.234375 -0.65625q-0.234375 -0.1875 -0.484375 -0.46875q-0.234375 -0.265625 -0.453125 -0.625q-0.21875 -0.359375 -0.421875 -0.828125q-0.1875 -0.46875 -0.34375 -1.015625q-0.140625 -0.546875 -0.234375 -1.171875q-0.078125 -0.640625 -0.078125 -1.375l0 -0.078125q0 -0.765625 0.09375 -1.421875q0.09375 -0.671875 0.25 -1.21875q0.15625 -0.609375 0.40625 -1.125q0.25 -0.515625 0.515625 -0.890625q0.1875 -0.25 0.375 -0.4375q0.1875 -0.203125 0.375 -0.34375l-0.234375 -0.71875q-0.28125 0.15625 -0.609375 0.453125q-0.328125 0.28125 -0.640625 0.6875q-0.328125 0.40625 -0.625 0.9375q-0.28125 0.515625 -0.5 1.140625q-0.21875 0.625 -0.359375 1.375q-0.125 0.734375 -0.125 1.5625zm10.076172 0.0625l0 -0.0625q0 -0.890625 -0.140625 -1.609375q-0.125 -0.71875 -0.34375 -1.328125q-0.21875 -0.640625 -0.5 -1.140625q-0.28125 -0.515625 -0.609375 -0.9375q-0.328125 -0.40625 -0.65625 -0.6875q-0.328125 -0.296875 -0.609375 -0.453125l-0.234375 0.65625q0.1875 0.15625 0.390625 0.390625q0.21875 0.21875 0.40625 0.515625q0.25 0.390625 0.484375 0.90625q0.25 0.5 0.421875 1.15625q0.109375 0.4375 0.203125 1.09375q0.109375 0.640625 0.109375 1.4375l0 0.078125q0 0.6875 -0.078125 1.3125q-0.078125 0.609375 -0.203125 1.140625q-0.140625 0.5625 -0.34375 1.03125q-0.1875 0.484375 -0.40625 0.875q-0.234375 0.375 -0.484375 0.65625q-0.25 0.28125 -0.5 0.46875l0.234375 0.65625q0.28125 -0.15625 0.609375 -0.453125q0.328125 -0.28125 0.65625 -0.6875q0.3125 -0.40625 0.59375 -0.921875q0.296875 -0.515625 0.515625 -1.15625q0.234375 -0.625 0.359375 -1.359375q0.125 -0.734375 0.125 -1.578125z" fill-rule="nonzero"/><path fill="#000000" fill-opacity="0.0" d="m267.83466 205.9895l-69.25986 0.37794495" fill-rule="evenodd"/><path stroke="#000000" stroke-width="2.0" stroke-linejoin="round" stroke-linecap="butt" d="m267.83466 205.9895l-57.26004 0.31248474" fill-rule="evenodd"/><path fill="#000000" stroke="#000000" stroke-width="2.0" stroke-linecap="butt" d="m210.5566 202.99855l-9.058029 3.352951l9.094086 3.253891z" fill-rule="evenodd"/><path fill="#000000" fill-opacity="0.0" d="m10.354331 251.91602l188.22047 0l0 30.992126l-188.22047 0z" fill-rule="evenodd"/><path stroke="#000000" stroke-width="2.0" stroke-linejoin="round" stroke-linecap="butt" d="m10.354331 251.91602l188.22047 0l0 30.992126l-188.22047 0z" fill-rule="evenodd"/><path fill="#000000" d="m23.51058 267.35394l0 -2.484375l-1.078125 0l0 2.484375l-2.375 0l0 1.078125l2.375 0l0 2.640625l1.078125 0l0 -2.640625l2.390625 0l0 -1.078125l-2.390625 0zm15.417971 -1.875q-0.6875 0 -1.234375 0.296875q-0.53125 0.296875 -0.921875 0.828125l-0.015625 -0.15625l-0.046875 -0.859375l-1.03125 0l0 6.34375l1.09375 0l0 -4.0625q0.109375 -0.296875 0.265625 -0.53125q0.171875 -0.234375 0.375 -0.40625q0.25 -0.1875 0.5625 -0.28125q0.328125 -0.09375 0.734375 -0.09375q0.296875 0 0.578125 0.03125q0.296875 0.03125 0.609375 0.09375l0.140625 -1.0625q-0.15625 -0.0625 -0.484375 -0.09375q-0.328125 -0.046875 -0.625 -0.046875zm5.857422 6.578125q0.921875 0 1.546875 -0.375q0.625 -0.375 0.953125 -0.859375l-0.671875 -0.515625q-0.296875 0.390625 -0.75 0.625q-0.453125 0.234375 -1.03125 0.234375q-0.4375 0 -0.796875 -0.15625q-0.359375 -0.171875 -0.625 -0.46875q-0.25 -0.265625 -0.390625 -0.609375q-0.140625 -0.359375 -0.1875 -0.8125l0 -0.046875l4.53125 0l0 -0.484375q0 -0.671875 -0.171875 -1.234375q-0.15625 -0.5625 -0.5 -0.984375q-0.34375 -0.421875 -0.859375 -0.65625q-0.515625 -0.234375 -1.1875 -0.234375q-0.546875 0 -1.078125 0.21875q-0.515625 0.21875 -0.921875 0.640625q-0.40625 0.421875 -0.65625 1.03125q-0.234375 0.59375 -0.234375 1.375l0 0.234375q0 0.671875 0.21875 1.234375q0.21875 0.5625 0.625 0.96875q0.390625 0.40625 0.953125 0.640625q0.5625 0.234375 1.234375 0.234375zm-0.140625 -5.6875q0.40625 0 0.703125 0.15625q0.3125 0.140625 0.515625 0.390625q0.1875 0.25 0.296875 0.59375q0.125 0.328125 0.125 0.625l0 0.046875l-3.421875 0q0.0625 -0.4375 0.21875 -0.765625q0.171875 -0.34375 0.40625 -0.578125q0.234375 -0.234375 0.53125 -0.34375q0.296875 -0.125 0.625 -0.125zm4.341797 2.34375l0 0.125q0 0.671875 0.171875 1.265625q0.171875 0.578125 0.5 1.015625q0.328125 0.4375 0.796875 0.6875q0.46875 0.25 1.078125 0.25q0.3125 0 0.578125 -0.0625q0.265625 -0.0625 0.5 -0.171875q0.171875 -0.078125 0.328125 -0.1875q0.15625 -0.125 0.296875 -0.28125l0 3.015625l1.09375 0l0 -8.78125l-1.0 0l-0.046875 0.625q-0.125 -0.140625 -0.265625 -0.25q-0.140625 -0.125 -0.296875 -0.203125q-0.25 -0.140625 -0.546875 -0.203125q-0.296875 -0.078125 -0.640625 -0.078125q-0.609375 0 -1.09375 0.234375q-0.46875 0.234375 -0.796875 0.671875q-0.328125 0.421875 -0.5 1.015625q-0.15625 0.59375 -0.15625 1.3125zm1.078125 0.125l0 -0.125q0 -0.46875 0.09375 -0.890625q0.109375 -0.421875 0.328125 -0.75q0.203125 -0.328125 0.53125 -0.515625q0.328125 -0.1875 0.78125 -0.1875q0.25 0 0.46875 0.0625q0.21875 0.0625 0.390625 0.171875q0.1875 0.109375 0.328125 0.265625q0.140625 0.140625 0.25 0.328125l0 3.125q-0.109375 0.1875 -0.265625 0.359375q-0.140625 0.15625 -0.328125 0.265625q-0.171875 0.09375 -0.390625 0.15625q-0.203125 0.0625 -0.453125 0.0625q-0.453125 0 -0.78125 -0.1875q-0.328125 -0.203125 -0.53125 -0.515625q-0.21875 -0.328125 -0.328125 -0.75q-0.09375 -0.421875 -0.09375 -0.875zm10.498047 3.09375l0.984375 0l0 -6.34375l-1.09375 0l0 4.546875q-0.09375 0.203125 -0.234375 0.375q-0.125 0.171875 -0.296875 0.296875q-0.203125 0.15625 -0.5 0.25q-0.28125 0.078125 -0.640625 0.078125q-0.3125 0 -0.5625 -0.078125q-0.234375 -0.09375 -0.390625 -0.296875q-0.171875 -0.1875 -0.25 -0.53125q-0.078125 -0.34375 -0.078125 -0.859375l0 -3.78125l-1.078125 0l0 3.765625q0 0.71875 0.140625 1.234375q0.15625 0.5 0.453125 0.828125q0.28125 0.328125 0.6875 0.484375q0.40625 0.15625 0.90625 0.15625q0.625 0 1.09375 -0.265625q0.46875 -0.265625 0.796875 -0.734375l0.0625 0.875zm5.826172 0.125q0.921875 0 1.546875 -0.375q0.625 -0.375 0.953125 -0.859375l-0.671875 -0.515625q-0.296875 0.390625 -0.75 0.625q-0.453125 0.234375 -1.03125 0.234375q-0.4375 0 -0.796875 -0.15625q-0.359375 -0.171875 -0.625 -0.46875q-0.25 -0.265625 -0.390625 -0.609375q-0.140625 -0.359375 -0.1875 -0.8125l0 -0.046875l4.53125 0l0 -0.484375q0 -0.671875 -0.171875 -1.234375q-0.15625 -0.5625 -0.5 -0.984375q-0.34375 -0.421875 -0.859375 -0.65625q-0.515625 -0.234375 -1.1875 -0.234375q-0.546875 0 -1.078125 0.21875q-0.515625 0.21875 -0.921875 0.640625q-0.40625 0.421875 -0.65625 1.03125q-0.234375 0.59375 -0.234375 1.375l0 0.234375q0 0.671875 0.21875 1.234375q0.21875 0.5625 0.625 0.96875q0.390625 0.40625 0.953125 0.640625q0.5625 0.234375 1.234375 0.234375zm-0.140625 -5.6875q0.40625 0 0.703125 0.15625q0.3125 0.140625 0.515625 0.390625q0.1875 0.25 0.296875 0.59375q0.125 0.328125 0.125 0.625l0 0.046875l-3.421875 0q0.0625 -0.4375 0.21875 -0.765625q0.171875 -0.34375 0.40625 -0.578125q0.234375 -0.234375 0.53125 -0.34375q0.296875 -0.125 0.625 -0.125zm8.748047 3.875q0 0.15625 -0.0625 0.296875q-0.0625 0.125 -0.171875 0.234375q-0.171875 0.1875 -0.5 0.296875q-0.328125 0.09375 -0.75 0.09375q-0.28125 0 -0.5625 -0.046875q-0.28125 -0.0625 -0.515625 -0.203125q-0.234375 -0.140625 -0.390625 -0.375q-0.140625 -0.234375 -0.171875 -0.5625l-1.078125 0q0 0.40625 0.171875 0.78125q0.1875 0.375 0.546875 0.65625q0.34375 0.28125 0.84375 0.46875q0.5 0.171875 1.15625 0.171875q0.5625 0 1.03125 -0.140625q0.46875 -0.140625 0.8125 -0.390625q0.34375 -0.234375 0.53125 -0.578125q0.1875 -0.359375 0.1875 -0.78125q0 -0.390625 -0.171875 -0.6875q-0.15625 -0.296875 -0.46875 -0.53125q-0.328125 -0.21875 -0.796875 -0.375q-0.453125 -0.15625 -1.03125 -0.28125q-0.453125 -0.09375 -0.75 -0.1875q-0.28125 -0.09375 -0.453125 -0.203125q-0.171875 -0.125 -0.25 -0.265625q-0.0625 -0.15625 -0.0625 -0.34375q0 -0.171875 0.078125 -0.34375q0.09375 -0.171875 0.265625 -0.296875q0.171875 -0.140625 0.4375 -0.203125q0.265625 -0.078125 0.609375 -0.078125q0.328125 0 0.59375 0.09375q0.265625 0.09375 0.453125 0.234375q0.1875 0.15625 0.296875 0.359375q0.109375 0.1875 0.109375 0.390625l1.078125 0q0 -0.40625 -0.1875 -0.765625q-0.171875 -0.359375 -0.5 -0.640625q-0.328125 -0.265625 -0.796875 -0.40625q-0.46875 -0.15625 -1.046875 -0.15625q-0.546875 0 -1.0 0.140625q-0.453125 0.140625 -0.78125 0.40625q-0.328125 0.25 -0.515625 0.59375q-0.171875 0.328125 -0.171875 0.71875q0 0.390625 0.171875 0.6875q0.171875 0.296875 0.5 0.5q0.3125 0.234375 0.75 0.390625q0.453125 0.15625 1.0 0.265625q0.453125 0.09375 0.75 0.203125q0.296875 0.109375 0.484375 0.234375q0.171875 0.125 0.25 0.28125q0.078125 0.15625 0.078125 0.34375zm5.560547 -6.1875l-1.09375 0l0 1.53125l-1.671875 0l0 0.84375l1.671875 0l0 3.4375q0 0.59375 0.15625 1.015625q0.15625 0.40625 0.421875 0.65625q0.265625 0.265625 0.625 0.390625q0.375 0.125 0.796875 0.125q0.25 0 0.5 -0.03125q0.265625 -0.015625 0.484375 -0.0625q0.234375 -0.046875 0.421875 -0.109375q0.203125 -0.0625 0.328125 -0.140625l-0.140625 -0.765625q-0.109375 0.015625 -0.265625 0.046875q-0.15625 0.03125 -0.328125 0.0625q-0.171875 0.03125 -0.359375 0.0625q-0.1875 0.015625 -0.375 0.015625q-0.234375 0 -0.453125 -0.0625q-0.203125 -0.0625 -0.375 -0.203125q-0.15625 -0.140625 -0.25 -0.375q-0.09375 -0.25 -0.09375 -0.625l0 -3.4375l2.40625 0l0 -0.84375l-2.40625 0l0 -1.53125zm5.701172 4.40625l0 0.0625q0 0.84375 0.125 1.578125q0.140625 0.734375 0.359375 1.359375q0.21875 0.640625 0.5 1.15625q0.296875 0.515625 0.625 0.921875q0.3125 0.40625 0.640625 0.6875q0.328125 0.296875 0.609375 0.453125l0.234375 -0.65625q-0.234375 -0.1875 -0.484375 -0.46875q-0.234375 -0.265625 -0.453125 -0.625q-0.21875 -0.359375 -0.421875 -0.828125q-0.1875 -0.46875 -0.34375 -1.015625q-0.140625 -0.546875 -0.234375 -1.171875q-0.078125 -0.640625 -0.078125 -1.375l0 -0.078125q0 -0.765625 0.09375 -1.421875q0.09375 -0.671875 0.25 -1.21875q0.15625 -0.609375 0.40625 -1.125q0.25 -0.515625 0.515625 -0.890625q0.1875 -0.25 0.375 -0.4375q0.1875 -0.203125 0.375 -0.34375l-0.234375 -0.71875q-0.28125 0.15625 -0.609375 0.453125q-0.328125 0.28125 -0.640625 0.6875q-0.328125 0.40625 -0.625 0.9375q-0.28125 0.515625 -0.5 1.140625q-0.21875 0.625 -0.359375 1.375q-0.125 0.734375 -0.125 1.5625zm10.076172 0.0625l0 -0.0625q0 -0.890625 -0.140625 -1.609375q-0.125 -0.71875 -0.34375 -1.328125q-0.21875 -0.640625 -0.5 -1.140625q-0.28125 -0.515625 -0.609375 -0.9375q-0.328125 -0.40625 -0.65625 -0.6875q-0.328125 -0.296875 -0.609375 -0.453125l-0.234375 0.65625q0.1875 0.15625 0.390625 0.390625q0.21875 0.21875 0.40625 0.515625q0.25 0.390625 0.484375 0.90625q0.25 0.5 0.421875 1.15625q0.109375 0.4375 0.203125 1.09375q0.109375 0.640625 0.109375 1.4375l0 0.078125q0 0.6875 -0.078125 1.3125q-0.078125 0.609375 -0.203125 1.140625q-0.140625 0.5625 -0.34375 1.03125q-0.1875 0.484375 -0.40625 0.875q-0.234375 0.375 -0.484375 0.65625q-0.25 0.28125 -0.5 0.46875l0.234375 0.65625q0.28125 -0.15625 0.609375 -0.453125q0.328125 -0.28125 0.65625 -0.6875q0.3125 -0.40625 0.59375 -0.921875q0.296875 -0.515625 0.515625 -1.15625q0.234375 -0.625 0.359375 -1.359375q0.125 -0.734375 0.125 -1.578125z" fill-rule="nonzero"/><path fill="#000000" fill-opacity="0.0" d="m244.33858 201.08661l23.496078 0l0 27.716537l-23.496078 0z" fill-rule="evenodd"/><path fill="#000000" d="m258.30734 222.88661l-1.171875 0l0 -7.46875q-0.421875 0.40625 -1.109375 0.8125q-0.68751526 0.40625 -1.2343903 0.609375l0 -1.140625q0.984375 -0.453125 1.7187653 -1.109375q0.734375 -0.671875 1.03125 -1.28125l0.765625 0l0 9.578125z" fill-rule="nonzero"/></g></svg>