<svg version="1.1" viewBox="0.0 0.0 465.0 310.0" fill="none" stroke="none" stroke-linecap="square" stroke-miterlimit="10" xmlns:xlink="http://www.w3.org/1999/xlink" xmlns="http://www.w3.org/2000/svg"><clipPath id="p.0"><path d="m0 0l465.0 0l0 310.0l-465.0 0l0 -310.0z" clip-rule="nonzero"/></clipPath><g clip-path="url(#p.0)"><path fill="#000000" fill-opacity="0.0" d="m0 0l465.0 0l0 310.0l-465.0 0z" fill-rule="evenodd"/><path fill="#000000" fill-opacity="0.0" d="m152.79527 10.692913l188.22047 0l0 44.62992l-188.22047 0z" fill-rule="evenodd"/><path stroke="#000000" stroke-width="3.0" stroke-linejoin="round" stroke-linecap="butt" d="m152.79527 10.692913l188.22047 0l0 44.62992l-188.22047 0z" fill-rule="evenodd"/><path fill="#000000" d="m209.54941 29.495373l-7.0625 -3.546875l7.0625 -3.53125l0 1.125l-4.90625 2.40625l4.90625 2.421875l0 1.125zm8.427704 0l-7.0625 -3.546875l7.0625 -3.53125l0 1.125l-4.90625 2.40625l4.90625 2.421875l0 1.125zm1.9589539 0.3125l0 -7.0625l1.28125 0l0 7.0625l-1.28125 0zm0 -8.34375l0 -1.28125l1.28125 0l0 1.28125l-1.28125 0zm3.8526611 8.34375l0 -7.0625l1.28125 0l0 1.328125q0.484375 -0.71875 1.125 -1.09375q0.65625 -0.390625 1.359375 -0.390625q0.890625 0 1.453125 0.578125q0.5625 0.5625 0.5625 1.5625l0 5.078125l-1.28125 0l0 -4.65625q0 -0.734375 -0.140625 -0.96875q-0.125 -0.234375 -0.359375 -0.359375q-0.234375 -0.140625 -0.5 -0.140625q-0.46875 0 -1.03125 0.296875q-0.546875 0.296875 -1.1875 1.25l0 4.578125l-1.28125 0zm11.427765 0q-0.59375 0.15625 -1.03125 0.15625q-0.953125 0 -1.515625 -0.546875q-0.5625 -0.546875 -0.5625 -1.5625l0 -4.15625l-0.875 0l0 -0.953125l0.875 0l0 -1.28125l1.28125 -0.125l0 1.40625l1.859375 0l0 0.953125l-1.859375 0l0 3.921875q0 0.75 0.28125 1.078125q0.296875 0.3125 0.921875 0.3125q0.25 0 0.625 -0.09375l0 0.890625zm7.016281 -0.234375q-1.296875 0.390625 -2.21875 0.390625q-1.640625 0 -2.59375 -1.109375q-0.9375 -1.109375 -0.9375 -2.609375q0 -1.0 0.421875 -1.890625q0.421875 -0.90625 1.09375 -1.34375q0.671875 -0.4375 1.578125 -0.4375q1.21875 0 1.953125 0.890625q0.734375 0.875 0.734375 2.625l-0.015625 0.390625l-4.453125 0q0.109375 0.9375 0.40625 1.453125q0.296875 0.5 0.796875 0.78125q0.5 0.28125 1.265625 0.28125q0.390625 0 0.765625 -0.0625q0.390625 -0.078125 1.203125 -0.375l0 1.015625zm-4.375 -4.0625l3.109375 0q0 -1.0625 -0.421875 -1.515625q-0.40625 -0.453125 -1.046875 -0.453125q-0.734375 0 -1.15625 0.5q-0.40625 0.484375 -0.484375 1.46875zm6.6129913 4.296875l0 -7.0625l1.28125 0l0 1.328125q0.359375 -0.71875 0.9375 -1.09375q0.59375 -0.390625 1.28125 -0.390625q0.1875 0 0.40625 0.03125l0 1.1875q-0.328125 -0.109375 -0.59375 -0.109375q-0.59375 0 -1.109375 0.375q-0.515625 0.359375 -0.921875 1.078125l0 4.65625l-1.28125 0zm5.687973 0l0 -6.109375l-1.0 0l0 -0.953125l1.0 0l0 -0.84375q0 -0.875 0.21875 -1.375q0.234375 -0.5 0.75 -0.828125q0.515625 -0.328125 1.328125 -0.328125q0.65625 0 1.484375 0.21875l0 1.015625q-0.875 -0.265625 -1.390625 -0.265625q-0.296875 0 -0.546875 0.09375q-0.25 0.09375 -0.40625 0.328125q-0.140625 0.234375 -0.140625 1.0l0 0.984375l1.765625 0l0 0.953125l-1.765625 0l0 6.109375l-1.296875 0zm8.306686 -0.890625q-0.5625 0.515625 -1.125 0.78125q-0.5625 0.265625 -1.09375 0.265625q-0.75 0 -1.390625 -0.484375q-0.640625 -0.5 -0.640625 -1.453125q0 -1.03125 0.890625 -1.703125q0.90625 -0.6875 2.875 -0.6875l0.296875 0l0 -0.859375q0 -0.5 -0.140625 -0.734375q-0.125 -0.234375 -0.421875 -0.359375q-0.28125 -0.140625 -0.71875 -0.140625q-1.0 0 -2.171875 0.625l0 -1.0625q1.296875 -0.515625 2.4375 -0.515625q0.625 0 1.140625 0.203125q0.53125 0.1875 0.84375 0.625q0.3125 0.421875 0.3125 1.359375l0 3.203125q0 0.53125 0.078125 0.71875q0.09375 0.1875 0.25 0.28125q0.15625 0.09375 0.359375 0.09375q0.078125 0 0.234375 -0.015625l0.09375 0.703125q-0.4375 0.203125 -0.953125 0.203125q-0.359375 0 -0.6875 -0.21875q-0.328125 -0.234375 -0.46875 -0.828125zm-0.1875 -0.703125l0 -1.828125l-0.40625 -0.015625q-1.015625 0 -1.703125 0.390625q-0.671875 0.390625 -0.671875 1.0625q0 0.46875 0.328125 0.78125q0.34375 0.3125 0.796875 0.3125q0.390625 0 0.8125 -0.171875q0.421875 -0.1875 0.84375 -0.53125zm8.813538 1.375q-1.234375 0.375 -2.140625 0.375q-0.953125 0 -1.75 -0.5q-0.78125 -0.515625 -1.1875 -1.34375q-0.390625 -0.84375 -0.390625 -1.890625q0 -1.5625 0.859375 -2.59375q0.875 -1.046875 2.6875 -1.046875q0.828125 0 1.84375 0.21875l0 1.078125q-1.078125 -0.3125 -1.765625 -0.3125q-1.078125 0 -1.625 0.796875q-0.546875 0.796875 -0.546875 1.90625q0 1.1875 0.609375 1.921875q0.609375 0.734375 1.59375 0.734375q0.890625 0 1.8125 -0.453125l0 1.109375zm7.1080017 -0.015625q-1.296875 0.390625 -2.21875 0.390625q-1.640625 0 -2.59375 -1.109375q-0.9375 -1.109375 -0.9375 -2.609375q0 -1.0 0.421875 -1.890625q0.421875 -0.90625 1.09375 -1.34375q0.671875 -0.4375 1.578125 -0.4375q1.21875 0 1.953125 0.890625q0.734375 0.875 0.734375 2.625l-0.015625 0.390625l-4.453125 0q0.109375 0.9375 0.40625 1.453125q0.296875 0.5 0.796875 0.78125q0.5 0.28125 1.265625 0.28125q0.390625 0 0.765625 -0.0625q0.390625 -0.078125 1.203125 -0.375l0 1.015625zm-4.375 -4.0625l3.109375 0q0 -1.0625 -0.421875 -1.515625q-0.40625 -0.453125 -1.046875 -0.453125q-0.734375 0 -1.15625 0.5q-0.40625 0.484375 -0.484375 1.46875zm6.0192566 -3.09375l7.0625 3.53125l-7.0625 3.546875l0 -1.125l4.90625 -2.421875l-4.90625 -2.40625l0 -1.125zm8.427704 0l7.0625 3.53125l-7.0625 3.546875l0 -1.125l4.90625 -2.421875l-4.90625 -2.40625l0 -1.125z" fill-rule="nonzero"/><path fill="#000000" d="m211.9308 43.104748q-0.15625 0.6875 -0.53125 1.234375q-0.375 0.546875 -0.96875 0.921875q-0.59375 0.375 -1.375 0.578125q-0.78125 0.203125 -1.6875 0.203125q-0.734375 0 -1.234375 -0.046875q-0.484375 -0.03125 -1.71875 -0.1875l0.40625 -1.9375q0.390625 0.171875 0.484375 0.203125q1.0 0.375 2.03125 0.375q0.734375 0 1.203125 -0.265625q0.484375 -0.28125 0.59375 -0.796875q0.078125 -0.359375 -0.109375 -0.609375q-0.1875 -0.265625 -0.8125 -0.65625l-0.546875 -0.359375q-0.796875 -0.46875 -1.234375 -0.953125q-0.4375 -0.484375 -0.578125 -1.0q-0.125 -0.53125 0.015625 -1.171875q0.171875 -0.8125 0.71875 -1.421875q0.546875 -0.625 1.390625 -0.953125q0.859375 -0.328125 1.90625 -0.328125q0.484375 0 0.859375 0.03125q0.375 0.015625 0.765625 0.078125q0.40625 0.046875 1.171875 0.171875l-0.40625 1.84375q-0.28125 -0.109375 -0.421875 -0.171875q-1.0625 -0.34375 -1.921875 -0.34375q-0.390625 0 -0.703125 0.109375q-0.296875 0.09375 -0.5 0.28125q-0.1875 0.171875 -0.25 0.4375q-0.0625 0.3125 0.109375 0.546875q0.1875 0.21875 0.78125 0.59375l0.609375 0.390625q0.765625 0.484375 1.203125 0.875q0.515625 0.421875 0.703125 1.03125q0.1875 0.59375 0.046875 1.296875zm7.8732147 2.703125l-2.5625 0l0.28125 -1.359375l-0.03125 0q-0.46875 0.71875 -1.1875 1.125q-0.703125 0.390625 -1.484375 0.390625q-0.875 0 -1.359375 -0.546875q-0.265625 -0.3125 -0.328125 -0.734375q-0.0625 -0.421875 0.078125 -1.078125l1.0625 -5.015625l2.5625 0l-0.953125 4.484375q-0.0625 0.34375 -0.046875 0.5625q0.015625 0.203125 0.125 0.3125q0.125 0.09375 0.34375 0.09375q0.34375 0 0.703125 -0.25q0.359375 -0.25 0.828125 -0.796875l0.9375 -4.40625l2.5625 0l-1.53125 7.21875zm10.719055 -3.78125q-0.1875 0.90625 -0.5625 1.640625q-0.359375 0.734375 -0.875 1.25q-0.515625 0.5 -1.15625 0.78125q-0.640625 0.265625 -1.359375 0.265625q-0.5625 0 -0.921875 -0.15625q-0.359375 -0.15625 -0.890625 -0.640625l-0.15625 0l-0.453125 0.640625l-2.09375 0l2.1875 -10.28125l2.5625 0l-0.65625 3.0625l-0.28125 1.359375l0.03125 0q0.265625 -0.484375 0.671875 -0.8125q0.40625 -0.34375 0.90625 -0.53125q0.515625 -0.1875 1.046875 -0.1875q0.640625 0 1.109375 0.25q0.46875 0.25 0.71875 0.71875q0.265625 0.453125 0.3125 1.125q0.046875 0.671875 -0.140625 1.515625zm-2.765625 0.171875q0.125 -0.59375 0.078125 -1.015625q-0.046875 -0.4375 -0.265625 -0.65625q-0.203125 -0.21875 -0.578125 -0.21875q-0.671875 0 -1.421875 1.046875l-0.515625 2.40625q0.1875 0.375 0.40625 0.53125q0.21875 0.15625 0.5625 0.15625q0.34375 0 0.703125 -0.28125q0.359375 -0.296875 0.625 -0.8125q0.265625 -0.515625 0.40625 -1.15625zm7.9143524 -4.75l-2.5625 0l0.40625 -1.921875l2.5625 0l-0.40625 1.921875zm-1.734375 8.109375q-0.1875 0.890625 -0.46875 1.390625q-0.28125 0.515625 -0.78125 0.890625q-0.3125 0.25 -0.6875 0.40625q-0.359375 0.15625 -0.8125 0.21875q-0.4375 0.078125 -0.9375 0.078125q-0.53125 0 -0.859375 -0.046875q-0.34375 -0.046875 -1.046875 -0.21875l0.34375 -1.578125q0.734375 0.390625 1.421875 0.390625q0.484375 0 0.78125 -0.3125q0.296875 -0.3125 0.4375 -0.96875l1.53125 -7.21875l2.5625 0l-1.484375 6.96875zm8.699951 0.015625q-0.25 0.0625 -0.453125 0.109375q-1.359375 0.296875 -2.578125 0.296875q-0.890625 0 -1.609375 -0.21875q-0.703125 -0.234375 -1.109375 -0.625q-0.5 -0.515625 -0.6875 -1.34375q-0.1875 -0.84375 0 -1.703125q0.171875 -0.8125 0.578125 -1.5q0.421875 -0.6875 1.03125 -1.171875q0.609375 -0.484375 1.375 -0.734375q0.765625 -0.265625 1.625 -0.265625q0.828125 0 1.359375 0.203125q0.53125 0.203125 0.859375 0.625q0.4375 0.59375 0.46875 1.328125q0.015625 0.359375 0 0.640625q-0.015625 0.265625 -0.078125 0.640625q-0.0625 0.359375 -0.1875 0.90625l-4.53125 0q-0.03125 0.3125 -0.03125 0.515625q0.015625 0.1875 0.09375 0.375q0.15625 0.359375 0.53125 0.515625q0.390625 0.15625 1.125 0.15625q0.671875 0 1.125 -0.078125q0.453125 -0.078125 1.453125 -0.375l-0.359375 1.703125zm-1.546875 -4.09375l0.015625 -0.109375q0.171875 -0.8125 0.015625 -1.171875q-0.140625 -0.375 -0.640625 -0.375q-0.359375 0 -0.65625 0.203125q-0.296875 0.1875 -0.515625 0.5625q-0.21875 0.359375 -0.359375 0.890625l2.140625 0zm8.961655 4.234375q-1.28125 0.25 -2.40625 0.25q-0.515625 0 -0.9375 -0.046875q-0.421875 -0.046875 -0.765625 -0.15625q-0.328125 -0.125 -0.5625 -0.28125q-0.234375 -0.171875 -0.46875 -0.4375q-0.421875 -0.5 -0.546875 -1.234375q-0.109375 -0.734375 0.078125 -1.578125q0.234375 -1.140625 0.90625 -2.015625q0.6875 -0.875 1.71875 -1.328125q1.03125 -0.46875 2.265625 -0.46875q0.96875 0 2.15625 0.328125l-0.359375 1.703125q-1.125 -0.484375 -1.796875 -0.484375q-0.5 0 -0.953125 0.28125q-0.4375 0.265625 -0.75 0.765625q-0.296875 0.484375 -0.4375 1.140625q-0.21875 0.984375 0.171875 1.609375q0.390625 0.625 1.234375 0.625q0.71875 0 1.8125 -0.328125l-0.359375 1.65625zm5.8408813 0.03125q-0.5 0.140625 -0.78125 0.171875q-0.28125 0.046875 -0.703125 0.046875q-1.109375 0 -1.703125 -0.40625q-0.421875 -0.3125 -0.515625 -0.765625q-0.078125 -0.46875 0.125 -1.40625l0.71875 -3.359375l-0.71875 0l0.296875 -1.4375l0.71875 0l0.25 -1.140625l2.640625 -0.3125l-0.3125 1.453125l1.359375 0l-0.296875 1.4375l-1.359375 0l-0.65625 3.09375q-0.109375 0.46875 -0.109375 0.65625q0 0.1875 0.125 0.359375q0.1875 0.234375 0.65625 0.234375q0.234375 0 0.578125 -0.109375l-0.3125 1.484375zm9.311554 -2.3125q-0.109375 0.515625 -0.4375 1.0q-0.328125 0.46875 -0.78125 0.796875q-0.46875 0.3125 -1.0 0.453125q-0.515625 0.125 -1.375 0.125l-4.140625 0l2.046875 -9.640625l3.875 0q0.859375 0 1.3125 0.125q0.453125 0.109375 0.75 0.390625q0.1875 0.203125 0.3125 0.484375q0.125 0.265625 0.15625 0.5625q0.03125 0.296875 -0.03125 0.59375q-0.0625 0.296875 -0.21875 0.59375q-0.140625 0.296875 -0.359375 0.53125q-0.203125 0.234375 -0.5 0.453125q-0.4375 0.3125 -0.796875 0.46875q-0.359375 0.15625 -1.234375 0.40625q0.4375 0.078125 0.765625 0.1875q0.34375 0.09375 0.546875 0.21875q0.21875 0.109375 0.453125 0.296875q0.453125 0.359375 0.609375 0.859375q0.171875 0.5 0.046875 1.09375zm-1.921875 -4.75q0.0625 -0.28125 -0.015625 -0.484375q-0.078125 -0.203125 -0.28125 -0.28125q-0.15625 -0.0625 -0.34375 -0.078125q-0.1875 -0.015625 -0.859375 -0.015625l-0.28125 0l-0.46875 2.203125l0.484375 0q0.640625 0 1.140625 -0.375q0.5 -0.390625 0.625 -0.96875zm-0.625 4.453125q0.078125 -0.328125 -0.015625 -0.609375q-0.078125 -0.28125 -0.296875 -0.5q-0.21875 -0.21875 -0.546875 -0.3125q-0.328125 -0.109375 -0.734375 -0.109375l-0.375 0l-0.546875 2.5625l0.515625 0q0.625 0 0.953125 -0.0625q0.40625 -0.0625 0.6875 -0.328125q0.28125 -0.265625 0.359375 -0.640625zm10.3532715 2.671875q-0.75 0.15625 -1.3125 0.15625q-0.453125 0 -0.796875 -0.078125q-0.328125 -0.078125 -0.5 -0.203125q-0.1875 -0.15625 -0.328125 -0.515625l-0.171875 0q-0.515625 0.453125 -0.953125 0.625q-0.4375 0.171875 -1.015625 0.171875q-0.671875 0 -1.15625 -0.265625q-0.46875 -0.28125 -0.65625 -0.78125q-0.171875 -0.5 -0.03125 -1.140625q0.234375 -1.09375 1.15625 -1.75q0.59375 -0.421875 1.28125 -0.578125q0.703125 -0.171875 1.84375 -0.171875l0.53125 0l0.09375 -0.453125q0.203125 -1.0 -1.078125 -1.0q-0.578125 0 -1.34375 0.203125q-0.5625 0.15625 -1.15625 0.453125l0.34375 -1.609375q0.109375 -0.03125 0.203125 -0.0625q0.109375 -0.03125 0.1875 -0.046875q1.15625 -0.34375 2.421875 -0.34375q3.34375 0 2.859375 2.265625l-0.671875 3.125q-0.125 0.59375 0.28125 0.59375q0.078125 0 0.28125 -0.03125l-0.3125 1.4375zm-2.65625 -2.015625l0.25 -1.15625l-0.515625 0q-1.359375 0 -1.5625 0.953125q-0.078125 0.359375 0.078125 0.59375q0.171875 0.21875 0.53125 0.21875q0.5625 0 1.21875 -0.609375zm11.179047 -0.21875q-0.109375 0.515625 -0.453125 0.96875q-0.328125 0.453125 -0.84375 0.765625q-0.5 0.3125 -1.1875 0.484375q-0.671875 0.171875 -1.453125 0.171875q-0.71875 0 -1.3125 -0.0625q-0.875 -0.09375 -1.65625 -0.3125l0.34375 -1.640625q0.125 0.0625 0.21875 0.09375q0.109375 0.03125 0.234375 0.09375q1.171875 0.390625 2.078125 0.390625q1.140625 0 1.265625 -0.578125q0.03125 -0.15625 -0.015625 -0.265625q-0.15625 -0.21875 -0.78125 -0.453125l-0.484375 -0.203125q-1.390625 -0.578125 -1.734375 -1.265625q-0.09375 -0.1875 -0.109375 -0.484375q-0.015625 -0.3125 0.046875 -0.578125q0.21875 -1.09375 1.234375 -1.6875q1.03125 -0.59375 2.703125 -0.59375q1.15625 0 2.359375 0.28125l-0.359375 1.640625q-0.171875 -0.0625 -0.375 -0.15625q-0.375 -0.125 -0.84375 -0.21875q-0.46875 -0.09375 -0.8125 -0.09375q-1.171875 0 -1.296875 0.578125q-0.046875 0.21875 0.109375 0.359375q0.15625 0.140625 0.59375 0.3125l0.46875 0.171875q1.34375 0.484375 1.78125 0.984375q0.453125 0.484375 0.28125 1.296875zm7.947296 2.0q-0.25 0.0625 -0.453125 0.109375q-1.359375 0.296875 -2.578125 0.296875q-0.890625 0 -1.609375 -0.21875q-0.703125 -0.234375 -1.109375 -0.625q-0.5 -0.515625 -0.6875 -1.34375q-0.1875 -0.84375 0 -1.703125q0.171875 -0.8125 0.578125 -1.5q0.421875 -0.6875 1.03125 -1.171875q0.609375 -0.484375 1.375 -0.734375q0.765625 -0.265625 1.625 -0.265625q0.828125 0 1.359375 0.203125q0.53125 0.203125 0.859375 0.625q0.4375 0.59375 0.46875 1.328125q0.015625 0.359375 0 0.640625q-0.015625 0.265625 -0.078125 0.640625q-0.0625 0.359375 -0.1875 0.90625l-4.53125 0q-0.03125 0.3125 -0.03125 0.515625q0.015625 0.1875 0.09375 0.375q0.15625 0.359375 0.53125 0.515625q0.390625 0.15625 1.125 0.15625q0.671875 0 1.125 -0.078125q0.453125 -0.078125 1.453125 -0.375l-0.359375 1.703125zm-1.546875 -4.09375l0.015625 -0.109375q0.171875 -0.8125 0.015625 -1.171875q-0.140625 -0.375 -0.640625 -0.375q-0.359375 0 -0.65625 0.203125q-0.296875 0.1875 -0.515625 0.5625q-0.21875 0.359375 -0.359375 0.890625l2.140625 0z" fill-rule="nonzero"/><path fill="#000000" fill-opacity="0.0" d="m152.79527 85.15748l188.22047 0l0 30.992126l-188.22047 0z" fill-rule="evenodd"/><path stroke="#000000" stroke-width="2.0" stroke-linejoin="round" stroke-linecap="butt" d="m152.79527 85.15748l188.22047 0l0 30.992126l-188.22047 0z" fill-rule="evenodd"/><path fill="#000000" d="m165.52965 105.141045l0 -3.0625l-3.046875 0l0 -0.953125l3.046875 0l0 -3.0625l0.96875 0l0 3.0625l3.046875 0l0 0.953125l-3.046875 0l0 3.0625l-0.96875 0z" fill-rule="nonzero"/><path fill="#000000" d="m175.72133 105.453545l1.5 -7.0625l1.28125 0l-0.28125 1.328125q0.515625 -0.71875 1.171875 -1.09375q0.671875 -0.390625 1.359375 -0.390625q0.1875 0 0.40625 0.03125l-0.25 1.1875q-0.3125 -0.109375 -0.578125 -0.109375q-0.59375 0 -1.1875 0.375q-0.59375 0.359375 -1.15625 1.078125l-0.984375 4.65625l-1.28125 0zm10.687973 -0.234375q-1.375 0.390625 -2.296875 0.390625q-1.640625 0 -2.359375 -1.109375q-0.703125 -1.109375 -0.390625 -2.609375q0.21875 -1.0 0.828125 -1.890625q0.625 -0.90625 1.375 -1.34375q0.765625 -0.4375 1.671875 -0.4375q1.21875 0 1.765625 0.890625q0.546875 0.875 0.1875 2.625l-0.109375 0.390625l-4.453125 0q-0.078125 0.9375 0.109375 1.453125q0.1875 0.5 0.625 0.78125q0.4375 0.28125 1.203125 0.28125q0.390625 0 0.78125 -0.0625q0.40625 -0.078125 1.28125 -0.375l-0.21875 1.015625zm-3.515625 -4.0625l3.109375 0q0.234375 -1.0625 -0.09375 -1.515625q-0.3125 -0.453125 -0.953125 -0.453125q-0.734375 0 -1.25 0.5q-0.515625 0.484375 -0.8125 1.46875zm9.691116 6.875l0.828125 -3.90625q-0.546875 0.75 -1.21875 1.125q-0.65625 0.359375 -1.4375 0.359375q-1.3125 0 -1.828125 -0.953125q-0.515625 -0.953125 -0.1875 -2.515625q0.359375 -1.671875 1.40625 -2.78125q1.046875 -1.125 2.4375 -1.125q0.40625 0 0.765625 0.09375q0.359375 0.09375 0.609375 0.28125q0.25 0.171875 0.5 0.578125l0.171875 -0.796875l1.296875 0l-2.046875 9.640625l-1.296875 0zm1.6875 -7.953125q-0.53125 -0.59375 -0.890625 -0.734375q-0.359375 -0.15625 -0.796875 -0.15625q-0.9375 0 -1.5625 0.796875q-0.609375 0.78125 -0.875 2.03125q-0.25 1.140625 0 1.8125q0.265625 0.65625 1.109375 0.65625q0.53125 0 1.109375 -0.28125q0.59375 -0.296875 1.21875 -0.875l0.6875 -3.25zm7.1386566 5.375l0.28125 -1.328125q-0.65625 0.71875 -1.375 1.109375q-0.71875 0.375 -1.421875 0.375q-0.890625 0 -1.34375 -0.5625q-0.4375 -0.5625 -0.21875 -1.578125l1.078125 -5.078125l1.28125 0l-0.984375 4.65625q-0.15625 0.734375 -0.078125 0.96875q0.078125 0.234375 0.28125 0.375q0.21875 0.125 0.484375 0.125q0.46875 0 1.078125 -0.296875q0.625 -0.296875 1.46875 -1.25l0.96875 -4.578125l1.28125 0l-1.5 7.0625l-1.28125 0zm9.084015 -0.234375q-1.375 0.390625 -2.296875 0.390625q-1.640625 0 -2.359375 -1.109375q-0.703125 -1.109375 -0.390625 -2.609375q0.21875 -1.0 0.828125 -1.890625q0.625 -0.90625 1.375 -1.34375q0.765625 -0.4375 1.671875 -0.4375q1.21875 0 1.765625 0.890625q0.546875 0.875 0.1875 2.625l-0.109375 0.390625l-4.453125 0q-0.078125 0.9375 0.109375 1.453125q0.1875 0.5 0.625 0.78125q0.4375 0.28125 1.203125 0.28125q0.390625 0 0.78125 -0.0625q0.40625 -0.078125 1.28125 -0.375l-0.21875 1.015625zm-3.515625 -4.0625l3.109375 0q0.234375 -1.0625 -0.09375 -1.515625q-0.3125 -0.453125 -0.953125 -0.453125q-0.734375 0 -1.25 0.5q-0.515625 0.484375 -0.8125 1.46875zm5.4879913 4.046875l0.25 -1.171875q1.140625 0.625 2.0625 0.625q0.546875 0 0.96875 -0.296875q0.4375 -0.3125 0.53125 -0.75q0.0625 -0.28125 -0.046875 -0.546875q-0.140625 -0.265625 -0.734375 -0.546875l-0.6875 -0.3125q-0.78125 -0.359375 -1.078125 -0.84375q-0.296875 -0.46875 -0.15625 -1.140625q0.1875 -0.859375 0.921875 -1.421875q0.734375 -0.5625 1.9375 -0.5625q0.59375 0 1.4375 0.15625l0.25 0.046875l-0.21875 1.078125q-1.0 -0.328125 -1.640625 -0.328125q-0.625 0 -0.984375 0.265625q-0.359375 0.265625 -0.4375 0.640625q-0.0625 0.28125 0.09375 0.515625q0.15625 0.234375 0.640625 0.453125l0.5625 0.265625q1.125 0.53125 1.359375 1.046875q0.21875 0.5 0.09375 1.109375q-0.125 0.578125 -0.546875 1.078125q-0.421875 0.5 -1.09375 0.78125q-0.671875 0.265625 -1.421875 0.265625q-0.875 0 -2.0625 -0.40625zm10.16922 0.25q-0.625 0.15625 -1.0625 0.15625q-0.953125 0 -1.40625 -0.546875q-0.4375 -0.546875 -0.21875 -1.5625l0.875 -4.15625l-0.875 0l0.203125 -0.953125l0.875 0l0.28125 -1.28125l1.296875 -0.125l-0.296875 1.40625l1.859375 0l-0.203125 0.953125l-1.859375 0l-0.828125 3.921875q-0.15625 0.75 0.0625 1.078125q0.21875 0.3125 0.84375 0.3125q0.25 0 0.640625 -0.09375l-0.1875 0.890625zm4.188156 1.046875l-0.1875 0.875q-0.90625 -0.71875 -1.359375 -1.71875q-0.4375 -1.0 -0.546875 -2.140625q-0.09375 -1.140625 0.140625 -2.234375q0.234375 -1.09375 0.8125 -2.234375q0.59375 -1.140625 1.453125 -2.140625q0.875 -1.0 2.09375 -1.734375l-0.1875 0.890625q-0.90625 0.796875 -1.421875 1.546875q-0.515625 0.75 -0.890625 1.6875q-0.359375 0.9375 -0.578125 1.984375q-0.21875 1.03125 -0.25 1.984375q-0.03125 0.9375 0.15625 1.6875q0.203125 0.734375 0.765625 1.546875zm3.1779938 -10.4375l0.1875 -0.890625q0.90625 0.734375 1.34375 1.734375q0.453125 1.0 0.546875 2.140625q0.09375 1.140625 -0.140625 2.234375q-0.234375 1.09375 -0.8125 2.234375q-0.578125 1.140625 -1.453125 2.140625q-0.859375 1.0 -2.078125 1.71875l0.1875 -0.875q0.90625 -0.8125 1.40625 -1.546875q0.515625 -0.75 0.875 -1.6875q0.375 -0.953125 0.59375 -1.984375q0.21875 -1.03125 0.25 -1.96875q0.03125 -0.953125 -0.15625 -1.703125q-0.1875 -0.75 -0.75 -1.546875z" fill-rule="nonzero"/><path fill="#000000" fill-opacity="0.0" d="m10.3412075 191.07611l188.22047 0l0 30.992126l-188.22047 0z" fill-rule="evenodd"/><path stroke="#000000" stroke-width="3.0" stroke-linejoin="round" stroke-linecap="butt" d="m10.3412075 191.07611l188.22047 0l0 30.992126l-188.22047 0z" fill-rule="evenodd"/><path fill="#000000" d="m72.25356 211.37218l-3.109375 0l-2.078125 -3.859375l-0.90625 0l0 3.859375l-2.4062538 0l0 -9.640625l4.203129 0q0.828125 0 1.328125 0.140625q0.5 0.140625 0.90625 0.484375q0.765625 0.640625 0.765625 1.78125q0 0.578125 -0.21875 1.109375q-0.21875 0.53125 -0.625 0.953125q-0.390625 0.421875 -0.953125 0.6875l3.09375 4.484375zm-3.859375 -6.9375q0 -0.59375 -0.40625 -0.84375q-0.390625 -0.25 -1.34375 -0.25l-0.484375 0l0 2.734375l0.421875 0q0.859375 0 1.328125 -0.421875q0.484375 -0.4375 0.484375 -1.21875zm11.593842 6.703125q-0.234375 0.0625 -0.4375 0.109375q-1.296875 0.296875 -2.515625 0.296875q-0.890625 0 -1.65625 -0.21875q-0.75 -0.234375 -1.234375 -0.625q-0.609375 -0.515625 -0.984375 -1.34375q-0.359375 -0.84375 -0.359375 -1.703125q0 -0.8125 0.265625 -1.5q0.28125 -0.6875 0.78125 -1.171875q0.5 -0.484375 1.203125 -0.734375q0.71875 -0.265625 1.578125 -0.265625q0.828125 0 1.40625 0.203125q0.578125 0.203125 1.0 0.625q0.5625 0.59375 0.75 1.328125q0.09375 0.359375 0.125 0.640625q0.046875 0.265625 0.0625 0.640625q0.015625 0.359375 0.015625 0.90625l-4.53125 0q0.03125 0.3125 0.078125 0.515625q0.046875 0.1875 0.171875 0.375q0.234375 0.359375 0.640625 0.515625q0.421875 0.15625 1.15625 0.15625q0.671875 0 1.109375 -0.078125q0.4375 -0.078125 1.375 -0.375l0 1.703125zm-2.421875 -4.09375l0 -0.109375q0 -0.8125 -0.234375 -1.171875q-0.21875 -0.375 -0.71875 -0.375q-0.359375 0 -0.625 0.203125q-0.25 0.1875 -0.390625 0.5625q-0.140625 0.359375 -0.171875 0.890625l2.140625 0zm10.774155 4.328125q-0.71875 0.15625 -1.28125 0.15625q-0.453125 0 -0.8125 -0.078125q-0.34375 -0.078125 -0.546875 -0.203125q-0.21875 -0.15625 -0.4375 -0.515625l-0.171875 0q-0.421875 0.453125 -0.828125 0.625q-0.390625 0.171875 -0.96875 0.171875q-0.671875 0 -1.203125 -0.265625q-0.53125 -0.28125 -0.828125 -0.78125q-0.28125 -0.5 -0.28125 -1.140625q0 -1.09375 0.796875 -1.75q0.5 -0.421875 1.15625 -0.578125q0.65625 -0.171875 1.796875 -0.171875l0.53125 0l0 -0.453125q0 -1.0 -1.28125 -1.0q-0.578125 0 -1.3125 0.203125q-0.53125 0.15625 -1.046875 0.453125l0 -1.609375q0.09375 -0.03125 0.1875 -0.0625q0.09375 -0.03125 0.171875 -0.046875q1.078125 -0.34375 2.34375 -0.34375q3.34375 0 3.34375 2.265625l0 3.125q0 0.59375 0.40625 0.59375q0.078125 0 0.265625 -0.03125l0 1.4375zm-3.078125 -2.015625l0 -1.15625l-0.515625 0q-1.359375 0 -1.359375 0.953125q0 0.359375 0.203125 0.59375q0.21875 0.21875 0.578125 0.21875q0.5625 0 1.09375 -0.609375zm7.3196716 2.015625l-2.5625 0l0 -10.28125l2.5625 0l0 10.28125zm8.699951 -2.703125q0 0.6875 -0.265625 1.234375q-0.265625 0.546875 -0.78125 0.921875q-0.5 0.375 -1.25 0.578125q-0.734375 0.203125 -1.640625 0.203125q-0.734375 0 -1.234375 -0.046875q-0.5 -0.03125 -1.765625 -0.1875l0 -1.9375q0.421875 0.171875 0.515625 0.203125q1.09375 0.375 2.125 0.375q0.734375 0 1.140625 -0.265625q0.421875 -0.28125 0.421875 -0.796875q0 -0.359375 -0.25 -0.609375q-0.234375 -0.265625 -0.9375 -0.65625l-0.625 -0.359375q-0.890625 -0.46875 -1.4375 -0.953125q-0.546875 -0.484375 -0.796875 -1.0q-0.234375 -0.53125 -0.234375 -1.171875q0 -0.8125 0.421875 -1.421875q0.421875 -0.625 1.203125 -0.953125q0.78125 -0.328125 1.828125 -0.328125q0.484375 0 0.859375 0.03125q0.375 0.015625 0.78125 0.078125q0.421875 0.046875 1.203125 0.171875l0 1.84375q-0.3125 -0.109375 -0.46875 -0.171875q-1.125 -0.34375 -1.984375 -0.34375q-0.390625 0 -0.6875 0.109375q-0.28125 0.09375 -0.4375 0.28125q-0.15625 0.171875 -0.15625 0.4375q0 0.3125 0.21875 0.546875q0.234375 0.21875 0.90625 0.59375l0.703125 0.390625q0.859375 0.484375 1.390625 0.875q0.59375 0.421875 0.90625 1.03125q0.328125 0.59375 0.328125 1.296875zm8.45134 2.703125l-2.5625 0l0 -1.359375l-0.03125 0q-0.328125 0.71875 -0.953125 1.125q-0.625 0.390625 -1.40625 0.390625q-0.875 0 -1.46875 -0.546875q-0.34375 -0.3125 -0.5 -0.734375q-0.140625 -0.421875 -0.140625 -1.078125l0 -5.015625l2.5625 0l0 4.484375q0 0.34375 0.0625 0.5625q0.0625 0.203125 0.203125 0.3125q0.140625 0.09375 0.359375 0.09375q0.34375 0 0.640625 -0.25q0.3125 -0.25 0.671875 -0.796875l0 -4.40625l2.5625 0l0 7.21875zm9.92218 -3.78125q0 0.90625 -0.21875 1.640625q-0.203125 0.734375 -0.609375 1.25q-0.40625 0.5 -1.0 0.78125q-0.578125 0.265625 -1.296875 0.265625q-0.5625 0 -0.953125 -0.15625q-0.390625 -0.15625 -1.03125 -0.640625l-0.15625 0l-0.3125 0.640625l-2.09375 0l0 -10.28125l2.5625 0l0 3.0625l0 1.359375l0.03125 0q0.171875 -0.484375 0.5 -0.8125q0.34375 -0.34375 0.796875 -0.53125q0.46875 -0.1875 1.0 -0.1875q0.640625 0 1.15625 0.25q0.53125 0.25 0.890625 0.71875q0.359375 0.453125 0.546875 1.125q0.1875 0.671875 0.1875 1.515625zm-2.734375 0.171875q0 -0.59375 -0.140625 -1.015625q-0.140625 -0.4375 -0.40625 -0.65625q-0.25 -0.21875 -0.625 -0.21875q-0.671875 0 -1.203125 1.046875l0 2.40625q0.265625 0.375 0.515625 0.53125q0.265625 0.15625 0.609375 0.15625q0.34375 0 0.640625 -0.28125q0.296875 -0.296875 0.453125 -0.8125q0.15625 -0.515625 0.15625 -1.15625zm6.8987274 -4.75l-2.5625 0l0 -1.921875l2.5625 0l0 1.921875zm0 8.109375q0 0.890625 -0.171875 1.390625q-0.171875 0.515625 -0.59375 0.890625q-0.265625 0.25 -0.609375 0.40625q-0.328125 0.15625 -0.765625 0.21875q-0.421875 0.078125 -0.921875 0.078125q-0.53125 0 -0.875 -0.046875q-0.34375 -0.046875 -1.078125 -0.21875l0 -1.578125q0.8125 0.390625 1.5 0.390625q0.484375 0 0.71875 -0.3125q0.234375 -0.3125 0.234375 -0.96875l0 -7.21875l2.5625 0l0 6.96875zm8.699944 0.015625q-0.234375 0.0625 -0.4375 0.109375q-1.296875 0.296875 -2.515625 0.296875q-0.890625 0 -1.6562424 -0.21875q-0.75 -0.234375 -1.234375 -0.625q-0.609375 -0.515625 -0.984375 -1.34375q-0.359375 -0.84375 -0.359375 -1.703125q0 -0.8125 0.265625 -1.5q0.28125 -0.6875 0.78125 -1.171875q0.5 -0.484375 1.203125 -0.734375q0.7187424 -0.265625 1.5781174 -0.265625q0.828125 0 1.40625 0.203125q0.578125 0.203125 1.0 0.625q0.5625 0.59375 0.75 1.328125q0.09375 0.359375 0.125 0.640625q0.046875 0.265625 0.0625 0.640625q0.015625 0.359375 0.015625 0.90625l-4.5312424 0q0.03124237 0.3125 0.07811737 0.515625q0.046875 0.1875 0.171875 0.375q0.234375 0.359375 0.640625 0.515625q0.421875 0.15625 1.15625 0.15625q0.671875 0 1.109375 -0.078125q0.4375 -0.078125 1.375 -0.375l0 1.703125zm-2.421875 -4.09375l0 -0.109375q0 -0.8125 -0.234375 -1.171875q-0.21875 -0.375 -0.71875 -0.375q-0.359375 0 -0.625 0.203125q-0.25 0.1875 -0.390625 0.5625q-0.14061737 0.359375 -0.17186737 0.890625l2.1406174 0zm9.867905 4.234375q-1.234375 0.25 -2.359375 0.25q-0.515625 0 -0.953125 -0.046875q-0.421875 -0.046875 -0.78125 -0.15625q-0.359375 -0.125 -0.640625 -0.28125q-0.265625 -0.171875 -0.546875 -0.4375q-0.53125 -0.5 -0.8125 -1.234375q-0.265625 -0.734375 -0.265625 -1.578125q0 -1.140625 0.484375 -2.015625q0.5 -0.875 1.421875 -1.328125q0.9375 -0.46875 2.171875 -0.46875q0.96875 0 2.234375 0.328125l0 1.703125q-1.21875 -0.484375 -1.890625 -0.484375q-0.5 0 -0.890625 0.28125q-0.390625 0.265625 -0.59375 0.765625q-0.203125 0.484375 -0.203125 1.140625q0 0.984375 0.515625 1.609375q0.53125 0.625 1.375 0.625q0.71875 0 1.734375 -0.328125l0 1.65625zm5.8408813 0.03125q-0.46875 0.140625 -0.75 0.171875q-0.265625 0.046875 -0.6875 0.046875q-1.109375 0 -1.78125 -0.40625q-0.5 -0.3125 -0.6875 -0.765625q-0.171875 -0.46875 -0.171875 -1.40625l0 -3.359375l-0.71875 0l0 -1.4375l0.71875 0l0 -1.140625l2.578125 -0.3125l0 1.453125l1.359375 0l0 1.4375l-1.359375 0l0 3.09375q0 0.46875 0.03125 0.65625q0.046875 0.1875 0.203125 0.359375q0.234375 0.234375 0.703125 0.234375q0.234375 0 0.5625 -0.109375l0 1.484375z" fill-rule="nonzero"/><path fill="#000000" fill-opacity="0.0" d="m267.83466 191.07611l188.22046 0l0 29.826782l-188.22046 0z" fill-rule="evenodd"/><path stroke="#000000" stroke-width="3.0" stroke-linejoin="round" stroke-linecap="butt" d="m267.83466 191.07611l188.22046 0l0 29.826782l-188.22046 0z" fill-rule="evenodd"/><path fill="#000000" d="m349.9502 203.74263q0 0.78125 -0.25 1.390625q-0.234375 0.609375 -0.71875 1.046875q-0.484375 0.4375 -1.1875 0.65625q-0.703125 0.21875 -1.578125 0.21875l-1.03125 0l0 3.734375l-2.40625 0l0 -9.640625l3.9375 0q0.703125 0 1.125 0.0625q0.421875 0.046875 0.71875 0.171875q0.3125 0.125 0.59375 0.328125q0.796875 0.640625 0.796875 2.03125zm-2.59375 0.21875q0 -1.203125 -1.5 -1.203125l-0.671875 0l0 2.84375l0.3125 0q0.875 0 1.359375 -0.421875q0.5 -0.4375 0.5 -1.21875zm9.400238 1.71875q-0.296875 -0.125 -0.484375 -0.15625q-0.171875 -0.03125 -0.5 -0.03125q-0.5625 0 -0.953125 0.21875q-0.390625 0.203125 -0.71875 0.671875l0 4.40625l-2.5625 0l0 -7.21875l2.5625 0l0 1.359375l0.03125 0q0.109375 -0.34375 0.40625 -0.671875q0.3125 -0.328125 0.75 -0.578125q0.5 -0.28125 1.15625 -0.28125q0.1875 0 0.3125 0.046875l0 2.234375zm8.8359375 1.5q0 0.875 -0.28125 1.578125q-0.265625 0.6875 -0.796875 1.1875q-0.515625 0.5 -1.25 0.75q-0.734375 0.25 -1.640625 0.25q-0.9375 0 -1.6875 -0.25q-0.75 -0.25 -1.296875 -0.734375q-0.53125 -0.5 -0.8125 -1.203125q-0.265625 -0.71875 -0.265625 -1.59375q0 -0.859375 0.265625 -1.5625q0.28125 -0.71875 0.796875 -1.203125q0.53125 -0.484375 1.265625 -0.734375q0.734375 -0.265625 1.671875 -0.265625q0.953125 0 1.6875 0.265625q0.75 0.25 1.265625 0.734375q0.53125 0.484375 0.796875 1.1875q0.28125 0.6875 0.28125 1.59375zm-2.734375 -0.015625q0 -1.046875 -0.359375 -1.671875q-0.359375 -0.640625 -0.9375 -0.640625q-0.375 0 -0.65625 0.296875q-0.28125 0.28125 -0.453125 0.828125q-0.15625 0.53125 -0.15625 1.203125q0 0.65625 0.15625 1.203125q0.15625 0.53125 0.4375 0.828125q0.296875 0.296875 0.671875 0.296875q0.578125 0 0.9375 -0.640625q0.359375 -0.65625 0.359375 -1.703125zm10.618866 3.625l-2.796875 0l-1.125 -1.953125l-1.265625 1.953125l-1.890625 0l2.25 -3.53125l-2.140625 -3.6875l2.796875 0l1.046875 1.84375l1.09375 -1.84375l1.859375 0l-2.015625 3.4375l2.1875 3.78125zm8.599915 -7.21875l-4.703125 9.796875l-2.65625 0l1.96875 -2.578125l-2.84375 -7.21875l2.765625 0l1.65625 4.203125l2.03125 -4.203125l1.78125 0z" fill-rule="nonzero"/><path fill="#000000" fill-opacity="0.0" d="m284.6929 116.154854l0 37.463066l115.08664 0l0 37.466064" fill-rule="evenodd"/><path stroke="#000000" stroke-width="3.0" stroke-linejoin="round" stroke-linecap="butt" d="m284.6929 134.15486l0 19.463058l115.08664 0l0 37.466064" fill-rule="evenodd"/><path stroke="#000000" stroke-width="3.0" stroke-linecap="butt" d="m289.6481 134.15486l-4.9552 -13.614296l-4.9552 13.614296z" fill-rule="evenodd"/><path fill="#000000" fill-opacity="0.0" d="m235.17586 116.154854l0 37.463066l-115.08662 0l0 37.466064" fill-rule="evenodd"/><path stroke="#000000" stroke-width="3.0" stroke-linejoin="round" stroke-linecap="butt" d="m235.17586 134.15486l0 19.463058l-115.08662 0l0 37.466064" fill-rule="evenodd"/><path stroke="#000000" stroke-width="3.0" stroke-linecap="butt" d="m240.13106 134.15486l-4.9552 -13.614296l-4.9552 13.614296z" fill-rule="evenodd"/><path fill="#000000" fill-opacity="0.0" d="m198.5748 202.70079l23.496063 0l0 30.992126l-23.496063 0z" fill-rule="evenodd"/><path fill="#000000" d="m212.54355 224.5008l-1.171875 0l0 -7.46875q-0.421875 0.40625 -1.109375 0.8125q-0.6875 0.40625 -1.234375 0.609375l0 -1.140625q0.984375 -0.453125 1.71875 -1.109375q0.734375 -0.671875 1.03125 -1.28125l0.765625 0l0 9.578125z" fill-rule="nonzero"/><path fill="#000000" fill-opacity="0.0" d="m267.83466 222.08661l188.22046 0l0 44.692932l-188.22046 0z" fill-rule="evenodd"/><path stroke="#000000" stroke-width="2.0" stroke-linejoin="round" stroke-linecap="butt" d="m267.83466 222.08661l188.22046 0l0 44.692932l-188.22046 0z" fill-rule="evenodd"/><path fill="#000000" d="m282.66794 245.70181l0 -0.96875l2.890625 0l0 0.96875l-2.890625 0z" fill-rule="nonzero"/><path fill="#000000" d="m291.7818 249.23306l0 -7.0625l1.28125 0l0 1.328125q0.359375 -0.71875 0.9375 -1.09375q0.59375 -0.390625 1.28125 -0.390625q0.1875 0 0.40625 0.03125l0 1.1875q-0.328125 -0.109375 -0.59375 -0.109375q-0.59375 0 -1.109375 0.375q-0.515625 0.359375 -0.921875 1.078125l0 4.65625l-1.28125 0zm10.641083 -0.234375q-1.296875 0.390625 -2.21875 0.390625q-1.640625 0 -2.59375 -1.109375q-0.9375 -1.109375 -0.9375 -2.609375q0 -1.0 0.421875 -1.890625q0.421875 -0.90625 1.09375 -1.34375q0.671875 -0.4375 1.578125 -0.4375q1.21875 0 1.953125 0.890625q0.734375 0.875 0.734375 2.625l-0.015625 0.390625l-4.453125 0q0.109375 0.9375 0.40625 1.453125q0.296875 0.5 0.796875 0.78125q0.5 0.28125 1.265625 0.28125q0.390625 0 0.765625 -0.0625q0.390625 -0.078125 1.203125 -0.375l0 1.015625zm-4.375 -4.0625l3.109375 0q0 -1.0625 -0.421875 -1.515625q-0.40625 -0.453125 -1.046875 -0.453125q-0.734375 0 -1.15625 0.5q-0.40625 0.484375 -0.484375 1.46875zm10.253632 3.40625q-0.5625 0.515625 -1.125 0.78125q-0.5625 0.265625 -1.09375 0.265625q-0.75 0 -1.390625 -0.484375q-0.640625 -0.5 -0.640625 -1.453125q0 -1.03125 0.890625 -1.703125q0.90625 -0.6875 2.875 -0.6875l0.296875 0l0 -0.859375q0 -0.5 -0.140625 -0.734375q-0.125 -0.234375 -0.421875 -0.359375q-0.28125 -0.140625 -0.71875 -0.140625q-1.0 0 -2.171875 0.625l0 -1.0625q1.296875 -0.515625 2.4375 -0.515625q0.625 0 1.140625 0.203125q0.53125 0.1875 0.84375 0.625q0.3125 0.421875 0.3125 1.359375l0 3.203125q0 0.53125 0.078125 0.71875q0.09375 0.1875 0.25 0.28125q0.15625 0.09375 0.359375 0.09375q0.078125 0 0.234375 -0.015625l0.09375 0.703125q-0.4375 0.203125 -0.953125 0.203125q-0.359375 0 -0.6875 -0.21875q-0.328125 -0.234375 -0.46875 -0.828125zm-0.1875 -0.703125l0 -1.828125l-0.40625 -0.015625q-1.015625 0 -1.703125 0.390625q-0.671875 0.390625 -0.671875 1.0625q0 0.46875 0.328125 0.78125q0.34375 0.3125 0.796875 0.3125q0.390625 0 0.8125 -0.171875q0.421875 -0.1875 0.84375 -0.53125zm3.9072876 1.59375l0 -10.28125l1.28125 0l0 10.28125l-1.28125 0zm3.2276611 -0.1875l0 -1.34375q1.15625 0.53125 1.6875 0.640625q0.53125 0.109375 0.984375 0.109375q0.828125 0 1.296875 -0.453125q0.484375 -0.453125 0.484375 -1.078125q0 -0.484375 -0.234375 -0.890625q-0.265625 -0.390625 -1.265625 -0.96875l-0.671875 -0.375q-1.328125 -0.75 -1.78125 -1.375q-0.453125 -0.625 -0.453125 -1.390625q0 -0.6875 0.359375 -1.28125q0.359375 -0.609375 0.96875 -0.9375q0.609375 -0.34375 1.53125 -0.34375q1.109375 0 2.359375 0.375l0 1.25q-1.078125 -0.421875 -1.484375 -0.5q-0.390625 -0.09375 -0.796875 -0.09375q-0.828125 0 -1.234375 0.4375q-0.390625 0.421875 -0.390625 0.890625q0 0.3125 0.1875 0.640625q0.1875 0.3125 0.5 0.546875q0.328125 0.21875 0.875 0.546875l0.703125 0.390625q1.328125 0.75 1.78125 1.390625q0.453125 0.640625 0.453125 1.46875q0 1.125 -0.859375 1.953125q-0.859375 0.8125 -2.515625 0.8125q-0.515625 0 -1.0 -0.0625q-0.484375 -0.0625 -1.484375 -0.359375zm12.225067 0.1875l0 -1.328125q-0.5 0.71875 -1.140625 1.109375q-0.640625 0.375 -1.34375 0.375q-0.890625 0 -1.453125 -0.5625q-0.5625 -0.5625 -0.5625 -1.578125l0 -5.078125l1.28125 0l0 4.65625q0 0.734375 0.125 0.96875q0.140625 0.234375 0.375 0.375q0.234375 0.125 0.5 0.125q0.46875 0 1.015625 -0.296875q0.5625 -0.296875 1.203125 -1.25l0 -4.578125l1.28125 0l0 7.0625l-1.28125 0zm3.84964 0.078125l0 -10.359375l1.28125 0l0 4.546875q0.40625 -0.75 0.984375 -1.109375q0.59375 -0.375 1.375 -0.375q1.3125 0 2.03125 0.96875q0.71875 0.953125 0.71875 2.5q0 1.671875 -0.8125 2.796875q-0.8125 1.109375 -2.21875 1.109375q-0.40625 0 -0.78125 -0.09375q-0.359375 -0.09375 -0.65625 -0.265625q-0.28125 -0.1875 -0.640625 -0.59375l-0.15625 0.875l-1.125 0zm1.28125 -1.765625q0.65625 0.59375 1.046875 0.75q0.390625 0.140625 0.84375 0.140625q0.9375 0 1.390625 -0.796875q0.453125 -0.796875 0.453125 -2.03125q0 -1.140625 -0.40625 -1.8125q-0.390625 -0.671875 -1.234375 -0.671875q-0.53125 0 -1.0625 0.296875q-0.515625 0.28125 -1.03125 0.875l0 3.25zm4.8261414 4.09375l0 -1.015625q0.890625 0.375 1.359375 0.375q0.328125 0 0.578125 -0.125q0.265625 -0.125 0.40625 -0.390625q0.140625 -0.25 0.140625 -1.25l0 -7.0625l1.28125 0l0 7.0625q0 1.078125 -0.265625 1.59375q-0.265625 0.53125 -0.796875 0.828125q-0.53125 0.3125 -1.234375 0.3125q-0.6875 0 -1.46875 -0.328125zm2.484375 -10.75l0 -1.28125l1.28125 0l0 1.28125l-1.28125 0zm9.038788 8.109375q-1.296875 0.390625 -2.21875 0.390625q-1.640625 0 -2.59375 -1.109375q-0.9375 -1.109375 -0.9375 -2.609375q0 -1.0 0.421875 -1.890625q0.421875 -0.90625 1.09375 -1.34375q0.671875 -0.4375 1.578125 -0.4375q1.21875 0 1.953125 0.890625q0.734375 0.875 0.734375 2.625l-0.015625 0.390625l-4.453125 0q0.109375 0.9375 0.40625 1.453125q0.296875 0.5 0.796875 0.78125q0.5 0.28125 1.265625 0.28125q0.390625 0 0.765625 -0.0625q0.390625 -0.078125 1.203125 -0.375l0 1.015625zm-4.375 -4.0625l3.109375 0q0 -1.0625 -0.421875 -1.515625q-0.40625 -0.453125 -1.046875 -0.453125q-0.734375 0 -1.15625 0.5q-0.40625 0.484375 -0.484375 1.46875zm11.519257 4.078125q-1.234375 0.375 -2.140625 0.375q-0.953125 0 -1.75 -0.5q-0.78125 -0.515625 -1.1875 -1.34375q-0.390625 -0.84375 -0.390625 -1.890625q0 -1.5625 0.859375 -2.59375q0.875 -1.046875 2.6875 -1.046875q0.828125 0 1.84375 0.21875l0 1.078125q-1.078125 -0.3125 -1.765625 -0.3125q-1.078125 0 -1.625 0.796875q-0.546875 0.796875 -0.546875 1.90625q0 1.1875 0.609375 1.921875q0.609375 0.734375 1.59375 0.734375q0.890625 0 1.8125 -0.453125l0 1.109375zm5.0767517 0.21875q-0.59375 0.15625 -1.03125 0.15625q-0.953125 0 -1.515625 -0.546875q-0.5625 -0.546875 -0.5625 -1.5625l0 -4.15625l-0.875 0l0 -0.953125l0.875 0l0 -1.28125l1.28125 -0.125l0 1.40625l1.859375 0l0 0.953125l-1.859375 0l0 3.921875q0 0.75 0.28125 1.078125q0.296875 0.3125 0.921875 0.3125q0.25 0 0.625 -0.09375l0 0.890625zm2.0162964 0l0 -1.28125l1.28125 0l0 1.28125l-1.28125 0zm0 -5.78125l0 -1.28125l1.28125 0l0 1.28125l-1.28125 0zm8.215454 5.78125l0 -9.625l2.90625 0q1.625 0 2.234375 0.71875q0.625 0.71875 0.625 1.65625q0 0.546875 -0.21875 1.09375q-0.21875 0.53125 -0.625 0.953125q-0.40625 0.40625 -1.09375 0.6875l3.21875 4.515625l-1.6875 0l-2.734375 -4.078125l-1.28125 0l0 4.078125l-1.34375 0zm1.34375 -5.09375l0.453125 0q1.515625 0 2.03125 -0.625q0.53125 -0.640625 0.53125 -1.390625q0 -0.453125 -0.203125 -0.78125q-0.1875 -0.34375 -0.609375 -0.53125q-0.421875 -0.1875 -1.34375 -0.1875l-0.859375 0l0 3.515625zm12.302704 4.859375q-1.296875 0.390625 -2.21875 0.390625q-1.640625 0 -2.59375 -1.109375q-0.9375 -1.109375 -0.9375 -2.609375q0 -1.0 0.421875 -1.890625q0.421875 -0.90625 1.09375 -1.34375q0.671875 -0.4375 1.578125 -0.4375q1.21875 0 1.953125 0.890625q0.734375 0.875 0.734375 2.625l-0.015625 0.390625l-4.453125 0q0.109375 0.9375 0.40625 1.453125q0.296875 0.5 0.796875 0.78125q0.5 0.28125 1.265625 0.28125q0.390625 0 0.765625 -0.0625q0.390625 -0.078125 1.203125 -0.375l0 1.015625zm-4.375 -4.0625l3.109375 0q0 -1.0625 -0.421875 -1.515625q-0.40625 -0.453125 -1.046875 -0.453125q-0.734375 0 -1.15625 0.5q-0.40625 0.484375 -0.484375 1.46875zm10.253601 3.40625q-0.5625 0.515625 -1.125 0.78125q-0.5625 0.265625 -1.09375 0.265625q-0.75 0 -1.390625 -0.484375q-0.640625 -0.5 -0.640625 -1.453125q0 -1.03125 0.890625 -1.703125q0.90625 -0.6875 2.875 -0.6875l0.296875 0l0 -0.859375q0 -0.5 -0.140625 -0.734375q-0.125 -0.234375 -0.421875 -0.359375q-0.28125 -0.140625 -0.71875 -0.140625q-1.0 0 -2.171875 0.625l0 -1.0625q1.296875 -0.515625 2.4375 -0.515625q0.625 0 1.140625 0.203125q0.53125 0.1875 0.84375 0.625q0.3125 0.421875 0.3125 1.359375l0 3.203125q0 0.53125 0.078125 0.71875q0.09375 0.1875 0.25 0.28125q0.15625 0.09375 0.359375 0.09375q0.078125 0 0.234375 -0.015625l0.09375 0.703125q-0.4375 0.203125 -0.953125 0.203125q-0.359375 0 -0.6875 -0.21875q-0.328125 -0.234375 -0.46875 -0.828125zm-0.1875 -0.703125l0 -1.828125l-0.40625 -0.015625q-1.015625 0 -1.703125 0.390625q-0.671875 0.390625 -0.671875 1.0625q0 0.46875 0.328125 0.78125q0.34375 0.3125 0.796875 0.3125q0.390625 0 0.8125 -0.171875q0.421875 -0.1875 0.84375 -0.53125zm3.9072876 1.59375l0 -10.28125l1.2812805 0l0 10.28125l-1.2812805 0zm3.2276917 -0.1875l0 -1.34375q1.15625 0.53125 1.6875 0.640625q0.53125 0.109375 0.984375 0.109375q0.828125 0 1.296875 -0.453125q0.484375 -0.453125 0.484375 -1.078125q0 -0.484375 -0.234375 -0.890625q-0.265625 -0.390625 -1.265625 -0.96875l-0.671875 -0.375q-1.328125 -0.75 -1.78125 -1.375q-0.453125 -0.625 -0.453125 -1.390625q0 -0.6875 0.359375 -1.28125q0.359375 -0.609375 0.96875 -0.9375q0.609375 -0.34375 1.53125 -0.34375q1.109375 0 2.359375 0.375l0 1.25q-1.078125 -0.421875 -1.484375 -0.5q-0.390625 -0.09375 -0.796875 -0.09375q-0.828125 0 -1.234375 0.4375q-0.390625 0.421875 -0.390625 0.890625q0 0.3125 0.1875 0.640625q0.1875 0.3125 0.5 0.546875q0.328125 0.21875 0.875 0.546875l0.703125 0.390625q1.328125 0.75 1.78125 1.390625q0.453125 0.640625 0.453125 1.46875q0 1.125 -0.859375 1.953125q-0.859375 0.8125 -2.515625 0.8125q-0.515625 0 -1.0 -0.0625q-0.484375 -0.0625 -1.484375 -0.359375zm12.225067 0.1875l0 -1.328125q-0.5 0.71875 -1.140625 1.109375q-0.640625 0.375 -1.34375 0.375q-0.890625 0 -1.453125 -0.5625q-0.5625 -0.5625 -0.5625 -1.578125l0 -5.078125l1.28125 0l0 4.65625q0 0.734375 0.125 0.96875q0.140625 0.234375 0.375 0.375q0.234375 0.125 0.5 0.125q0.46875 0 1.015625 -0.296875q0.5625 -0.296875 1.203125 -1.25l0 -4.578125l1.28125 0l0 7.0625l-1.28125 0zm3.84964 0.078125l0 -10.359375l1.28125 0l0 4.546875q0.40625 -0.75 0.984375 -1.109375q0.59375 -0.375 1.375 -0.375q1.3125 0 2.03125 0.96875q0.71875 0.953125 0.71875 2.5q0 1.671875 -0.8125 2.796875q-0.8125 1.109375 -2.21875 1.109375q-0.40625 0 -0.78125 -0.09375q-0.359375 -0.09375 -0.65625 -0.265625q-0.28125 -0.1875 -0.640625 -0.59375l-0.15625 0.875l-1.125 0zm1.28125 -1.765625q0.65625 0.59375 1.046875 0.75q0.390625 0.140625 0.84375 0.140625q0.9375 0 1.390625 -0.796875q0.453125 -0.796875 0.453125 -2.03125q0 -1.140625 -0.40625 -1.8125q-0.390625 -0.671875 -1.234375 -0.671875q-0.53125 0 -1.0625 0.296875q-0.515625 0.28125 -1.03125 0.875l0 3.25zm4.8261414 4.09375l0 -1.015625q0.890625 0.375 1.359375 0.375q0.328125 0 0.578125 -0.125q0.265625 -0.125 0.40625 -0.390625q0.140625 -0.25 0.140625 -1.25l0 -7.0625l1.28125 0l0 7.0625q0 1.078125 -0.265625 1.59375q-0.265625 0.53125 -0.796875 0.828125q-0.53125 0.3125 -1.234375 0.3125q-0.6875 0 -1.46875 -0.328125zm2.484375 -10.75l0 -1.28125l1.28125 0l0 1.28125l-1.28125 0zm9.038788 8.109375q-1.296875 0.390625 -2.21875 0.390625q-1.640625 0 -2.59375 -1.109375q-0.9375 -1.109375 -0.9375 -2.609375q0 -1.0 0.421875 -1.890625q0.421875 -0.90625 1.09375 -1.34375q0.671875 -0.4375 1.578125 -0.4375q1.21875 0 1.953125 0.890625q0.734375 0.875 0.734375 2.625l-0.015625 0.390625l-4.453125 0q0.109375 0.9375 0.40625 1.453125q0.296875 0.5 0.796875 0.78125q0.5 0.28125 1.265625 0.28125q0.390625 0 0.765625 -0.0625q0.390625 -0.078125 1.203125 -0.375l0 1.015625zm-4.375 -4.0625l3.109375 0q0 -1.0625 -0.421875 -1.515625q-0.40625 -0.453125 -1.046875 -0.453125q-0.734375 0 -1.15625 0.5q-0.40625 0.484375 -0.484375 1.46875zm11.519257 4.078125q-1.234375 0.375 -2.140625 0.375q-0.953125 0 -1.75 -0.5q-0.78125 -0.515625 -1.1875 -1.34375q-0.390625 -0.84375 -0.390625 -1.890625q0 -1.5625 0.859375 -2.59375q0.875 -1.046875 2.6875 -1.046875q0.828125 0 1.84375 0.21875l0 1.078125q-1.078125 -0.3125 -1.765625 -0.3125q-1.078125 0 -1.625 0.796875q-0.546875 0.796875 -0.546875 1.90625q0 1.1875 0.609375 1.921875q0.609375 0.734375 1.59375 0.734375q0.890625 0 1.8125 -0.453125l0 1.109375zm5.0767517 0.21875q-0.59375 0.15625 -1.03125 0.15625q-0.953125 0 -1.515625 -0.546875q-0.5625 -0.546875 -0.5625 -1.5625l0 -4.15625l-0.875 0l0 -0.953125l0.875 0l0 -1.28125l1.28125 -0.125l0 1.40625l1.859375 0l0 0.953125l-1.859375 0l0 3.921875q0 0.75 0.28125 1.078125q0.296875 0.3125 0.921875 0.3125q0.25 0 0.625 -0.09375l0 0.890625z" fill-rule="nonzero"/><path fill="#000000" fill-opacity="0.0" d="m152.79527 55.32546l188.22047 0l0 29.82677l-188.22047 0z" fill-rule="evenodd"/><path stroke="#000000" stroke-width="2.0" stroke-linejoin="round" stroke-linecap="butt" d="m152.79527 55.32546l188.22047 0l0 29.82677l-188.22047 0z" fill-rule="evenodd"/><path fill="#000000" d="m163.6234 77.158844l0 -2.25l2.25 0l0 2.25l-2.25 0zm5.902954 0l0 -2.25l2.25 0l0 2.25l-2.25 0zm5.902954 0l0 -2.25l2.25 0l0 2.25l-2.25 0z" fill-rule="nonzero"/><path fill="#000000" fill-opacity="0.0" d="m10.3412075 222.08661l188.22047 0l0 29.826782l-188.22047 0z" fill-rule="evenodd"/><path stroke="#000000" stroke-width="2.0" stroke-linejoin="round" stroke-linecap="butt" d="m10.3412075 222.08661l188.22047 0l0 29.826782l-188.22047 0z" fill-rule="evenodd"/><path fill="#000000" d="m21.169333 243.92l0 -2.25l2.25 0l0 2.25l-2.25 0zm5.902954 0l0 -2.25l2.25 0l0 2.25l-2.25 0zm5.902952 0l0 -2.25l2.25 0l0 2.25l-2.25 0z" fill-rule="nonzero"/><path fill="#000000" fill-opacity="0.0" d="m267.83466 267.96326l188.22046 0l0 30.992126l-188.22046 0z" fill-rule="evenodd"/><path stroke="#000000" stroke-width="2.0" stroke-linejoin="round" stroke-linecap="butt" d="m267.83466 267.96326l188.22046 0l0 30.992126l-188.22046 0z" fill-rule="evenodd"/><path fill="#000000" d="m280.56903 287.9468l0 -3.0625l-3.046875 0l0 -0.953125l3.046875 0l0 -3.0625l0.96875 0l0 3.0625l3.046875 0l0 0.953125l-3.046875 0l0 3.0625l-0.96875 0zm10.191681 0.3125l0 -7.0625l1.28125 0l0 1.328125q0.359375 -0.71875 0.9375 -1.09375q0.59375 -0.390625 1.28125 -0.390625q0.1875 0 0.40625 0.03125l0 1.1875q-0.328125 -0.109375 -0.59375 -0.109375q-0.59375 0 -1.109375 0.375q-0.515625 0.359375 -0.921875 1.078125l0 4.65625l-1.28125 0zm10.641083 -0.234375q-1.296875 0.390625 -2.21875 0.390625q-1.640625 0 -2.59375 -1.109375q-0.9375 -1.109375 -0.9375 -2.609375q0 -1.0 0.421875 -1.890625q0.421875 -0.90625 1.09375 -1.34375q0.671875 -0.4375 1.578125 -0.4375q1.21875 0 1.953125 0.890625q0.734375 0.875 0.734375 2.625l-0.015625 0.390625l-4.453125 0q0.109375 0.9375 0.40625 1.453125q0.296875 0.5 0.796875 0.78125q0.5 0.28125 1.265625 0.28125q0.390625 0 0.765625 -0.0625q0.390625 -0.078125 1.203125 -0.375l0 1.015625zm-4.375 -4.0625l3.109375 0q0 -1.0625 -0.421875 -1.515625q-0.40625 -0.453125 -1.046875 -0.453125q-0.734375 0 -1.15625 0.5q-0.40625 0.484375 -0.484375 1.46875zm11.144257 6.875l0 -3.90625q-0.390625 0.75 -0.984375 1.125q-0.578125 0.359375 -1.359375 0.359375q-1.3125 0 -2.03125 -0.953125q-0.71875 -0.953125 -0.71875 -2.515625q0 -1.671875 0.8125 -2.78125q0.8125 -1.125 2.203125 -1.125q0.40625 0 0.78125 0.09375q0.375 0.09375 0.65625 0.28125q0.296875 0.171875 0.640625 0.578125l0 -0.796875l1.296875 0l0 9.640625l-1.296875 0zm0 -7.953125q-0.65625 -0.59375 -1.046875 -0.734375q-0.390625 -0.15625 -0.828125 -0.15625q-0.9375 0 -1.390625 0.796875q-0.453125 0.78125 -0.453125 2.03125q0 1.140625 0.390625 1.8125q0.40625 0.65625 1.25 0.65625q0.53125 0 1.046875 -0.28125q0.53125 -0.296875 1.03125 -0.875l0 -3.25zm8.279266 5.375l0 -1.328125q-0.5 0.71875 -1.140625 1.109375q-0.640625 0.375 -1.34375 0.375q-0.890625 0 -1.453125 -0.5625q-0.5625 -0.5625 -0.5625 -1.578125l0 -5.078125l1.28125 0l0 4.65625q0 0.734375 0.125 0.96875q0.140625 0.234375 0.375 0.375q0.234375 0.125 0.5 0.125q0.46875 0 1.015625 -0.296875q0.5625 -0.296875 1.203125 -1.25l0 -4.578125l1.28125 0l0 7.0625l-1.28125 0zm9.03714 -0.234375q-1.296875 0.390625 -2.21875 0.390625q-1.640625 0 -2.59375 -1.109375q-0.9375 -1.109375 -0.9375 -2.609375q0 -1.0 0.421875 -1.890625q0.421875 -0.90625 1.09375 -1.34375q0.671875 -0.4375 1.578125 -0.4375q1.21875 0 1.953125 0.890625q0.734375 0.875 0.734375 2.625l-0.015625 0.390625l-4.453125 0q0.109375 0.9375 0.40625 1.453125q0.296875 0.5 0.796875 0.78125q0.5 0.28125 1.265625 0.28125q0.390625 0 0.765625 -0.0625q0.390625 -0.078125 1.203125 -0.375l0 1.015625zm-4.375 -4.0625l3.109375 0q0 -1.0625 -0.421875 -1.515625q-0.40625 -0.453125 -1.046875 -0.453125q-0.734375 0 -1.15625 0.5q-0.40625 0.484375 -0.484375 1.46875zm6.3473816 4.046875l0 -1.171875q1.265625 0.625 2.1875 0.625q0.546875 0 0.90625 -0.296875q0.375 -0.3125 0.375 -0.75q0 -0.28125 -0.171875 -0.546875q-0.1875 -0.265625 -0.84375 -0.546875l-0.75 -0.3125q-0.859375 -0.359375 -1.265625 -0.84375q-0.390625 -0.46875 -0.390625 -1.140625q0 -0.859375 0.609375 -1.421875q0.625 -0.5625 1.828125 -0.5625q0.59375 0 1.46875 0.15625l0.265625 0.046875l0 1.078125q-1.0625 -0.328125 -1.703125 -0.328125q-0.625 0 -0.9375 0.265625q-0.296875 0.265625 -0.296875 0.640625q0 0.28125 0.203125 0.515625q0.203125 0.234375 0.734375 0.453125l0.625 0.265625q1.234375 0.53125 1.578125 1.046875q0.328125 0.5 0.328125 1.109375q0 0.578125 -0.3125 1.078125q-0.3125 0.5 -0.9375 0.78125q-0.609375 0.265625 -1.359375 0.265625q-0.875 0 -2.140625 -0.40625zm10.216095 0.25q-0.59375 0.15625 -1.03125 0.15625q-0.953125 0 -1.515625 -0.546875q-0.5625 -0.546875 -0.5625 -1.5625l0 -4.15625l-0.875 0l0 -0.953125l0.875 0l0 -1.28125l1.28125 -0.125l0 1.40625l1.859375 0l0 0.953125l-1.859375 0l0 3.921875q0 0.75 0.28125 1.078125q0.296875 0.3125 0.921875 0.3125q0.25 0 0.625 -0.09375l0 0.890625zm4.406891 1.046875l0 0.875q-1.0625 -0.71875 -1.71875 -1.71875q-0.65625 -1.0 -1.0 -2.140625q-0.34375 -1.140625 -0.34375 -2.234375q0 -1.09375 0.34375 -2.234375q0.34375 -1.140625 1.0 -2.140625q0.65625 -1.0 1.71875 -1.734375l0 0.890625q-0.734375 0.796875 -1.09375 1.546875q-0.34375 0.75 -0.515625 1.6875q-0.171875 0.9375 -0.171875 1.984375q0 1.03125 0.171875 1.984375q0.171875 0.9375 0.515625 1.6875q0.359375 0.734375 1.09375 1.546875zm0.95925903 -10.4375l0 -0.890625q1.0625 0.734375 1.71875 1.734375q0.65625 1.0 0.984375 2.140625q0.34375 1.140625 0.34375 2.234375q0 1.09375 -0.34375 2.234375q-0.328125 1.140625 -0.984375 2.140625q-0.65625 1.0 -1.71875 1.71875l0 -0.875q0.734375 -0.8125 1.078125 -1.546875q0.359375 -0.75 0.515625 -1.6875q0.171875 -0.953125 0.171875 -1.984375q0 -1.03125 -0.171875 -1.96875q-0.15625 -0.953125 -0.515625 -1.703125q-0.34375 -0.75 -1.078125 -1.546875z" fill-rule="nonzero"/><path fill="#000000" fill-opacity="0.0" d="m267.83466 205.9895l-69.25986 0.5984192" fill-rule="evenodd"/><path stroke="#000000" stroke-width="2.0" stroke-linejoin="round" stroke-linecap="butt" d="m267.83466 205.9895l-62.40593 0.5391998" fill-rule="evenodd"/><path fill="#000000" stroke="#000000" stroke-width="2.0" stroke-linecap="butt" d="m205.42873 206.5287l2.2296448 -2.268509l-6.1598663 2.302475l6.1987305 2.195694z" fill-rule="evenodd"/><path fill="#000000" fill-opacity="0.0" d="m10.354331 251.91602l188.22047 0l0 30.992126l-188.22047 0z" fill-rule="evenodd"/><path stroke="#000000" stroke-width="2.0" stroke-linejoin="round" stroke-linecap="butt" d="m10.354331 251.91602l188.22047 0l0 30.992126l-188.22047 0z" fill-rule="evenodd"/><path fill="#000000" d="m23.088705 271.89957l0 -3.0625l-3.046875 0l0 -0.953125l3.046875 0l0 -3.0625l0.96875 0l0 3.0625l3.046875 0l0 0.953125l-3.046875 0l0 3.0625l-0.96875 0zm10.191683 0.3125l0 -7.0625l1.28125 0l0 1.328125q0.359375 -0.71875 0.9375 -1.09375q0.59375 -0.390625 1.28125 -0.390625q0.1875 0 0.40625 0.03125l0 1.1875q-0.328125 -0.109375 -0.59375 -0.109375q-0.59375 0 -1.109375 0.375q-0.515625 0.359375 -0.921875 1.078125l0 4.65625l-1.28125 0zm10.641098 -0.234375q-1.296875 0.390625 -2.21875 0.390625q-1.640625 0 -2.59375 -1.109375q-0.9375 -1.109375 -0.9375 -2.609375q0 -1.0 0.421875 -1.890625q0.421875 -0.90625 1.09375 -1.34375q0.671875 -0.4375 1.578125 -0.4375q1.21875 0 1.953125 0.890625q0.734375 0.875 0.734375 2.625l-0.015625 0.390625l-4.453125 0q0.109375 0.9375 0.40625 1.453125q0.296875 0.5 0.796875 0.78125q0.5 0.28125 1.265625 0.28125q0.390625 0 0.765625 -0.0625q0.390625 -0.078125 1.203125 -0.375l0 1.015625zm-4.375 -4.0625l3.109375 0q0 -1.0625 -0.421875 -1.515625q-0.40625 -0.453125 -1.046875 -0.453125q-0.734375 0 -1.15625 0.5q-0.40625 0.484375 -0.484375 1.46875zm11.144241 6.875l0 -3.90625q-0.390625 0.75 -0.984375 1.125q-0.578125 0.359375 -1.359375 0.359375q-1.3125 0 -2.03125 -0.953125q-0.71875 -0.953125 -0.71875 -2.515625q0 -1.671875 0.8125 -2.78125q0.8125 -1.125 2.203125 -1.125q0.40625 0 0.78125 0.09375q0.375 0.09375 0.65625 0.28125q0.296875 0.171875 0.640625 0.578125l0 -0.796875l1.296875 0l0 9.640625l-1.296875 0zm0 -7.953125q-0.65625 -0.59375 -1.046875 -0.734375q-0.390625 -0.15625 -0.828125 -0.15625q-0.9375 0 -1.390625 0.796875q-0.453125 0.78125 -0.453125 2.03125q0 1.140625 0.390625 1.8125q0.40625 0.65625 1.25 0.65625q0.53125 0 1.046875 -0.28125q0.53125 -0.296875 1.03125 -0.875l0 -3.25zm8.279282 5.375l0 -1.328125q-0.5 0.71875 -1.140625 1.109375q-0.640625 0.375 -1.34375 0.375q-0.890625 0 -1.453125 -0.5625q-0.5625 -0.5625 -0.5625 -1.578125l0 -5.078125l1.28125 0l0 4.65625q0 0.734375 0.125 0.96875q0.140625 0.234375 0.375 0.375q0.234375 0.125 0.5 0.125q0.46875 0 1.015625 -0.296875q0.5625 -0.296875 1.203125 -1.25l0 -4.578125l1.28125 0l0 7.0625l-1.28125 0zm9.03714 -0.234375q-1.296875 0.390625 -2.21875 0.390625q-1.640625 0 -2.59375 -1.109375q-0.9375 -1.109375 -0.9375 -2.609375q0 -1.0 0.421875 -1.890625q0.421875 -0.90625 1.09375 -1.34375q0.671875 -0.4375 1.578125 -0.4375q1.21875 0 1.953125 0.890625q0.734375 0.875 0.734375 2.625l-0.015625 0.390625l-4.453125 0q0.109375 0.9375 0.40625 1.453125q0.296875 0.5 0.796875 0.78125q0.5 0.28125 1.265625 0.28125q0.390625 0 0.765625 -0.0625q0.390625 -0.078125 1.203125 -0.375l0 1.015625zm-4.375 -4.0625l3.109375 0q0 -1.0625 -0.421875 -1.515625q-0.40625 -0.453125 -1.046875 -0.453125q-0.734375 0 -1.15625 0.5q-0.40625 0.484375 -0.484375 1.46875zm6.3473663 4.046875l0 -1.171875q1.265625 0.625 2.1875 0.625q0.546875 0 0.90625 -0.296875q0.375 -0.3125 0.375 -0.75q0 -0.28125 -0.171875 -0.546875q-0.1875 -0.265625 -0.84375 -0.546875l-0.75 -0.3125q-0.859375 -0.359375 -1.265625 -0.84375q-0.390625 -0.46875 -0.390625 -1.140625q0 -0.859375 0.609375 -1.421875q0.625 -0.5625 1.828125 -0.5625q0.59375 0 1.46875 0.15625l0.265625 0.046875l0 1.078125q-1.0625 -0.328125 -1.703125 -0.328125q-0.625 0 -0.9375 0.265625q-0.296875 0.265625 -0.296875 0.640625q0 0.28125 0.203125 0.515625q0.203125 0.234375 0.734375 0.453125l0.625 0.265625q1.234375 0.53125 1.578125 1.046875q0.328125 0.5 0.328125 1.109375q0 0.578125 -0.3125 1.078125q-0.3125 0.5 -0.9375 0.78125q-0.609375 0.265625 -1.359375 0.265625q-0.875 0 -2.140625 -0.40625zm10.216095 0.25q-0.59375 0.15625 -1.03125 0.15625q-0.953125 0 -1.515625 -0.546875q-0.5625 -0.546875 -0.5625 -1.5625l0 -4.15625l-0.875 0l0 -0.953125l0.875 0l0 -1.28125l1.28125 -0.125l0 1.40625l1.859375 0l0 0.953125l-1.859375 0l0 3.921875q0 0.75 0.28125 1.078125q0.296875 0.3125 0.921875 0.3125q0.25 0 0.625 -0.09375l0 0.890625zm4.406906 1.046875l0 0.875q-1.0625 -0.71875 -1.71875 -1.71875q-0.65625 -1.0 -1.0 -2.140625q-0.34375 -1.140625 -0.34375 -2.234375q0 -1.09375 0.34375 -2.234375q0.34375 -1.140625 1.0 -2.140625q0.65625 -1.0 1.71875 -1.734375l0 0.890625q-0.734375 0.796875 -1.09375 1.546875q-0.34375 0.75 -0.515625 1.6875q-0.171875 0.9375 -0.171875 1.984375q0 1.03125 0.171875 1.984375q0.171875 0.9375 0.515625 1.6875q0.359375 0.734375 1.09375 1.546875zm0.9592438 -10.4375l0 -0.890625q1.0625 0.734375 1.71875 1.734375q0.65625 1.0 0.984375 2.140625q0.34375 1.140625 0.34375 2.234375q0 1.09375 -0.34375 2.234375q-0.328125 1.140625 -0.984375 2.140625q-0.65625 1.0 -1.71875 1.71875l0 -0.875q0.734375 -0.8125 1.078125 -1.546875q0.359375 -0.75 0.515625 -1.6875q0.171875 -0.953125 0.171875 -1.984375q0 -1.03125 -0.171875 -1.96875q-0.15625 -0.953125 -0.515625 -1.703125q-0.34375 -0.75 -1.078125 -1.546875z" fill-rule="nonzero"/><path fill="#000000" fill-opacity="0.0" d="m244.33858 201.08661l23.496078 0l0 27.716537l-23.496078 0z" fill-rule="evenodd"/><path fill="#000000" d="m258.30734 222.88661l-1.171875 0l0 -7.46875q-0.421875 0.40625 -1.109375 0.8125q-0.68751526 0.40625 -1.2343903 0.609375l0 -1.140625q0.984375 -0.453125 1.7187653 -1.109375q0.734375 -0.671875 1.03125 -1.28125l0.765625 0l0 9.578125z" fill-rule="nonzero"/></g></svg>