<svg version="1.1" viewBox="0.0 0.0 505.0 336.0" fill="none" stroke="none" stroke-linecap="square" stroke-miterlimit="10" xmlns:xlink="http://www.w3.org/1999/xlink" xmlns="http://www.w3.org/2000/svg"><clipPath id="p.0"><path d="m0 0l505.0 0l0 336.0l-505.0 0l0 -336.0z" clip-rule="nonzero"/></clipPath><g clip-path="url(#p.0)"><path fill="#000000" fill-opacity="0.0" d="m0 0l505.0 0l0 336.0l-505.0 0z" fill-rule="evenodd"/><path fill="#000000" fill-opacity="0.0" d="m331.8924 230.93176l-67.49606 0" fill-rule="evenodd"/><path stroke="#000000" stroke-width="2.0" stroke-linejoin="round" stroke-linecap="butt" d="m331.8924 230.93176l-55.496063 0" fill-rule="evenodd"/><path stroke="#000000" stroke-width="2.0" stroke-linecap="butt" d="m276.39633 227.6283l-9.076202 3.3034668l9.076202 3.3034668z" fill-rule="evenodd"/><path fill="#000000" fill-opacity="0.0" d="m413.19946 84.28609l0 89.543304" fill-rule="evenodd"/><path stroke="#000000" stroke-width="2.0" stroke-linejoin="round" stroke-linecap="butt" stroke-dasharray="8.0,6.0" d="m413.19946 91.14027l0 82.689125" fill-rule="evenodd"/><path fill="#000000" stroke="#000000" stroke-width="2.0" stroke-linecap="butt" d="m413.19946 91.14026l2.249176 2.2491684l-2.249176 -6.179535l-2.2491455 6.179535z" fill-rule="evenodd"/><path fill="#000000" fill-opacity="0.0" d="m331.8924 7.2782154l162.61417 0l0 29.259844l-162.61417 0z" fill-rule="evenodd"/><path stroke="#000000" stroke-width="3.0" stroke-linejoin="round" stroke-linecap="butt" d="m331.8924 7.2782154l162.61417 0l0 29.259844l-162.61417 0z" fill-rule="evenodd"/><path fill="#000000" d="m393.45715 19.66126q0 0.78125 -0.25 1.390625q-0.234375 0.609375 -0.71875 1.046875q-0.484375 0.4375 -1.1875 0.65625q-0.703125 0.21875 -1.578125 0.21875l-1.03125 0l0 3.734375l-2.40625 0l0 -9.640625l3.9375 0q0.703125 0 1.125 0.0625q0.421875 0.046875 0.71875 0.171875q0.3125 0.125 0.59375 0.328125q0.796875 0.640625 0.796875 2.03125zm-2.59375 0.21875q0 -1.203125 -1.5 -1.203125l-0.671875 0l0 2.84375l0.3125 0q0.875 0 1.359375 -0.421875q0.5 -0.4375 0.5 -1.21875zm9.400238 1.71875q-0.296875 -0.125 -0.484375 -0.15625q-0.171875 -0.03125 -0.5 -0.03125q-0.5625 0 -0.953125 0.21875q-0.390625 0.203125 -0.71875 0.671875l0 4.40625l-2.5625 0l0 -7.21875l2.5625 0l0 1.359375l0.03125 0q0.109375 -0.34375 0.40625 -0.671875q0.3125 -0.328125 0.75 -0.578125q0.5 -0.28125 1.15625 -0.28125q0.1875 0 0.3125 0.046875l0 2.234375zm8.8359375 1.5q0 0.875 -0.28125 1.578125q-0.265625 0.6875 -0.796875 1.1875q-0.515625 0.5 -1.25 0.75q-0.734375 0.25 -1.640625 0.25q-0.9375 0 -1.6875 -0.25q-0.75 -0.25 -1.296875 -0.734375q-0.53125 -0.5 -0.8125 -1.203125q-0.265625 -0.71875 -0.265625 -1.59375q0 -0.859375 0.265625 -1.5625q0.28125 -0.71875 0.796875 -1.203125q0.53125 -0.484375 1.265625 -0.734375q0.734375 -0.265625 1.671875 -0.265625q0.953125 0 1.6875 0.265625q0.75 0.25 1.265625 0.734375q0.53125 0.484375 0.796875 1.1875q0.28125 0.6875 0.28125 1.59375zm-2.734375 -0.015625q0 -1.046875 -0.359375 -1.671875q-0.359375 -0.640625 -0.9375 -0.640625q-0.375 0 -0.65625 0.296875q-0.28125 0.28125 -0.453125 0.828125q-0.15625 0.53125 -0.15625 1.203125q0 0.65625 0.15625 1.203125q0.15625 0.53125 0.4375 0.828125q0.296875 0.296875 0.671875 0.296875q0.578125 0 0.9375 -0.640625q0.359375 -0.65625 0.359375 -1.703125zm11.353241 3.625l-2.5625 0l0 -1.359375l-0.015625 0q-0.265625 0.703125 -0.890625 1.109375q-0.609375 0.40625 -1.40625 0.40625q-0.859375 0 -1.5 -0.421875q-0.625 -0.4375 -0.953125 -1.25q-0.328125 -0.828125 -0.328125 -1.921875q0 -1.21875 0.375 -2.109375q0.375 -0.890625 1.078125 -1.359375q0.703125 -0.484375 1.640625 -0.484375q0.59375 0 1.015625 0.171875q0.421875 0.171875 0.96875 0.625l0.015625 0l0 -0.625l0 -3.0625l2.5625 0l0 10.28125zm-2.5625 -2.765625l0 -2.421875q-0.484375 -0.671875 -1.109375 -0.671875q-0.359375 0 -0.65625 0.28125q-0.28125 0.28125 -0.4375 0.8125q-0.15625 0.515625 -0.15625 1.140625q0 0.890625 0.3125 1.390625q0.3125 0.5 0.859375 0.5q0.671875 0 1.1875 -1.03125zm11.804993 2.765625l-2.5625 0l0 -1.359375l-0.03125 0q-0.328125 0.71875 -0.953125 1.125q-0.625 0.390625 -1.40625 0.390625q-0.875 0 -1.46875 -0.546875q-0.34375 -0.3125 -0.5 -0.734375q-0.140625 -0.421875 -0.140625 -1.078125l0 -5.015625l2.5625 0l0 4.484375q0 0.34375 0.0625 0.5625q0.0625 0.203125 0.203125 0.3125q0.140625 0.09375 0.359375 0.09375q0.34375 0 0.640625 -0.25q0.3125 -0.25 0.671875 -0.796875l0 -4.40625l2.5625 0l0 7.21875zm7.969055 -0.09375q-1.234375 0.25 -2.359375 0.25q-0.515625 0 -0.953125 -0.046875q-0.421875 -0.046875 -0.78125 -0.15625q-0.359375 -0.125 -0.640625 -0.28125q-0.265625 -0.171875 -0.546875 -0.4375q-0.53125 -0.5 -0.8125 -1.234375q-0.265625 -0.734375 -0.265625 -1.578125q0 -1.140625 0.484375 -2.015625q0.5 -0.875 1.421875 -1.328125q0.9375 -0.46875 2.171875 -0.46875q0.96875 0 2.234375 0.328125l0 1.703125q-1.21875 -0.484375 -1.890625 -0.484375q-0.5 0 -0.890625 0.28125q-0.390625 0.265625 -0.59375 0.765625q-0.203125 0.484375 -0.203125 1.140625q0 0.984375 0.515625 1.609375q0.53125 0.625 1.375 0.625q0.71875 0 1.734375 -0.328125l0 1.65625zm5.8408813 0.03125q-0.46875 0.140625 -0.75 0.171875q-0.265625 0.046875 -0.6875 0.046875q-1.109375 0 -1.78125 -0.40625q-0.5 -0.3125 -0.6875 -0.765625q-0.171875 -0.46875 -0.171875 -1.40625l0 -3.359375l-0.71875 0l0 -1.4375l0.71875 0l0 -1.140625l2.578125 -0.3125l0 1.453125l1.359375 0l0 1.4375l-1.359375 0l0 3.09375q0 0.46875 0.03125 0.65625q0.046875 0.1875 0.203125 0.359375q0.234375 0.234375 0.703125 0.234375q0.234375 0 0.5625 -0.109375l0 1.484375z" fill-rule="nonzero"/><path fill="#000000" fill-opacity="0.0" d="m331.8924 60.412075l162.61417 0l0 23.874012l-162.61417 0z" fill-rule="evenodd"/><path stroke="#000000" stroke-width="2.0" stroke-linejoin="round" stroke-linecap="butt" d="m331.8924 60.412075l162.61417 0l0 23.874012l-162.61417 0z" fill-rule="evenodd"/><path fill="#000000" fill-opacity="0.0" d="m331.8924 36.53806l162.61417 0l0 23.874016l-162.61417 0z" fill-rule="evenodd"/><path stroke="#000000" stroke-width="2.0" stroke-linejoin="round" stroke-linecap="butt" d="m331.8924 36.53806l162.61417 0l0 23.874016l-162.61417 0z" fill-rule="evenodd"/><path fill="#000000" d="m342.18927 53.275066l0 -1.609375l1.609375 0l0 1.609375l-1.609375 0zm4.217102 0l0 -1.609375l1.609375 0l0 1.609375l-1.609375 0zm4.217102 0l0 -1.609375l1.609375 0l0 1.609375l-1.609375 0z" fill-rule="nonzero"/><path fill="#000000" fill-opacity="0.0" d="m331.8924 242.86876l162.61417 0l0 58.204727l-162.61417 0z" fill-rule="evenodd"/><path stroke="#000000" stroke-width="2.0" stroke-linejoin="round" stroke-linecap="butt" d="m331.8924 242.86876l162.61417 0l0 58.204727l-162.61417 0z" fill-rule="evenodd"/><path fill="#000000" d="m344.62677 260.45862l0 -3.0625l-3.046875 0l0 -0.953125l3.046875 0l0 -3.0624847l0.96875 0l0 3.0624847l3.046875 0l0 0.953125l-3.046875 0l0 3.0625l-0.96875 0zm10.191681 0.390625l0 -10.35936l1.28125 0l0 4.546875q0.40625 -0.75 0.984375 -1.109375q0.59375 -0.375 1.375 -0.375q1.3125 0 2.03125 0.96875q0.71875 0.953125 0.71875 2.4999847q0 1.671875 -0.8125 2.796875q-0.8125 1.109375 -2.21875 1.109375q-0.40625 0 -0.78125 -0.09375q-0.359375 -0.09375 -0.65625 -0.265625q-0.28125 -0.1875 -0.640625 -0.59375l-0.15625 0.875l-1.125 0zm1.28125 -1.765625q0.65625 0.59375 1.046875 0.75q0.390625 0.140625 0.84375 0.140625q0.9375 0 1.390625 -0.796875q0.453125 -0.796875 0.453125 -2.03125q0 -1.140625 -0.40625 -1.8124847q-0.390625 -0.671875 -1.234375 -0.671875q-0.53125 0 -1.0625 0.296875q-0.515625 0.28125 -1.03125 0.875l0 3.2499847zm11.529266 1.6875l0 -1.328125q-0.5 0.71875 -1.140625 1.109375q-0.640625 0.375 -1.34375 0.375q-0.890625 0 -1.453125 -0.5625q-0.5625 -0.5625 -0.5625 -1.578125l0 -5.0781097l1.28125 0l0 4.6562347q0 0.734375 0.125 0.96875q0.140625 0.234375 0.375 0.375q0.234375 0.125 0.5 0.125q0.46875 0 1.015625 -0.296875q0.5625 -0.296875 1.203125 -1.25l0 -4.5781097l1.28125 0l0 7.0624847l-1.28125 0zm3.84964 0l0 -7.0624847l1.28125 0l0 7.0624847l-1.28125 0zm0 -8.343735l0 -1.28125l1.28125 0l0 1.28125l-1.28125 0zm3.8526611 8.343735l0 -10.281235l1.28125 0l0 10.281235l-1.28125 0zm8.383911 0l0 -1.328125q-0.390625 0.75 -0.984375 1.125q-0.578125 0.359375 -1.359375 0.359375q-1.3125 0 -2.03125 -0.953125q-0.71875 -0.953125 -0.71875 -2.515625q0 -1.6718597 0.8125 -2.7812347q0.8125 -1.125 2.203125 -1.125q0.40625 0 0.78125 0.09375q0.375 0.09375 0.65625 0.28125q0.296875 0.171875 0.640625 0.578125l0 -4.015625l1.296875 0l0 10.281235l-1.296875 0zm0 -5.3749847q-0.65625 -0.59375 -1.046875 -0.734375q-0.390625 -0.15625 -0.828125 -0.15625q-0.9375 0 -1.390625 0.796875q-0.453125 0.78123474 -0.453125 2.0312347q0 1.140625 0.390625 1.8125q0.40625 0.65625 1.25 0.65625q0.53125 0 1.046875 -0.28125q0.53125 -0.296875 1.03125 -0.875l0 -3.2499847zm3.8261719 5.3749847l0 -9.624985l2.609375 0q1.40625 0 2.015625 0.28125q0.609375 0.265625 0.921875 0.828125q0.328125 0.5625 0.328125 1.40625q0 0.984375 -0.4375 1.734375q-0.421875 0.73435974 -1.375 1.1406097q-0.953125 0.40625 -2.109375 0.40625l-0.609375 0l0 3.828125l-1.34375 0zm1.34375 -4.8593597l0.5625 0q1.359375 0 1.9375 -0.609375q0.59375 -0.625 0.59375 -1.546875q0 -0.484375 -0.1875 -0.828125q-0.1875 -0.34375 -0.609375 -0.546875q-0.40625 -0.21875 -1.453125 -0.21875l-0.84375 0l0 3.75zm9.695038 3.9687347q-0.5625 0.515625 -1.125 0.78125q-0.5625 0.265625 -1.09375 0.265625q-0.75 0 -1.390625 -0.484375q-0.640625 -0.5 -0.640625 -1.453125q0 -1.03125 0.890625 -1.703125q0.90625 -0.6875 2.875 -0.6875l0.296875 0l0 -0.85935974q0 -0.5 -0.140625 -0.734375q-0.125 -0.234375 -0.421875 -0.359375q-0.28125 -0.140625 -0.71875 -0.140625q-1.0 0 -2.171875 0.625l0 -1.0625q1.296875 -0.515625 2.4375 -0.515625q0.625 0 1.140625 0.203125q0.53125 0.1875 0.84375 0.625q0.3125 0.421875 0.3125 1.359375l0 3.2031097q0 0.53125 0.078125 0.71875q0.09375 0.1875 0.25 0.28125q0.15625 0.09375 0.359375 0.09375q0.078125 0 0.234375 -0.015625l0.09375 0.703125q-0.4375 0.203125 -0.953125 0.203125q-0.359375 0 -0.6875 -0.21875q-0.328125 -0.234375 -0.46875 -0.828125zm-0.1875 -0.703125l0 -1.828125l-0.40625 -0.015625q-1.015625 0 -1.703125 0.390625q-0.671875 0.390625 -0.671875 1.0625q0 0.46875 0.328125 0.78125q0.34375 0.3125 0.796875 0.3125q0.390625 0 0.8125 -0.171875q0.421875 -0.1875 0.84375 -0.53125zm3.9072876 1.59375l0 -7.0624847l1.28125 0l0 1.328125q0.359375 -0.71875 0.9375 -1.09375q0.59375 -0.390625 1.28125 -0.390625q0.1875 0 0.40625 0.03125l0 1.1875q-0.328125 -0.109375 -0.59375 -0.109375q-0.59375 0 -1.109375 0.375q-0.515625 0.359375 -0.921875 1.0781097l0 4.65625l-1.28125 0zm8.609833 0q-0.59375 0.15625 -1.03125 0.15625q-0.953125 0 -1.515625 -0.546875q-0.5625 -0.546875 -0.5625 -1.5625l0 -4.1562347l-0.875 0l0 -0.953125l0.875 0l0 -1.28125l1.28125 -0.125l0 1.40625l1.859375 0l0 0.953125l-1.859375 0l0 3.9218597q0 0.75 0.28125 1.078125q0.296875 0.3125 0.921875 0.3125q0.25 0 0.625 -0.09375l0 0.890625zm4.7662964 0.234375q-1.078125 0 -1.859375 -0.6875q-0.765625 -0.6875 -1.140625 -1.859375q-0.375 -1.1875 -0.375 -2.4999847q0 -1.3125 0.359375 -2.484375q0.375 -1.1875 1.15625 -1.875q0.78125 -0.703125 1.859375 -0.703125q1.078125 0 1.859375 0.703125q0.78125 0.6875 1.140625 1.875q0.375 1.171875 0.375 2.484375q0 1.2968597 -0.375 2.4687347q-0.359375 1.171875 -1.140625 1.875q-0.78125 0.703125 -1.859375 0.703125zm0 -0.953125q1.046875 0 1.53125 -1.125q0.484375 -1.125 0.484375 -2.9687347q0 -1.84375 -0.484375 -2.96875q-0.484375 -1.125 -1.53125 -1.125q-1.0625 0 -1.53125 1.125q-0.46875 1.125 -0.46875 2.96875q0 1.8437347 0.46875 2.9687347q0.46875 1.125 1.53125 1.125zm7.693329 0.71875l0 -8.67186l-1.515625 0l0 -0.796875l2.8125 -0.25l0 9.718735l-1.296875 0zm8.802704 1.046875l0 0.875q-1.0625 -0.71875 -1.71875 -1.71875q-0.65625 -1.0 -1.0 -2.140625q-0.34375 -1.140625 -0.34375 -2.234375q0 -1.0937347 0.34375 -2.2343597q0.34375 -1.140625 1.0 -2.140625q0.65625 -1.0 1.71875 -1.734375l0 0.890625q-0.734375 0.796875 -1.09375 1.546875q-0.34375 0.75 -0.515625 1.6875q-0.171875 0.9375 -0.171875 1.9843597q0 1.03125 0.171875 1.984375q0.171875 0.9375 0.515625 1.6875q0.359375 0.734375 1.09375 1.546875zm0.9592285 -10.437485l0 -0.890625q1.0625 0.734375 1.71875 1.734375q0.65625 1.0 0.984375 2.140625q0.34375 1.140625 0.34375 2.2343597q0 1.09375 -0.34375 2.234375q-0.328125 1.140625 -0.984375 2.140625q-0.65625 1.0 -1.71875 1.71875l0 -0.875q0.734375 -0.8125 1.078125 -1.546875q0.359375 -0.75 0.515625 -1.6875q0.171875 -0.953125 0.171875 -1.984375q0 -1.0312347 -0.171875 -1.9687347q-0.15625 -0.953125 -0.515625 -1.703125q-0.34375 -0.75 -1.078125 -1.546875zm5.318634 9.39061l0 -1.28125l1.28125 0l0 1.28125l-1.28125 0zm0 -5.7812347l0 -1.28125l1.28125 0l0 1.28125l-1.28125 0zm9.715454 5.7812347l-2.640625 -7.0624847l1.296875 0l2.046875 5.4999847l2.171875 -5.4999847l1.1875 0l-2.78125 7.0624847l-1.28125 0zm8.242096 0.15625q-1.015625 0 -1.765625 -0.40625q-0.734375 -0.40625 -1.171875 -1.296875q-0.4375 -0.890625 -0.4375 -1.984375q0 -1.03125 0.390625 -1.9062347q0.40625 -0.890625 1.15625 -1.328125q0.765625 -0.453125 1.828125 -0.453125q1.015625 0 1.75 0.40625q0.75 0.40625 1.1875 1.296875q0.4375 0.89060974 0.4375 1.9843597q0 1.03125 -0.40625 1.921875q-0.40625 0.875 -1.15625 1.328125q-0.75 0.4375 -1.8125 0.4375zm0 -0.953125q0.953125 0 1.484375 -0.703125q0.53125 -0.71875 0.53125 -2.03125q0 -1.3124847 -0.53125 -2.0156097q-0.53125 -0.71875 -1.484375 -0.71875q-0.953125 0 -1.484375 0.71875q-0.515625 0.703125 -0.515625 2.0156097q0 1.3125 0.515625 2.03125q0.53125 0.703125 1.484375 0.703125zm5.3743896 0.796875l0 -7.0624847l1.28125 0l0 7.0624847l-1.28125 0zm0 -8.343735l0 -1.28125l1.28125 0l0 1.28125l-1.28125 0zm8.383911 8.343735l0 -1.328125q-0.390625 0.75 -0.984375 1.125q-0.578125 0.359375 -1.359375 0.359375q-1.3125 0 -2.03125 -0.953125q-0.71875 -0.953125 -0.71875 -2.515625q0 -1.6718597 0.8125 -2.7812347q0.8125 -1.125 2.203125 -1.125q0.40625 0 0.78125 0.09375q0.375 0.09375 0.65625 0.28125q0.296875 0.171875 0.640625 0.578125l0 -4.015625l1.296875 0l0 10.281235l-1.296875 0zm0 -5.3749847q-0.65625 -0.59375 -1.046875 -0.734375q-0.390625 -0.15625 -0.828125 -0.15625q-0.9375 0 -1.390625 0.796875q-0.453125 0.78123474 -0.453125 2.0312347q0 1.140625 0.390625 1.8125q0.40625 0.65625 1.25 0.65625q0.53125 0 1.046875 -0.28125q0.53125 -0.296875 1.03125 -0.875l0 -3.2499847z" fill-rule="nonzero"/><path fill="#000000" d="m344.62677 276.45862l0 -3.0625l-3.046875 0l0 -0.953125l3.046875 0l0 -3.0625l0.96875 0l0 3.0625l3.046875 0l0 0.953125l-3.046875 0l0 3.0625l-0.96875 0zm10.191681 0.390625l0 -10.359375l1.28125 0l0 4.546875q0.40625 -0.75 0.984375 -1.109375q0.59375 -0.375 1.375 -0.375q1.3125 0 2.03125 0.96875q0.71875 0.953125 0.71875 2.5q0 1.671875 -0.8125 2.796875q-0.8125 1.109375 -2.21875 1.109375q-0.40625 0 -0.78125 -0.09375q-0.359375 -0.09375 -0.65625 -0.265625q-0.28125 -0.1875 -0.640625 -0.59375l-0.15625 0.875l-1.125 0zm1.28125 -1.765625q0.65625 0.59375 1.046875 0.75q0.390625 0.140625 0.84375 0.140625q0.9375 0 1.390625 -0.796875q0.453125 -0.796875 0.453125 -2.03125q0 -1.140625 -0.40625 -1.8125q-0.390625 -0.671875 -1.234375 -0.671875q-0.53125 0 -1.0625 0.296875q-0.515625 0.28125 -1.03125 0.875l0 3.25zm11.529266 1.6875l0 -1.328125q-0.5 0.71875 -1.140625 1.109375q-0.640625 0.375 -1.34375 0.375q-0.890625 0 -1.453125 -0.5625q-0.5625 -0.5625 -0.5625 -1.578125l0 -5.078125l1.28125 0l0 4.65625q0 0.734375 0.125 0.96875q0.140625 0.234375 0.375 0.375q0.234375 0.125 0.5 0.125q0.46875 0 1.015625 -0.296875q0.5625 -0.296875 1.203125 -1.25l0 -4.578125l1.28125 0l0 7.0625l-1.28125 0zm3.84964 0l0 -7.0625l1.28125 0l0 7.0625l-1.28125 0zm0 -8.34375l0 -1.28125l1.28125 0l0 1.28125l-1.28125 0zm3.8526611 8.34375l0 -10.28125l1.28125 0l0 10.28125l-1.28125 0zm8.383911 0l0 -1.328125q-0.390625 0.75 -0.984375 1.125q-0.578125 0.359375 -1.359375 0.359375q-1.3125 0 -2.03125 -0.953125q-0.71875 -0.953125 -0.71875 -2.515625q0 -1.671875 0.8125 -2.78125q0.8125 -1.125 2.203125 -1.125q0.40625 0 0.78125 0.09375q0.375 0.09375 0.65625 0.28125q0.296875 0.171875 0.640625 0.578125l0 -4.015625l1.296875 0l0 10.28125l-1.296875 0zm0 -5.375q-0.65625 -0.59375 -1.046875 -0.734375q-0.390625 -0.15625 -0.828125 -0.15625q-0.9375 0 -1.390625 0.796875q-0.453125 0.78125 -0.453125 2.03125q0 1.140625 0.390625 1.8125q0.40625 0.65625 1.25 0.65625q0.53125 0 1.046875 -0.28125q0.53125 -0.296875 1.03125 -0.875l0 -3.25zm3.8261719 5.375l0 -9.625l2.609375 0q1.40625 0 2.015625 0.28125q0.609375 0.265625 0.921875 0.828125q0.328125 0.5625 0.328125 1.40625q0 0.984375 -0.4375 1.734375q-0.421875 0.734375 -1.375 1.140625q-0.953125 0.40625 -2.109375 0.40625l-0.609375 0l0 3.828125l-1.34375 0zm1.34375 -4.859375l0.5625 0q1.359375 0 1.9375 -0.609375q0.59375 -0.625 0.59375 -1.546875q0 -0.484375 -0.1875 -0.828125q-0.1875 -0.34375 -0.609375 -0.546875q-0.40625 -0.21875 -1.453125 -0.21875l-0.84375 0l0 3.75zm9.695038 3.96875q-0.5625 0.515625 -1.125 0.78125q-0.5625 0.265625 -1.09375 0.265625q-0.75 0 -1.390625 -0.484375q-0.640625 -0.5 -0.640625 -1.453125q0 -1.03125 0.890625 -1.703125q0.90625 -0.6875 2.875 -0.6875l0.296875 0l0 -0.859375q0 -0.5 -0.140625 -0.734375q-0.125 -0.234375 -0.421875 -0.359375q-0.28125 -0.140625 -0.71875 -0.140625q-1.0 0 -2.171875 0.625l0 -1.0625q1.296875 -0.515625 2.4375 -0.515625q0.625 0 1.140625 0.203125q0.53125 0.1875 0.84375 0.625q0.3125 0.421875 0.3125 1.359375l0 3.203125q0 0.53125 0.078125 0.71875q0.09375 0.1875 0.25 0.28125q0.15625 0.09375 0.359375 0.09375q0.078125 0 0.234375 -0.015625l0.09375 0.703125q-0.4375 0.203125 -0.953125 0.203125q-0.359375 0 -0.6875 -0.21875q-0.328125 -0.234375 -0.46875 -0.828125zm-0.1875 -0.703125l0 -1.828125l-0.40625 -0.015625q-1.015625 0 -1.703125 0.390625q-0.671875 0.390625 -0.671875 1.0625q0 0.46875 0.328125 0.78125q0.34375 0.3125 0.796875 0.3125q0.390625 0 0.8125 -0.171875q0.421875 -0.1875 0.84375 -0.53125zm3.9072876 1.59375l0 -7.0625l1.28125 0l0 1.328125q0.359375 -0.71875 0.9375 -1.09375q0.59375 -0.390625 1.28125 -0.390625q0.1875 0 0.40625 0.03125l0 1.1875q-0.328125 -0.109375 -0.59375 -0.109375q-0.59375 0 -1.109375 0.375q-0.515625 0.359375 -0.921875 1.078125l0 4.65625l-1.28125 0zm8.609833 0q-0.59375 0.15625 -1.03125 0.15625q-0.953125 0 -1.515625 -0.546875q-0.5625 -0.546875 -0.5625 -1.5625l0 -4.15625l-0.875 0l0 -0.953125l0.875 0l0 -1.28125l1.28125 -0.125l0 1.40625l1.859375 0l0 0.953125l-1.859375 0l0 3.921875q0 0.75 0.28125 1.078125q0.296875 0.3125 0.921875 0.3125q0.25 0 0.625 -0.09375l0 0.890625zm4.7662964 0.234375q-1.078125 0 -1.859375 -0.6875q-0.765625 -0.6875 -1.140625 -1.859375q-0.375 -1.1875 -0.375 -2.5q0 -1.3125 0.359375 -2.484375q0.375 -1.1875 1.15625 -1.875q0.78125 -0.703125 1.859375 -0.703125q1.078125 0 1.859375 0.703125q0.78125 0.6875 1.140625 1.875q0.375 1.171875 0.375 2.484375q0 1.296875 -0.375 2.46875q-0.359375 1.171875 -1.140625 1.875q-0.78125 0.703125 -1.859375 0.703125zm0 -0.953125q1.046875 0 1.53125 -1.125q0.484375 -1.125 0.484375 -2.96875q0 -1.84375 -0.484375 -2.96875q-0.484375 -1.125 -1.53125 -1.125q-1.0625 0 -1.53125 1.125q-0.46875 1.125 -0.46875 2.96875q0 1.84375 0.46875 2.96875q0.46875 1.125 1.53125 1.125zm5.318329 0.71875l0 -1.125q0.5625 -1.3125 2.265625 -2.84375l0.734375 -0.671875q0.796875 -0.71875 1.109375 -1.3125q0.3125 -0.59375 0.3125 -1.21875q0 -0.8125 -0.5 -1.265625q-0.5 -0.46875 -1.328125 -0.46875q-0.359375 0 -0.6875 0.078125q-0.328125 0.0625 -0.703125 0.21875q-0.375 0.140625 -0.96875 0.46875l0 -1.125q1.28125 -0.609375 2.546875 -0.609375q1.390625 0 2.1875 0.765625q0.8125 0.765625 0.8125 1.90625q0 0.734375 -0.328125 1.390625q-0.328125 0.65625 -1.625 1.765625l-0.5 0.421875q-0.546875 0.453125 -1.09375 1.109375q-0.53125 0.65625 -0.6875 1.390625l4.1875 0l0 1.125l-5.734375 0zm11.177704 1.046875l0 0.875q-1.0625 -0.71875 -1.71875 -1.71875q-0.65625 -1.0 -1.0 -2.140625q-0.34375 -1.140625 -0.34375 -2.234375q0 -1.09375 0.34375 -2.234375q0.34375 -1.140625 1.0 -2.140625q0.65625 -1.0 1.71875 -1.734375l0 0.890625q-0.734375 0.796875 -1.09375 1.546875q-0.34375 0.75 -0.515625 1.6875q-0.171875 0.9375 -0.171875 1.984375q0 1.03125 0.171875 1.984375q0.171875 0.9375 0.515625 1.6875q0.359375 0.734375 1.09375 1.546875zm0.9592285 -10.4375l0 -0.890625q1.0625 0.734375 1.71875 1.734375q0.65625 1.0 0.984375 2.140625q0.34375 1.140625 0.34375 2.234375q0 1.09375 -0.34375 2.234375q-0.328125 1.140625 -0.984375 2.140625q-0.65625 1.0 -1.71875 1.71875l0 -0.875q0.734375 -0.8125 1.078125 -1.546875q0.359375 -0.75 0.515625 -1.6875q0.171875 -0.953125 0.171875 -1.984375q0 -1.03125 -0.171875 -1.96875q-0.15625 -0.953125 -0.515625 -1.703125q-0.34375 -0.75 -1.078125 -1.546875zm5.318634 9.390625l0 -1.28125l1.28125 0l0 1.28125l-1.28125 0zm0 -5.78125l0 -1.28125l1.28125 0l0 1.28125l-1.28125 0zm9.715454 5.78125l-2.640625 -7.0625l1.296875 0l2.046875 5.5l2.171875 -5.5l1.1875 0l-2.78125 7.0625l-1.28125 0zm8.242096 0.15625q-1.015625 0 -1.765625 -0.40625q-0.734375 -0.40625 -1.171875 -1.296875q-0.4375 -0.890625 -0.4375 -1.984375q0 -1.03125 0.390625 -1.90625q0.40625 -0.890625 1.15625 -1.328125q0.765625 -0.453125 1.828125 -0.453125q1.015625 0 1.75 0.40625q0.75 0.40625 1.1875 1.296875q0.4375 0.890625 0.4375 1.984375q0 1.03125 -0.40625 1.921875q-0.40625 0.875 -1.15625 1.328125q-0.75 0.4375 -1.8125 0.4375zm0 -0.953125q0.953125 0 1.484375 -0.703125q0.53125 -0.71875 0.53125 -2.03125q0 -1.3125 -0.53125 -2.015625q-0.53125 -0.71875 -1.484375 -0.71875q-0.953125 0 -1.484375 0.71875q-0.515625 0.703125 -0.515625 2.015625q0 1.3125 0.515625 2.03125q0.53125 0.703125 1.484375 0.703125zm5.3743896 0.796875l0 -7.0625l1.28125 0l0 7.0625l-1.28125 0zm0 -8.34375l0 -1.28125l1.28125 0l0 1.28125l-1.28125 0zm8.383911 8.34375l0 -1.328125q-0.390625 0.75 -0.984375 1.125q-0.578125 0.359375 -1.359375 0.359375q-1.3125 0 -2.03125 -0.953125q-0.71875 -0.953125 -0.71875 -2.515625q0 -1.671875 0.8125 -2.78125q0.8125 -1.125 2.203125 -1.125q0.40625 0 0.78125 0.09375q0.375 0.09375 0.65625 0.28125q0.296875 0.171875 0.640625 0.578125l0 -4.015625l1.296875 0l0 10.28125l-1.296875 0zm0 -5.375q-0.65625 -0.59375 -1.046875 -0.734375q-0.390625 -0.15625 -0.828125 -0.15625q-0.9375 0 -1.390625 0.796875q-0.453125 0.78125 -0.453125 2.03125q0 1.140625 0.390625 1.8125q0.40625 0.65625 1.25 0.65625q0.53125 0 1.046875 -0.28125q0.53125 -0.296875 1.03125 -0.875l0 -3.25z" fill-rule="nonzero"/><path fill="#000000" d="m344.62677 292.45862l0 -3.0625l-3.046875 0l0 -0.953125l3.046875 0l0 -3.0625l0.96875 0l0 3.0625l3.046875 0l0 0.953125l-3.046875 0l0 3.0625l-0.96875 0zm10.191681 0.390625l0 -10.359375l1.28125 0l0 4.546875q0.40625 -0.75 0.984375 -1.109375q0.59375 -0.375 1.375 -0.375q1.3125 0 2.03125 0.96875q0.71875 0.953125 0.71875 2.5q0 1.671875 -0.8125 2.796875q-0.8125 1.109375 -2.21875 1.109375q-0.40625 0 -0.78125 -0.09375q-0.359375 -0.09375 -0.65625 -0.265625q-0.28125 -0.1875 -0.640625 -0.59375l-0.15625 0.875l-1.125 0zm1.28125 -1.765625q0.65625 0.59375 1.046875 0.75q0.390625 0.140625 0.84375 0.140625q0.9375 0 1.390625 -0.796875q0.453125 -0.796875 0.453125 -2.03125q0 -1.140625 -0.40625 -1.8125q-0.390625 -0.671875 -1.234375 -0.671875q-0.53125 0 -1.0625 0.296875q-0.515625 0.28125 -1.03125 0.875l0 3.25zm11.529266 1.6875l0 -1.328125q-0.5 0.71875 -1.140625 1.109375q-0.640625 0.375 -1.34375 0.375q-0.890625 0 -1.453125 -0.5625q-0.5625 -0.5625 -0.5625 -1.578125l0 -5.078125l1.28125 0l0 4.65625q0 0.734375 0.125 0.96875q0.140625 0.234375 0.375 0.375q0.234375 0.125 0.5 0.125q0.46875 0 1.015625 -0.296875q0.5625 -0.296875 1.203125 -1.25l0 -4.578125l1.28125 0l0 7.0625l-1.28125 0zm3.84964 0l0 -7.0625l1.28125 0l0 7.0625l-1.28125 0zm0 -8.34375l0 -1.28125l1.28125 0l0 1.28125l-1.28125 0zm3.8526611 8.34375l0 -10.28125l1.28125 0l0 10.28125l-1.28125 0zm8.383911 0l0 -1.328125q-0.390625 0.75 -0.984375 1.125q-0.578125 0.359375 -1.359375 0.359375q-1.3125 0 -2.03125 -0.953125q-0.71875 -0.953125 -0.71875 -2.515625q0 -1.671875 0.8125 -2.78125q0.8125 -1.125 2.203125 -1.125q0.40625 0 0.78125 0.09375q0.375 0.09375 0.65625 0.28125q0.296875 0.171875 0.640625 0.578125l0 -4.015625l1.296875 0l0 10.28125l-1.296875 0zm0 -5.375q-0.65625 -0.59375 -1.046875 -0.734375q-0.390625 -0.15625 -0.828125 -0.15625q-0.9375 0 -1.390625 0.796875q-0.453125 0.78125 -0.453125 2.03125q0 1.140625 0.390625 1.8125q0.40625 0.65625 1.25 0.65625q0.53125 0 1.046875 -0.28125q0.53125 -0.296875 1.03125 -0.875l0 -3.25zm3.8261719 5.375l0 -9.625l2.609375 0q1.40625 0 2.015625 0.28125q0.609375 0.265625 0.921875 0.828125q0.328125 0.5625 0.328125 1.40625q0 0.984375 -0.4375 1.734375q-0.421875 0.734375 -1.375 1.140625q-0.953125 0.40625 -2.109375 0.40625l-0.609375 0l0 3.828125l-1.34375 0zm1.34375 -4.859375l0.5625 0q1.359375 0 1.9375 -0.609375q0.59375 -0.625 0.59375 -1.546875q0 -0.484375 -0.1875 -0.828125q-0.1875 -0.34375 -0.609375 -0.546875q-0.40625 -0.21875 -1.453125 -0.21875l-0.84375 0l0 3.75zm9.695038 3.96875q-0.5625 0.515625 -1.125 0.78125q-0.5625 0.265625 -1.09375 0.265625q-0.75 0 -1.390625 -0.484375q-0.640625 -0.5 -0.640625 -1.453125q0 -1.03125 0.890625 -1.703125q0.90625 -0.6875 2.875 -0.6875l0.296875 0l0 -0.859375q0 -0.5 -0.140625 -0.734375q-0.125 -0.234375 -0.421875 -0.359375q-0.28125 -0.140625 -0.71875 -0.140625q-1.0 0 -2.171875 0.625l0 -1.0625q1.296875 -0.515625 2.4375 -0.515625q0.625 0 1.140625 0.203125q0.53125 0.1875 0.84375 0.625q0.3125 0.421875 0.3125 1.359375l0 3.203125q0 0.53125 0.078125 0.71875q0.09375 0.1875 0.25 0.28125q0.15625 0.09375 0.359375 0.09375q0.078125 0 0.234375 -0.015625l0.09375 0.703125q-0.4375 0.203125 -0.953125 0.203125q-0.359375 0 -0.6875 -0.21875q-0.328125 -0.234375 -0.46875 -0.828125zm-0.1875 -0.703125l0 -1.828125l-0.40625 -0.015625q-1.015625 0 -1.703125 0.390625q-0.671875 0.390625 -0.671875 1.0625q0 0.46875 0.328125 0.78125q0.34375 0.3125 0.796875 0.3125q0.390625 0 0.8125 -0.171875q0.421875 -0.1875 0.84375 -0.53125zm3.9072876 1.59375l0 -7.0625l1.28125 0l0 1.328125q0.359375 -0.71875 0.9375 -1.09375q0.59375 -0.390625 1.28125 -0.390625q0.1875 0 0.40625 0.03125l0 1.1875q-0.328125 -0.109375 -0.59375 -0.109375q-0.59375 0 -1.109375 0.375q-0.515625 0.359375 -0.921875 1.078125l0 4.65625l-1.28125 0zm8.609833 0q-0.59375 0.15625 -1.03125 0.15625q-0.953125 0 -1.515625 -0.546875q-0.5625 -0.546875 -0.5625 -1.5625l0 -4.15625l-0.875 0l0 -0.953125l0.875 0l0 -1.28125l1.28125 -0.125l0 1.40625l1.859375 0l0 0.953125l-1.859375 0l0 3.921875q0 0.75 0.28125 1.078125q0.296875 0.3125 0.921875 0.3125q0.25 0 0.625 -0.09375l0 0.890625zm4.7662964 0.234375q-1.078125 0 -1.859375 -0.6875q-0.765625 -0.6875 -1.140625 -1.859375q-0.375 -1.1875 -0.375 -2.5q0 -1.3125 0.359375 -2.484375q0.375 -1.1875 1.15625 -1.875q0.78125 -0.703125 1.859375 -0.703125q1.078125 0 1.859375 0.703125q0.78125 0.6875 1.140625 1.875q0.375 1.171875 0.375 2.484375q0 1.296875 -0.375 2.46875q-0.359375 1.171875 -1.140625 1.875q-0.78125 0.703125 -1.859375 0.703125zm0 -0.953125q1.046875 0 1.53125 -1.125q0.484375 -1.125 0.484375 -2.96875q0 -1.84375 -0.484375 -2.96875q-0.484375 -1.125 -1.53125 -1.125q-1.0625 0 -1.53125 1.125q-0.46875 1.125 -0.46875 2.96875q0 1.84375 0.46875 2.96875q0.46875 1.125 1.53125 1.125zm5.568329 0.640625l0 -1.1875q1.375 0.546875 2.15625 0.546875q0.921875 0 1.5 -0.53125q0.578125 -0.546875 0.578125 -1.40625q0 -0.828125 -0.59375 -1.421875q-0.59375 -0.59375 -2.25 -0.59375l-0.5 0l0 -0.875l0.4375 0q1.546875 0 2.109375 -0.5625q0.5625 -0.5625 0.5625 -1.328125q0 -0.671875 -0.453125 -1.0625q-0.4375 -0.40625 -1.3125 -0.40625q-0.953125 0 -2.109375 0.53125l0 -1.109375q0.828125 -0.28125 1.28125 -0.328125q0.46875 -0.0625 0.90625 -0.0625q1.53125 0 2.25 0.609375q0.734375 0.609375 0.734375 1.625q0 0.5625 -0.21875 1.0q-0.203125 0.421875 -0.625 0.796875q-0.421875 0.359375 -1.171875 0.625q0.9375 0.21875 1.390625 0.5625q0.46875 0.34375 0.703125 0.875q0.234375 0.515625 0.234375 1.109375q0 1.140625 -0.78125 2.03125q-0.765625 0.875 -2.578125 0.875q-0.90625 0 -2.25 -0.3125zm10.927704 1.125l0 0.875q-1.0625 -0.71875 -1.71875 -1.71875q-0.65625 -1.0 -1.0 -2.140625q-0.34375 -1.140625 -0.34375 -2.234375q0 -1.09375 0.34375 -2.234375q0.34375 -1.140625 1.0 -2.140625q0.65625 -1.0 1.71875 -1.734375l0 0.890625q-0.734375 0.796875 -1.09375 1.546875q-0.34375 0.75 -0.515625 1.6875q-0.171875 0.9375 -0.171875 1.984375q0 1.03125 0.171875 1.984375q0.171875 0.9375 0.515625 1.6875q0.359375 0.734375 1.09375 1.546875zm0.9592285 -10.4375l0 -0.890625q1.0625 0.734375 1.71875 1.734375q0.65625 1.0 0.984375 2.140625q0.34375 1.140625 0.34375 2.234375q0 1.09375 -0.34375 2.234375q-0.328125 1.140625 -0.984375 2.140625q-0.65625 1.0 -1.71875 1.71875l0 -0.875q0.734375 -0.8125 1.078125 -1.546875q0.359375 -0.75 0.515625 -1.6875q0.171875 -0.953125 0.171875 -1.984375q0 -1.03125 -0.171875 -1.96875q-0.15625 -0.953125 -0.515625 -1.703125q-0.34375 -0.75 -1.078125 -1.546875zm5.318634 9.390625l0 -1.28125l1.28125 0l0 1.28125l-1.28125 0zm0 -5.78125l0 -1.28125l1.28125 0l0 1.28125l-1.28125 0zm9.715454 5.78125l-2.640625 -7.0625l1.296875 0l2.046875 5.5l2.171875 -5.5l1.1875 0l-2.78125 7.0625l-1.28125 0zm8.242096 0.15625q-1.015625 0 -1.765625 -0.40625q-0.734375 -0.40625 -1.171875 -1.296875q-0.4375 -0.890625 -0.4375 -1.984375q0 -1.03125 0.390625 -1.90625q0.40625 -0.890625 1.15625 -1.328125q0.765625 -0.453125 1.828125 -0.453125q1.015625 0 1.75 0.40625q0.75 0.40625 1.1875 1.296875q0.4375 0.890625 0.4375 1.984375q0 1.03125 -0.40625 1.921875q-0.40625 0.875 -1.15625 1.328125q-0.75 0.4375 -1.8125 0.4375zm0 -0.953125q0.953125 0 1.484375 -0.703125q0.53125 -0.71875 0.53125 -2.03125q0 -1.3125 -0.53125 -2.015625q-0.53125 -0.71875 -1.484375 -0.71875q-0.953125 0 -1.484375 0.71875q-0.515625 0.703125 -0.515625 2.015625q0 1.3125 0.515625 2.03125q0.53125 0.703125 1.484375 0.703125zm5.3743896 0.796875l0 -7.0625l1.28125 0l0 7.0625l-1.28125 0zm0 -8.34375l0 -1.28125l1.28125 0l0 1.28125l-1.28125 0zm8.383911 8.34375l0 -1.328125q-0.390625 0.75 -0.984375 1.125q-0.578125 0.359375 -1.359375 0.359375q-1.3125 0 -2.03125 -0.953125q-0.71875 -0.953125 -0.71875 -2.515625q0 -1.671875 0.8125 -2.78125q0.8125 -1.125 2.203125 -1.125q0.40625 0 0.78125 0.09375q0.375 0.09375 0.65625 0.28125q0.296875 0.171875 0.640625 0.578125l0 -4.015625l1.296875 0l0 10.28125l-1.296875 0zm0 -5.375q-0.65625 -0.59375 -1.046875 -0.734375q-0.390625 -0.15625 -0.828125 -0.15625q-0.9375 0 -1.390625 0.796875q-0.453125 0.78125 -0.453125 2.03125q0 1.140625 0.390625 1.8125q0.40625 0.65625 1.25 0.65625q0.53125 0 1.046875 -0.28125q0.53125 -0.296875 1.03125 -0.875l0 -3.25z" fill-rule="nonzero"/><path fill="#000000" fill-opacity="0.0" d="m331.8924 173.82939l162.61417 0l0 45.16536l-162.61417 0z" fill-rule="evenodd"/><path stroke="#000000" stroke-width="3.0" stroke-linejoin="round" stroke-linecap="butt" d="m331.8924 173.82939l162.61417 0l0 45.16536l-162.61417 0z" fill-rule="evenodd"/><path fill="#000000" d="m364.5268 200.93082q-0.34375 0.109375 -0.390625 0.125q-1.40625 0.390625 -3.046875 0.390625q-0.765625 0 -1.421875 -0.125q-0.65625 -0.109375 -1.234375 -0.34375q-0.578125 -0.234375 -1.0 -0.578125q-0.421875 -0.328125 -0.734375 -0.75q-0.3125 -0.421875 -0.546875 -0.96875q-0.234375 -0.546875 -0.34375 -1.109375q-0.109375 -0.5625 -0.109375 -1.1875q0 -0.75 0.15625 -1.453125q0.171875 -0.703125 0.5 -1.28125q0.328125 -0.59375 0.796875 -1.03125q0.453125 -0.453125 1.03125 -0.734375q0.578125 -0.28125 1.296875 -0.40625q0.71875 -0.140625 1.59375 -0.140625q0.90625 0 1.828125 0.09375q0.921875 0.09375 1.46875 0.234375l0 1.84375q-0.1875 -0.078125 -0.28125 -0.09375q-0.09375 -0.03125 -0.1875 -0.0625q-1.328125 -0.421875 -2.390625 -0.421875q-1.390625 0 -2.15625 0.71875q-0.4375 0.4375 -0.6875 1.140625q-0.234375 0.6875 -0.234375 1.546875q0 1.09375 0.375 1.875q0.390625 0.765625 1.125 1.171875q0.75 0.390625 1.8125 0.390625q0.453125 0 1.078125 -0.09375q0.5 -0.09375 0.828125 -0.171875q0.328125 -0.09375 0.875 -0.34375l0 1.765625zm8.880341 -3.328125q0 0.875 -0.28125 1.578125q-0.265625 0.6875 -0.796875 1.1875q-0.515625 0.5 -1.25 0.75q-0.734375 0.25 -1.640625 0.25q-0.9375 0 -1.6875 -0.25q-0.75 -0.25 -1.296875 -0.734375q-0.53125 -0.5 -0.8125 -1.203125q-0.265625 -0.71875 -0.265625 -1.59375q0 -0.859375 0.265625 -1.5625q0.28125 -0.71875 0.796875 -1.203125q0.53125 -0.484375 1.265625 -0.734375q0.734375 -0.265625 1.671875 -0.265625q0.953125 0 1.6875 0.265625q0.75 0.25 1.265625 0.734375q0.53125 0.484375 0.796875 1.1875q0.28125 0.6875 0.28125 1.59375zm-2.734375 -0.015625q0 -1.046875 -0.359375 -1.671875q-0.359375 -0.640625 -0.9375 -0.640625q-0.375 0 -0.65625 0.296875q-0.28125 0.28125 -0.453125 0.828125q-0.15625 0.53125 -0.15625 1.203125q0 0.65625 0.15625 1.203125q0.15625 0.53125 0.4375 0.828125q0.296875 0.296875 0.671875 0.296875q0.578125 0 0.9375 -0.640625q0.359375 -0.65625 0.359375 -1.703125zm11.400116 3.625l-2.5625 0l0 -4.484375q0 -0.53125 -0.15625 -0.75q-0.140625 -0.234375 -0.46875 -0.234375q-0.34375 0 -0.65625 0.265625q-0.3125 0.25 -0.65625 0.796875l0 4.40625l-2.5625 0l0 -7.21875l2.5625 0l0 1.359375l0.03125 0q0.34375 -0.734375 0.953125 -1.125q0.625 -0.40625 1.40625 -0.40625q0.875 0 1.46875 0.53125q0.359375 0.328125 0.5 0.75q0.140625 0.40625 0.140625 1.078125l0 5.03125zm7.89093 -0.09375q-1.234375 0.25 -2.359375 0.25q-0.515625 0 -0.953125 -0.046875q-0.421875 -0.046875 -0.78125 -0.15625q-0.359375 -0.125 -0.640625 -0.28125q-0.265625 -0.171875 -0.546875 -0.4375q-0.53125 -0.5 -0.8125 -1.234375q-0.265625 -0.734375 -0.265625 -1.578125q0 -1.140625 0.484375 -2.015625q0.5 -0.875 1.421875 -1.328125q0.9375 -0.46875 2.171875 -0.46875q0.96875 0 2.234375 0.328125l0 1.703125q-1.21875 -0.484375 -1.890625 -0.484375q-0.5 0 -0.890625 0.28125q-0.390625 0.265625 -0.59375 0.765625q-0.203125 0.484375 -0.203125 1.140625q0 0.984375 0.515625 1.609375q0.53125 0.625 1.375 0.625q0.71875 0 1.734375 -0.328125l0 1.65625zm6.8408813 -5.015625q-0.296875 -0.125 -0.484375 -0.15625q-0.171875 -0.03125 -0.5 -0.03125q-0.5625 0 -0.953125 0.21875q-0.390625 0.203125 -0.71875 0.671875l0 4.40625l-2.5625 0l0 -7.21875l2.5625 0l0 1.359375l0.03125 0q0.109375 -0.34375 0.40625 -0.671875q0.3125 -0.328125 0.75 -0.578125q0.5 -0.28125 1.15625 -0.28125q0.1875 0 0.3125 0.046875l0 2.234375zm7.8984375 4.875q-0.234375 0.0625 -0.4375 0.109375q-1.296875 0.296875 -2.515625 0.296875q-0.890625 0 -1.65625 -0.21875q-0.75 -0.234375 -1.234375 -0.625q-0.609375 -0.515625 -0.984375 -1.34375q-0.359375 -0.84375 -0.359375 -1.703125q0 -0.8125 0.265625 -1.5q0.28125 -0.6875 0.78125 -1.171875q0.5 -0.484375 1.203125 -0.734375q0.71875 -0.265625 1.578125 -0.265625q0.828125 0 1.40625 0.203125q0.578125 0.203125 1.0 0.625q0.5625 0.59375 0.75 1.328125q0.09375 0.359375 0.125 0.640625q0.046875 0.265625 0.0625 0.640625q0.015625 0.359375 0.015625 0.90625l-4.53125 0q0.03125 0.3125 0.078125 0.515625q0.046875 0.1875 0.171875 0.375q0.234375 0.359375 0.640625 0.515625q0.421875 0.15625 1.15625 0.15625q0.671875 0 1.109375 -0.078125q0.4375 -0.078125 1.375 -0.375l0 1.703125zm-2.421875 -4.09375l0 -0.109375q0 -0.8125 -0.234375 -1.171875q-0.21875 -0.375 -0.71875 -0.375q-0.359375 0 -0.625 0.203125q-0.25 0.1875 -0.390625 0.5625q-0.140625 0.359375 -0.171875 0.890625l2.140625 0zm8.36792 4.265625q-0.46875 0.140625 -0.75 0.171875q-0.265625 0.046875 -0.6875 0.046875q-1.109375 0 -1.78125 -0.40625q-0.5 -0.3125 -0.6875 -0.765625q-0.171875 -0.46875 -0.171875 -1.40625l0 -3.359375l-0.71875 0l0 -1.4375l0.71875 0l0 -1.140625l2.578125 -0.3125l0 1.453125l1.359375 0l0 1.4375l-1.359375 0l0 3.09375q0 0.46875 0.03125 0.65625q0.046875 0.1875 0.203125 0.359375q0.234375 0.234375 0.703125 0.234375q0.234375 0 0.5625 -0.109375l0 1.484375zm8.045898 -0.171875q-0.234375 0.0625 -0.4375 0.109375q-1.296875 0.296875 -2.515625 0.296875q-0.890625 0 -1.65625 -0.21875q-0.75 -0.234375 -1.234375 -0.625q-0.609375 -0.515625 -0.984375 -1.34375q-0.359375 -0.84375 -0.359375 -1.703125q0 -0.8125 0.265625 -1.5q0.28125 -0.6875 0.78125 -1.171875q0.5 -0.484375 1.203125 -0.734375q0.71875 -0.265625 1.578125 -0.265625q0.828125 0 1.40625 0.203125q0.578125 0.203125 1.0 0.625q0.5625 0.59375 0.75 1.328125q0.09375 0.359375 0.125 0.640625q0.046875 0.265625 0.0625 0.640625q0.015625 0.359375 0.015625 0.90625l-4.53125 0q0.03125 0.3125 0.078125 0.515625q0.046875 0.1875 0.171875 0.375q0.234375 0.359375 0.640625 0.515625q0.421875 0.15625 1.15625 0.15625q0.671875 0 1.109375 -0.078125q0.4375 -0.078125 1.375 -0.375l0 1.703125zm-2.421875 -4.09375l0 -0.109375q0 -0.8125 -0.234375 -1.171875q-0.21875 -0.375 -0.71875 -0.375q-0.359375 0 -0.625 0.203125q-0.25 0.1875 -0.390625 0.5625q-0.140625 0.359375 -0.171875 0.890625l2.140625 0zm11.383545 1.953125q0 0.515625 -0.234375 1.0q-0.21875 0.46875 -0.609375 0.796875q-0.40625 0.3125 -0.90625 0.453125q-0.484375 0.125 -1.34375 0.125l-4.140625 0l0 -9.640625l3.875 0q0.859375 0 1.328125 0.125q0.484375 0.109375 0.84375 0.390625q0.234375 0.203125 0.40625 0.484375q0.1875 0.265625 0.28125 0.5625q0.09375 0.296875 0.09375 0.59375q0 0.296875 -0.09375 0.59375q-0.078125 0.296875 -0.234375 0.53125q-0.15625 0.234375 -0.40625 0.453125q-0.375 0.3125 -0.703125 0.46875q-0.328125 0.15625 -1.140625 0.40625q0.453125 0.078125 0.796875 0.1875q0.359375 0.09375 0.59375 0.21875q0.25 0.109375 0.515625 0.296875q0.53125 0.359375 0.796875 0.859375q0.28125 0.5 0.28125 1.09375zm-2.9375 -4.75q0 -0.28125 -0.125 -0.484375q-0.109375 -0.203125 -0.328125 -0.28125q-0.171875 -0.0625 -0.375 -0.078125q-0.1875 -0.015625 -0.859375 -0.015625l-0.28125 0l0 2.203125l0.484375 0q0.640625 0 1.0625 -0.375q0.421875 -0.390625 0.421875 -0.96875zm0.328125 4.453125q0 -0.328125 -0.140625 -0.609375q-0.140625 -0.28125 -0.40625 -0.5q-0.265625 -0.21875 -0.625 -0.3125q-0.34375 -0.109375 -0.75 -0.109375l-0.375 0l0 2.5625l0.515625 0q0.625 0 0.9375 -0.0625q0.390625 -0.0625 0.609375 -0.328125q0.234375 -0.265625 0.234375 -0.640625zm11.2751465 2.671875l-2.5625 0l0 -1.359375l-0.03125 0q-0.328125 0.71875 -0.953125 1.125q-0.625 0.390625 -1.40625 0.390625q-0.875 0 -1.46875 -0.546875q-0.34375 -0.3125 -0.5 -0.734375q-0.140625 -0.421875 -0.140625 -1.078125l0 -5.015625l2.5625 0l0 4.484375q0 0.34375 0.0625 0.5625q0.0625 0.203125 0.203125 0.3125q0.140625 0.09375 0.359375 0.09375q0.34375 0 0.640625 -0.25q0.3125 -0.25 0.671875 -0.796875l0 -4.40625l2.5625 0l0 7.21875zm4.812805 -8.359375l-2.5625 0l0 -1.921875l2.5625 0l0 1.921875zm0 8.359375l-2.5625 0l0 -7.21875l2.5625 0l0 7.21875zm4.809326 0l-2.5625 0l0 -10.28125l2.5625 0l0 10.28125zm9.262451 0l-2.5625 0l0 -1.359375l-0.015625 0q-0.265625 0.703125 -0.890625 1.109375q-0.609375 0.40625 -1.40625 0.40625q-0.859375 0 -1.5 -0.421875q-0.625 -0.4375 -0.953125 -1.25q-0.328125 -0.828125 -0.328125 -1.921875q0 -1.21875 0.375 -2.109375q0.375 -0.890625 1.078125 -1.359375q0.703125 -0.484375 1.640625 -0.484375q0.59375 0 1.015625 0.171875q0.421875 0.171875 0.96875 0.625l0.015625 0l0 -0.625l0 -3.0625l2.5625 0l0 10.28125zm-2.5625 -2.765625l0 -2.421875q-0.484375 -0.671875 -1.109375 -0.671875q-0.359375 0 -0.65625 0.28125q-0.28125 0.28125 -0.4375 0.8125q-0.15625 0.515625 -0.15625 1.140625q0 0.890625 0.3125 1.390625q0.3125 0.5 0.859375 0.5q0.671875 0 1.1875 -1.03125zm11.273743 2.53125q-0.234375 0.0625 -0.4375 0.109375q-1.296875 0.296875 -2.515625 0.296875q-0.890625 0 -1.65625 -0.21875q-0.75 -0.234375 -1.234375 -0.625q-0.609375 -0.515625 -0.984375 -1.34375q-0.359375 -0.84375 -0.359375 -1.703125q0 -0.8125 0.265625 -1.5q0.28125 -0.6875 0.78125 -1.171875q0.5 -0.484375 1.203125 -0.734375q0.71875 -0.265625 1.578125 -0.265625q0.828125 0 1.40625 0.203125q0.578125 0.203125 1.0 0.625q0.5625 0.59375 0.75 1.328125q0.09375 0.359375 0.125 0.640625q0.046875 0.265625 0.0625 0.640625q0.015625 0.359375 0.015625 0.90625l-4.53125 0q0.03125 0.3125 0.078125 0.515625q0.046875 0.1875 0.171875 0.375q0.234375 0.359375 0.640625 0.515625q0.421875 0.15625 1.15625 0.15625q0.671875 0 1.109375 -0.078125q0.4375 -0.078125 1.375 -0.375l0 1.703125zm-2.421875 -4.09375l0 -0.109375q0 -0.8125 -0.234375 -1.171875q-0.21875 -0.375 -0.71875 -0.375q-0.359375 0 -0.625 0.203125q-0.25 0.1875 -0.390625 0.5625q-0.140625 0.359375 -0.171875 0.890625l2.140625 0zm9.367889 -0.78125q-0.296875 -0.125 -0.484375 -0.15625q-0.171875 -0.03125 -0.5 -0.03125q-0.5625 0 -0.953125 0.21875q-0.390625 0.203125 -0.71875 0.671875l0 4.40625l-2.5625 0l0 -7.21875l2.5625 0l0 1.359375l0.03125 0q0.109375 -0.34375 0.40625 -0.671875q0.3125 -0.328125 0.75 -0.578125q0.5 -0.28125 1.15625 -0.28125q0.1875 0 0.3125 0.046875l0 2.234375z" fill-rule="nonzero"/><path fill="#000000" fill-opacity="0.0" d="m331.8924 218.99475l162.61417 0l0 23.874008l-162.61417 0z" fill-rule="evenodd"/><path stroke="#000000" stroke-width="2.0" stroke-linejoin="round" stroke-linecap="butt" d="m331.8924 218.99475l162.61417 0l0 23.874008l-162.61417 0z" fill-rule="evenodd"/><path fill="#000000" d="m342.18927 235.73175l0 -1.609375l1.609375 0l0 1.609375l-1.609375 0zm4.217102 0l0 -1.609375l1.609375 0l0 1.609375l-1.609375 0zm4.217102 0l0 -1.609375l1.609375 0l0 1.609375l-1.609375 0z" fill-rule="nonzero"/><path fill="#000000" fill-opacity="0.0" d="m10.968504 173.82939l253.41733 0l0 45.16536l-253.41733 0z" fill-rule="evenodd"/><path stroke="#000000" stroke-width="3.0" stroke-linejoin="round" stroke-linecap="butt" d="m10.968504 173.82939l253.41733 0l0 45.16536l-253.41733 0z" fill-rule="evenodd"/><path fill="#000000" d="m120.59289 198.83707q-0.109375 0.515625 -0.4375 1.0q-0.328125 0.46875 -0.78125 0.796875q-0.46875 0.3125 -1.0 0.453125q-0.515625 0.125 -1.375 0.125l-4.140625 0l2.046875 -9.640625l3.875 0q0.859375 0 1.3125 0.125q0.453125 0.109375 0.75 0.390625q0.1875 0.203125 0.3125 0.484375q0.125 0.265625 0.15625 0.5625q0.03125 0.296875 -0.03125 0.59375q-0.0625 0.296875 -0.21875 0.59375q-0.140625 0.296875 -0.359375 0.53125q-0.203125 0.234375 -0.5 0.453125q-0.4375 0.3125 -0.796875 0.46875q-0.359375 0.15625 -1.234375 0.40625q0.4375 0.078125 0.765625 0.1875q0.34375 0.09375 0.546875 0.21875q0.21875 0.109375 0.453125 0.296875q0.453125 0.359375 0.609375 0.859375q0.171875 0.5 0.046875 1.09375zm-1.921875 -4.75q0.0625 -0.28125 -0.015625 -0.484375q-0.078125 -0.203125 -0.28125 -0.28125q-0.15625 -0.0625 -0.34375 -0.078125q-0.1875 -0.015625 -0.859375 -0.015625l-0.28125 0l-0.46875 2.203125l0.484375 0q0.640625 0 1.140625 -0.375q0.5 -0.390625 0.625 -0.96875zm-0.625 4.453125q0.078125 -0.328125 -0.015625 -0.609375q-0.078125 -0.28125 -0.296875 -0.5q-0.21875 -0.21875 -0.546875 -0.3125q-0.328125 -0.109375 -0.734375 -0.109375l-0.375 0l-0.546875 2.5625l0.515625 0q0.625 0 0.953125 -0.0625q0.40625 -0.0625 0.6875 -0.328125q0.28125 -0.265625 0.359375 -0.640625zm10.712654 2.671875l-2.5624924 0l0.28125 -1.359375l-0.03125 0q-0.46875 0.71875 -1.1875 1.125q-0.703125 0.390625 -1.484375 0.390625q-0.875 0 -1.359375 -0.546875q-0.265625 -0.3125 -0.328125 -0.734375q-0.0625 -0.421875 0.078125 -1.078125l1.0625 -5.015625l2.5625 0l-0.953125 4.484375q-0.0625 0.34375 -0.046875 0.5625q0.015625 0.203125 0.125 0.3125q0.125 0.09375 0.34375 0.09375q0.34375 0 0.703125 -0.25q0.359375 -0.25 0.828125 -0.796875l0.9375 -4.40625l2.5624924 0l-1.53125 7.21875zm6.594055 -8.359375l-2.5625 0l0.40625 -1.921875l2.5625 0l-0.40625 1.921875zm-1.78125 8.359375l-2.5625 0l1.53125 -7.21875l2.5625 0l-1.53125 7.21875zm4.809326 0l-2.5625 0l2.1875 -10.28125l2.5625 0l-2.1875 10.28125zm9.262451 0l-2.5625 0l0.28125 -1.359375l-0.015625 0q-0.40625 0.703125 -1.109375 1.109375q-0.703125 0.40625 -1.5 0.40625q-0.859375 0 -1.40625 -0.421875q-0.53125 -0.4375 -0.6875 -1.25q-0.15625 -0.828125 0.078125 -1.921875q0.25 -1.21875 0.8125 -2.109375q0.578125 -0.890625 1.375 -1.359375q0.8125 -0.484375 1.75 -0.484375q0.59375 0 0.96875 0.171875q0.390625 0.171875 0.84375 0.625l0.015625 0l0.125 -0.625l0.65625 -3.0625l2.5625 0l-2.1875 10.28125zm-1.96875 -2.765625l0.515625 -2.421875q-0.34375 -0.671875 -0.96875 -0.671875q-0.359375 0 -0.71875 0.28125q-0.34375 0.28125 -0.609375 0.8125q-0.265625 0.515625 -0.40625 1.140625q-0.1875 0.890625 0.015625 1.390625q0.21875 0.5 0.765625 0.5q0.671875 0 1.40625 -1.03125zm10.726868 2.53125q-0.25 0.0625 -0.453125 0.109375q-1.359375 0.296875 -2.578125 0.296875q-0.890625 0 -1.609375 -0.21875q-0.703125 -0.234375 -1.109375 -0.625q-0.5 -0.515625 -0.6875 -1.34375q-0.1875 -0.84375 0 -1.703125q0.171875 -0.8125 0.578125 -1.5q0.421875 -0.6875 1.03125 -1.171875q0.609375 -0.484375 1.375 -0.734375q0.765625 -0.265625 1.625 -0.265625q0.828125 0 1.359375 0.203125q0.53125 0.203125 0.859375 0.625q0.4375 0.59375 0.46875 1.328125q0.015625 0.359375 0 0.640625q-0.015625 0.265625 -0.078125 0.640625q-0.0625 0.359375 -0.1875 0.90625l-4.53125 0q-0.03125 0.3125 -0.03125 0.515625q0.015625 0.1875 0.09375 0.375q0.15625 0.359375 0.53125 0.515625q0.390625 0.15625 1.125 0.15625q0.671875 0 1.125 -0.078125q0.453125 -0.078125 1.453125 -0.375l-0.359375 1.703125zm-1.546875 -4.09375l0.015625 -0.109375q0.171875 -0.8125 0.015625 -1.171875q-0.140625 -0.375 -0.640625 -0.375q-0.359375 0 -0.65625 0.203125q-0.296875 0.1875 -0.515625 0.5625q-0.21875 0.359375 -0.359375 0.890625l2.140625 0zm9.539764 -0.78125q-0.28125 -0.125 -0.453125 -0.15625q-0.171875 -0.03125 -0.5 -0.03125q-0.5625 0 -1.0 0.21875q-0.4375 0.203125 -0.859375 0.671875l-0.9375 4.40625l-2.5625 0l1.53125 -7.21875l2.5625 0l-0.28125 1.359375l0.03125 0q0.171875 -0.34375 0.546875 -0.671875q0.375 -0.328125 0.875 -0.578125q0.5625 -0.28125 1.21875 -0.28125q0.1875 0 0.296875 0.046875l-0.46875 2.234375z" fill-rule="nonzero"/><path fill="#000000" fill-opacity="0.0" d="m10.968504 242.86876l253.41733 0l0 82.866135l-253.41733 0z" fill-rule="evenodd"/><path stroke="#000000" stroke-width="2.0" stroke-linejoin="round" stroke-linecap="butt" d="m10.968504 242.86876l253.41733 0l0 82.866135l-253.41733 0z" fill-rule="evenodd"/><path fill="#000000" d="m23.765379 256.78934l0.65625 -3.0625l-3.046875 0l0.203125 -0.953125l3.046875 0l0.65625 -3.0625l0.96875 0l-0.65625 3.0625l3.046875 0l-0.203125 0.953125l-3.046875 0l-0.65625 3.0625l-0.96875 0zm10.113554 0.390625l2.203125 -10.359375l1.28125 0l-0.96875 4.546875q0.5625 -0.75 1.21875 -1.109375q0.671875 -0.375 1.453125 -0.375q1.3125 0 1.828125 0.96875q0.515625 0.953125 0.1875 2.5q-0.359375 1.671875 -1.40625 2.796875q-1.046875 1.109375 -2.453125 1.109375q-0.40625 0 -0.765625 -0.09375q-0.34375 -0.09375 -0.59375 -0.265625q-0.25 -0.1875 -0.515625 -0.59375l-0.34375 0.875l-1.125 0zm1.65625 -1.765625q0.53125 0.59375 0.890625 0.75q0.359375 0.140625 0.8125 0.140625q0.9375 0 1.5625 -0.796875q0.625 -0.796875 0.875 -2.03125q0.25 -1.140625 -0.015625 -1.8125q-0.25 -0.671875 -1.09375 -0.671875q-0.53125 0 -1.125 0.296875q-0.578125 0.28125 -1.21875 0.875l-0.6875 3.25zm11.169907 1.6875l0.28125 -1.328125q-0.65625 0.71875 -1.375 1.109375q-0.71875 0.375 -1.421875 0.375q-0.890625 0 -1.34375 -0.5625q-0.4375 -0.5625 -0.21875 -1.578125l1.078125 -5.078125l1.28125 0l-0.984375 4.65625q-0.15625 0.734375 -0.078125 0.96875q0.078125 0.234375 0.28125 0.375q0.21875 0.125 0.484375 0.125q0.46875 0 1.078125 -0.296875q0.625 -0.296875 1.46875 -1.25l0.96875 -4.578125l1.28125 0l-1.5 7.0625l-1.28125 0zm3.84964 0l1.5 -7.0625l1.28125 0l-1.5 7.0625l-1.28125 0zm1.78125 -8.34375l0.265625 -1.28125l1.28125 0l-0.265625 1.28125l-1.28125 0zm2.0714111 8.34375l2.1875 -10.28125l1.28125 0l-2.1875 10.28125l-1.28125 0zm8.383911 0l0.28125 -1.328125q-0.546875 0.75 -1.21875 1.125q-0.65625 0.359375 -1.4375 0.359375q-1.3125 0 -1.828125 -0.953125q-0.515625 -0.953125 -0.1875 -2.515625q0.359375 -1.671875 1.40625 -2.78125q1.046875 -1.125 2.4375 -1.125q0.40625 0 0.765625 0.09375q0.359375 0.09375 0.609375 0.28125q0.25 0.171875 0.5000038 0.578125l0.859375 -4.015625l1.296875 0l-2.1875 10.28125l-1.2968788 0zm1.140625 -5.375q-0.53125 -0.59375 -0.890625 -0.734375q-0.359375 -0.15625 -0.796875 -0.15625q-0.9375 0 -1.5625 0.796875q-0.609375 0.78125 -0.875 2.03125q-0.25 1.140625 0 1.8125q0.265625 0.65625 1.109375 0.65625q0.53125 0 1.109375 -0.28125q0.59375 -0.296875 1.21875 -0.875l0.6875 -3.25zm2.6855354 5.375l2.046875 -9.625l2.609375 0q1.40625 0 1.953125 0.28125q0.546875 0.265625 0.75 0.828125q0.203125 0.5625 0.03125 1.40625q-0.21875 0.984375 -0.8125 1.734375q-0.578125 0.734375 -1.625 1.140625q-1.03125 0.40625 -2.1875 0.40625l-0.609375 0l-0.8125 3.828125l-1.34375 0zm2.375 -4.859375l0.5625 0q1.359375 0 2.078125 -0.609375q0.71875 -0.625 0.90625 -1.546875q0.109375 -0.484375 -0.015625 -0.828125q-0.109375 -0.34375 -0.484375 -0.546875q-0.359375 -0.21875 -1.40625 -0.21875l-0.84375 0l-0.796875 3.75zm8.851288 3.96875q-0.671875 0.515625 -1.296875 0.78125q-0.609375 0.265625 -1.140625 0.265625q-0.75 0 -1.296875 -0.484375q-0.53125 -0.5 -0.328125 -1.453125q0.21875 -1.03125 1.265625 -1.703125q1.046875 -0.6875 3.015625 -0.6875l0.296875 0l0.171875 -0.859375q0.109375 -0.5 0.03125 -0.734375q-0.078125 -0.234375 -0.34375 -0.359375q-0.265625 -0.140625 -0.703125 -0.140625q-1.0 0 -2.296875 0.625l0.21875 -1.0625q1.40625 -0.515625 2.546875 -0.515625q0.625 0 1.109375 0.203125q0.484375 0.1875 0.703125 0.625q0.21875 0.421875 0.015625 1.359375l-0.671875 3.203125q-0.109375 0.53125 -0.0625 0.71875q0.046875 0.1875 0.171875 0.28125q0.140625 0.09375 0.34375 0.09375q0.078125 0 0.234375 -0.015625l-0.046875 0.703125q-0.484375 0.203125 -1.0 0.203125q-0.359375 0 -0.640625 -0.21875q-0.28125 -0.234375 -0.296875 -0.828125zm-0.03125 -0.703125l0.390625 -1.828125l-0.40625 -0.015625q-1.015625 0 -1.78125 0.390625q-0.765625 0.390625 -0.90625 1.0625q-0.09375 0.46875 0.171875 0.78125q0.265625 0.3125 0.71875 0.3125q0.390625 0 0.84375 -0.171875q0.46875 -0.1875 0.96875 -0.53125zm3.5635376 1.59375l1.5 -7.0625l1.28125 0l-0.28125 1.328125q0.515625 -0.71875 1.171875 -1.09375q0.671875 -0.390625 1.359375 -0.390625q0.1875 0 0.40625 0.03125l-0.25 1.1875q-0.3125 -0.109375 -0.578125 -0.109375q-0.59375 0 -1.1875 0.375q-0.59375 0.359375 -1.15625 1.078125l-0.984375 4.65625l-1.28125 0zm8.609848 0q-0.625 0.15625 -1.0625 0.15625q-0.953125 0 -1.40625 -0.546875q-0.4375 -0.546875 -0.21875 -1.5625l0.875 -4.15625l-0.875 0l0.203125 -0.953125l0.875 0l0.28125 -1.28125l1.296875 -0.125l-0.296875 1.40625l1.859375 0l-0.203125 0.953125l-1.859375 0l-0.828125 3.921875q-0.15625 0.75 0.0625 1.078125q0.21875 0.3125 0.84375 0.3125q0.25 0 0.640625 -0.09375l-0.1875 0.890625zm4.719406 0.234375q-1.078125 0 -1.703125 -0.6875q-0.625 -0.6875 -0.75 -1.859375q-0.125 -1.1875 0.140625 -2.5q0.28125 -1.3125 0.890625 -2.484375q0.625 -1.1875 1.546875 -1.875q0.9375 -0.703125 2.015625 -0.703125q1.078125 0 1.703125 0.703125q0.640625 0.6875 0.75 1.875q0.125 1.171875 -0.15625 2.484375q-0.265625 1.296875 -0.890625 2.46875q-0.609375 1.171875 -1.546875 1.875q-0.921875 0.703125 -2.0 0.703125zm0.203125 -0.953125q1.046875 0 1.765625 -1.125q0.71875 -1.125 1.109375 -2.96875q0.40625 -1.84375 0.15625 -2.96875q-0.25 -1.125 -1.296875 -1.125q-1.0625 0 -1.765625 1.125q-0.703125 1.125 -1.109375 2.96875q-0.390625 1.84375 -0.15625 2.96875q0.234375 1.125 1.296875 1.125zm7.537079 0.71875l1.84375 -8.671875l-1.515625 0l0.171875 -0.796875l2.859375 -0.25l-2.0625 9.71875l-1.296875 0zm8.583954 1.046875l-0.1875 0.875q-0.90625 -0.71875 -1.359375 -1.71875q-0.4375 -1.0 -0.546875 -2.140625q-0.09375 -1.140625 0.140625 -2.234375q0.234375 -1.09375 0.8125 -2.234375q0.59375 -1.140625 1.453125 -2.140625q0.875 -1.0 2.09375 -1.734375l-0.1875 0.890625q-0.90625 0.796875 -1.421875 1.546875q-0.515625 0.75 -0.890625 1.6875q-0.359375 0.9375 -0.578125 1.984375q-0.21875 1.03125 -0.25 1.984375q-0.03125 0.9375 0.15625 1.6875q0.203125 0.734375 0.765625 1.546875zm3.1779938 -10.4375l0.1875 -0.890625q0.90625 0.734375 1.34375 1.734375q0.453125 1.0 0.546875 2.140625q0.09375 1.140625 -0.140625 2.234375q-0.234375 1.09375 -0.8125 2.234375q-0.578125 1.140625 -1.453125 2.140625q-0.859375 1.0 -2.078125 1.71875l0.1875 -0.875q0.90625 -0.8125 1.40625 -1.546875q0.515625 -0.75 0.875 -1.6875q0.375 -0.953125 0.59375 -1.984375q0.21875 -1.03125 0.25 -1.96875q0.03125 -0.953125 -0.15625 -1.703125q-0.1875 -0.75 -0.75 -1.546875zm3.3186188 9.390625l0.265625 -1.28125l1.28125 0l-0.265625 1.28125l-1.28125 0zm1.234375 -5.78125l0.265625 -1.28125l1.28125 0l-0.265625 1.28125l-1.28125 0zm8.481079 5.78125l-1.140625 -7.0625l1.296875 0l0.875 5.5l3.34375 -5.5l1.1875 0l-4.28125 7.0625l-1.28125 0zm8.210846 0.15625q-1.015625 0 -1.671875 -0.40625q-0.65625 -0.40625 -0.90625 -1.296875q-0.25 -0.890625 -0.015625 -1.984375q0.21875 -1.03125 0.796875 -1.90625q0.59375 -0.890625 1.4375 -1.328125q0.859375 -0.453125 1.921875 -0.453125q1.015625 0 1.671875 0.40625q0.65625 0.40625 0.90625 1.296875q0.25 0.890625 0.015625 1.984375q-0.21875 1.03125 -0.8125 1.921875q-0.59375 0.875 -1.4375 1.328125q-0.84375 0.4375 -1.90625 0.4375zm0.203125 -0.953125q0.953125 0 1.625 -0.703125q0.6875 -0.71875 0.96875 -2.03125q0.28125 -1.3125 -0.109375 -2.015625q-0.375 -0.71875 -1.328125 -0.71875q-0.953125 0 -1.625 0.71875q-0.671875 0.703125 -0.953125 2.015625q-0.28125 1.3125 0.09375 2.03125q0.375 0.703125 1.328125 0.703125zm5.20253 0.796875l1.5 -7.0625l1.28125 0l-1.5 7.0625l-1.28125 0zm1.78125 -8.34375l0.265625 -1.28125l1.28125 0l-0.265625 1.28125l-1.28125 0zm6.602661 8.34375l0.28125 -1.328125q-0.546875 0.75 -1.21875 1.125q-0.65625 0.359375 -1.4375 0.359375q-1.3125 0 -1.828125 -0.953125q-0.515625 -0.953125 -0.1875 -2.515625q0.359375 -1.671875 1.40625 -2.78125q1.046875 -1.125 2.4375 -1.125q0.40625 0 0.765625 0.09375q0.359375 0.09375 0.609375 0.28125q0.25 0.171875 0.5 0.578125l0.859375 -4.015625l1.296875 0l-2.1875 10.28125l-1.296875 0zm1.140625 -5.375q-0.53125 -0.59375 -0.890625 -0.734375q-0.359375 -0.15625 -0.796875 -0.15625q-0.9375 0 -1.5625 0.796875q-0.609375 0.78125 -0.875 2.03125q-0.25 1.140625 0 1.8125q0.265625 0.65625 1.109375 0.65625q0.53125 0 1.109375 -0.28125q0.59375 -0.296875 1.21875 -0.875l0.6875 -3.25z" fill-rule="nonzero"/><path fill="#000000" d="m23.765379 272.78934l0.65625 -3.0625l-3.046875 0l0.203125 -0.953125l3.046875 0l0.65625 -3.0625l0.96875 0l-0.65625 3.0625l3.046875 0l-0.203125 0.953125l-3.046875 0l-0.65625 3.0625l-0.96875 0zm10.113554 0.390625l2.203125 -10.359375l1.28125 0l-0.96875 4.546875q0.5625 -0.75 1.21875 -1.109375q0.671875 -0.375 1.453125 -0.375q1.3125 0 1.828125 0.96875q0.515625 0.953125 0.1875 2.5q-0.359375 1.671875 -1.40625 2.796875q-1.046875 1.109375 -2.453125 1.109375q-0.40625 0 -0.765625 -0.09375q-0.34375 -0.09375 -0.59375 -0.265625q-0.25 -0.1875 -0.515625 -0.59375l-0.34375 0.875l-1.125 0zm1.65625 -1.765625q0.53125 0.59375 0.890625 0.75q0.359375 0.140625 0.8125 0.140625q0.9375 0 1.5625 -0.796875q0.625 -0.796875 0.875 -2.03125q0.25 -1.140625 -0.015625 -1.8125q-0.25 -0.671875 -1.09375 -0.671875q-0.53125 0 -1.125 0.296875q-0.578125 0.28125 -1.21875 0.875l-0.6875 3.25zm11.169907 1.6875l0.28125 -1.328125q-0.65625 0.71875 -1.375 1.109375q-0.71875 0.375 -1.421875 0.375q-0.890625 0 -1.34375 -0.5625q-0.4375 -0.5625 -0.21875 -1.578125l1.078125 -5.078125l1.28125 0l-0.984375 4.65625q-0.15625 0.734375 -0.078125 0.96875q0.078125 0.234375 0.28125 0.375q0.21875 0.125 0.484375 0.125q0.46875 0 1.078125 -0.296875q0.625 -0.296875 1.46875 -1.25l0.96875 -4.578125l1.28125 0l-1.5 7.0625l-1.28125 0zm3.84964 0l1.5 -7.0625l1.28125 0l-1.5 7.0625l-1.28125 0zm1.78125 -8.34375l0.265625 -1.28125l1.28125 0l-0.265625 1.28125l-1.28125 0zm2.0714111 8.34375l2.1875 -10.28125l1.28125 0l-2.1875 10.28125l-1.28125 0zm8.383911 0l0.28125 -1.328125q-0.546875 0.75 -1.21875 1.125q-0.65625 0.359375 -1.4375 0.359375q-1.3125 0 -1.828125 -0.953125q-0.515625 -0.953125 -0.1875 -2.515625q0.359375 -1.671875 1.40625 -2.78125q1.046875 -1.125 2.4375 -1.125q0.40625 0 0.765625 0.09375q0.359375 0.09375 0.609375 0.28125q0.25 0.171875 0.5000038 0.578125l0.859375 -4.015625l1.296875 0l-2.1875 10.28125l-1.2968788 0zm1.140625 -5.375q-0.53125 -0.59375 -0.890625 -0.734375q-0.359375 -0.15625 -0.796875 -0.15625q-0.9375 0 -1.5625 0.796875q-0.609375 0.78125 -0.875 2.03125q-0.25 1.140625 0 1.8125q0.265625 0.65625 1.109375 0.65625q0.53125 0 1.109375 -0.28125q0.59375 -0.296875 1.21875 -0.875l0.6875 -3.25zm2.6855354 5.375l2.046875 -9.625l2.609375 0q1.40625 0 1.953125 0.28125q0.546875 0.265625 0.75 0.828125q0.203125 0.5625 0.03125 1.40625q-0.21875 0.984375 -0.8125 1.734375q-0.578125 0.734375 -1.625 1.140625q-1.03125 0.40625 -2.1875 0.40625l-0.609375 0l-0.8125 3.828125l-1.34375 0zm2.375 -4.859375l0.5625 0q1.359375 0 2.078125 -0.609375q0.71875 -0.625 0.90625 -1.546875q0.109375 -0.484375 -0.015625 -0.828125q-0.109375 -0.34375 -0.484375 -0.546875q-0.359375 -0.21875 -1.40625 -0.21875l-0.84375 0l-0.796875 3.75zm8.851288 3.96875q-0.671875 0.515625 -1.296875 0.78125q-0.609375 0.265625 -1.140625 0.265625q-0.75 0 -1.296875 -0.484375q-0.53125 -0.5 -0.328125 -1.453125q0.21875 -1.03125 1.265625 -1.703125q1.046875 -0.6875 3.015625 -0.6875l0.296875 0l0.171875 -0.859375q0.109375 -0.5 0.03125 -0.734375q-0.078125 -0.234375 -0.34375 -0.359375q-0.265625 -0.140625 -0.703125 -0.140625q-1.0 0 -2.296875 0.625l0.21875 -1.0625q1.40625 -0.515625 2.546875 -0.515625q0.625 0 1.109375 0.203125q0.484375 0.1875 0.703125 0.625q0.21875 0.421875 0.015625 1.359375l-0.671875 3.203125q-0.109375 0.53125 -0.0625 0.71875q0.046875 0.1875 0.171875 0.28125q0.140625 0.09375 0.34375 0.09375q0.078125 0 0.234375 -0.015625l-0.046875 0.703125q-0.484375 0.203125 -1.0 0.203125q-0.359375 0 -0.640625 -0.21875q-0.28125 -0.234375 -0.296875 -0.828125zm-0.03125 -0.703125l0.390625 -1.828125l-0.40625 -0.015625q-1.015625 0 -1.78125 0.390625q-0.765625 0.390625 -0.90625 1.0625q-0.09375 0.46875 0.171875 0.78125q0.265625 0.3125 0.71875 0.3125q0.390625 0 0.84375 -0.171875q0.46875 -0.1875 0.96875 -0.53125zm3.5635376 1.59375l1.5 -7.0625l1.28125 0l-0.28125 1.328125q0.515625 -0.71875 1.171875 -1.09375q0.671875 -0.390625 1.359375 -0.390625q0.1875 0 0.40625 0.03125l-0.25 1.1875q-0.3125 -0.109375 -0.578125 -0.109375q-0.59375 0 -1.1875 0.375q-0.59375 0.359375 -1.15625 1.078125l-0.984375 4.65625l-1.28125 0zm8.609848 0q-0.625 0.15625 -1.0625 0.15625q-0.953125 0 -1.40625 -0.546875q-0.4375 -0.546875 -0.21875 -1.5625l0.875 -4.15625l-0.875 0l0.203125 -0.953125l0.875 0l0.28125 -1.28125l1.296875 -0.125l-0.296875 1.40625l1.859375 0l-0.203125 0.953125l-1.859375 0l-0.828125 3.921875q-0.15625 0.75 0.0625 1.078125q0.21875 0.3125 0.84375 0.3125q0.25 0 0.640625 -0.09375l-0.1875 0.890625zm4.719406 0.234375q-1.078125 0 -1.703125 -0.6875q-0.625 -0.6875 -0.75 -1.859375q-0.125 -1.1875 0.140625 -2.5q0.28125 -1.3125 0.890625 -2.484375q0.625 -1.1875 1.546875 -1.875q0.9375 -0.703125 2.015625 -0.703125q1.078125 0 1.703125 0.703125q0.640625 0.6875 0.75 1.875q0.125 1.171875 -0.15625 2.484375q-0.265625 1.296875 -0.890625 2.46875q-0.609375 1.171875 -1.546875 1.875q-0.921875 0.703125 -2.0 0.703125zm0.203125 -0.953125q1.046875 0 1.765625 -1.125q0.71875 -1.125 1.109375 -2.96875q0.40625 -1.84375 0.15625 -2.96875q-0.25 -1.125 -1.296875 -1.125q-1.0625 0 -1.765625 1.125q-0.703125 1.125 -1.109375 2.96875q-0.390625 1.84375 -0.15625 2.96875q0.234375 1.125 1.296875 1.125zm5.162079 0.71875l0.234375 -1.125q0.84375 -1.3125 2.875 -2.84375l0.875 -0.671875q0.953125 -0.71875 1.390625 -1.3125q0.4375 -0.59375 0.578125 -1.21875q0.171875 -0.8125 -0.234375 -1.265625q-0.40625 -0.46875 -1.234375 -0.46875q-0.359375 0 -0.703125 0.078125q-0.34375 0.0625 -0.75 0.21875q-0.40625 0.140625 -1.0625 0.46875l0.234375 -1.125q1.40625 -0.609375 2.671875 -0.609375q1.390625 0 2.03125 0.765625q0.65625 0.765625 0.40625 1.90625q-0.15625 0.734375 -0.625 1.390625q-0.46875 0.65625 -2.0 1.765625l-0.59375 0.421875q-0.640625 0.453125 -1.328125 1.109375q-0.671875 0.65625 -0.984375 1.390625l4.1875 0l-0.234375 1.125l-5.734375 0zm10.958954 1.046875l-0.1875 0.875q-0.90625 -0.71875 -1.359375 -1.71875q-0.4375 -1.0 -0.546875 -2.140625q-0.09375 -1.140625 0.140625 -2.234375q0.234375 -1.09375 0.8125 -2.234375q0.59375 -1.140625 1.453125 -2.140625q0.875 -1.0 2.09375 -1.734375l-0.1875 0.890625q-0.90625 0.796875 -1.421875 1.546875q-0.515625 0.75 -0.890625 1.6875q-0.359375 0.9375 -0.578125 1.984375q-0.21875 1.03125 -0.25 1.984375q-0.03125 0.9375 0.15625 1.6875q0.203125 0.734375 0.765625 1.546875zm3.1779938 -10.4375l0.1875 -0.890625q0.90625 0.734375 1.34375 1.734375q0.453125 1.0 0.546875 2.140625q0.09375 1.140625 -0.140625 2.234375q-0.234375 1.09375 -0.8125 2.234375q-0.578125 1.140625 -1.453125 2.140625q-0.859375 1.0 -2.078125 1.71875l0.1875 -0.875q0.90625 -0.8125 1.40625 -1.546875q0.515625 -0.75 0.875 -1.6875q0.375 -0.953125 0.59375 -1.984375q0.21875 -1.03125 0.25 -1.96875q0.03125 -0.953125 -0.15625 -1.703125q-0.1875 -0.75 -0.75 -1.546875zm3.3186188 9.390625l0.265625 -1.28125l1.28125 0l-0.265625 1.28125l-1.28125 0zm1.234375 -5.78125l0.265625 -1.28125l1.28125 0l-0.265625 1.28125l-1.28125 0zm8.481079 5.78125l-1.140625 -7.0625l1.296875 0l0.875 5.5l3.34375 -5.5l1.1875 0l-4.28125 7.0625l-1.28125 0zm8.210846 0.15625q-1.015625 0 -1.671875 -0.40625q-0.65625 -0.40625 -0.90625 -1.296875q-0.25 -0.890625 -0.015625 -1.984375q0.21875 -1.03125 0.796875 -1.90625q0.59375 -0.890625 1.4375 -1.328125q0.859375 -0.453125 1.921875 -0.453125q1.015625 0 1.671875 0.40625q0.65625 0.40625 0.90625 1.296875q0.25 0.890625 0.015625 1.984375q-0.21875 1.03125 -0.8125 1.921875q-0.59375 0.875 -1.4375 1.328125q-0.84375 0.4375 -1.90625 0.4375zm0.203125 -0.953125q0.953125 0 1.625 -0.703125q0.6875 -0.71875 0.96875 -2.03125q0.28125 -1.3125 -0.109375 -2.015625q-0.375 -0.71875 -1.328125 -0.71875q-0.953125 0 -1.625 0.71875q-0.671875 0.703125 -0.953125 2.015625q-0.28125 1.3125 0.09375 2.03125q0.375 0.703125 1.328125 0.703125zm5.20253 0.796875l1.5 -7.0625l1.28125 0l-1.5 7.0625l-1.28125 0zm1.78125 -8.34375l0.265625 -1.28125l1.28125 0l-0.265625 1.28125l-1.28125 0zm6.602661 8.34375l0.28125 -1.328125q-0.546875 0.75 -1.21875 1.125q-0.65625 0.359375 -1.4375 0.359375q-1.3125 0 -1.828125 -0.953125q-0.515625 -0.953125 -0.1875 -2.515625q0.359375 -1.671875 1.40625 -2.78125q1.046875 -1.125 2.4375 -1.125q0.40625 0 0.765625 0.09375q0.359375 0.09375 0.609375 0.28125q0.25 0.171875 0.5 0.578125l0.859375 -4.015625l1.296875 0l-2.1875 10.28125l-1.296875 0zm1.140625 -5.375q-0.53125 -0.59375 -0.890625 -0.734375q-0.359375 -0.15625 -0.796875 -0.15625q-0.9375 0 -1.5625 0.796875q-0.609375 0.78125 -0.875 2.03125q-0.25 1.140625 0 1.8125q0.265625 0.65625 1.109375 0.65625q0.53125 0 1.109375 -0.28125q0.59375 -0.296875 1.21875 -0.875l0.6875 -3.25z" fill-rule="nonzero"/><path fill="#000000" d="m23.765379 288.78934l0.65625 -3.0625l-3.046875 0l0.203125 -0.953125l3.046875 0l0.65625 -3.0625l0.96875 0l-0.65625 3.0625l3.046875 0l-0.203125 0.953125l-3.046875 0l-0.65625 3.0625l-0.96875 0zm10.113554 0.390625l2.203125 -10.359375l1.28125 0l-0.96875 4.546875q0.5625 -0.75 1.21875 -1.109375q0.671875 -0.375 1.453125 -0.375q1.3125 0 1.828125 0.96875q0.515625 0.953125 0.1875 2.5q-0.359375 1.671875 -1.40625 2.796875q-1.046875 1.109375 -2.453125 1.109375q-0.40625 0 -0.765625 -0.09375q-0.34375 -0.09375 -0.59375 -0.265625q-0.25 -0.1875 -0.515625 -0.59375l-0.34375 0.875l-1.125 0zm1.65625 -1.765625q0.53125 0.59375 0.890625 0.75q0.359375 0.140625 0.8125 0.140625q0.9375 0 1.5625 -0.796875q0.625 -0.796875 0.875 -2.03125q0.25 -1.140625 -0.015625 -1.8125q-0.25 -0.671875 -1.09375 -0.671875q-0.53125 0 -1.125 0.296875q-0.578125 0.28125 -1.21875 0.875l-0.6875 3.25zm11.169907 1.6875l0.28125 -1.328125q-0.65625 0.71875 -1.375 1.109375q-0.71875 0.375 -1.421875 0.375q-0.890625 0 -1.34375 -0.5625q-0.4375 -0.5625 -0.21875 -1.578125l1.078125 -5.078125l1.28125 0l-0.984375 4.65625q-0.15625 0.734375 -0.078125 0.96875q0.078125 0.234375 0.28125 0.375q0.21875 0.125 0.484375 0.125q0.46875 0 1.078125 -0.296875q0.625 -0.296875 1.46875 -1.25l0.96875 -4.578125l1.28125 0l-1.5 7.0625l-1.28125 0zm3.84964 0l1.5 -7.0625l1.28125 0l-1.5 7.0625l-1.28125 0zm1.78125 -8.34375l0.265625 -1.28125l1.28125 0l-0.265625 1.28125l-1.28125 0zm2.0714111 8.34375l2.1875 -10.28125l1.28125 0l-2.1875 10.28125l-1.28125 0zm8.383911 0l0.28125 -1.328125q-0.546875 0.75 -1.21875 1.125q-0.65625 0.359375 -1.4375 0.359375q-1.3125 0 -1.828125 -0.953125q-0.515625 -0.953125 -0.1875 -2.515625q0.359375 -1.671875 1.40625 -2.78125q1.046875 -1.125 2.4375 -1.125q0.40625 0 0.765625 0.09375q0.359375 0.09375 0.609375 0.28125q0.25 0.171875 0.5000038 0.578125l0.859375 -4.015625l1.296875 0l-2.1875 10.28125l-1.2968788 0zm1.140625 -5.375q-0.53125 -0.59375 -0.890625 -0.734375q-0.359375 -0.15625 -0.796875 -0.15625q-0.9375 0 -1.5625 0.796875q-0.609375 0.78125 -0.875 2.03125q-0.25 1.140625 0 1.8125q0.265625 0.65625 1.109375 0.65625q0.53125 0 1.109375 -0.28125q0.59375 -0.296875 1.21875 -0.875l0.6875 -3.25zm2.6855354 5.375l2.046875 -9.625l2.609375 0q1.40625 0 1.953125 0.28125q0.546875 0.265625 0.75 0.828125q0.203125 0.5625 0.03125 1.40625q-0.21875 0.984375 -0.8125 1.734375q-0.578125 0.734375 -1.625 1.140625q-1.03125 0.40625 -2.1875 0.40625l-0.609375 0l-0.8125 3.828125l-1.34375 0zm2.375 -4.859375l0.5625 0q1.359375 0 2.078125 -0.609375q0.71875 -0.625 0.90625 -1.546875q0.109375 -0.484375 -0.015625 -0.828125q-0.109375 -0.34375 -0.484375 -0.546875q-0.359375 -0.21875 -1.40625 -0.21875l-0.84375 0l-0.796875 3.75zm8.851288 3.96875q-0.671875 0.515625 -1.296875 0.78125q-0.609375 0.265625 -1.140625 0.265625q-0.75 0 -1.296875 -0.484375q-0.53125 -0.5 -0.328125 -1.453125q0.21875 -1.03125 1.265625 -1.703125q1.046875 -0.6875 3.015625 -0.6875l0.296875 0l0.171875 -0.859375q0.109375 -0.5 0.03125 -0.734375q-0.078125 -0.234375 -0.34375 -0.359375q-0.265625 -0.140625 -0.703125 -0.140625q-1.0 0 -2.296875 0.625l0.21875 -1.0625q1.40625 -0.515625 2.546875 -0.515625q0.625 0 1.109375 0.203125q0.484375 0.1875 0.703125 0.625q0.21875 0.421875 0.015625 1.359375l-0.671875 3.203125q-0.109375 0.53125 -0.0625 0.71875q0.046875 0.1875 0.171875 0.28125q0.140625 0.09375 0.34375 0.09375q0.078125 0 0.234375 -0.015625l-0.046875 0.703125q-0.484375 0.203125 -1.0 0.203125q-0.359375 0 -0.640625 -0.21875q-0.28125 -0.234375 -0.296875 -0.828125zm-0.03125 -0.703125l0.390625 -1.828125l-0.40625 -0.015625q-1.015625 0 -1.78125 0.390625q-0.765625 0.390625 -0.90625 1.0625q-0.09375 0.46875 0.171875 0.78125q0.265625 0.3125 0.71875 0.3125q0.390625 0 0.84375 -0.171875q0.46875 -0.1875 0.96875 -0.53125zm3.5635376 1.59375l1.5 -7.0625l1.28125 0l-0.28125 1.328125q0.515625 -0.71875 1.171875 -1.09375q0.671875 -0.390625 1.359375 -0.390625q0.1875 0 0.40625 0.03125l-0.25 1.1875q-0.3125 -0.109375 -0.578125 -0.109375q-0.59375 0 -1.1875 0.375q-0.59375 0.359375 -1.15625 1.078125l-0.984375 4.65625l-1.28125 0zm8.609848 0q-0.625 0.15625 -1.0625 0.15625q-0.953125 0 -1.40625 -0.546875q-0.4375 -0.546875 -0.21875 -1.5625l0.875 -4.15625l-0.875 0l0.203125 -0.953125l0.875 0l0.28125 -1.28125l1.296875 -0.125l-0.296875 1.40625l1.859375 0l-0.203125 0.953125l-1.859375 0l-0.828125 3.921875q-0.15625 0.75 0.0625 1.078125q0.21875 0.3125 0.84375 0.3125q0.25 0 0.640625 -0.09375l-0.1875 0.890625zm4.719406 0.234375q-1.078125 0 -1.703125 -0.6875q-0.625 -0.6875 -0.75 -1.859375q-0.125 -1.1875 0.140625 -2.5q0.28125 -1.3125 0.890625 -2.484375q0.625 -1.1875 1.546875 -1.875q0.9375 -0.703125 2.015625 -0.703125q1.078125 0 1.703125 0.703125q0.640625 0.6875 0.75 1.875q0.125 1.171875 -0.15625 2.484375q-0.265625 1.296875 -0.890625 2.46875q-0.609375 1.171875 -1.546875 1.875q-0.921875 0.703125 -2.0 0.703125zm0.203125 -0.953125q1.046875 0 1.765625 -1.125q0.71875 -1.125 1.109375 -2.96875q0.40625 -1.84375 0.15625 -2.96875q-0.25 -1.125 -1.296875 -1.125q-1.0625 0 -1.765625 1.125q-0.703125 1.125 -1.109375 2.96875q-0.390625 1.84375 -0.15625 2.96875q0.234375 1.125 1.296875 1.125zm5.427704 0.640625l0.25 -1.1875q1.265625 0.546875 2.046875 0.546875q0.921875 0 1.609375 -0.53125q0.6875 -0.546875 0.875 -1.40625q0.171875 -0.828125 -0.296875 -1.421875q-0.453125 -0.59375 -2.109375 -0.59375l-0.5 0l0.171875 -0.875l0.4375 0q1.546875 0 2.234375 -0.5625q0.6875 -0.5625 0.84375 -1.328125q0.140625 -0.671875 -0.21875 -1.0625q-0.359375 -0.40625 -1.234375 -0.40625q-0.953125 0 -2.21875 0.53125l0.234375 -1.109375q0.890625 -0.28125 1.359375 -0.328125q0.46875 -0.0625 0.90625 -0.0625q1.53125 0 2.125 0.609375q0.609375 0.609375 0.390625 1.625q-0.125 0.5625 -0.421875 1.0q-0.296875 0.421875 -0.796875 0.796875q-0.5 0.359375 -1.3125 0.625q0.890625 0.21875 1.28125 0.5625q0.390625 0.34375 0.5 0.875q0.125 0.515625 0 1.109375q-0.234375 1.140625 -1.203125 2.03125q-0.953125 0.875 -2.765625 0.875q-0.90625 0 -2.1875 -0.3125zm10.693329 1.125l-0.1875 0.875q-0.90625 -0.71875 -1.359375 -1.71875q-0.4375 -1.0 -0.546875 -2.140625q-0.09375 -1.140625 0.140625 -2.234375q0.234375 -1.09375 0.8125 -2.234375q0.59375 -1.140625 1.453125 -2.140625q0.875 -1.0 2.09375 -1.734375l-0.1875 0.890625q-0.90625 0.796875 -1.421875 1.546875q-0.515625 0.75 -0.890625 1.6875q-0.359375 0.9375 -0.578125 1.984375q-0.21875 1.03125 -0.25 1.984375q-0.03125 0.9375 0.15625 1.6875q0.203125 0.734375 0.765625 1.546875zm3.1779938 -10.4375l0.1875 -0.890625q0.90625 0.734375 1.34375 1.734375q0.453125 1.0 0.546875 2.140625q0.09375 1.140625 -0.140625 2.234375q-0.234375 1.09375 -0.8125 2.234375q-0.578125 1.140625 -1.453125 2.140625q-0.859375 1.0 -2.078125 1.71875l0.1875 -0.875q0.90625 -0.8125 1.40625 -1.546875q0.515625 -0.75 0.875 -1.6875q0.375 -0.953125 0.59375 -1.984375q0.21875 -1.03125 0.25 -1.96875q0.03125 -0.953125 -0.15625 -1.703125q-0.1875 -0.75 -0.75 -1.546875zm3.3186188 9.390625l0.265625 -1.28125l1.28125 0l-0.265625 1.28125l-1.28125 0zm1.234375 -5.78125l0.265625 -1.28125l1.28125 0l-0.265625 1.28125l-1.28125 0zm8.481079 5.78125l-1.140625 -7.0625l1.296875 0l0.875 5.5l3.34375 -5.5l1.1875 0l-4.28125 7.0625l-1.28125 0zm8.210846 0.15625q-1.015625 0 -1.671875 -0.40625q-0.65625 -0.40625 -0.90625 -1.296875q-0.25 -0.890625 -0.015625 -1.984375q0.21875 -1.03125 0.796875 -1.90625q0.59375 -0.890625 1.4375 -1.328125q0.859375 -0.453125 1.921875 -0.453125q1.015625 0 1.671875 0.40625q0.65625 0.40625 0.90625 1.296875q0.25 0.890625 0.015625 1.984375q-0.21875 1.03125 -0.8125 1.921875q-0.59375 0.875 -1.4375 1.328125q-0.84375 0.4375 -1.90625 0.4375zm0.203125 -0.953125q0.953125 0 1.625 -0.703125q0.6875 -0.71875 0.96875 -2.03125q0.28125 -1.3125 -0.109375 -2.015625q-0.375 -0.71875 -1.328125 -0.71875q-0.953125 0 -1.625 0.71875q-0.671875 0.703125 -0.953125 2.015625q-0.28125 1.3125 0.09375 2.03125q0.375 0.703125 1.328125 0.703125zm5.20253 0.796875l1.5 -7.0625l1.28125 0l-1.5 7.0625l-1.28125 0zm1.78125 -8.34375l0.265625 -1.28125l1.28125 0l-0.265625 1.28125l-1.28125 0zm6.602661 8.34375l0.28125 -1.328125q-0.546875 0.75 -1.21875 1.125q-0.65625 0.359375 -1.4375 0.359375q-1.3125 0 -1.828125 -0.953125q-0.515625 -0.953125 -0.1875 -2.515625q0.359375 -1.671875 1.40625 -2.78125q1.046875 -1.125 2.4375 -1.125q0.40625 0 0.765625 0.09375q0.359375 0.09375 0.609375 0.28125q0.25 0.171875 0.5 0.578125l0.859375 -4.015625l1.296875 0l-2.1875 10.28125l-1.296875 0zm1.140625 -5.375q-0.53125 -0.59375 -0.890625 -0.734375q-0.359375 -0.15625 -0.796875 -0.15625q-0.9375 0 -1.5625 0.796875q-0.609375 0.78125 -0.875 2.03125q-0.25 1.140625 0 1.8125q0.265625 0.65625 1.109375 0.65625q0.53125 0 1.109375 -0.28125q0.59375 -0.296875 1.21875 -0.875l0.6875 -3.25z" fill-rule="nonzero"/><path fill="#000000" d="m23.702879 320.78934l0 -3.0625l-3.046875 0l0 -0.953125l3.046875 0l0 -3.0625l0.96875 0l0 3.0625l3.046875 0l0 0.953125l-3.046875 0l0 3.0625l-0.96875 0zm10.222929 2.65625l0.140625 -1.109375q1.125 0.53125 2.203125 0.53125q1.21875 0 1.6875 -0.625q0.46875 -0.625 0.46875 -1.671875l0 -1.109375q-0.28125 0.578125 -0.875 1.03125q-0.578125 0.453125 -1.4375 0.453125q-1.453125 0 -2.125 -1.046875q-0.65625 -1.046875 -0.65625 -2.375q0 -1.015625 0.390625 -1.890625q0.390625 -0.875 1.078125 -1.3125q0.703125 -0.4375 1.59375 -0.4375q0.390625 0 0.734375 0.09375q0.34375 0.078125 0.640625 0.265625q0.296875 0.1875 0.65625 0.59375l0 -0.796875l1.296875 0l0 5.140625q0 2.234375 -0.375 3.0625q-0.375 0.828125 -1.171875 1.203125q-0.796875 0.390625 -1.90625 0.390625q-0.34375 0 -0.765625 -0.046875q-0.40625 -0.03125 -0.734375 -0.09375q-0.328125 -0.0625 -0.84375 -0.25zm4.5 -4.796875l0 -2.921875q-0.421875 -0.453125 -0.875 -0.671875q-0.453125 -0.21875 -0.96875 -0.21875q-0.84375 0 -1.359375 0.6875q-0.515625 0.6875 -0.515625 2.0q0 1.015625 0.375 1.65625q0.390625 0.640625 1.25 0.640625q0.5625 0 1.078125 -0.296875q0.53125 -0.296875 1.015625 -0.875zm8.966812 2.21875q-1.296875 0.390625 -2.21875 0.390625q-1.640625 0 -2.59375 -1.109375q-0.9375 -1.109375 -0.9375 -2.609375q0 -1.0 0.421875 -1.890625q0.421875 -0.90625 1.09375 -1.34375q0.671875 -0.4375 1.578125 -0.4375q1.21875 0 1.953125 0.890625q0.734375 0.875 0.734375 2.625l-0.015625 0.390625l-4.453125 0q0.109375 0.9375 0.40625 1.453125q0.296875 0.5 0.796875 0.78125q0.5 0.28125 1.265625 0.28125q0.390625 0 0.765625 -0.0625q0.390625 -0.078125 1.203125 -0.375l0 1.015625zm-4.375 -4.0625l3.109375 0q0 -1.0625 -0.421875 -1.515625q-0.40625 -0.453125 -1.046875 -0.453125q-0.734375 0 -1.15625 0.5q-0.40625 0.484375 -0.484375 1.46875zm9.769241 4.296875q-0.59375 0.15625 -1.03125 0.15625q-0.953125 0 -1.515625 -0.546875q-0.5625 -0.546875 -0.5625 -1.5625l0 -4.15625l-0.875 0l0 -0.953125l0.875 0l0 -1.28125l1.28125 -0.125l0 1.40625l1.859375 0l0 0.953125l-1.859375 0l0 3.921875q0 0.75 0.28125 1.078125q0.296875 0.3125 0.921875 0.3125q0.25 0 0.625 -0.09375l0 0.890625zm1.7975311 0l0 -9.625l2.609375 0q1.40625 0 2.015625 0.28125q0.609375 0.265625 0.921875 0.828125q0.328125 0.5625 0.328125 1.40625q0 0.984375 -0.4375 1.734375q-0.421875 0.734375 -1.375 1.140625q-0.953125 0.40625 -2.109375 0.40625l-0.609375 0l0 3.828125l-1.34375 0zm1.34375 -4.859375l0.5625 0q1.359375 0 1.9375 -0.609375q0.59375 -0.625 0.59375 -1.546875q0 -0.484375 -0.1875 -0.828125q-0.1875 -0.34375 -0.609375 -0.546875q-0.40625 -0.21875 -1.453125 -0.21875l-0.84375 0l0 3.75zm6.054413 4.859375l0 -7.0625l1.28125 0l0 1.328125q0.359375 -0.71875 0.9375038 -1.09375q0.59375 -0.390625 1.28125 -0.390625q0.1875 0 0.40625 0.03125l0 1.1875q-0.328125 -0.109375 -0.59375 -0.109375q-0.59375 0 -1.109375 0.375q-0.5156288 0.359375 -0.9218788 1.078125l0 4.65625l-1.28125 0zm8.266102 0.15625q-1.015625 0 -1.765625 -0.40625q-0.734375 -0.40625 -1.171875 -1.296875q-0.4375 -0.890625 -0.4375 -1.984375q0 -1.03125 0.390625 -1.90625q0.40625 -0.890625 1.15625 -1.328125q0.765625 -0.453125 1.828125 -0.453125q1.015625 0 1.75 0.40625q0.75 0.40625 1.1875 1.296875q0.4375 0.890625 0.4375 1.984375q0 1.03125 -0.40625 1.921875q-0.40625 0.875 -1.15625 1.328125q-0.75 0.4375 -1.8125 0.4375zm0 -0.953125q0.953125 0 1.484375 -0.703125q0.53125 -0.71875 0.53125 -2.03125q0 -1.3125 -0.53125 -2.015625q-0.53125 -0.71875 -1.484375 -0.71875q-0.953125 0 -1.484375 0.71875q-0.515625 0.703125 -0.515625 2.015625q0 1.3125 0.515625 2.03125q0.53125 0.703125 1.484375 0.703125zm9.905655 0.796875l0 -1.328125q-0.390625 0.75 -0.984375 1.125q-0.578125 0.359375 -1.359375 0.359375q-1.3125 0 -2.03125 -0.953125q-0.71875 -0.953125 -0.71875 -2.515625q0 -1.671875 0.8125 -2.78125q0.8125 -1.125 2.203125 -1.125q0.40625 0 0.78125 0.09375q0.375 0.09375 0.65625 0.28125q0.296875 0.171875 0.640625 0.578125l0 -4.015625l1.296875 0l0 10.28125l-1.296875 0zm0 -5.375q-0.65625 -0.59375 -1.046875 -0.734375q-0.390625 -0.15625 -0.828125 -0.15625q-0.9375 0 -1.390625 0.796875q-0.453125 0.78125 -0.453125 2.03125q0 1.140625 0.390625 1.8125q0.40625 0.65625 1.25 0.65625q0.53125 0 1.046875 -0.28125q0.53125 -0.296875 1.03125 -0.875l0 -3.25zm8.279282 5.375l0 -1.328125q-0.5 0.71875 -1.140625 1.109375q-0.640625 0.375 -1.34375 0.375q-0.890625 0 -1.453125 -0.5625q-0.5625 -0.5625 -0.5625 -1.578125l0 -5.078125l1.28125 0l0 4.65625q0 0.734375 0.125 0.96875q0.140625 0.234375 0.375 0.375q0.234375 0.125 0.5 0.125q0.46875 0 1.015625 -0.296875q0.5625 -0.296875 1.203125 -1.25l0 -4.578125l1.28125 0l0 7.0625l-1.28125 0zm8.75589 -0.21875q-1.234375 0.375 -2.140625 0.375q-0.953125 0 -1.75 -0.5q-0.78125 -0.515625 -1.1875 -1.34375q-0.390625 -0.84375 -0.390625 -1.890625q0 -1.5625 0.859375 -2.59375q0.875 -1.046875 2.6875 -1.046875q0.828125 0 1.84375 0.21875l0 1.078125q-1.078125 -0.3125 -1.765625 -0.3125q-1.078125 0 -1.625 0.796875q-0.546875 0.796875 -0.546875 1.90625q0 1.1875 0.609375 1.921875q0.609375 0.734375 1.59375 0.734375q0.890625 0 1.8125 -0.453125l0 1.109375zm5.076767 0.21875q-0.59375 0.15625 -1.03125 0.15625q-0.953125 0 -1.515625 -0.546875q-0.5625 -0.546875 -0.5625 -1.5625l0 -4.15625l-0.875 0l0 -0.953125l0.875 0l0 -1.28125l1.28125 -0.125l0 1.40625l1.859375 0l0 0.953125l-1.859375 0l0 3.921875q0 0.75 0.28125 1.078125q0.296875 0.3125 0.921875 0.3125q0.25 0 0.625 -0.09375l0 0.890625zm4.406906 1.046875l0 0.875q-1.0625 -0.71875 -1.71875 -1.71875q-0.65625 -1.0 -1.0 -2.140625q-0.34375 -1.140625 -0.34375 -2.234375q0 -1.09375 0.34375 -2.234375q0.34375 -1.140625 1.0 -2.140625q0.65625 -1.0 1.71875 -1.734375l0 0.890625q-0.734375 0.796875 -1.09375 1.546875q-0.34375 0.75 -0.515625 1.6875q-0.171875 0.9375 -0.171875 1.984375q0 1.03125 0.171875 1.984375q0.171875 0.9375 0.515625 1.6875q0.359375 0.734375 1.09375 1.546875zm0.9592438 -10.4375l0 -0.890625q1.0625 0.734375 1.71875 1.734375q0.65625 1.0 0.984375 2.140625q0.34375 1.140625 0.34375 2.234375q0 1.09375 -0.34375 2.234375q-0.328125 1.140625 -0.984375 2.140625q-0.65625 1.0 -1.71875 1.71875l0 -0.875q0.734375 -0.8125 1.078125 -1.546875q0.359375 -0.75 0.515625 -1.6875q0.171875 -0.953125 0.171875 -1.984375q0 -1.03125 -0.171875 -1.96875q-0.15625 -0.953125 -0.515625 -1.703125q-0.34375 -0.75 -1.078125 -1.546875zm5.318619 9.390625l0 -1.28125l1.28125 0l0 1.28125l-1.28125 0zm0 -5.78125l0 -1.28125l1.28125 0l0 1.28125l-1.28125 0zm8.215454 5.78125l0 -9.625l2.609375 0q1.40625 0 2.015625 0.28125q0.609375 0.265625 0.921875 0.828125q0.328125 0.5625 0.328125 1.40625q0 0.984375 -0.4375 1.734375q-0.421875 0.734375 -1.375 1.140625q-0.953125 0.40625 -2.109375 0.40625l-0.609375 0l0 3.828125l-1.34375 0zm1.34375 -4.859375l0.5625 0q1.359375 0 1.9375 -0.609375q0.59375 -0.625 0.59375 -1.546875q0 -0.484375 -0.1875 -0.828125q-0.1875 -0.34375 -0.609375 -0.546875q-0.40625 -0.21875 -1.453125 -0.21875l-0.84375 0l0 3.75zm6.054413 4.859375l0 -7.0625l1.28125 0l0 1.328125q0.359375 -0.71875 0.9375 -1.09375q0.59375 -0.390625 1.28125 -0.390625q0.1875 0 0.40625 0.03125l0 1.1875q-0.328125 -0.109375 -0.59375 -0.109375q-0.59375 0 -1.109375 0.375q-0.515625 0.359375 -0.921875 1.078125l0 4.65625l-1.28125 0zm8.266098 0.15625q-1.015625 0 -1.765625 -0.40625q-0.734375 -0.40625 -1.171875 -1.296875q-0.4375 -0.890625 -0.4375 -1.984375q0 -1.03125 0.390625 -1.90625q0.40625 -0.890625 1.15625 -1.328125q0.765625 -0.453125 1.828125 -0.453125q1.015625 0 1.75 0.40625q0.75 0.40625 1.1875 1.296875q0.4375 0.890625 0.4375 1.984375q0 1.03125 -0.40625 1.921875q-0.40625 0.875 -1.15625 1.328125q-0.75 0.4375 -1.8125 0.4375zm0 -0.953125q0.953125 0 1.484375 -0.703125q0.53125 -0.71875 0.53125 -2.03125q0 -1.3125 -0.53125 -2.015625q-0.53125 -0.71875 -1.484375 -0.71875q-0.953125 0 -1.484375 0.71875q-0.515625 0.703125 -0.515625 2.015625q0 1.3125 0.515625 2.03125q0.53125 0.703125 1.484375 0.703125zm9.905655 0.796875l0 -1.328125q-0.390625 0.75 -0.984375 1.125q-0.578125 0.359375 -1.359375 0.359375q-1.3125 0 -2.03125 -0.953125q-0.71875 -0.953125 -0.71875 -2.515625q0 -1.671875 0.8125 -2.78125q0.8125 -1.125 2.203125 -1.125q0.40625 0 0.78125 0.09375q0.375 0.09375 0.65625 0.28125q0.296875 0.171875 0.640625 0.578125l0 -4.015625l1.296875 0l0 10.28125l-1.296875 0zm0 -5.375q-0.65625 -0.59375 -1.046875 -0.734375q-0.390625 -0.15625 -0.828125 -0.15625q-0.9375 0 -1.390625 0.796875q-0.453125 0.78125 -0.453125 2.03125q0 1.140625 0.390625 1.8125q0.40625 0.65625 1.25 0.65625q0.53125 0 1.046875 -0.28125q0.53125 -0.296875 1.03125 -0.875l0 -3.25zm8.279282 5.375l0 -1.328125q-0.5 0.71875 -1.140625 1.109375q-0.640625 0.375 -1.34375 0.375q-0.890625 0 -1.453125 -0.5625q-0.5625 -0.5625 -0.5625 -1.578125l0 -5.078125l1.28125 0l0 4.65625q0 0.734375 0.125 0.96875q0.140625 0.234375 0.375 0.375q0.234375 0.125 0.5 0.125q0.46875 0 1.015625 -0.296875q0.5625 -0.296875 1.203125 -1.25l0 -4.578125l1.28125 0l0 7.0625l-1.28125 0zm8.75589 -0.21875q-1.234375 0.375 -2.140625 0.375q-0.953125 0 -1.75 -0.5q-0.78125 -0.515625 -1.1875 -1.34375q-0.390625 -0.84375 -0.390625 -1.890625q0 -1.5625 0.859375 -2.59375q0.875 -1.046875 2.6875 -1.046875q0.828125 0 1.84375 0.21875l0 1.078125q-1.078125 -0.3125 -1.765625 -0.3125q-1.078125 0 -1.625 0.796875q-0.546875 0.796875 -0.546875 1.90625q0 1.1875 0.609375 1.921875q0.609375 0.734375 1.59375 0.734375q0.890625 0 1.8125 -0.453125l0 1.109375zm5.076767 0.21875q-0.59375 0.15625 -1.03125 0.15625q-0.953125 0 -1.515625 -0.546875q-0.5625 -0.546875 -0.5625 -1.5625l0 -4.15625l-0.875 0l0 -0.953125l0.875 0l0 -1.28125l1.28125 -0.125l0 1.40625l1.859375 0l0 0.953125l-1.859375 0l0 3.921875q0 0.75 0.28125 1.078125q0.296875 0.3125 0.921875 0.3125q0.25 0 0.625 -0.09375l0 0.890625z" fill-rule="nonzero"/><path fill="#000000" fill-opacity="0.0" d="m10.968504 218.99475l253.41733 0l0 23.874008l-253.41733 0z" fill-rule="evenodd"/><path stroke="#000000" stroke-width="2.0" stroke-linejoin="round" stroke-linecap="butt" d="m10.968504 218.99475l253.41733 0l0 23.874008l-253.41733 0z" fill-rule="evenodd"/><path fill="#000000" d="m21.265379 235.73175l0 -1.609375l1.609375 0l0 1.609375l-1.609375 0zm4.217102 0l0 -1.609375l1.609375 0l0 1.609375l-1.609375 0zm4.217102 0l0 -1.609375l1.609375 0l0 1.609375l-1.609375 0z" fill-rule="nonzero"/><path fill="#000000" fill-opacity="0.0" d="m10.968504 7.2782154l253.41733 0l0 45.16535l-253.41733 0z" fill-rule="evenodd"/><path stroke="#000000" stroke-width="3.0" stroke-linejoin="round" stroke-linecap="butt" d="m10.968504 7.2782154l253.41733 0l0 45.16535l-253.41733 0z" fill-rule="evenodd"/><path fill="#000000" d="m118.425735 29.66089q0 2.203125 -1.203125 3.609373q-0.625 0.734375 -1.46875 1.0625q-0.84375 0.328125 -2.09375 0.328125l-4.546875 0l0 -9.640623l4.875 0q0.78125 0 1.359375 0.140625q0.59375 0.125 1.0625 0.40625q0.46875 0.28125 0.859375 0.71875q0.578125 0.609375 0.859375 1.453125q0.296875 0.84375 0.296875 1.921875zm-2.734375 0.125q0 -0.4375 -0.0625 -0.8125q-0.0625 -0.375 -0.1875 -0.71875q-0.125 -0.34375 -0.3125 -0.625q-0.328125 -0.546875 -0.84375 -0.765625q-0.5 -0.234375 -1.390625 -0.234375l-1.21875 0l0 6.343748l1.25 0q0.734375 0 1.234375 -0.171875q0.5 -0.1875 0.8125 -0.5625q0.171875 -0.21875 0.296875 -0.4843731q0.140625 -0.265625 0.21875 -0.5625q0.09375 -0.3125 0.140625 -0.6875q0.0625 -0.390625 0.0625 -0.71875zm6.8980865 -3.484375l-2.5625 0l0 -1.921875l2.5625 0l0 1.921875zm0 8.359373l-2.5625 0l0 -7.218748l2.5625 0l0 7.218748zm7.465576 -5.109373q-0.296875 -0.125 -0.484375 -0.15625q-0.171875 -0.03125 -0.5 -0.03125q-0.5625 0 -0.953125 0.21875q-0.390625 0.203125 -0.71875 0.671875l0 4.406248l-2.5625 0l0 -7.218748l2.5625 0l0 1.359375l0.03125 0q0.109375 -0.34375 0.40625 -0.671875q0.3125 -0.328125 0.75 -0.578125q0.5 -0.28125 1.15625 -0.28125q0.1875 0 0.3125 0.046875l0 2.234375zm7.8984375 4.874998q-0.234375 0.0625 -0.4375 0.109375q-1.296875 0.296875 -2.515625 0.296875q-0.890625 0 -1.65625 -0.21875q-0.75 -0.234375 -1.234375 -0.625q-0.609375 -0.515625 -0.984375 -1.34375q-0.359375 -0.8437481 -0.359375 -1.7031231q0 -0.8125 0.265625 -1.5q0.28125 -0.6875 0.78125 -1.171875q0.5 -0.484375 1.203125 -0.734375q0.71875 -0.265625 1.578125 -0.265625q0.828125 0 1.40625 0.203125q0.578125 0.203125 1.0 0.625q0.5625 0.59375 0.75 1.328125q0.09375 0.359375 0.125 0.640625q0.046875 0.265625 0.0625 0.640625q0.015625 0.359375 0.015625 0.90625l-4.53125 0q0.03125 0.3125 0.078125 0.5156231q0.046875 0.1875 0.171875 0.375q0.234375 0.359375 0.640625 0.515625q0.421875 0.15625 1.15625 0.15625q0.671875 0 1.109375 -0.078125q0.4375 -0.078125 1.375 -0.375l0 1.703125zm-2.421875 -4.093748l0 -0.109375q0 -0.8125 -0.234375 -1.171875q-0.21875 -0.375 -0.71875 -0.375q-0.359375 0 -0.625 0.203125q-0.25 0.1875 -0.390625 0.5625q-0.140625 0.359375 -0.171875 0.890625l2.140625 0zm9.867905 4.234373q-1.234375 0.25 -2.359375 0.25q-0.515625 0 -0.953125 -0.046875q-0.421875 -0.046875 -0.78125 -0.15625q-0.359375 -0.125 -0.640625 -0.28125q-0.265625 -0.171875 -0.546875 -0.4375q-0.53125 -0.5 -0.8125 -1.234375q-0.265625 -0.7343731 -0.265625 -1.5781231q0 -1.140625 0.484375 -2.015625q0.5 -0.875 1.421875 -1.328125q0.9375 -0.46875 2.171875 -0.46875q0.96875 0 2.234375 0.328125l0 1.703125q-1.21875 -0.484375 -1.890625 -0.484375q-0.5 0 -0.890625 0.28125q-0.390625 0.265625 -0.59375 0.765625q-0.203125 0.484375 -0.203125 1.140625q0 0.984375 0.515625 1.6093731q0.53125 0.625 1.375 0.625q0.71875 0 1.734375 -0.328125l0 1.65625zm5.8408813 0.03125q-0.46875 0.140625 -0.75 0.171875q-0.265625 0.046875 -0.6875 0.046875q-1.109375 0 -1.78125 -0.40625q-0.5 -0.3125 -0.6875 -0.765625q-0.171875 -0.46875 -0.171875 -1.40625l0 -3.359373l-0.71875 0l0 -1.4375l0.71875 0l0 -1.140625l2.578125 -0.3125l0 1.453125l1.359375 0l0 1.4375l-1.359375 0l0 3.09375q0 0.4687481 0.03125 0.6562481q0.046875 0.1875 0.203125 0.359375q0.234375 0.234375 0.703125 0.234375q0.234375 0 0.5625 -0.109375l0 1.484375zm8.983414 -3.546873q0 0.875 -0.28125 1.5781231q-0.265625 0.6875 -0.796875 1.1875q-0.515625 0.5 -1.25 0.75q-0.734375 0.25 -1.640625 0.25q-0.9375 0 -1.6875 -0.25q-0.75 -0.25 -1.296875 -0.734375q-0.53125 -0.5 -0.8125 -1.203125q-0.265625 -0.7187481 -0.265625 -1.5937481q0 -0.859375 0.265625 -1.5625q0.28125 -0.71875 0.796875 -1.203125q0.53125 -0.484375 1.265625 -0.734375q0.734375 -0.265625 1.671875 -0.265625q0.953125 0 1.6875 0.265625q0.75 0.25 1.265625 0.734375q0.53125 0.484375 0.796875 1.1875q0.28125 0.6875 0.28125 1.59375zm-2.734375 -0.015625q0 -1.046875 -0.359375 -1.671875q-0.359375 -0.640625 -0.9375 -0.640625q-0.375 0 -0.65625 0.296875q-0.28125 0.28125 -0.453125 0.828125q-0.15625 0.53125 -0.15625 1.203125q0 0.65625 0.15625 1.2031231q0.15625 0.53125 0.4375 0.828125q0.296875 0.296875 0.671875 0.296875q0.578125 0 0.9375 -0.640625q0.359375 -0.65625 0.359375 -1.7031231zm9.556381 -1.484375q-0.296875 -0.125 -0.484375 -0.15625q-0.171875 -0.03125 -0.5 -0.03125q-0.5625 0 -0.953125 0.21875q-0.390625 0.203125 -0.71875 0.671875l0 4.406248l-2.5625 0l0 -7.218748l2.5625 0l0 1.359375l0.03125 0q0.109375 -0.34375 0.40625 -0.671875q0.3125 -0.328125 0.75 -0.578125q0.5 -0.28125 1.15625 -0.28125q0.1875 0 0.3125 0.046875l0 2.234375z" fill-rule="nonzero"/><path fill="#000000" fill-opacity="0.0" d="m10.968504 76.31759l253.41733 0l0 39.149605l-253.41733 0z" fill-rule="evenodd"/><path stroke="#000000" stroke-width="2.0" stroke-linejoin="round" stroke-linecap="butt" d="m10.968504 76.31759l253.41733 0l0 39.149605l-253.41733 0z" fill-rule="evenodd"/><path fill="#000000" d="m23.702879 100.37989l0 -3.0625l-3.046875 0l0 -0.953125l3.046875 0l0 -3.0625l0.96875 0l0 3.0625l3.046875 0l0 0.953125l-3.046875 0l0 3.0625l-0.96875 0zm15.097929 0.09375q-1.234375 0.375 -2.140625 0.375q-0.953125 0 -1.75 -0.5q-0.78125 -0.515625 -1.1875 -1.34375q-0.390625 -0.84375 -0.390625 -1.890625q0 -1.5625 0.859375 -2.59375q0.875 -1.046875 2.6875 -1.046875q0.828125 0 1.84375 0.21875l0 1.078125q-1.078125 -0.3125 -1.765625 -0.3125q-1.078125 0 -1.625 0.796875q-0.546875 0.796875 -0.546875 1.90625q0 1.1875 0.609375 1.921875q0.609375 0.734375 1.59375 0.734375q0.890625 0 1.8125 -0.453125l0 1.109375zm4.733017 0.375q-1.015625 0 -1.765625 -0.40625q-0.734375 -0.40625 -1.171875 -1.296875q-0.4375 -0.890625 -0.4375 -1.984375q0 -1.03125 0.390625 -1.90625q0.40625 -0.890625 1.15625 -1.328125q0.765625 -0.453125 1.828125 -0.453125q1.015625 0 1.75 0.40625q0.75 0.40625 1.1875 1.296875q0.4375 0.890625 0.4375 1.984375q0 1.03125 -0.40625 1.921875q-0.40625 0.875 -1.15625 1.328125q-0.75 0.4375 -1.8125 0.4375zm0 -0.953125q0.953125 0 1.484375 -0.703125q0.53125 -0.71875 0.53125 -2.03125q0 -1.3125 -0.53125 -2.015625q-0.53125 -0.71875 -1.484375 -0.71875q-0.953125 0 -1.484375 0.71875q-0.515625 0.703125 -0.515625 2.015625q0 1.3125 0.515625 2.03125q0.53125 0.703125 1.484375 0.703125zm5.374405 0.796875l0 -7.0625l1.28125 0l0 1.328125q0.484375 -0.71875 1.125 -1.09375q0.65625 -0.390625 1.359375 -0.390625q0.890625 0 1.453125 0.578125q0.5625 0.5625 0.5625 1.5625l0 5.078125l-1.28125 0l0 -4.65625q0 -0.734375 -0.140625 -0.96875q-0.125 -0.234375 -0.359375 -0.359375q-0.234375 -0.140625 -0.5 -0.140625q-0.46875 0 -1.03125 0.296875q-0.546875 0.296875 -1.1875 1.25l0 4.578125l-1.28125 0zm8.00589 -0.25l0 -1.171875q1.265625 0.625 2.1875 0.625q0.546875 0 0.90625 -0.296875q0.375 -0.3125 0.375 -0.75q0 -0.28125 -0.171875 -0.546875q-0.1875 -0.265625 -0.84375 -0.546875l-0.75 -0.3125q-0.859375 -0.359375 -1.265625 -0.84375q-0.390625 -0.46875 -0.390625 -1.140625q0 -0.859375 0.609375 -1.421875q0.625 -0.5625 1.828125 -0.5625q0.59375 0 1.46875 0.15625l0.265625 0.046875l0 1.078125q-1.0625 -0.328125 -1.703125 -0.328125q-0.625 0 -0.9375 0.265625q-0.296875 0.265625 -0.296875 0.640625q0 0.28125 0.203125 0.515625q0.203125 0.234375 0.734375 0.453125l0.625 0.265625q1.234375 0.53125 1.578125 1.046875q0.328125 0.5 0.328125 1.109375q0 0.578125 -0.3125 1.078125q-0.3125 0.5 -0.9375 0.78125q-0.609375 0.265625 -1.359375 0.265625q-0.875 0 -2.140625 -0.40625zm10.216099 0.25q-0.59375 0.15625 -1.03125 0.15625q-0.953125 0 -1.515625 -0.546875q-0.5625 -0.546875 -0.5625 -1.5625l0 -4.15625l-0.8750038 0l0 -0.953125l0.8750038 0l0 -1.28125l1.28125 -0.125l0 1.40625l1.859375 0l0 0.953125l-1.859375 0l0 3.921875q0 0.75 0.28125 1.078125q0.296875 0.3125 0.921875 0.3125q0.25 0 0.625 -0.09375l0 0.890625zm1.8287811 0l0 -7.0625l1.28125 0l0 1.328125q0.359375 -0.71875 0.9375 -1.09375q0.59375 -0.390625 1.28125 -0.390625q0.1875 0 0.40625 0.03125l0 1.1875q-0.328125 -0.109375 -0.59375 -0.109375q-0.59375 0 -1.109375 0.375q-0.515625 0.359375 -0.921875 1.078125l0 4.65625l-1.28125 0zm9.875473 0l0 -1.328125q-0.5 0.71875 -1.140625 1.109375q-0.640625 0.375 -1.34375 0.375q-0.890625 0 -1.453125 -0.5625q-0.5625 -0.5625 -0.5625 -1.578125l0 -5.078125l1.28125 0l0 4.65625q0 0.734375 0.125 0.96875q0.140625 0.234375 0.375 0.375q0.234375 0.125 0.5 0.125q0.46875 0 1.015625 -0.296875q0.5625 -0.296875 1.203125 -1.25l0 -4.578125l1.28125 0l0 7.0625l-1.28125 0zm8.75589 -0.21875q-1.234375 0.375 -2.140625 0.375q-0.953125 0 -1.75 -0.5q-0.78125 -0.515625 -1.1875 -1.34375q-0.390625 -0.84375 -0.390625 -1.890625q0 -1.5625 0.859375 -2.59375q0.875 -1.046875 2.6875 -1.046875q0.828125 0 1.84375 0.21875l0 1.078125q-1.078125 -0.3125 -1.765625 -0.3125q-1.078125 0 -1.625 0.796875q-0.546875 0.796875 -0.546875 1.90625q0 1.1875 0.609375 1.921875q0.609375 0.734375 1.59375 0.734375q0.890625 0 1.8125 -0.453125l0 1.109375zm5.076767 0.21875q-0.59375 0.15625 -1.03125 0.15625q-0.953125 0 -1.515625 -0.546875q-0.5625 -0.546875 -0.5625 -1.5625l0 -4.15625l-0.875 0l0 -0.953125l0.875 0l0 -1.28125l1.28125 -0.125l0 1.40625l1.859375 0l0 0.953125l-1.859375 0l0 3.921875q0 0.75 0.28125 1.078125q0.296875 0.3125 0.921875 0.3125q0.25 0 0.625 -0.09375l0 0.890625zm4.406906 1.046875l0 0.875q-1.0625 -0.71875 -1.71875 -1.71875q-0.65625 -1.0 -1.0 -2.140625q-0.34375 -1.140625 -0.34375 -2.234375q0 -1.09375 0.34375 -2.234375q0.34375 -1.140625 1.0 -2.140625q0.65625 -1.0 1.71875 -1.734375l0 0.890625q-0.734375 0.796875 -1.09375 1.546875q-0.34375 0.75 -0.515625 1.6875q-0.171875 0.9375 -0.171875 1.984375q0 1.03125 0.171875 1.984375q0.171875 0.9375 0.515625 1.6875q0.359375 0.734375 1.09375 1.546875zm1.7561188 -0.96875l0 -10.359375l1.28125 0l0 4.546875q0.40625 -0.75 0.984375 -1.109375q0.59375 -0.375 1.375 -0.375q1.3125 0 2.03125 0.96875q0.71875 0.953125 0.71875 2.5q0 1.671875 -0.8125 2.796875q-0.8125 1.109375 -2.21875 1.109375q-0.40625 0 -0.78125 -0.09375q-0.359375 -0.09375 -0.65625 -0.265625q-0.28125 -0.1875 -0.640625 -0.59375l-0.15625 0.875l-1.125 0zm1.28125 -1.765625q0.65625 0.59375 1.046875 0.75q0.390625 0.140625 0.84375 0.140625q0.9375 0 1.390625 -0.796875q0.453125 -0.796875 0.453125 -2.03125q0 -1.140625 -0.40625 -1.8125q-0.390625 -0.671875 -1.234375 -0.671875q-0.53125 0 -1.0625 0.296875q-0.515625 0.28125 -1.03125 0.875l0 3.25zm11.529282 1.6875l0 -1.328125q-0.5 0.71875 -1.140625 1.109375q-0.640625 0.375 -1.34375 0.375q-0.890625 0 -1.453125 -0.5625q-0.5625 -0.5625 -0.5625 -1.578125l0 -5.078125l1.28125 0l0 4.65625q0 0.734375 0.125 0.96875q0.140625 0.234375 0.375 0.375q0.234375 0.125 0.5 0.125q0.46875 0 1.015625 -0.296875q0.5625 -0.296875 1.203125 -1.25l0 -4.578125l1.28125 0l0 7.0625l-1.28125 0zm3.84964 0l0 -7.0625l1.28125 0l0 7.0625l-1.28125 0zm0 -8.34375l0 -1.28125l1.28125 0l0 1.28125l-1.28125 0zm3.8526611 8.34375l0 -10.28125l1.28125 0l0 10.28125l-1.28125 0zm8.383911 0l0 -1.328125q-0.390625 0.75 -0.984375 1.125q-0.578125 0.359375 -1.359375 0.359375q-1.3125 0 -2.03125 -0.953125q-0.71875 -0.953125 -0.71875 -2.515625q0 -1.671875 0.8125 -2.78125q0.8125 -1.125 2.203125 -1.125q0.40625 0 0.78125 0.09375q0.375 0.09375 0.65625 0.28125q0.296875 0.171875 0.640625 0.578125l0 -4.015625l1.296875 0l0 10.28125l-1.296875 0zm0 -5.375q-0.65625 -0.59375 -1.046875 -0.734375q-0.390625 -0.15625 -0.828125 -0.15625q-0.9375 0 -1.390625 0.796875q-0.453125 0.78125 -0.453125 2.03125q0 1.140625 0.390625 1.8125q0.40625 0.65625 1.25 0.65625q0.53125 0 1.046875 -0.28125q0.53125 -0.296875 1.03125 -0.875l0 -3.25zm9.044907 5.140625q-1.296875 0.390625 -2.21875 0.390625q-1.640625 0 -2.59375 -1.109375q-0.9375 -1.109375 -0.9375 -2.609375q0 -1.0 0.421875 -1.890625q0.421875 -0.90625 1.09375 -1.34375q0.671875 -0.4375 1.578125 -0.4375q1.21875 0 1.953125 0.890625q0.734375 0.875 0.734375 2.625l-0.015625 0.390625l-4.453125 0q0.109375 0.9375 0.40625 1.453125q0.296875 0.5 0.796875 0.78125q0.5 0.28125 1.265625 0.28125q0.390625 0 0.765625 -0.0625q0.390625 -0.078125 1.203125 -0.375l0 1.015625zm-4.375 -4.0625l3.109375 0q0 -1.0625 -0.421875 -1.515625q-0.40625 -0.453125 -1.046875 -0.453125q-0.734375 0 -1.15625 0.5q-0.40625 0.484375 -0.484375 1.46875zm6.6129913 4.296875l0 -7.0625l1.28125 0l0 1.328125q0.359375 -0.71875 0.9375 -1.09375q0.59375 -0.390625 1.28125 -0.390625q0.1875 0 0.40625 0.03125l0 1.1875q-0.328125 -0.109375 -0.59375 -0.109375q-0.59375 0 -1.109375 0.375q-0.515625 0.359375 -0.921875 1.078125l0 4.65625l-1.28125 0zm5.641098 0l0 -1.28125l1.28125 0l0 1.28125l-1.28125 0zm0 -5.78125l0 -1.28125l1.28125 0l0 1.28125l-1.28125 0zm8.215454 5.78125l0 -9.625l2.484375 0q1.640625 0 2.3125 0.625q0.6875 0.625 0.6875 1.484375q0 0.703125 -0.46875 1.40625q-0.453125 0.6875 -1.515625 1.09375q0.9375 0.28125 1.390625 0.65625q0.46875 0.359375 0.71875 0.875q0.25 0.515625 0.25 1.078125q0 0.671875 -0.34375 1.25q-0.34375 0.578125 -0.90625 0.875q-0.5625 0.28125 -1.78125 0.28125l-2.828125 0zm1.34375 -1.015625l0.28125 0q1.453125 0 1.875 -0.15625q0.4375 -0.171875 0.671875 -0.53125q0.25 -0.375 0.25 -0.828125q0 -0.84375 -0.765625 -1.421875q-0.765625 -0.578125 -1.921875 -0.578125l-0.390625 0l0 3.515625zm0 -4.390625l0.4375 0q1.1875 0 1.734375 -0.5q0.5625 -0.515625 0.5625 -1.296875q0 -0.6875 -0.5 -1.046875q-0.484375 -0.359375 -1.703125 -0.359375l-0.53125 0l0 3.203125zm10.77565 5.40625l0 -1.328125q-0.5 0.71875 -1.140625 1.109375q-0.640625 0.375 -1.34375 0.375q-0.890625 0 -1.453125 -0.5625q-0.5625 -0.5625 -0.5625 -1.578125l0 -5.078125l1.28125 0l0 4.65625q0 0.734375 0.125 0.96875q0.140625 0.234375 0.375 0.375q0.234375 0.125 0.5 0.125q0.46875 0 1.015625 -0.296875q0.5625 -0.296875 1.203125 -1.25l0 -4.578125l1.28125 0l0 7.0625l-1.28125 0zm3.84964 0l0 -7.0625l1.28125 0l0 7.0625l-1.28125 0zm0 -8.34375l0 -1.28125l1.28125 0l0 1.28125l-1.28125 0zm3.8526611 8.34375l0 -10.28125l1.28125 0l0 10.28125l-1.28125 0zm8.383911 0l0 -1.328125q-0.390625 0.75 -0.984375 1.125q-0.578125 0.359375 -1.359375 0.359375q-1.3125 0 -2.03125 -0.953125q-0.71875 -0.953125 -0.71875 -2.515625q0 -1.671875 0.8125 -2.78125q0.8125 -1.125 2.203125 -1.125q0.40625 0 0.78125 0.09375q0.375 0.09375 0.65625 0.28125q0.296875 0.171875 0.640625 0.578125l0 -4.015625l1.296875 0l0 10.28125l-1.296875 0zm0 -5.375q-0.65625 -0.59375 -1.046875 -0.734375q-0.390625 -0.15625 -0.828125 -0.15625q-0.9375 0 -1.390625 0.796875q-0.453125 0.78125 -0.453125 2.03125q0 1.140625 0.390625 1.8125q0.40625 0.65625 1.25 0.65625q0.53125 0 1.046875 -0.28125q0.53125 -0.296875 1.03125 -0.875l0 -3.25zm9.044907 5.140625q-1.296875 0.390625 -2.21875 0.390625q-1.640625 0 -2.59375 -1.109375q-0.9375 -1.109375 -0.9375 -2.609375q0 -1.0 0.421875 -1.890625q0.421875 -0.90625 1.09375 -1.34375q0.671875 -0.4375 1.578125 -0.4375q1.21875 0 1.953125 0.890625q0.734375 0.875 0.734375 2.625l-0.015625 0.390625l-4.453125 0q0.109375 0.9375 0.40625 1.453125q0.296875 0.5 0.796875 0.78125q0.5 0.28125 1.265625 0.28125q0.390625 0 0.765625 -0.0625q0.390625 -0.078125 1.203125 -0.375l0 1.015625zm-4.375 -4.0625l3.109375 0q0 -1.0625 -0.421875 -1.515625q-0.40625 -0.453125 -1.046875 -0.453125q-0.734375 0 -1.15625 0.5q-0.40625 0.484375 -0.484375 1.46875zm6.6129913 4.296875l0 -7.0625l1.28125 0l0 1.328125q0.359375 -0.71875 0.9375 -1.09375q0.59375 -0.390625 1.28125 -0.390625q0.1875 0 0.40625 0.03125l0 1.1875q-0.328125 -0.109375 -0.59375 -0.109375q-0.59375 0 -1.109375 0.375q-0.515625 0.359375 -0.921875 1.078125l0 4.65625l-1.28125 0zm4.656723 -9.390625l0 -0.890625q1.0625 0.734375 1.71875 1.734375q0.65625 1.0 0.984375 2.140625q0.34375 1.140625 0.34375 2.234375q0 1.09375 -0.34375 2.234375q-0.328125 1.140625 -0.984375 2.140625q-0.65625 1.0 -1.71875 1.71875l0 -0.875q0.734375 -0.8125 1.078125 -1.546875q0.359375 -0.75 0.515625 -1.6875q0.171875 -0.953125 0.171875 -1.984375q0 -1.03125 -0.171875 -1.96875q-0.15625 -0.953125 -0.515625 -1.703125q-0.34375 -0.75 -1.078125 -1.546875zm5.318619 9.390625l0 -1.28125l1.28125 0l0 1.28125l-1.28125 0zm0 -5.78125l0 -1.28125l1.28125 0l0 1.28125l-1.28125 0zm9.715454 5.78125l-2.640625 -7.0625l1.296875 0l2.046875 5.5l2.171875 -5.5l1.1875 0l-2.78125 7.0625l-1.28125 0zm8.242096 0.15625q-1.015625 0 -1.765625 -0.40625q-0.734375 -0.40625 -1.171875 -1.296875q-0.4375 -0.890625 -0.4375 -1.984375q0 -1.03125 0.390625 -1.90625q0.40625 -0.890625 1.15625 -1.328125q0.765625 -0.453125 1.828125 -0.453125q1.015625 0 1.75 0.40625q0.75 0.40625 1.1875 1.296875q0.4375 0.890625 0.4375 1.984375q0 1.03125 -0.40625 1.921875q-0.40625 0.875 -1.15625 1.328125q-0.75 0.4375 -1.8125 0.4375zm0 -0.953125q0.953125 0 1.484375 -0.703125q0.53125 -0.71875 0.53125 -2.03125q0 -1.3125 -0.53125 -2.015625q-0.53125 -0.71875 -1.484375 -0.71875q-0.953125 0 -1.484375 0.71875q-0.515625 0.703125 -0.515625 2.015625q0 1.3125 0.515625 2.03125q0.53125 0.703125 1.484375 0.703125zm5.374405 0.796875l0 -7.0625l1.28125 0l0 7.0625l-1.28125 0zm0 -8.34375l0 -1.28125l1.28125 0l0 1.28125l-1.28125 0zm8.383911 8.34375l0 -1.328125q-0.390625 0.75 -0.984375 1.125q-0.578125 0.359375 -1.359375 0.359375q-1.3125 0 -2.03125 -0.953125q-0.71875 -0.953125 -0.71875 -2.515625q0 -1.671875 0.8125 -2.78125q0.8125 -1.125 2.203125 -1.125q0.40625 0 0.78125 0.09375q0.375 0.09375 0.65625 0.28125q0.296875 0.171875 0.640625 0.578125l0 -4.015625l1.296875 0l0 10.28125l-1.296875 0zm0 -5.375q-0.65625 -0.59375 -1.046875 -0.734375q-0.390625 -0.15625 -0.828125 -0.15625q-0.9375 0 -1.390625 0.796875q-0.453125 0.78125 -0.453125 2.03125q0 1.140625 0.390625 1.8125q0.40625 0.65625 1.25 0.65625q0.53125 0 1.046875 -0.28125q0.53125 -0.296875 1.03125 -0.875l0 -3.25z" fill-rule="nonzero"/><path fill="#000000" fill-opacity="0.0" d="m10.968504 52.44357l253.41733 0l0 23.87402l-253.41733 0z" fill-rule="evenodd"/><path stroke="#000000" stroke-width="2.0" stroke-linejoin="round" stroke-linecap="butt" d="m10.968504 52.44357l253.41733 0l0 23.87402l-253.41733 0z" fill-rule="evenodd"/><path fill="#000000" d="m21.265379 69.18058l0 -1.609375l1.609375 0l0 1.609375l-1.609375 0zm4.217102 0l0 -1.609375l1.609375 0l0 1.609375l-1.609375 0zm4.217102 0l0 -1.609375l1.609375 0l0 1.609375l-1.609375 0z" fill-rule="nonzero"/><path fill="#000000" fill-opacity="0.0" d="m137.67717 115.46719l0 58.362198" fill-rule="evenodd"/><path stroke="#000000" stroke-width="2.0" stroke-linejoin="round" stroke-linecap="butt" d="m137.67717 122.321365l0 40.25148" fill-rule="evenodd"/><path fill="#000000" stroke="#000000" stroke-width="2.0" stroke-linecap="butt" d="m137.67717 122.321365l2.2491608 2.2491684l-2.2491608 -6.179535l-2.249176 6.179535z" fill-rule="evenodd"/><path stroke="#000000" stroke-width="2.0" stroke-linecap="butt" d="m137.67717 162.57285l-3.3305817 4.756546l3.3305817 4.7565613l3.3305664 -4.7565613z" fill-rule="evenodd"/><path fill="#000000" fill-opacity="0.0" d="m137.67717 141.61154l22.015747 0l0 34.110245l-22.015747 0z" fill-rule="evenodd"/><path fill="#000000" d="m151.64592 163.41154l-1.171875 0l0 -7.46875q-0.421875 0.40625 -1.109375 0.8125q-0.6875 0.40625 -1.234375 0.609375l0 -1.140625q0.984375 -0.453125 1.71875 -1.109375q0.734375 -0.671875 1.03125 -1.28125l0.765625 0l0 9.578125z" fill-rule="nonzero"/><path fill="#000000" fill-opacity="0.0" d="m137.67717 110.08137l22.015747 0l0 29.259834l-22.015747 0z" fill-rule="evenodd"/><path fill="#000000" d="m151.64592 131.88136l-1.171875 0l0 -7.46875q-0.421875 0.40625 -1.109375 0.8125q-0.6875 0.40625 -1.234375 0.609375l0 -1.140625q0.984375 -0.453125 1.71875 -1.109375q0.734375 -0.671875 1.03125 -1.28125l0.765625 0l0 9.578125z" fill-rule="nonzero"/></g></svg>