<svg version="1.1" viewBox="0.0 0.0 472.0 288.0" fill="none" stroke="none" stroke-linecap="square" stroke-miterlimit="10" xmlns:xlink="http://www.w3.org/1999/xlink" xmlns="http://www.w3.org/2000/svg"><clipPath id="p.0"><path d="m0 0l472.0 0l0 288.0l-472.0 0l0 -288.0z" clip-rule="nonzero"/></clipPath><g clip-path="url(#p.0)"><path fill="#000000" fill-opacity="0.0" d="m0 0l472.0 0l0 288.0l-472.0 0z" fill-rule="evenodd"/><path fill="#000000" fill-opacity="0.0" d="m301.01837 188.82152l162.61417 0l0 29.259842l-162.61417 0z" fill-rule="evenodd"/><path stroke="#000000" stroke-width="3.0" stroke-linejoin="round" stroke-linecap="butt" d="m301.01837 188.82152l162.61417 0l0 29.259842l-162.61417 0z" fill-rule="evenodd"/><path fill="#000000" d="m331.55725 207.9702q-0.34375 0.109375 -0.390625 0.125q-1.40625 0.390625 -3.046875 0.390625q-0.765625 0 -1.421875 -0.125q-0.65625 -0.109375 -1.234375 -0.34375q-0.578125 -0.234375 -1.0 -0.578125q-0.421875 -0.328125 -0.734375 -0.75q-0.3125 -0.421875 -0.546875 -0.96875q-0.234375 -0.546875 -0.34375 -1.109375q-0.109375 -0.5625 -0.109375 -1.1875q0 -0.75 0.15625 -1.453125q0.171875 -0.703125 0.5 -1.28125q0.328125 -0.59375 0.796875 -1.03125q0.453125 -0.453125 1.03125 -0.734375q0.578125 -0.28125 1.296875 -0.40625q0.71875 -0.140625 1.59375 -0.140625q0.90625 0 1.828125 0.09375q0.921875 0.09375 1.46875 0.234375l0 1.84375q-0.1875 -0.078125 -0.28125 -0.09375q-0.09375 -0.03125 -0.1875 -0.0625q-1.328125 -0.421875 -2.390625 -0.421875q-1.390625 0 -2.15625 0.71875q-0.4375 0.4375 -0.6875 1.140625q-0.234375 0.6875 -0.234375 1.546875q0 1.09375 0.375 1.875q0.390625 0.765625 1.125 1.171875q0.75 0.390625 1.8125 0.390625q0.453125 0 1.078125 -0.09375q0.5 -0.09375 0.828125 -0.171875q0.328125 -0.09375 0.875 -0.34375l0 1.765625zm8.880341 -3.328125q0 0.875 -0.28125 1.578125q-0.265625 0.6875 -0.796875 1.1875q-0.515625 0.5 -1.25 0.75q-0.734375 0.25 -1.640625 0.25q-0.9375 0 -1.6875 -0.25q-0.75 -0.25 -1.296875 -0.734375q-0.53125 -0.5 -0.8125 -1.203125q-0.265625 -0.71875 -0.265625 -1.59375q0 -0.859375 0.265625 -1.5625q0.28125 -0.71875 0.796875 -1.203125q0.53125 -0.484375 1.265625 -0.734375q0.734375 -0.265625 1.671875 -0.265625q0.953125 0 1.6875 0.265625q0.75 0.25 1.265625 0.734375q0.53125 0.484375 0.796875 1.1875q0.28125 0.6875 0.28125 1.59375zm-2.734375 -0.015625q0 -1.046875 -0.359375 -1.671875q-0.359375 -0.640625 -0.9375 -0.640625q-0.375 0 -0.65625 0.296875q-0.28125 0.28125 -0.453125 0.828125q-0.15625 0.53125 -0.15625 1.203125q0 0.65625 0.15625 1.203125q0.15625 0.53125 0.4375 0.828125q0.296875 0.296875 0.671875 0.296875q0.578125 0 0.9375 -0.640625q0.359375 -0.65625 0.359375 -1.703125zm11.400116 3.625l-2.5625 0l0 -4.484375q0 -0.53125 -0.15625 -0.75q-0.140625 -0.234375 -0.46875 -0.234375q-0.34375 0 -0.65625 0.265625q-0.3125 0.25 -0.65625 0.796875l0 4.40625l-2.5625 0l0 -7.21875l2.5625 0l0 1.359375l0.03125 0q0.34375 -0.734375 0.953125 -1.125q0.625 -0.40625 1.40625 -0.40625q0.875 0 1.46875 0.53125q0.359375 0.328125 0.5 0.75q0.140625 0.40625 0.140625 1.078125l0 5.03125zm7.89093 -0.09375q-1.234375 0.25 -2.359375 0.25q-0.515625 0 -0.953125 -0.046875q-0.421875 -0.046875 -0.78125 -0.15625q-0.359375 -0.125 -0.640625 -0.28125q-0.265625 -0.171875 -0.546875 -0.4375q-0.53125 -0.5 -0.8125 -1.234375q-0.265625 -0.734375 -0.265625 -1.578125q0 -1.140625 0.484375 -2.015625q0.5 -0.875 1.421875 -1.328125q0.9375 -0.46875 2.171875 -0.46875q0.96875 0 2.234375 0.328125l0 1.703125q-1.21875 -0.484375 -1.890625 -0.484375q-0.5 0 -0.890625 0.28125q-0.390625 0.265625 -0.59375 0.765625q-0.203125 0.484375 -0.203125 1.140625q0 0.984375 0.515625 1.609375q0.53125 0.625 1.375 0.625q0.71875 0 1.734375 -0.328125l0 1.65625zm6.8408813 -5.015625q-0.296875 -0.125 -0.484375 -0.15625q-0.171875 -0.03125 -0.5 -0.03125q-0.5625 0 -0.953125 0.21875q-0.390625 0.203125 -0.71875 0.671875l0 4.40625l-2.5625 0l0 -7.21875l2.5625 0l0 1.359375l0.03125 0q0.109375 -0.34375 0.40625 -0.671875q0.3125 -0.328125 0.75 -0.578125q0.5 -0.28125 1.15625 -0.28125q0.1875 0 0.3125 0.046875l0 2.234375zm7.8984375 4.875q-0.234375 0.0625 -0.4375 0.109375q-1.296875 0.296875 -2.515625 0.296875q-0.890625 0 -1.65625 -0.21875q-0.75 -0.234375 -1.234375 -0.625q-0.609375 -0.515625 -0.984375 -1.34375q-0.359375 -0.84375 -0.359375 -1.703125q0 -0.8125 0.265625 -1.5q0.28125 -0.6875 0.78125 -1.171875q0.5 -0.484375 1.203125 -0.734375q0.71875 -0.265625 1.578125 -0.265625q0.828125 0 1.40625 0.203125q0.578125 0.203125 1.0 0.625q0.5625 0.59375 0.75 1.328125q0.09375 0.359375 0.125 0.640625q0.046875 0.265625 0.0625 0.640625q0.015625 0.359375 0.015625 0.90625l-4.53125 0q0.03125 0.3125 0.078125 0.515625q0.046875 0.1875 0.171875 0.375q0.234375 0.359375 0.640625 0.515625q0.421875 0.15625 1.15625 0.15625q0.671875 0 1.109375 -0.078125q0.4375 -0.078125 1.375 -0.375l0 1.703125zm-2.421875 -4.09375l0 -0.109375q0 -0.8125 -0.234375 -1.171875q-0.21875 -0.375 -0.71875 -0.375q-0.359375 0 -0.625 0.203125q-0.25 0.1875 -0.390625 0.5625q-0.140625 0.359375 -0.171875 0.890625l2.140625 0zm8.36792 4.265625q-0.46875 0.140625 -0.75 0.171875q-0.265625 0.046875 -0.6875 0.046875q-1.109375 0 -1.78125 -0.40625q-0.5 -0.3125 -0.6875 -0.765625q-0.171875 -0.46875 -0.171875 -1.40625l0 -3.359375l-0.71875 0l0 -1.4375l0.71875 0l0 -1.140625l2.578125 -0.3125l0 1.453125l1.359375 0l0 1.4375l-1.359375 0l0 3.09375q0 0.46875 0.03125 0.65625q0.046875 0.1875 0.203125 0.359375q0.234375 0.234375 0.703125 0.234375q0.234375 0 0.5625 -0.109375l0 1.484375zm8.045898 -0.171875q-0.234375 0.0625 -0.4375 0.109375q-1.296875 0.296875 -2.515625 0.296875q-0.890625 0 -1.65625 -0.21875q-0.75 -0.234375 -1.234375 -0.625q-0.609375 -0.515625 -0.984375 -1.34375q-0.359375 -0.84375 -0.359375 -1.703125q0 -0.8125 0.265625 -1.5q0.28125 -0.6875 0.78125 -1.171875q0.5 -0.484375 1.203125 -0.734375q0.71875 -0.265625 1.578125 -0.265625q0.828125 0 1.40625 0.203125q0.578125 0.203125 1.0 0.625q0.5625 0.59375 0.75 1.328125q0.09375 0.359375 0.125 0.640625q0.046875 0.265625 0.0625 0.640625q0.015625 0.359375 0.015625 0.90625l-4.53125 0q0.03125 0.3125 0.078125 0.515625q0.046875 0.1875 0.171875 0.375q0.234375 0.359375 0.640625 0.515625q0.421875 0.15625 1.15625 0.15625q0.671875 0 1.109375 -0.078125q0.4375 -0.078125 1.375 -0.375l0 1.703125zm-2.421875 -4.09375l0 -0.109375q0 -0.8125 -0.234375 -1.171875q-0.21875 -0.375 -0.71875 -0.375q-0.359375 0 -0.625 0.203125q-0.25 0.1875 -0.390625 0.5625q-0.140625 0.359375 -0.171875 0.890625l2.140625 0zm11.321045 -2.71875q0 0.78125 -0.25 1.390625q-0.234375 0.609375 -0.71875 1.046875q-0.484375 0.4375 -1.1875 0.65625q-0.703125 0.21875 -1.578125 0.21875l-1.03125 0l0 3.734375l-2.40625 0l0 -9.640625l3.9375 0q0.703125 0 1.125 0.0625q0.421875 0.046875 0.71875 0.171875q0.3125 0.125 0.59375 0.328125q0.796875 0.640625 0.796875 2.03125zm-2.59375 0.21875q0 -1.203125 -1.5 -1.203125l-0.671875 0l0 2.84375l0.3125 0q0.875 0 1.359375 -0.421875q0.5 -0.4375 0.5 -1.21875zm9.4002075 1.71875q-0.296875 -0.125 -0.484375 -0.15625q-0.171875 -0.03125 -0.5 -0.03125q-0.5625 0 -0.953125 0.21875q-0.390625 0.203125 -0.71875 0.671875l0 4.40625l-2.5625 0l0 -7.21875l2.5625 0l0 1.359375l0.03125 0q0.109375 -0.34375 0.40625 -0.671875q0.3125 -0.328125 0.75 -0.578125q0.5 -0.28125 1.15625 -0.28125q0.1875 0 0.3125 0.046875l0 2.234375zm8.8359375 1.5q0 0.875 -0.28125 1.578125q-0.265625 0.6875 -0.796875 1.1875q-0.515625 0.5 -1.25 0.75q-0.734375 0.25 -1.640625 0.25q-0.9375 0 -1.6875 -0.25q-0.75 -0.25 -1.296875 -0.734375q-0.53125 -0.5 -0.8125 -1.203125q-0.265625 -0.71875 -0.265625 -1.59375q0 -0.859375 0.265625 -1.5625q0.28125 -0.71875 0.796875 -1.203125q0.53125 -0.484375 1.265625 -0.734375q0.734375 -0.265625 1.671875 -0.265625q0.953125 0 1.6875 0.265625q0.75 0.25 1.265625 0.734375q0.53125 0.484375 0.796875 1.1875q0.28125 0.6875 0.28125 1.59375zm-2.734375 -0.015625q0 -1.046875 -0.359375 -1.671875q-0.359375 -0.640625 -0.9375 -0.640625q-0.375 0 -0.65625 0.296875q-0.28125 0.28125 -0.453125 0.828125q-0.15625 0.53125 -0.15625 1.203125q0 0.65625 0.15625 1.203125q0.15625 0.53125 0.4375 0.828125q0.296875 0.296875 0.671875 0.296875q0.578125 0 0.9375 -0.640625q0.359375 -0.65625 0.359375 -1.703125zm11.3532715 3.625l-2.5625 0l0 -1.359375l-0.015625 0q-0.265625 0.703125 -0.890625 1.109375q-0.609375 0.40625 -1.40625 0.40625q-0.859375 0 -1.5 -0.421875q-0.625 -0.4375 -0.953125 -1.25q-0.328125 -0.828125 -0.328125 -1.921875q0 -1.21875 0.375 -2.109375q0.375 -0.890625 1.078125 -1.359375q0.703125 -0.484375 1.640625 -0.484375q0.59375 0 1.015625 0.171875q0.421875 0.171875 0.96875 0.625l0.015625 0l0 -0.625l0 -3.0625l2.5625 0l0 10.28125zm-2.5625 -2.765625l0 -2.421875q-0.484375 -0.671875 -1.109375 -0.671875q-0.359375 0 -0.65625 0.28125q-0.28125 0.28125 -0.4375 0.8125q-0.15625 0.515625 -0.15625 1.140625q0 0.890625 0.3125 1.390625q0.3125 0.5 0.859375 0.5q0.671875 0 1.1875 -1.03125zm11.804962 2.765625l-2.5625 0l0 -1.359375l-0.03125 0q-0.328125 0.71875 -0.953125 1.125q-0.625 0.390625 -1.40625 0.390625q-0.875 0 -1.46875 -0.546875q-0.34375 -0.3125 -0.5 -0.734375q-0.140625 -0.421875 -0.140625 -1.078125l0 -5.015625l2.5625 0l0 4.484375q0 0.34375 0.0625 0.5625q0.0625 0.203125 0.203125 0.3125q0.140625 0.09375 0.359375 0.09375q0.34375 0 0.640625 -0.25q0.3125 -0.25 0.671875 -0.796875l0 -4.40625l2.5625 0l0 7.21875zm7.969055 -0.09375q-1.234375 0.25 -2.359375 0.25q-0.515625 0 -0.953125 -0.046875q-0.421875 -0.046875 -0.78125 -0.15625q-0.359375 -0.125 -0.640625 -0.28125q-0.265625 -0.171875 -0.546875 -0.4375q-0.53125 -0.5 -0.8125 -1.234375q-0.265625 -0.734375 -0.265625 -1.578125q0 -1.140625 0.484375 -2.015625q0.5 -0.875 1.421875 -1.328125q0.9375 -0.46875 2.171875 -0.46875q0.96875 0 2.234375 0.328125l0 1.703125q-1.21875 -0.484375 -1.890625 -0.484375q-0.5 0 -0.890625 0.28125q-0.390625 0.265625 -0.59375 0.765625q-0.203125 0.484375 -0.203125 1.140625q0 0.984375 0.515625 1.609375q0.53125 0.625 1.375 0.625q0.71875 0 1.734375 -0.328125l0 1.65625zm5.8408813 0.03125q-0.46875 0.140625 -0.75 0.171875q-0.265625 0.046875 -0.6875 0.046875q-1.109375 0 -1.78125 -0.40625q-0.5 -0.3125 -0.6875 -0.765625q-0.171875 -0.46875 -0.171875 -1.40625l0 -3.359375l-0.71875 0l0 -1.4375l0.71875 0l0 -1.140625l2.578125 -0.3125l0 1.453125l1.359375 0l0 1.4375l-1.359375 0l0 3.09375q0 0.46875 0.03125 0.65625q0.046875 0.1875 0.203125 0.359375q0.234375 0.234375 0.703125 0.234375q0.234375 0 0.5625 -0.109375l0 1.484375z" fill-rule="nonzero"/><path fill="#000000" fill-opacity="0.0" d="m301.01837 241.95538l162.61417 0l0 23.874023l-162.61417 0z" fill-rule="evenodd"/><path stroke="#000000" stroke-width="2.0" stroke-linejoin="round" stroke-linecap="butt" d="m301.01837 241.95538l162.61417 0l0 23.874023l-162.61417 0z" fill-rule="evenodd"/><path fill="#000000" fill-opacity="0.0" d="m301.01837 218.08136l162.61417 0l0 23.874023l-162.61417 0z" fill-rule="evenodd"/><path stroke="#000000" stroke-width="2.0" stroke-linejoin="round" stroke-linecap="butt" d="m301.01837 218.08136l162.61417 0l0 23.874023l-162.61417 0z" fill-rule="evenodd"/><path fill="#000000" d="m311.31525 234.81837l0 -1.609375l1.609375 0l0 1.609375l-1.609375 0zm4.217102 0l0 -1.609375l1.609375 0l0 1.609375l-1.609375 0zm4.217102 0l0 -1.609375l1.609375 0l0 1.609375l-1.609375 0z" fill-rule="nonzero"/><path fill="#000000" fill-opacity="0.0" d="m11.417323 188.82152l228.56693 0l0 29.259842l-228.56693 0z" fill-rule="evenodd"/><path stroke="#000000" stroke-width="3.0" stroke-linejoin="round" stroke-linecap="butt" d="m11.417323 188.82152l228.56693 0l0 29.259842l-228.56693 0z" fill-rule="evenodd"/><path fill="#000000" d="m76.10398 207.9702q-0.34375 0.109375 -0.390625 0.125q-1.40625 0.390625 -3.046875 0.390625q-0.765625 0 -1.421875 -0.125q-0.65625 -0.109375 -1.234375 -0.34375q-0.578125 -0.234375 -1.0 -0.578125q-0.421875 -0.328125 -0.734375 -0.75q-0.3125 -0.421875 -0.546875 -0.96875q-0.234375 -0.546875 -0.34375 -1.109375q-0.109375 -0.5625 -0.109375 -1.1875q0 -0.75 0.15625 -1.453125q0.171875 -0.703125 0.5 -1.28125q0.328125 -0.59375 0.796875 -1.03125q0.453125 -0.453125 1.03125 -0.734375q0.578125 -0.28125 1.296875 -0.40625q0.71875 -0.140625 1.59375 -0.140625q0.90625 0 1.828125 0.09375q0.921875 0.09375 1.46875 0.234375l0 1.84375q-0.1875 -0.078125 -0.28125 -0.09375q-0.09375 -0.03125 -0.1875 -0.0625q-1.328125 -0.421875 -2.390625 -0.421875q-1.390625 0 -2.15625 0.71875q-0.4375 0.4375 -0.6875 1.140625q-0.234375 0.6875 -0.234375 1.546875q0 1.09375 0.375 1.875q0.390625 0.765625 1.125 1.171875q0.75 0.390625 1.8125 0.390625q0.453125 0 1.078125 -0.09375q0.5 -0.09375 0.828125 -0.171875q0.328125 -0.09375 0.875 -0.34375l0 1.765625zm8.880341 -3.328125q0 0.875 -0.28125 1.578125q-0.265625 0.6875 -0.796875 1.1875q-0.515625 0.5 -1.25 0.75q-0.734375 0.25 -1.640625 0.25q-0.9375 0 -1.6875 -0.25q-0.75 -0.25 -1.296875 -0.734375q-0.53125 -0.5 -0.8125 -1.203125q-0.265625 -0.71875 -0.265625 -1.59375q0 -0.859375 0.265625 -1.5625q0.28125 -0.71875 0.796875 -1.203125q0.53125 -0.484375 1.265625 -0.734375q0.734375 -0.265625 1.671875 -0.265625q0.953125 0 1.6875 0.265625q0.75 0.25 1.265625 0.734375q0.53125 0.484375 0.796875 1.1875q0.28125 0.6875 0.28125 1.59375zm-2.734375 -0.015625q0 -1.046875 -0.359375 -1.671875q-0.359375 -0.640625 -0.9375 -0.640625q-0.375 0 -0.65625 0.296875q-0.28125 0.28125 -0.453125 0.828125q-0.15625 0.53125 -0.15625 1.203125q0 0.65625 0.15625 1.203125q0.15625 0.53125 0.4375 0.828125q0.296875 0.296875 0.671875 0.296875q0.578125 0 0.9375 -0.640625q0.359375 -0.65625 0.359375 -1.703125zm11.400131 3.625l-2.5625 0l0 -4.484375q0 -0.53125 -0.15625 -0.75q-0.140625 -0.234375 -0.46875 -0.234375q-0.34375 0 -0.65625 0.265625q-0.3125 0.25 -0.65625 0.796875l0 4.40625l-2.5625 0l0 -7.21875l2.5625 0l0 1.359375l0.03125 0q0.34375 -0.734375 0.953125 -1.125q0.625 -0.40625 1.40625 -0.40625q0.875 0 1.46875 0.53125q0.359375 0.328125 0.5 0.75q0.140625 0.40625 0.140625 1.078125l0 5.03125zm7.89093 -0.09375q-1.234375 0.25 -2.359375 0.25q-0.515625 0 -0.953125 -0.046875q-0.421875 -0.046875 -0.78125 -0.15625q-0.359375 -0.125 -0.640625 -0.28125q-0.265625 -0.171875 -0.546875 -0.4375q-0.53125 -0.5 -0.8125 -1.234375q-0.265625 -0.734375 -0.265625 -1.578125q0 -1.140625 0.484375 -2.015625q0.5 -0.875 1.421875 -1.328125q0.9375 -0.46875 2.171875 -0.46875q0.96875 0 2.234375 0.328125l0 1.703125q-1.21875 -0.484375 -1.890625 -0.484375q-0.5 0 -0.890625 0.28125q-0.390625 0.265625 -0.59375 0.765625q-0.203125 0.484375 -0.203125 1.140625q0 0.984375 0.515625 1.609375q0.53125 0.625 1.375 0.625q0.71875 0 1.734375 -0.328125l0 1.65625zm6.8408813 -5.015625q-0.296875 -0.125 -0.484375 -0.15625q-0.171875 -0.03125 -0.5 -0.03125q-0.5625 0 -0.953125 0.21875q-0.390625 0.203125 -0.71875 0.671875l0 4.40625l-2.5625 0l0 -7.21875l2.5625 0l0 1.359375l0.03125 0q0.109375 -0.34375 0.40625 -0.671875q0.3125 -0.328125 0.75 -0.578125q0.5 -0.28125 1.15625 -0.28125q0.1875 0 0.3125 0.046875l0 2.234375zm7.8984375 4.875q-0.234375 0.0625 -0.4375 0.109375q-1.296875 0.296875 -2.515625 0.296875q-0.890625 0 -1.65625 -0.21875q-0.75 -0.234375 -1.234375 -0.625q-0.609375 -0.515625 -0.984375 -1.34375q-0.359375 -0.84375 -0.359375 -1.703125q0 -0.8125 0.265625 -1.5q0.28125 -0.6875 0.78125 -1.171875q0.5 -0.484375 1.203125 -0.734375q0.71875 -0.265625 1.578125 -0.265625q0.828125 0 1.40625 0.203125q0.578125 0.203125 1.0 0.625q0.5625 0.59375 0.75 1.328125q0.09375 0.359375 0.125 0.640625q0.046875 0.265625 0.0625 0.640625q0.015625 0.359375 0.015625 0.90625l-4.53125 0q0.03125 0.3125 0.078125 0.515625q0.046875 0.1875 0.171875 0.375q0.234375 0.359375 0.640625 0.515625q0.421875 0.15625 1.15625 0.15625q0.671875 0 1.109375 -0.078125q0.4375 -0.078125 1.375 -0.375l0 1.703125zm-2.421875 -4.09375l0 -0.109375q0 -0.8125 -0.234375 -1.171875q-0.21875 -0.375 -0.71875 -0.375q-0.359375 0 -0.625 0.203125q-0.25 0.1875 -0.390625 0.5625q-0.140625 0.359375 -0.171875 0.890625l2.140625 0zm8.367905 4.265625q-0.46875 0.140625 -0.75 0.171875q-0.265625 0.046875 -0.6875 0.046875q-1.109375 0 -1.78125 -0.40625q-0.5 -0.3125 -0.6875 -0.765625q-0.171875 -0.46875 -0.171875 -1.40625l0 -3.359375l-0.71875 0l0 -1.4375l0.71875 0l0 -1.140625l2.578125 -0.3125l0 1.453125l1.359375 0l0 1.4375l-1.359375 0l0 3.09375q0 0.46875 0.03125 0.65625q0.046875 0.1875 0.203125 0.359375q0.234375 0.234375 0.703125 0.234375q0.234375 0 0.5625 -0.109375l0 1.484375zm8.045921 -0.171875q-0.234375 0.0625 -0.4375 0.109375q-1.296875 0.296875 -2.5156326 0.296875q-0.890625 0 -1.65625 -0.21875q-0.75 -0.234375 -1.234375 -0.625q-0.609375 -0.515625 -0.984375 -1.34375q-0.359375 -0.84375 -0.359375 -1.703125q0 -0.8125 0.265625 -1.5q0.28125 -0.6875 0.78125 -1.171875q0.5 -0.484375 1.203125 -0.734375q0.71875 -0.265625 1.578125 -0.265625q0.828125 0 1.4062576 0.203125q0.578125 0.203125 1.0 0.625q0.5625 0.59375 0.75 1.328125q0.09375 0.359375 0.125 0.640625q0.046875 0.265625 0.0625 0.640625q0.015625 0.359375 0.015625 0.90625l-4.5312576 0q0.03125 0.3125 0.078125 0.515625q0.046875 0.1875 0.171875 0.375q0.234375 0.359375 0.640625 0.515625q0.421875 0.15625 1.15625 0.15625q0.6718826 0 1.1093826 -0.078125q0.4375 -0.078125 1.375 -0.375l0 1.703125zm-2.4218826 -4.09375l0 -0.109375q0 -0.8125 -0.234375 -1.171875q-0.21875 -0.375 -0.71875 -0.375q-0.359375 0 -0.625 0.203125q-0.25 0.1875 -0.390625 0.5625q-0.140625 0.359375 -0.171875 0.890625l2.140625 0zm10.805412 -3.703125l-4.09375 0l0 2.65625l3.328125 0l0 1.4375l-3.328125 0l0 3.9375l-2.5625 0l0 -9.640625l6.65625 0l0 1.609375zm7.9929657 8.03125q-0.71875 0.15625 -1.28125 0.15625q-0.453125 0 -0.8125 -0.078125q-0.34375 -0.078125 -0.546875 -0.203125q-0.21875 -0.15625 -0.4375 -0.515625l-0.171875 0q-0.421875 0.453125 -0.828125 0.625q-0.390625 0.171875 -0.96875 0.171875q-0.671875 0 -1.203125 -0.265625q-0.53125 -0.28125 -0.828125 -0.78125q-0.28125 -0.5 -0.28125 -1.140625q0 -1.09375 0.796875 -1.75q0.5 -0.421875 1.15625 -0.578125q0.65625 -0.171875 1.796875 -0.171875l0.53125 0l0 -0.453125q0 -1.0 -1.28125 -1.0q-0.578125 0 -1.3125 0.203125q-0.53125 0.15625 -1.046875 0.453125l0 -1.609375q0.09375 -0.03125 0.1875 -0.0625q0.09375 -0.03125 0.171875 -0.046875q1.078125 -0.34375 2.34375 -0.34375q3.34375 0 3.34375 2.265625l0 3.125q0 0.59375 0.40625 0.59375q0.078125 0 0.265625 -0.03125l0 1.4375zm-3.078125 -2.015625l0 -1.15625l-0.515625 0q-1.359375 0 -1.359375 0.953125q0 0.359375 0.203125 0.59375q0.21875 0.21875 0.578125 0.21875q0.5625 0 1.09375 -0.609375zm10.475922 1.921875q-1.234375 0.25 -2.359375 0.25q-0.515625 0 -0.953125 -0.046875q-0.421875 -0.046875 -0.78125 -0.15625q-0.359375 -0.125 -0.640625 -0.28125q-0.265625 -0.171875 -0.546875 -0.4375q-0.53125 -0.5 -0.8125 -1.234375q-0.265625 -0.734375 -0.265625 -1.578125q0 -1.140625 0.484375 -2.015625q0.5 -0.875 1.421875 -1.328125q0.9375 -0.46875 2.171875 -0.46875q0.96875 0 2.234375 0.328125l0 1.703125q-1.21875 -0.484375 -1.890625 -0.484375q-0.5 0 -0.890625 0.28125q-0.390625 0.265625 -0.59375 0.765625q-0.203125 0.484375 -0.203125 1.140625q0 0.984375 0.515625 1.609375q0.53125 0.625 1.375 0.625q0.71875 0 1.734375 -0.328125l0 1.65625zm5.8408813 0.03125q-0.46875 0.140625 -0.75 0.171875q-0.265625 0.046875 -0.6875 0.046875q-1.109375 0 -1.78125 -0.40625q-0.5 -0.3125 -0.6875 -0.765625q-0.171875 -0.46875 -0.171875 -1.40625l0 -3.359375l-0.71875 0l0 -1.4375l0.71875 0l0 -1.140625l2.578125 -0.3125l0 1.453125l1.359375 0l0 1.4375l-1.359375 0l0 3.09375q0 0.46875 0.03125 0.65625q0.046875 0.1875 0.203125 0.359375q0.234375 0.234375 0.703125 0.234375q0.234375 0 0.5625 -0.109375l0 1.484375zm8.983414 -3.546875q0 0.875 -0.28125 1.578125q-0.265625 0.6875 -0.796875 1.1875q-0.515625 0.5 -1.25 0.75q-0.734375 0.25 -1.640625 0.25q-0.9375 0 -1.6875 -0.25q-0.75 -0.25 -1.296875 -0.734375q-0.53125 -0.5 -0.8125 -1.203125q-0.265625 -0.71875 -0.265625 -1.59375q0 -0.859375 0.265625 -1.5625q0.28125 -0.71875 0.796875 -1.203125q0.53125 -0.484375 1.265625 -0.734375q0.734375 -0.265625 1.671875 -0.265625q0.953125 0 1.6875 0.265625q0.75 0.25 1.265625 0.734375q0.53125 0.484375 0.796875 1.1875q0.28125 0.6875 0.28125 1.59375zm-2.734375 -0.015625q0 -1.046875 -0.359375 -1.671875q-0.359375 -0.640625 -0.9375 -0.640625q-0.375 0 -0.65625 0.296875q-0.28125 0.28125 -0.453125 0.828125q-0.15625 0.53125 -0.15625 1.203125q0 0.65625 0.15625 1.203125q0.15625 0.53125 0.4375 0.828125q0.296875 0.296875 0.671875 0.296875q0.578125 0 0.9375 -0.640625q0.359375 -0.65625 0.359375 -1.703125zm9.556381 -1.484375q-0.296875 -0.125 -0.484375 -0.15625q-0.171875 -0.03125 -0.5 -0.03125q-0.5625 0 -0.953125 0.21875q-0.390625 0.203125 -0.71875 0.671875l0 4.40625l-2.5625 0l0 -7.21875l2.5625 0l0 1.359375l0.03125 0q0.109375 -0.34375 0.40625 -0.671875q0.3125 -0.328125 0.75 -0.578125q0.5 -0.28125 1.15625 -0.28125q0.1875 0 0.3125 0.046875l0 2.234375zm8.7578125 -2.109375l-4.703125 9.796875l-2.65625 0l1.96875 -2.578125l-2.84375 -7.21875l2.765625 0l1.65625 4.203125l2.03125 -4.203125l1.78125 0z" fill-rule="nonzero"/><path fill="#000000" fill-opacity="0.0" d="m11.41649 241.95538l228.56693 0l0 39.149597l-228.56693 0z" fill-rule="evenodd"/><path stroke="#000000" stroke-width="2.0" stroke-linejoin="round" stroke-linecap="butt" d="m11.41649 241.95538l228.56693 0l0 39.149597l-228.56693 0z" fill-rule="evenodd"/><path fill="#000000" d="m24.150864 266.01767l0 -3.0625l-3.046875 0l0 -0.953125l3.046875 0l0 -3.0625l0.96875 0l0 3.0625l3.046875 0l0 0.953125l-3.046875 0l0 3.0625l-0.96875 0zm10.160431 0.3125l0 -9.625l5.375 0l0 1.015625l-4.015625 0l0 3.234375l3.375 0l0 1.0l-3.375 0l0 4.375l-1.359375 0zm10.81752 -0.890625q-0.5625 0.515625 -1.125 0.78125q-0.5625 0.265625 -1.09375 0.265625q-0.75 0 -1.390625 -0.484375q-0.640625 -0.5 -0.640625 -1.453125q0 -1.03125 0.890625 -1.703125q0.90625 -0.6875 2.875 -0.6875l0.296875 0l0 -0.859375q0 -0.5 -0.140625 -0.734375q-0.125 -0.234375 -0.421875 -0.359375q-0.28125 -0.140625 -0.71875 -0.140625q-1.0 0 -2.171875 0.625l0 -1.0625q1.296875 -0.515625 2.4375 -0.515625q0.625 0 1.140625 0.203125q0.53125 0.1875 0.84375 0.625q0.3125 0.421875 0.3125 1.359375l0 3.203125q0 0.53125 0.078125 0.71875q0.09375 0.1875 0.25 0.28125q0.15625 0.09375 0.359375 0.09375q0.078125 0 0.234375 -0.015625l0.09375 0.703125q-0.4375 0.203125 -0.953125 0.203125q-0.359375 0 -0.6875 -0.21875q-0.328125 -0.234375 -0.46875 -0.828125zm-0.1875 -0.703125l0 -1.828125l-0.40625 -0.015625q-1.015625 0 -1.703125 0.390625q-0.671875 0.390625 -0.671875 1.0625q0 0.46875 0.328125 0.78125q0.34375 0.3125 0.796875 0.3125q0.390625 0 0.8125 -0.171875q0.421875 -0.1875 0.84375 -0.53125zm8.813538 1.375q-1.234375 0.375 -2.140625 0.375q-0.953125 0 -1.75 -0.5q-0.78125 -0.515625 -1.1875 -1.34375q-0.390625 -0.84375 -0.390625 -1.890625q0 -1.5625 0.859375 -2.59375q0.875 -1.046875 2.6875 -1.046875q0.828125 0 1.84375 0.21875l0 1.078125q-1.078125 -0.3125 -1.765625 -0.3125q-1.078125 0 -1.625 0.796875q-0.546875 0.796875 -0.546875 1.90625q0 1.1875 0.609375 1.921875q0.609375 0.734375 1.59375 0.734375q0.890625 0 1.8125 -0.453125l0 1.109375zm5.076767 0.21875q-0.59375 0.15625 -1.03125 0.15625q-0.953125 0 -1.515625 -0.546875q-0.5625 -0.546875 -0.5625 -1.5625l0 -4.15625l-0.875 0l0 -0.953125l0.875 0l0 -1.28125l1.28125 -0.125l0 1.40625l1.859375 0l0 0.953125l-1.859375 0l0 3.921875q0 0.75 0.28125 1.078125q0.296875 0.3125 0.921875 0.3125q0.25 0 0.625 -0.09375l0 0.890625zm4.641281 0.15625q-1.015625 0 -1.765625 -0.40625q-0.734375 -0.40625 -1.171875 -1.296875q-0.4375 -0.890625 -0.4375 -1.984375q0 -1.03125 0.390625 -1.90625q0.40625 -0.890625 1.15625 -1.328125q0.765625 -0.453125 1.828125 -0.453125q1.015625 0 1.75 0.40625q0.75 0.40625 1.1875 1.296875q0.4375 0.890625 0.4375 1.984375q0 1.03125 -0.40625 1.921875q-0.40625 0.875 -1.15625 1.328125q-0.75 0.4375 -1.8125 0.4375zm0 -0.953125q0.953125 0 1.484375 -0.703125q0.53125 -0.71875 0.53125 -2.03125q0 -1.3125 -0.53125 -2.015625q-0.53125 -0.71875 -1.484375 -0.71875q-0.953125 0 -1.484375 0.71875q-0.515625 0.703125 -0.515625 2.015625q0 1.3125 0.515625 2.03125q0.53125 0.703125 1.484375 0.703125zm5.374405 0.796875l0 -7.0625l1.28125 0l0 1.328125q0.359375 -0.71875 0.9375 -1.09375q0.59375 -0.390625 1.28125 -0.390625q0.1875 0 0.40625 0.03125l0 1.1875q-0.328125 -0.109375 -0.59375 -0.109375q-0.59375 0 -1.109375 0.375q-0.515625 0.359375 -0.921875 1.078125l0 4.65625l-1.28125 0zm5.859848 2.578125l1.15625 -2.578125l-2.734375 -7.0625l1.375 0l2.03125 5.3125l2.15625 -5.3125l1.21875 0l-3.859375 9.640625l-1.34375 0zm6.5259247 -2.578125l0 -9.625l1.890625 0l2.671875 7.4375l2.734375 -7.4375l1.703125 0l0 9.625l-1.28125 0l0 -7.828125l-2.65625 7.1875l-1.328125 0l-2.5625 -7.21875l0 7.859375l-1.171875 0zm16.698639 -0.234375q-1.296875 0.390625 -2.21875 0.390625q-1.640625 0 -2.59375 -1.109375q-0.9375 -1.109375 -0.9375 -2.609375q0 -1.0 0.421875 -1.890625q0.421875 -0.90625 1.09375 -1.34375q0.671875 -0.4375 1.578125 -0.4375q1.21875 0 1.953125 0.890625q0.734375 0.875 0.734375 2.625l-0.015625 0.390625l-4.453125 0q0.109375 0.9375 0.40625 1.453125q0.296875 0.5 0.796875 0.78125q0.5 0.28125 1.265625 0.28125q0.390625 0 0.765625 -0.0625q0.390625 -0.078125 1.203125 -0.375l0 1.015625zm-4.375 -4.0625l3.109375 0q0 -1.0625 -0.421875 -1.515625q-0.40625 -0.453125 -1.046875 -0.453125q-0.734375 0 -1.15625 0.5q-0.40625 0.484375 -0.484375 1.46875zm9.769241 4.296875q-0.59375 0.15625 -1.03125 0.15625q-0.953125 0 -1.515625 -0.546875q-0.5625 -0.546875 -0.5625 -1.5625l0 -4.15625l-0.875 0l0 -0.953125l0.875 0l0 -1.28125l1.28125 -0.125l0 1.40625l1.859375 0l0 0.953125l-1.859375 0l0 3.921875q0 0.75 0.28125 1.078125q0.296875 0.3125 0.921875 0.3125q0.25 0 0.625 -0.09375l0 0.890625zm1.8287811 0l0 -10.28125l1.28125 0l0 4.546875q0.484375 -0.71875 1.125 -1.09375q0.65625 -0.390625 1.359375 -0.390625q0.890625 0 1.453125 0.578125q0.5625 0.5625 0.5625 1.5625l0 5.078125l-1.28125 0l0 -4.65625q0 -0.734375 -0.140625 -0.96875q-0.125 -0.234375 -0.359375 -0.359375q-0.234375 -0.140625 -0.5 -0.140625q-0.46875 0 -1.03125 0.296875q-0.546875 0.296875 -1.1875 1.25l0 4.578125l-1.28125 0zm11.084015 0.15625q-1.015625 0 -1.765625 -0.40625q-0.734375 -0.40625 -1.171875 -1.296875q-0.4375 -0.890625 -0.4375 -1.984375q0 -1.03125 0.390625 -1.90625q0.40625 -0.890625 1.15625 -1.328125q0.765625 -0.453125 1.828125 -0.453125q1.015625 0 1.75 0.40625q0.75 0.40625 1.1875 1.296875q0.4375 0.890625 0.4375 1.984375q0 1.03125 -0.40625 1.921875q-0.40625 0.875 -1.15625 1.328125q-0.75 0.4375 -1.8125 0.4375zm0 -0.953125q0.953125 0 1.484375 -0.703125q0.53125 -0.71875 0.53125 -2.03125q0 -1.3125 -0.53125 -2.015625q-0.53125 -0.71875 -1.484375 -0.71875q-0.953125 0 -1.484375 0.71875q-0.515625 0.703125 -0.515625 2.015625q0 1.3125 0.515625 2.03125q0.53125 0.703125 1.484375 0.703125zm9.905655 0.796875l0 -1.328125q-0.390625 0.75 -0.984375 1.125q-0.578125 0.359375 -1.359375 0.359375q-1.3125 0 -2.03125 -0.953125q-0.71875 -0.953125 -0.71875 -2.515625q0 -1.671875 0.8125 -2.78125q0.8125 -1.125 2.203125 -1.125q0.40625 0 0.78125 0.09375q0.375 0.09375 0.65625 0.28125q0.296875 0.171875 0.640625 0.578125l0 -4.015625l1.296875 0l0 10.28125l-1.296875 0zm0 -5.375q-0.65625 -0.59375 -1.046875 -0.734375q-0.390625 -0.15625 -0.828125 -0.15625q-0.9375 0 -1.390625 0.796875q-0.453125 0.78125 -0.453125 2.03125q0 1.140625 0.390625 1.8125q0.40625 0.65625 1.25 0.65625q0.53125 0 1.046875 -0.28125q0.53125 -0.296875 1.03125 -0.875l0 -3.25zm6.4355316 6.421875l0 0.875q-1.0625 -0.71875 -1.71875 -1.71875q-0.65625 -1.0 -1.0 -2.140625q-0.34375 -1.140625 -0.34375 -2.234375q0 -1.09375 0.34375 -2.234375q0.34375 -1.140625 1.0 -2.140625q0.65625 -1.0 1.71875 -1.734375l0 0.890625q-0.734375 0.796875 -1.09375 1.546875q-0.34375 0.75 -0.515625 1.6875q-0.171875 0.9375 -0.171875 1.984375q0 1.03125 0.171875 1.984375q0.171875 0.9375 0.515625 1.6875q0.359375 0.734375 1.09375 1.546875zm0.9592438 -10.4375l0 -0.890625q1.0625 0.734375 1.71875 1.734375q0.65625 1.0 0.984375 2.140625q0.34375 1.140625 0.34375 2.234375q0 1.09375 -0.34375 2.234375q-0.328125 1.140625 -0.984375 2.140625q-0.65625 1.0 -1.71875 1.71875l0 -0.875q0.734375 -0.8125 1.078125 -1.546875q0.359375 -0.75 0.515625 -1.6875q0.171875 -0.953125 0.171875 -1.984375q0 -1.03125 -0.171875 -1.96875q-0.15625 -0.953125 -0.515625 -1.703125q-0.34375 -0.75 -1.078125 -1.546875zm5.318619 9.390625l0 -1.28125l1.28125 0l0 1.28125l-1.28125 0zm0 -5.78125l0 -1.28125l1.28125 0l0 1.28125l-1.28125 0zm8.215454 5.78125l0 -9.625l2.609375 0q1.40625 0 2.015625 0.28125q0.609375 0.265625 0.921875 0.828125q0.328125 0.5625 0.328125 1.40625q0 0.984375 -0.4375 1.734375q-0.421875 0.734375 -1.375 1.140625q-0.953125 0.40625 -2.109375 0.40625l-0.609375 0l0 3.828125l-1.34375 0zm1.34375 -4.859375l0.5625 0q1.359375 0 1.9375 -0.609375q0.59375 -0.625 0.59375 -1.546875q0 -0.484375 -0.1875 -0.828125q-0.1875 -0.34375 -0.609375 -0.546875q-0.40625 -0.21875 -1.453125 -0.21875l-0.84375 0l0 3.75zm6.054413 4.859375l0 -7.0625l1.28125 0l0 1.328125q0.359375 -0.71875 0.9375 -1.09375q0.59375 -0.390625 1.28125 -0.390625q0.1875 0 0.40625 0.03125l0 1.1875q-0.328125 -0.109375 -0.59375 -0.109375q-0.59375 0 -1.109375 0.375q-0.515625 0.359375 -0.921875 1.078125l0 4.65625l-1.28125 0zm8.266098 0.15625q-1.015625 0 -1.765625 -0.40625q-0.734375 -0.40625 -1.171875 -1.296875q-0.4375 -0.890625 -0.4375 -1.984375q0 -1.03125 0.390625 -1.90625q0.40625 -0.890625 1.15625 -1.328125q0.765625 -0.453125 1.828125 -0.453125q1.015625 0 1.75 0.40625q0.75 0.40625 1.1875 1.296875q0.4375 0.890625 0.4375 1.984375q0 1.03125 -0.40625 1.921875q-0.40625 0.875 -1.15625 1.328125q-0.75 0.4375 -1.8125 0.4375zm0 -0.953125q0.953125 0 1.484375 -0.703125q0.53125 -0.71875 0.53125 -2.03125q0 -1.3125 -0.53125 -2.015625q-0.53125 -0.71875 -1.484375 -0.71875q-0.953125 0 -1.484375 0.71875q-0.515625 0.703125 -0.515625 2.015625q0 1.3125 0.515625 2.03125q0.53125 0.703125 1.484375 0.703125zm9.905655 0.796875l0 -1.328125q-0.390625 0.75 -0.984375 1.125q-0.578125 0.359375 -1.359375 0.359375q-1.3125 0 -2.03125 -0.953125q-0.71875 -0.953125 -0.71875 -2.515625q0 -1.671875 0.8125 -2.78125q0.8125 -1.125 2.203125 -1.125q0.40625 0 0.78125 0.09375q0.375 0.09375 0.65625 0.28125q0.296875 0.171875 0.640625 0.578125l0 -4.015625l1.296875 0l0 10.28125l-1.296875 0zm0 -5.375q-0.65625 -0.59375 -1.046875 -0.734375q-0.390625 -0.15625 -0.828125 -0.15625q-0.9375 0 -1.390625 0.796875q-0.453125 0.78125 -0.453125 2.03125q0 1.140625 0.390625 1.8125q0.40625 0.65625 1.25 0.65625q0.53125 0 1.046875 -0.28125q0.53125 -0.296875 1.03125 -0.875l0 -3.25zm8.279282 5.375l0 -1.328125q-0.5 0.71875 -1.140625 1.109375q-0.640625 0.375 -1.34375 0.375q-0.890625 0 -1.453125 -0.5625q-0.5625 -0.5625 -0.5625 -1.578125l0 -5.078125l1.28125 0l0 4.65625q0 0.734375 0.125 0.96875q0.140625 0.234375 0.375 0.375q0.234375 0.125 0.5 0.125q0.46875 0 1.015625 -0.296875q0.5625 -0.296875 1.203125 -1.25l0 -4.578125l1.28125 0l0 7.0625l-1.28125 0zm8.75589 -0.21875q-1.234375 0.375 -2.140625 0.375q-0.953125 0 -1.75 -0.5q-0.78125 -0.515625 -1.1875 -1.34375q-0.390625 -0.84375 -0.390625 -1.890625q0 -1.5625 0.859375 -2.59375q0.875 -1.046875 2.6875 -1.046875q0.828125 0 1.84375 0.21875l0 1.078125q-1.078125 -0.3125 -1.765625 -0.3125q-1.078125 0 -1.625 0.796875q-0.546875 0.796875 -0.546875 1.90625q0 1.1875 0.609375 1.921875q0.609375 0.734375 1.59375 0.734375q0.890625 0 1.8125 -0.453125l0 1.109375zm5.076767 0.21875q-0.59375 0.15625 -1.03125 0.15625q-0.953125 0 -1.515625 -0.546875q-0.5625 -0.546875 -0.5625 -1.5625l0 -4.15625l-0.875 0l0 -0.953125l0.875 0l0 -1.28125l1.28125 -0.125l0 1.40625l1.859375 0l0 0.953125l-1.859375 0l0 3.921875q0 0.75 0.28125 1.078125q0.296875 0.3125 0.921875 0.3125q0.25 0 0.625 -0.09375l0 0.890625zm1.7975311 0l0 -9.625l2.484375 0q1.640625 0 2.3125 0.625q0.6875 0.625 0.6875 1.484375q0 0.703125 -0.46875 1.40625q-0.453125 0.6875 -1.515625 1.09375q0.9375 0.28125 1.390625 0.65625q0.46875 0.359375 0.71875 0.875q0.25 0.515625 0.25 1.078125q0 0.671875 -0.34375 1.25q-0.34375 0.578125 -0.90625 0.875q-0.5625 0.28125 -1.78125 0.28125l-2.828125 0zm1.34375 -1.015625l0.28125 0q1.453125 0 1.875 -0.15625q0.4375 -0.171875 0.671875 -0.53125q0.25 -0.375 0.25 -0.828125q0 -0.84375 -0.765625 -1.421875q-0.765625 -0.578125 -1.921875 -0.578125l-0.390625 0l0 3.515625zm0 -4.390625l0.4375 0q1.1875 0 1.734375 -0.5q0.5625 -0.515625 0.5625 -1.296875q0 -0.6875 -0.5 -1.046875q-0.484375 -0.359375 -1.703125 -0.359375l-0.53125 0l0 3.203125zm9.9944 4.515625q-0.5625 0.515625 -1.125 0.78125q-0.5625 0.265625 -1.09375 0.265625q-0.75 0 -1.390625 -0.484375q-0.640625 -0.5 -0.640625 -1.453125q0 -1.03125 0.890625 -1.703125q0.90625 -0.6875 2.875 -0.6875l0.296875 0l0 -0.859375q0 -0.5 -0.140625 -0.734375q-0.125 -0.234375 -0.421875 -0.359375q-0.28125 -0.140625 -0.71875 -0.140625q-1.0 0 -2.171875 0.625l0 -1.0625q1.296875 -0.515625 2.4375 -0.515625q0.625 0 1.140625 0.203125q0.53125 0.1875 0.84375 0.625q0.3125 0.421875 0.3125 1.359375l0 3.203125q0 0.53125 0.078125 0.71875q0.09375 0.1875 0.25 0.28125q0.15625 0.09375 0.359375 0.09375q0.078125 0 0.234375 -0.015625l0.09375 0.703125q-0.4375 0.203125 -0.953125 0.203125q-0.359375 0 -0.6875 -0.21875q-0.328125 -0.234375 -0.46875 -0.828125zm-0.1875 -0.703125l0 -1.828125l-0.40625 -0.015625q-1.015625 0 -1.703125 0.390625q-0.671875 0.390625 -0.671875 1.0625q0 0.46875 0.328125 0.78125q0.34375 0.3125 0.796875 0.3125q0.390625 0 0.8125 -0.171875q0.421875 -0.1875 0.84375 -0.53125zm3.6416626 1.34375l0 -1.171875q1.265625 0.625 2.1875 0.625q0.546875 0 0.90625 -0.296875q0.375 -0.3125 0.375 -0.75q0 -0.28125 -0.171875 -0.546875q-0.1875 -0.265625 -0.84375 -0.546875l-0.75 -0.3125q-0.859375 -0.359375 -1.265625 -0.84375q-0.390625 -0.46875 -0.390625 -1.140625q0 -0.859375 0.609375 -1.421875q0.625 -0.5625 1.828125 -0.5625q0.59375 0 1.46875 0.15625l0.265625 0.046875l0 1.078125q-1.0625 -0.328125 -1.703125 -0.328125q-0.625 0 -0.9375 0.265625q-0.296875 0.265625 -0.296875 0.640625q0 0.28125 0.203125 0.515625q0.203125 0.234375 0.734375 0.453125l0.625 0.265625q1.234375 0.53125 1.578125 1.046875q0.328125 0.5 0.328125 1.109375q0 0.578125 -0.3125 1.078125q-0.3125 0.5 -0.9375 0.78125q-0.609375 0.265625 -1.359375 0.265625q-0.875 0 -2.140625 -0.40625zm12.247345 0.015625q-1.296875 0.390625 -2.21875 0.390625q-1.640625 0 -2.59375 -1.109375q-0.9375 -1.109375 -0.9375 -2.609375q0 -1.0 0.421875 -1.890625q0.421875 -0.90625 1.09375 -1.34375q0.671875 -0.4375 1.578125 -0.4375q1.21875 0 1.953125 0.890625q0.734375 0.875 0.734375 2.625l-0.015625 0.390625l-4.453125 0q0.109375 0.9375 0.40625 1.453125q0.296875 0.5 0.796875 0.78125q0.5 0.28125 1.265625 0.28125q0.390625 0 0.765625 -0.0625q0.390625 -0.078125 1.203125 -0.375l0 1.015625zm-4.375 -4.0625l3.109375 0q0 -1.0625 -0.421875 -1.515625q-0.40625 -0.453125 -1.046875 -0.453125q-0.734375 0 -1.15625 0.5q-0.40625 0.484375 -0.484375 1.46875z" fill-rule="nonzero"/><path fill="#000000" fill-opacity="0.0" d="m11.41649 218.08136l228.56693 0l0 23.874023l-228.56693 0z" fill-rule="evenodd"/><path stroke="#000000" stroke-width="2.0" stroke-linejoin="round" stroke-linecap="butt" d="m11.41649 218.08136l228.56693 0l0 23.874023l-228.56693 0z" fill-rule="evenodd"/><path fill="#000000" d="m21.713364 234.81837l0 -1.609375l1.609375 0l0 1.609375l-1.609375 0zm4.217102 0l0 -1.609375l1.609375 0l0 1.609375l-1.609375 0zm4.217102 0l0 -1.609375l1.609375 0l0 1.609375l-1.609375 0z" fill-rule="nonzero"/><path fill="#000000" fill-opacity="0.0" d="m11.417323 9.309711l228.56693 0l0 45.165356l-228.56693 0z" fill-rule="evenodd"/><path stroke="#000000" stroke-width="3.0" stroke-linejoin="round" stroke-linecap="butt" d="m11.417323 9.309711l228.56693 0l0 45.165356l-228.56693 0z" fill-rule="evenodd"/><path fill="#000000" d="m91.471756 28.661137l-4.09375 0l-0.5625 2.65625l3.328125 0l-0.296875 1.4375l-3.328125 0l-0.84375 3.9375l-2.5625 0l2.046875 -9.640625l6.65625 0l-0.34375 1.609375zm6.2898407 8.03125q-0.75 0.15625 -1.3125 0.15625q-0.453125 0 -0.796875 -0.078125q-0.328125 -0.078125 -0.5 -0.203125q-0.1875 -0.15625 -0.328125 -0.515625l-0.171875 0q-0.515625 0.453125 -0.953125 0.625q-0.4375 0.171875 -1.015625 0.171875q-0.671875 0 -1.15625 -0.265625q-0.46875 -0.28125 -0.65625 -0.78125q-0.171875 -0.5 -0.03125 -1.140625q0.234375 -1.09375 1.15625 -1.75q0.59375 -0.421875 1.28125 -0.578125q0.703125 -0.171875 1.84375 -0.171875l0.53125 0l0.09375 -0.453125q0.203125 -1.0 -1.078125 -1.0q-0.578125 0 -1.34375 0.203125q-0.5625 0.15625 -1.15625 0.453125l0.34375 -1.609375q0.109375 -0.03125 0.203125 -0.0625q0.109375 -0.03125 0.1875 -0.046875q1.15625 -0.34375 2.421875 -0.34375q3.34375 0 2.859375 2.265625l-0.671875 3.125q-0.125 0.59375 0.28125 0.59375q0.078125 0 0.28125 -0.03125l-0.3125 1.4375zm-2.65625 -2.015625l0.25 -1.15625l-0.515625 0q-1.359375 0 -1.5625 0.953125q-0.078125 0.359375 0.078125 0.59375q0.171875 0.21875 0.53125 0.21875q0.5625 0 1.21875 -0.609375zm10.069672 1.921875q-1.28125 0.25 -2.40625 0.25q-0.515625 0 -0.9375 -0.046875q-0.421875 -0.046875 -0.765625 -0.15625q-0.328125 -0.125 -0.5625 -0.28125q-0.234375 -0.171875 -0.46875 -0.4375q-0.421875 -0.5 -0.546875 -1.234375q-0.109375 -0.734375 0.078125 -1.578125q0.234375 -1.140625 0.90625 -2.015625q0.6875 -0.875 1.71875 -1.328125q1.03125 -0.46875 2.265625 -0.46875q0.96875 0 2.15625 0.328125l-0.359375 1.703125q-1.125 -0.484375 -1.796875 -0.484375q-0.5 0 -0.953125 0.28125q-0.4375 0.265625 -0.75 0.765625q-0.296875 0.484375 -0.4375 1.140625q-0.21875 0.984375 0.171875 1.609375q0.390625 0.625 1.234375 0.625q0.71875 0 1.8125 -0.328125l-0.359375 1.65625zm5.8408813 0.03125q-0.5 0.140625 -0.78125 0.171875q-0.28125 0.046875 -0.703125 0.046875q-1.109375 0 -1.703125 -0.40625q-0.421875 -0.3125 -0.515625 -0.765625q-0.078125 -0.46875 0.125 -1.40625l0.71875 -3.359375l-0.71875 0l0.296875 -1.4375l0.71875 0l0.25 -1.140625l2.640625 -0.3125l-0.3125 1.453125l1.359375 0l-0.296875 1.4375l-1.359375 0l-0.65625 3.09375q-0.109375 0.46875 -0.109375 0.65625q0 0.1875 0.125 0.359375q0.1875 0.234375 0.65625 0.234375q0.234375 0 0.578125 -0.109375l-0.3125 1.484375zm9.733414 -3.546875q-0.1875 0.875 -0.609375 1.578125q-0.421875 0.6875 -1.046875 1.1875q-0.625 0.5 -1.421875 0.75q-0.78125 0.25 -1.6875 0.25q-0.9375 0 -1.640625 -0.25q-0.6875 -0.25 -1.125 -0.734375q-0.4375 -0.5 -0.5625 -1.203125q-0.125 -0.71875 0.0625 -1.59375q0.1875 -0.859375 0.609375 -1.5625q0.421875 -0.71875 1.046875 -1.203125q0.640625 -0.484375 1.421875 -0.734375q0.796875 -0.265625 1.734375 -0.265625q0.953125 0 1.640625 0.265625q0.6875 0.25 1.09375 0.734375q0.421875 0.484375 0.546875 1.1875q0.125 0.6875 -0.0625 1.59375zm-2.734375 -0.015625q0.234375 -1.046875 0 -1.671875q-0.21875 -0.640625 -0.796875 -0.640625q-0.375 0 -0.71875 0.296875q-0.34375 0.28125 -0.625 0.828125q-0.28125 0.53125 -0.421875 1.203125q-0.140625 0.65625 -0.09375 1.203125q0.046875 0.53125 0.265625 0.828125q0.21875 0.296875 0.59375 0.296875q0.578125 0 1.078125 -0.640625q0.5 -0.65625 0.71875 -1.703125zm9.884506 -1.484375q-0.28125 -0.125 -0.453125 -0.15625q-0.171875 -0.03125 -0.5 -0.03125q-0.5625 0 -1.0 0.21875q-0.4375 0.203125 -0.859375 0.671875l-0.9375 4.40625l-2.5625 0l1.53125 -7.21875l2.5625 0l-0.28125 1.359375l0.03125 0q0.171875 -0.34375 0.546875 -0.671875q0.375 -0.328125 0.875 -0.578125q0.5625 -0.28125 1.21875 -0.28125q0.1875 0 0.296875 0.046875l-0.46875 2.234375zm9.1953125 -2.109375l-6.78125 9.796875l-2.65625 0l2.515625 -2.578125l-1.3125 -7.21875l2.765625 0l0.765625 4.203125l2.921875 -4.203125l1.78125 0zm7.487549 4.84375q-0.109375 0.515625 -0.4375 1.0q-0.328125 0.46875 -0.78125 0.796875q-0.46875 0.3125 -1.0 0.453125q-0.515625 0.125 -1.375 0.125l-4.1406403 0l2.046875 -9.640625l3.8750153 0q0.859375 0 1.3125 0.125q0.453125 0.109375 0.75 0.390625q0.1875 0.203125 0.3125 0.484375q0.125 0.265625 0.15625 0.5625q0.03125 0.296875 -0.03125 0.59375q-0.0625 0.296875 -0.21875 0.59375q-0.140625 0.296875 -0.359375 0.53125q-0.203125 0.234375 -0.5 0.453125q-0.4375 0.3125 -0.796875 0.46875q-0.359375 0.15625 -1.234375 0.40625q0.4375 0.078125 0.765625 0.1875q0.34375 0.09375 0.546875 0.21875q0.21875 0.109375 0.453125 0.296875q0.453125 0.359375 0.609375 0.859375q0.171875 0.5 0.046875 1.09375zm-1.921875 -4.75q0.0625 -0.28125 -0.015625 -0.484375q-0.078125 -0.203125 -0.28125 -0.28125q-0.15625 -0.0625 -0.34375 -0.078125q-0.1875 -0.015625 -0.859375 -0.015625l-0.28125 0l-0.46875 2.203125l0.484375 0q0.640625 0 1.140625 -0.375q0.5 -0.390625 0.625 -0.96875zm-0.625 4.453125q0.078125 -0.328125 -0.015625 -0.609375q-0.078125 -0.28125 -0.296875 -0.5q-0.21875 -0.21875 -0.546875 -0.3125q-0.328125 -0.109375 -0.734375 -0.109375l-0.375 0l-0.546875 2.5625l0.515625 0q0.625 0 0.953125 -0.0625q0.40625 -0.0625 0.6875 -0.328125q0.28125 -0.265625 0.359375 -0.640625zm10.3532715 2.671875q-0.75 0.15625 -1.3125 0.15625q-0.453125 0 -0.796875 -0.078125q-0.328125 -0.078125 -0.5 -0.203125q-0.1875 -0.15625 -0.328125 -0.515625l-0.171875 0q-0.515625 0.453125 -0.953125 0.625q-0.4375 0.171875 -1.015625 0.171875q-0.671875 0 -1.15625 -0.265625q-0.46875 -0.28125 -0.65625 -0.78125q-0.171875 -0.5 -0.03125 -1.140625q0.234375 -1.09375 1.15625 -1.75q0.59375 -0.421875 1.28125 -0.578125q0.703125 -0.171875 1.84375 -0.171875l0.53125 0l0.09375 -0.453125q0.203125 -1.0 -1.078125 -1.0q-0.578125 0 -1.34375 0.203125q-0.5625 0.15625 -1.15625 0.453125l0.34375 -1.609375q0.109375 -0.03125 0.203125 -0.0625q0.109375 -0.03125 0.1875 -0.046875q1.15625 -0.34375 2.421875 -0.34375q3.34375 0 2.859375 2.265625l-0.671875 3.125q-0.125 0.59375 0.28125 0.59375q0.078125 0 0.28125 -0.03125l-0.3125 1.4375zm-2.65625 -2.015625l0.25 -1.15625l-0.515625 0q-1.359375 0 -1.5625 0.953125q-0.078125 0.359375 0.078125 0.59375q0.171875 0.21875 0.53125 0.21875q0.5625 0 1.21875 -0.609375zm11.179047 -0.21875q-0.109375 0.515625 -0.453125 0.96875q-0.328125 0.453125 -0.84375 0.765625q-0.5 0.3125 -1.1875 0.484375q-0.671875 0.171875 -1.453125 0.171875q-0.71875 0 -1.3125 -0.0625q-0.875 -0.09375 -1.65625 -0.3125l0.34375 -1.640625q0.125 0.0625 0.21875 0.09375q0.109375 0.03125 0.234375 0.09375q1.171875 0.390625 2.078125 0.390625q1.140625 0 1.265625 -0.578125q0.03125 -0.15625 -0.015625 -0.265625q-0.15625 -0.21875 -0.78125 -0.453125l-0.484375 -0.203125q-1.390625 -0.578125 -1.734375 -1.265625q-0.09375 -0.1875 -0.109375 -0.484375q-0.015625 -0.3125 0.046875 -0.578125q0.21875 -1.09375 1.234375 -1.6875q1.03125 -0.59375 2.703125 -0.59375q1.15625 0 2.359375 0.28125l-0.359375 1.640625q-0.171875 -0.0625 -0.375 -0.15625q-0.375 -0.125 -0.84375 -0.21875q-0.46875 -0.09375 -0.8125 -0.09375q-1.171875 0 -1.296875 0.578125q-0.046875 0.21875 0.109375 0.359375q0.15625 0.140625 0.59375 0.3125l0.46875 0.171875q1.34375 0.484375 1.78125 0.984375q0.453125 0.484375 0.28125 1.296875zm7.947296 2.0q-0.25 0.0625 -0.453125 0.109375q-1.359375 0.296875 -2.578125 0.296875q-0.890625 0 -1.609375 -0.21875q-0.703125 -0.234375 -1.109375 -0.625q-0.5 -0.515625 -0.6875 -1.34375q-0.1875 -0.84375 0 -1.703125q0.171875 -0.8125 0.578125 -1.5q0.421875 -0.6875 1.03125 -1.171875q0.609375 -0.484375 1.375 -0.734375q0.765625 -0.265625 1.625 -0.265625q0.828125 0 1.359375 0.203125q0.53125 0.203125 0.859375 0.625q0.4375 0.59375 0.46875 1.328125q0.015625 0.359375 0 0.640625q-0.015625 0.265625 -0.078125 0.640625q-0.0625 0.359375 -0.1875 0.90625l-4.53125 0q-0.03125 0.3125 -0.03125 0.515625q0.015625 0.1875 0.09375 0.375q0.15625 0.359375 0.53125 0.515625q0.390625 0.15625 1.125 0.15625q0.671875 0 1.125 -0.078125q0.453125 -0.078125 1.453125 -0.375l-0.359375 1.703125zm-1.546875 -4.09375l0.015625 -0.109375q0.171875 -0.8125 0.015625 -1.171875q-0.140625 -0.375 -0.640625 -0.375q-0.359375 0 -0.65625 0.203125q-0.296875 0.1875 -0.515625 0.5625q-0.21875 0.359375 -0.359375 0.890625l2.140625 0z" fill-rule="nonzero"/><path fill="#000000" fill-opacity="0.0" d="m11.417323 78.34908l228.56693 0l0 39.149605l-228.56693 0z" fill-rule="evenodd"/><path stroke="#000000" stroke-width="2.0" stroke-linejoin="round" stroke-linecap="butt" d="m11.417323 78.34908l228.56693 0l0 39.149605l-228.56693 0z" fill-rule="evenodd"/><path fill="#000000" d="m24.214197 102.411385l0.65625 -3.0625l-3.046875 0l0.203125 -0.953125l3.046875 0l0.65625 -3.0625l0.96875 0l-0.65625 3.0625l3.046875 0l-0.203125 0.953125l-3.046875 0l-0.65625 3.0625l-0.96875 0zm10.097933 0.3125l2.046875 -9.625l5.375 0l-0.21875 1.015625l-4.015625 0l-0.6875 3.234375l3.375 0l-0.203125 1.0l-3.375 0l-0.9375 4.375l-1.359375 0zm11.00502 -0.890625q-0.671875 0.515625 -1.296875 0.78125q-0.609375 0.265625 -1.140625 0.265625q-0.75 0 -1.296875 -0.484375q-0.53125 -0.5 -0.328125 -1.453125q0.21875 -1.03125 1.265625 -1.703125q1.046875 -0.6875 3.015625 -0.6875l0.296875 0l0.171875 -0.859375q0.109375 -0.5 0.03125 -0.734375q-0.078125 -0.234375 -0.34375 -0.359375q-0.265625 -0.140625 -0.703125 -0.140625q-1.0 0 -2.296875 0.625l0.21875 -1.0625q1.40625 -0.515625 2.546875 -0.515625q0.625 0 1.109375 0.203125q0.484375 0.1875 0.703125 0.625q0.21875 0.421875 0.015625 1.359375l-0.671875 3.203125q-0.109375 0.53125 -0.0625 0.71875q0.046875 0.1875 0.171875 0.28125q0.140625 0.09375 0.34375 0.09375q0.078125 0 0.234375 -0.015625l-0.046875 0.703125q-0.484375 0.203125 -1.0 0.203125q-0.359375 0 -0.640625 -0.21875q-0.28125 -0.234375 -0.296875 -0.828125zm-0.03125 -0.703125l0.390625 -1.828125l-0.40625 -0.015625q-1.015625 0 -1.78125 0.390625q-0.765625 0.390625 -0.90625 1.0625q-0.09375 0.46875 0.171875 0.78125q0.265625 0.3125 0.71875 0.3125q0.390625 0 0.84375 -0.171875q0.46875 -0.1875 0.96875 -0.53125zm8.516663 1.375q-1.3125 0.375 -2.21875 0.375q-0.953125 0 -1.640625 -0.5q-0.671875 -0.515625 -0.90625 -1.34375q-0.21875 -0.84375 0.015625 -1.890625q0.328125 -1.5625 1.40625 -2.59375q1.09375 -1.046875 2.90625 -1.046875q0.828125 0 1.796875 0.21875l-0.21875 1.078125q-1.015625 -0.3125 -1.703125 -0.3125q-1.078125 0 -1.796875 0.796875q-0.71875 0.796875 -0.953125 1.90625q-0.25 1.1875 0.203125 1.921875q0.453125 0.734375 1.4375 0.734375q0.890625 0 1.90625 -0.453125l-0.234375 1.109375zm5.029892 0.21875q-0.625 0.15625 -1.0625 0.15625q-0.953125 0 -1.40625 -0.546875q-0.4375 -0.546875 -0.21875 -1.5625l0.875 -4.15625l-0.875 0l0.203125 -0.953125l0.875 0l0.28125 -1.28125l1.296875 -0.125l-0.296875 1.40625l1.859375 0l-0.203125 0.953125l-1.859375 0l-0.828125 3.921875q-0.15625 0.75 0.0625 1.078125q0.21875 0.3125 0.84375 0.3125q0.25 0 0.640625 -0.09375l-0.1875 0.890625zm4.610031 0.15625q-1.015625 0 -1.671875 -0.40625q-0.65625 -0.40625 -0.90625 -1.296875q-0.25 -0.890625 -0.015625 -1.984375q0.21875 -1.03125 0.796875 -1.90625q0.59375 -0.890625 1.4375 -1.328125q0.859375 -0.453125 1.9218712 -0.453125q1.015625 0 1.671875 0.40625q0.65625 0.40625 0.90625 1.296875q0.25 0.890625 0.015625 1.984375q-0.21875 1.03125 -0.8125 1.921875q-0.59375 0.875 -1.4375 1.328125q-0.84375 0.4375 -1.9062462 0.4375zm0.203125 -0.953125q0.9531212 0 1.6249962 -0.703125q0.6875 -0.71875 0.96875 -2.03125q0.28125 -1.3125 -0.109375 -2.015625q-0.375 -0.71875 -1.328125 -0.71875q-0.9531212 0 -1.6249962 0.71875q-0.671875 0.703125 -0.953125 2.015625q-0.28125 1.3125 0.09375 2.03125q0.375 0.703125 1.328125 0.703125zm5.202526 0.796875l1.5 -7.0625l1.28125 0l-0.28125 1.328125q0.515625 -0.71875 1.171875 -1.09375q0.671875 -0.390625 1.359375 -0.390625q0.1875 0 0.40625 0.03125l-0.25 1.1875q-0.3125 -0.109375 -0.578125 -0.109375q-0.59375 0 -1.1875 0.375q-0.59375 0.359375 -1.15625 1.078125l-0.984375 4.65625l-1.28125 0zm5.312973 2.578125l1.703125 -2.578125l-1.234375 -7.0625l1.375 0l0.90625 5.3125l3.28125 -5.3125l1.21875 0l-5.90625 9.640625l-1.34375 0zm7.0727997 -2.578125l2.046875 -9.625l1.890625 0l1.09375 7.4375l4.3125 -7.4375l1.703125 0l-2.046875 9.625l-1.28125 0l1.65625 -7.828125l-4.171875 7.1875l-1.328125 0l-1.03125 -7.21875l-1.671875 7.859375l-1.171875 0zm16.745514 -0.234375q-1.375 0.390625 -2.296875 0.390625q-1.640625 0 -2.359375 -1.109375q-0.703125 -1.109375 -0.390625 -2.609375q0.21875 -1.0 0.828125 -1.890625q0.625 -0.90625 1.375 -1.34375q0.765625 -0.4375 1.671875 -0.4375q1.21875 0 1.765625 0.890625q0.546875 0.875 0.1875 2.625l-0.109375 0.390625l-4.453125 0q-0.078125 0.9375 0.109375 1.453125q0.1875 0.5 0.625 0.78125q0.4375 0.28125 1.203125 0.28125q0.390625 0 0.78125 -0.0625q0.40625 -0.078125 1.28125 -0.375l-0.21875 1.015625zm-3.515625 -4.0625l3.109375 0q0.234375 -1.0625 -0.09375 -1.515625q-0.3125 -0.453125 -0.953125 -0.453125q-0.734375 0 -1.25 0.5q-0.515625 0.484375 -0.8125 1.46875zm8.862991 4.296875q-0.625 0.15625 -1.0625 0.15625q-0.953125 0 -1.40625 -0.546875q-0.4375 -0.546875 -0.21875 -1.5625l0.875 -4.15625l-0.875 0l0.203125 -0.953125l0.875 0l0.28125 -1.28125l1.296875 -0.125l-0.296875 1.40625l1.859375 0l-0.203125 0.953125l-1.859375 0l-0.828125 3.921875q-0.15625 0.75 0.0625 1.078125q0.21875 0.3125 0.84375 0.3125q0.25 0 0.640625 -0.09375l-0.1875 0.890625zm1.8287811 0l2.1875 -10.28125l1.28125 0l-0.96875 4.546875q0.640625 -0.71875 1.359375 -1.09375q0.734375 -0.390625 1.4375 -0.390625q0.890625 0 1.328125 0.578125q0.453125 0.5625 0.234375 1.5625l-1.078125 5.078125l-1.28125 0l0.984375 -4.65625q0.15625 -0.734375 0.078125 -0.96875q-0.078125 -0.234375 -0.296875 -0.359375q-0.203125 -0.140625 -0.46875 -0.140625q-0.46875 0 -1.09375 0.296875q-0.609375 0.296875 -1.453125 1.25l-0.96875 4.578125l-1.28125 0zm11.052765 0.15625q-1.015625 0 -1.671875 -0.40625q-0.65625 -0.40625 -0.90625 -1.296875q-0.25 -0.890625 -0.015625 -1.984375q0.21875 -1.03125 0.796875 -1.90625q0.59375 -0.890625 1.4375 -1.328125q0.859375 -0.453125 1.921875 -0.453125q1.015625 0 1.671875 0.40625q0.65625 0.40625 0.90625 1.296875q0.25 0.890625 0.015625 1.984375q-0.21875 1.03125 -0.8125 1.921875q-0.59375 0.875 -1.4375 1.328125q-0.84375 0.4375 -1.90625 0.4375zm0.203125 -0.953125q0.953125 0 1.625 -0.703125q0.6875 -0.71875 0.96875 -2.03125q0.28125 -1.3125 -0.109375 -2.015625q-0.375 -0.71875 -1.328125 -0.71875q-0.953125 0 -1.625 0.71875q-0.671875 0.703125 -0.953125 2.015625q-0.28125 1.3125 0.09375 2.03125q0.375 0.703125 1.328125 0.703125zm9.73378 0.796875l0.28125 -1.328125q-0.546875 0.75 -1.21875 1.125q-0.65625 0.359375 -1.4375 0.359375q-1.3125 0 -1.828125 -0.953125q-0.515625 -0.953125 -0.1875 -2.515625q0.359375 -1.671875 1.40625 -2.78125q1.046875 -1.125 2.4375 -1.125q0.40625 0 0.765625 0.09375q0.359375 0.09375 0.609375 0.28125q0.25 0.171875 0.5 0.578125l0.8593826 -4.015625l1.296875 0l-2.1875076 10.28125l-1.296875 0zm1.140625 -5.375q-0.53125 -0.59375 -0.890625 -0.734375q-0.359375 -0.15625 -0.796875 -0.15625q-0.9375 0 -1.5625 0.796875q-0.609375 0.78125 -0.875 2.03125q-0.25 1.140625 0 1.8125q0.265625 0.65625 1.109375 0.65625q0.53125 0 1.109375 -0.28125q0.59375 -0.296875 1.21875 -0.875l0.6875 -3.25zm5.0761642 6.421875l-0.1875 0.875q-0.90625 -0.71875 -1.359375 -1.71875q-0.4375 -1.0 -0.546875 -2.140625q-0.09375 -1.140625 0.140625 -2.234375q0.234375 -1.09375 0.8125 -2.234375q0.59375 -1.140625 1.453125 -2.140625q0.875 -1.0 2.09375 -1.734375l-0.1875 0.890625q-0.90625 0.796875 -1.421875 1.546875q-0.515625 0.75 -0.890625 1.6875q-0.359375 0.9375 -0.578125 1.984375q-0.21875 1.03125 -0.25 1.984375q-0.03125 0.9375 0.15625 1.6875q0.203125 0.734375 0.765625 1.546875zm3.1779938 -10.4375l0.1875 -0.890625q0.90625 0.734375 1.34375 1.734375q0.453125 1.0 0.546875 2.140625q0.09375 1.140625 -0.140625 2.234375q-0.234375 1.09375 -0.8125 2.234375q-0.578125 1.140625 -1.453125 2.140625q-0.859375 1.0 -2.078125 1.71875l0.1875 -0.875q0.90625 -0.8125 1.40625 -1.546875q0.515625 -0.75 0.875 -1.6875q0.375 -0.953125 0.59375 -1.984375q0.21875 -1.03125 0.25 -1.96875q0.03125 -0.953125 -0.15625 -1.703125q-0.1875 -0.75 -0.75 -1.546875zm3.3186188 9.390625l0.265625 -1.28125l1.28125 0l-0.265625 1.28125l-1.28125 0zm1.234375 -5.78125l0.265625 -1.28125l1.28125 0l-0.265625 1.28125l-1.28125 0zm6.981079 5.78125l2.046875 -9.625l2.609375 0q1.40625 0 1.953125 0.28125q0.546875 0.265625 0.75 0.828125q0.203125 0.5625 0.03125 1.40625q-0.21875 0.984375 -0.8125 1.734375q-0.578125 0.734375 -1.625 1.140625q-1.03125 0.40625 -2.1875 0.40625l-0.609375 0l-0.8125 3.828125l-1.34375 0zm2.375 -4.859375l0.5625 0q1.359375 0 2.078125 -0.609375q0.71875 -0.625 0.90625 -1.546875q0.109375 -0.484375 -0.015625 -0.828125q-0.109375 -0.34375 -0.484375 -0.546875q-0.359375 -0.21875 -1.40625 -0.21875l-0.84375 0l-0.796875 3.75zm5.023163 4.859375l1.5 -7.0625l1.28125 0l-0.28125 1.328125q0.515625 -0.71875 1.171875 -1.09375q0.671875 -0.390625 1.359375 -0.390625q0.1875 0 0.40625 0.03125l-0.25 1.1875q-0.3125 -0.109375 -0.578125 -0.109375q-0.59375 0 -1.1875 0.375q-0.59375 0.359375 -1.15625 1.078125l-0.984375 4.65625l-1.28125 0zm8.234848 0.15625q-1.015625 0 -1.671875 -0.40625q-0.65625 -0.40625 -0.90625 -1.296875q-0.25 -0.890625 -0.015625 -1.984375q0.21875 -1.03125 0.796875 -1.90625q0.59375 -0.890625 1.4375 -1.328125q0.859375 -0.453125 1.921875 -0.453125q1.015625 0 1.671875 0.40625q0.65625 0.40625 0.90625 1.296875q0.25 0.890625 0.015625 1.984375q-0.21875 1.03125 -0.8125 1.921875q-0.59375 0.875 -1.4375 1.328125q-0.84375 0.4375 -1.90625 0.4375zm0.203125 -0.953125q0.953125 0 1.625 -0.703125q0.6875 -0.71875 0.96875 -2.03125q0.28125 -1.3125 -0.109375 -2.015625q-0.375 -0.71875 -1.328125 -0.71875q-0.953125 0 -1.625 0.71875q-0.671875 0.703125 -0.953125 2.015625q-0.28125 1.3125 0.09375 2.03125q0.375 0.703125 1.328125 0.703125zm9.73378 0.796875l0.28125 -1.328125q-0.546875 0.75 -1.21875 1.125q-0.65625 0.359375 -1.4375 0.359375q-1.3125 0 -1.828125 -0.953125q-0.515625 -0.953125 -0.1875 -2.515625q0.359375 -1.671875 1.40625 -2.78125q1.046875 -1.125 2.4375 -1.125q0.40625 0 0.765625 0.09375q0.359375 0.09375 0.609375 0.28125q0.25 0.171875 0.5 0.578125l0.859375 -4.015625l1.296875 0l-2.1875 10.28125l-1.296875 0zm1.140625 -5.375q-0.53125 -0.59375 -0.890625 -0.734375q-0.359375 -0.15625 -0.796875 -0.15625q-0.9375 0 -1.5625 0.796875q-0.609375 0.78125 -0.875 2.03125q-0.25 1.140625 0 1.8125q0.265625 0.65625 1.109375 0.65625q0.53125 0 1.109375 -0.28125q0.59375 -0.296875 1.21875 -0.875l0.6875 -3.25zm7.1386566 5.375l0.28125 -1.328125q-0.65625 0.71875 -1.375 1.109375q-0.71875 0.375 -1.421875 0.375q-0.890625 0 -1.34375 -0.5625q-0.4375 -0.5625 -0.21875 -1.578125l1.078125 -5.078125l1.28125 0l-0.984375 4.65625q-0.15625 0.734375 -0.078125 0.96875q0.078125 0.234375 0.28125 0.375q0.21875 0.125 0.484375 0.125q0.46875 0 1.078125 -0.296875q0.625 -0.296875 1.46875 -1.25l0.96875 -4.578125l1.28125 0l-1.5 7.0625l-1.28125 0zm8.802765 -0.21875q-1.3125 0.375 -2.21875 0.375q-0.953125 0 -1.640625 -0.5q-0.671875 -0.515625 -0.90625 -1.34375q-0.21875 -0.84375 0.015625 -1.890625q0.328125 -1.5625 1.40625 -2.59375q1.09375 -1.046875 2.90625 -1.046875q0.828125 0 1.796875 0.21875l-0.21875 1.078125q-1.015625 -0.3125 -1.703125 -0.3125q-1.078125 0 -1.796875 0.796875q-0.71875 0.796875 -0.953125 1.90625q-0.25 1.1875 0.203125 1.921875q0.453125 0.734375 1.4375 0.734375q0.890625 0 1.90625 -0.453125l-0.234375 1.109375zm5.029892 0.21875q-0.625 0.15625 -1.0625 0.15625q-0.953125 0 -1.40625 -0.546875q-0.4375 -0.546875 -0.21875 -1.5625l0.875 -4.15625l-0.875 0l0.203125 -0.953125l0.875 0l0.28125 -1.28125l1.296875 -0.125l-0.296875 1.40625l1.859375 0l-0.203125 0.953125l-1.859375 0l-0.828125 3.921875q-0.15625 0.75 0.0625 1.078125q0.21875 0.3125 0.84375 0.3125q0.25 0 0.640625 -0.09375l-0.1875 0.890625zm1.7975311 0l2.046875 -9.625l2.484375 0q1.640625 0 2.1875 0.625q0.546875 0.625 0.359375 1.484375q-0.140625 0.703125 -0.75 1.40625q-0.609375 0.6875 -1.765625 1.09375q0.875 0.28125 1.25 0.65625q0.390625 0.359375 0.53125 0.875q0.140625 0.515625 0.03125 1.078125q-0.140625 0.671875 -0.609375 1.25q-0.46875 0.578125 -1.09375 0.875q-0.625 0.28125 -1.84375 0.28125l-2.828125 0zm1.5625 -1.015625l0.28125 0q1.453125 0 1.90625 -0.15625q0.46875 -0.171875 0.78125 -0.53125q0.328125 -0.375 0.421875 -0.828125q0.1875 -0.84375 -0.453125 -1.421875q-0.640625 -0.578125 -1.796875 -0.578125l-0.390625 0l-0.75 3.515625zm0.9375 -4.390625l0.4375 0q1.1875 0 1.84375 -0.5q0.65625 -0.515625 0.828125 -1.296875q0.140625 -0.6875 -0.28125 -1.046875q-0.40625 -0.359375 -1.625 -0.359375l-0.53125 0l-0.671875 3.203125zm9.02565 4.515625q-0.671875 0.515625 -1.296875 0.78125q-0.609375 0.265625 -1.140625 0.265625q-0.75 0 -1.296875 -0.484375q-0.53125 -0.5 -0.328125 -1.453125q0.21875 -1.03125 1.265625 -1.703125q1.046875 -0.6875 3.015625 -0.6875l0.296875 0l0.171875 -0.859375q0.109375 -0.5 0.03125 -0.734375q-0.078125 -0.234375 -0.34375 -0.359375q-0.265625 -0.140625 -0.703125 -0.140625q-1.0 0 -2.296875 0.625l0.21875 -1.0625q1.40625 -0.515625 2.546875 -0.515625q0.625 0 1.109375 0.203125q0.484375 0.1875 0.703125 0.625q0.21875 0.421875 0.015625 1.359375l-0.671875 3.203125q-0.109375 0.53125 -0.0625 0.71875q0.046875 0.1875 0.171875 0.28125q0.140625 0.09375 0.34375 0.09375q0.078125 0 0.234375 -0.015625l-0.046875 0.703125q-0.484375 0.203125 -1.0 0.203125q-0.359375 0 -0.640625 -0.21875q-0.28125 -0.234375 -0.296875 -0.828125zm-0.03125 -0.703125l0.390625 -1.828125l-0.40625 -0.015625q-1.015625 0 -1.78125 0.390625q-0.765625 0.390625 -0.90625 1.0625q-0.09375 0.46875 0.171875 0.78125q0.265625 0.3125 0.71875 0.3125q0.390625 0 0.84375 -0.171875q0.46875 -0.1875 0.96875 -0.53125zm3.3447876 1.34375l0.25 -1.171875q1.140625 0.625 2.0625 0.625q0.546875 0 0.96875 -0.296875q0.4375 -0.3125 0.53125 -0.75q0.0625 -0.28125 -0.046875 -0.546875q-0.140625 -0.265625 -0.734375 -0.546875l-0.6875 -0.3125q-0.78125 -0.359375 -1.078125 -0.84375q-0.296875 -0.46875 -0.15625 -1.140625q0.1875 -0.859375 0.921875 -1.421875q0.734375 -0.5625 1.9375 -0.5625q0.59375 0 1.4375 0.15625l0.25 0.046875l-0.21875 1.078125q-1.0 -0.328125 -1.640625 -0.328125q-0.625 0 -0.984375 0.265625q-0.359375 0.265625 -0.4375 0.640625q-0.0625 0.28125 0.09375 0.515625q0.15625 0.234375 0.640625 0.453125l0.5625 0.265625q1.125 0.53125 1.359375 1.046875q0.21875 0.5 0.09375 1.109375q-0.125 0.578125 -0.546875 1.078125q-0.421875 0.5 -1.09375 0.78125q-0.671875 0.265625 -1.421875 0.265625q-0.875 0 -2.0625 -0.40625zm12.247345 0.015625q-1.375 0.390625 -2.296875 0.390625q-1.640625 0 -2.359375 -1.109375q-0.703125 -1.109375 -0.390625 -2.609375q0.21875 -1.0 0.828125 -1.890625q0.625 -0.90625 1.375 -1.34375q0.765625 -0.4375 1.671875 -0.4375q1.21875 0 1.765625 0.890625q0.546875 0.875 0.1875 2.625l-0.109375 0.390625l-4.453125 0q-0.078125 0.9375 0.109375 1.453125q0.1875 0.5 0.625 0.78125q0.4375 0.28125 1.203125 0.28125q0.390625 0 0.78125 -0.0625q0.40625 -0.078125 1.28125 -0.375l-0.21875 1.015625zm-3.515625 -4.0625l3.109375 0q0.234375 -1.0625 -0.09375 -1.515625q-0.3125 -0.453125 -0.953125 -0.453125q-0.734375 0 -1.25 0.5q-0.515625 0.484375 -0.8125 1.46875z" fill-rule="nonzero"/><path fill="#000000" fill-opacity="0.0" d="m11.417323 54.475067l228.56693 0l0 23.874016l-228.56693 0z" fill-rule="evenodd"/><path stroke="#000000" stroke-width="2.0" stroke-linejoin="round" stroke-linecap="butt" d="m11.417323 54.475067l228.56693 0l0 23.874016l-228.56693 0z" fill-rule="evenodd"/><path fill="#000000" d="m21.714197 71.212074l0 -1.609375l1.609375 0l0 1.609375l-1.609375 0zm4.217102 0l0 -1.609375l1.609375 0l0 1.609375l-1.609375 0zm4.217102 0l0 -1.609375l1.609375 0l0 1.609375l-1.609375 0z" fill-rule="nonzero"/><path fill="#000000" fill-opacity="0.0" d="m301.01837 9.309711l162.61417 0l0 29.259842l-162.61417 0z" fill-rule="evenodd"/><path stroke="#000000" stroke-width="3.0" stroke-linejoin="round" stroke-linecap="butt" d="m301.01837 9.309711l162.61417 0l0 29.259842l-162.61417 0z" fill-rule="evenodd"/><path fill="#000000" d="m347.23752 21.692757q-0.171875 0.78125 -0.546875 1.390625q-0.359375 0.609375 -0.9375 1.046875q-0.578125 0.4375 -1.328125 0.65625q-0.75 0.21875 -1.625 0.21875l-1.03125 0l-0.796875 3.734375l-2.40625 0l2.046875 -9.640625l3.9375 0q0.703125 0 1.109375 0.0625q0.421875 0.046875 0.6875 0.171875q0.28125 0.125 0.515625 0.328125q0.671875 0.640625 0.375 2.03125zm-2.640625 0.21875q0.25 -1.203125 -1.25 -1.203125l-0.671875 0l-0.59375 2.84375l0.3125 0q0.875 0 1.453125 -0.421875q0.578125 -0.4375 0.75 -1.21875zm9.0408325 1.71875q-0.28125 -0.125 -0.453125 -0.15625q-0.171875 -0.03125 -0.5 -0.03125q-0.5625 0 -1.0 0.21875q-0.4375 0.203125 -0.859375 0.671875l-0.9375 4.40625l-2.5625 0l1.53125 -7.21875l2.5625 0l-0.28125 1.359375l0.03125 0q0.171875 -0.34375 0.546875 -0.671875q0.375 -0.328125 0.875 -0.578125q0.5625 -0.28125 1.21875 -0.28125q0.1875 0 0.296875 0.046875l-0.46875 2.234375zm8.5078125 1.5q-0.1875 0.875 -0.609375 1.578125q-0.421875 0.6875 -1.046875 1.1875q-0.625 0.5 -1.421875 0.75q-0.78125 0.25 -1.6875 0.25q-0.9375 0 -1.640625 -0.25q-0.6875 -0.25 -1.125 -0.734375q-0.4375 -0.5 -0.5625 -1.203125q-0.125 -0.71875 0.0625 -1.59375q0.1875 -0.859375 0.609375 -1.5625q0.421875 -0.71875 1.046875 -1.203125q0.640625 -0.484375 1.421875 -0.734375q0.796875 -0.265625 1.734375 -0.265625q0.953125 0 1.640625 0.265625q0.6875 0.25 1.09375 0.734375q0.421875 0.484375 0.546875 1.1875q0.125 0.6875 -0.0625 1.59375zm-2.734375 -0.015625q0.234375 -1.046875 0 -1.671875q-0.21875 -0.640625 -0.796875 -0.640625q-0.375 0 -0.71875 0.296875q-0.34375 0.28125 -0.625 0.828125q-0.28125 0.53125 -0.421875 1.203125q-0.140625 0.65625 -0.09375 1.203125q0.046875 0.53125 0.265625 0.828125q0.21875 0.296875 0.59375 0.296875q0.578125 0 1.078125 -0.640625q0.5 -0.65625 0.71875 -1.703125zm10.5876465 3.625l-2.5625 0l0.28125 -1.359375l-0.015625 0q-0.40625 0.703125 -1.109375 1.109375q-0.703125 0.40625 -1.5 0.40625q-0.859375 0 -1.40625 -0.421875q-0.53125 -0.4375 -0.6875 -1.25q-0.15625 -0.828125 0.078125 -1.921875q0.25 -1.21875 0.8125 -2.109375q0.578125 -0.890625 1.375 -1.359375q0.8125 -0.484375 1.75 -0.484375q0.59375 0 0.96875 0.171875q0.390625 0.171875 0.84375 0.625l0.015625 0l0.125 -0.625l0.65625 -3.0625l2.5625 0l-2.1875 10.28125zm-1.96875 -2.765625l0.515625 -2.421875q-0.34375 -0.671875 -0.96875 -0.671875q-0.359375 0 -0.71875 0.28125q-0.34375 0.28125 -0.609375 0.8125q-0.265625 0.515625 -0.40625 1.140625q-0.1875 0.890625 0.015625 1.390625q0.21875 0.5 0.765625 0.5q0.671875 0 1.40625 -1.03125zm11.211212 2.765625l-2.5625 0l0.28125 -1.359375l-0.03125 0q-0.46875 0.71875 -1.1875 1.125q-0.703125 0.390625 -1.484375 0.390625q-0.875 0 -1.359375 -0.546875q-0.265625 -0.3125 -0.328125 -0.734375q-0.0625 -0.421875 0.078125 -1.078125l1.0625 -5.015625l2.5625 0l-0.953125 4.484375q-0.0625 0.34375 -0.046875 0.5625q0.015625 0.203125 0.125 0.3125q0.125 0.09375 0.34375 0.09375q0.34375 0 0.703125 -0.25q0.359375 -0.25 0.828125 -0.796875l0.9375 -4.40625l2.5625 0l-1.53125 7.21875zm7.98468 -0.09375q-1.28125 0.25 -2.40625 0.25q-0.515625 0 -0.9375 -0.046875q-0.421875 -0.046875 -0.765625 -0.15625q-0.328125 -0.125 -0.5625 -0.28125q-0.234375 -0.171875 -0.46875 -0.4375q-0.421875 -0.5 -0.546875 -1.234375q-0.109375 -0.734375 0.078125 -1.578125q0.234375 -1.140625 0.90625 -2.015625q0.6875 -0.875 1.71875 -1.328125q1.03125 -0.46875 2.265625 -0.46875q0.96875 0 2.15625 0.328125l-0.359375 1.703125q-1.125 -0.484375 -1.796875 -0.484375q-0.5 0 -0.953125 0.28125q-0.4375 0.265625 -0.75 0.765625q-0.296875 0.484375 -0.4375 1.140625q-0.21875 0.984375 0.171875 1.609375q0.390625 0.625 1.234375 0.625q0.71875 0 1.8125 -0.328125l-0.359375 1.65625zm5.8408813 0.03125q-0.5 0.140625 -0.78125 0.171875q-0.28125 0.046875 -0.703125 0.046875q-1.109375 0 -1.703125 -0.40625q-0.421875 -0.3125 -0.515625 -0.765625q-0.078125 -0.46875 0.125 -1.40625l0.71875 -3.359375l-0.71875 0l0.296875 -1.4375l0.71875 0l0.25 -1.140625l2.640625 -0.3125l-0.3125 1.453125l1.359375 0l-0.296875 1.4375l-1.359375 0l-0.65625 3.09375q-0.109375 0.46875 -0.109375 0.65625q0 0.1875 0.125 0.359375q0.1875 0.234375 0.65625 0.234375q0.234375 0 0.578125 -0.109375l-0.3125 1.484375zm9.311554 -2.3125q-0.109375 0.515625 -0.4375 1.0q-0.328125 0.46875 -0.78125 0.796875q-0.46875 0.3125 -1.0 0.453125q-0.515625 0.125 -1.375 0.125l-4.140625 0l2.046875 -9.640625l3.875 0q0.859375 0 1.3125 0.125q0.453125 0.109375 0.75 0.390625q0.1875 0.203125 0.3125 0.484375q0.125 0.265625 0.15625 0.5625q0.03125 0.296875 -0.03125 0.59375q-0.0625 0.296875 -0.21875 0.59375q-0.140625 0.296875 -0.359375 0.53125q-0.203125 0.234375 -0.5 0.453125q-0.4375 0.3125 -0.796875 0.46875q-0.359375 0.15625 -1.234375 0.40625q0.4375 0.078125 0.765625 0.1875q0.34375 0.09375 0.546875 0.21875q0.21875 0.109375 0.453125 0.296875q0.453125 0.359375 0.609375 0.859375q0.171875 0.5 0.046875 1.09375zm-1.921875 -4.75q0.0625 -0.28125 -0.015625 -0.484375q-0.078125 -0.203125 -0.28125 -0.28125q-0.15625 -0.0625 -0.34375 -0.078125q-0.1875 -0.015625 -0.859375 -0.015625l-0.28125 0l-0.46875 2.203125l0.484375 0q0.640625 0 1.140625 -0.375q0.5 -0.390625 0.625 -0.96875zm-0.625 4.453125q0.078125 -0.328125 -0.015625 -0.609375q-0.078125 -0.28125 -0.296875 -0.5q-0.21875 -0.21875 -0.546875 -0.3125q-0.328125 -0.109375 -0.734375 -0.109375l-0.375 0l-0.546875 2.5625l0.515625 0q0.625 0 0.953125 -0.0625q0.40625 -0.0625 0.6875 -0.328125q0.28125 -0.265625 0.359375 -0.640625zm10.3532715 2.671875q-0.75 0.15625 -1.3125 0.15625q-0.453125 0 -0.796875 -0.078125q-0.328125 -0.078125 -0.5 -0.203125q-0.1875 -0.15625 -0.328125 -0.515625l-0.171875 0q-0.515625 0.453125 -0.953125 0.625q-0.4375 0.171875 -1.015625 0.171875q-0.671875 0 -1.15625 -0.265625q-0.46875 -0.28125 -0.65625 -0.78125q-0.171875 -0.5 -0.03125 -1.140625q0.234375 -1.09375 1.15625 -1.75q0.59375 -0.421875 1.28125 -0.578125q0.703125 -0.171875 1.84375 -0.171875l0.53125 0l0.09375 -0.453125q0.203125 -1.0 -1.078125 -1.0q-0.578125 0 -1.34375 0.203125q-0.5625 0.15625 -1.15625 0.453125l0.34375 -1.609375q0.109375 -0.03125 0.203125 -0.0625q0.109375 -0.03125 0.1875 -0.046875q1.15625 -0.34375 2.421875 -0.34375q3.34375 0 2.859375 2.265625l-0.671875 3.125q-0.125 0.59375 0.28125 0.59375q0.078125 0 0.28125 -0.03125l-0.3125 1.4375zm-2.65625 -2.015625l0.25 -1.15625l-0.515625 0q-1.359375 0 -1.5625 0.953125q-0.078125 0.359375 0.078125 0.59375q0.171875 0.21875 0.53125 0.21875q0.5625 0 1.21875 -0.609375zm11.179047 -0.21875q-0.109375 0.515625 -0.453125 0.96875q-0.328125 0.453125 -0.84375 0.765625q-0.5 0.3125 -1.1875 0.484375q-0.671875 0.171875 -1.453125 0.171875q-0.71875 0 -1.3125 -0.0625q-0.875 -0.09375 -1.65625 -0.3125l0.34375 -1.640625q0.125 0.0625 0.21875 0.09375q0.109375 0.03125 0.234375 0.09375q1.171875 0.390625 2.078125 0.390625q1.140625 0 1.265625 -0.578125q0.03125 -0.15625 -0.015625 -0.265625q-0.15625 -0.21875 -0.78125 -0.453125l-0.484375 -0.203125q-1.390625 -0.578125 -1.734375 -1.265625q-0.09375 -0.1875 -0.109375 -0.484375q-0.015625 -0.3125 0.046875 -0.578125q0.21875 -1.09375 1.234375 -1.6875q1.03125 -0.59375 2.703125 -0.59375q1.15625 0 2.359375 0.28125l-0.359375 1.640625q-0.171875 -0.0625 -0.375 -0.15625q-0.375 -0.125 -0.84375 -0.21875q-0.46875 -0.09375 -0.8125 -0.09375q-1.171875 0 -1.296875 0.578125q-0.046875 0.21875 0.109375 0.359375q0.15625 0.140625 0.59375 0.3125l0.46875 0.171875q1.34375 0.484375 1.78125 0.984375q0.453125 0.484375 0.28125 1.296875zm7.947296 2.0q-0.25 0.0625 -0.453125 0.109375q-1.359375 0.296875 -2.578125 0.296875q-0.890625 0 -1.609375 -0.21875q-0.703125 -0.234375 -1.109375 -0.625q-0.5 -0.515625 -0.6875 -1.34375q-0.1875 -0.84375 0 -1.703125q0.171875 -0.8125 0.578125 -1.5q0.421875 -0.6875 1.03125 -1.171875q0.609375 -0.484375 1.375 -0.734375q0.765625 -0.265625 1.625 -0.265625q0.828125 0 1.359375 0.203125q0.53125 0.203125 0.859375 0.625q0.4375 0.59375 0.46875 1.328125q0.015625 0.359375 0 0.640625q-0.015625 0.265625 -0.078125 0.640625q-0.0625 0.359375 -0.1875 0.90625l-4.53125 0q-0.03125 0.3125 -0.03125 0.515625q0.015625 0.1875 0.09375 0.375q0.15625 0.359375 0.53125 0.515625q0.390625 0.15625 1.125 0.15625q0.671875 0 1.125 -0.078125q0.453125 -0.078125 1.453125 -0.375l-0.359375 1.703125zm-1.546875 -4.09375l0.015625 -0.109375q0.171875 -0.8125 0.015625 -1.171875q-0.140625 -0.375 -0.640625 -0.375q-0.359375 0 -0.65625 0.203125q-0.296875 0.1875 -0.515625 0.5625q-0.21875 0.359375 -0.359375 0.890625l2.140625 0z" fill-rule="nonzero"/><path fill="#000000" fill-opacity="0.0" d="m301.01837 62.44357l162.61417 0l0 23.87402l-162.61417 0z" fill-rule="evenodd"/><path stroke="#000000" stroke-width="2.0" stroke-linejoin="round" stroke-linecap="butt" d="m301.01837 62.44357l162.61417 0l0 23.87402l-162.61417 0z" fill-rule="evenodd"/><path fill="#000000" fill-opacity="0.0" d="m301.01837 38.569553l162.61417 0l0 23.874016l-162.61417 0z" fill-rule="evenodd"/><path stroke="#000000" stroke-width="2.0" stroke-linejoin="round" stroke-linecap="butt" d="m301.01837 38.569553l162.61417 0l0 23.874016l-162.61417 0z" fill-rule="evenodd"/><path fill="#000000" d="m311.31525 55.30656l0 -1.609375l1.609375 0l0 1.609375l-1.609375 0zm4.217102 0l0 -1.609375l1.609375 0l0 1.609375l-1.609375 0zm4.217102 0l0 -1.609375l1.609375 0l0 1.609375l-1.609375 0z" fill-rule="nonzero"/><path fill="#000000" fill-opacity="0.0" d="m125.70079 188.82152l0 -71.30708" fill-rule="evenodd"/><path stroke="#000000" stroke-width="2.0" stroke-linejoin="round" stroke-linecap="butt" d="m125.70079 188.82152l0 -59.307083" fill-rule="evenodd"/><path stroke="#000000" stroke-width="2.0" stroke-linecap="butt" d="m129.00426 129.51443l-3.3034668 -9.076195l-3.3034668 9.076195z" fill-rule="evenodd"/><path fill="#000000" fill-opacity="0.0" d="m301.01837 203.45145l-61.039368 0" fill-rule="evenodd"/><path stroke="#000000" stroke-width="2.0" stroke-linejoin="round" stroke-linecap="butt" stroke-dasharray="8.0,6.0" d="m294.1642 203.45145l-54.18521 0" fill-rule="evenodd"/><path fill="#000000" stroke="#000000" stroke-width="2.0" stroke-linecap="butt" d="m294.16418 203.45145l-2.2491455 2.2491608l6.179535 -2.2491608l-6.179535 -2.249176z" fill-rule="evenodd"/><path fill="#000000" fill-opacity="0.0" d="m382.32547 188.82152l0 -102.48818" fill-rule="evenodd"/><path stroke="#000000" stroke-width="2.0" stroke-linejoin="round" stroke-linecap="butt" d="m382.32547 188.82152l0 -90.48818" fill-rule="evenodd"/><path stroke="#000000" stroke-width="2.0" stroke-linecap="butt" d="m385.62894 98.333336l-3.3034668 -9.076195l-3.3034668 9.076195z" fill-rule="evenodd"/></g></svg>