<svg version="1.1" viewBox="0.0 0.0 604.1653543307086 178.29921259842519" fill="none" stroke="none" stroke-linecap="square" stroke-miterlimit="10" xmlns:xlink="http://www.w3.org/1999/xlink" xmlns="http://www.w3.org/2000/svg"><clipPath id="p.0"><path d="m0 0l604.16534 0l0 178.29921l-604.16534 0l0 -178.29921z" clip-rule="nonzero"/></clipPath><g clip-path="url(#p.0)"><path fill="#000000" fill-opacity="0.0" d="m0 0l604.16534 0l0 178.29921l-604.16534 0z" fill-rule="evenodd"/><path fill="#000000" fill-opacity="0.0" d="m84.93438 34.649605l109.41732 0l0 34.015747l-109.41732 0z" fill-rule="evenodd"/><path stroke="#000000" stroke-width="3.0" stroke-linejoin="round" stroke-linecap="butt" d="m84.93438 34.649605l109.41732 0l0 34.015747l-109.41732 0z" fill-rule="evenodd"/><path fill="#000000" d="m118.445366 52.988728l1.40625 0q0.78125 0 1.40625 -0.21875q0.625 -0.234375 1.0625 -0.625q0.4375 -0.390625 0.671875 -0.921875q0.25 -0.546875 0.25 -1.1875q0 -0.6875 -0.25 -1.234375q-0.234375 -0.5625 -0.671875 -0.96875q-0.4375 -0.40625 -1.0625 -0.625q-0.625 -0.21875 -1.40625 -0.21875l-3.234375 0l0 9.46875l1.828125 0l0 -3.46875zm0 -1.484375l0 -3.03125l1.40625 0q0.390625 0 0.671875 0.125q0.296875 0.109375 0.5 0.328125q0.1875 0.21875 0.28125 0.515625q0.09375 0.28125 0.09375 0.609375q0 0.28125 -0.09375 0.546875q-0.09375 0.265625 -0.28125 0.46875q-0.203125 0.203125 -0.5 0.328125q-0.28125 0.109375 -0.671875 0.109375l-1.40625 0zm10.513802 4.953125l1.84375 0l0 -0.109375q-0.140625 -0.265625 -0.21875 -0.640625q-0.0625 -0.375 -0.0625 -0.9375l0 -3.015625q0 -0.609375 -0.234375 -1.078125q-0.21875 -0.46875 -0.625 -0.765625q-0.40625 -0.3125 -0.953125 -0.46875q-0.546875 -0.15625 -1.1874924 -0.15625q-0.71875 0 -1.265625 0.1875q-0.546875 0.171875 -0.921875 0.46875q-0.390625 0.3125 -0.59375 0.71875q-0.1875 0.40625 -0.1875 0.84375l1.8125 0q0 -0.1875 0.046875 -0.34375q0.0625 -0.15625 0.171875 -0.265625q0.140625 -0.125 0.34375 -0.1875q0.203125 -0.0625 0.5 -0.0625q0.3125 0 0.5625 0.078125q0.24999237 0.078125 0.40624237 0.234375q0.15625 0.140625 0.234375 0.34375q0.078125 0.1875 0.078125 0.4375l0 0.421875l-1.0156174 0q-0.765625 0 -1.375 0.140625q-0.609375 0.140625 -1.015625 0.40625q-0.453125 0.28125 -0.6875 0.734375q-0.21875 0.453125 -0.21875 1.046875q0 0.453125 0.171875 0.84375q0.1875 0.390625 0.515625 0.65625q0.328125 0.28125 0.78125 0.4375q0.453125 0.15625 0.984375 0.15625q0.34375 0 0.625 -0.0625q0.28125 -0.0625 0.5312424 -0.171875q0.234375 -0.09375 0.421875 -0.234375q0.203125 -0.15625 0.34375 -0.3125q0.03125 0.1875 0.078125 0.359375q0.046875 0.171875 0.109375 0.296875zm-1.7187424 -1.265625q-0.25 0 -0.453125 -0.0625q-0.1875 -0.0625 -0.3125 -0.171875q-0.140625 -0.109375 -0.203125 -0.265625q-0.0625 -0.15625 -0.0625 -0.34375q0 -0.25 0.078125 -0.453125q0.09375 -0.203125 0.28125 -0.359375q0.203125 -0.140625 0.5 -0.21875q0.296875 -0.078125 0.71875 -0.078125l0.9218674 0l0 1.203125q-0.078125 0.140625 -0.21875 0.28125q-0.125 0.125 -0.328125 0.234375q-0.18749237 0.09375 -0.42186737 0.171875q-0.234375 0.0625 -0.5 0.0625zm10.373177 -5.90625q-0.703125 0 -1.3125 0.34375q-0.59375 0.34375 -1.015625 0.9375l-0.015625 -0.15625l-0.078125 -1.0l-1.671875 0l0 7.046875l1.796875 0l0 -4.234375q0.125 -0.296875 0.3125 -0.515625q0.1875 -0.21875 0.453125 -0.359375q0.234375 -0.125 0.515625 -0.1875q0.28125 -0.0625 0.625 -0.0625q0.34375 0 0.71875 0.046875q0.375 0.03125 0.734375 0.125l0.265625 -1.8125q-0.21875 -0.0625 -0.5625 -0.109375q-0.34375 -0.0625 -0.765625 -0.0625zm6.357559 7.296875q1.03125 0 1.78125 -0.390625q0.75 -0.390625 1.09375 -0.890625l-0.90625 -0.96875q-0.3125 0.40625 -0.8125 0.609375q-0.5 0.1875 -1.046875 0.1875q-0.375 0 -0.703125 -0.109375q-0.3125 -0.125 -0.546875 -0.328125q-0.25 -0.21875 -0.390625 -0.46875q-0.140625 -0.265625 -0.234375 -0.6875l0 -0.015625l4.78125 0l0 -0.765625q0 -0.78125 -0.21875 -1.421875q-0.21875 -0.640625 -0.625 -1.09375q-0.421875 -0.453125 -1.015625 -0.703125q-0.59375 -0.25 -1.359375 -0.25q-0.734375 0 -1.359375 0.265625q-0.625 0.265625 -1.078125 0.75q-0.453125 0.484375 -0.703125 1.15625q-0.25 0.65625 -0.25 1.46875l0 0.25q0 0.71875 0.25 1.34375q0.265625 0.609375 0.734375 1.078125q0.46875 0.453125 1.125 0.71875q0.671875 0.265625 1.484375 0.265625zm-0.203125 -5.828125q0.34375 0 0.59375 0.109375q0.265625 0.09375 0.453125 0.28125q0.1875 0.1875 0.28125 0.453125q0.109375 0.25 0.109375 0.53125l0 0.140625l-2.96875 0q0.0625 -0.34375 0.1875 -0.625q0.140625 -0.28125 0.34375 -0.484375q0.1875 -0.203125 0.4375 -0.296875q0.25 -0.109375 0.5625 -0.109375zm4.795059 5.703125l1.8125153 0l0 -5.0q0.09375 -0.140625 0.203125 -0.25q0.109375 -0.125 0.25 -0.21875q0.15625 -0.109375 0.375 -0.171875q0.21875 -0.0625 0.484375 -0.0625q0.3125 0 0.5625 0.0625q0.25 0.0625 0.421875 0.21875q0.171875 0.15625 0.265625 0.4375q0.09375 0.265625 0.09375 0.671875l0 4.3125l1.8125 0l0 -4.328125q0 -0.78125 -0.1875 -1.3125q-0.171875 -0.53125 -0.484375 -0.875q-0.328125 -0.34375 -0.78125 -0.5q-0.4375 -0.15625 -0.96875 -0.15625q-0.421875 0 -0.796875 0.125q-0.359375 0.109375 -0.671875 0.328125q-0.1875 0.125 -0.34375 0.296875q-0.15625 0.15625 -0.296875 0.359375l-0.109375 -0.984375l-1.6406403 0l0 7.046875zm11.310699 -8.765625l-1.8125 0l0 1.71875l-1.609375 0l0 1.34375l1.609375 0l0 3.203125q0 0.6875 0.1875 1.1875q0.1875 0.5 0.515625 0.8125q0.34375 0.328125 0.8125 0.484375q0.46875 0.15625 1.046875 0.15625q0.296875 0 0.609375 -0.03125q0.3125 -0.03125 0.59375 -0.078125q0.28125 -0.0625 0.53125 -0.140625q0.265625 -0.078125 0.453125 -0.1875l-0.171875 -1.25q-0.125 0.03125 -0.296875 0.078125q-0.171875 0.03125 -0.375 0.046875q-0.203125 0.03125 -0.421875 0.0625q-0.21875 0.015625 -0.421875 0.015625q-0.28125 0 -0.515625 -0.0625q-0.234375 -0.078125 -0.390625 -0.234375q-0.171875 -0.140625 -0.265625 -0.390625q-0.078125 -0.265625 -0.078125 -0.65625l0 -3.015625l2.625 0l0 -1.34375l-2.625 0l0 -1.71875z" fill-rule="nonzero"/><path fill="#000000" fill-opacity="0.0" d="m158.47244 137.35039l109.41733 0l0 34.015747l-109.41733 0z" fill-rule="evenodd"/><path stroke="#000000" stroke-width="3.0" stroke-linejoin="round" stroke-linecap="butt" d="m158.47244 137.35039l109.41733 0l0 34.015747l-109.41733 0z" fill-rule="evenodd"/><path fill="#000000" d="m200.62314 156.18951l-1.828125 0q-0.03125 0.4375 -0.15625 0.75q-0.109375 0.296875 -0.3125 0.484375q-0.203125 0.203125 -0.5 0.296875q-0.28125 0.078125 -0.625 0.078125q-0.28125 0 -0.5 -0.0625q-0.203125 -0.0625 -0.390625 -0.1875q-0.15625 -0.109375 -0.28125 -0.28125q-0.125 -0.1875 -0.21875 -0.40625q-0.125 -0.34375 -0.1875 -0.78125q-0.0625 -0.453125 -0.0625 -1.015625l0 -1.28125q0 -0.421875 0.03125 -0.78125q0.046875 -0.359375 0.125 -0.65625q0.109375 -0.390625 0.296875 -0.671875q0.1875 -0.296875 0.453125 -0.453125q0.15625 -0.09375 0.34375 -0.140625q0.1875 -0.046875 0.390625 -0.046875q0.40625 0 0.6875 0.109375q0.296875 0.109375 0.5 0.3125q0.1875 0.21875 0.28125 0.546875q0.109375 0.3125 0.125 0.734375l1.828125 0q-0.0625 -0.75 -0.3125 -1.328125q-0.25 -0.59375 -0.671875 -1.015625q-0.4375 -0.40625 -1.046875 -0.625q-0.609375 -0.21875 -1.390625 -0.21875q-0.515625 0 -0.984375 0.140625q-0.453125 0.125 -0.84375 0.375q-0.421875 0.28125 -0.765625 0.71875q-0.328125 0.421875 -0.546875 0.953125q-0.171875 0.453125 -0.265625 0.96875q-0.09375 0.515625 -0.09375 1.078125l0 1.28125q0 0.609375 0.09375 1.15625q0.109375 0.546875 0.296875 1.0q0.1875 0.453125 0.46875 0.84375q0.296875 0.375 0.65625 0.640625q0.390625 0.28125 0.890625 0.4375q0.5 0.15625 1.09375 0.15625q0.734375 0 1.34375 -0.21875q0.609375 -0.21875 1.0625 -0.625q0.4375 -0.40625 0.703125 -0.96875q0.265625 -0.578125 0.3125 -1.296875zm3.2950592 -3.109375l0 -3.921875l-1.8125 0l0 10.0l1.8125 0l0 -5.078125q0.09375 -0.140625 0.21875 -0.25q0.125 -0.109375 0.28125 -0.1875q0.171875 -0.09375 0.375 -0.140625q0.21875 -0.046875 0.453125 -0.046875q0.3125 0 0.5625 0.09375q0.25 0.078125 0.421875 0.234375q0.171875 0.171875 0.265625 0.453125q0.109375 0.265625 0.109375 0.640625l0 4.28125l1.796875 0l0 -4.265625q0 -0.765625 -0.1875 -1.3125q-0.171875 -0.5625 -0.515625 -0.90625q-0.328125 -0.359375 -0.796875 -0.515625q-0.453125 -0.171875 -1.0 -0.171875q-0.390625 0 -0.734375 0.109375q-0.328125 0.109375 -0.609375 0.3125q-0.171875 0.125 -0.34375 0.296875q-0.171875 0.171875 -0.296875 0.375zm6.670059 -0.96875l0 1.484375l2.0 0l0 4.09375l-2.0 0l0 1.46875l5.734375 0l0 -1.46875l-1.90625 0l0 -5.578125l-3.828125 0zm1.875 -1.796875q0 0.203125 0.0625 0.390625q0.078125 0.171875 0.21875 0.296875q0.140625 0.125 0.328125 0.203125q0.1875 0.078125 0.421875 0.078125q0.484375 0 0.765625 -0.265625q0.28125 -0.28125 0.28125 -0.703125q0 -0.421875 -0.28125 -0.6875q-0.28125 -0.28125 -0.765625 -0.28125q-0.234375 0 -0.421875 0.078125q-0.1875 0.0625 -0.328125 0.1875q-0.140625 0.140625 -0.21875 0.328125q-0.0625 0.171875 -0.0625 0.375zm6.013809 -1.15625l0 1.484375l2.109375 0l0 7.046875l-2.109375 0l0 1.46875l5.953125 0l0 -1.46875l-2.015625 0l0 -8.53125l-3.9375 0zm7.435684 6.421875l0 0.140625q0 0.765625 0.1875 1.421875q0.1875 0.65625 0.546875 1.125q0.34375 0.484375 0.859375 0.75q0.515625 0.265625 1.15625 0.265625q0.59375 0 1.03125 -0.21875q0.453125 -0.234375 0.78125 -0.640625l0.09375 0.734375l1.640625 0l0 -10.0l-1.8125 0l0 3.59375q-0.328125 -0.375 -0.75 -0.5625q-0.421875 -0.203125 -0.96875 -0.203125q-0.65625 0 -1.171875 0.265625q-0.515625 0.25 -0.875 0.734375q-0.359375 0.46875 -0.546875 1.140625q-0.171875 0.65625 -0.171875 1.453125zm1.796875 0.140625l0 -0.140625q0 -0.4375 0.078125 -0.828125q0.078125 -0.390625 0.25 -0.671875q0.171875 -0.296875 0.4375 -0.453125q0.28125 -0.171875 0.65625 -0.171875q0.46875 0 0.765625 0.203125q0.3125 0.203125 0.5 0.546875l0 2.859375q-0.1875 0.34375 -0.5 0.546875q-0.3125 0.203125 -0.78125 0.203125q-0.375 0 -0.640625 -0.15625q-0.265625 -0.171875 -0.4375 -0.453125q-0.171875 -0.28125 -0.25 -0.65625q-0.078125 -0.390625 -0.078125 -0.828125z" fill-rule="nonzero"/><path fill="#000000" fill-opacity="0.0" d="m6.8372703 137.35039l109.41732 0l0 34.015747l-109.41732 0z" fill-rule="evenodd"/><path stroke="#000000" stroke-width="3.0" stroke-linejoin="round" stroke-linecap="butt" d="m6.8372703 137.35039l109.41732 0l0 34.015747l-109.41732 0z" fill-rule="evenodd"/><path fill="#000000" d="m48.98797 156.18951l-1.828125 0q-0.03125 0.4375 -0.15625 0.75q-0.109375 0.296875 -0.3125 0.484375q-0.203125 0.203125 -0.5 0.296875q-0.28125 0.078125 -0.625 0.078125q-0.28125 0 -0.5 -0.0625q-0.203125 -0.0625 -0.390625 -0.1875q-0.15625 -0.109375 -0.28125 -0.28125q-0.125 -0.1875 -0.21875 -0.40625q-0.125 -0.34375 -0.1875 -0.78125q-0.0625 -0.453125 -0.0625 -1.015625l0 -1.28125q0 -0.421875 0.03125 -0.78125q0.046875 -0.359375 0.125 -0.65625q0.109375 -0.390625 0.296875 -0.671875q0.1875 -0.296875 0.453125 -0.453125q0.15625 -0.09375 0.34375 -0.140625q0.1875 -0.046875 0.390625 -0.046875q0.40625 0 0.6875 0.109375q0.296875 0.109375 0.5 0.3125q0.1875 0.21875 0.28125 0.546875q0.109375 0.3125 0.125 0.734375l1.828125 0q-0.0625 -0.75 -0.3125 -1.328125q-0.25 -0.59375 -0.671875 -1.015625q-0.4375 -0.40625 -1.046875 -0.625q-0.609375 -0.21875 -1.390625 -0.21875q-0.515625 0 -0.984375 0.140625q-0.453125 0.125 -0.84375 0.375q-0.421875 0.28125 -0.765625 0.71875q-0.328125 0.421875 -0.546875 0.953125q-0.171875 0.453125 -0.265625 0.96875q-0.09375 0.515625 -0.09375 1.078125l0 1.28125q0 0.609375 0.09375 1.15625q0.109375 0.546875 0.296875 1.0q0.1875 0.453125 0.46875 0.84375q0.296875 0.375 0.65625 0.640625q0.390625 0.28125 0.890625 0.4375q0.5 0.15625 1.09375 0.15625q0.734375 0 1.34375 -0.21875q0.609375 -0.21875 1.0625 -0.625q0.4375 -0.40625 0.703125 -0.96875q0.265625 -0.578125 0.3125 -1.296875zm3.2950592 -3.109375l0 -3.921875l-1.8125 0l0 10.0l1.8125 0l0 -5.078125q0.09375 -0.140625 0.21875 -0.25q0.125 -0.109375 0.28125 -0.1875q0.171875 -0.09375 0.375 -0.140625q0.21875 -0.046875 0.453125 -0.046875q0.3125 0 0.5625 0.09375q0.25 0.078125 0.421875 0.234375q0.171875 0.171875 0.265625 0.453125q0.109375 0.265625 0.109375 0.640625l0 4.28125l1.796875 0l0 -4.265625q0 -0.765625 -0.1875 -1.3125q-0.171875 -0.5625 -0.515625 -0.90625q-0.328125 -0.359375 -0.796875 -0.515625q-0.453125 -0.171875 -1.0 -0.171875q-0.390625 0 -0.734375 0.109375q-0.328125 0.109375 -0.609375 0.3125q-0.171875 0.125 -0.34375 0.296875q-0.171875 0.171875 -0.296875 0.375zm6.670059 -0.96875l0 1.484375l2.0 0l0 4.09375l-2.0 0l0 1.46875l5.734375 0l0 -1.46875l-1.90625 0l0 -5.578125l-3.828125 0zm1.875 -1.796875q0 0.203125 0.0625 0.390625q0.078125 0.171875 0.21875 0.296875q0.140625 0.125 0.328125 0.203125q0.1875 0.078125 0.421875 0.078125q0.484375 0 0.765625 -0.265625q0.28125 -0.28125 0.28125 -0.703125q0 -0.421875 -0.28125 -0.6875q-0.28125 -0.28125 -0.765625 -0.28125q-0.234375 0 -0.421875 0.078125q-0.1875 0.0625 -0.328125 0.1875q-0.140625 0.140625 -0.21875 0.328125q-0.0625 0.171875 -0.0625 0.375zm6.013809 -1.15625l0 1.484375l2.109375 0l0 7.046875l-2.109375 0l0 1.46875l5.953125 0l0 -1.46875l-2.015625 0l0 -8.53125l-3.9375 0zm7.435684 6.421875l0 0.140625q0 0.765625 0.1875 1.421875q0.1875 0.65625 0.546875 1.125q0.34375 0.484375 0.859375 0.75q0.515625 0.265625 1.15625 0.265625q0.59375 0 1.03125 -0.21875q0.453125 -0.234375 0.78125 -0.640625l0.09375 0.734375l1.640625 0l0 -10.0l-1.8125 0l0 3.59375q-0.328125 -0.375 -0.75 -0.5625q-0.421875 -0.203125 -0.96875 -0.203125q-0.65625 0 -1.171875 0.265625q-0.515625 0.25 -0.875 0.734375q-0.359375 0.46875 -0.546875 1.140625q-0.171875 0.65625 -0.171875 1.453125zm1.796875 0.140625l0 -0.140625q0 -0.4375 0.078125 -0.828125q0.078125 -0.390625 0.25 -0.671875q0.171875 -0.296875 0.4375 -0.453125q0.28125 -0.171875 0.65625 -0.171875q0.46875 0 0.765625 0.203125q0.3125 0.203125 0.5 0.546875l0 2.859375q-0.1875 0.34375 -0.5 0.546875q-0.3125 0.203125 -0.78125 0.203125q-0.375 0 -0.640625 -0.15625q-0.265625 -0.171875 -0.4375 -0.453125q-0.171875 -0.28125 -0.25 -0.65625q-0.078125 -0.390625 -0.078125 -0.828125z" fill-rule="nonzero"/><path fill="#000000" fill-opacity="0.0" d="m139.84776 68.66535l0 19.456512l-0.4094391 0l0 20.826958" fill-rule="evenodd"/><path stroke="#000000" stroke-width="3.0" stroke-linejoin="round" stroke-linecap="butt" d="m139.84776 86.66535l0 1.4565125l-0.4094391 0l0 20.826958" fill-rule="evenodd"/><path stroke="#000000" stroke-width="3.0" stroke-linecap="butt" d="m144.80296 86.66535l-4.9552 -13.614288l-4.955185 13.614288z" fill-rule="evenodd"/><path fill="#000000" fill-opacity="0.0" d="m84.93438 6.9330707l109.41732 0l0 27.716534l-109.41732 0z" fill-rule="evenodd"/><path fill="#000000" d="m112.25414 25.59134l-1.828125 -9.546875l1.234375 0l1.09375 5.6875q0.3125 1.5625 0.40625 2.5q0.59375 -1.21875 0.984375 -1.9375l3.390625 -6.25l1.328125 0l-5.234375 9.546875l-1.375 0zm10.4262085 -2.34375l1.15625 0.109375q-0.25 0.859375 -1.140625 1.625q-0.890625 0.765625 -2.125 0.765625q-0.765625 0 -1.40625 -0.34375q-0.640625 -0.359375 -0.984375 -1.03125q-0.328125 -0.6875 -0.328125 -1.546875q0 -1.140625 0.515625 -2.203125q0.53125 -1.0625 1.359375 -1.578125q0.84375 -0.515625 1.8125 -0.515625q1.234375 0 1.96875 0.765625q0.75 0.765625 0.75 2.09375q0 0.5 -0.09375 1.046875l-5.09375 0q-0.03125 0.1875 -0.03125 0.359375q0 0.96875 0.4375 1.484375q0.453125 0.5 1.109375 0.5q0.59375 0 1.171875 -0.390625q0.59375 -0.390625 0.921875 -1.140625zm-3.421875 -1.71875l3.875 0q0.015625 -0.1875 0.015625 -0.265625q0 -0.875 -0.453125 -1.34375q-0.4375 -0.484375 -1.125 -0.484375q-0.765625 0 -1.390625 0.53125q-0.609375 0.515625 -0.921875 1.5625zm5.7562256 4.0625l1.453125 -6.90625l1.03125 0l-0.28125 1.40625q0.53125 -0.796875 1.0312424 -1.171875q0.515625 -0.390625 1.046875 -0.390625q0.359375 0 0.875 0.25l-0.484375 1.09375q-0.3125 -0.21875 -0.671875 -0.21875q-0.625 0 -1.2812424 0.6875q-0.640625 0.6875 -1.015625 2.484375l-0.578125 2.765625l-1.125 0zm9.516487 -2.34375l1.15625 0.109375q-0.25 0.859375 -1.140625 1.625q-0.890625 0.765625 -2.125 0.765625q-0.765625 0 -1.40625 -0.34375q-0.640625 -0.359375 -0.984375 -1.03125q-0.328125 -0.6875 -0.328125 -1.546875q0 -1.140625 0.515625 -2.203125q0.53125 -1.0625 1.359375 -1.578125q0.84375 -0.515625 1.8125 -0.515625q1.234375 0 1.96875 0.765625q0.75 0.765625 0.75 2.09375q0 0.5 -0.09375 1.046875l-5.09375 0q-0.03125 0.1875 -0.03125 0.359375q0 0.96875 0.4375 1.484375q0.453125 0.5 1.109375 0.5q0.59375 0 1.171875 -0.390625q0.59375 -0.390625 0.921875 -1.140625zm-3.421875 -1.71875l3.875 0q0.015625 -0.1875 0.015625 -0.265625q0 -0.875 -0.453125 -1.34375q-0.4375 -0.484375 -1.125 -0.484375q-0.765625 0 -1.390625 0.53125q-0.609375 0.515625 -0.921875 1.5625zm5.7562256 4.0625l1.453125 -6.90625l1.03125 0l-0.28125 1.40625q0.53125 -0.796875 1.03125 -1.171875q0.515625 -0.390625 1.046875 -0.390625q0.359375 0 0.875 0.25l-0.484375 1.09375q-0.3125 -0.21875 -0.671875 -0.21875q-0.625 0 -1.28125 0.6875q-0.640625 0.6875 -1.015625 2.484375l-0.578125 2.765625l-1.125 0zm4.4383698 0l2.0 -9.546875l1.171875 0l-0.703125 3.421875q0.5625 -0.515625 1.015625 -0.71875q0.453125 -0.21875 0.953125 -0.21875q0.96875 0 1.609375 0.71875q0.640625 0.71875 0.640625 2.09375q0 0.921875 -0.265625 1.6875q-0.25 0.765625 -0.640625 1.28125q-0.375 0.515625 -0.78125 0.828125q-0.40625 0.296875 -0.84375 0.453125q-0.421875 0.15625 -0.828125 0.15625q-0.6875 0 -1.203125 -0.359375q-0.515625 -0.359375 -0.8125 -1.109375l-0.265625 1.3125l-1.046875 0zm1.75 -2.84375l0 0.234375q0 0.875 0.421875 1.34375q0.421875 0.453125 1.046875 0.453125q0.625 0 1.140625 -0.421875q0.515625 -0.4375 0.84375 -1.34375q0.328125 -0.921875 0.328125 -1.703125q0 -0.875 -0.421875 -1.359375q-0.40625 -0.484375 -1.03125 -0.484375q-0.640625 0 -1.171875 0.5q-0.53125 0.484375 -0.890625 1.515625q-0.265625 0.765625 -0.265625 1.265625zm10.381241 1.59375q-1.234375 1.40625 -2.546875 1.40625q-0.796875 0 -1.296875 -0.453125q-0.484375 -0.46875 -0.484375 -1.125q0 -0.4375 0.21875 -1.5l0.84375 -3.984375l1.171875 0l-0.921875 4.40625q-0.109375 0.5625 -0.109375 0.859375q0 0.390625 0.234375 0.609375q0.234375 0.21875 0.703125 0.21875q0.484375 0 0.953125 -0.234375q0.484375 -0.234375 0.8125 -0.640625q0.34375 -0.421875 0.5625 -0.984375q0.140625 -0.359375 0.328125 -1.25l0.625 -2.984375l1.1875 0l-1.453125 6.90625l-1.078125 0l0.25 -1.25zm2.6937256 1.25l1.453125 -6.90625l1.0625 0l-0.25 1.203125q0.6875 -0.71875 1.296875 -1.03125q0.609375 -0.328125 1.234375 -0.328125q0.84375 0 1.3125 0.453125q0.484375 0.453125 0.484375 1.21875q0 0.375 -0.171875 1.203125l-0.875 4.1875l-1.171875 0l0.921875 -4.375q0.125 -0.640625 0.125 -0.953125q0 -0.34375 -0.234375 -0.546875q-0.234375 -0.21875 -0.6875 -0.21875q-0.90625 0 -1.609375 0.65625q-0.703125 0.640625 -1.03125 2.21875l-0.671875 3.21875l-1.1875 0zm7.3499756 0.625l1.1875 0.109375q0 0.40625 0.109375 0.609375q0.109375 0.203125 0.34375 0.3125q0.328125 0.140625 0.828125 0.140625q1.0625 0 1.53125 -0.546875q0.3125 -0.375 0.578125 -1.625l0.109375 -0.5625q-0.921875 0.9375 -1.953125 0.9375q-1.046875 0 -1.75 -0.765625q-0.703125 -0.78125 -0.703125 -2.1875q0 -1.171875 0.546875 -2.140625q0.5625 -0.984375 1.328125 -1.46875q0.765625 -0.5 1.578125 -0.5q1.359375 0 2.09375 1.28125l0.234375 -1.125l1.078125 0l-1.390625 6.671875q-0.21875 1.09375 -0.59375 1.703125q-0.375 0.625 -1.03125 0.953125q-0.65625 0.34375 -1.53125 0.34375q-0.828125 0 -1.4375 -0.21875q-0.59375 -0.203125 -0.890625 -0.625q-0.296875 -0.40625 -0.296875 -0.953125q0 -0.15625 0.03125 -0.34375zm1.46875 -3.6875q0 0.71875 0.140625 1.078125q0.203125 0.5 0.5625 0.765625q0.359375 0.25 0.796875 0.25q0.578125 0 1.140625 -0.40625q0.578125 -0.40625 0.9375 -1.25q0.359375 -0.859375 0.359375 -1.625q0 -0.859375 -0.484375 -1.359375q-0.46875 -0.515625 -1.15625 -0.515625q-0.4375 0 -0.84375 0.234375q-0.390625 0.234375 -0.75 0.703125q-0.34375 0.46875 -0.53125 1.140625q-0.171875 0.65625 -0.171875 0.984375z" fill-rule="nonzero"/><path fill="#000000" fill-opacity="0.0" d="m213.33858 108.94095l-0.1574707 28.40944" fill-rule="evenodd"/><path stroke="#000000" stroke-width="2.0" stroke-linejoin="round" stroke-linecap="round" d="m213.33858 108.94095l-0.1574707 28.40944" fill-rule="evenodd"/><path fill="#000000" fill-opacity="0.0" d="m61.372704 108.89895l0.34645844 29.165352" fill-rule="evenodd"/><path stroke="#000000" stroke-width="2.0" stroke-linejoin="round" stroke-linecap="round" d="m61.372704 108.89895l0.34645844 29.165352" fill-rule="evenodd"/><path fill="#000000" fill-opacity="0.0" d="m487.91077 71.673225l109.4173 0l0 34.015755l-109.4173 0z" fill-rule="evenodd"/><path stroke="#000000" stroke-width="3.0" stroke-linejoin="round" stroke-linecap="butt" d="m487.91077 71.673225l109.4173 0l0 34.015755l-109.4173 0z" fill-rule="evenodd"/><path fill="#000000" d="m520.3914 91.01235q0 0.25 -0.109375 0.46875q-0.09375 0.203125 -0.28125 0.359375q-0.203125 0.140625 -0.484375 0.234375q-0.28125 0.078125 -0.640625 0.078125q-0.421875 0 -0.765625 -0.09375q-0.328125 -0.09375 -0.578125 -0.28125q-0.25 -0.203125 -0.390625 -0.5q-0.125 -0.3125 -0.140625 -0.734375l-1.796875 0q0 0.734375 0.28125 1.28125q0.28125 0.546875 0.78125 0.953125q0.5 0.40625 1.1875 0.625q0.703125 0.203125 1.421875 0.203125q0.71875 0 1.328125 -0.171875q0.609375 -0.171875 1.046875 -0.515625q0.453125 -0.328125 0.703125 -0.8125q0.25 -0.484375 0.25 -1.109375q0 -0.71875 -0.34375 -1.265625q-0.328125 -0.5625 -0.875 -0.984375q-0.375 -0.25 -0.828125 -0.4375q-0.4375 -0.203125 -0.921875 -0.34375q-0.453125 -0.125 -0.828125 -0.265625q-0.359375 -0.140625 -0.609375 -0.3125q-0.25 -0.171875 -0.390625 -0.390625q-0.125 -0.21875 -0.125 -0.484375q0 -0.25 0.09375 -0.46875q0.109375 -0.21875 0.296875 -0.375q0.203125 -0.15625 0.484375 -0.234375q0.28125 -0.09375 0.640625 -0.09375q0.40625 0 0.703125 0.109375q0.296875 0.09375 0.5 0.28125q0.1875 0.203125 0.28125 0.46875q0.109375 0.265625 0.125 0.578125l1.78125 0q0 -0.625 -0.25 -1.15625q-0.25 -0.546875 -0.6875 -0.9375q-0.4375 -0.375 -1.0625 -0.59375q-0.609375 -0.21875 -1.359375 -0.21875q-0.703125 0 -1.328125 0.1875q-0.609375 0.1875 -1.046875 0.53125q-0.453125 0.34375 -0.71875 0.84375q-0.25 0.484375 -0.25 1.078125q0 0.515625 0.1875 0.96875q0.203125 0.4375 0.578125 0.796875q0.375 0.375 0.96875 0.6875q0.609375 0.296875 1.390625 0.5q0.5 0.140625 0.84375 0.3125q0.34375 0.15625 0.5625 0.34375q0.203125 0.1875 0.28125 0.40625q0.09375 0.21875 0.09375 0.484375zm6.560669 2.59375q1.03125 0 1.78125 -0.390625q0.75 -0.390625 1.09375 -0.890625l-0.90625 -0.96875q-0.3125 0.40625 -0.8125 0.609375q-0.5 0.1875 -1.046875 0.1875q-0.375 0 -0.703125 -0.109375q-0.3125 -0.125 -0.546875 -0.328125q-0.25 -0.21875 -0.390625 -0.46875q-0.140625 -0.265625 -0.234375 -0.6875l0 -0.015625l4.78125 0l0 -0.765625q0 -0.78125 -0.21875 -1.421875q-0.21875 -0.640625 -0.625 -1.09375q-0.421875 -0.453125 -1.015625 -0.703125q-0.59375 -0.25 -1.359375 -0.25q-0.734375 0 -1.359375 0.265625q-0.625 0.265625 -1.078125 0.75q-0.453125 0.484375 -0.703125 1.15625q-0.25 0.65625 -0.25 1.46875l0 0.25q0 0.71875 0.25 1.34375q0.265625 0.609375 0.734375 1.078125q0.46875 0.453125 1.125 0.71875q0.671875 0.265625 1.484375 0.265625zm-0.203125 -5.828125q0.34375 0 0.59375 0.109375q0.265625 0.09375 0.453125 0.28125q0.1875 0.1875 0.28125 0.453125q0.109375 0.25 0.109375 0.53125l0 0.140625l-2.96875 0q0.0625 -0.34375 0.1875 -0.625q0.140625 -0.28125 0.34375 -0.484375q0.1875 -0.203125 0.4375 -0.296875q0.25 -0.109375 0.5625 -0.109375zm9.841919 -1.46875q-0.703125 0 -1.3125 0.34375q-0.59375 0.34375 -1.015625 0.9375l-0.015625 -0.15625l-0.078125 -1.0l-1.671875 0l0 7.046875l1.796875 0l0 -4.234375q0.125 -0.296875 0.3125 -0.515625q0.1875 -0.21875 0.453125 -0.359375q0.234375 -0.125 0.515625 -0.1875q0.28125 -0.0625 0.625 -0.0625q0.34375 0 0.71875 0.046875q0.375 0.03125 0.734375 0.125l0.265625 -1.8125q-0.21875 -0.0625 -0.5625 -0.109375q-0.34375 -0.0625 -0.765625 -0.0625zm5.185669 7.171875l1.703125 0l2.671875 -7.046875l-1.890625 0l-1.546875 4.96875l-0.09375 0.5l-0.09375 -0.5l-1.546875 -4.96875l-1.890625 0l2.6875 7.046875zm6.24823 -7.046875l0 1.484375l2.0 0l0 4.09375l-2.0 0l0 1.46875l5.734375 0l0 -1.46875l-1.90625 0l0 -5.578125l-3.828125 0zm1.875 -1.796875q0 0.203125 0.0625 0.390625q0.078125 0.171875 0.21875 0.296875q0.140625 0.125 0.328125 0.203125q0.1875 0.078125 0.421875 0.078125q0.484375 0 0.765625 -0.265625q0.28125 -0.28125 0.28125 -0.703125q0 -0.421875 -0.28125 -0.6875q-0.28125 -0.28125 -0.765625 -0.28125q-0.234375 0 -0.421875 0.078125q-0.1875 0.0625 -0.328125 0.1875q-0.140625 0.140625 -0.21875 0.328125q-0.0625 0.171875 -0.0625 0.375zm8.748169 7.53125q-0.4375 0 -0.71875 -0.171875q-0.28125 -0.1875 -0.4375 -0.46875q-0.171875 -0.296875 -0.234375 -0.671875q-0.0625 -0.375 -0.0625 -0.796875l0 -0.1875q0 -0.40625 0.0625 -0.78125q0.0625 -0.375 0.234375 -0.671875q0.171875 -0.296875 0.4375 -0.46875q0.28125 -0.171875 0.71875 -0.171875q0.296875 0 0.53125 0.109375q0.25 0.09375 0.421875 0.25q0.1875 0.171875 0.265625 0.40625q0.09375 0.234375 0.09375 0.5l1.703125 0q0 -0.625 -0.21875 -1.125q-0.21875 -0.515625 -0.609375 -0.875q-0.40625 -0.34375 -0.96875 -0.53125q-0.546875 -0.203125 -1.203125 -0.203125q-0.8125 0 -1.421875 0.28125q-0.609375 0.28125 -1.03125 0.765625q-0.421875 0.46875 -0.625 1.125q-0.203125 0.640625 -0.203125 1.390625l0 0.1875q0 0.75 0.203125 1.40625q0.21875 0.640625 0.625 1.125q0.421875 0.46875 1.03125 0.75q0.625 0.28125 1.4375 0.28125q0.609375 0 1.15625 -0.1875q0.546875 -0.203125 0.953125 -0.53125q0.40625 -0.34375 0.640625 -0.8125q0.234375 -0.46875 0.234375 -1.015625l-1.703125 0q0 0.25 -0.109375 0.453125q-0.09375 0.203125 -0.265625 0.34375q-0.1875 0.140625 -0.4375 0.21875q-0.234375 0.078125 -0.5 0.078125zm8.295044 1.4375q1.03125 0 1.78125 -0.390625q0.75 -0.390625 1.09375 -0.890625l-0.90625 -0.96875q-0.3125 0.40625 -0.8125 0.609375q-0.5 0.1875 -1.046875 0.1875q-0.375 0 -0.703125 -0.109375q-0.3125 -0.125 -0.546875 -0.328125q-0.25 -0.21875 -0.390625 -0.46875q-0.140625 -0.265625 -0.234375 -0.6875l0 -0.015625l4.78125 0l0 -0.765625q0 -0.78125 -0.21875 -1.421875q-0.21875 -0.640625 -0.625 -1.09375q-0.421875 -0.453125 -1.015625 -0.703125q-0.59375 -0.25 -1.359375 -0.25q-0.734375 0 -1.359375 0.265625q-0.625 0.265625 -1.078125 0.75q-0.453125 0.484375 -0.703125 1.15625q-0.25 0.65625 -0.25 1.46875l0 0.25q0 0.71875 0.25 1.34375q0.265625 0.609375 0.734375 1.078125q0.46875 0.453125 1.125 0.71875q0.671875 0.265625 1.484375 0.265625zm-0.203125 -5.828125q0.34375 0 0.59375 0.109375q0.265625 0.09375 0.453125 0.28125q0.1875 0.1875 0.28125 0.453125q0.109375 0.25 0.109375 0.53125l0 0.140625l-2.96875 0q0.0625 -0.34375 0.1875 -0.625q0.140625 -0.28125 0.34375 -0.484375q0.1875 -0.203125 0.4375 -0.296875q0.25 -0.109375 0.5625 -0.109375z" fill-rule="nonzero"/><path fill="#000000" fill-opacity="0.0" d="m306.2756 71.673225l109.4173 0l0 34.015755l-109.4173 0z" fill-rule="evenodd"/><path stroke="#000000" stroke-width="3.0" stroke-linejoin="round" stroke-linecap="butt" d="m306.2756 71.673225l109.4173 0l0 34.015755l-109.4173 0z" fill-rule="evenodd"/><path fill="#000000" d="m344.4272 90.51235l-1.828125 0q-0.03125 0.4375 -0.15625 0.75q-0.109375 0.296875 -0.3125 0.484375q-0.203125 0.203125 -0.5 0.296875q-0.28125 0.078125 -0.625 0.078125q-0.28125 0 -0.5 -0.0625q-0.203125 -0.0625 -0.390625 -0.1875q-0.15625 -0.109375 -0.28125 -0.28125q-0.125 -0.1875 -0.21875 -0.40625q-0.125 -0.34375 -0.1875 -0.78125q-0.0625 -0.453125 -0.0625 -1.015625l0 -1.28125q0 -0.421875 0.03125 -0.78125q0.046875 -0.359375 0.125 -0.65625q0.109375 -0.390625 0.296875 -0.671875q0.1875 -0.296875 0.453125 -0.453125q0.15625 -0.09375 0.34375 -0.140625q0.1875 -0.046875 0.390625 -0.046875q0.40625 0 0.6875 0.109375q0.296875 0.109375 0.5 0.3125q0.1875 0.21875 0.28125 0.546875q0.109375 0.3125 0.125 0.734375l1.828125 0q-0.0625 -0.75 -0.3125 -1.328125q-0.25 -0.59375 -0.671875 -1.015625q-0.4375 -0.40625 -1.046875 -0.625q-0.609375 -0.21875 -1.390625 -0.21875q-0.515625 0 -0.984375 0.140625q-0.453125 0.125 -0.84375 0.375q-0.421875 0.28125 -0.765625 0.71875q-0.328125 0.421875 -0.546875 0.953125q-0.171875 0.453125 -0.265625 0.96875q-0.09375 0.515625 -0.09375 1.078125l0 1.28125q0 0.609375 0.09375 1.15625q0.109375 0.546875 0.296875 1.0q0.1875 0.453125 0.46875 0.84375q0.296875 0.375 0.65625 0.640625q0.390625 0.28125 0.890625 0.4375q0.5 0.15625 1.09375 0.15625q0.734375 0 1.34375 -0.21875q0.609375 -0.21875 1.0625 -0.625q0.4375 -0.40625 0.703125 -0.96875q0.265625 -0.578125 0.3125 -1.296875zm1.8575745 -7.03125l0 1.484375l2.109375 0l0 7.046875l-2.109375 0l0 1.46875l5.953125 0l0 -1.46875l-2.015625 0l0 -8.53125l-3.9375 0zm8.107544 2.953125l0 1.484375l2.0 0l0 4.09375l-2.0 0l0 1.46875l5.734375 0l0 -1.46875l-1.90625 0l0 -5.578125l-3.828125 0zm1.875 -1.796875q0 0.203125 0.0625 0.390625q0.078125 0.171875 0.21875 0.296875q0.140625 0.125 0.328125 0.203125q0.1875 0.078125 0.421875 0.078125q0.484375 0 0.765625 -0.265625q0.28125 -0.28125 0.28125 -0.703125q0 -0.421875 -0.28125 -0.6875q-0.28125 -0.28125 -0.765625 -0.28125q-0.234375 0 -0.421875 0.078125q-0.1875 0.0625 -0.328125 0.1875q-0.140625 0.140625 -0.21875 0.328125q-0.0625 0.171875 -0.0625 0.375zm9.045074 8.96875q1.03125 0 1.78125 -0.390625q0.75 -0.390625 1.09375 -0.890625l-0.90625 -0.96875q-0.3125 0.40625 -0.8125 0.609375q-0.5 0.1875 -1.046875 0.1875q-0.375 0 -0.703125 -0.109375q-0.3125 -0.125 -0.546875 -0.328125q-0.25 -0.21875 -0.390625 -0.46875q-0.140625 -0.265625 -0.234375 -0.6875l0 -0.015625l4.78125 0l0 -0.765625q0 -0.78125 -0.21875 -1.421875q-0.21875 -0.640625 -0.625 -1.09375q-0.421875 -0.453125 -1.015625 -0.703125q-0.59375 -0.25 -1.359375 -0.25q-0.734375 0 -1.359375 0.265625q-0.625 0.265625 -1.078125 0.75q-0.453125 0.484375 -0.703125 1.15625q-0.25 0.65625 -0.25 1.46875l0 0.25q0 0.71875 0.25 1.34375q0.265625 0.609375 0.734375 1.078125q0.46875 0.453125 1.125 0.71875q0.671875 0.265625 1.484375 0.265625zm-0.203125 -5.828125q0.34375 0 0.59375 0.109375q0.265625 0.09375 0.453125 0.28125q0.1875 0.1875 0.28125 0.453125q0.109375 0.25 0.109375 0.53125l0 0.140625l-2.96875 0q0.0625 -0.34375 0.1875 -0.625q0.140625 -0.28125 0.34375 -0.484375q0.1875 -0.203125 0.4375 -0.296875q0.25 -0.109375 0.5625 -0.109375zm4.795044 5.703125l1.8125305 0l0 -5.0q0.09375 -0.140625 0.203125 -0.25q0.109375 -0.125 0.25 -0.21875q0.15625 -0.109375 0.375 -0.171875q0.21875 -0.0625 0.484375 -0.0625q0.3125 0 0.5625 0.0625q0.25 0.0625 0.421875 0.21875q0.171875 0.15625 0.265625 0.4375q0.09375 0.265625 0.09375 0.671875l0 4.3125l1.8125 0l0 -4.328125q0 -0.78125 -0.1875 -1.3125q-0.171875 -0.53125 -0.484375 -0.875q-0.328125 -0.34375 -0.78125 -0.5q-0.4375 -0.15625 -0.96875 -0.15625q-0.421875 0 -0.796875 0.125q-0.359375 0.109375 -0.671875 0.328125q-0.1875 0.125 -0.34375 0.296875q-0.15625 0.15625 -0.296875 0.359375l-0.109375 -0.984375l-1.6406555 0l0 7.046875zm11.310699 -8.765625l-1.8125 0l0 1.71875l-1.609375 0l0 1.34375l1.609375 0l0 3.203125q0 0.6875 0.1875 1.1875q0.1875 0.5 0.515625 0.8125q0.34375 0.328125 0.8125 0.484375q0.46875 0.15625 1.046875 0.15625q0.296875 0 0.609375 -0.03125q0.3125 -0.03125 0.59375 -0.078125q0.28125 -0.0625 0.53125 -0.140625q0.265625 -0.078125 0.453125 -0.1875l-0.171875 -1.25q-0.125 0.03125 -0.296875 0.078125q-0.171875 0.03125 -0.375 0.046875q-0.203125 0.03125 -0.421875 0.0625q-0.21875 0.015625 -0.421875 0.015625q-0.28125 0 -0.515625 -0.0625q-0.234375 -0.078125 -0.390625 -0.234375q-0.171875 -0.140625 -0.265625 -0.390625q-0.078125 -0.265625 -0.078125 -0.65625l0 -3.015625l2.625 0l0 -1.34375l-2.625 0l0 -1.71875z" fill-rule="nonzero"/><path fill="#000000" fill-opacity="0.0" d="m415.6929 88.6811l72.22049 0" fill-rule="evenodd"/><path stroke="#000000" stroke-width="2.0" stroke-linejoin="round" stroke-linecap="butt" d="m426.94946 88.6811l60.96393 0" fill-rule="evenodd"/><path stroke="#000000" stroke-width="2.0" stroke-linecap="butt" d="m426.94946 88.6811l-4.7565613 -3.330574l-4.756531 3.330574l4.756531 3.330574z" fill-rule="evenodd"/><path fill="#000000" fill-opacity="0.0" d="m61.181103 108.86483l151.62204 0" fill-rule="evenodd"/><path stroke="#000000" stroke-width="2.0" stroke-linejoin="round" stroke-linecap="round" d="m61.181103 108.86483l151.62204 0" fill-rule="evenodd"/><path fill="#000000" fill-opacity="0.0" d="m402.77692 6.9330707l109.4173 0l0 27.464565l-109.4173 0z" fill-rule="evenodd"/><path fill="#000000" d="m421.28018 25.465355l5.40625 -9.546875l1.5 0l1.578125 9.546875l-1.234375 0l-0.46875 -2.75l-3.859375 0l-1.53125 2.75l-1.390625 0zm3.46875 -3.734375l3.15625 0l-0.359375 -2.390625q-0.21875 -1.421875 -0.265625 -2.375q-0.328125 0.828125 -0.953125 1.953125l-1.578125 2.8125zm6.061615 4.359375l1.1875 0.109375q0 0.40625 0.109375 0.609375q0.109375 0.203125 0.34375 0.3125q0.328125 0.140625 0.828125 0.140625q1.0625 0 1.53125 -0.546875q0.3125 -0.375 0.578125 -1.625l0.109375 -0.5625q-0.921875 0.9375 -1.953125 0.9375q-1.046875 0 -1.75 -0.765625q-0.703125 -0.78125 -0.703125 -2.1875q0 -1.171875 0.546875 -2.140625q0.5625 -0.984375 1.328125 -1.46875q0.765625 -0.5 1.578125 -0.5q1.359375 0 2.09375 1.28125l0.234375 -1.125l1.078125 0l-1.390625 6.671875q-0.21875 1.09375 -0.59375 1.703125q-0.375 0.625 -1.03125 0.953125q-0.65625 0.34375 -1.53125 0.34375q-0.828125 0 -1.4375 -0.21875q-0.59375 -0.203125 -0.890625 -0.625q-0.296875 -0.40625 -0.296875 -0.953125q0 -0.15625 0.03125 -0.34375zm1.46875 -3.6875q0 0.71875 0.140625 1.078125q0.203125 0.5 0.5625 0.765625q0.359375 0.25 0.796875 0.25q0.578125 0 1.140625 -0.40625q0.578125 -0.40625 0.9375 -1.25q0.359375 -0.859375 0.359375 -1.625q0 -0.859375 -0.484375 -1.359375q-0.46875 -0.515625 -1.15625 -0.515625q-0.4375 0 -0.84375 0.234375q-0.390625 0.234375 -0.75 0.703125q-0.34375 0.46875 -0.53125 1.140625q-0.171875 0.65625 -0.171875 0.984375zm5.9437256 3.6875l1.1875 0.109375q0 0.40625 0.109375 0.609375q0.109375 0.203125 0.34375 0.3125q0.328125 0.140625 0.828125 0.140625q1.0625 0 1.53125 -0.546875q0.3125 -0.375 0.578125 -1.625l0.109375 -0.5625q-0.921875 0.9375 -1.953125 0.9375q-1.046875 0 -1.75 -0.765625q-0.703125 -0.78125 -0.703125 -2.1875q0 -1.171875 0.546875 -2.140625q0.5625 -0.984375 1.328125 -1.46875q0.765625 -0.5 1.578125 -0.5q1.359375 0 2.09375 1.28125l0.234375 -1.125l1.078125 0l-1.390625 6.671875q-0.21875 1.09375 -0.59375 1.703125q-0.375 0.625 -1.03125 0.953125q-0.65625 0.34375 -1.53125 0.34375q-0.828125 0 -1.4375 -0.21875q-0.59375 -0.203125 -0.890625 -0.625q-0.296875 -0.40625 -0.296875 -0.953125q0 -0.15625 0.03125 -0.34375zm1.46875 -3.6875q0 0.71875 0.140625 1.078125q0.203125 0.5 0.5625 0.765625q0.359375 0.25 0.796875 0.25q0.578125 0 1.140625 -0.40625q0.578125 -0.40625 0.9375 -1.25q0.359375 -0.859375 0.359375 -1.625q0 -0.859375 -0.484375 -1.359375q-0.46875 -0.515625 -1.15625 -0.515625q-0.4375 0 -0.84375 0.234375q-0.390625 0.234375 -0.75 0.703125q-0.34375 0.46875 -0.53125 1.140625q-0.171875 0.65625 -0.171875 0.984375zm6.0062256 3.0625l1.453125 -6.90625l1.03125 0l-0.28125 1.40625q0.53125 -0.796875 1.03125 -1.171875q0.515625 -0.390625 1.046875 -0.390625q0.359375 0 0.875 0.25l-0.484375 1.09375q-0.3125 -0.21875 -0.671875 -0.21875q-0.625 0 -1.28125 0.6875q-0.640625 0.6875 -1.015625 2.484375l-0.578125 2.765625l-1.125 0zm9.51651 -2.34375l1.15625 0.109375q-0.25 0.859375 -1.140625 1.625q-0.890625 0.765625 -2.125 0.765625q-0.765625 0 -1.40625 -0.34375q-0.640625 -0.359375 -0.984375 -1.03125q-0.328125 -0.6875 -0.328125 -1.546875q0 -1.140625 0.515625 -2.203125q0.53125 -1.0625 1.359375 -1.578125q0.84375 -0.515625 1.8125 -0.515625q1.234375 0 1.96875 0.765625q0.75 0.765625 0.75 2.09375q0 0.5 -0.09375 1.046875l-5.09375 0q-0.03125 0.1875 -0.03125 0.359375q0 0.96875 0.4375 1.484375q0.453125 0.5 1.109375 0.5q0.59375 0 1.171875 -0.390625q0.59375 -0.390625 0.921875 -1.140625zm-3.421875 -1.71875l3.875 0q0.015625 -0.1875 0.015625 -0.265625q0 -0.875 -0.453125 -1.34375q-0.4375 -0.484375 -1.125 -0.484375q-0.765625 0 -1.390625 0.53125q-0.609375 0.515625 -0.921875 1.5625zm5.6937256 4.6875l1.1875 0.109375q0 0.40625 0.109375 0.609375q0.109375 0.203125 0.34375 0.3125q0.328125 0.140625 0.828125 0.140625q1.0625 0 1.53125 -0.546875q0.3125 -0.375 0.578125 -1.625l0.109375 -0.5625q-0.921875 0.9375 -1.953125 0.9375q-1.046875 0 -1.75 -0.765625q-0.703125 -0.78125 -0.703125 -2.1875q0 -1.171875 0.546875 -2.140625q0.5625 -0.984375 1.328125 -1.46875q0.765625 -0.5 1.578125 -0.5q1.359375 0 2.09375 1.28125l0.234375 -1.125l1.078125 0l-1.390625 6.671875q-0.21875 1.09375 -0.59375 1.703125q-0.375 0.625 -1.03125 0.953125q-0.65625 0.34375 -1.53125 0.34375q-0.828125 0 -1.4375 -0.21875q-0.59375 -0.203125 -0.890625 -0.625q-0.296875 -0.40625 -0.296875 -0.953125q0 -0.15625 0.03125 -0.34375zm1.46875 -3.6875q0 0.71875 0.140625 1.078125q0.203125 0.5 0.5625 0.765625q0.359375 0.25 0.796875 0.25q0.578125 0 1.140625 -0.40625q0.578125 -0.40625 0.9375 -1.25q0.359375 -0.859375 0.359375 -1.625q0 -0.859375 -0.484375 -1.359375q-0.46875 -0.515625 -1.15625 -0.515625q-0.4375 0 -0.84375 0.234375q-0.390625 0.234375 -0.75 0.703125q-0.34375 0.46875 -0.53125 1.140625q-0.171875 0.65625 -0.171875 0.984375zm10.678101 2.203125q-0.625 0.53125 -1.1875 0.78125q-0.5625 0.234375 -1.203125 0.234375q-0.96875 0 -1.5625 -0.5625q-0.578125 -0.5625 -0.578125 -1.4375q0 -0.578125 0.265625 -1.015625q0.265625 -0.453125 0.703125 -0.71875q0.4375 -0.28125 1.0625 -0.390625q0.40625 -0.078125 1.515625 -0.125q1.109375 -0.046875 1.59375 -0.234375q0.125 -0.484375 0.125 -0.8125q0 -0.40625 -0.296875 -0.640625q-0.40625 -0.328125 -1.1875 -0.328125q-0.75 0 -1.21875 0.328125q-0.46875 0.328125 -0.6875 0.9375l-1.1875 -0.109375q0.359375 -1.015625 1.140625 -1.5625q0.796875 -0.546875 2.0 -0.546875q1.28125 0 2.03125 0.609375q0.578125 0.453125 0.578125 1.1875q0 0.546875 -0.15625 1.28125l-0.390625 1.71875q-0.1875 0.8125 -0.1875 1.328125q0 0.328125 0.15625 0.9375l-1.203125 0q-0.09375 -0.34375 -0.125 -0.859375zm0.421875 -2.640625q-0.234375 0.09375 -0.53125 0.15625q-0.28125 0.046875 -0.9375 0.109375q-1.03125 0.078125 -1.453125 0.21875q-0.421875 0.140625 -0.640625 0.453125q-0.21875 0.296875 -0.21875 0.671875q0 0.5 0.34375 0.828125q0.34375 0.3125 0.984375 0.3125q0.578125 0 1.109375 -0.3125q0.546875 -0.3125 0.859375 -0.859375q0.3125 -0.5625 0.484375 -1.578125zm5.0843506 2.546875l-0.203125 0.953125q-0.421875 0.109375 -0.8125 0.109375q-0.703125 0 -1.125 -0.34375q-0.3125 -0.25 -0.3125 -0.703125q0 -0.234375 0.171875 -1.046875l0.828125 -4.015625l-0.921875 0l0.1875 -0.90625l0.9375 0l0.34375 -1.703125l1.359375 -0.8125l-0.53125 2.515625l1.15625 0l-0.1875 0.90625l-1.15625 0l-0.796875 3.8125q-0.15625 0.734375 -0.15625 0.875q0 0.21875 0.109375 0.328125q0.125 0.109375 0.40625 0.109375q0.390625 0 0.703125 -0.078125zm2.6092224 -7.25l0.28125 -1.34375l1.171875 0l-0.28125 1.34375l-1.171875 0zm-1.71875 8.203125l1.453125 -6.90625l1.171875 0l-1.4375 6.90625l-1.1875 0zm3.226715 -2.625q0 -2.015625 1.1875 -3.34375q0.984375 -1.09375 2.578125 -1.09375q1.25 0 2.015625 0.78125q0.765625 0.78125 0.765625 2.109375q0 1.1875 -0.484375 2.21875q-0.484375 1.015625 -1.375 1.5625q-0.890625 0.546875 -1.875 0.546875q-0.796875 0 -1.46875 -0.34375q-0.65625 -0.34375 -1.0 -0.96875q-0.34375 -0.640625 -0.34375 -1.46875zm1.171875 -0.109375q0 0.96875 0.46875 1.484375q0.46875 0.5 1.1875 0.5q0.375 0 0.75 -0.15625q0.375 -0.15625 0.6875 -0.46875q0.328125 -0.3125 0.546875 -0.703125q0.21875 -0.40625 0.359375 -0.875q0.203125 -0.640625 0.203125 -1.234375q0 -0.9375 -0.46875 -1.453125q-0.46875 -0.515625 -1.1875 -0.515625q-0.5625 0 -1.015625 0.265625q-0.453125 0.265625 -0.828125 0.78125q-0.359375 0.5 -0.53125 1.171875q-0.171875 0.671875 -0.171875 1.203125zm6.0218506 2.734375l1.453125 -6.90625l1.0625 0l-0.25 1.203125q0.6875 -0.71875 1.296875 -1.03125q0.609375 -0.328125 1.234375 -0.328125q0.84375 0 1.3125 0.453125q0.484375 0.453125 0.484375 1.21875q0 0.375 -0.171875 1.203125l-0.875 4.1875l-1.171875 0l0.921875 -4.375q0.125 -0.640625 0.125 -0.953125q0 -0.34375 -0.234375 -0.546875q-0.234375 -0.21875 -0.6875 -0.21875q-0.90625 0 -1.609375 0.65625q-0.703125 0.640625 -1.03125 2.21875l-0.671875 3.21875l-1.1875 0z" fill-rule="nonzero"/></g></svg>